<?xml version="1.0" encoding="utf-8"?>
<!-- Generator: Adobe Illustrator 23.0.2, SVG Export Plug-In . SVG Version: 6.00 Build 0)  -->
<svg version="1.1" xmlns="http://www.w3.org/2000/svg" xmlns:xlink="http://www.w3.org/1999/xlink" x="0px" y="0px"
	 viewBox="0 0 841.89 595.28" style="enable-background:new 0 0 841.89 595.28;" xml:space="preserve">
<style type="text/css">
	.st0{fill:#ECC5BF;}
	.st1{fill:#F8E2D2;}
	.st2{fill:#CBF4FF;}
	.st3{fill:#FF3A5B;}
	.st4{fill:#E7BA9F;}
	.st5{fill:#422918;}
	.st6{fill:#E59C8B;}
	.st7{fill:#FFFFFF;}
	.st8{fill:#1D70B7;}
	.st9{fill:#FFDD4C;}
	.st10{fill:#007EFF;}
	.st11{fill:#97E6FC;}
	.st12{fill:#FFF88A;}
	.st13{fill:#FF6671;}
	.st14{fill:#D9D9D9;}
	.st15{fill:#50E3C2;}
	.st16{fill:#B1B1B1;}
	.st17{fill:#868686;}
	.st18{fill:#C89B83;}
	.st19{fill:#E3C9BB;}
	.st20{fill:#ECECEC;}
	.st21{fill:#FF8438;}
	.st22{fill:#DEB496;}
	.st23{fill:#EACEB3;}
	.st24{fill:#ECDCD2;}
	.st25{fill:#F5F5F5;}
	.st26{fill:url(#SVGID_1_);}
	.st27{fill:url(#SVGID_2_);}
	.st28{fill:#AE846C;}
	.st29{fill:#9E6D57;}
	.st30{fill:#C6C6C5;}
	.st31{fill:#F6ECE3;}
	.st32{fill:#E7BCA9;}
	.st33{fill:#F6D8C7;}
	.st34{fill:#F6E9DA;}
	.st35{fill:#1D1D1B;}
	.st36{fill:none;}
</style>
<g id="colour">
</g>
<g id="Layer_3">
	<g>
		<path class="st4" d="M197.52,157.98c-1.62-5.62-7.7-8.43-12.98-10.96c-12.54-6.02-23.92-14.18-35.22-22.3
			c-2.1-1.51-4.35-4.47-2.49-6.25c0.72-0.69,1.81-0.81,2.81-0.76c8.22,0.37,15.37,9.07,23.24,6.67c-8.67-6.47-17.33-12.94-26-19.41
			c-0.07-1.66,1.77-2.87,3.43-2.78c1.66,0.09,3.11,1.08,4.47,2.03c6.01,4.21,12.01,8.42,18.02,12.64
			c-3.74-6.25-8.83-11.68-14.82-15.81c-1.91-1.32-4.01-2.61-5.03-4.69c-1.02-2.08-0.29-5.21,1.97-5.72c1.53-0.34,3.02,0.59,4.3,1.48
			c7.78,5.38,15.55,10.76,23.33,16.14c0.2-4.85-3.19-9.03-6.38-12.69c-4.34-4.98-8.69-9.96-13.03-14.93
			c0.47-1.92,2.8-2.87,4.74-2.51c1.94,0.35,3.56,1.64,5.09,2.89c4.34,3.54,8.68,7.08,13.02,10.61c-0.71-2.36,2.1-4.64,4.52-4.19
			c2.42,0.45,4.14,2.67,5.02,4.98s1.16,4.8,2.03,7.1c1.99,5.25,6.88,9.02,8.74,14.32c2.68,7.67-0.93,18.14,5.59,22.98
			c1.84,1.37,4.56,2.49,4.48,4.78c-0.03,0.91-0.56,1.72-1.1,2.46c-4.1,5.6-10.16,9.74-16.86,11.52"/>
	</g>
	<g>
		<path class="st4" d="M447.99,296.53c4.11,8.43,8.41,16.77,12.9,25.01c1.86,3.42,3.91,6.98,7.26,8.95
			c2.97,1.75,6.59,2.02,10.04,1.85c12.13-0.6,23.64-6.02,33.29-13.39s17.65-16.65,25.39-26.02c11.91-14.4,23.68-29.8,27.97-47.99
			c4.45-18.9,0.31-38.64-4.05-57.56c-1.64-7.13-3.35-14.35-6.88-20.76c-3.65-6.64-9.1-12.13-14.88-17.03
			c-8.94-7.58-19.03-14.07-30.29-17.37c-11.25-3.3-23.78-3.17-34.32,1.95c-8.57,4.16-15.3,11.26-21.69,18.32
			c-12.57,13.86-24.88,28.54-31.56,46.01c-12.61,32.99-1.4,73.58,26.37,95.41"/>
	</g>
	<path class="st5" d="M478.82,210.01c-6.07-1.07-12.14-0.7-18.24-0.07c-2.84,0.3-5.42,1.42-8.13,2.11c-0.82,0.21-1.65,1.2-2.3,0
		c-0.53-0.99,0.34-1.72,1-2.28c4.02-3.37,8.6-5.6,13.88-5.84c4.18-0.19,8.43-0.42,12.38,1.53c0.31,0.15,0.78,0.11,1.14,0.01
		c1.93-0.53,3.67-0.18,3.82,2.02C482.54,209.74,480.78,210.2,478.82,210.01z M471.84,206.66c-6.31-0.61-8.13-0.49-9.99,0.65
		C465.09,207.1,468.28,206.89,471.84,206.66z"/>
	<path class="st5" d="M537.21,216.42c-0.24,1.3-0.87,1.76-1.91,1.06c-6.62-4.42-14-4.08-21.42-3.51c-0.69,0.05-1.41,0.13-2.09,0.04
		c-0.84-0.11-1.53-0.59-1.67-1.49c-0.13-0.84,0.52-1.19,1.14-1.57c2.58-1.54,5.5-1.78,8.36-2.21c5.12-0.76,9.9,0.08,14.34,2.94
		C535.84,212.89,536.37,214.75,537.21,216.42z"/>
	<g>
		<path class="st6" d="M473.03,270.81c1.7,0.86,3.65,1.2,5.54,0.98c1.85-0.22,3.61-0.97,5.45-1.25c0.99-0.15,2-0.16,3-0.17
			c1.4-0.01,2.8-0.03,4.21-0.04c1.31-0.01,2.62-0.03,3.91,0.2c3.26,0.58,6.53,2.69,9.63,1.54c-0.9,3.15-4.88,6.8-8.07,7.55
			c-9.79,2.28-20.27-1.37-23.38-9.19"/>
	</g>
	<g>
		<path class="st7" d="M512.66,228.11c-0.39-0.19-0.15-0.79,0.15-1.1c1.52-1.54,3.68-2.35,5.84-2.57c2.16-0.23,4.33,0.08,6.46,0.48
			c0.91,0.17,1.83,0.37,2.65,0.8c1.24,0.64,2.16,1.76,3.04,2.84c0.12,0.15,0.25,0.33,0.21,0.51c-0.03,0.15-0.15,0.25-0.26,0.35
			c-3.64,3.05-8.96,3.96-13.41,2.31c-2.04-0.76-3.91-2.03-5.27-3.74"/>
	</g>
	<g>
		<path class="st7" d="M456.23,222.09c1.71-1.98,3.95-3.5,6.42-4.37c5.09-1.8,11.38-0.43,14.62,3.88c0.21,0.28,0.41,0.64,0.25,0.95
			c-0.09,0.18-0.28,0.28-0.45,0.37c-5.36,2.77-11.9,3.16-17.56,1.05"/>
	</g>
	<g>
		<path class="st8" d="M218.13,189.2c-2.94-0.04-5.89-0.07-8.83-0.11c-1.56-0.02-3.21-0.06-4.54-0.89
			c-1.02-0.64-1.72-1.66-2.38-2.66c-4.3-6.41-8.59-12.82-12.89-19.23c-0.46-0.69-0.93-1.4-1.05-2.22c-0.41-2.73,2.9-4.32,5.51-5.24
			c8.95-3.17,16.81-9.34,22.01-17.29c1.41-2.16,2.95-4.67,5.5-5.1c1.54-0.26,3.08,0.33,4.52,0.94c4.93,2.11,9.68,4.64,14.2,7.54
			c2.34,1.5,4.79,3.36,5.37,6.08c0.7,3.33-1.67,6.46-3.89,9.04c-4.2,4.89-8.4,9.78-12.6,14.67c-4.33,5.05-9.05,10.35-15.46,12.13"/>
	</g>
	<g>
		<path class="st8" d="M358.99,625.75c-4.3-7.31-1.1-24.82,4.18-31.45c5.29-6.63,12.46-3.72,17.45-10.58
			c7.79-10.73,8.21-24.93,14.09-36.81c0.78-1.58,1.14-7.82,2.64-8.75c2.76-1.71,8.83,2.54,11.89,3.63
			c41.14,14.65,83.96,7.68,127.49,4.13c2.61-0.21,6.27-2.48,8.42-0.99c2.1,1.45,3.83,9.07,4.6,11.5
			c7.65,24.4,10.57,32.22,18.22,56.62c-71.19,4.65-139.44,8.28-210.44,1.37"/>
	</g>
	<path class="st2" d="M453.6,304.43c-2.2,0.37-2.61,1.99-2.94,3.36c-1.1,4.63-3.54,9-2.73,14.03c0.15,0.92-0.13,2.06-0.57,2.91
		c-2.71,5.25-0.22,10.19,0.87,15.18c0.24,1.09,0.89,2.91,2.33,2.74c1.4-0.16,2.72-1.25,3.4-2.71c0.25-0.54,0.45-1.12,0.58-1.7
		c0.36-1.62,1.18-2.99,2.26-4.2c3.33-3.73,6.34-7.76,10.5-10.7c1.53-1.08,1.91-2.61-0.37-3.27c-3.94-1.14-6.7-3.93-9.68-6.43
		C454.5,311.34,453.02,308.41,453.6,304.43z"/>
	<path class="st5" d="M546.27,308.5c-1.17,0-2.01-0.86-2.55-1.5c-1.11-1.33-2.34-2.54-3.65-3.81c-2.18-2.12-4.44-4.31-6.04-7.17
		c-0.96-1.71-2.78-2.75-4.71-3.75c-2.09-1.08-3.57-2.13-3.99-3.71c-0.41-1.54,0.29-3.08,1.46-4.92c5.71-8.93,10.62-18.14,14.6-27.37
		c0.77-1.78,1.84-3.68,4.93-3.68c0.17,0,0.34,0.01,0.53,0.02c0.16,0.01,0.31,0.01,0.46,0.01c2.64,0,4.99-1.39,6.62-3.91
		c5.54-8.55,8.02-16.36,7.83-24.57l-0.01-0.27c-0.36-6.94-2.33-9.05-8.45-9.05c-0.44,0-0.9,0.01-1.38,0.03
		c-0.16,0.01-0.3,0.01-0.44,0.01c-2.87,0-3.54-1.71-3.84-3.55c-2-12.4-7.38-24.11-16.44-35.82c-5.32-6.87-12.76-11.63-22.13-14.14
		c-1.52-0.41-3.01-0.93-4.46-1.44c-2.52-0.88-4.9-1.72-7.43-1.99c-1.4-0.15-2.06-0.81-2.36-1.34c-0.48-0.82-0.45-1.84,0.07-3.04
		c0.91-2.07,2.12-4.08,3.61-5.95l0.41-0.52c2.27-2.86,4.42-5.57,5.56-8.94c0.33-0.97,1.1-3.26,3.2-3.26c0.89,0,1.78,0.44,2.71,1.34
		l0.99,1.15l-0.86-1.13c2.43-2.93,6-4.67,9.54-4.67c0.45,0,0.89,0.03,1.32,0.09c5.97,0.79,11.53,3.59,15.19,5.63
		c0.42,0.23,0.86,0.62,1.32,1.04c0.33,0.3,0.89,0.79,1.11,0.89c7.81,1.76,11.68,7.6,15.77,13.79l0.68,1.03
		c5.71,8.58,8.65,17.74,11.63,27.97c2.95,10.1,3.65,20.27,3.96,29.77c0.14,4.65-0.27,9.3-0.67,13.79c-0.28,3.18-0.58,6.48-0.66,9.7
		c-0.49,18.66-4.35,36.74-11.46,53.74l-0.29,0.69c-2.41,5.77-4.9,11.73-8.87,16.93C548.35,307.57,547.53,308.5,546.27,308.5
		L546.27,308.5z"/>
	<path class="st5" d="M569.61,211.8c-0.33-9.93-1.08-19.74-3.9-29.41c-2.82-9.66-5.78-19.05-11.45-27.58
		c-4.22-6.34-7.91-12.49-15.65-14.24c-0.76-0.17-2.03-1.66-2.73-2.05c-4.59-2.55-14.94-6.41-20.1-7.1
		c-3.15-0.42-0.83-0.17-4.62-0.33c-0.55,0.66-1.85,1.6-2.48,0.99c-2.22-2.16-7.76,3.37-8.27,4.87c-1.29,3.82-3.78,6.82-6.2,9.88
		c-1.38,1.75-2.53,3.61-3.42,5.64c-0.53,1.21-0.45,2.24,1.14,2.41c4.24,0.45,13.46,4.01,17.52,5.1c9.14,2.45,17.12,7.19,22.89,14.65
		c8.35,10.79,14.51,22.78,16.72,36.47c0.29,1.81,0.79,2.45,2.82,2.35c8.12-0.38,10.89,2.26,11.31,10.36c0.01,0.1,0.01,0.2,0.01,0.3
		c0.22,9.38-3.07,17.67-8.06,25.38c-1.92,2.97-4.91,4.75-8.36,4.54c-2.53-0.16-3.29,1-4.07,2.81c-4.13,9.6-9.07,18.77-14.7,27.57
		c-2.19,3.42-1.87,4.6,1.99,6.6c2.08,1.08,4.13,2.26,5.29,4.32c2.41,4.3,6.49,7.07,9.55,10.77c1.34,1.62,2.06,1.07,3.14-0.34
		c4.01-5.25,6.48-11.34,8.97-17.3c7.11-16.99,10.86-34.76,11.35-53.23C568.48,227.41,569.85,219.65,569.61,211.8z"/>
	<path class="st5" d="M453.1,301.99c-0.84,0-1.54-0.41-1.92-1.13c-0.36-0.67-0.6-0.77-0.61-0.78c0,0-0.29,0.03-0.91,0.68
		c-0.67,0.7-1.37,0.84-1.84,0.84c-0.73,0-1.29-0.33-1.7-0.56c-0.09-0.05-0.17-0.1-0.26-0.15c-2.47-1.24-5.12-1.96-7.91-2.73
		c-2.55-0.7-5.2-1.42-7.69-2.58l-0.66-0.3c-2.84-1.29-6.38-2.9-7.2-7.37c-0.16-0.87-0.86-1.42-1.99-2.25
		c-0.64-0.47-1.3-0.96-1.88-1.6c-2.09-2.33-2.8-5.05-3.5-7.69c-0.34-1.32-0.67-2.56-1.16-3.73c-3.94-9.45-5.4-20.28-4.48-33.11
		c0.16-2.19,0.3-4.38,0.45-6.58c0.23-3.46,0.46-7.03,0.75-10.55c0.89-10.7,4.12-21.31,10.14-33.39
		c5.37-10.76,11.71-21.31,18.83-31.36c8.28-11.67,18.09-20.73,29.18-26.91c3.48-1.94,8.06-2.97,13.24-2.97
		c5.28,0,10.87,1.08,15.32,2.96c0.81,0.34,1.32,0.85,1.5,1.52c0.29,1.01-0.32,1.86-0.58,2.23c-1.08,1.51-2.16,3.02-3.23,4.53
		c-2.71,3.81-5.51,7.75-8.34,11.57l-0.14,0.19c-0.15,0.2-0.38,0.51-0.5,0.72c0.81,0.86,1.16,1.71,1.09,2.58
		c-0.11,1.37-1.21,2.16-2.1,2.79l-0.1,0.07c-1.39,1-3.28,1.99-5.27,3.05c-3.08,1.62-6.57,3.47-8.13,5.34
		c-0.89,1.07-2.07,1.98-3.32,2.57c-17.02,8.02-27.37,22.28-31.62,43.6c-0.07,0.37-0.16,0.74-0.3,1.32l-0.31,1.32l-0.87,3.69
		l-1.77-3.35c-1.34-2.54-2.67-2.88-3.81-2.88c-1.03,0-2.19,0.34-3.32,0.68c-0.82,0.24-1.66,0.49-2.5,0.63
		c-2.11,0.34-3.23,2.19-3.63,6c-1.03,9.7,0.62,18.05,5.03,25.51c1.19,2.01,6.8,4.71,10.9,4.71c0.56,0,1.06-0.06,1.46-0.17
		c0.6-0.16,1.11-0.24,1.57-0.24c1.23,0,2.72,0.57,2.89,3.3c0.27,4.52,1.68,8.7,3.18,13.12c0.88,2.61,1.79,5.3,2.44,8.06
		c0.6,2.57,2.21,4.65,3.91,6.85c1.1,1.42,2.23,2.89,3.11,4.53c0.51,0.94,1.18,1.83,1.9,2.76c1.48,1.94,3.16,4.13,3.3,7.16
		c0.13,2.83-2.95,6.82-5.68,7.36C453.74,301.93,453.43,301.99,453.1,301.99z"/>
	<path class="st5" d="M434.56,213.81c0.34-1.44,0.49-2.01,0.61-2.59c3.96-19.84,13.43-35.66,32.41-44.6
		c1.06-0.5,2.08-1.29,2.83-2.19c2.79-3.34,11.45-5.38,14.97-7.9c1.21-0.86,4.73-2.87,2.97-4.62c-0.77-0.77,1.93-1.85,2.59-2.74
		c3.93-5.3,7.72-10.71,11.56-16.08c0.49-0.68,0.66-1.2-0.32-1.61c-7.74-3.27-25.62-5.07-33.15-0.86
		c-11.63,6.5-20.6,17.02-28.31,27.88c-7.03,9.92-13.29,20.29-18.72,31.17c-5.19,10.4-9.02,21.21-10,32.88
		c-0.48,5.7-0.78,11.41-1.2,17.11c-0.8,11.13,0.05,22.09,4.37,32.46c1.52,3.64,1.55,7.85,4.4,11.02c1.39,1.55,3.8,2.32,4.21,4.55
		c0.74,4.04,4.08,5.27,7.06,6.64c5,2.32,10.67,2.83,15.64,5.33c0.67,0.34,1.35,0.99,2.15,0.15c1.42-1.48,2.71-1.61,3.79,0.42
		c0.28,0.52,0.84,0.38,1.35,0.28c2.05-0.4,4.64-3.76,4.54-5.91c-0.19-3.9-3.37-6.21-5.04-9.32c-2.16-4.03-6.06-7.08-7.15-11.73
		c-1.69-7.19-5.2-13.9-5.66-21.42c-0.1-1.7-0.64-2.33-2.67-1.78c-3.97,1.07-12.11-2.08-13.95-5.19c-4.83-8.17-6.21-17.07-5.22-26.38
		c0.33-3.16,1.28-6.67,4.81-7.25C427.04,210.92,431.39,207.8,434.56,213.81z"/>
	<path class="st2" d="M494.52,320.31c2.1,2.28,3.35,4.71,4.24,7.39c2.32,7.02,3.93,14.19,4.79,21.53c0.1,0.9-0.08,2.52,1.52,1.45
		c3.72-2.47,8.21-3.8,11.36-7.07c8.96-9.28,17.09-19.19,22.77-30.9c0.56-1.16,0.98-2.13,0.09-3.29c-3.4-4.42-6.71-8.91-10.16-13.29
		c-1.28-1.63-6.42-2.76-7.42-1.54c-1.4,1.71-1.38,3.83-0.26,5.83c0.47,0.84,0.27,1.69,0.12,2.6c-0.78,4.83-4.46,7.13-8.15,9.34
		C507.6,315.86,501.44,318.65,494.52,320.31z"/>
	<path class="st4" d="M377.67,376.33c-0.43,2.21-1.29,4.26-0.72,6.44c0.25,0.97,1.63,1.99,0.07,2.72c-1.27,0.59-2.88,1.39-4.23,0.38
		c-4.68-3.51-9.59-6.82-12.52-12.13c-0.61-1.1-1.13-1.17-2.33-0.8c-4,1.24-4.53,4.86-5.32,7.99c-0.65,2.56-1.9,4.29-4.21,4.89
		c-2.29,0.59-2.56,1.85-2.64,3.88c-0.15,3.93-1.58,7.63-3.82,10.75c-1.57,2.19-1.76,4.03-0.8,6.33c1.14,2.75,2.58,5.38,3.07,8.38
		c0.73,4.48,2.14,5.67,6.6,6.12c11.61,1.16,22.05,5.39,30.88,12.94c7.79,6.67,15.27,13.71,22.36,21.17
		c8.93,9.4,18.24,18.42,26.65,28.32c5.1,6,10.63,11.64,16.52,16.88c2.57,2.29,5.14,4.9,8.89,5.17c6.81,0.49,13.61,0.24,19.98-2.5
		c11.32-4.87,23.07-8.69,33.91-14.74c4.66-2.6,9.92-4.12,14.97-5.96c3-1.09,4.96-4.03,8.39-4.34c2.32-0.21,2.35-1.06,0.92-2.97
		c-6.95-9.31-16.6-16.11-23.54-25.41c-2.95-3.95-7.48-6.36-10.39-10.25c-1.53-2.04-2.54-2.09-4.49-1.03
		c-7.01,3.8-14.08,7.48-21.12,11.22c-0.52,0.28-1.04,0.61-1.48,1.01c-4,3.61-9.13,5.12-13.83,7.38c-1.24,0.6-3.78,1.71-2.72-1.83
		c0.16-0.54-0.31-0.91-0.68-1.23c-7.34-6.28-14.32-13.05-22.11-18.71c-8.52-6.2-17.48-11.82-25.96-18.1
		c-5.59-4.14-10.76-8.86-17.25-11.7c-1.73-0.76-3.6-2.1-3.91-3.93c-0.89-5.17-3.49-10.02-3.31-15.34
		C383.66,382.55,381.78,379.11,377.67,376.33z"/>
	<path class="st8" d="M355.4,349.83c-2.76-4.64-7.24-7.99-9.48-12.98c-0.12-0.26-0.35-0.56-0.59-0.66
		c-3.97-1.57-5.99-4.85-7.95-8.42c-0.76-1.39-1.39-2.33-0.99-3.96c2.65-10.85,5.25-21.7,10.25-31.79c0.24-0.49,0.27-1.2,1.3-1.33
		c0.37,14.11-4.22,27.54-4.93,41.52c0.24-1.1,0.57-2.19,0.71-3.3c1.46-11.96,4.85-23.65,5.19-35.77c0.05-1.58,1.15-3.99-0.62-4.52
		c-1.66-0.49-2,2.1-2.65,3.44c-4.85,9.92-7.52,20.57-9.95,31.26c-0.59,2.61-1.52,2.84-3.56,1.78c-1.06-0.55-2.21-0.94-3.26-1.5
		c-4.52-2.4-5.21-3.86-4.28-8.91c0.45-2.44,1.26-4.89-0.9-7.03c-0.67-0.67-0.05-1.5,0.24-2.23c3.59-9.19,6.64-18.57,9.68-27.95
		c0.6-1.84,0.75-3.7,0.67-5.61c-0.02-0.56,0.17-1.27-0.6-1.51c-0.65-0.2-1.18,0.14-1.59,0.59c-0.66,0.74-1.36,1.47-1.88,2.31
		c-2.6,4.25-4.37,8.89-6.07,13.58c3.17-4.85,4.55-10.73,8.63-15.46c1.11,1.97,0.64,3.62,0.16,5.14c-2.93,9.42-5.97,18.8-9.63,27.97
		c-0.41,1.03-0.4,2.91-2.41,2.32c-1.8-0.52-3.83-0.88-3.94-3.4c-0.02-0.5-0.02-1-0.03-1.5c-0.09-6.42-1.09-7.86-7.19-10.02
		c-3.68-1.3-7.55-1.93-11.4-2.4c-3.46-0.43-6.27-1.83-8.53-4.43c-4.58-5.26-9.23-10.46-13.74-15.78c-2.61-3.08-5.41-5.85-9.14-7.55
		c-3.57-1.63-5.8-4.5-7.12-8.09c-1.48-4.01-4.17-7.04-7.68-9.29c-4.93-3.17-9.08-7.01-12.36-11.95c-2.46-3.71-5.88-6.72-7.73-10.94
		c-1.9-4.35-3.38-8.76-3.52-13.52c-0.14-4.68-1.67-8.27-5.82-11.06c-3.06-2.06-5.46-5.19-7.92-8.04c-1.65-1.92-0.62-3.6,2.57-3.92
		c1.65-0.16,3.05-0.83,4.58-1.23c0.91-0.24,1.89-0.83,1.99-1.65c0.46-3.54,3.58-5.03,5.42-7.5c0.44-0.58,0.88-1.08,1.64-1.17
		c1.75-0.21,2.32-1.4,2.95-2.92c0.72-1.74,1.12-4.25,4.13-3.66c0.7,0.14,1.02-0.57,0.95-1.22c-0.1-0.91,0.39-1.46,0.93-2.08
		c3.46-4.07,5.12-4.29,9.6-1.28c4.18,2.81,7.5,6.57,10.94,10.15c3.06,3.18,6.23,6.17,9.84,8.7c5.75,4.03,9.62,9.75,13.74,15.26
		c6.14,8.22,13.3,15.42,22.44,20.25c6.47,3.42,12.48,7.46,18.39,11.72c1.67,1.2,2.79,2.81,3.8,4.55c1.65,2.85,3.69,5.12,7.25,5.67
		c2.93,0.45,3.71,3.09,4.65,5.37c2.23,5.41,2.21,5.56,7.96,4.98c5.88-0.59,11.72,3.69,13.55,8.53c2.05,5.44,5.6,7.7,11.1,7.6
		c2.49-0.05,4.69,0.63,6.58,2.35c1.58,1.44,3.63,1.7,5.63,1.59c6.69-0.4,12.77,1.76,18.77,4.29c4.66,1.97,7.55,5.63,9.97,9.91
		c4,7.06,9.88,12.09,17.48,14.97c1.35,0.51,2.03,1.52,2.92,2.43c1.22,1.26,2.54,2.12,4.04,0.46c0.74-0.82,1.38-0.41,2.13-0.1
		c6.27,2.52,6.45,2.57,4.55,9.06c-1.49,5.06-3.44,9.98-5.27,14.94c-2.11,5.73-3.52,11.64-4.77,17.59c-0.6,2.85-1.55,5.61-3.09,8.07
		c-2.93,4.68-5.1,9.7-7.24,14.75c-5.12,12.08-11.81,23.25-19.44,33.9c-1.5,2.09-2.49,4.54-3.71,6.82c-0.22,0.41-0.42,0.88-0.32,1.26
		c-0.23,0.54-0.43,1.04-0.6,1.5c-1.02-0.73-2.05-1.45-3.09-2.14c-1.08-0.72-1.93-1.64,0.05-2.49c0.34-0.14,0.53-0.83,0.64-1.3
		c2.87-12.03,7.99-23.35,11.04-35.35c4.87-19.14,6.58-38.66,7.91-58.26c0.04-0.58-0.06-1.17-0.14-2.31
		c-1.26,2.03-0.91,3.8-0.97,5.45c-0.47,13.47-2.11,26.86-4.34,40.1c-2.76,16.44-8.38,32.18-14.12,47.81
		c-0.31,0.85-0.34,2.38-1.46,2.33c-1.04-0.04-1.75-1.32-2.1-2.32c-0.86-2.43-2.12-4.69-2.55-7.3c-1.48-8.86-6.28-16.06-11.85-22.8
		c-0.86-1.04-1.37-1.91-1.09-3.15c1.35-6,1.11-12.12,1.2-18.18c0.15-9.62,2.28-19.01,2.92-28.56c0.08-1.24,0.54-2.54,2.64-3.84
		c0.26,13.95-0.85,27.33-0.43,40.77c0.19-1.63,0.49-3.25,0.54-4.88c0.29-10.57,0.53-21.14,0.78-31.7c0.02-0.7,0.05-1.41-0.05-2.09
		c-0.14-1.02,0.29-2.51-1.13-2.76c-1.4-0.25-1.92,1.13-2.55,2.15c-4.38,7.04-4.02,15.18-4.68,22.9c-0.84,9.81-0.66,19.71-1.86,29.52
		c-0.46,3.81-1.07,7.59-1.51,11.4c-0.18,1.57-0.63,1.68-2.09,1.12c-4.48-1.73-5.83-5.72-6.32-9.66
		C365.06,364.19,359.81,357.26,355.4,349.83z"/>
	<path class="st8" d="M360.09,587.03c-2.72-1.69-5.35-3.51-6.82-6.53c-1.07-2.2-1.14-4.33,0.81-6c2.89-2.48,3.77-5.88,5.06-9.26
		c4.79-12.54,6.84-25.79,10.47-38.63c1.72-6.1,1.56-12.45,1.96-18.7c0.5-7.88,1.77-15.65,2.85-23.44c0.69-4.98,0.51-9.95,0.59-14.93
		c0.06-3.58-0.11-7.18,1-10.67c0.3-0.93,0.45-2.25-0.76-2.55c-1.57-0.39-1.63,1.06-1.79,2.12c-0.25,1.67-0.7,3.37-0.61,5.03
		c0.73,13.35-1.76,26.42-3.19,39.58c-0.62,5.65-0.36,11.42-1.39,16.98c-1.76,9.49-4.28,18.83-6.36,28.26
		c-1.25,5.67-3.52,11-5.21,16.52c-0.17,0.56-0.02,1.54-1.19,1.17c-5.06-1.59-10.45-1.14-15.52-2.26c-3.52-0.78-6.8-0.03-10.18-0.2
		c-1.51-0.07-1.96-0.56-1.66-1.97c0.48-2.24,0.66-4.58,1.43-6.71c4.81-13.31,9.54-26.65,14.74-39.81c2.04-5.15,5.13-9.9,7.9-14.75
		c1.25-2.18,2.37-4.37,3.09-6.78c3.86-12.89,7.83-25.76,8.88-39.29c0.42-5.38,0.24-10.78-0.15-16.14c-0.17-2.31,1.16-3.7,2.08-5.35
		c0.73-1.31,1.96-0.36,2.53,0.22c3.74,3.79,8.84,5.79,12.57,9.59c0.28,0.28,0.59,0.61,0.94,0.72c5.5,1.77,5.33,6.66,5.76,10.97
		c0.38,3.85,0.08,7.77,0.08,12.73c0.24,4.1,0.2,9.29,0.7,14.46c0.4,4.15,0.1,8.33-0.51,12.51c-0.73,5.02-0.89,10.12-1.19,15.2
		c-0.87,14.71-4.5,28.89-7.69,43.2c-2.33,10.43-6.02,20.44-8.51,30.81C369.42,588.78,365.05,590.12,360.09,587.03z"/>
	<path class="st8" d="M391.69,536.27c-1.34,6.23-2.71,12.45-4.03,18.69c-1.45,6.86-4.9,12.79-8.58,18.62
		c-1.48,2.34-2.92,4.7-4.9,6.88c0.65-2.79,0.97-5.71,2.01-8.36c3.22-8.22,4.55-16.9,6.68-25.39c3.78-15.07,7.45-30.19,9.8-45.53
		c1.05-6.86-0.03-14.07-0.39-21.11c-0.32-6.36-0.99-12.71-1.48-19.07c-0.1-1.23-0.55-2.94,1.96-1.7c-3.2-2.45-2.75-5.72-2.67-8.96
		c3.28,3.1,7.48,4.89,7.64,10.84c0.39,14.36,0.6,28.73-0.62,43.01C396.19,514.97,393.98,525.65,391.69,536.27z"/>
	<path class="st2" d="M586.48,427.9c-0.88,3.74-2.83,7.04-4.66,10.33c-3.76,6.78-6.75,13.99-11.78,20.06
		c-1.75,2.11-2.77,4.82-4.14,7.25c-1.17,2.07-2.25,4.22-4.38,5.85c-4.03-6.56-8.13-12.98-12.62-19.14
		c-5.21-7.16-10.11-14.59-15.74-21.41c-4.49-5.43-9.68-10.35-15.42-14.51c-1.97-1.43-4.49-2.12-6.8-3.04
		c-1.55-0.61-1.96-1.17-0.83-2.74c2.69-3.73,4.35-7.98,6.04-12.27c3.66-9.33,6.88-18.81,12.52-27.37
		c3.47-5.27,6.94-10.32,11.56-14.59c0.49-0.45,1.27-0.98,0.4-1.66c-0.65-0.51-1.25,0.01-1.84,0.45
		c-9.16,6.82-16.02,15.42-20.08,26.14c-0.82,2.17-2.07,2.97-4.36,3.21c-7.74,0.8-15.46,1.62-23.25,1.69c-0.4,0-0.8,0.01-1.2,0
		c-4.73-0.21-5.03-0.21-4.94,4.76c0.1,5.97-1.28,11.68-2.42,17.41c-1.28,6.44,2.29,10.81,5.74,15.22c0.85,1.09,1.49,1.68,0.85,2.94
		c-0.89,1.76-0.31,2.9,1.26,4.01c1.7,1.2,2.26,2.29-0.24,3.81c-9.72,5.87-19.92,10.98-28.92,17.99c-1.21,0.94-1.66,0.25-2.44-0.38
		c-8.29-6.71-16.38-13.7-24.98-19.98c-6.1-4.45-12.62-8.35-18.68-12.89c-3.9-2.92-7.7-5.99-11.59-8.92l7.06-13.36
		c3.26-4.13,5.65-8.92,8.44-13.39c6.41-10.26,9.87-22,16.09-32.37c3-5,3.44-10.79,5.03-16.22c0.28-0.94,0.52-1.9,1.24-2.88
		c0.41,1.86,0.79,3.73,1.22,5.58c0.27,1.16,0.36,2.46,0.96,3.43c1.36,2.2,1.99,5.27,5.2,5.68c2.22,0.28,6.75-3.14,7.67-5.99
		c1.87-5.82,6.28-9.59,10.52-13.47c2.61-2.39,3.62-1.54,4.85,1.54c3.58,8.95,0.29,16.31-4.24,23.81c-4.57,7.57-6.39,16.17-6.5,24.9
		c-0.12,9.26-0.76,18.55,0.38,27.8c0.15,1.2,0.09,2.49-0.55,3.5c-2.94,4.67-2.7,10.1-3.75,15.22c-0.26,1.27-0.41,2.61,0.65,3.67
		c0.76,0.76,1.65,1.02,2.73,0.58c1.07-0.44,0.64-1.17,0.64-1.96c-0.03-4.46,0.27-8.97,2.06-13.07c1.57-3.6,1.93-7.12,1.81-11.01
		c-0.4-13.42-1.5-26.93,2.39-40.1c0.96-3.26,2.43-6.33,4.35-9.15c2.79-4.12,4.64-8.64,5.1-13.58c0.2-2.14,1.67-3.36,2.64-4.9
		c2.55-4.02,5.52-7.77,7.88-11.93c0.67-1.19,1.25-1.55,3.16-0.59c5.66,2.85,5.71,8.35,6.95,13.1c1.4,5.36,2.82,10.79,2.79,16.47
		c-0.01,2.59,2.09,3.91,4.39,2.7c5.78-3.02,11.99-5.38,16.38-10.65c2.67-3.21,5.74-6.06,8.35-9.37c4.58-5.81,9.15-11.57,12.09-18.45
		c0.77-1.81,1.62-2.74,3.53-0.7c2.35,2.51,5.52,4.03,8.03,6.58c8.31,8.44,14.8,18.28,21.64,27.79c4.41,6.14,6.61,13.63,8.79,21.06
		c2.75,9.41,4.15,18.8,4.17,28.54c0,3.22,1.05,6.45,1.67,9.67C590.65,415.36,587.98,421.54,586.48,427.9z"/>
	<path class="st2" d="M583.35,458.93c-3.15,8.78-7.64,17.19-7.94,26.81c-0.2,6.51-0.97,12.95-2.95,19.15
		c-2.74,8.6-7.07,16.52-12.16,23.87c-2.1,3.03-5.78,5.28-8.2,8.11c-5.78,6.75-13.52,6.21-20.9,7.01
		c-19.72,2.12-39.56,2.9-59.36,3.47c-14.3,0.41-28.61-0.47-42.78-3.48c-8.23-1.75-16.18-4.05-23.97-7.05
		c-4.26-1.64-4.56-2.22-3.62-6.61c1.15-5.35,1.74-10.9,3.17-16.07c3.5-12.69,1.57-25.33,1.05-37.97c-0.18-4.27-1.5-8.53-1.01-13.94
		c3.69,4.8,7.95,7.85,11.74,11.42c9.21,8.69,17.52,18.25,26.41,27.25c3.05,3.1,7.1,5.05,9.91,8.47c0.45,0.54,1.39,0.8,2.15,0.94
		c7.39,1.42,14.73,1.78,21.86-1.32c11.04-4.81,22.18-9.37,33.6-13.26c5.64-1.92,11.25-4.13,16.28-7.43
		c2.09-1.36,3.76-1.02,5.33,0.56c2.15,2.16,4.74,3.6,7.37,5.03c1.27,0.69,2.58,0.88,3.99,1.05c4.39,0.51,7.73-0.95,10.2-4.65
		c3.06-4.6,7.54-8.13,10.47-12.75c8.57-13.52,17.24-27,24.52-41.29c0.22-0.43,0.32-0.97,1.31-1.11
		C588.35,443.4,586.11,451.22,583.35,458.93z"/>
	<path class="st2" d="M529.91,464.28c-4.71-4.61-8.29-10.21-12.97-14.86c-3.81-3.79-7.5-7.72-11.05-11.76
		c-2.77-3.14-5.84-5.91-9.07-8.54c-1.43-1.16-2.12-2.21,0.15-3.61c2.34-1.44,3.82-3.97,6.04-5.69c1.78-1.38,3.81-1.61,5.81-2.11
		c1.98-0.14,3.55,0.85,5.09,1.72c5.31,3.03,10.72,6.49,13.89,11.53c4.01,6.37,9.22,11.72,13.38,17.91
		c5.81,8.66,11.94,17.12,17.99,25.62c0.78,1.09,0.35,1.99-0.18,2.73c-2.13,3-4.41,5.89-6.59,8.85c-0.97,1.32-1.44,0.79-2.44-0.14
		C542.68,479.26,536.94,471.17,529.91,464.28z"/>
	<path class="st2" d="M546.97,491.72c-0.61,1.18-2.37,0.38-3.59,0.61c-3.4,0.45-5.97-1.44-8.41-3.25c-2.25-1.67-1.93-3.1,0.56-4.25
		c5.84-2.69,6.41-2.53,9.98,2.88c0.05,0.08,0.12,0.16,0.17,0.25C546.23,489.2,547.61,490.48,546.97,491.72z"/>
	<path class="st8" d="M516.44,387.91c-0.24-1.44-1.57-0.7-2.47-0.59c-5.03,0.62-9.98,1.84-15.1,1.86c-3.46,0.01-7.11,0.97-10.3,0.11
		c-2.37-0.63-2.08,0.17-2.06,1.45c0.12,5.32-0.73,10.55-1.89,15.69c-1.52,6.77,0.57,12.09,5.48,16.63c0.55,0.51,0.91,1.48,1.8,0.59
		c0.76-0.77,1.5-1.77,0.48-2.78c-3.31-3.32-3.33-7.79-4.76-12.27c2.71,0,5.02,0.22,7.27-0.04c7.21-0.82,6.98-1.25,7.11,6.29
		c2.07-1.44,3.75-2.64,3.4-5.18c-0.16-1.19,0.51-1.53,1.62-1.54c1.86,0,2.49-1.71,2.43-2.86c-0.07-1.53-1.77-0.84-2.69-0.72
		c-1.72,0.22-2.35-0.3-2.21-2.03c0.21-2.68,0.22-5.37,0.48-8.05c0.2-2.12,1.58-3.03,3.68-3.15c1.88-0.1,3.76-0.39,5.63-0.64
		C515.94,390.46,516.65,389.23,516.44,387.91z M493.14,404.08c-0.68,0.03-1.35,0.09-2.32,0.16c0.62-3.19,1.43-5.97,1-8.89
		c-0.04-0.29-0.11-0.8,0.01-0.86c2.26-1.13,4.62-0.17,6.94-0.28c1.58-0.07,1.26,1.15,1.32,2.09
		C500.59,403.77,500.59,403.77,493.14,404.08z"/>
	<g>
		<path class="st35" d="M593.24,388.42c-1.36-4.25-2.21-8.68-3.08-13.07c-2.23-11.24-5.83-21.85-12.37-31.46
			c-3.47-5.1-7.07-10.14-10.63-15.16c-4.44-6.26-8.46-13.18-15.6-17.07c-1.55-0.84-1.42-1.89-0.59-3.19
			c2.03-3.2,3.63-6.63,5.44-9.95c10.88-19.97,15.34-41.79,18.9-63.9c1.58-9.84-0.21-19.69-0.15-29.54c0.02-2.98,0.2-6.08-0.48-8.93
			c-2.59-10.9-3.5-22.2-8.5-32.55c-3.05-6.31-6.41-12.37-10.81-17.77c-1.97-2.42-4.14-4.69-7.95-5.18c-3.2-0.41-6.14-2.7-9.23-4.11
			c-8.07-3.69-16.09-7.43-25.42-5.52c-4.16,0.85-9.22-0.18-11.04,4.36c-1.41,3.51-4.1,7.06-6.44,9.91c-1.99,2.41-3.8,5.14-5.12,7.93
			c-1.59,3.35,1.55,6.6,5.15,7.03c5.97,0.7,11.82,2.49,17.18,4.79c7.65,3.29,14.52,8.11,19.24,15.56
			c4.87,7.69,9.13,15.57,11.66,24.35c1.05,3.66,1.86,7.34,1.83,11.17c-0.01,1.54,0.51,2.84,2.22,3.04c1.61,0.19,2.75-0.45,2.76-2.29
			c0-0.52,0.05-0.93,0.59-1.22c2.73-1.49,8.11,0.81,8.76,3.88c2.27,10.85-1.55,20.18-7.54,28.87c-1.46,2.12-3.53,2.83-6.3,1.9
			c-4.04-1.36-4.13-1.13-5.3,2.9c-0.25,0.85-0.58,1.7-0.98,2.49c-2.61,5.16-5.46,10.18-8.36,15.19
			c-6.77,11.71-15.62,21.11-28.04,26.83c-3.97,1.82-7.79,4.8-12.13,4.78c-12.08-0.04-23.24-2.97-29.5-14.67
			c-4.11-7.67-10.34-14.02-13.03-22.63c-1.68-5.38-2.79-10.81-3.52-16.3c-0.42-3.19-1.67-5.03-4.65-3.8
			c-2.59,1.07-5.21,1.07-7.82,1.52c-2.74,0.47-4.91-0.66-6.11-2.73c-4.61-7.94-6.18-16.55-4.59-25.62c0.67-3.8,3.87-5.75,7.04-4.29
			c1.66,0.76,3.14,2.04,4.25,3.64c1.46,2.12,3.13,2.11,4.65,0c0.77-1.07,1.21-2.3,1.37-3.6c1.33-11.22,6.17-20.95,12.82-29.88
			c4.14-5.56,9.8-9.33,15.8-12.5c2.61-1.38,5.08-2.82,6.92-5.07c1.86-2.27,4.15-3.96,6.36-5.83c3.01-2.53,8.98-3.28,8.45-8.33
			c-0.05-0.45,0.6-2.2,0.99-2.64c4.21-4.73,7.02-10.95,11.23-15.69c0.48-0.54,1.58-1.87,1.65-2.64c0.12-1.3-4.51-2.07-5.76-1.82
			c-2.67,0.54-4.92-0.59-7.19-1.49c-9.15-3.61-17.9-1.53-25.87,2.86c-7.13,3.93-13.3,9.53-18.98,15.43
			c-9.26,9.63-16.35,20.82-22.78,32.47c-4.93,8.92-9.17,18.11-12.11,27.9c-1.62,5.38-2.07,10.98-3.38,16.38
			c-2.76,11.37-3.08,22.86-2.67,34.44c0.06,1.82,0.6,3.49,1.28,5.18c1.05,2.62,2.52,5.14,2.72,8.47
			c-7.91-3.92-15.82-6.44-24.41-6.12c-1.03,0.04-1.97-0.38-2.73-1.08c-2.36-2.16-5.21-2.85-8.3-2.76c-3.83,0.11-6.17-1.41-7.62-5.23
			c-2.71-7.14-10.03-11.5-17.62-10.79c-2.25,0.21-3.14-0.43-3.86-2.46c-1.29-3.62-2.97-7.14-7.32-7.94c-2.18-0.4-3.55-1.6-4.61-3.42
			c-1.25-2.16-2.52-4.31-4.62-5.81c-6.01-4.29-11.97-8.6-18.6-11.96c-8.99-4.55-15.93-11.54-21.88-19.51
			c-4.54-6.08-8.93-12.25-15.3-16.64c-2.88-1.99-5.32-4.49-7.83-6.93c-4.42-4.29-8.28-9.22-13.73-12.38
			c-0.39-0.22-0.84-0.71-0.87-1.11c-0.37-4.35-3.13-7.28-6.22-9.76c-5.34-4.3-11.13-8-16.3-12.57c-2.74-2.43-6.03-1.76-8.8,0.92
			c-0.46,0.44-0.81,1.4-1.63,0.67c-1.91-1.69-4.7-2.63-4.76-5.92c-0.04-2.48-0.79-5-0.56-7.43c0.45-4.64-1.23-8.61-3.95-11.88
			c-4.97-5.94-8.12-12.69-10.53-19.92c-1.51-4.54-4.45-5.36-8.04-2.07c-1.39,1.28-2.1,0.83-3.15-0.17c-2.73-2.6-5.4-5.29-8.59-7.35
			c-3.07-1.98-5.95-4.5-9.98-4.17c-4.04,0.33-5.59,3.45-3.24,6.67c2.41,3.29,5.21,6.22,8.15,9.06c3.22,3.12,6.54,6.28,8.74,11.25
			c-2.44-1.57-4.09-2.92-5.6-4.48c-3.99-4.12-9.08-6.78-13.73-10.01c-2.1-1.46-4.82-1.27-6.8,0.98c-1.98,2.25-1.96,4.34-0.07,7.04
			c1.57,2.24,3.34,4.16,6.09,5.04c2.72,0.88,4.13,3.3,5.9,5.28c-0.98-0.18-1.92-0.4-2.59-0.95c-2.57-2.09-5.57-3.42-8.47-4.93
			c-2.48-1.29-6.26-1.11-7.22,0.42c-1.14,1.82-0.32,4.3,2.46,6.25c2.85,1.99,5.6,4.13,8.68,5.8c3.54,1.93,5.97,5.16,8.9,7.89
			c-5.03-2.35-9.88-4.82-15.55-4.8c-2.04,0.01-4.36-0.13-5.45,1.66c-1.16,1.91-0.45,4.17,1.22,5.71c3.12,2.88,5.88,6.41,10.71,6.52
			c0.33,0.01,0.71,0.36,0.97,0.64c3.58,4.02,7.51,7.6,11.86,10.83c3.43,2.56,6.8,5.06,10.59,7.12c2.75,1.5,5.95,1.63,8.49,3.49
			c1.23,0.9,2.77,1.84,2.84,3.29c0.08,1.57-1.88,1.81-3.04,2.41c-4.19,2.18-5.5,6.91-1.98,9.92c7.14,6.09,12.05,13.77,16.9,21.57
			c-0.17,1.38,0.6,2.79,2.35,2.58c1.7-0.21,3.04-0.73,4.12-1.49c1.52,2.29,3.25,4.39,5.65,5.91c1.87,1.19,2.94,2.9,3.47,5.03
			c0.77,3.09,1.55,6.19,2.43,9.25c2.19,7.54,3.69,15.49,9.25,21.46c4.48,4.8,9.5,9.1,15.17,12.54c2.62,1.59,4.75,3.6,6.11,6.37
			c3,6.15,6.93,11.32,13.54,14.08c2.22,0.92,3.49,2.98,4.57,5.28c1.78,3.8,4.22,7.25,7.87,9.59c2.58,1.66,4.45,3.97,6.17,6.43
			c1.7,2.43,3.95,4.11,6.58,5.48c3.41,1.78,7.17,1.59,10.76,2.28c5.26,1.01,7.95,3.48,8.86,8.87c0.48,2.83,2.02,4.88,4.76,5.57
			c2.39,0.6,2.93,1.82,2.55,4.07c-1.05,6.17,1.32,10.77,6.83,13.61c7.29,3.76,10.81,11.58,17.49,15.99c0.6,0.4,0.81,1.35,1.26,2.01
			c0.95,1.4,1.68,3.12,2.96,4.09c4.48,3.38,6.09,8.48,8.5,13.13c0.41,0.78,0.32,1.21-0.29,1.77c-3.08,2.86-4.87,6.5-6.25,10.38
			c-0.72,2.03-1.78,3.85-3.65,4.96c-3.71,2.21-5.35,5.5-5.34,9.71c0.01,2.36-0.84,4.2-2.74,5.68c-1.55,1.21-2.54,2.98-2.5,4.93
			c0.24,9.83,4.1,18.26,10.24,25.77c0.26,0.31,0.96,0.42,1.02,0.07c0.4-2.11,0.83-0.84,1.23-0.04c0.53,1.09,1.55,1.15,2.54,1.24
			c1.92,0.16,3.67,0.92,5.42,1.63c2.24,0.92,3.59,2.28,3.44,5.12c-0.26,5.27-0.26,10.55-0.72,15.83
			c-0.9,10.24-1.59,20.46-5.87,30.06c-2.92,6.55-5.77,13.15-8.01,19.98c-3.35,10.22-7.91,19.99-11.54,30.1
			c-3.8,10.58-8.56,20.84-10.18,32.13c-0.69,4.83-0.2,5.56,4.54,5.4c4.79-0.17,9.58-0.11,14.35,0.35c3.32,0.32,5.86,3.48,5.72,6.82
			c-0.19,4.31,0.53,8.23,4.12,11.29c2.66,2.27,5.38,4.38,8.88,5.89c-2.5,2.8-4.67,5.59-6.04,8.97c-1.68,4.15-1.7,8.75-3.71,12.78
			c2.59,0,5.19,0,7.78,0c1.21-7.54,3.47-14.72,7.72-21.11c2.51,1.75,5.37,1.41,9.17-1.68c3.41-2.78,6.51-5.85,7.76-10.36
			c0.5-1.79,1.7-3.37,2.44-5.11c0.69-1.64,2.46-3.08,1.17-5.2c-0.11-0.18,0.01-0.64,0.18-0.84c3.45-4.18,3.26-9.69,5.29-14.38
			c1.36-3.15,3.49-3.64,6.18-1.56c0.71,0.55,1.37,1.44,2.33,1.01c2.73-1.21,2.15,0.48,1.93,2.03c-0.42,2.9-1.53,5.57-2.7,8.21
			c-6.93,15.7-13.27,31.62-18.07,48.12c-0.08,0.27-0.03,0.58-0.04,0.88c0.8,0,1.6,0,2.39,0c4.98-18.85,13.05-36.54,20.6-54.67
			c0.66,0.46,0.57,2,1.79,1.66c0.88-0.25,1.1-1.07,1.32-1.85c0.61-2.15-1.43-2.43-2.63-3.34c0.94-0.96,1.88-0.54,2.62-0.35
			c8.64,2.32,17.31,4.54,25.81,7.29c1.05,0.34,3.1,2.51,2.83,4.88c-0.16,1.38-0.3,2.79-0.24,4.17c0.38,10.09-0.44,20.08-2.09,30.03
			c-0.66,4-0.64,8.12-0.93,12.18c0.8,0,1.6,0,2.39,0c0.48-6.24,0.46-12.54,1.8-18.7c1.91-8.77,0.95-17.67,1.3-26.51
			c0.05-1.19,0.15-2.39,0.16-3.58c0.01-1.91,0.96-2.32,2.7-2.01c3.62,0.65,7.25,1.31,10.91,1.69c2.06,0.21,2.34,0.8,1.41,2.53
			c-0.68,1.25-2.32,3.11,1.19,2.75c0.88-0.09,0.85,0.99,0.96,1.63c0.37,2.26,1.05,4.54,0.94,6.78c-0.45,9.43,1.45,18.65,2.16,27.97
			c0.19,2.48,0.28,4.97,0.42,7.45c0.8,0,1.6,0,2.39,0c-0.59-12.92-2.81-25.71-2.96-38.68c-0.03-2.64-0.91-5.28-1.56-7.89
			c-0.39-1.56-0.07-2.26,1.63-2.15c4.77,0.31,9.54,0.58,14.31,0.88c0.7,0.04,1.47,0.09,1.57,1.02c0.16,1.53,0.16,3.02,2.39,1.51
			c0.54-0.37,0.62,0.77,0.72,1.29c2.31,11.92,4.48,23.87,7.29,35.68c0.65,2.75,0.52,5.54,0.57,8.32c0.8,0,1.6,0,2.39,0
			c0.51-7.93-2.45-15.3-3.78-22.94c-1.26-7.26-2.69-14.5-4.21-21.72c-0.43-2.05,0.31-2.22,2.05-2.4
			c14.29-1.43,28.68-0.93,42.96-2.13c6.67-0.56,13.3-0.9,19.97-1.04c1.87-0.04,2.94,0.33,3.5,2.24c2.6,8.78,6.87,17.2,8.07,26.23
			c1.06,7.95,5.65,14.29,7.46,21.75c2,0,3.99,0,5.99,0c-2.05-4.75-2.99-9.89-5.24-14.59c-1.67-3.5-3.06-7.15-4.31-10.83
			c-3.71-10.94-6.56-22.18-11.62-32.64c-1.86-3.84-1.17-7.64,1.11-11.08c1.09-1.64,2.65-2.97,3.93-4.49
			c4.84-5.71,10.43-10.67,13.69-17.82c4.89-10.71,9.3-21.39,9.6-33.33c0.15-5.96,1.27-11.74,3.67-17.15
			c7.36-16.64,12.17-33.89,13.52-52.1C596.17,409.41,596.59,398.84,593.24,388.42z M526.41,285.46
			c6.31-9.24,11.55-19.08,15.97-29.35c0.72-1.67,1.48-2.76,3.88-2.59c3.43,0.23,6.42-1.49,8.34-4.44
			c5.02-7.74,8.34-16.06,8.06-25.49c0-0.1-0.01-0.2-0.01-0.3c-0.49-7.86-3.26-10.5-11.14-10.09c-2.21,0.12-2.62-0.69-2.93-2.54
			c-2.24-13.59-8.35-25.51-16.71-36.19c-5.69-7.27-13.5-12.01-22.52-14.37c-4.04-1.06-7.82-3.01-12.03-3.45
			c-1.51-0.16-1.8-1.06-1.26-2.33c0.79-1.84,1.77-3.57,3.01-5.15c2.58-3.29,5.28-6.47,6.67-10.55c0.47-1.38,1.34-3.24,3.39-1.2
			c0.71,0.71,1.8,0.59,2.43-0.16c2.53-3.04,6.08-2.35,9.1-1.97c5.14,0.65,9.95,2.74,14.52,5.24c0.7,0.38,1.39,0.86,2.15,1.03
			c7.8,1.77,12.33,7.16,16.56,13.56c5.56,8.41,8.45,17.64,11.25,27.14c2.83,9.61,3.58,19.35,3.91,29.22
			c0.24,7.9-1.13,15.71-1.34,23.56c-0.49,18.25-4.22,35.81-11.23,52.6c-2.51,6.02-5.01,12.16-9.07,17.44
			c-1.06,1.38-1.76,1.62-2.92,0.23c-3.05-3.66-7.11-6.41-9.51-10.68c-1.15-2.05-3.11-3.38-5.25-4.29c-1.46-0.62-2.3-1.76-3.28-2.9
			C525.75,286.6,525.89,286.22,526.41,285.46z M522.37,294.65c1-1.22,6.14-0.09,7.42,1.54c3.44,4.39,6.76,8.87,10.16,13.29
			c0.9,1.17,0.48,2.14-0.09,3.29c-5.69,11.71-13.81,21.62-22.77,30.9c-3.16,3.27-7.64,4.6-11.36,7.07c-1.6,1.06-1.42-0.56-1.52-1.45
			c-0.86-7.34-2.47-14.51-4.79-21.53c-0.89-2.68-2.14-5.1-4.24-7.39c6.92-1.66,13.08-4.45,18.91-7.95c3.69-2.21,7.37-4.51,8.15-9.34
			c0.15-0.91,0.35-1.75-0.12-2.6C520.98,298.48,520.97,296.36,522.37,294.65z M459.37,307.12c1.56-3.76,3.03-7.51,3.03-11.77
			c0.66,0.94,3.11,0.73,1.57,2.83c-0.46,0.63,0.27,0.53,0.48,0.62c9.02,3.98,18.38,6.45,28.32,6.05c6.57-0.26,12.11-3.52,17.63-6.62
			c2.77-1.55,5.31-3.52,7.59-5.79c0.53-0.53,1.06-1.22,2.2-1.09c-1.08,4.14-2.04,8.27-2.27,12.53c-0.07,1.28-1.25,1.99-2.18,2.73
			c-5.08,3.99-10.87,6.65-16.92,8.75c-3.29,1.14-6.69,1.97-10.07,2.81c-3.44,0.86-4.79,3.76-6.26,6.41
			c-1.17,2.12-2.43,4.11-4.06,5.88c-0.45,0.49-0.71,1.45-1.5,1.25c-0.87-0.22-0.87-1.24-1.06-1.97c-0.51-2.01-0.43-4.09-1.17-6.13
			c-1.2-3.28-3.75-5-6.62-6.01c-2.98-1.06-4.93-3.27-7.22-5.1C459.19,311.16,458.5,309.21,459.37,307.12z M447.09,322.84
			c-0.79-4.99,1.52-9.36,2.63-13.96c0.35-1.46,0.81-3.12,3.03-3.68c-0.55,3.93,0.78,6.81,3.43,9.06c3.02,2.57,5.84,5.41,9.84,6.59
			c2.27,0.67,1.82,2.19,0.32,3.25c-4.14,2.92-7.13,6.92-10.43,10.63c-1.07,1.2-1.86,2.57-2.24,4.17c-0.18,0.76-0.45,1.56-0.88,2.2
			c-1.9,2.85-4.3,2.84-5.22-0.34c-1.41-4.86-3.69-9.81-1.1-15.05C446.89,324.85,447.24,323.75,447.09,322.84z M411.34,239.61
			c0.42-5.97,0.66-11.95,1.28-17.9c1.16-11.13,4.8-21.52,9.81-31.48c5.43-10.79,11.62-21.12,18.61-30.97
			c7.66-10.79,16.96-19.89,28.52-26.34c7.49-4.18,15.38-3.21,23.07,0.04c0.96,0.41,0.84,0.9,0.35,1.59
			c-3.82,5.33-7.58,10.71-11.49,15.98c-0.65,0.88-1.46,1.79-0.69,2.56c1.71,1.72,0.5,2.57-0.73,3.45c-3.5,2.5-6.74,5.25-9.51,8.58
			c-0.74,0.9-1.76,1.69-2.81,2.18c-18.86,8.88-28.28,24.59-32.22,44.31c-0.11,0.58-0.26,1.15-0.59,2.6
			c-3.14-5.99-7.47-2.91-11.03-2.31c-3.66,0.62-4.53,4.25-4.84,7.48c-0.89,9.14,0.46,17.9,5.22,25.92c1.83,3.09,9.9,6.24,13.85,5.18
			c1.98-0.53,2.56,0.02,2.67,1.74c0.45,7.47,3.94,14.13,5.62,21.28c1.08,4.62,4.95,7.65,7.1,11.65c1.66,3.09,4.8,5.39,5.01,9.26
			c0.12,2.14-2.44,5.46-4.49,5.88c-0.5,0.1-1.07,0.27-1.35-0.26c-1.07-1.99-2.34-1.93-3.76-0.44c-0.8,0.83-1.47,0.21-2.14-0.13
			c-4.95-2.46-10.56-3.02-15.54-5.3c-2.96-1.35-6.28-2.57-7.02-6.58c-0.41-2.21-2.81-2.97-4.18-4.52
			c-2.85-3.24-2.92-7.51-4.47-11.22C411.29,261.57,410.56,250.66,411.34,239.61z M221.15,138.09c0.84-1.49,2.66-1.03,3.64,0.03
			c5.11,5.57,12.24,8.54,17.55,13.84c1.27,1.27,2.23,2.65,2.43,4.58c-1.67,0.15-3.34,0.43-4.85,1.1c-0.1-0.54-0.63-1.1-0.88-1.62
			c-3.46-7.15-9.95-11.24-15.96-15.82C222.31,139.62,220.47,139.3,221.15,138.09z M219.02,141.08c0.78-0.73,1.27,0.14,1.76,0.5
			c6.1,4.45,12.62,8.47,16.21,15.56c0.27,0.54,0.61,1.26,1.12,1.57c-0.16,0.12-0.32,0.23-0.47,0.36c-0.65,0.59-1.15,1.25-1.64,1.91
			c-2.35-4.78-6.09-8.31-10.3-11.53c-2.35-1.79-4.23-4.21-6.3-6.36C218.85,142.52,218.17,141.88,219.02,141.08z M219.25,146.47
			c1.79,1.87,3.5,3.91,5.6,5.35c4.23,2.89,7.21,6.7,9.54,11.09c-0.21,0.2-0.44,0.4-0.69,0.59c-1.41,1.04-2.12,1.25-3,2.87
			c-3.07-5.1-8.1-8.35-12.1-12.58c-1.3-1.37-2.54-2.81-3.85-4.17c-0.92-0.95-0.88-1.75-0.11-2.85
			C216.69,143.79,216.68,143.78,219.25,146.47z M208.75,154.22c-0.88-0.84-0.63-1.46,0.19-1.83c1.25-0.56,2.29-3.26,3.82-1.3
			c4.79,6.13,12,9.94,15.96,16.83c0.22,0.39,0.5,0.75,0.84,1.05c-0.41,0.95-0.89,1.84-1.92,2.75c-0.55,0.49-1.13,0.9-1.71,1.31
			C219.8,167.12,214.88,160.11,208.75,154.22z M224.15,174.49c-0.15,0.14-0.3,0.27-0.44,0.42c-1.04,1.17-1.62,2.84-2.7,3.93
			c-0.04,0.04-0.08,0.07-0.12,0.11c-0.54-0.54-1.09-1.08-1.58-1.66c-5.04-5.91-10.1-11.81-15.05-17.79
			c-0.66-0.79-2.51-1.57-0.89-3.11c1.48-1.4,3.02-1.38,4.39,0.14c3.14,3.47,6.2,7.02,9.34,10.49c2.07,2.29,4.2,4.53,6.38,6.71
			C223.73,174,223.95,174.24,224.15,174.49z M189.55,148.59c-6.05-1.85-11.14-5.08-15.81-9.23c-3.79-3.37-7.87-6.38-11.22-10.25
			c-1.52-1.76-3.38-2.88-6.08-1.6c-2.07,0.98-7.69-3.08-7.39-5.24c0.25-1.8,1.96-1.74,3.52-1.75c4.88-0.04,9.01,2.07,13.14,4.29
			c1.75,0.94,3.63,1.64,5.47,2.4c0.75,0.31,1.62,0.51,2.21-0.24c0.65-0.84,0.36-1.76-0.28-2.45c-4.08-4.37-8.24-8.65-13.32-11.91
			c-2.76-1.77-5.49-3.6-8.17-5.5c-0.81-0.58-2.34-1.21-1.55-2.47c0.7-1.12,2.32-0.83,3.28-0.27c2.4,1.4,5.09,2.21,7.36,3.88
			c4.01,2.94,8.6,5.02,12.39,8.3c0.59,0.51,1.37,1.05,2.09,0.19c0.45-0.53,0.23-1.16-0.23-1.62c-3.42-3.41-5.27-8.12-9.28-11.09
			c-1.43-1.06-2.6-2.54-4.36-3.07c-2.36-0.72-3.84-2.36-5.21-4.25c-1-1.38-1.35-2.68-0.15-4.05c1.19-1.35,2.87-1.43,4.08-0.52
			c4.28,3.25,9.13,5.69,13.01,9.49c2.55,2.51,5.16,4.95,8.56,6.36c0.74,0.31,1.35,0.96,2.12,0.25c0.83-0.76,0.44-1.66,0.12-2.5
			c-1.29-3.4-3.35-6.37-5.72-9.06c-3.36-3.8-6.97-7.36-10.46-11.04c-0.61-0.65-1.21-1.33-1.69-2.07c-0.55-0.85-1.82-1.63-0.88-2.85
			c0.91-1.18,2.3-1.18,3.57-0.75c4.14,1.39,7.41,4.21,10.8,6.81c1.57,1.21,2.83,2.81,4.36,4.08c1.66,1.37,2.86,2.8,1.9,5.53
			c1.77,3.95,0.67,9.07,4.09,12.92c1.5,1.69-0.05,3.02-0.92,4.2c-3.16,4.27-4.09,9.2-4.5,14.31c-0.07,0.84-0.25,1.99,1.08,2.03
			c1.03,0.03,1.26-0.9,1.29-1.7c0.15-5.76,2.1-10.89,5.47-15.5c1.36-1.86,1.17-3.3-0.52-4.92c-2.03-1.94-3.53-10.18-2.63-12.95
			c0.06-0.19,0.18-0.4,0.14-0.57c-0.47-2.21,0.25-3.89,2.54-4.23c2.7-0.41,2.48,2.18,2.99,3.67c2.37,6.83,5.47,13.17,10.16,18.79
			c2.48,2.98,3.83,6.56,3.73,10.74c-0.11,4.74-0.09,9.63,3.14,13.69c0.37,0.46,0.6,1.24,1.06,1.4c3.42,1.16,1.4,2.63,0.38,4.2
			c-3.24,5.01-7.99,8.25-12.9,11.35c-1.22,0.77-1.92,0.84-2.95-0.4C195.33,150.98,192.45,149.48,189.55,148.59z M211.13,182.76
			c-0.13,1.21-0.28,3.04-1.02,4.37c-0.09,0.11-0.16,0.23-0.22,0.35c-0.38,0.55-0.9,0.99-1.6,1.19c-1.86-2.87-3.81-5.69-5.49-8.67
			c-2.1-3.71-4.68-6.88-8.16-9.39c-1.35-0.97-2.48-2.31-3.51-3.64c-0.89-1.14-0.81-2.5,0.38-3.45c0.99-0.79,1.97-0.88,3.16,0.16
			c6.37,5.51,11.39,12.19,16.5,18.78C211.16,182.57,211.14,182.67,211.13,182.76z M212.97,180.35c-0.15,0.02-0.29,0.06-0.42,0.11
			c-3.18-4.09-6.49-8.08-9.63-12.2c-2.01-2.63-5.09-4.15-7.07-6.95c4.35-2.69,4.39-2.73,7.43,0.79c4.56,5.27,9.02,10.63,13.56,15.92
			c0.61,0.71,1.28,1.38,1.96,2.04C216.98,180.5,214.89,180.08,212.97,180.35z M355.19,349.92c-2.76-4.64-7.24-7.99-9.48-12.98
			c-0.12-0.26-0.35-0.56-0.59-0.66c-3.97-1.57-5.99-4.85-7.95-8.42c-0.76-1.39-1.39-2.33-0.99-3.96
			c2.65-10.85,5.25-21.7,10.25-31.79c0.24-0.49,0.27-1.2,1.3-1.33c0.37,14.11-4.22,27.54-4.93,41.52c0.24-1.1,0.57-2.19,0.71-3.3
			c1.46-11.96,4.85-23.65,5.19-35.77c0.05-1.58,1.15-3.99-0.62-4.52c-1.66-0.49-2,2.1-2.65,3.44c-4.85,9.92-7.52,20.57-9.95,31.26
			c-0.59,2.61-1.52,2.84-3.56,1.78c-1.06-0.55-2.21-0.94-3.26-1.5c-4.52-2.4-5.21-3.86-4.28-8.91c0.45-2.44,1.26-4.89-0.9-7.03
			c-0.67-0.67-0.05-1.5,0.24-2.23c3.59-9.19,6.64-18.57,9.68-27.95c0.6-1.84,0.75-3.7,0.67-5.61c-0.02-0.56,0.17-1.27-0.6-1.51
			c-0.65-0.2-1.18,0.14-1.59,0.59c-0.66,0.74-1.36,1.47-1.88,2.31c-2.6,4.25-4.37,8.89-6.07,13.58c3.17-4.85,4.55-10.73,8.63-15.46
			c1.11,1.97,0.64,3.62,0.16,5.14c-2.93,9.42-5.97,18.8-9.63,27.97c-0.41,1.03-0.4,2.91-2.41,2.32c-1.8-0.52-3.83-0.88-3.94-3.4
			c-0.02-0.5-0.02-1-0.03-1.5c-0.09-6.42-1.09-7.86-7.19-10.02c-3.68-1.3-7.55-1.93-11.4-2.4c-3.46-0.43-6.27-1.83-8.53-4.43
			c-4.58-5.26-9.23-10.46-13.74-15.78c-2.61-3.08-5.41-5.85-9.14-7.55c-3.57-1.63-5.8-4.5-7.12-8.09c-1.48-4.01-4.17-7.04-7.68-9.29
			c-4.93-3.17-9.08-7.01-12.36-11.95c-2.46-3.71-5.88-6.72-7.73-10.94c-1.9-4.35-3.38-8.76-3.52-13.52
			c-0.14-4.68-1.67-8.27-5.82-11.06c-3.04-2.04-5.43-5.14-7.87-7.98c0.53-1.12,0.9-2.38,1.16-3.72c0.3-0.09,0.63-0.16,0.99-0.21
			c2.61,0.05,4.84,0.42,7.13-1.87c1.13-1.13,1.78-2.56,2.72-3.82c1.38-1.85,3.08-2.83,4.84-4.27c2.67-2.18,2.96-5.61,5.32-7.5
			c0.34-0.27,0.65-0.5,0.95-0.73c0.03,0.01,0.06,0.01,0.1,0.01c0.58,0.11,0.9-0.35,0.95-0.88c0.24-0.23,0.49-0.48,0.73-0.79
			c2.3-2.88,3.42-3.6,7.22-3.78c0.33-0.02,0.61-0.09,0.87-0.2c0.53,0.29,1.09,0.64,1.71,1.06c4.18,2.81,7.5,6.57,10.94,10.15
			c3.06,3.18,6.23,6.17,9.84,8.7c5.75,4.03,9.62,9.75,13.74,15.26c6.14,8.22,13.3,15.42,22.44,20.25
			c6.47,3.42,12.48,7.46,18.39,11.72c1.67,1.2,2.79,2.81,3.8,4.55c1.65,2.85,3.69,5.12,7.25,5.67c2.93,0.45,3.71,3.09,4.65,5.37
			c2.23,5.41,2.21,5.56,7.96,4.98c5.88-0.59,11.72,3.69,13.55,8.53c2.05,5.44,5.6,7.7,11.1,7.6c2.49-0.05,4.69,0.63,6.58,2.35
			c1.58,1.44,3.63,1.7,5.63,1.59c6.69-0.4,12.77,1.76,18.77,4.29c4.66,1.97,7.55,5.63,9.97,9.91c4,7.06,9.88,12.09,17.48,14.97
			c1.35,0.51,2.03,1.52,2.92,2.43c1.22,1.26,2.54,2.12,4.04,0.46c0.74-0.82,1.38-0.41,2.13-0.1c6.27,2.52,6.45,2.57,4.55,9.06
			c-1.49,5.06-3.44,9.98-5.27,14.94c-2.11,5.73-3.52,11.64-4.77,17.59c-0.6,2.85-1.55,5.61-3.09,8.07c-2.93,4.68-5.1,9.7-7.24,14.75
			c-5.12,12.08-11.81,23.25-19.44,33.9c-1.5,2.09-2.49,4.54-3.71,6.82c-0.22,0.41-0.42,0.88-0.32,1.26c-0.23,0.54-0.43,1.04-0.6,1.5
			c-1.02-0.73-2.05-1.45-3.09-2.14c-1.08-0.72-1.93-1.64,0.05-2.49c0.34-0.14,0.53-0.83,0.64-1.3c2.87-12.03,7.99-23.35,11.04-35.35
			c4.87-19.14,6.58-38.66,7.91-58.26c0.04-0.58-0.06-1.17-0.14-2.31c-1.26,2.03-0.91,3.8-0.97,5.45
			c-0.47,13.47-2.11,26.86-4.34,40.1c-2.76,16.44-8.38,32.18-14.12,47.81c-0.31,0.85-0.34,2.38-1.46,2.33
			c-1.04-0.04-1.75-1.32-2.1-2.32c-0.86-2.43-2.12-4.69-2.55-7.3c-1.48-8.86-6.28-16.06-11.85-22.8c-0.86-1.04-1.37-1.91-1.09-3.15
			c1.35-6,1.11-12.12,1.2-18.18c0.15-9.62,2.28-19.01,2.92-28.56c0.08-1.24,0.54-2.54,2.64-3.84c0.26,13.95-0.85,27.33-0.43,40.77
			c0.19-1.63,0.49-3.25,0.54-4.88c0.29-10.57,0.53-21.14,0.78-31.7c0.02-0.7,0.05-1.41-0.05-2.09c-0.14-1.02,0.29-2.51-1.13-2.76
			c-1.4-0.25-1.92,1.13-2.55,2.15c-4.38,7.04-4.02,15.18-4.68,22.9c-0.84,9.81-0.66,19.71-1.86,29.52
			c-0.46,3.81-1.07,7.59-1.51,11.4c-0.18,1.57-0.63,1.68-2.09,1.12c-4.48-1.73-5.83-5.72-6.32-9.66
			C364.85,364.28,359.6,357.35,355.19,349.92z M350.82,421.88c-4.46-0.45-5.86-1.64-6.6-6.12c-0.49-3-1.93-5.64-3.07-8.38
			c-0.96-2.3-0.77-4.14,0.8-6.33c2.24-3.12,3.67-6.82,3.82-10.75c0.08-2.03,0.35-3.29,2.64-3.88c2.32-0.6,3.56-2.32,4.21-4.89
			c0.79-3.13,1.32-6.75,5.32-7.99c1.2-0.37,1.72-0.31,2.33,0.8c2.93,5.3,7.84,8.62,12.52,12.12c1.35,1.01,2.96,0.2,4.23-0.38
			c1.56-0.72,0.19-1.75-0.07-2.72c-0.57-2.18,0.29-4.22,0.72-6.44c4.11,2.78,5.99,6.22,5.83,11c-0.18,5.32,2.42,10.17,3.31,15.34
			c0.31,1.82,2.18,3.17,3.91,3.93c6.49,2.84,11.66,7.56,17.25,11.7c8.48,6.28,17.44,11.9,25.96,18.1
			c7.79,5.66,14.77,12.43,22.11,18.71c0.38,0.32,0.85,0.69,0.68,1.23c-1.06,3.54,1.48,2.42,2.72,1.83
			c4.71-2.26,9.84-3.77,13.83-7.38c0.44-0.4,0.95-0.73,1.48-1.01c7.04-3.74,14.11-7.42,21.12-11.22c1.95-1.06,2.96-1.01,4.49,1.03
			c2.91,3.89,7.44,6.3,10.39,10.25c6.94,9.3,16.58,16.1,23.54,25.41c1.42,1.91,1.39,2.75-0.92,2.97c-3.42,0.31-5.39,3.25-8.39,4.34
			c-5.05,1.84-10.32,3.37-14.97,5.96c-10.84,6.04-22.59,9.87-33.91,14.74c-6.37,2.74-13.17,2.98-19.98,2.5
			c-3.75-0.27-6.32-2.88-8.89-5.17c-5.89-5.24-11.42-10.87-16.52-16.88c-8.41-9.89-17.72-18.92-26.65-28.32
			c-7.09-7.46-14.57-14.49-22.36-21.17C372.88,427.26,362.43,423.04,350.82,421.88z M486.63,390.82c-0.03-1.29-0.31-2.09,2.06-1.45
			c3.19,0.86,6.85-0.1,10.3-0.11c5.11-0.02,10.07-1.24,15.1-1.86c0.9-0.11,2.23-0.86,2.47,0.59c0.22,1.32-0.5,2.55-2.1,2.77
			c-1.87,0.25-3.75,0.53-5.63,0.64c-2.1,0.11-3.47,1.03-3.68,3.15c-0.26,2.67-0.27,5.37-0.48,8.05c-0.14,1.73,0.49,2.25,2.21,2.03
			c0.92-0.12,2.62-0.8,2.69,0.72c0.06,1.15-0.57,2.86-2.43,2.86c-1.11,0-1.79,0.35-1.62,1.54c0.35,2.54-1.32,3.74-3.4,5.18
			c-0.13-7.54,0.1-7.1-7.11-6.29c-2.26,0.25-4.56,0.04-7.27,0.04c1.43,4.48,1.46,8.95,4.76,12.27c1.01,1.02,0.28,2.01-0.48,2.78
			c-0.88,0.9-1.25-0.08-1.8-0.59c-4.91-4.53-7-9.86-5.48-16.63C485.89,401.37,486.75,396.14,486.63,390.82z M506.62,394.65
			c-0.15-1.37,0.66-1.38,1.57-1.5c6.26-0.79,6.3-0.78,4.42,5.19c-0.44,1.39-0.09,3.29-2.13,3.88c-3.66,1.06-4.26,0.59-4.22-3.7
			C505.97,397.32,506.77,396,506.62,394.65z M529.91,464.28c-4.71-4.61-8.29-10.21-12.97-14.86c-3.81-3.79-7.5-7.72-11.05-11.76
			c-2.77-3.14-5.84-5.91-9.07-8.54c-1.43-1.16-2.12-2.21,0.15-3.61c2.34-1.44,3.82-3.97,6.04-5.69c1.78-1.38,3.81-1.61,5.81-2.11
			c1.98-0.14,3.55,0.85,5.09,1.72c5.31,3.03,10.72,6.49,13.89,11.53c4.01,6.37,9.22,11.72,13.38,17.91
			c5.81,8.66,11.94,17.12,17.99,25.62c0.78,1.09,0.35,1.99-0.18,2.73c-2.13,3-4.41,5.89-6.59,8.85c-0.97,1.32-1.44,0.79-2.44-0.14
			C542.68,479.26,536.94,471.17,529.91,464.28z M546.89,491.54c-0.61,1.18-2.37,0.38-3.59,0.61c-3.4,0.45-5.97-1.44-8.41-3.25
			c-2.25-1.67-1.93-3.1,0.56-4.25c5.84-2.69,6.41-2.53,9.98,2.88c0.05,0.08,0.12,0.16,0.17,0.25
			C546.15,489.02,547.53,490.3,546.89,491.54z M494.93,420.64c-0.78,0.34-1.48,0.36-1.72-0.43c-0.66-2.18-2.28-3.88-2.76-6.17
			c-0.74-3.53-0.55-3.89,3.22-3.88c1.39,0.12,2.93-0.29,4.48-0.62c1.47-0.31,2.14,0.23,2.24,1.84
			C500.63,415.27,498.41,419.12,494.93,420.64z M389.92,466.98c0.48,4.6,1.18,8.42,0.76,12.89
			C389.74,475.46,389.88,471.6,389.92,466.98z M360.09,587c-2.72-1.69-5.35-3.51-6.82-6.53c-1.07-2.2-1.14-4.33,0.81-6
			c2.89-2.48,3.77-5.88,5.06-9.26c4.79-12.54,6.84-25.79,10.47-38.63c1.72-6.1,1.56-12.45,1.96-18.7c0.5-7.88,1.77-15.65,2.85-23.44
			c0.69-4.98,0.51-9.95,0.59-14.93c0.06-3.58-0.11-7.18,1-10.67c0.3-0.93,0.45-2.25-0.76-2.55c-1.57-0.39-1.63,1.06-1.79,2.12
			c-0.25,1.67-0.7,3.37-0.61,5.03c0.73,13.35-1.76,26.42-3.19,39.58c-0.62,5.65-0.36,11.42-1.39,16.98
			c-1.76,9.49-4.28,18.83-6.36,28.26c-1.25,5.67-3.52,11-5.21,16.52c-0.17,0.56-0.02,1.54-1.19,1.17
			c-5.06-1.59-10.45-1.14-15.52-2.26c-3.52-0.78-6.8-0.03-10.18-0.2c-1.51-0.07-1.96-0.56-1.66-1.97c0.48-2.24,0.66-4.58,1.43-6.71
			c4.81-13.31,9.54-26.65,14.74-39.81c2.04-5.15,5.13-9.9,7.9-14.75c1.25-2.18,2.37-4.37,3.09-6.78
			c3.86-12.89,7.83-25.76,8.88-39.29c0.42-5.38,0.24-10.78-0.15-16.14c-0.17-2.31,1.16-3.7,2.08-5.35c0.73-1.31,1.96-0.36,2.53,0.22
			c3.74,3.79,8.84,5.79,12.57,9.59c0.28,0.28,0.59,0.61,0.94,0.72c5.5,1.77,5.33,6.66,5.76,10.97c0.38,3.85,0.08,7.77,0.08,12.73
			c0.24,4.1,0.2,9.29,0.7,14.46c0.4,4.15,0.1,8.33-0.51,12.51c-0.73,5.02-0.89,10.12-1.19,15.2c-0.87,14.71-4.5,28.89-7.69,43.2
			c-2.33,10.43-6.02,20.44-8.51,30.81C369.43,588.75,365.05,590.09,360.09,587z M391.7,536.24c-1.34,6.23-2.71,12.45-4.03,18.69
			c-1.45,6.86-4.9,12.79-8.58,18.62c-1.48,2.34-2.92,4.7-4.9,6.88c0.65-2.79,0.97-5.71,2.01-8.36c3.22-8.22,4.55-16.9,6.68-25.39
			c3.78-15.07,7.45-30.19,9.8-45.53c1.05-6.86-0.03-14.07-0.39-21.11c-0.32-6.36-0.99-12.71-1.48-19.07
			c-0.1-1.23-0.55-2.94,1.96-1.7c-3.2-2.45-2.75-5.72-2.67-8.96c3.28,3.1,7.48,4.89,7.64,10.84c0.39,14.36,0.6,28.73-0.62,43.01
			C396.2,514.94,393.98,525.63,391.7,536.24z M544.32,561.64c-12.39-0.58-24.62,2.52-37.02,1.6c-7.42-0.42-14.75,1.92-22.04,1.47
			c-13.99-0.86-27.99-1.72-41.95-3.38c-11.3-1.35-21.88-5.03-32.77-7.71c-3.96-0.97-8.1-1.27-11.44-3.98
			c-0.07-0.06-0.19-0.06-0.28-0.09c-1.21-0.38-3.16,0.84-3.54-0.92c-0.25-1.16,0.8-2.59,1.26-3.91c0.33-0.94,0.71-1.87,0.98-2.82
			c1.09-3.77,1.13-3.87,4.72-1.94c13.18,7.07,27.53,9.14,42.15,11.04c12.15,1.58,24.23,1.83,36.35,1.32
			c14.53-0.62,29.15,0.06,43.58-2.16c5.3-0.81,10.47-2.44,15.71-3.66c2.69-0.63,4.62,0.65,4.52,3.35c-0.12,3.26,0.54,6.35,1.43,9.41
			C546.48,560.94,546.21,561.73,544.32,561.64z M512.23,548.5c4.19-0.45,8.38-0.91,12.58-1.36
			C520.72,548.57,516.52,548.92,512.23,548.5z M581.94,459.59c-3.15,8.78-7.64,17.19-7.94,26.81c-0.2,6.51-0.97,12.95-2.95,19.15
			c-2.74,8.6-7.07,16.52-12.16,23.87c-2.1,3.03-5.78,5.28-8.2,8.11c-5.78,6.75-13.52,6.21-20.9,7.01
			c-19.72,2.12-39.56,2.9-59.36,3.47c-14.3,0.41-28.61-0.47-42.78-3.48c-8.23-1.75-16.18-4.05-23.97-7.05
			c-4.26-1.64-4.56-2.22-3.62-6.61c1.15-5.35,1.74-10.9,3.17-16.07c3.5-12.69,1.57-25.33,1.05-37.97c-0.18-4.27-1.5-8.53-1.01-13.94
			c3.69,4.8,7.95,7.85,11.74,11.42c9.21,8.69,17.52,18.25,26.41,27.25c3.05,3.1,7.1,5.05,9.91,8.47c0.45,0.54,1.39,0.8,2.15,0.94
			c7.39,1.42,14.73,1.78,21.86-1.32c11.04-4.81,22.18-9.37,33.6-13.26c5.64-1.92,11.25-4.13,16.28-7.43
			c2.09-1.36,3.76-1.02,5.33,0.56c2.15,2.16,4.74,3.6,7.37,5.03c1.27,0.69,2.58,0.88,3.99,1.05c4.39,0.51,7.73-0.95,10.2-4.65
			c3.06-4.6,7.54-8.13,10.47-12.75c8.57-13.52,17.24-27,24.52-41.29c0.22-0.43,0.32-0.97,1.31-1.11
			C586.94,444.07,584.7,451.89,581.94,459.59z M586.75,429.01c-0.88,3.74-2.83,7.04-4.66,10.33c-3.76,6.78-6.75,13.99-11.78,20.06
			c-1.75,2.11-2.77,4.82-4.14,7.25c-1.17,2.07-2.25,4.22-4.38,5.85c-4.03-6.56-8.13-12.98-12.62-19.14
			c-5.21-7.16-10.11-14.59-15.74-21.41c-4.49-5.43-9.68-10.35-15.42-14.51c-1.97-1.43-4.49-2.12-6.8-3.04
			c-1.55-0.61-1.96-1.17-0.83-2.74c2.69-3.73,4.35-7.98,6.04-12.27c3.66-9.33,6.88-18.81,12.52-27.37
			c3.47-5.27,6.94-10.32,11.56-14.59c0.49-0.45,1.27-0.98,0.4-1.66c-0.65-0.51-1.25,0.01-1.84,0.45
			c-9.16,6.82-16.02,15.42-20.08,26.14c-0.82,2.17-2.07,2.97-4.36,3.21c-7.74,0.8-15.46,1.62-23.25,1.69c-0.4,0-0.8,0.01-1.2,0
			c-4.73-0.21-5.03-0.21-4.94,4.76c0.1,5.97-1.28,11.68-2.42,17.41c-1.28,6.44,2.29,10.81,5.74,15.22c0.85,1.09,1.49,1.68,0.85,2.94
			c-0.89,1.76-0.31,2.9,1.26,4.01c1.7,1.2,2.26,2.29-0.24,3.81c-9.72,5.87-19.92,10.98-28.92,17.99c-1.21,0.94-1.66,0.25-2.44-0.38
			c-8.29-6.71-16.38-13.7-24.98-19.98c-6.1-4.45-12.62-8.35-18.68-12.89c-3.9-2.92-7.7-5.99-11.59-8.92l7.06-13.36
			c3.26-4.13,5.65-8.92,8.44-13.39c6.41-10.26,9.87-22,16.09-32.37c3-5,3.44-10.79,5.03-16.22c0.28-0.94,0.52-1.9,1.24-2.88
			c0.41,1.86,0.79,3.73,1.22,5.58c0.27,1.16,0.36,2.46,0.96,3.43c1.36,2.2,1.99,5.27,5.2,5.68c2.22,0.28,6.75-3.14,7.67-5.99
			c1.87-5.82,6.28-9.59,10.52-13.47c2.61-2.39,3.62-1.54,4.85,1.54c3.58,8.95,0.29,16.31-4.24,23.81c-4.57,7.57-6.39,16.17-6.5,24.9
			c-0.12,9.26-0.76,18.55,0.38,27.8c0.15,1.2,0.09,2.49-0.55,3.5c-2.94,4.67-2.7,10.1-3.75,15.22c-0.26,1.27-0.41,2.61,0.65,3.67
			c0.76,0.76,1.65,1.02,2.73,0.58c1.07-0.44,0.64-1.17,0.64-1.96c-0.03-4.46,0.27-8.97,2.06-13.07c1.57-3.6,1.93-7.12,1.81-11.01
			c-0.4-13.42-1.5-26.93,2.39-40.1c0.96-3.26,2.43-6.33,4.35-9.15c2.79-4.12,4.64-8.64,5.1-13.58c0.2-2.14,1.67-3.36,2.64-4.9
			c2.55-4.02,5.52-7.77,7.88-11.93c0.67-1.19,1.25-1.55,3.16-0.59c5.66,2.85,5.71,8.35,6.95,13.1c1.4,5.36,2.82,10.79,2.79,16.47
			c-0.01,2.59,2.09,3.91,4.39,2.7c5.78-3.02,11.99-5.38,16.38-10.65c2.67-3.21,5.74-6.06,8.35-9.37
			c4.58-5.81,9.15-11.57,12.09-18.45c0.77-1.81,1.62-2.74,3.53-0.7c2.35,2.51,5.52,4.03,8.03,6.58c8.31,8.44,14.8,18.28,21.64,27.79
			c4.41,6.14,6.61,13.63,8.79,21.06c2.75,9.41,4.15,18.8,4.17,28.54c0,3.22,1.05,6.45,1.67,9.67
			C590.92,416.47,588.25,422.65,586.75,429.01z"/>
		<path class="st35" d="M418.08,561c-1.55,0.04-0.84,1.67-0.97,2.67c-0.92,7.19-1.44,14.44-3.18,21.52
			c-2.33,9.5-3.69,19.13-3.3,28.96c0.8,0,1.6,0,2.39,0c-0.04-0.79-0.1-1.58-0.11-2.37c-0.09-10.94,2.32-21.51,4.51-32.13
			c1.06-5.15,1.49-10.43,2.1-15.66C419.65,562.79,419.96,560.96,418.08,561z"/>
		<path class="st35" d="M503.66,567.4c-0.65-0.33-1.31-0.63-1.88,0.07c-0.41,0.51-0.54,1.31-0.05,1.63
			c2.29,1.52,1.46,3.96,1.81,5.99c1.48,8.46,4.23,16.6,6.19,24.94c1.11,4.74,2.15,9.52,3.85,14.1c0.8,0,1.6,0,2.39,0
			c-3.73-14.25-8.29-28.29-10.43-42.92C505.32,569.72,505.24,568.21,503.66,567.4z"/>
		<path class="st35" d="M529.37,567.56c-1.02,0.18-1.03,1.13-0.94,1.92c0.44,3.95,0.49,8.07,2.17,11.7
			c4.85,10.48,5.39,21.98,8.12,32.96c0.8,0,1.6,0,2.39,0c-1.81-15.47-7.81-29.96-10.48-45.23
			C530.51,568.19,530.26,567.41,529.37,567.56z"/>
		<path class="st35" d="M490.91,269.86c-0.28,0.15-0.81,0.01-1.16-0.15c-3.93-1.76-7.79-0.76-11.68,0.16
			c-1.54,0.36-3.1,1.15-4.29-1.17c-0.57-1.13-2.64-1.33-4-0.32c-0.81,0.6-0.89,2.03-0.12,2.34c2.9,1.15,4.4,4.18,7.33,5.19
			c-0.1-1.25-1.89-1.4-1.82-3.16c8.91,2.29,17.95,2.96,27.38,2.65c-1.51,2.35-3.45,3.21-5.51,3.57c-0.12-0.22-0.36-0.38-0.68-0.3
			c-4.76,1.12-9.45,0.98-14.14-0.41c-0.14-0.04-0.26-0.02-0.37,0.01c-1.54-0.8-3.01-1.78-4.71-2.22c1.12,1.63,2.64,2.37,4.32,2.78
			c-0.02,0.26,0.1,0.53,0.43,0.63c4.05,1.2,8.14,1.48,12.25,0.89c5.58,0.08,9.49-4.04,13.68-7.36c0.89-0.71,0.73-1.9-0.09-2.66
			c-0.89-0.83-2.04-1.1-2.8,0.16c-1.05,1.76-2.42,1.3-3.9,0.86C497.73,270.38,494.66,267.83,490.91,269.86z M501.44,272.82
			c-7.98,1.07-15.84,0.28-23.63-1.66C485.82,269.69,493.72,269.87,501.44,272.82z"/>
		<path class="st35" d="M478.94,210.18c1.97,0.2,3.68-0.32,3.5-2.55c-0.18-2.17-1.91-2.5-3.83-1.96c-0.35,0.1-0.82,0.12-1.13-0.04
			c-3.93-1.93-8.16-1.72-12.31-1.5c-5.34,0.28-9.99,2.5-14,6.04c-0.58,0.51-1.25,1.2-0.75,2.07c0.57,0.99,1.3,0.33,2.06,0.1
			c2.75-0.84,5.42-1.91,8.33-2.23C466.87,209.46,472.91,209.12,478.94,210.18z M471.37,206.9c-3.15,0.2-6.3,0.39-9.45,0.59
			C465.03,206.08,468.28,206.75,471.37,206.9z"/>
		<path class="st35" d="M511.23,231.08c2.97,2.84,6.57,2.99,10.3,2.92c1.19,0,2.39,0.07,3.58-0.01c3.24-0.23,5.89-1.67,7.95-4.16
			c0.5-0.6,1.05-1.29,0.61-2.15c-0.46-0.91-1.22-0.92-2.02-0.46c-1.21,0.71-1.51-0.36-2.06-1.01c-4.45-5.24-14.05-5.39-18.74-0.31
			C509.07,227.86,509.31,229.25,511.23,231.08z M516.09,226.13c0.11-1.06,0.71-1.9,1.86-1.91c0.98-0.01,1.58,0.64,1.73,1.63
			c-0.39,1.01-1.04,1.71-2.14,1.72C516.64,227.59,516,227.09,516.09,226.13z M521.06,225.61c0.03-0.94,0.34-0.94,0.96-0.94
			c0.19,0,0.39,0.08,0.58,0.12c3.19,0.64,6.82,3.88,6.49,5.81c-0.3,1.78-5.2,3.26-8.32,2.39c-1.71-0.47-3.6-0.57-5.52-1.98
			C520.09,231.37,520.91,230.6,521.06,225.61z"/>
		<path class="st35" d="M456.75,224.43c0.8,0.06,1.53,0.1,2.25,0.58c2.85,1.89,6.06,2.44,8.76,2.34c4.17-0.04,7.6-0.24,10.57-2.6
			c1.01-0.8,1.37-1.37,0.56-2.39c-5.42-6.91-17.08-8.96-23.34-0.95C454.39,222.9,454.34,224.26,456.75,224.43z M467.57,220.6
			c-0.21-1.84,0.71-1.75,1.85-1.6c2.35,0.33,4.2,1.65,5.91,3.19c1.06,0.95,0.26,1.54-0.45,2.12c-3.49,2.86-7.24,2.07-11.08,0.89
			C466.9,225.08,467.87,223.16,467.57,220.6z M464.25,218.87c0.94-0.09,1.39,0.58,1.41,1.54c-0.15,0.96-0.6,1.67-1.69,1.66
			c-0.82-0.01-1.29-0.49-1.26-1.32C462.75,219.76,463.25,218.97,464.25,218.87z"/>
		<path class="st35" d="M512.88,214.2c0.59-0.05,1.18-0.2,1.77-0.23c6.39-0.42,12.71-0.32,18.71,2.42c1.01,0.46,1.83,2.55,3.2,1.02
			c1.06-1.18-0.49-2.35-0.88-3.5c-0.23-0.68-0.91-1.36-1.57-1.71c-3.4-1.81-6.61-4.25-9.87-3.54c-4.85,0.24-8.74,0.37-12.33,2.1
			c-0.91,0.44-2.35,0.7-1.79,2.23C510.55,214.2,511.74,214.3,512.88,214.2z"/>
		<path class="st35" d="M550.29,231.23c-1.97-0.33-3.11,0.99-3.92,2.59c-0.59,1.16-0.82,2.65,0.41,3.2c2.83,1.25,1.77,2.31,0.17,3.6
			c-0.51,0.41-0.67,1.03-0.3,1.6c0.29,0.45,0.84,0.56,1.33,0.31c1.55-0.8,2.84-1.91,3.26-3.66c0.34-1.39-0.14-2.55-1.57-3.16
			c-0.67-0.29-1.38-0.62-0.7-1.49c0.54-0.7,1.12-0.68,1.68,0.08c1.33,1.82,2.33,0.76,3.25-0.45c1.87-2.46,2.38-5.41,2.88-7.9
			c0.18-2.64-0.75-4.59-2.51-5.5c-2.04-1.05-4.05,0.03-5.64,1.59c-1.29,1.26-1.65,2.92-1.89,4.6c-0.13,0.91,0,1.94,1.19,2.01
			c1.15,0.06,0.98-1,1.12-1.75c0.27-1.49,0.64-2.94,2.05-3.8c0.77-0.47,1.6-0.95,2.4-0.03c2.07,2.41,0.21,4.71-0.23,7.03
			C552.9,232.03,551.62,231.46,550.29,231.23z"/>
		<path class="st35" d="M430.31,234.9c-0.09,0.51-0.1,1.06,0.35,1.36c0.27,0.18,0.94,0.24,1.05,0.08c1.19-1.6,3.47-2.71,2.82-5.21
			c-0.5-1.92-1.95-2.73-3.89-2.28c-1.25,0.29-1.69-0.33-1.8-1.32c-0.12-1.05-0.6-2.47,0.48-3.02c0.96-0.49,1.24,0.97,1.8,1.56
			c0.65,0.69,1.55,2.11,2.09,0.47c0.71-2.18-1.15-3.7-2.81-4.73c-1.58-0.98-2.9-0.12-3.5,1.54c-0.33,0.92-0.38,1.94-0.46,2.37
			c0.02,4.36,0.63,5.01,4.71,5.51c1,0.13,1.15,0.65,0.58,1.42C431.2,233.38,430.48,233.96,430.31,234.9z"/>
		<path class="st35" d="M501.96,242.83c1.28,2.04,1.62,4.25,1.32,6.6c-0.05,0.4-0.46,1.16,0.39,1.07c2.37-0.27,3.18,1.01,3.25,3.07
			c0.07,2.2-1.11,3.29-3.37,3.48c3.01,0.3,4.39-0.51,4.78-2.67c0.43-2.39-0.6-4.05-2.8-4.99c-0.59-0.25-1.39-0.08-1.44-1.13
			c-0.24-4.29-2.2-8.42-1.04-12.85c0.32-1.23,0.51-2.65,0.22-3.85c-0.57-2.4,0.28-4.24,1.5-6.15c1.27-1.98,2.19-4.13,2.41-6.53
			c-1.32,4.54-5.73,7.77-4.89,13.34c0.4,2.64,0.14,5.57-0.58,8.3C501.49,241.28,501.52,242.12,501.96,242.83z"/>
		<path class="st35" d="M484.51,255.59c-0.33,0.68-0.82,0.21-1.26,0.07c-1.73-0.56-3.16-1.42-3.64-3.35
			c-0.6-2.44,0.99-3.64,3.01-4.85c-1.43-1.06-2.26-0.49-3.04,0.12c-1.36,1.06-1.98,2.43-1.67,4.19c0.4,2.27,1.29,4.03,3.64,5.01
			c3.17,1.33,5.6-1.23,8.5-1.17C488.17,254.2,486.3,251.85,484.51,255.59z"/>
		<path class="st35" d="M499.01,254.69c-0.81,0.25-2.41-0.09-2.1,1.29c0.4,1.79,2.48,1.11,3.74,1.72c0.7,0.34,1.15-0.26,1.1-0.9
			C501.61,255.19,500.43,254.79,499.01,254.69z"/>
		<path class="st35" d="M477.06,275.94c-0.02-0.01-0.04-0.02-0.07-0.03c0,0.03,0.02,0.06,0.02,0.09c0.05,0.01,0.09,0.03,0.13,0.04
			C477.11,276,477.08,275.98,477.06,275.94C477.06,275.94,477.06,275.94,477.06,275.94z"/>
		<path class="st35" d="M397.6,380.99c1.18-0.4,0.99-1.21,1.04-1.85c0.62-7.05,1.1-14.11,1.83-21.14
			c1.25-12.08,1.17-24.3,3.69-36.24c0.9-4.27,0.42-8.54,0.41-12.81c0-0.6-0.04-1.64-1.03-1.44c-0.7,0.14-1.19,1.12-0.85,1.68
			c1.15,1.83,0.12,3.49-0.24,5.14c-0.99,4.47-2.12,8.91-2.66,13.47c-1.75,14.74-3.52,29.47-5.25,44.21
			c-0.68,5.81-1.26,11.63-1.89,17.44c4.23-24.81,5.59-50.02,11.02-74.66C400.2,336.7,400.21,358.89,397.6,380.99z"/>
		<path class="st35" d="M495.27,405.56c1.09,0,2.21-0.14,3.28,0.03c2.68,0.41,3.19-1.1,3.2-3.27c0-1.59,0.1-3.18,0.24-4.77
			c0.5-5.49,0.67-6.33-5.03-4.96c-2,0.48-4.55-0.96-5.98,0.74c-1.38,1.63-0.93,4.19-1.29,6.33
			C488.54,406.51,489.28,405.53,495.27,405.56z M492.24,395.7c-0.04-0.29-0.11-0.8,0.01-0.86c2.26-1.13,4.62-0.17,6.94-0.28
			c1.58-0.07,1.26,1.15,1.32,2.09c0.5,7.46,0.5,7.46-6.95,7.78c-0.68,0.03-1.35,0.09-2.32,0.16
			C491.87,401.4,492.67,398.61,492.24,395.7z"/>
	</g>
</g>
</svg>
