<?xml version="1.0" encoding="utf-8"?>
<!-- Generator: Adobe Illustrator 23.0.2, SVG Export Plug-In . SVG Version: 6.00 Build 0)  -->
<svg version="1.1" xmlns="http://www.w3.org/2000/svg" xmlns:xlink="http://www.w3.org/1999/xlink" x="0px" y="0px"
	 viewBox="0 0 841.89 595.28" style="enable-background:new 0 0 841.89 595.28;" xml:space="preserve">
<style type="text/css">
	.st0{fill:#ECC5BF;}
	.st1{fill:#F8E2D2;}
	.st2{fill:#CBF4FF;}
	.st3{fill:#FF3A5B;}
	.st4{fill:#E7BA9F;}
	.st5{fill:#422918;}
	.st6{fill:#E59C8B;}
	.st7{fill:#FFFFFF;}
	.st8{fill:#1D70B7;}
	.st9{fill:#FFDD4C;}
	.st10{fill:#007EFF;}
	.st11{fill:#97E6FC;}
	.st12{fill:#FFF88A;}
	.st13{fill:#FF6671;}
	.st14{fill:#D9D9D9;}
	.st15{fill:#50E3C2;}
	.st16{fill:#B1B1B1;}
	.st17{fill:#868686;}
	.st18{fill:#C89B83;}
	.st19{fill:#E3C9BB;}
	.st20{fill:#ECECEC;}
	.st21{fill:#FF8438;}
	.st22{fill:#DEB496;}
	.st23{fill:#EACEB3;}
	.st24{fill:#ECDCD2;}
	.st25{fill:#F5F5F5;}
	.st26{fill:url(#SVGID_1_);}
	.st27{fill:url(#SVGID_2_);}
	.st28{fill:#AE846C;}
	.st29{fill:#9E6D57;}
	.st30{fill:#C6C6C5;}
	.st31{fill:#F6ECE3;}
	.st32{fill:#E7BCA9;}
	.st33{fill:#F6D8C7;}
	.st34{fill:#F6E9DA;}
	.st35{fill:#1D1D1B;}
	.st36{fill:none;}
</style>
<g id="colour">
</g>
<g id="Layer_3">
	<path class="st25" d="M167.16,236.78l-4.09-62.37c0,0,34.8-19.87,74.44-17.89c39.63,1.98,0,0,0,0l8.31,2.84l10.51-19.68l-0.17-6.46
		c0,0,1.16-9.39,28.9-6.42c27.74,2.97,0,0,0,0s20.56-9.86,18.7,5.97c-1.86,15.83,0,0,0,0L300.51,146l14.16,15.25
		c0,0,46.85-6.98,67.58,13.47s0,0,0,0l4.88,10.54l-1.98,64.4l-153.58,21.8L167.16,236.78z"/>
	<path class="st20" d="M565.63,437.05c7.18,0.71,14.34,0.13,21.5,0c17.5-0.31,34.97-1.54,52.48-1.56
		c13.93-0.02,27.84,0.68,41.75,0.51c11.09-0.13,22.17,0.37,33.26,0.19c5.09-0.08,10.16,0.82,15.27-0.01c1.9-0.31,2.9-1.94,2.37-2.68
		c-1.71-2.39-1.16-5.5-3.08-7.78c-2.45-2.9-4.38-6.25-6.93-9.04c-4.97-5.43-8.51-12.06-14.5-16.68c-1.8-1.39-3.8-2.79-5.05-5.23
		c-0.67-1.32-2.88-3.51-5.76-3.3c-12.82,0.96-25.67,0.13-38.5,0.56c-5.27,0.17-5.37,0.03-5.73,5.38c-0.21,3.1-1.75,4.71-4.68,5.38
		c-2.75,0.62-4.49-1.27-6.49-2.45c-2-1.18-0.04-2.41,0.13-3.61c0.48-3.35-0.31-4.34-3.59-4.27c-3.92,0.09-7.83,0.26-11.74,0.32
		c-21.43,0.27-42.42-1.15-63.86-1c-2.75,0.02-6.17,2.49-6.05,5.39c0.11,2.77-1.19,1.9-3.63,2.2c-3.26,0.4-4.37,0.82-7.38-0.66
		c-1.23-0.6-3.63,0.24-1.54-1.26c1.24-0.9,1.92-4.21,1.21-5.67c-0.61-1.26-2.4-0.51-3.41-0.55c-1.41-0.06-2.66-0.15-4.07-0.11
		c-12.63,0.37-24.92,0.28-37.54,0c-1.52-0.03-3.2-0.14-4.29,1.1c-1.69,1.92-1.12,1.06-2.75,2.86c-0.72,0.79-1.45,3.34-2.09,1.43
		c-0.73-2.18-2.87,1.85-3.74,2.53c-3.51,2.75-8.52,6.18-12.11,8.81c-6.46,4.72-10.69,11.21-16.07,17.06
		c-1.8,1.96-2.13,4.46-2.86,7.05c-0.55,1.95,0.58,2.56,2.93,3.02c3.66,0.71,7.35,0.94,11.01,1.02c19.56,0.43,39.12-0.2,58.69,0.9
		C541.03,437.6,553.35,437.05,565.63,437.05z"/>
	<g>
		<path class="st3" d="M335.48,174.48c-3.55-0.18-4.54-4.91-4.5-8.46c0.22-19.52,0.43-39.04,0.65-58.56c-3.49,0.37-7.24,0.7-10.32-1
			s-4.74-6.31-2.28-8.82c1.58-1.61,4.09-1.73,6.34-1.75c72.84-0.55,145.69-1.1,218.53-1.64c2.13-0.02,4.39,0,6.18,1.15
			c4.02,2.56,4.45,10.84,0.62,13.68c-1.96,1.46-6.01,0.74-7.52,2.66c-1.27,1.62-1,2.77-1.18,4.82
			c-6.06,71.23,6.94,117.25-4.37,216.37c-0.45,3.99,2.52,9.25,0.73,12.84s-8.46,5.44-12.46,5.13c-0.63-13.99-0.8-23.89,0.57-37.83
			c2.52-25.64-0.46-54.84-1.32-80.59c-0.86-25.74,1.19-51.54,0.33-77.28c-0.48-14.24,0.79-29.08,0.32-43.32
			c-0.04-1.19-0.21-2.59-1.25-3.15c-0.48-0.26-1.05-0.27-1.6-0.28c-44.38-0.52-88.5,1.36-132.88,0.84
			c-14.49-0.17-29.28-2.75-43.7-1.25c-1.42,0.15-2.97,0.38-3.89,1.47c-0.91,1.07-0.91,2.61-0.86,4.01
			c0.65,18.55,1.31,37.1,1.96,55.64c0.11,3.06-0.39,6.99-3.35,7.76"/>
	</g>
	<path class="st14" d="M594.71,426.68c-31.66,0-63.32,0-94.98,0c-0.65,0-1.31,0.07-1.96,0.01c-1.99-0.18-4.76,0.54-5.38-1.9
		c-0.52-2.05,0.23-4.63,2.02-6.16c4.2-3.6,9.07-6.53,12.81-10.52c5.23-5.58,10.74-4.11,17.95-3.88c23.27,0.74,46.74,1.09,70.02,1.1
		c28.51,0.01,56.16,1.05,84.66,1.21c4.26,0.02,4.61-0.55,6.94,2.75c2,2.83,4.33,5.4,6.61,8.04c1.26,1.47,3.73,3.05,2.64,5.06
		c-1.04,1.92-0.6,2.32-2.76,2.34c-6.2,0.04-12.4,0.2-18.6,0.21c-26.65,0.03-53.31,0.01-79.96,0.01
		C594.71,425.53,594.71,426.1,594.71,426.68z"/>
	<path class="st2" d="M641.42,350.55c-1.93-0.22-4.42,0.14-6.81,0.88c-1.81,0.56-4.85,0.05-4.84,2.82c0.01,2.94,3.11,3,5.16,3.42
		c3.07,0.63,6.32,0.43,9.38,1.09c5.25,1.13,10.36,0.65,15.53-0.32c1.71-0.32,2.53-1.6,2.77-2.83c0.24-1.23-1.44-1.48-2.38-1.77
		C654.3,352.05,648.31,350.5,641.42,350.55z"/>
	<path class="st3" d="M552.86,356.42c3.01,0.43,5.82-0.62,8.72-0.99c2.66-0.34,2.23-1.66,1.43-3.37c-0.6-1.28-1.82-1.64-2.91-1.86
		c-7.66-1.54-15.36-2.8-23.15-0.96c-1.79,0.42-3.69,0.92-4.84,2.49c-0.59,0.8-1.56,2.54,0.46,2.64
		C539.38,354.7,546.08,356.02,552.86,356.42z"/>
	<g>
		<path class="st2" d="M170.48,221.87c12.17,4.08,26.3,1.76,36.53-5.99c3.49,7.69,11.3,13.25,19.71,14.01
			c8.41,0.77,17.1-3.28,21.92-10.22c6.49,6.61,14.1,12.56,23.07,14.88c8.97,2.32,19.51,0.32,25.46-6.78
			c2.28-2.72,4.76-6.49,8.25-5.82c1.5,0.29,2.68,1.38,3.85,2.37c15.54,13.19,41.65,11.13,54.93-4.34c1.25-1.45,2.59-3.12,4.49-3.36
			c4.73-0.59,8.92,7.76,12.45,4.56c4.09,92.47,6.06,185.03,5.91,277.58c-0.01,4.28,2.95,12.58,1.08,16.43
			c-2.95,6.08-13.5,11.46-19.82,13.87c-51.14,19.55-108.25,14.75-160.2-2.53c-14-4.65-28.64-11.58-35.27-24.76
			c-4.71-9.36-4.55-20.33-4.3-30.81c1.96-82.51,2.92-165.05,2.89-247.59"/>
	</g>
	<linearGradient id="SVGID_1_" gradientUnits="userSpaceOnUse" x1="338.3329" y1="505.6268" x2="338.3329" y2="217.5086">
		<stop  offset="0" style="stop-color:#1D70B7"/>
		<stop  offset="1" style="stop-color:#FF3A5B"/>
	</linearGradient>
	<path class="st26" d="M330.22,505.63c-1.34,0-2.78-0.04-4.54-0.12c-3.29-0.15-3.5-2.73-3.61-4.11c-1.39-17.2-0.79-34.63-0.2-51.49
		c0.2-5.66,0.4-11.51,0.53-17.27l0-0.17c0.74-34.28,1.51-69.72,1.23-104.58c-0.07-8-0.26-16.13-0.45-23.99
		c-0.19-8.06-0.39-16.39-0.46-24.59c-0.02-2.06-0.1-4.18-0.17-6.22c-0.13-3.43-0.26-6.97-0.1-10.48c0.06-1.43,0.17-2.87,0.27-4.3
		c0.14-2.01,0.29-4.1,0.32-6.14c0.01-0.57-0.11-0.72-0.11-0.72c-0.02-0.02-0.19-0.14-1.1-0.14c0,0-1.77,0.01-2.31,0.01
		c-2.61,0-5.46-0.09-8.58-0.77l-2.18-0.47l1.35-1.77c0.53-0.69,1.02-1.36,1.5-2.01c1.02-1.39,1.99-2.7,3.08-3.95
		c0.91-1.04,1.82-2.07,2.73-3.1c4.81-5.46,9.78-11.1,13.94-17.18c0.21-0.3,0.42-0.63,0.63-0.96c1.07-1.68,2.27-3.58,4.2-3.58
		c0.62,0,1.22,0.21,1.79,0.61c6.73,4.82,15.21,12.65,22.01,18.94c1.13,1.04,2.21,2.04,3.22,2.97c1.8,1.65,2.29,2.92,2.86,4.39
		c0.28,0.73,0.6,1.56,1.15,2.61l0.67,1.3l-1.32,0.63c-1.76,0.85-3.54,0.96-5.05,0.96c-0.49,0-0.98-0.01-1.47-0.03
		c-0.47-0.01-0.93-0.03-1.39-0.03c-1.01,0-1.77,0.07-2.44,0.21l-0.5,0.11c-1.18,0.25-2.29,0.49-3.35,0.91
		c-0.89,0.35-1.12,0.68-1.09,1.6c0.21,8.37-0.08,16.85-0.37,25.06c-0.29,8.58-0.6,17.46-0.33,26.17
		c0.57,18.19,1.63,36.67,2.66,54.54c0.23,4.06,0.47,8.13,0.7,12.2c1.18,20.92,1.42,42.21,1.65,62.79c0.1,8.43,0.19,17.14,0.36,25.71
		c0.05,2.66,0.08,5.31,0.11,7.97c0.1,8.6,0.2,17.49,1.03,26.17c0.28,2.96-0.77,4.61-3.52,5.52c-2.15,0.71-4.27,1.86-6.32,2.97
		l-0.51,0.27C340.9,505.22,334.84,505.63,330.22,505.63z"/>
	<linearGradient id="SVGID_2_" gradientUnits="userSpaceOnUse" x1="338.6056" y1="504.2095" x2="338.6056" y2="218.9262">
		<stop  offset="0" style="stop-color:#1D70B7"/>
		<stop  offset="1" style="stop-color:#FF3A5B"/>
	</linearGradient>
	<path class="st27" d="M311.24,249.16c3.82,0.83,7.16,0.75,10.5,0.73c1.45-0.01,2.75,0.15,2.71,2.31
		c-0.06,3.51-0.43,6.99-0.59,10.48c-0.25,5.53,0.24,11.09,0.28,16.62c0.12,16.2,0.77,32.39,0.91,48.59
		c0.28,34.94-0.48,69.87-1.23,104.79c-0.5,22.87-2.19,45.73-0.33,68.61c0.13,1.66,0.39,2.72,2.26,2.81c7,0.33,13.91,0.19,20.31-3.26
		c2.29-1.24,4.6-2.53,7.06-3.34c2.2-0.73,2.77-1.82,2.55-4.04c-1.09-11.39-0.93-22.83-1.14-34.25c-0.56-29.49-0.35-58.99-2-88.45
		c-1.25-22.25-2.66-44.49-3.36-66.77c-0.53-17.08,1.12-34.15,0.69-51.24c-0.04-1.55,0.59-2.4,1.99-2.95
		c1.33-0.52,2.68-0.78,4.06-1.09c3.3-0.72,6.84,0.53,10.05-1.02c-1.68-3.24-1.33-4.43-3.71-6.61c-7.03-6.45-17.32-16.22-25.1-21.8
		c-1.91-1.37-3.25,1.58-4.62,3.58c-4.99,7.29-10.97,13.78-16.77,20.42C314.21,245.04,312.89,247,311.24,249.16z"/>
	<path class="st14" d="M280.88,169.01c9.62-0.24,18.98-1.96,27.99-5.44c1.93-0.74,4.06-1.8,4.79-3.68c0.53-1.37-2.16-1.48-2.64-2.9
		c-0.1-0.3-0.26-0.61-0.46-0.86c-2.87-3.55-5.76-7.07-8.61-10.63c-0.67-0.83-1.22-1.2-2.44-0.86c-12.06,3.31-24.21,3.88-36.32,0.4
		c-3.23-0.93-5.65,1.74-8.66,1.18c-0.18-0.03-0.52,0.39-0.68,0.66c-2.48,4.14-5.75,7.63-9.03,11.12c-0.74,0.79-0.9,1.53,0.41,1.87
		c2.68,0.69,4.75,2.69,7.33,3.51C261.77,166.3,270.98,169.32,280.88,169.01z"/>
	<path class="st7" d="M559.39,388.58c6.01,1.45,12.02,1.24,17.91,1.24c20.78,0.01,41.57-0.31,62.34-1.15
		c1.15-0.05,2.33,0.16,2.76-1.54c0.5-1.96-1.07-1.97-2-2.29c-5.57-1.92-7.42-6.91-9.16-11.63c-1.83-4.98-2.62-10.31-3.29-15.61
		c-0.36-2.86-1.56-4.36-4.88-4.09c-4.44,0.36-8.92,0.16-13.38,0.14c-12.62-0.04-25.25-0.13-37.87-0.14c-1.11,0-2.68-0.72-3.03,1.42
		c-1.25,7.82-2.27,15.7-4.07,23.41C563.9,381.94,565.9,387.49,559.39,388.58z"/>
	<path class="st7" d="M520.02,388.13c8.12,0,15.84,0.01,23.56-0.01c0.85,0,1.99,0.11,2.31-0.81c0.41-1.21-0.9-1.2-1.6-1.58
		c-4.71-2.6-7.95-6.32-9.11-11.7c-0.76-3.5-1.57-6.99-2.43-10.46c-0.2-0.81-0.53-1.99-1.11-2.24c-1.72-0.72-2.03-2.08-2.3-3.61
		c-0.28-1.57-1.61-2.76-2.66-1.53c-2.29,2.68-3.97,2.25-6.13,0.04c-0.59-0.6-1.82-0.63-2.77-0.82c-5.4-1.07-10.8-0.48-15.65,1.77
		c-3.92,1.82-7.03,5.07-7,10.07c0.04,5.87,0.23,11.75,0.02,17.61c-0.09,2.57,0.83,3.23,3.12,3.19
		C505.65,387.91,513.04,387.37,520.02,388.13z"/>
	<path class="st7" d="M677.62,388.11c8.33-0.13,16.7,0.47,25-0.93c1.41-0.24,1.87-0.55,1.83-1.89c-0.15-5.32,0.04-10.67-0.45-15.95
		c-0.73-7.94-6.18-12.36-12.85-12.63c-7.27-0.29-14.55,0.01-21.83,0c-1.24,0-2.06,0.18-2.25,1.64c-0.78,6.04-2.59,11.86-3.97,17.78
		c-1,4.29-1.39,8.96-7.45,9.21c-0.88,0.04-2,0.72-1.74,1.97c0.25,1.18,1.41,0.78,2.19,0.79
		C663.28,388.13,670.45,388.11,677.62,388.11z"/>
	<polygon class="st20" points="633.84,609.33 569.23,609.33 564.48,488.45 633.84,488.45 	"/>
	<path class="st7" d="M705.38,485.12c5.48,0.3,11.08-1.59,16.87-1.59c1.26,0,3.05,0.46,2.13-2.07c-0.32-0.89,0.67-1.69,1.58-1.69
		c2.07,0.01,2.54-1.17,2.6-2.91c0.45-12.07,2.27-24.01,3.63-35.98c0.29-2.54-1.29-1.88-2.35-1.67c-3.9,0.81-7.83,0.62-11.71,0.26
		c-4.24-0.4-8.47-0.27-12.71-0.38c-13.91-0.35-27.82,0.06-41.75-0.44c-15.74-0.57-31.53-0.03-47.29,0.38
		c-16.73,0.43-33.45,1.69-50.17,1.78c-15.52,0.08-31.06-0.52-46.59-1.27c-16.18-0.79-32.42-0.36-48.63-0.44
		c-3.92-0.02-7.88-0.07-11.68-0.98c-2.88-0.69-3.89-0.26-3.79,2.91c0.36,11.52-0.27,23.05,0.34,34.57
		c0.36,6.75,3.09,10.77,9.14,11.02c15.53,0.65,31.09,1.54,46.61,1.23c13.58-0.27,27.17-1.13,40.77-1.05
		c16.64,0.1,33.3,1.14,49.93,0.36c30.54-1.42,61.11-1.43,91.66-2.27C697.68,484.78,701.35,485.67,705.38,485.12z"/>
	<g>
		<path class="st36" d="M558.3,389.38c6.01,1.45,12.02,1.24,17.91,1.24c20.78,0.01,41.57-0.31,62.34-1.15
			c1.15-0.05,2.33,0.16,2.76-1.54c0.5-1.96-1.07-1.97-2-2.29c-5.57-1.92-7.42-6.91-9.16-11.63c-1.83-4.98-2.62-10.31-3.29-15.61
			c-0.36-2.86-1.56-4.36-4.88-4.09c-4.44,0.36-8.92,0.16-13.38,0.14c-12.62-0.04-25.25-0.13-37.87-0.14c-1.11,0-2.68-0.72-3.03,1.42
			c-1.25,7.82-2.27,15.7-4.07,23.41C562.81,382.74,564.81,388.29,558.3,389.38z"/>
		<path class="st36" d="M646.78,386.21c-1.58,0.09-3.49-0.41-3.25,2.28c0.22,2.49,0.62,4.99,0.49,7.46
			c-0.12,2.28,0.27,3.33,2.85,3.39c2.75,0.07,2.61-1.51,2.56-3.32c-0.03-1.19-0.01-2.39-0.01-3.58c0,0,0.01,0,0.01,0
			c0-1.3-0.17-2.63,0.04-3.9C649.84,386.16,648.46,386.12,646.78,386.21z"/>
		<path class="st36" d="M639.87,379.91c-1.35-5.02-2.66-10.05-4.08-15.04c-0.38-1.33-1.06-2.59-1.75-3.8
			c-0.21-0.37-0.9-0.6-1.39-0.63c-0.67-0.04-0.84,0.55-0.82,1.13c0.3,7.17,3.53,13.58,5.39,20.34c0.23,0.85,1.4,1.04,2.26,0.9
			c0.92-0.14,0.48-1.03,0.62-1.69C640.03,380.76,639.98,380.32,639.87,379.91z"/>
		<path class="st36" d="M653.69,380.55c0.33-5.42,0.85-10.82,1.28-16.23c0.1-1.27,0.49-2.66-1.65-2.74
			c-1.89-0.07-2.51,0.7-2.43,2.49c0.18,4.55-0.3,9.12,0.43,13.66c0.23,1.43,0.6,3.02-1.15,4.78c-0.11-0.9-0.19-1.29-0.2-1.68
			c-0.16-5.75-0.35-11.49-0.47-17.24c-0.08-3.59-3-2.27-4.63-2.41c-2.56-0.22-0.96,1.83-0.88,2.78c0.5,5.74,1.69,11.37,2.8,17.01
			c0.33,1.66,0.32,3.07,2.5,2.74C651.26,383.41,653.5,383.58,653.69,380.55z"/>
		<path class="st36" d="M634.74,357.52c3.07,0.63,6.32,0.43,9.38,1.09c5.25,1.13,10.36,0.65,15.53-0.32
			c1.71-0.32,2.53-1.6,2.77-2.83c0.24-1.23-1.44-1.48-2.38-1.77c-5.93-1.8-11.93-3.35-18.81-3.3c-1.93-0.22-4.42,0.14-6.81,0.88
			c-1.81,0.56-4.85,0.05-4.84,2.82C629.59,357.04,632.69,357.1,634.74,357.52z"/>
		<path class="st36" d="M660.58,362.33c0.48-1.62-0.16-1.8-1.46-1.63c-1.82,0.24-2.6,1.1-2.72,2.96c-0.34,5.2-0.83,10.39-1.21,15.58
			c-0.05,0.74-0.65,2.01,0.68,2.1c1.27,0.08,1.97-1.02,1.81-2.23c-0.25-1.93,0.49-3.63,0.89-5.42
			C659.43,369.88,660.37,366.08,660.58,362.33z"/>
		<path class="st36" d="M643.35,383.41c1.58,0.12,2.2-0.61,2.06-2.39c-1.06-4.71-2.28-9.7-2.52-14.8c-0.14-3-1.54-4.26-4.17-4.75
			c-0.71-0.13-1.5-0.75-2.14-0.1c-0.67,0.68,0.04,1.39,0.23,2.09c1.57,5.97,3.33,11.91,4.54,17.95
			C641.67,383.04,642.06,383.31,643.35,383.41z"/>
		<path class="st36" d="M246.23,161.22c2.68,0.69,4.75,2.69,7.33,3.51c9.22,2.93,18.43,5.95,28.33,5.64
			c9.62-0.24,18.98-1.96,27.99-5.44c1.93-0.74,4.06-1.8,4.79-3.68c0.53-1.37-2.16-1.48-2.64-2.9c-0.1-0.3-0.26-0.61-0.46-0.86
			c-2.87-3.55-5.76-7.07-8.61-10.63c-0.67-0.83-1.22-1.2-2.44-0.86c-12.06,3.31-24.21,3.88-36.32,0.4
			c-3.23-0.93-5.65,1.74-8.66,1.18c-0.18-0.03-0.52,0.39-0.68,0.66c-2.47,4.14-5.75,7.63-9.03,11.12
			C245.07,160.15,244.92,160.88,246.23,161.22z"/>
		<path class="st36" d="M296.38,138.27c-5.98,1.17-12.01,1.78-18.1,1.67c-4.98-0.1-9.98,0.1-14.91-0.88
			c-0.61-0.12-1.39-0.36-1.71,0.4c-0.33,0.8,0.43,1.16,0.96,1.44c0.66,0.35,1.4,0.54,2.12,0.78c5.43,1.81,11.01,2.34,17.35,1.83
			c1.41,0,3.47,0.08,5.52-0.02c3.25-0.15,6.5-0.32,9.64-1.31c1.74-0.55,1.97-2.06,1.73-3.41
			C298.66,136.89,297.24,138.1,296.38,138.27z"/>
		<path class="st36" d="M351.58,249.03c1.33-0.52,2.68-0.78,4.06-1.09c3.3-0.72,6.84,0.53,10.06-1.02c-1.68-3.24-4.76-4.7-7.14-6.88
			c-7.03-6.45-13.96-13.01-21.75-18.59c-1.91-1.37-3.18-1.37-4.55,0.64c-4.99,7.29-10.97,13.78-16.77,20.42
			c-1.55,1.77-2.88,3.73-4.52,5.89c3.82,0.83,7.16,0.75,10.5,0.73c1.45-0.01,2.75,0.15,2.71,2.31c-0.06,3.51-0.43,6.99-0.59,10.48
			c-0.25,5.53,0.24,11.09,0.28,16.62c0.12,16.2,0.77,32.39,0.91,48.58c0.28,34.94-0.48,69.87-1.23,104.79
			c-0.5,22.87-2.19,45.73-0.33,68.61c0.13,1.66,0.39,2.72,2.26,2.81c7,0.33,13.91,0.19,20.31-3.26c2.29-1.24,4.6-2.53,7.06-3.34
			c2.2-0.73,2.77-1.82,2.55-4.04c-1.09-11.39-0.93-22.83-1.14-34.25c-0.56-29.49-0.35-58.99-2-88.45
			c-1.25-22.25-2.66-44.49-3.36-66.77c-0.53-17.08,1.12-34.15,0.69-51.24C349.55,250.43,350.18,249.58,351.58,249.03z"/>
		<path class="st36" d="M380.87,185.77c-12.09,7.04-25.15,11.29-38.96,13.21c-17.58,2.44-35.29,3.34-53.01,3.77
			c-25.25,0.61-50.47-0.18-75.51-3.84c-14.61-2.13-28.76-5.77-41.47-13.75c-2.48-1.56-1.74,0.85-1.77,1.77
			c-0.34,11.21,0.37,22.41,0.52,33.62c0.02,1.6,0.55,2.25,2.16,2.57c9.79,1.93,19.04,0.67,27.59-4.61c2.47-1.53,4.84-1.83,7.32-0.25
			c2.74,1.76,5.39,3.69,8.19,5.34c3.27,1.92,6.57,3.64,10.56,3.96c7.6,0.62,14.72-0.37,21.3-4.5c2.75-1.72,5.45-1.74,8.57-0.07
			c6.2,3.33,12.45,6.69,19.43,8.25c7.46,1.67,14.63,0.91,20.92-3.51c3.13-2.2,6.28-4.26,9.68-5.97c0.9-0.45,1.86-1.06,2.76-0.54
			c2.65,1.5,5.06,3.36,7.15,5.59c0.46,0.49,0.66,1.14,0.24,1.8c-0.46,0.71-1.14,1.14-1.93,0.76c-0.87-0.41-1.84-0.85-2.43-1.57
			c-2.4-2.88-5.03-2.92-7.96-0.96c-1.09,0.72-2.3,1.29-3.29,2.11c-7.92,6.58-16.88,7.83-26.67,5.53c-6.65-1.56-12.61-4.7-18.54-7.85
			c-2.73-1.45-4.83-1.34-7.51,0.12c-10.6,5.78-21.5,6.43-32.41,0.88c-3.09-1.57-6-3.54-8.8-5.59c-1.88-1.38-3.31-1.35-5.29-0.16
			c-8.65,5.19-18.08,6.74-27.92,4.98c-2.85-0.51-3.05,0.28-2.96,2.62c0.4,9.79,0.91,19.58,0.93,29.37
			c0.06,29.06-1.41,58.11-1.52,87.16c-0.17,47.14-0.98,94.27-0.96,141.41c0,6.8,1.84,12.48,5.56,17.53
			c4.87,6.62,11.12,11.92,18.65,15.51c3.44,1.63,7,3.07,10.25,5.02c9.77,5.86,20.41,9.1,31.58,10.72c3.43,0.5,7.01,0.05,10.4,0.68
			c11.21,2.09,22.55,3.43,33.85,4.51c12.99,1.24,26.17,0.94,39.08-1.07c10.26-1.59,20.5-3.58,30.52-6.66
			c10-3.08,20.03-5.99,28.97-11.59c4.34-2.72,8.66-5.75,9.08-11.56c0.21-2.92,0.1-5.88-0.16-8.8c-2.17-24.84-2.95-49.77-3.17-74.66
			c-0.2-23.27,0.13-46.58,0.65-69.87c0.97-43.43-1.11-86.85-0.78-130.29c0-0.44-0.02-0.87-0.03-1.31c-0.03-1.03-0.56-1.63-1.57-1.74
			c-3.79-0.41-6.91-2.16-9.47-5.19c-4.05,6.9-9.39,11.26-17.54,11.85c0.92,2.09,2.35,3.36,3.86,4.32c4.26,2.72,7.44,6.68,11.49,9.64
			c1.37,1,1.84,2.41,1.42,4.04c-0.42,1.62-1.79,2.11-3.22,2.36c-1.28,0.22-2.59,0.28-3.89,0.42c-3.13,0.32-6.27,0.39-9.39,1.02
			c-1.75,0.35-1.99,1.1-2.01,2.59c-0.07,4.9-0.28,9.79-0.38,14.68c-0.34,16.96-1.75,33.96-0.03,50.88
			c1.73,17.01,1.6,34.11,2.88,51.14c1.44,19.08,1.38,38.27,1.57,57.43c0.21,21.76,0.14,43.52,1.58,65.25
			c0.19-0.79,0.32-1.68,0.36-2.68c-0.04,1-0.17,1.88-0.36,2.68c0.1,1.53,0.19,3.05,0.3,4.58c0.09,1.18,0.04,2.4-0.16,3.57
			c-0.13,0.75-0.75,1.35-1.63,1.36c-0.88,0.01-1.59-0.54-1.59-1.34c0-1.51-0.29-2.25-0.74-2.54c-0.93,0.57-1.65,0.73-1.65,0.73
			s0.72-0.16,1.65-0.73c-0.84-0.56-2.24,0.46-3.4,1.02c-3.71,1.79-7.16,4.09-11.3,4.98c-6.23,1.34-12.5,1.17-18.79,0.74
			c-1.56-0.11-2.56-0.73-2.63-2.27c-0.15-3.57-0.71-7.17-0.59-10.68c0.73-20.55,1.07-41.12,1.47-61.67
			c0.73-38.18,1.99-76.36,1.03-114.57c-0.34-13.47-1.14-26.95-0.76-40.45c0.19-6.96-0.16-13.93,0.01-20.89
			c0.07-2.72-0.83-3.61-3.29-2.83c-2.9,0.91-5.82,0.54-8.74,0.43c-0.97-0.04-1.93-0.37-2.83,0.29c-0.96,0.7-1.99,1.02-2.88-0.08
			c-0.86-1.07-0.29-2.17,0.37-2.99c1.62-2.03,3.45-3.89,5.1-5.9c7.52-9.17,15.24-18.18,22.29-27.72c0.86-1.16,1.72-2.52,3.4-1.91
			c4.96,1.8,10.49,2.46,13.63,7.73c1.62,2.71,3.54,4.48,7.81,3.8c6.86-1.09,11.48-4.11,14.19-10.31c1.4-3.2,3.26-3.61,5.53-0.99
			c1.82,2.1,3.71,3.92,6.59,4.49c1.49,0.3,2.18,0.2,2.26-1.56c0.19-4.24,0.73-8.46,0.81-12.7c0.13-6.29,0.99-12.6-0.71-18.85
			C383.24,185.08,382.59,184.77,380.87,185.77z"/>
		<path class="st36" d="M654.57,386.14c-0.88,0.04-2,0.72-1.74,1.97c0.25,1.18,1.41,0.78,2.19,0.79c7.17,0.03,14.33,0.02,21.5,0.02
			c8.33-0.13,16.7,0.47,25-0.93c1.41-0.24,1.87-0.55,1.83-1.89c-0.15-5.32,0.04-10.67-0.45-15.95c-0.73-7.94-6.18-12.36-12.85-12.63
			c-7.27-0.29-14.55,0.01-21.83,0c-1.24,0-2.06,0.18-2.25,1.64c-0.78,6.04-2.59,11.86-3.97,17.78
			C661.02,381.22,660.62,385.88,654.57,386.14z"/>
		<path class="st36" d="M264.04,134.37c5.92,1.14,11.9,0.61,17.85,0.65c4.56,0.03,9.1-0.46,13.55-1.5c1.29-0.3,3.13-0.49,2.92-2.41
			c-0.19-1.77-1.92-1.41-3.14-1.54c-5.3-0.55-10.61-0.58-17.03-0.41c-3.98,0.38-9.11-0.4-14.16,0.63c-1.2,0.24-2.7,0.14-2.72,2.09
			C261.3,133.83,262.55,134.08,264.04,134.37z"/>
		<path class="st36" d="M729.7,438.85c-3.9,0.81-7.83,0.62-11.71,0.26c-4.24-0.4-8.47-0.27-12.71-0.38
			c-13.91-0.35-27.82,0.06-41.75-0.44c-15.74-0.57-31.53-0.03-47.29,0.38c-16.73,0.43-33.45,1.69-50.17,1.78
			c-15.52,0.08-31.06-0.52-46.59-1.27c-16.18-0.79-32.42-0.36-48.63-0.44c-3.92-0.02-7.88-0.07-11.68-0.98
			c-2.88-0.69-3.89-0.26-3.79,2.91c0.36,11.52-0.27,23.05,0.34,34.57c0.36,6.75,3.09,10.77,9.14,11.02
			c15.53,0.65,31.09,1.54,46.61,1.23c13.58-0.27,27.17-1.13,40.77-1.05c16.64,0.1,33.3,1.14,49.93,0.36
			c30.54-1.42,61.11-1.43,91.66-2.27c3.7-0.1,7.37,0.79,11.4,0.23c5.48,0.3,11.08-1.59,16.87-1.59c1.26,0,3.05,0.46,2.13-2.07
			c-0.32-0.89,0.67-1.69,1.58-1.69c2.07,0.01,2.54-1.17,2.6-2.91c0.45-12.07,2.27-24.01,3.63-35.98
			C732.34,437.98,730.76,438.63,729.7,438.85z"/>
		<path class="st36" d="M684.47,409.2c-1.19,4.63-1.11,8.76-1.66,12.81c-0.13,0.96,0.24,1.47,1.21,1.45
			c2.93-0.07,5.87,0.13,8.77-0.53c1.51-0.35,2.21-1.23,1.14-2.53C690.95,416.72,687.84,413.16,684.47,409.2z"/>
		<path class="st36" d="M676.51,408.74c-9.36-0.14-18.71-0.36-28.07-0.62c-24.92-0.71-49.84-0.9-74.77-0.92
			c-19.17-0.02-38.28,0.94-57.42,1.54c-2.17,0.07-2.84,0.8-2.72,2.9c0.21,3.36,0.19,6.74,0.28,10.11c0.02,0.79,0.1,1.63-0.91,1.78
			c-0.98,0.15-1.32-0.64-1.49-1.39c-0.21-0.95-0.41-1.93-0.43-2.89c-0.05-3.14-0.02-6.29-0.02-10.39
			c-5.68,4.4-10.63,8.24-15.58,12.08c-0.25,0.2-0.47,0.46-0.65,0.73c-1.25,1.94-0.47,3.57,1.81,3.75c0.87,0.07,1.74,0.03,2.61,0.02
			c59.32-0.64,118.64-1.27,177.96-1.91c0.44,0,0.87-0.03,1.31,0c1.28,0.09,1.93-0.21,1.94-1.78c0.01-2.6,0.27-5.22,0.62-7.8
			C681.66,408.99,681.68,408.81,676.51,408.74z"/>
		<path class="st36" d="M559.32,360.01c-0.1,0.42-0.15,0.86-0.2,1.29c-0.71,5.81,0.13,11.74-1.78,17.47
			c0.7,0.62-0.47,2.05,1.12,1.96c1.03-0.06,2.39-0.53,2.39-1.82c0-6.21,2.11-12.12,2.53-18.26c0.06-0.82,0.95-2.22-0.65-2.33
			C561.47,358.25,559.76,358.08,559.32,360.01z"/>
		<path class="st36" d="M494.05,385.67c-0.09,2.57,0.83,3.23,3.12,3.19c7.39-0.15,14.77-0.69,21.76,0.07
			c8.12,0,15.84,0.01,23.56-0.01c0.85,0,1.99,0.11,2.31-0.81c0.41-1.21-0.9-1.2-1.6-1.58c-4.71-2.6-7.95-6.32-9.11-11.7
			c-0.76-3.5-1.57-6.99-2.43-10.46c-0.2-0.81-0.53-1.99-1.11-2.24c-1.72-0.72-2.03-2.08-2.3-3.61c-0.28-1.57-1.61-2.76-2.66-1.53
			c-2.29,2.68-3.97,2.25-6.13,0.04c-0.59-0.6-1.82-0.63-2.77-0.82c-5.4-1.07-10.8-0.48-15.65,1.77c-3.92,1.82-7.03,5.07-7,10.07
			C494.07,373.93,494.26,379.81,494.05,385.67z"/>
		<path class="st36" d="M556.25,379.54c0.75-5.72,1.12-11.45,1.35-17.2c0.04-1.01,0.82-2.45-0.42-2.94c-1-0.4-2.43-0.23-3.49,0.16
			c-1.35,0.49-0.69,1.87-0.64,2.88c0.04,0.97,0.34,1.93,0.43,2.9c0.39,4.52,0.27,9.02-0.32,14.24c-1.47-2.11-1.05-3.67-0.97-5.1
			c0.25-4.15,0.01-8.24-0.54-12.36c-0.27-2.04-0.9-2.91-3.01-2.7c-2.36,0.23-1.28,1.81-1.24,2.91c0.16,5,0.3,10,1.94,14.82
			c0.3,0.87,0.63,2.11-0.92,2.66c-1.02-4.69-2.33-9.18-2.29-13.91c0.01-1.62-0.09-3.27-0.36-4.87c-0.51-3.01-3.03-2.08-4.72-1.92
			c-2.48,0.25-0.7,2-0.53,2.97c0.34,1.92,1.08,3.76,1.53,5.66c0.81,3.4,1.53,6.83,2.29,10.24c-0.31,0.03-0.61,0.06-0.92,0.1
			c-2.39-5.15-2.72-10.88-4.4-16.24c-0.97-3.1-2.68-4.07-5.8-3.94c2.51,6.63,3.52,13.42,5.41,19.98c0.65,2.25,1.97,3.29,3.83,3.85
			c3.45,1.05,7.05,1.11,10.64,1.04C555.13,382.74,555.97,381.7,556.25,379.54z"/>
		<path class="st36" d="M549.61,392.04c-4.21,0.21-1.77,3.07-1.6,4.49c0.19,1.57,2.13,1.5,3.55,1.46c1.35-0.04,3.06-0.37,3.08-1.78
			c0.04-2.89,1.14-6.21-0.39-8.55c-0.91-1.4-4,0.08-6.11,0.13c-0.08,0-0.17,0.11-0.41,0.27c0.54,1.24,1.8,1.08,2.41,1.84
			C550.9,390.87,551.01,391.97,549.61,392.04z"/>
		<path class="st36" d="M532.38,354.21c6.81,0.34,13.51,1.65,20.29,2.05c3.01,0.43,5.82-0.62,8.72-0.99
			c2.66-0.34,2.23-1.66,1.43-3.37c-0.6-1.28-1.82-1.64-2.91-1.86c-7.66-1.54-15.36-2.8-23.15-0.96c-1.79,0.42-3.69,0.92-4.84,2.49
			C531.33,352.37,530.36,354.11,532.38,354.21z"/>
		<path class="st36" d="M729.05,424.92c-2.45-2.9-4.38-6.25-6.93-9.04c-4.97-5.43-8.51-12.06-14.5-16.68
			c-1.8-1.39-3.8-2.79-5.05-5.23c-0.67-1.32-2.88-3.51-5.76-3.3c-12.82,0.96-25.67,0.13-38.5,0.56c-5.27,0.17-5.37,0.03-5.73,5.38
			c-0.21,3.1-1.75,4.71-4.68,5.38c-2.75,0.62-4.49-1.27-6.49-2.45c-2-1.18-0.04-2.41,0.13-3.61c0.48-3.35-0.31-4.34-3.59-4.27
			c-3.92,0.09-7.83,0.26-11.74,0.31c-21.43,0.27-42.87,0.57-64.3,0.72c-2.75,0.02-4.01,0.74-3.9,3.65c0.11,2.77-1.8,4.24-4.25,4.54
			c-3.26,0.4-6.53-0.04-9.54-1.53c-1.23-0.61-2.56-1.2-0.47-2.7c1.24-0.9,1.63-2.69,0.92-4.15c-0.61-1.26-1.96-0.31-2.97-0.35
			c-1.41-0.06-2.83,0.05-4.24,0.09c-12.63,0.37-25.24-0.34-37.86-0.62c-1.52-0.03-2.37,0.37-3.46,1.61
			c-1.69,1.92-1.24,4.58-2.87,6.38c-0.72,0.79-1.61,2.25-2.25,0.34c-0.73-2.18-1.62-1.17-2.5-0.48c-3.51,2.75-6.87,5.69-10.46,8.32
			c-6.46,4.72-11.95,10.43-17.33,16.28c-1.8,1.96-2.95,4.24-3.67,6.82c-0.55,1.95-0.47,2.84,1.88,3.29
			c3.66,0.71,7.35,0.94,11.01,1.02c19.56,0.43,39.12-0.2,58.69,0.9c12.25,0.69,24.57,0.13,36.86,0.13c7.18,0.71,14.34,0.13,21.5,0
			c17.5-0.31,34.97-1.54,52.48-1.56c13.93-0.02,27.84,0.68,41.75,0.51c11.09-0.13,22.17,0.37,33.26,0.19
			c5.09-0.08,10.16,0.82,15.27-0.01c1.9-0.31,2.9-1.94,2.37-2.68C730.42,430.31,730.97,427.2,729.05,424.92z M696.71,423.13
			c-1.04,1.92-2.67,2.7-4.83,2.72c-6.2,0.04-12.4,0.2-18.6,0.21c-26.65,0.02-53.31,0.01-79.96,0.01c0,0.58,0,1.15,0,1.73
			c-31.66,0-63.32,0-94.98,0c-0.65,0-1.31,0.07-1.96,0.01c-1.99-0.18-4.76,0.54-5.38-1.9c-0.52-2.05,0.23-4.63,2.02-6.16
			c4.2-3.6,9.07-6.53,12.81-10.52c5.23-5.58,11.22-6.3,18.42-6.07c23.27,0.74,46.56,1.02,69.84,1.03
			c28.51,0.01,56.98,1.35,85.48,1.51c4.26,0.02,6.89,1.17,9.22,4.48c2,2.83,4.46,5.34,6.73,7.98
			C696.79,419.61,697.8,421.12,696.71,423.13z"/>
		<path d="M736.15,435.82c0.05-0.85,0.06-1.71,0.04-2.57c-0.11-4.11-2.09-8.1-4.6-11.27c-7.9-9.96-15.18-20.41-23.84-29.77
			c-0.82-0.89-0.65-1.65-0.58-2.64c0.51-6.62,0.91-13.23,0.66-19.89c-0.15-4.11-1.53-7.71-3.73-10.96c-2.2-3.26-5.97-6.02-9.39-5.58
			c-4.64,0.61-9.25,0.67-13.83,0.71c-7.56,0.06-15.05,0.77-22.29-3.66c-5.68-3.47-12.97-1.82-19.55-2.49
			c-3.29-0.34-6.47,0.37-8.98,2.29c-2.43,1.85-4.9,1.84-7.61,1.83c-17.41-0.09-34.82,0.47-52.24-0.4c-2.94-0.15-5.22-0.72-6.9-3.23
			c-0.89-1.34-2.42-1.7-3.92-2.13c-4.69-1.35-9.49-1.28-14.25-0.98c-3.1,0.2-3.8-0.78-3.77-3.77c0.3-36.25,0.47-72.5,0.68-108.75
			c0.23-38.54,0.49-77.07,0.63-115.61c0.01-2.8,0.65-4.11,3.62-3.49c2.81,0.58,4.58-0.76,6.29-2.93c4.08-5.18,2.88-10.52,0.56-15.7
			c-1.82-4.07-5.86-3.73-9.62-3.7c-72.61,0.69-145.22,1.34-217.82,1.99c-1.52,0.01-3.07,0.14-4.57-0.07
			c-5.43-0.75-5.68-0.88-7.4,4.1c-2.54,7.34-1.21,13.27,8.52,12.35c1.19-0.11,2.4,0.03,3.59-0.07c2.18-0.19,3.26,0.71,3.29,2.93
			c0.13,11.2,0.36,22.4,0.39,33.59c0.02,7.4-0.27,19.11-0.35,26.51c-0.01,1.29,0.15,2.93,1.91,2.86c1.88-0.07,1.49-1.75,1.54-3.02
			c0.53-16.32,0.68-36.96,0.4-53.28c-0.05-3.15,0.09-6.31-0.01-9.46c-0.07-2.21-0.88-3.59-3.6-3.47c-2.36,0.1-4.77-0.39-7.16-0.11
			c-1.13,0.13-1.94-0.03-2.05-1.37c-0.69-8.25-4.02-7.86,5.9-7.95c72.61-0.71,145.21-1.38,217.82-2.06
			c4.74-0.04,5.97,0.94,7.39,5.86c1.44,4.99-1.04,8.3-6.13,8.95c-5.27,0.67-7.67,1.68-6.17,6.95c0.26,0.91,0.05,1.95,0.05,2.93
			c-0.43,73.05-0.9,146.09-1.2,219.14c-0.02,4.79-0.27,8.29-5.84,9.94c-4.08,1.21-3.99,1.82-4.05-2.6
			c-0.39-30.37-0.74-60.74-1.21-91.11c-0.4-26.02,0.21-52.03,0.37-78.04c0.04-7.28-0.98-14.53-0.63-21.84
			c0.66-13.59,0.81-27.19,0.41-40.79c-0.21-6.97-0.24-6.91-7.33-6.77c-17.3,0.34-34.6,0.79-51.9,0.89
			c-30.37,0.18-60.74,0.4-91.1-0.46c-10-0.28-20.03,0.12-30-0.97c-4.88-0.53-5.35-0.13-5.35,4.84c0.02,15.35,0.01,30.7-0.09,46.05
			c-0.02,2.35-0.24,4.57,0.39,6.98c0.54,2.07,1.37,4.42,0.63,6.72c-1.08,3.33-6,5.23-9.56,3.04c-1.06-0.65-2.36-1.06-3.13,0.35
			c-0.8,1.49,0.19,2.4,1.39,3.17c3.66,2.33,7.6,1.79,10.85-0.16c3.15-1.89,5.29-5.09,4.13-9.33c-0.2-0.73-0.28-1.5-0.4-2.25
			c-0.33-2.09,0.55-2.8,2.58-2.29c7.8,1.95,15.68,3.63,23.38,5.9c3.77,1.11,7.89,1.86,10.81,5.02c1.52,1.64,1.87,2.85-0.28,4.44
			c-8.46,6.26-18.12,9.92-28.1,12.61c-11.16,3.01-22.7,3.83-34.2,4.65c-29.79,2.13-59.57,2.44-89.34-0.29
			c-20.48-1.87-40.61-4.89-58.36-16.49c-3.3-2.15-3.67-4.29-0.37-6.36c3.5-2.2,7.18-4.14,11.29-4.99c15.46-3.19,31-5.86,46.73-7.28
			c3.73-0.34,7.53-2.12,9.74,3.58c1.3,3.37,5.75,4.6,9.5,5.71c7.72,2.28,15.73,2.86,23.6,4.13c13.67,2.2,26.87-0.36,39.64-5.3
			c3.24-1.25,6.89-3.21,7.69-6.56c0.71-2.99,1.98-2.27,3.65-2.09c0.64,0.07,1.27,0.28,1.9,0.44c1.45,0.37,2.7,0.06,3.18-1.45
			c0.49-1.54-0.48-2.59-1.79-3.02c-1.64-0.53-3.43-1.16-5.08-1c-5.73,0.58-8.65-3.05-11.43-7.07c-0.68-0.98-1.31-2.04-2.16-2.85
			c-3.7-3.52-4.82-7.86-4.26-12.78c0.09-0.76,0.12-1.52,0.12-2.28c0-2.63-1.26-4.29-3.83-4.96c-2.44-0.64-4.9-0.95-7.42-0.96
			c-9.89-0.03-19.82-0.75-29.66,0.61c-5.51,0.76-6.77,2.33-6.82,8.04c-0.03,3.24-0.89,6-2.85,8.45c-3.2,3.99-6.47,7.93-9.72,11.87
			c-0.69,0.84-1.33,1.48-2.72,1.28c-3.8-0.55-7.59,0.07-11.36,0.61c-11.95,1.7-23.9,3.44-35.86,5.05c-6.72,0.91-13.24,2.54-19.55,5
			c-4.63,1.8-8.11,5.16-11.03,8.94c-2.01,2.6,0.1,5.67,0.29,8.54c0.03,0.43,0.08,0.87,0.08,1.3c-0.16,25.04,1.76,50.05,1.66,75.07
			c-0.13,32.54-1.2,65.07-1.52,97.61c-0.43,43.21-0.52,86.43-0.76,129.65c-0.01,1.3,0.05,2.6-0.56,3.83
			c-2.76,5.52-1.6,10.45,2.08,15.16c7.54,9.66,17.44,16.53,27.23,23.57c4.23,3.04,9.22,4.34,13.88,6.4
			c11.24,4.99,23.13,7.62,35.21,9.22c9.59,1.27,19.31,1.44,28.93,2.52c15.33,1.73,30.7,1.69,45.94,0.07
			c15.45-1.64,30.59-5.31,45.36-10.35c7.34-2.5,14.51-5.33,21.06-9.5c7.36-4.67,12.72-10.6,11.9-20.16
			c-0.23-2.71-0.16-5.44-0.41-8.15c-2.05-22.12-2.49-44.35-2.93-66.51c-0.61-30.68,0.61-61.39,0.76-92.08
			c0.19-37.77-1.25-75.54-0.95-113.31c0.04-4.77-0.16-9.56,0.21-14.31c0.49-6.41,1.55-12.93,0.66-19.2
			c-0.84-5.89,0.68-12.02-2.64-17.84c-2.39-4.18-5.11-7.04-9.47-8.73c-10.19-3.95-20.94-5.76-31.51-8.27
			c-2.19-0.52-2.75-1.3-2.73-3.4c0.11-12.74,0.14-25.47,0.07-38.21c-0.01-2.43,0.72-3.24,3.19-3.12c5.54,0.27,11.17,0.88,16.63,0.25
			c12.58-1.46,25.2-1.49,37.8-1.55c36.46-0.16,72.92-0.1,109.37-0.14c1.69,0,3.27,0.16,4.82-1.26c1.08-1,3.21-1.34,4.64-0.49
			c1.12,0.66-0.16,2.15,0.04,3.31c0.18,1.06,0.05,2.17,0.06,3.26c0.23,41.25,1.85,82.48,0.84,123.75
			c-0.37,15.33-0.42,30.7,0.42,46.03c1.03,18.74-2.15,37.35-1.44,56.08c0.09,2.49-0.3,4.99-0.42,7.49
			c-0.06,1.23-0.24,2.19-1.85,1.85c-6.08-1.27-12.13-0.43-18.17,0.34c-3.82,0.49-6.6,2.31-8.27,5.98c-1.81,4-2.03,8.16-2.18,12.42
			c-0.25,6.92,0.79,13.86-0.29,20.78c-0.18,1.18-0.58,2-1.57,2.67c-11.13,7.52-20.97,16.53-30.33,26.12
			c-2.03,2.08-3.61,4.4-4.39,7.15c-1.15,4.08-1.94,8.2-1.89,12.52c0.12,10.23,0.27,20.48-0.16,30.69
			c-0.19,4.53,0.74,8.95,0.44,13.45c-0.09,1.29,0.86,2.18,1.96,2.8c3.45,1.93,7.16,3.11,11.03,3.81c10.44,1.9,21.02,1.66,31.54,1.61
			c21.33-0.1,42.65-1.08,63.99-0.99c2.56,0.01,3.27,0.68,3.28,3.27c0.02,11.97-0.53,23.96,0.57,35.9
			c0.92,9.96,1.08,19.95,1.88,29.92c1.11,13.77,0.87,27.62,0.83,41.45c0,1.73,0.33,3.45,0.51,5.18c1.09,0,2.18,0,3.27,0
			c-0.26-15.45,0.02-30.93-0.94-46.34c-0.78-12.47-1.57-24.94-2.28-37.42c-0.55-9.55-0.14-19.15-0.28-28.73
			c-0.03-2.33,0.56-3.23,3.1-3.22c17.85,0.1,35.71,0.08,53.56-0.02c2.27-0.01,2.86,0.77,3.17,2.92c1.32,8.99,0.28,18.06,1.08,27.06
			c2.45,27.55,1.44,55.24,3.35,82.81c0.07,0.97,0,1.96-0.01,2.94c2.61,0,5.23,0,7.84,0c-1.21-8.52-1.38-17.12-1.91-25.69
			c-1.29-20.85-2.38-41.71-2.05-62.62c0.13-8.16-0.09-16.33-0.14-24.49c-0.01-1.38-0.28-3.04,2.02-2.78
			c3.62,0.42,7.13,0.12,10.79-0.41c5.32-0.77,10.85-0.17,16.29-0.03c13.44,0.34,26.91,0.35,40.32-0.83
			c3.91-0.34,7.81-0.79,11.69-1.35c2.47-0.36,4.97-0.58,7.38-1.23c2.82-0.76,5.74-2,6.71-5.04c0.22-0.69,0.32-1.4,0.41-2.11
			c0.38-2.76,0.69-5.5,0.91-8.28c0.26-3.24,0.58-6.48,0.94-9.71c0.58-5.33,1.24-10.66,1.77-15.99
			C735.15,443.49,735.94,439.67,736.15,435.82z M298.99,138.76c0.24,1.36,0.01,2.86-1.73,3.41c-3.14,0.99-6.39,1.16-9.64,1.31
			c-2.06,0.09-4.12,0.02-5.52,0.02c-6.34,0.51-11.92-0.02-17.35-1.83c-0.71-0.24-1.46-0.43-2.12-0.78
			c-0.53-0.28-1.29-0.65-0.96-1.44c0.32-0.76,1.1-0.52,1.71-0.4c4.93,0.98,9.93,0.78,14.91,0.88c6.09,0.12,12.12-0.5,18.1-1.67
			C297.24,138.1,298.66,136.89,298.99,138.76z M264.03,129.79c5.05-1.03,10.18-0.25,14.16-0.63c6.42-0.16,11.73-0.14,17.03,0.41
			c1.22,0.13,2.95-0.23,3.14,1.54c0.21,1.92-1.63,2.11-2.92,2.41c-4.45,1.04-9,1.53-13.55,1.5c-5.95-0.04-11.93,0.49-17.85-0.65
			c-1.49-0.29-2.75-0.54-2.73-2.48C261.33,129.93,262.84,130.03,264.03,129.79z M245.82,159.36c3.27-3.49,6.55-6.98,9.03-11.12
			c0.16-0.27,0.49-0.69,0.68-0.66c3.01,0.56,5.44-2.11,8.66-1.18c12.11,3.48,24.26,2.91,36.32-0.4c1.22-0.34,1.78,0.03,2.44,0.86
			c2.85,3.56,5.74,7.09,8.61,10.63c0.2,0.25,0.36,0.55,0.46,0.86c0.48,1.41,3.18,1.52,2.64,2.9c-0.73,1.89-2.86,2.94-4.79,3.68
			c-9,3.48-18.36,5.2-27.99,5.44c-9.9,0.31-19.12-2.7-28.33-5.64c-2.58-0.82-4.65-2.82-7.33-3.51
			C244.92,160.88,245.07,160.15,245.82,159.36z M384.49,205.88c-0.09,4.24-0.62,8.46-0.81,12.7c-0.08,1.76-0.77,1.86-2.26,1.56
			c-2.88-0.57-4.78-2.39-6.59-4.49c-2.27-2.62-4.13-2.21-5.53,0.99c-2.71,6.2-7.33,9.22-14.19,10.31c-4.27,0.68-6.19-1.08-7.81-3.8
			c-3.15-5.27-8.67-5.93-13.63-7.73c-1.68-0.61-2.54,0.76-3.4,1.91c-7.06,9.54-14.78,18.55-22.29,27.72
			c-1.65,2.01-3.47,3.87-5.1,5.9c-0.66,0.82-1.24,1.92-0.37,2.99c0.89,1.1,1.92,0.78,2.88,0.08c0.9-0.66,1.87-0.32,2.83-0.29
			c2.92,0.11,5.84,0.49,8.74-0.43c2.46-0.78,3.35,0.11,3.29,2.83c-0.17,6.96,0.19,13.93-0.01,20.89
			c-0.38,13.5,0.42,26.98,0.76,40.45c0.96,38.21-0.3,76.39-1.03,114.57c-0.39,20.55-0.73,41.12-1.47,61.67
			c-0.13,3.51,0.43,7.11,0.59,10.68c0.07,1.55,1.06,2.17,2.63,2.27c6.3,0.43,12.56,0.6,18.79-0.74c2.54-0.55,4.89-1.66,7.18-2.85
			c1.7-0.88,3.45-2.03,5.3-2.74c1.83-0.7,3.72-0.65,4.84-2.49c0.76-1.25,1.14-2.81,1.16-4.27c0.05-4.12-0.49-8.33-0.66-12.45
			c-0.38-9.13-0.55-18.26-0.66-27.4c-0.1-8.22-0.14-16.45-0.22-24.67c-0.19-19.16-0.13-38.35-1.57-57.43
			c-1.28-17.04-1.15-34.13-2.88-51.14c-1.72-16.93-0.31-33.92,0.03-50.88c0.1-4.89,0.32-9.79,0.38-14.68
			c0.02-1.49,0.27-2.24,2.01-2.59c3.12-0.63,6.26-0.69,9.39-1.02c1.3-0.13,2.61-0.2,3.89-0.42c1.43-0.25,2.8-0.74,3.22-2.36
			c0.42-1.63-0.05-3.04-1.42-4.04c-4.04-2.96-7.23-6.92-11.49-9.64c-1.5-0.96-2.93-2.23-3.86-4.32c8.15-0.59,13.49-4.95,17.54-11.85
			c2.56,3.03,5.68,4.78,9.47,5.19c1.01,0.11,1.55,0.71,1.57,1.74c0.01,0.44,0.03,0.87,0.03,1.31c-0.33,43.43,1.75,86.86,0.78,130.29
			c-0.52,23.29-0.86,46.6-0.65,69.87c0.22,24.89,1,49.82,3.17,74.66c0.25,2.92,0.36,5.89,0.16,8.8c-0.41,5.81-4.73,8.84-9.08,11.56
			c-8.94,5.6-18.97,8.51-28.97,11.59c-10.01,3.08-20.26,5.07-30.52,6.66c-12.91,2.01-26.09,2.31-39.08,1.07
			c-11.31-1.08-22.64-2.42-33.85-4.51c-3.39-0.63-6.97-0.18-10.4-0.68c-11.17-1.61-21.8-4.85-31.58-10.72
			c-3.25-1.95-6.81-3.39-10.25-5.02c-7.54-3.58-13.78-8.89-18.65-15.51c-3.72-5.05-5.56-10.72-5.56-17.53
			c-0.02-47.14,0.79-94.27,0.96-141.41c0.1-29.06,1.58-58.1,1.52-87.16c-0.02-9.79-0.53-19.58-0.93-29.37
			c-0.09-2.34,0.1-3.13,2.96-2.62c9.84,1.76,19.28,0.21,27.92-4.98c1.98-1.19,3.41-1.23,5.29,0.16c2.8,2.05,5.71,4.03,8.8,5.59
			c10.92,5.55,21.81,4.91,32.41-0.88c2.68-1.46,4.78-1.57,7.51-0.12c5.93,3.15,11.89,6.28,18.54,7.85
			c9.79,2.31,18.75,1.06,26.67-5.53c1-0.83,2.21-1.39,3.29-2.11c2.93-1.96,5.56-1.92,7.96,0.96c0.59,0.71,1.56,1.16,2.43,1.57
			c0.8,0.37,1.47-0.05,1.93-0.76c0.43-0.66,0.22-1.31-0.24-1.8c-2.09-2.23-4.5-4.09-7.15-5.59c-0.9-0.51-1.86,0.09-2.76,0.54
			c-3.4,1.71-6.55,3.77-9.68,5.97c-6.29,4.42-13.46,5.18-20.92,3.51c-6.98-1.56-13.23-4.92-19.43-8.25
			c-3.12-1.68-5.83-1.65-8.57,0.07c-6.58,4.12-13.69,5.12-21.3,4.5c-3.99-0.32-7.29-2.04-10.56-3.96c-2.81-1.65-5.45-3.58-8.19-5.34
			c-2.48-1.59-4.84-1.28-7.32,0.25c-8.55,5.28-17.8,6.54-27.59,4.61c-1.61-0.32-2.14-0.96-2.16-2.57
			c-0.15-11.21-0.86-22.41-0.52-33.62c0.03-0.92-0.71-3.33,1.77-1.77c12.71,7.98,26.86,11.61,41.47,13.75
			c25.04,3.66,50.26,4.45,75.51,3.84c17.72-0.43,35.43-1.33,53.01-3.77c13.81-1.92,26.88-6.16,38.96-13.21
			c1.72-1,2.37-0.69,2.9,1.26C385.48,193.28,384.62,199.59,384.49,205.88z M348.89,303.22c0.69,22.27,2.11,44.52,3.36,66.77
			c1.66,29.45,1.45,58.96,2,88.45c0.22,11.42,0.05,22.86,1.14,34.25c0.21,2.23-0.35,3.31-2.55,4.04c-2.45,0.81-4.76,2.11-7.06,3.34
			c-6.41,3.46-13.31,3.59-20.31,3.26c-1.88-0.09-2.13-1.15-2.26-2.81c-1.86-22.89-0.17-45.74,0.33-68.61
			c0.76-34.92,1.52-69.86,1.23-104.79c-0.13-16.2-0.79-32.38-0.91-48.58c-0.04-5.53-0.53-11.1-0.28-16.62
			c0.16-3.49,0.53-6.97,0.59-10.48c0.04-2.15-1.26-2.32-2.71-2.31c-3.34,0.02-6.68,0.1-10.5-0.73c1.64-2.16,2.97-4.12,4.52-5.89
			c5.8-6.64,11.78-13.12,16.77-20.42c1.37-2,2.64-2,4.55-0.64c7.79,5.58,14.72,12.14,21.75,18.59c2.38,2.18,5.46,3.64,7.14,6.88
			c-3.21,1.54-6.75,0.29-10.06,1.02c-1.38,0.3-2.74,0.56-4.06,1.09c-1.4,0.55-2.03,1.4-1.99,2.95
			C350.01,269.07,348.36,286.14,348.89,303.22z M668.23,357.5c7.28,0.01,14.57-0.29,21.83,0c6.67,0.26,12.12,4.69,12.85,12.63
			c0.49,5.29,0.3,10.63,0.45,15.95c0.04,1.35-0.43,1.66-1.83,1.89c-8.3,1.4-16.67,0.81-25,0.93c-7.17,0-14.33,0.01-21.5-0.02
			c-0.79,0-1.94,0.39-2.19-0.79c-0.27-1.24,0.86-1.93,1.74-1.97c6.05-0.25,6.45-4.92,7.45-9.21c1.37-5.92,3.19-11.74,3.97-17.78
			C666.17,357.68,666.99,357.5,668.23,357.5z M649.43,392.45c0,0-0.01,0-0.01,0c0,1.19-0.03,2.39,0.01,3.58
			c0.05,1.81,0.19,3.39-2.56,3.32c-2.58-0.07-2.97-1.11-2.85-3.39c0.13-2.47-0.27-4.98-0.49-7.46c-0.24-2.69,1.67-2.19,3.25-2.28
			c1.68-0.09,3.07-0.05,2.69,2.33C649.26,389.82,649.43,391.14,649.43,392.45z M639.48,382.8c-0.85,0.13-2.02-0.06-2.26-0.9
			c-1.86-6.76-5.09-13.17-5.39-20.34c-0.02-0.58,0.15-1.17,0.82-1.13c0.49,0.03,1.18,0.26,1.39,0.63c0.69,1.21,1.37,2.47,1.75,3.8
			c1.43,5,2.74,10.02,4.08,15.04c0.11,0.42,0.16,0.85,0.23,1.2C639.96,381.77,640.41,382.66,639.48,382.8z M636.81,363.46
			c-0.18-0.7-0.9-1.41-0.23-2.09c0.64-0.65,1.43-0.03,2.14,0.1c2.63,0.49,4.03,1.75,4.17,4.75c0.24,5.1,1.45,10.09,2.52,14.8
			c0.14,1.78-0.48,2.51-2.06,2.39c-1.29-0.1-1.68-0.37-2-1.99C640.14,375.37,638.38,369.44,636.81,363.46z M649.28,383.71
			c-2.17,0.33-2.17-1.08-2.5-2.74c-1.11-5.65-2.3-11.28-2.8-17.01c-0.08-0.95-1.68-3,0.88-2.78c1.62,0.14,4.55-1.18,4.63,2.41
			c0.12,5.75,0.3,11.49,0.47,17.24c0.01,0.39,0.09,0.78,0.2,1.68c1.75-1.76,1.38-3.34,1.15-4.78c-0.73-4.54-0.25-9.11-0.43-13.66
			c-0.07-1.79,0.54-2.56,2.43-2.49c2.14,0.08,1.75,1.47,1.65,2.74c-0.42,5.41-0.95,10.81-1.28,16.23
			C653.5,383.58,651.26,383.41,649.28,383.71z M657.67,379.11c0.16,1.21-0.54,2.3-1.81,2.23c-1.33-0.08-0.73-1.36-0.68-2.1
			c0.37-5.2,0.87-10.38,1.21-15.58c0.12-1.85,0.91-2.71,2.72-2.96c1.3-0.17,1.94,0.01,1.46,1.63c-0.21,3.75-1.15,7.55-2.01,11.36
			C658.16,375.48,657.42,377.18,657.67,379.11z M634.42,351.28c2.39-0.74,4.88-1.1,6.81-0.88c6.88-0.05,12.88,1.49,18.81,3.3
			c0.94,0.29,2.61,0.54,2.38,1.77c-0.24,1.23-1.06,2.51-2.77,2.83c-5.17,0.97-10.28,1.45-15.53,0.32c-3.06-0.66-6.31-0.46-9.38-1.09
			c-2.06-0.42-5.16-0.48-5.16-3.42C629.57,351.33,632.61,351.84,634.42,351.28z M567.71,355.74c0.34-2.14,1.92-1.42,3.03-1.42
			c12.62,0,25.25,0.09,37.87,0.14c4.46,0.02,8.95,0.21,13.38-0.14c3.33-0.27,4.52,1.23,4.88,4.09c0.66,5.3,1.46,10.63,3.29,15.61
			c1.73,4.72,3.59,9.7,9.16,11.63c0.93,0.32,2.5,0.32,2,2.29c-0.43,1.7-1.61,1.49-2.76,1.54c-20.77,0.84-41.56,1.16-62.34,1.15
			c-5.89,0-11.9,0.21-17.91-1.24c6.51-1.09,4.51-6.64,5.34-10.23C565.44,371.45,566.46,363.57,567.71,355.74z M563.38,360.66
			c-0.42,6.14-2.54,12.04-2.53,18.26c0,1.29-1.36,1.76-2.39,1.82c-1.59,0.09-0.42-1.34-1.12-1.96c1.91-5.73,1.06-11.67,1.78-17.47
			c0.05-0.43,0.1-0.86,0.2-1.29c0.44-1.93,2.15-1.77,3.41-1.68C564.33,358.43,563.44,359.84,563.38,360.66z M547.73,388.06
			c0.24-0.17,0.32-0.27,0.41-0.27c2.11-0.06,5.2-1.53,6.11-0.13c1.53,2.34,0.43,5.66,0.39,8.55c-0.02,1.41-1.73,1.75-3.08,1.78
			c-1.42,0.04-3.36,0.1-3.55-1.46C547.84,395.11,548.27,389.3,547.73,388.06z M553.1,382.78c-3.58,0.08-7.18,0.01-10.64-1.04
			c-1.87-0.57-3.19-1.6-3.83-3.85c-1.89-6.56-2.9-13.35-5.41-19.98c3.12-0.12,4.83,0.84,5.8,3.94c1.68,5.36,2.01,11.1,4.4,16.24
			c0.31-0.03,0.61-0.06,0.92-0.1c-0.76-3.42-1.48-6.84-2.29-10.24c-0.45-1.9-1.19-3.75-1.53-5.66c-0.17-0.97-1.95-2.72,0.53-2.97
			c1.69-0.17,4.21-1.09,4.72,1.92c0.27,1.6,0.38,3.25,0.36,4.87c-0.04,4.73,1.28,9.22,2.29,13.91c1.55-0.55,1.22-1.79,0.92-2.66
			c-1.64-4.82-1.78-9.82-1.94-14.82c-0.04-1.1-1.12-2.68,1.24-2.91c2.12-0.21,2.74,0.66,3.01,2.7c0.55,4.12,0.79,8.21,0.54,12.36
			c-0.09,1.43-0.5,3,0.97,5.1c0.58-5.22,0.71-9.72,0.32-14.24c-0.08-0.97-0.38-1.93-0.43-2.9c-0.05-1.01-0.71-2.4,0.64-2.88
			c1.07-0.39,2.49-0.56,3.49-0.16c1.24,0.5,0.46,1.93,0.42,2.94c-0.23,5.75-0.6,11.49-1.35,17.2
			C555.97,381.7,555.13,382.74,553.1,382.78z M531.92,351.57c1.15-1.57,3.05-2.06,4.84-2.49c7.8-1.84,15.49-0.58,23.15,0.96
			c1.09,0.22,2.32,0.57,2.91,1.86c0.8,1.71,1.22,3.03-1.43,3.37c-2.9,0.37-5.71,1.43-8.72,0.99c-6.78-0.4-13.48-1.72-20.29-2.05
			C530.36,354.11,531.33,352.37,531.92,351.57z M501.03,357.99c4.84-2.25,10.25-2.84,15.65-1.77c0.96,0.19,1.93,0.75,2.77,0.82
			c1.6,0.13,4.08,0.29,6.13-0.04c1.6-0.26,2.38-0.04,2.66,1.53c0.27,1.53,0.58,2.89,2.3,3.61c0.59,0.25,0.91,1.42,1.11,2.24
			c0.86,3.47,1.68,6.96,2.43,10.46c1.16,5.38,4.4,9.1,9.11,11.7c0.7,0.38,2.01,0.37,1.6,1.58c-0.31,0.92-1.45,0.8-2.31,0.81
			c-7.72,0.02-15.44,0.01-23.56,0.01c-6.99-0.76-14.37-0.22-21.76-0.07c-2.29,0.05-3.21-0.62-3.12-3.19
			c0.21-5.86,0.02-11.74-0.02-17.61C494,363.06,497.11,359.81,501.03,357.99z M732.05,440.52c-0.76,6.67-1.66,13.32-2.39,19.99
			c-0.37,3.37-0.69,6.74-0.93,10.12c-0.12,1.69-0.2,3.39-0.29,5.08c-0.09,1.71,0.03,3.68-0.83,5.27c-1.13,2.07-3.11,2.15-5.22,2.31
			c-2.36,0.18-4.74,0.18-7.09,0.54c-1.72,0.26-3.44,0.55-5.16,0.75c-1.61,0.18-3.32-0.02-4.9,0.2c-4.03,0.56-7.7-0.33-11.4-0.23
			c-30.55,0.84-61.12,0.85-91.66,2.27c-16.64,0.78-33.29-0.26-49.93-0.36c-13.6-0.08-27.18,0.77-40.77,1.05
			c-15.52,0.31-31.08-0.58-46.61-1.23c-6.05-0.25-8.78-4.27-9.14-11.02c-0.61-11.53,0.02-23.05-0.34-34.57
			c-0.1-3.17,0.92-3.6,3.79-2.91c3.8,0.91,7.75,0.96,11.68,0.98c16.21,0.08,32.45-0.35,48.63,0.44c15.53,0.75,31.06,1.36,46.59,1.27
			c16.73-0.09,33.44-1.36,50.17-1.78c15.76-0.4,31.55-0.94,47.29-0.38c13.93,0.5,27.83,0.09,41.75,0.44
			c4.24,0.11,8.47-0.02,12.71,0.38c3.88,0.37,7.81,0.55,11.71-0.26C730.76,438.63,732.34,437.98,732.05,440.52z M729.76,435.38
			c-5.12,0.83-10.19-0.07-15.27,0.01c-11.09,0.18-22.16-0.32-33.26-0.19c-13.91,0.17-27.83-0.53-41.75-0.51
			c-17.51,0.02-34.98,1.25-52.48,1.56c-7.15,0.13-14.32,0.7-21.5,0c-12.29,0-24.61,0.56-36.86-0.13
			c-19.57-1.09-39.13-0.47-58.69-0.9c-3.66-0.08-7.35-0.31-11.01-1.02c-2.35-0.46-2.43-1.34-1.88-3.29
			c0.73-2.58,1.88-4.86,3.67-6.82c5.38-5.85,10.88-11.56,17.33-16.28c2.57-1.88,5.05-3.87,7.51-5.9c1.46-1.2,2.73-2.61,4.2-3.79
			c1.42-1.14,3.34-1.52,4.67-2.7c1.69-1.5,2.51-3.84,5.16-3.78c12.62,0.28,25.23,0.99,37.86,0.62c1.41-0.04,2.83-0.15,4.24-0.09
			c1.01,0.04,2.36-0.91,2.97,0.35c0.71,1.46,0.32,3.25-0.92,4.15c-2.09,1.51-0.76,2.1,0.47,2.7c3.01,1.48,6.28,1.93,9.54,1.53
			c2.45-0.3,4.35-1.77,4.25-4.54c-0.11-2.91,1.14-3.63,3.9-3.65c21.43-0.16,42.87-0.45,64.3-0.72c3.92-0.05,7.83-0.22,11.74-0.31
			c3.28-0.08,4.07,0.91,3.59,4.27c-0.17,1.19-2.14,2.43-0.13,3.61c2,1.18,3.74,3.07,6.49,2.45c2.93-0.66,4.47-2.27,4.68-5.38
			c0.36-5.36,0.45-5.21,5.73-5.38c12.83-0.42,25.69,0.4,38.5-0.56c2.88-0.22,5.09,1.98,5.76,3.3c1.24,2.44,3.25,3.85,5.05,5.23
			c5.99,4.61,9.53,11.25,14.5,16.68c2.55,2.79,4.48,6.14,6.93,9.04c1.92,2.28,1.37,5.39,3.08,7.78
			C732.66,433.45,731.66,435.07,729.76,435.38z"/>
		<path d="M688.79,410.17c-2.33-3.3-4.96-4.45-9.22-4.48c-28.5-0.16-56.97-1.5-85.48-1.51c-23.28-0.01-46.57-0.29-69.84-1.03
			c-7.21-0.23-13.19,0.49-18.42,6.07c-3.75,4-8.61,6.93-12.81,10.52c-1.78,1.53-2.54,4.11-2.02,6.16c0.63,2.45,3.39,1.72,5.38,1.9
			c0.65,0.06,1.3-0.01,1.96-0.01c31.66,0,61.78-1.44,93.44-1.44c0-0.58,1.54,0.29,1.54-0.29c26.65,0,53.31,0.01,79.96-0.01
			c6.2-0.01,12.4-0.17,18.6-0.21c2.16-0.01,3.79-0.8,4.83-2.72c1.09-2.01,0.07-3.52-1.19-4.99
			C693.25,415.51,690.79,413,688.79,410.17z M680.99,413.94c-0.35,2.58-0.61,5.2-0.62,7.8c-0.01,1.57-0.65,1.87-1.94,1.78
			c-0.43-0.03-0.87,0-1.31,0c-59.32,0.64-118.64,1.27-177.96,1.91c-0.87,0.01-1.75,0.05-2.61-0.02c-2.28-0.18-3.06-1.81-1.81-3.75
			c0.17-0.27,0.4-0.53,0.65-0.73c4.95-3.85,9.9-7.68,15.58-12.08c0,4.1-0.03,7.25,0.02,10.39c0.02,0.97,0.22,4.78,0.43,5.73
			c0.17,0.76,0.51,1.54,1.49,1.39c1.02-0.16,0.94-1,0.91-1.78c-0.09-3.37-0.08-9.58-0.28-12.94c-0.13-2.1,0.55-2.83,2.72-2.9
			c19.14-0.6,38.25-1.57,57.42-1.54c24.93,0.03,49.85,0.22,74.77,0.92c9.36,0.26,18.71,0.48,28.07,0.62
			C681.68,408.81,681.66,408.99,680.99,413.94z M692.79,422.92c-2.89,0.67-5.84,0.46-8.77,0.53c-0.97,0.02-1.34-0.49-1.21-1.45
			c0.55-4.05,0.47-8.18,1.66-12.81c3.37,3.97,6.48,7.53,9.46,11.19C694.99,421.69,694.3,422.57,692.79,422.92z"/>
	</g>
</g>
</svg>
