<?xml version="1.0" encoding="utf-8"?>
<!-- Generator: Adobe Illustrator 23.0.2, SVG Export Plug-In . SVG Version: 6.00 Build 0)  -->
<svg version="1.1" xmlns="http://www.w3.org/2000/svg" xmlns:xlink="http://www.w3.org/1999/xlink" x="0px" y="0px"
	 viewBox="0 0 841.89 595.28" style="enable-background:new 0 0 841.89 595.28;" xml:space="preserve">
<style type="text/css">
	.st0{fill:#ECC5BF;}
	.st1{fill:#F8E2D2;}
	.st2{fill:#CBF4FF;}
	.st3{fill:#FF3A5B;}
	.st4{fill:#E7BA9F;}
	.st5{fill:#422918;}
	.st6{fill:#E59C8B;}
	.st7{fill:#FFFFFF;}
	.st8{fill:#1D70B7;}
	.st9{fill:#FFDD4C;}
	.st10{fill:#007EFF;}
	.st11{fill:#97E6FC;}
	.st12{fill:#FFF88A;}
	.st13{fill:#FF6671;}
	.st14{fill:#D9D9D9;}
	.st15{fill:#50E3C2;}
	.st16{fill:#B1B1B1;}
	.st17{fill:#868686;}
	.st18{fill:#C89B83;}
	.st19{fill:#E3C9BB;}
	.st20{fill:#ECECEC;}
	.st21{fill:#FF8438;}
	.st22{fill:#DEB496;}
	.st23{fill:#EACEB3;}
	.st24{fill:#ECDCD2;}
	.st25{fill:#F5F5F5;}
	.st26{fill:url(#SVGID_1_);}
	.st27{fill:url(#SVGID_2_);}
	.st28{fill:#AE846C;}
	.st29{fill:#9E6D57;}
	.st30{fill:#C6C6C5;}
	.st31{fill:#F6ECE3;}
	.st32{fill:#E7BCA9;}
	.st33{fill:#F6D8C7;}
	.st34{fill:#F6E9DA;}
	.st35{fill:#1D1D1B;}
	.st36{fill:none;}
</style>
<g id="colour">
</g>
<g id="Layer_3">
	<g>
		<path class="st9" d="M321.5,324.6c0.69-20.7,1.38-41.39,2.07-62.09c0.04-1.19,0.1-2.43,0.72-3.44c0.78-1.26,2.26-1.88,3.66-2.35
			c5.7-1.91,11.76-2.72,17.76-2.38c4.58,0.26,11.24,1.81,15.56,0.26s5.81-7.52,3.37-11.41c7.02-0.51,14-1.66,20.82-3.44
			c2.13-0.55,4.4-1.28,5.71-3.05c1.13-1.53,1.3-3.53,1.44-5.43c1.62-22.83,2.99-45.67,4.09-68.53c-10.91,3.97-23.7,3.17-31.13-11.77
			c-0.57-1.15-0.67-2.85-0.58-4.13c0.13-1.76,2.95-3.48,4-4.9c6.35-8.59,12.79-17.27,20.99-24.13c8.2-6.86,20.81-12.68,31.5-12.5
			c5.4,0.09,11.09,1.72,14.12,6.19c2.32,3.43,0.35,8.74,0.49,12.88c0.94,27.45,3.71,53.98,1.24,81.33
			c-1.06,11.71-4.45,27.34,6.05,32.63c5.81,2.93,13.93,2.24,17.51,7.68c0.83,1.27,1.3,2.75,2.15,4c1.59,2.36,4.3,3.66,6.87,4.88
			c8.96,4.26,21.56,7.99,30.18,12.9c2.2,1.25,4.53,3.27,5.72,5.5c1.01,1.88,0.16,4.26,0.22,6.39c1.95,67.68-0.35,135.45-1.11,203.15
			c-49.09-0.37-98.63,3.6-147.67,2.36c-0.51-39.05,2.16-84.59,0.81-127.57c-0.08-2.46,2.09-6.36,0.88-8.5
			c-1.17-2.07-3.21-3.46-5.18-4.79c-11-7.4-22-14.81-33-22.21"/>
	</g>
	<g>
		<path class="st10" d="M358.1,352.1c-0.75,45.3-1.5,90.6-2.25,135.91c-42.64,0.49-85.06,2.8-127.71,3.29
			c-4.9,0.06-11.01,2.07-15.85,1.32c-5.72-0.88-7.52-6.18-11.01-8.37c-5.88-3.68-10.66-9.07-16.54-12.75
			c-4.07-2.54-8.28-5.23-10.78-9.33c-2.93-4.81-3.03-10.76-3.05-16.39c-0.09-36.21-0.18-72.41-0.27-108.62
			c10.33-4.56,23.04-1.13,34.16-3.07c12.25-2.13,16.86-12.86,28.18-21.58c12.04-9.27,19.66-22.03,29.33-33.75
			c4.8-5.82,9.76-11.96,11.31-19.35c1.55-7.39-1.58-16.35-8.73-18.77c-7.15-2.42-12.54,8.02-12.3,12.47
			c-4.27,2.52-8.8,5.11-13.76,5.16s-12.37-2.01-12.46-6.97c-0.05-2.43,4.07-9.35,5.28-11.45c9.52-16.42,26.02-26.38,44.8-23.65
			c16.52,2.4,28.18,17.6,28.74,32.46c0.56,14.86-10.46,30.29-19.08,42.4c-8.62,12.11-16.5,20.11-25.4,32.02
			c12.4-1.04,25.54-1.32,33.03-14.97c1.15-2.09,2.9-1.17,5.28-1.32c6.51-0.42,17.81,6.93,14.97,17.61c6.04-1.85,6.92-0.2,12.99,1.54
			"/>
	</g>
	<g>
		<g>
			<path d="M321.79,326.77c10.74,7.96,22.31,14.72,33.19,22.49c2.62,1.87,5.12-2.46,2.52-4.32c-10.88-7.77-22.45-14.53-33.19-22.49
				C321.72,320.54,319.23,324.87,321.79,326.77L321.79,326.77z"/>
		</g>
	</g>
	<g>
		<path class="st11" d="M356.06,487.12c0.69-45.26,3.3-90.49,2.99-135.75c-0.01-1.27,0.93-3.1,0-3.96c-0.85-0.78-5.55-0.58-6.7-0.46
			c-43.6,4.36-88.75,3.36-133.13,7.4c-0.75,0.07-1.53,0.18-2.15,0.6c-1.28,0.87-1.38,2.68-1.36,4.23
			c0.63,41.51-0.64,83.04-3.79,124.43c-0.14,1.88-0.23,3.98,0.99,5.42c1.29,1.53,3.54,1.72,5.54,1.79
			c45.75,1.44,91.65-7.02,137.17-2.23"/>
	</g>
	<g>
		<path class="st12" d="M357.53,486.44c0.88-67.75,0.54-131.17,4.49-198.81c0.14-2.47,2.21-7.69,3.3-9.91
			c17.07-0.15,36.53-1.88,53.6-2.03c10.22-0.09,20.44-0.18,30.65-0.48c17.81-0.53,35.6-1.73,53.32-3.59
			c3.12,67.53,4.45,134.25,0.33,203.65c-0.09,1.5,0.07,3.08-0.63,4.41c-1.57,2.98-5.76,6.06-9.13,6.11
			c-38.97,0.66-81.23-3.83-121.55,1.05c-4.25,0.51-8.79,1.02-12.63-0.88"/>
	</g>
	<path class="st12" d="M437.24,157.66c-0.25-12.33,1.88-26.74,0.96-40.9c-0.23-3.56-2.09-5.31-5.28-5.06
		c-3.74,0.29-8.22,0.55-11.89,1.32c-1.46,0.31-3.83,1-5.06,2.42c-10.27,11.86-23.29,25.96-33.91,37.43
		c-1.07,1.15-0.82,1.92,0.03,2.9c1.88,2.2,5.5,5.09,6.8,7.67c1.45,2.88,4.25-0.5,5.46-1.84c6.43-7.14,13.75-13.08,20.61-19.65
		c0.99-0.95,1.92-0.96,3.22-0.31c1.81,0.91-0.56,2.47-0.66,3.74c-1.1,14.32-1.17,27.57-1.65,41.92
		c-0.54,16.13-0.83,33.09-0.99,49.24c-0.02,2.09,0.48,3.63-0.44,5.5c-0.46,0.93-2.37,1.67-1.1,1.98c0.53,0.13-0.11,0.42-0.22,1.1
		c-0.15,0.89,2.75,0.67,2.13,0.7c-8.53,0.48-20.19,3.51-28.75,3.55c-1.7,0.01-2.33,0.59-2.26,2.55c0.12,3.17,0.16,6.35,0.03,9.51
		c-0.08,2.13,0.16,5.34,1.98,5.26c6.36-0.28,16.55-0.03,22.9-0.44c10.26-0.67,20.12-0.82,30.39-1.98c6.1-0.69,15.85-1.76,22.02-0.44
		c1.46,0.31,2.1-2.08,1.84-4.18c-0.45-3.53-0.81-7.08-0.97-10.64c-0.11-2.58-0.86-3.53-3.26-3.33c-5.39,0.43-13.76-0.08-19.16,0.12
		c-0.92,0.04-2.23,0.4-2.41-1.02c-0.22-1.75-0.93-3.29-1.17-5.05c-0.66-4.84,0.85-9.64,0.76-14.45
		C436.74,203.39,435.9,181.38,437.24,157.66z"/>
	<g>
		<path class="st3" d="M506.46,361.9c11.13,0.83,22.31,0.85,33.44,0.07c-4.35-4.03-8.88-8.32-10.66-13.97
			c-1.79-5.65,0.33-13.01,5.95-14.89c5.45-1.83,11.17,2.12,14.74,6.63c3.57,4.51,6.29,9.95,11.17,12.99
			c5.43,3.4,12.76,2.99,18.29-0.24s7.1-6.99,8.97-13.12c1.56-5.12,3.92-13.17,0.35-17.16c-3.5-3.91-9.35-4.54-14.6-4.39
			s-10.78,0.75-15.51-1.54c-4.72-2.29-7.76-8.94-4.35-12.92c2.44-2.84,6.68-2.95,10.37-3.59c11.07-1.92,20.5-11.15,22.65-22.18
			c0.4-2.04,0.56-4.19-0.05-6.18c-1.09-3.56-4.61-6.04-8.3-6.55c-3.68-0.51-7.45,0.7-10.61,2.66c-4.58,2.85-8.13,7.33-9.86,12.44
			c-0.57,1.68-1.19,3.69-2.89,4.19c-0.89,0.26-3.32,1.75-4.21,1.49c-5.51-1.57-9.13-3.83-14.53-5.72c-1.41-0.5-5.62-0.81-6.17-2.2
			c-0.61-1.57,0.37-5.22,1.32-6.61c6.95-10.15,10.36-21.33,29.06-26.2c11.9-3.1,24.44-5.26,34.34,2.04
			c8.93,6.58,15.16,18.81,14.54,29.89c-0.62,11.07-7.47,21.18-12.51,31.06c15.42,11.28,23.52,29.71,12.02,51.25
			c-0.67,1.26-1.39,2.8-0.68,4.04c0.34,0.59,0.94,0.97,1.52,1.33c11.22,6.83,23.44,11.52,35.77,15.92c1,0.36,2.52,0.17,3.19,0.99
			c0.51,0.62,4.16-0.13,4.29,0.66c2.66,15.69,0.47,32.21-0.26,48.11c-0.77,16.76,0.7,33.8,1.18,50.06
			c-7.24-1.22-14.62-1.08-21.96-0.94c-42.97,0.82-86.16,4.57-129.12,5.39c2.64-34.35,1.32-79.71,1.3-122.04"/>
	</g>
	<path class="st13" d="M568.15,318.02c3.12-1.23,5.9-0.8,8.63-1.07c9.99-0.96,17.47,4.11,21.41,13.91
		c5.43,13.52-4.66,30.9-19.43,30.06c-6.32-0.36-11.75-2.99-17.11-6.26c-4.14-2.52-6.49-6.75-9.21-10.65
		c-1.25-1.8-2.5-2.19-4.19-0.76c-1.75,1.48-3.49,2.98-5.34,4.3c-1.47,1.05-1.3,2.1-0.47,3.46c1.11,1.84,2.62,3.32,3.67,5.26
		c2.47,4.57,5.95,8.46,10.15,10.87c5.76,3.31,11.97,6.02,18.57,6.58c12.77,1.08,27.49-2.94,34.01-17.19
		c5.81-12.69,7.28-25.11-0.87-37.44c-2.81-4.26-6.67-6.81-10.83-8.97c-0.74-0.38-1.84,0.1-2.26-1.17c-0.45-1.38,0.51-2.02,1.19-2.78
		c1.59-1.81,3.59-3.16,4.81-5.38c5.53-10.06,8.61-20.66,6.04-32.47c-1.37-6.31-4.99-10.84-10.19-13.7
		c-4.65-2.55-9.87-2.83-14.9-2.59c-11.34,0.53-20.9,6.04-29.53,13.7c-1.6,1.42-2.62,3.31-3.74,5.17c-1.94,3.21-2.09,7.28-4.43,10.26
		c-0.54,0.69-0.2,1.08,0.45,1.27c2.93,0.86,5.8,2.01,8.85,2.39c0.95,0.12,1.4-0.02,1.83-1.13c4.55-11.69,12.33-18.81,24.27-19.75
		c3.54-0.28,7.19-0.06,10,2.54c7.29,6.74,8.18,18.94,1.89,26.78c-5.26,6.56-12.24,9.77-20.06,10.97c-1.05,0.16-2.25-0.29-2.2,1.74
		C569.24,309.84,569.3,313.74,568.15,318.02z"/>
	<g>
		<path class="st13" d="M505.22,485.5c1.2-33.22,2.07-66.46,2.63-99.7c8.23-2.08,16.82-2.2,25.31-2.3
			c26.13-0.33,52.26-0.65,78.39-0.98c12.22-0.15,24.44-0.31,36.66-0.46c1.5-0.02,3.26,0.08,4.12,1.32c0.52,0.74,0.55,1.7,0.57,2.6
			c0.69,31.01,1.38,62.02,2.08,93.03c-40.82,1.47-81.65,2.94-122.47,4.41c-8.51,0.31-17.13,0.63-25.28,3.1"/>
	</g>
	<path class="st11" d="M312.55,326.91c0.01,0,0.03,0,0.04,0c0-3.12-0.03-6.23,0.01-9.35c0.02-1.59-0.46-2.47-2.08-2.33
		c-1.1,0.09-2.22,0-3.33,0c-1.36,0.01-2.18,0.52-2.46,2.18c-0.72,4.36-3.36,6.97-7,8.62c-9.04,4.09-18.72,4.33-28.24,5.47
		c-4.12,0.49-8.29,0.49-12.44,0.68c-1.45,0.07-3.28,1.71-4.22,0.15c-1.04-1.72,1.36-2.17,2.07-3.33
		c5.05-8.35,11.9-15.03,17.83-22.57c6.95-8.85,14.59-17.04,20.7-26.68c3.16-4.99,5.76-10.38,7.34-16.08
		c1.53-5.51,2.07-11.26,1.49-16.95c-0.25-2.46-0.7-4.91-1.32-7.3c-0.49-1.87-1.21-3.67-1.78-5.52c-0.34-1.1-0.51-2.34-1.06-3.39
		c-0.67-1.29-1.9-1.82-3.12-2.48c-1.69-0.91-3.3-1.99-5.13-2.6c-1.97-0.65-4.02-0.99-6.07-1.33c-8.94-1.47-17.45,0.49-25.72,4.09
		c-10.71,4.66-17.05,13.6-20.7,25.14c-0.64,2.02-0.09,2.99,2.05,2.86c2.86-0.16,5.73-0.21,8.59-0.08c1.7,0.08,2.46-0.57,2.91-2.32
		c0.77-3.02,1.89-5.89,3.97-8.18c6.67-7.33,14.64-10.99,24.22-10.29c4.84,0.36,8.3,3.26,9.8,8.3c2.39,8.05,0.24,15.57-3.32,22.26
		c-5.56,10.43-12.65,19.82-20.06,28.77c-8.34,10.08-17.37,19.47-25.96,29.31c-2.85,3.27-5.82,6.46-8.2,10.2
		c-1.56,2.47-2.26,5.64-1.44,8c0.64,1.84,3.77,1.23,5.87,1.14c0.74-0.03,1.48-0.11,2.21-0.16c16.97-1.09,33.94-2.12,50.9-3.29
		c7.1-0.49,14.23-0.12,21.31-1.16c1.99-0.29,2.44-1.15,2.37-3.07C312.48,332.73,312.55,329.82,312.55,326.91z"/>
	<g id="podeum_3_">
		<g>
			<g>
				<path d="M171.43,465.21c-0.86-0.54-1.67-1.14-2.38-1.88c-2.34-2.41-1.61-5.48-2.06-8.58c-0.53-3.62-0.83-7.27-0.55-10.92
					c0.48-6.12,1.77-12.14,2.11-18.29c1.51-27.29,2.79-54.58,2.5-81.94c-0.01-0.5,0-1.01,0-1.51c0.08-7.59,0.62-7.98,7.34-8.28
					c10.7-0.49,21.39-1.29,32.08-1.96c1.05-0.07,1.97-0.37,2.7-1.29c8.5-10.67,19.14-18.9,28.11-29.04
					c7.75-8.76,15.9-17.16,22.49-27.01c4.48-6.71,7.69-14.15,7.45-22.85c-0.1-3.86-1.95-6.84-3.63-9.94
					c-0.42-0.78-1.05-0.92-1.91-0.59c-5.94,2.3-9.99,6.8-12.07,13.12c-0.88,2.68-1.96,4.11-4.55,4.15
					c-4.43,0.07-8.87,0.18-13.27,0.15c-2.34-0.02-4.69-2.28-6.99-3.62c-1.26-0.73,0.62-1.82-1.16-1.33c-1.66,0.46-1.13-1.45-1-2.21
					c1.07-6.27,0.85-17.5,14.32-26.15c5.95-3.82,11.59-7.99,18.31-9.81c12.29-3.34,24.11-2.49,34.52,6.23
					c3.72,3.12,6.65,7.28,8.59,12.01c4.84,11.8,5.28,23.56-0.17,35.41c-4.69,10.17-11.15,18.88-18.09,27.25
					c-6.37,7.67-12.69,15.41-18.99,23.15c-0.5,0.61-1.54,1.23-1.02,2.21c0.39,0.73,1.38,0.4,2.06,0.24
					c4.88-1.13,9.95-0.97,14.73-2.73c4.09-1.51,7.86-3.5,10.32-7.62c0.41-0.68,1-1.35,0.87-2.16c-0.51-3.16,1.32-2.93,3.31-3.07
					c5.76-0.41,10.86,2.15,16.06,4.12c2.09,0.79,3.17,2.95,3.33,5.42c0.11,1.7,0.09,3.41,0.13,5.11c0.03,1.19-0.23,2.54,1.58,2.39
					c1.32-0.11,2.58,0.02,2.67-2.09c0.29-6.62,0.87-13.23,0.98-19.85c0.08-5.23,0.27-10.43,0.7-15.64c0.6-7.3,0.93-14.63,1.34-21.94
					c0.09-1.69,0.07-3.34-0.49-5.03c-0.92-2.77-0.3-3.56,2.53-3.58c9.98-0.05,19.95-0.5,29.91-1.19c2.39-0.17,4.78-0.55,7.17-0.71
					c2.12-0.14,2.91-1.17,2.55-3.49c-0.36-2.28-0.23-4.59-0.03-6.9c0.24-2.73,1.26-3.83,3.75-3.24c4.73,1.13,9.35,0.2,13.99-0.58
					c0.82-0.14,1.63-0.35,2.44-0.57c1.78-0.49,4.2,0.52,5.26-1.06c0.88-1.31,0.46-3.65,0.61-5.54c1.05-13.51,2.54-26.98,3.24-40.53
					c0.41-7.91,1.32-15.8,1.98-23.7c0.06-0.77,0.01-1.55,0.01-2.83c-5.26,4.07-9.91,0.53-14.67-0.6c-1.63-0.39-3.25-1.01-4.89-0.73
					c-2.49,0.42-4.06-0.84-5.27-2.92c-1.98-3.37-4.03-6.69-6.41-9.74c-0.56-0.72-0.76-2.14-2.27-1.55
					c-1.36,0.54-1.79-0.75-1.98-1.83c-0.23-1.28,0.43-2.37,1.59-2.32c1.92,0.09,3.05-1.12,4.27-2.35
					c11.76-11.91,23.91-23.37,35.34-35.66c1.24-1.34,2.59-1.92,4.46-1.69c3.13,0.37,6.32,0.03,9.36-0.8
					c7.44-2.04,14.54-1.01,21.12,2.99c1.61,0.98,2.85,3.46,3.07,5.84c0.32,3.39,0.53,6.81,0.52,10.22
					c-0.04,13.16-0.27,26.33-0.26,39.49c0.01,5.82,0.79,11.65,0.6,17.45c-0.43,12.94-1.23,25.87-0.8,38.84
					c0.15,4.62,0.25,9.24,0.25,13.86c0,1.62,0.48,2.1,1.95,2.5c6.36,1.7,12.77,3.27,18.93,5.78c1.46,0.6,2.55,1.92,4.21,2.16
					c0.86,0.12,0.79,1.03,0.53,1.95c-1.28,4.41-0.93,4.94,3.06,6.64c9.95,4.24,19.88,8.55,29.81,12.85c2.39,1.04,4.52,2.64,6.9,3.77
					c1.72,0.81,2.24,3.2,2.3,5.41c0.57,19.49,0.31,38.98,0.14,58.47c-0.07,8.33,0.46,16.67,0.49,25.01c0.01,2.59,1.08,3.06,3,3
					c6.93-0.22,13.86-0.34,20.78-0.69c2.01-0.1,4.03,0.91,6.38-0.34c-3.76-2.63-5.64-6.77-8.22-10.3c-1.66-2.27-2.52-4.88-3.78-7.31
					c-0.62-1.19-0.18-2.11,0.46-3.03c2.69-3.91,5.99-7.08,9.87-9.55c1.56-0.99,3.08-0.25,4.14,0.68
					c5.89,5.19,13.07,8.73,17.28,16.05c0.56,0.97,1.28,1.66,2.45,1.7c0.85,0.03,1.75,0.39,2.21,1.13c2.95,4.75,7.61,4.05,11.79,4.06
					c3.84,0.01,6.87-2.53,9.47-5.59c5.44-6.4,6.48-13.93,5.03-22.15c-0.53-2.99-2.71-4.46-5.03-5.01c-3.43-0.81-7.19-2.19-10.49-0.7
					c-6.64,3-11.66-0.97-17.07-3.64c-2.17-1.07-4.57-1.62-3-5.61c0.99-2.53,0.51-5.74,0.65-8.65c0.11-2.22,1.1-3.15,3.19-3.18
					c9.4-0.15,17.76-3.51,24.81-10.25c4.22-4.04,5.72-9.56,5.35-15.53c-0.3-4.82-2.71-6.47-7.12-5.84
					c-10.29,1.49-16.52,8.2-20.02,18.32c-0.97,2.8-2.85,2.66-4.67,2.25c-4.05-0.92-8.02-2.24-12.05-3.25
					c-1.41-0.35-2.23-1.61-3.56-2.14c-2.16-0.86-4.21-1.91-6.5-2.47c-3.29-0.81-3.5-2.18-2.37-5.73c3.04-9.51,8.19-17.2,15.67-23.16
					c9.16-7.29,19.64-10.67,30.68-10.32c7.71,0.24,15.63,2,21.54,8.69c2.36,2.67,5.98,3.73,8.02,6.82
					c4.82,7.3,7.65,15.03,6.33,24.47c-1.37,9.77-3.55,18.88-10.15,26.1c-1.1,1.21-0.3,1.61,0.53,2.23
					c6.73,5.01,10.66,12.26,12.5,20.57c2.4,10.86,0.71,21.33-4.53,31.05c-1.63,3.02-1.47,3.25,1.6,4.26
					c13.33,4.42,25.81,12.77,39.38,16.29c1.04,0.27,2.49,0.6,2.01,2.21c-0.43,1.4-1.57,0.39-2.38,0.17
					c-13.54-3.64-26.09-11.75-39.36-16.36c-2.27-0.79-3.81-0.66-5.5,1.48c-4.46,5.67-10.93,7.24-17.17,8.99
					c-10.9,3.06-21.26,0.54-31.31-4.17c-5.91-2.77-11.44-6.35-16.82-10.17c-2.19-1.56-4.69-1.07-6.69-0.8
					c-7.66,1.05-15.33,0.15-22.97,0.76c-4.28,0.34-4.31,0.27-4.22,4.78c0.08,4.02,0.26,8.03,0.31,12.05
					c0.02,1.77,0.61,2.41,2.31,2.4c22.37-0.04,44.73-0.22,67.09-0.9c7.01-0.21,14.05,0.84,21.05,0.58
					c16.72-0.64,33.43-1.2,50.16-1.17c0.92,0,1.89-0.22,2.76,0.01c2.04,0.55,3.65,1.45,3.54,4.36c-0.72,18.28-0.03,36.57,0.39,54.84
					c0.21,9.07,0.85,18.12,1.2,27.18c0.09,2.37,0.16,4.74,0.2,7.11c0.03,2.17,0.28,4.49-0.31,6.6c-0.14,0.48-0.31,0.97-0.64,1.36
					c-0.8,0.92-2.34,0.72-3.45,0.8c-1.61,0.11-3.23,0.18-4.85,0.23c-23.47,0.62-43.11,1.16-66.58,1.82
					c-26.71,0.75-53.41,1.54-80.12,2.29c-63.39,1.79-126.78,3.59-190.17,5.37c-31.14,0.87-62.28,1.71-93.43,2.56
					c-0.37,0.01-0.83-0.13-1.1,0.05c-3.48,2.36-6.41-0.9-9.63-1.1c-1.24-0.08-1.43-1.67-2.3-2.4c-5.8-4.96-11.58-9.95-17.36-14.93
					c-3.32-2.86-6.1-6.32-9.72-8.83C175.21,467.18,173.21,466.33,171.43,465.21z M433.43,484.61c30.86-0.88,61.72-1.76,92.59-2.63
					c41.77-1.18,83.53-2.38,125.3-3.47c2.46-0.06,3.15-0.85,3.09-3.45c-0.2-10.25-0.69-20.47-1.19-30.71
					c-0.84-17.15-0.93-34.32-0.64-51.49c0.04-2.31-0.04-4.62,0.01-6.93c0.04-1.78-0.74-2.6-2.31-2.61
					c-1.57-0.01-3.14,0.05-4.71,0.03c-17.47-0.26-34.91,1.16-52.38,1.17c-8.3,0-16.59-0.5-24.92-0.24
					c-19.03,0.58-38.07,0.5-57.11,0.69c-0.74,0.01-1.51-0.07-2.21,0.13c-3.84,1.12-4.87,0.38-5.07-3.79
					c-0.04-0.8-0.02-1.61-0.04-2.41c-0.25-10.13,0.6-20.24,0.73-30.35c0.2-14.86,0.19-29.72-0.44-44.59
					c-0.38-8.92-0.14-17.88,0.02-26.83c0.05-2.93-0.77-3.81-3.48-3.67c-13.01,0.66-25.97,2.12-39.02,2.2
					c-14.6,0.1-29.19,0.56-43.77,1.49c-4.98,0.32-9.97,0.5-14.95,0.77c-12.26,0.68-24.51,1.44-36.78,2.02
					c-1.67,0.08-2.21,0.55-2.43,2.3c-1.25,9.67-1.37,19.42-1.83,29.14c-0.56,12.03-0.61,24.1-0.89,36.15
					c-0.02,0.88,0.2,1.95-0.67,2.47c-1.13,0.67-1.3-0.5-1.76-1.22c-0.46-0.71-1.21-0.16-1.81-0.14c-9.51,0.28-19.01,0.6-28.51,0.93
					c-0.46,0.02-0.92,0.1-1.38,0.14c-11.33,0.91-22.65,2.15-33.99,2.66c-23.99,1.08-48,1.8-72.01,2.57
					c-1.94,0.06-2.45,0.68-2.5,2.75c-0.22,8.63,0.12,17.27-0.41,25.91c-0.97,15.53-1.45,31.09-2.46,46.62
					c-1.26,19.25-1.33,38.55-2.04,57.82c-0.09,2.32,0.57,2.83,2.65,2.76c25.87-0.81,51.74-1.52,77.62-2.25
					C340.29,487.22,386.86,485.91,433.43,484.61z M210.95,490.1c0.17-1.01,0.28-1.38,0.3-1.75c0.68-20.27,0.91-40.55,2.1-60.79
					c0.5-8.51,0.79-17.04,1.36-25.54c0.97-14.73,1.6-29.46,1.46-44.23c-0.02-2.5-0.83-3.89-3.2-4.69c-4.13-1.39-8.15-3.2-12.17-4.96
					c-7.69-3.36-15.34-6.82-23.02-10.21c-2.41-1.06-3.16-0.61-3.13,2.09c0.13,16.77-0.68,33.52-0.96,50.27
					c-0.34,19.78-0.72,39.56-2.22,59.27c-0.42,5.55,1.83,8.82,5.08,11.8c5.43,4.97,11.06,9.69,16.7,14.39
					C198.94,480.51,204.76,485.1,210.95,490.1z M436.7,158.24c-0.26-12.51,0.65-26.87-0.32-41.23c-0.24-3.61-0.73-4.13-4.12-3.88
					c-3.96,0.29-7.96,0.48-11.84,1.26c-1.54,0.31-3.39,0.65-4.7,2.1c-10.89,12.03-21.77,24.07-33.02,35.7
					c-1.13,1.17-0.87,1.94,0.03,2.94c2,2.23,4.45,4.19,5.82,6.81c1.53,2.92,2.34,1.53,3.62,0.17c6.82-7.24,14.58-13.27,21.85-19.92
					c1.05-0.96,2.53-2.33,3.91-1.67c1.92,0.92,0.13,2.67,0.03,3.97c-1.17,14.52-1.33,29.09-1.83,43.64
					c-0.57,16.36-0.45,32.74-0.63,49.12c-0.04,3.39-0.71,6.31-1.83,9.51c-0.06,0.18-0.14,0.38-0.29,0.49
					c-0.13,0.1-0.31,0.13-0.48,0.15c-4.18,0.58-8.37,1.07-12.54,1.73c-4.31,0.68-8.64,1.31-13.01,1.32
					c-1.81,0.01-2.47,0.6-2.39,2.59c0.13,3.21,0.17,6.44,0.03,9.64c-0.09,2.16,0.64,2.74,2.56,2.66c6.74-0.28,13.49-0.19,20.22-0.61
					c10.88-0.68,21.79-0.23,32.68-1.41c6.47-0.7,13.05-1.52,19.6-0.18c1.55,0.32,2.46-0.1,2.18-2.23
					c-0.48-3.58-0.86-7.18-1.03-10.79c-0.12-2.61-0.91-3.58-3.46-3.38c-5.71,0.44-11.45,0.53-17.17,0.74
					c-0.98,0.04-2.36,0.41-2.55-1.04c-0.23-1.78-0.99-3.33-1.24-5.12c-0.7-4.9-0.05-9.77-0.15-14.65
					C436.17,204.49,435.28,182.29,436.7,158.24z M312.64,326.79c0.01,0,0.03,0,0.04,0c0-3.12-0.03-6.23,0.01-9.35
					c0.02-1.59-0.46-2.47-2.08-2.33c-1.1,0.09-2.22,0-3.33,0c-1.36,0.01-2.18,0.52-2.46,2.18c-0.72,4.36-3.36,6.97-7,8.62
					c-9.04,4.09-18.72,4.33-28.24,5.47c-4.12,0.49-8.29,0.49-12.44,0.68c-1.45,0.07-3.28,1.71-4.22,0.15
					c-1.04-1.72,1.36-2.17,2.07-3.33c5.05-8.35,11.9-15.03,17.83-22.57c6.95-8.85,14.59-17.04,20.7-26.68
					c3.16-4.99,5.76-10.38,7.34-16.08c1.53-5.51,2.07-11.26,1.49-16.95c-0.25-2.46-0.7-4.91-1.32-7.3
					c-0.49-1.87-1.21-3.67-1.78-5.52c-0.34-1.1-0.51-2.34-1.06-3.39c-0.67-1.29-1.9-1.82-3.12-2.48c-1.69-0.91-3.3-1.99-5.13-2.6
					c-1.97-0.65-4.02-0.99-6.07-1.33c-8.94-1.47-17.45,0.49-25.72,4.09c-10.71,4.66-17.05,13.6-20.7,25.14
					c-0.64,2.02-0.09,2.99,2.05,2.86c2.86-0.16,5.73-0.21,8.59-0.08c1.7,0.08,2.46-0.57,2.91-2.32c0.77-3.02,1.89-5.89,3.97-8.18
					c6.67-7.33,14.64-10.99,24.22-10.29c4.84,0.36,8.3,3.26,9.8,8.3c2.39,8.05,0.24,15.57-3.32,22.26
					c-5.56,10.43-12.65,19.82-20.06,28.77c-8.34,10.08-17.37,19.47-25.96,29.31c-2.85,3.27-5.82,6.46-8.2,10.2
					c-1.56,2.47-2.26,5.64-1.44,8c0.64,1.84,3.77,1.23,5.87,1.14c0.74-0.03,1.48-0.11,2.21-0.16c16.97-1.09,33.94-2.12,50.9-3.29
					c7.1-0.49,14.23-0.12,21.31-1.16c1.99-0.29,2.44-1.15,2.37-3.07C312.57,332.62,312.64,329.7,312.64,326.79z M568.58,318.02
					c3.12-1.23,5.9-0.8,8.63-1.07c9.99-0.96,17.47,4.11,21.41,13.91c5.43,13.52-4.66,30.9-19.43,30.06
					c-6.32-0.36-11.75-2.99-17.11-6.26c-4.14-2.52-6.49-6.75-9.21-10.65c-1.25-1.8-2.5-2.19-4.19-0.76
					c-1.75,1.48-3.49,2.98-5.34,4.3c-1.47,1.05-1.3,2.1-0.47,3.46c1.11,1.84,2.62,3.32,3.67,5.26c2.47,4.57,5.95,8.46,10.15,10.87
					c5.76,3.31,11.97,6.02,18.57,6.58c12.77,1.08,27.49-2.94,34.01-17.19c5.81-12.69,7.28-25.11-0.87-37.44
					c-2.81-4.26-6.67-6.81-10.83-8.97c-0.74-0.38-1.84,0.1-2.26-1.17c-0.45-1.38,0.51-2.02,1.19-2.78c1.59-1.81,3.59-3.16,4.81-5.38
					c5.53-10.06,8.61-20.66,6.04-32.47c-1.37-6.31-4.99-10.84-10.19-13.7c-4.65-2.55-9.87-2.83-14.9-2.59
					c-11.34,0.53-20.9,6.04-29.53,13.7c-1.6,1.42-2.62,3.31-3.74,5.17c-1.94,3.21-2.09,7.28-4.43,10.26
					c-0.54,0.69-0.2,1.08,0.45,1.27c2.93,0.86,5.8,2.01,8.85,2.39c0.95,0.12,1.4-0.02,1.83-1.13c4.55-11.69,12.33-18.81,24.27-19.75
					c3.54-0.28,7.19-0.06,10,2.53c7.29,6.74,8.18,18.94,1.89,26.79c-5.26,6.56-12.24,9.77-20.06,10.97
					c-1.05,0.16-2.25-0.29-2.2,1.74C569.67,309.84,569.73,313.74,568.58,318.02z M358.42,345.37c0.31-0.07,0.62-0.13,0.93-0.2
					c0-4.57-0.07-9.14,0.01-13.7c0.17-9.03,0.3-18.06,0.68-27.07c0.32-7.61,0.53-15.24,1.46-22.8c0.16-1.34-0.19-2.48-1.42-2.9
					c-4.52-1.57-8.49-4.35-12.73-6.54c-6.83-3.53-14.24-5.61-20.86-9.66c-1.66-1.01-1.99-0.46-2.05,1.37
					c-0.17,5.41-0.08,10.88-0.78,16.22c-1.73,13.27-1.01,26.67-2.02,39.96c-0.05,0.68-0.1,1.82,0.2,1.99
					c2.35,1.3,3.7,3.81,6.01,5.29C337.87,333.71,349.01,337.78,358.42,345.37z M501.76,270.59c-1.64-1.03-3.07-2.18-4.66-2.88
					c-10.08-4.42-20.21-8.73-30.3-13.12c-2.01-0.87-2.55-0.02-2.21,1.98c0.45,2.62,0.9,5.25,1.52,7.82
					c0.25,1.02,0.34,2.17-0.61,2.15c-2.34-0.05-4.52,1.63-6.57,1.33c-5.11-0.74-10.17-0.32-15.19,0.14
					c-19.44,1.79-38.95,1.41-58.41,2.4c-1.05,0.05-1.92-0.21-2.84-0.86c-5.65-3.98-11.67-7.16-18.01-9.59
					c-1.29-0.49-1.55-1.35-1.09-2.54c0.72-1.87-0.04-2.03-1.51-1.84c-3.11,0.41-6.23,0.81-9.36,0.97
					c-8.48,0.44-16.97,0.74-25.46,1.12c-0.6,0.03-1.47-0.36-1.73,0.46c-0.32,1.04,0.69,1.28,1.27,1.65
					c2.79,1.78,5.72,3.25,8.75,4.52c5.67,2.38,11.46,4.53,16.75,7.84c7.48,4.69,15.37,6.63,23.93,4.79c0.54-0.12,1.1-0.09,1.66-0.11
					c17.36-0.59,34.68-1.97,52.02-2.7c22.79-0.96,45.61-0.95,68.38-2.75C499.26,271.29,500.47,271.51,501.76,270.59z M415.43,145.32
					c-4.9,4.02-8.79,8.27-12.97,12.16c-2.46,2.29-3.62,4.64-3.88,8.46c-0.97,14.09-2.55,28.13-4.03,42.17
					c-0.89,8.49-1.66,16.97-1.45,25.53c0.03,1.4-0.08,2.53,1.74,3.12c4.9,1.59,9.97,2.76,14.48,5.57c1.61,1,2.56,0.64,2.68-1.62
					c0.45-8.62,1.35-17.21,1.27-25.86c-0.18-21.7,1.04-43.34,2.15-64.98C415.49,148.58,415.43,147.28,415.43,145.32z M180.72,336.56
					c3.44,1.99,6.87,2.38,9.74,4.05c7.45,4.34,15.59,6.76,23.24,10.48c3.41,1.66,6.73,1.83,10.21,1.59
					c6.08-0.42,12.18-0.54,18.26-0.84c17.16-0.86,34.36-1.07,51.52-1.99c16.78-0.9,33.49-3.17,50.34-3.09
					c3.15,0.02,6.39-0.54,10.14-0.58c-9.01-7.3-18.76-11.59-27.58-17.61c-2.63-1.8-5.12-2.74-8.27-2.09
					c-3.15,0.65-4.18,1.55-3.69,4.95c0.45,3.13,0.05,6.19-0.11,9.29c-0.08,1.58-0.86,2.39-2.21,2.6c-1.73,0.28-3.48,0.7-5.22,0.68
					c-12.49-0.11-24.88,1.7-37.35,2.03c-4.15,0.11-8.3,0.47-12.45,0.71c-9.13,0.52-18.24,1.47-27.4,1.53
					c-2.09,0.01-4.18-0.18-5.8-1.62c-2.7-2.41-6.51-3.07-8.55-6.5c-0.33-0.56-1-0.36-1.52-0.49c-1.65-0.42-3.73-1.48-3.74-2.99
					c-0.01-2.73-1.34-2.38-2.77-2.28C198.8,334.99,190.03,334.9,180.72,336.56z M286.2,249.45c0.31-3.99-1.01-6.91-4.08-9.27
					c-3.08-2.37-6.25-1.95-9.55-1.4c-0.68,0.11-1.62-0.32-1.95,0.62c-0.27,0.77,0.56,1.17,0.94,1.69c2.72,3.71,3.96,7.88,3.36,12.63
					c-0.65,5.13-2.43,9.86-4.41,14.51c-2.68,6.3-7.12,11.25-11.24,16.35c-12.33,15.25-26.26,28.76-39.83,42.66
					c-2.99,3.07-3.19,6.14-0.45,9.63c1.33,1.69,3.01,2.59,4.78,3.46c3.41,1.69,3.75,1.54,4-2.65c0.19-3.27,1.19-5.95,3.42-8.25
					c6.96-7.2,13.48-14.88,19.79-22.74c10.68-13.31,20.55-27.35,30.11-41.64C284.2,260.38,285.91,255.17,286.2,249.45z M378,151.39
					c1.81,0.25,2.63-1.16,3.54-2.21c4-4.59,7.63-9.54,11.95-13.82c6.49-6.42,12.84-13.01,19.22-19.55c2.05-2.1,1.99-2.38-0.73-3.31
					c-1.76-0.6-3.55-1.12-5.35-1.56c-3.33-0.82-6.07-0.46-8.81,2.59c-6.46,7.17-13.28,13.95-20.19,20.61
					c-3.8,3.66-7.67,7.22-11.28,11.11c-0.89,0.96-1.38,1.63,0.14,2.34C370.25,149.35,374.19,150.41,378,151.39z M596.47,251.27
					c-5.44-6.49-12.89-7.62-20.11-8.32c-6.15-0.6-12.33,1.3-18.11,3.7c-12.57,5.2-21.48,14.51-25.87,28.6
					c-0.47,1.49-0.06,2.19,1.08,2.41c2.4,0.45,4.59,1.42,6.73,2.62c0.81,0.46,1.65,0.32,2.05-0.78c0.97-2.62,2.8-4.69,3.78-7.34
					c1.29-3.47,3.15-6.55,5.93-8.93C565.12,251.98,579.58,246.51,596.47,251.27z M293.09,224.39c-4.44-3.29-8.78-6.92-14.38-7.68
					c-8.94-1.22-17.63-0.74-25.84,4.01c-6.38,3.69-12.81,7.27-17.4,13.58c-3.43,4.72-5.71,10-6.02,16.16
					c-0.17,3.37,2.24,3.55,4.14,4.21c2.13,0.75,1.36-1.59,1.79-2.48c0.98-2.04,1.55-4.3,2.5-6.35c3.02-6.53,6.9-12.36,12.79-16.16
					c9.76-6.31,20.28-9.34,31.72-8.25C286.13,221.78,289.65,222.69,293.09,224.39z M257.97,329.18c9.17,0.74,17.55-0.76,25.95-1.94
					c4.49-0.63,8.9-1.5,13.09-3.52c2.39-1.15,4.3-2.76,5.31-5.39c0.49-1.28,0.81-2.71-0.69-3.69c-1.73-1.13-3.44-2.31-5.1-3.56
					c-1.22-0.91-1.97-0.97-2.81,0.65c-0.99,1.9-2.13,3.76-3.82,5.09c-8.05,6.34-17.36,7.09-26.82,7.03c-0.76,0-1.18,0.08-1.59,0.62
					C260.39,325.92,259.31,327.38,257.97,329.18z M569.96,355.96c7.24,4.21,14.42,2.68,20.88-1.79c6.62-4.57,7.06-12.25,6.28-19.9
					c-0.57-5.62-3.65-10.23-6.96-11.13C593.18,342.69,584.17,357.24,569.96,355.96z M561.48,301.03c3.31,1.94,5.85,1.29,8.64,1.07
					c6.09-0.49,11.24-3.17,16.19-6.48c9-6.02,10.22-20.86,1.78-27.32c-0.29,0.64,0.15,1.14,0.28,1.7
					c1.77,7.82-0.15,14.73-5.35,20.09c-4.7,4.84-10.28,8.5-16.95,9.56C564.74,299.86,563.46,300.42,561.48,301.03z M382.01,265.89
					c0-4.8-0.02-9.28,0.02-13.75c0.01-0.81-0.16-1.47-0.86-1.67c-4.17-1.22-7.33-4.49-11.18-6.36c-1.16-0.56-2.16-0.83-2.09,1.23
					c0.04,1.3-0.13,2.6-0.1,3.9c0.03,1.3-0.88,4.6-1.23,4.64c-0.26,1.53-1.2,3.74,0.72,4.55
					C372.25,260.53,376.82,263.54,382.01,265.89z M548.28,340.2c-0.28-0.28-0.6-0.61-0.93-0.91c-0.86-0.76-1.75-1.47-2.59-2.25
					c-6.74-6.23-8.99-6.05-14.99,1.17c-0.19,0.22-0.38,0.44-0.57,0.66c-0.69,0.77-0.52,1.28,0.29,1.86
					c2.69,1.93,5.32,3.95,7.99,5.93c0.7,0.52,1.44,0.93,2.32,0.45c2.98-1.65,5.39-4.18,8.1-6.24
					C548.03,340.78,548.09,340.56,548.28,340.2z M555.21,308.22c0.64,1.44-1.36,3.62,0.83,4.94c2.73,1.66,5.51,3.23,8.27,4.84
					c1.13,0.66,1.94,0.57,2.23-0.99c0.23-1.28,0.58-2.54,0.69-3.83c0.55-6.76,0.53-6.75-5.23-9.11c-0.69-0.28-1.32-0.72-1.99-1.05
					c-3.7-1.83-4.43-1.39-4.69,2.86C555.26,306.59,555.24,307.3,555.21,308.22z M408.03,245.27c-0.81,0.14-2.67-0.93-3.46-1.21
					c-1.22-0.43-2.43-0.86-3.65-1.29c-1.45-0.52-2.89-1.05-4.34-1.59c-0.86-0.32-1.69-0.85-2.62-0.97
					c-1.07-0.14-1.63,0.43-2.51,0.87c-2.01,0.98-4.31,1-6.49,1.12c-0.85,0.05-9.7,1.72-9.67,1.8c0.57,1.62,1.8,1.95,2.81,2.57
					c2.38,1.47,4.87,0.99,7.43,0.77C392.79,246.69,400.09,246.66,408.03,245.27z M528.83,343.18c1.98,8.2,16.78,22.83,24.21,23.9
					c-4.4-3.16-7.03-7.34-9.66-11.58c-1.21-1.95-2.51-4.66-4.11-5.39C535.57,348.4,532.45,345.88,528.83,343.18z M406.75,108.07
					c8.43,5.09,17.29,2.78,26.75,1.52C424.3,103.23,415.36,107.91,406.75,108.07z M383.28,162.36c-4.69-5.32-8.76-11.55-16.75-11.46
					c2.16,1.86,2.99,4.59,4.58,6.77c0.85,1.17,1.41,3.07,2.77,3.17C377.05,161.09,380.14,161.68,383.28,162.36z M456.59,243.7
					c-4.9-2.77-10.23-3.69-15.45-5.02c-0.88-0.22-2.08-0.67-1.93,0.98c0.13,1.39-1.41,3.87,1.29,3.98
					C445.85,243.84,451.22,243.7,456.59,243.7z M296.3,308.81c3.75,4.91,8.02,5.1,12.9,3.39
					C304.98,310.64,301.1,308.55,296.3,308.81z"/>
			</g>
		</g>
	</g>
</g>
</svg>
