<?xml version="1.0" encoding="UTF-8" standalone="no"?>
<svg
   xmlns:dc="http://purl.org/dc/elements/1.1/"
   xmlns:cc="http://creativecommons.org/ns#"
   xmlns:rdf="http://www.w3.org/1999/02/22-rdf-syntax-ns#"
   xmlns:svg="http://www.w3.org/2000/svg"
   xmlns="http://www.w3.org/2000/svg"
   xmlns:sodipodi="http://sodipodi.sourceforge.net/DTD/sodipodi-0.dtd"
   xmlns:inkscape="http://www.inkscape.org/namespaces/inkscape"
   inkscape:version="1.0beta2 (2b71d25, 2019-12-03)"
   height="595.28003"
   width="841.89001"
   sodipodi:docname="podium-2.svg"
   id="svg258"
   xml:space="preserve"
   viewBox="250 75 300 500.7"
   y="0px"
   x="0px"
   version="1.1"><metadata
   id="metadata264"><rdf:RDF><cc:Work
       rdf:about=""><dc:format>image/svg+xml</dc:format><dc:type
         rdf:resource="http://purl.org/dc/dcmitype/StillImage" /><dc:title></dc:title></cc:Work></rdf:RDF></metadata><defs
   id="defs262" /><sodipodi:namedview
   inkscape:current-layer="svg258"
   inkscape:window-maximized="0"
   inkscape:window-y="23"
   inkscape:window-x="0"
   inkscape:cy="297.64001"
   inkscape:cx="420.94501"
   inkscape:zoom="1.6641129"
   viewbox-height="500.7"
   viewbox-width="300"
   viewbox-y="75"
   viewbox-x="250"
   showgrid="false"
   id="namedview260"
   inkscape:window-height="1395"
   inkscape:window-width="1710"
   inkscape:pageshadow="2"
   inkscape:pageopacity="0"
   guidetolerance="10"
   gridtolerance="10"
   objecttolerance="10"
   borderopacity="1"
   inkscape:document-rotation="0"
   bordercolor="#666666"
   pagecolor="#ffffff" />
<style
   id="style211"
   type="text/css">
	.st0{fill:#ECC5BF;}
	.st1{fill:#F8E2D2;}
	.st2{fill:#CBF4FF;}
	.st3{fill:#FF3A5B;}
	.st4{fill:#E7BA9F;}
	.st5{fill:#422918;}
	.st6{fill:#E59C8B;}
	.st7{fill:#FFFFFF;}
	.st8{fill:#1D70B7;}
	.st9{fill:#FFDD4C;}
	.st10{fill:#007EFF;}
	.st11{fill:#97E6FC;}
	.st12{fill:#FFF88A;}
	.st13{fill:#FF6671;}
	.st14{fill:#D9D9D9;}
	.st15{fill:#50E3C2;}
	.st16{fill:#B1B1B1;}
	.st17{fill:#868686;}
	.st18{fill:#C89B83;}
	.st19{fill:#E3C9BB;}
	.st20{fill:#ECECEC;}
	.st21{fill:#FF8438;}
	.st22{fill:#DEB496;}
	.st23{fill:#EACEB3;}
	.st24{fill:#ECDCD2;}
	.st25{fill:#F5F5F5;}
	.st26{fill:url(#SVGID_1_);}
	.st27{fill:url(#SVGID_2_);}
	.st28{fill:#AE846C;}
	.st29{fill:#9E6D57;}
	.st30{fill:#C6C6C5;}
	.st31{fill:#F6ECE3;}
	.st32{fill:#E7BCA9;}
	.st33{fill:#F6D8C7;}
	.st34{fill:#F6E9DA;}
	.st35{fill:#1D1D1B;}
	.st36{fill:none;}
</style>
<g
   id="colour">
</g>
<g
   id="Layer_3">
	<g
   id="g216">
		<path
   inkscape:connector-curvature="0"
   id="path214"
   d="m 321.5,324.6 c 0.69,-20.7 1.38,-41.39 2.07,-62.09 0.04,-1.19 0.1,-2.43 0.72,-3.44 0.78,-1.26 2.26,-1.88 3.66,-2.35 5.7,-1.91 11.76,-2.72 17.76,-2.38 4.58,0.26 11.24,1.81 15.56,0.26 4.32,-1.55 5.81,-7.52 3.37,-11.41 7.02,-0.51 14,-1.66 20.82,-3.44 2.13,-0.55 4.4,-1.28 5.71,-3.05 1.13,-1.53 1.3,-3.53 1.44,-5.43 1.62,-22.83 2.99,-45.67 4.09,-68.53 -10.91,3.97 -23.7,3.17 -31.13,-11.77 -0.57,-1.15 -0.67,-2.85 -0.58,-4.13 0.13,-1.76 2.95,-3.48 4,-4.9 6.35,-8.59 12.79,-17.27 20.99,-24.13 8.2,-6.86 20.81,-12.68 31.5,-12.5 5.4,0.09 11.09,1.72 14.12,6.19 2.32,3.43 0.35,8.74 0.49,12.88 0.94,27.45 3.71,53.98 1.24,81.33 -1.06,11.71 -4.45,27.34 6.05,32.63 5.81,2.93 13.93,2.24 17.51,7.68 0.83,1.27 1.3,2.75 2.15,4 1.59,2.36 4.3,3.66 6.87,4.88 8.96,4.26 21.56,7.99 30.18,12.9 2.2,1.25 4.53,3.27 5.72,5.5 1.01,1.88 0.16,4.26 0.22,6.39 1.95,67.68 -0.35,135.45 -1.11,203.15 -49.09,-0.37 -98.63,3.6 -147.67,2.36 -0.51,-39.05 2.16,-84.59 0.81,-127.57 -0.08,-2.46 2.09,-6.36 0.88,-8.5 -1.17,-2.07 -3.21,-3.46 -5.18,-4.79 -11,-7.4 -22,-14.81 -33,-22.21"
   class="st9" />
	</g>
	<g
   id="g220">
		<path
   inkscape:connector-curvature="0"
   id="path218"
   d="m 358.1,352.1 c -0.75,45.3 -1.5,90.6 -2.25,135.91 -42.64,0.49 -85.06,2.8 -127.71,3.29 -4.9,0.06 -11.01,2.07 -15.85,1.32 -5.72,-0.88 -7.52,-6.18 -11.01,-8.37 -5.88,-3.68 -10.66,-9.07 -16.54,-12.75 -4.07,-2.54 -8.28,-5.23 -10.78,-9.33 -2.93,-4.81 -3.03,-10.76 -3.05,-16.39 -0.09,-36.21 -0.18,-72.41 -0.27,-108.62 10.33,-4.56 23.04,-1.13 34.16,-3.07 12.25,-2.13 16.86,-12.86 28.18,-21.58 12.04,-9.27 19.66,-22.03 29.33,-33.75 4.8,-5.82 9.76,-11.96 11.31,-19.35 1.55,-7.39 -1.58,-16.35 -8.73,-18.77 -7.15,-2.42 -12.54,8.02 -12.3,12.47 -4.27,2.52 -8.8,5.11 -13.76,5.16 -4.96,0.05 -12.37,-2.01 -12.46,-6.97 -0.05,-2.43 4.07,-9.35 5.28,-11.45 9.52,-16.42 26.02,-26.38 44.8,-23.65 16.52,2.4 28.18,17.6 28.74,32.46 0.56,14.86 -10.46,30.29 -19.08,42.4 -8.62,12.11 -16.5,20.11 -25.4,32.02 12.4,-1.04 25.54,-1.32 33.03,-14.97 1.15,-2.09 2.9,-1.17 5.28,-1.32 6.51,-0.42 17.81,6.93 14.97,17.61 6.04,-1.85 6.92,-0.2 12.99,1.54"
   class="st10" />
	</g>
	<g
   id="g226">
		<g
   id="g224">
			<path
   inkscape:connector-curvature="0"
   id="path222"
   d="m 321.79,326.77 c 10.74,7.96 22.31,14.72 33.19,22.49 2.62,1.87 5.12,-2.46 2.52,-4.32 -10.88,-7.77 -22.45,-14.53 -33.19,-22.49 -2.59,-1.91 -5.08,2.42 -2.52,4.32 z" />
		</g>
	</g>
	<g
   id="g230">
		<path
   inkscape:connector-curvature="0"
   id="path228"
   d="m 356.06,487.12 c 0.69,-45.26 3.3,-90.49 2.99,-135.75 -0.01,-1.27 0.93,-3.1 0,-3.96 -0.85,-0.78 -5.55,-0.58 -6.7,-0.46 -43.6,4.36 -88.75,3.36 -133.13,7.4 -0.75,0.07 -1.53,0.18 -2.15,0.6 -1.28,0.87 -1.38,2.68 -1.36,4.23 0.63,41.51 -0.64,83.04 -3.79,124.43 -0.14,1.88 -0.23,3.98 0.99,5.42 1.29,1.53 3.54,1.72 5.54,1.79 45.75,1.44 91.65,-7.02 137.17,-2.23"
   class="st11" />
	</g>
	<g
   id="g234">
		<path
   inkscape:connector-curvature="0"
   id="path232"
   d="m 357.53,486.44 c 0.88,-67.75 0.54,-131.17 4.49,-198.81 0.14,-2.47 2.21,-7.69 3.3,-9.91 17.07,-0.15 36.53,-1.88 53.6,-2.03 10.22,-0.09 20.44,-0.18 30.65,-0.48 17.81,-0.53 35.6,-1.73 53.32,-3.59 3.12,67.53 4.45,134.25 0.33,203.65 -0.09,1.5 0.07,3.08 -0.63,4.41 -1.57,2.98 -5.76,6.06 -9.13,6.11 -38.97,0.66 -81.23,-3.83 -121.55,1.05 -4.25,0.51 -8.79,1.02 -12.63,-0.88"
   class="st12" />
	</g>
	<path
   inkscape:connector-curvature="0"
   id="path236"
   d="m 437.24,157.66 c -0.25,-12.33 1.88,-26.74 0.96,-40.9 -0.23,-3.56 -2.09,-5.31 -5.28,-5.06 -3.74,0.29 -8.22,0.55 -11.89,1.32 -1.46,0.31 -3.83,1 -5.06,2.42 -10.27,11.86 -23.29,25.96 -33.91,37.43 -1.07,1.15 -0.82,1.92 0.03,2.9 1.88,2.2 5.5,5.09 6.8,7.67 1.45,2.88 4.25,-0.5 5.46,-1.84 6.43,-7.14 13.75,-13.08 20.61,-19.65 0.99,-0.95 1.92,-0.96 3.22,-0.31 1.81,0.91 -0.56,2.47 -0.66,3.74 -1.1,14.32 -1.17,27.57 -1.65,41.92 -0.54,16.13 -0.83,33.09 -0.99,49.24 -0.02,2.09 0.48,3.63 -0.44,5.5 -0.46,0.93 -2.37,1.67 -1.1,1.98 0.53,0.13 -0.11,0.42 -0.22,1.1 -0.15,0.89 2.75,0.67 2.13,0.7 -8.53,0.48 -20.19,3.51 -28.75,3.55 -1.7,0.01 -2.33,0.59 -2.26,2.55 0.12,3.17 0.16,6.35 0.03,9.51 -0.08,2.13 0.16,5.34 1.98,5.26 6.36,-0.28 16.55,-0.03 22.9,-0.44 10.26,-0.67 20.12,-0.82 30.39,-1.98 6.1,-0.69 15.85,-1.76 22.02,-0.44 1.46,0.31 2.1,-2.08 1.84,-4.18 -0.45,-3.53 -0.81,-7.08 -0.97,-10.64 -0.11,-2.58 -0.86,-3.53 -3.26,-3.33 -5.39,0.43 -13.76,-0.08 -19.16,0.12 -0.92,0.04 -2.23,0.4 -2.41,-1.02 -0.22,-1.75 -0.93,-3.29 -1.17,-5.05 -0.66,-4.84 0.85,-9.64 0.76,-14.45 -0.45,-21.89 -1.29,-43.9 0.05,-67.62 z"
   class="st12" />
	<g
   id="g240">
		<path
   inkscape:connector-curvature="0"
   id="path238"
   d="m 506.46,361.9 c 11.13,0.83 22.31,0.85 33.44,0.07 -4.35,-4.03 -8.88,-8.32 -10.66,-13.97 -1.79,-5.65 0.33,-13.01 5.95,-14.89 5.45,-1.83 11.17,2.12 14.74,6.63 3.57,4.51 6.29,9.95 11.17,12.99 5.43,3.4 12.76,2.99 18.29,-0.24 5.53,-3.23 7.1,-6.99 8.97,-13.12 1.56,-5.12 3.92,-13.17 0.35,-17.16 -3.5,-3.91 -9.35,-4.54 -14.6,-4.39 -5.25,0.15 -10.78,0.75 -15.51,-1.54 -4.72,-2.29 -7.76,-8.94 -4.35,-12.92 2.44,-2.84 6.68,-2.95 10.37,-3.59 11.07,-1.92 20.5,-11.15 22.65,-22.18 0.4,-2.04 0.56,-4.19 -0.05,-6.18 -1.09,-3.56 -4.61,-6.04 -8.3,-6.55 -3.68,-0.51 -7.45,0.7 -10.61,2.66 -4.58,2.85 -8.13,7.33 -9.86,12.44 -0.57,1.68 -1.19,3.69 -2.89,4.19 -0.89,0.26 -3.32,1.75 -4.21,1.49 -5.51,-1.57 -9.13,-3.83 -14.53,-5.72 -1.41,-0.5 -5.62,-0.81 -6.17,-2.2 -0.61,-1.57 0.37,-5.22 1.32,-6.61 6.95,-10.15 10.36,-21.33 29.06,-26.2 11.9,-3.1 24.44,-5.26 34.34,2.04 8.93,6.58 15.16,18.81 14.54,29.89 -0.62,11.07 -7.47,21.18 -12.51,31.06 15.42,11.28 23.52,29.71 12.02,51.25 -0.67,1.26 -1.39,2.8 -0.68,4.04 0.34,0.59 0.94,0.97 1.52,1.33 11.22,6.83 23.44,11.52 35.77,15.92 1,0.36 2.52,0.17 3.19,0.99 0.51,0.62 4.16,-0.13 4.29,0.66 2.66,15.69 0.47,32.21 -0.26,48.11 -0.77,16.76 0.7,33.8 1.18,50.06 -7.24,-1.22 -14.62,-1.08 -21.96,-0.94 -42.97,0.82 -86.16,4.57 -129.12,5.39 2.64,-34.35 1.32,-79.71 1.3,-122.04"
   class="st3" />
	</g>
	<path
   inkscape:connector-curvature="0"
   id="path242"
   d="m 568.15,318.02 c 3.12,-1.23 5.9,-0.8 8.63,-1.07 9.99,-0.96 17.47,4.11 21.41,13.91 5.43,13.52 -4.66,30.9 -19.43,30.06 -6.32,-0.36 -11.75,-2.99 -17.11,-6.26 -4.14,-2.52 -6.49,-6.75 -9.21,-10.65 -1.25,-1.8 -2.5,-2.19 -4.19,-0.76 -1.75,1.48 -3.49,2.98 -5.34,4.3 -1.47,1.05 -1.3,2.1 -0.47,3.46 1.11,1.84 2.62,3.32 3.67,5.26 2.47,4.57 5.95,8.46 10.15,10.87 5.76,3.31 11.97,6.02 18.57,6.58 12.77,1.08 27.49,-2.94 34.01,-17.19 5.81,-12.69 7.28,-25.11 -0.87,-37.44 -2.81,-4.26 -6.67,-6.81 -10.83,-8.97 -0.74,-0.38 -1.84,0.1 -2.26,-1.17 -0.45,-1.38 0.51,-2.02 1.19,-2.78 1.59,-1.81 3.59,-3.16 4.81,-5.38 5.53,-10.06 8.61,-20.66 6.04,-32.47 -1.37,-6.31 -4.99,-10.84 -10.19,-13.7 -4.65,-2.55 -9.87,-2.83 -14.9,-2.59 -11.34,0.53 -20.9,6.04 -29.53,13.7 -1.6,1.42 -2.62,3.31 -3.74,5.17 -1.94,3.21 -2.09,7.28 -4.43,10.26 -0.54,0.69 -0.2,1.08 0.45,1.27 2.93,0.86 5.8,2.01 8.85,2.39 0.95,0.12 1.4,-0.02 1.83,-1.13 4.55,-11.69 12.33,-18.81 24.27,-19.75 3.54,-0.28 7.19,-0.06 10,2.54 7.29,6.74 8.18,18.94 1.89,26.78 -5.26,6.56 -12.24,9.77 -20.06,10.97 -1.05,0.16 -2.25,-0.29 -2.2,1.74 0.08,3.87 0.14,7.77 -1.01,12.05 z"
   class="st13" />
	<g
   id="g246">
		<path
   inkscape:connector-curvature="0"
   id="path244"
   d="m 505.22,485.5 c 1.2,-33.22 2.07,-66.46 2.63,-99.7 8.23,-2.08 16.82,-2.2 25.31,-2.3 26.13,-0.33 52.26,-0.65 78.39,-0.98 12.22,-0.15 24.44,-0.31 36.66,-0.46 1.5,-0.02 3.26,0.08 4.12,1.32 0.52,0.74 0.55,1.7 0.57,2.6 0.69,31.01 1.38,62.02 2.08,93.03 -40.82,1.47 -81.65,2.94 -122.47,4.41 -8.51,0.31 -17.13,0.63 -25.28,3.1"
   class="st13" />
	</g>
	<path
   inkscape:connector-curvature="0"
   id="path248"
   d="m 312.55,326.91 c 0.01,0 0.03,0 0.04,0 0,-3.12 -0.03,-6.23 0.01,-9.35 0.02,-1.59 -0.46,-2.47 -2.08,-2.33 -1.1,0.09 -2.22,0 -3.33,0 -1.36,0.01 -2.18,0.52 -2.46,2.18 -0.72,4.36 -3.36,6.97 -7,8.62 -9.04,4.09 -18.72,4.33 -28.24,5.47 -4.12,0.49 -8.29,0.49 -12.44,0.68 -1.45,0.07 -3.28,1.71 -4.22,0.15 -1.04,-1.72 1.36,-2.17 2.07,-3.33 5.05,-8.35 11.9,-15.03 17.83,-22.57 6.95,-8.85 14.59,-17.04 20.7,-26.68 3.16,-4.99 5.76,-10.38 7.34,-16.08 1.53,-5.51 2.07,-11.26 1.49,-16.95 -0.25,-2.46 -0.7,-4.91 -1.32,-7.3 -0.49,-1.87 -1.21,-3.67 -1.78,-5.52 -0.34,-1.1 -0.51,-2.34 -1.06,-3.39 -0.67,-1.29 -1.9,-1.82 -3.12,-2.48 -1.69,-0.91 -3.3,-1.99 -5.13,-2.6 -1.97,-0.65 -4.02,-0.99 -6.07,-1.33 -8.94,-1.47 -17.45,0.49 -25.72,4.09 -10.71,4.66 -17.05,13.6 -20.7,25.14 -0.64,2.02 -0.09,2.99 2.05,2.86 2.86,-0.16 5.73,-0.21 8.59,-0.08 1.7,0.08 2.46,-0.57 2.91,-2.32 0.77,-3.02 1.89,-5.89 3.97,-8.18 6.67,-7.33 14.64,-10.99 24.22,-10.29 4.84,0.36 8.3,3.26 9.8,8.3 2.39,8.05 0.24,15.57 -3.32,22.26 -5.56,10.43 -12.65,19.82 -20.06,28.77 -8.34,10.08 -17.37,19.47 -25.96,29.31 -2.85,3.27 -5.82,6.46 -8.2,10.2 -1.56,2.47 -2.26,5.64 -1.44,8 0.64,1.84 3.77,1.23 5.87,1.14 0.74,-0.03 1.48,-0.11 2.21,-0.16 16.97,-1.09 33.94,-2.12 50.9,-3.29 7.1,-0.49 14.23,-0.12 21.31,-1.16 1.99,-0.29 2.44,-1.15 2.37,-3.07 -0.1,-2.89 -0.03,-5.8 -0.03,-8.71 z"
   class="st11" />
	<g
   id="podeum_3_">
		<g
   id="g254">
			<g
   id="g252">
				<path
   inkscape:connector-curvature="0"
   id="path250"
   d="m 171.43,465.21 c -0.86,-0.54 -1.67,-1.14 -2.38,-1.88 -2.34,-2.41 -1.61,-5.48 -2.06,-8.58 -0.53,-3.62 -0.83,-7.27 -0.55,-10.92 0.48,-6.12 1.77,-12.14 2.11,-18.29 1.51,-27.29 2.79,-54.58 2.5,-81.94 -0.01,-0.5 0,-1.01 0,-1.51 0.08,-7.59 0.62,-7.98 7.34,-8.28 10.7,-0.49 21.39,-1.29 32.08,-1.96 1.05,-0.07 1.97,-0.37 2.7,-1.29 8.5,-10.67 19.14,-18.9 28.11,-29.04 7.75,-8.76 15.9,-17.16 22.49,-27.01 4.48,-6.71 7.69,-14.15 7.45,-22.85 -0.1,-3.86 -1.95,-6.84 -3.63,-9.94 -0.42,-0.78 -1.05,-0.92 -1.91,-0.59 -5.94,2.3 -9.99,6.8 -12.07,13.12 -0.88,2.68 -1.96,4.11 -4.55,4.15 -4.43,0.07 -8.87,0.18 -13.27,0.15 -2.34,-0.02 -4.69,-2.28 -6.99,-3.62 -1.26,-0.73 0.62,-1.82 -1.16,-1.33 -1.66,0.46 -1.13,-1.45 -1,-2.21 1.07,-6.27 0.85,-17.5 14.32,-26.15 5.95,-3.82 11.59,-7.99 18.31,-9.81 12.29,-3.34 24.11,-2.49 34.52,6.23 3.72,3.12 6.65,7.28 8.59,12.01 4.84,11.8 5.28,23.56 -0.17,35.41 -4.69,10.17 -11.15,18.88 -18.09,27.25 -6.37,7.67 -12.69,15.41 -18.99,23.15 -0.5,0.61 -1.54,1.23 -1.02,2.21 0.39,0.73 1.38,0.4 2.06,0.24 4.88,-1.13 9.95,-0.97 14.73,-2.73 4.09,-1.51 7.86,-3.5 10.32,-7.62 0.41,-0.68 1,-1.35 0.87,-2.16 -0.51,-3.16 1.32,-2.93 3.31,-3.07 5.76,-0.41 10.86,2.15 16.06,4.12 2.09,0.79 3.17,2.95 3.33,5.42 0.11,1.7 0.09,3.41 0.13,5.11 0.03,1.19 -0.23,2.54 1.58,2.39 1.32,-0.11 2.58,0.02 2.67,-2.09 0.29,-6.62 0.87,-13.23 0.98,-19.85 0.08,-5.23 0.27,-10.43 0.7,-15.64 0.6,-7.3 0.93,-14.63 1.34,-21.94 0.09,-1.69 0.07,-3.34 -0.49,-5.03 -0.92,-2.77 -0.3,-3.56 2.53,-3.58 9.98,-0.05 19.95,-0.5 29.91,-1.19 2.39,-0.17 4.78,-0.55 7.17,-0.71 2.12,-0.14 2.91,-1.17 2.55,-3.49 -0.36,-2.28 -0.23,-4.59 -0.03,-6.9 0.24,-2.73 1.26,-3.83 3.75,-3.24 4.73,1.13 9.35,0.2 13.99,-0.58 0.82,-0.14 1.63,-0.35 2.44,-0.57 1.78,-0.49 4.2,0.52 5.26,-1.06 0.88,-1.31 0.46,-3.65 0.61,-5.54 1.05,-13.51 2.54,-26.98 3.24,-40.53 0.41,-7.91 1.32,-15.8 1.98,-23.7 0.06,-0.77 0.01,-1.55 0.01,-2.83 -5.26,4.07 -9.91,0.53 -14.67,-0.6 -1.63,-0.39 -3.25,-1.01 -4.89,-0.73 -2.49,0.42 -4.06,-0.84 -5.27,-2.92 -1.98,-3.37 -4.03,-6.69 -6.41,-9.74 -0.56,-0.72 -0.76,-2.14 -2.27,-1.55 -1.36,0.54 -1.79,-0.75 -1.98,-1.83 -0.23,-1.28 0.43,-2.37 1.59,-2.32 1.92,0.09 3.05,-1.12 4.27,-2.35 11.76,-11.91 23.91,-23.37 35.34,-35.66 1.24,-1.34 2.59,-1.92 4.46,-1.69 3.13,0.37 6.32,0.03 9.36,-0.8 7.44,-2.04 14.54,-1.01 21.12,2.99 1.61,0.98 2.85,3.46 3.07,5.84 0.32,3.39 0.53,6.81 0.52,10.22 -0.04,13.16 -0.27,26.33 -0.26,39.49 0.01,5.82 0.79,11.65 0.6,17.45 -0.43,12.94 -1.23,25.87 -0.8,38.84 0.15,4.62 0.25,9.24 0.25,13.86 0,1.62 0.48,2.1 1.95,2.5 6.36,1.7 12.77,3.27 18.93,5.78 1.46,0.6 2.55,1.92 4.21,2.16 0.86,0.12 0.79,1.03 0.53,1.95 -1.28,4.41 -0.93,4.94 3.06,6.64 9.95,4.24 19.88,8.55 29.81,12.85 2.39,1.04 4.52,2.64 6.9,3.77 1.72,0.81 2.24,3.2 2.3,5.41 0.57,19.49 0.31,38.98 0.14,58.47 -0.07,8.33 0.46,16.67 0.49,25.01 0.01,2.59 1.08,3.06 3,3 6.93,-0.22 13.86,-0.34 20.78,-0.69 2.01,-0.1 4.03,0.91 6.38,-0.34 -3.76,-2.63 -5.64,-6.77 -8.22,-10.3 -1.66,-2.27 -2.52,-4.88 -3.78,-7.31 -0.62,-1.19 -0.18,-2.11 0.46,-3.03 2.69,-3.91 5.99,-7.08 9.87,-9.55 1.56,-0.99 3.08,-0.25 4.14,0.68 5.89,5.19 13.07,8.73 17.28,16.05 0.56,0.97 1.28,1.66 2.45,1.7 0.85,0.03 1.75,0.39 2.21,1.13 2.95,4.75 7.61,4.05 11.79,4.06 3.84,0.01 6.87,-2.53 9.47,-5.59 5.44,-6.4 6.48,-13.93 5.03,-22.15 -0.53,-2.99 -2.71,-4.46 -5.03,-5.01 -3.43,-0.81 -7.19,-2.19 -10.49,-0.7 -6.64,3 -11.66,-0.97 -17.07,-3.64 -2.17,-1.07 -4.57,-1.62 -3,-5.61 0.99,-2.53 0.51,-5.74 0.65,-8.65 0.11,-2.22 1.1,-3.15 3.19,-3.18 9.4,-0.15 17.76,-3.51 24.81,-10.25 4.22,-4.04 5.72,-9.56 5.35,-15.53 -0.3,-4.82 -2.71,-6.47 -7.12,-5.84 -10.29,1.49 -16.52,8.2 -20.02,18.32 -0.97,2.8 -2.85,2.66 -4.67,2.25 -4.05,-0.92 -8.02,-2.24 -12.05,-3.25 -1.41,-0.35 -2.23,-1.61 -3.56,-2.14 -2.16,-0.86 -4.21,-1.91 -6.5,-2.47 -3.29,-0.81 -3.5,-2.18 -2.37,-5.73 3.04,-9.51 8.19,-17.2 15.67,-23.16 9.16,-7.29 19.64,-10.67 30.68,-10.32 7.71,0.24 15.63,2 21.54,8.69 2.36,2.67 5.98,3.73 8.02,6.82 4.82,7.3 7.65,15.03 6.33,24.47 -1.37,9.77 -3.55,18.88 -10.15,26.1 -1.1,1.21 -0.3,1.61 0.53,2.23 6.73,5.01 10.66,12.26 12.5,20.57 2.4,10.86 0.71,21.33 -4.53,31.05 -1.63,3.02 -1.47,3.25 1.6,4.26 13.33,4.42 25.81,12.77 39.38,16.29 1.04,0.27 2.49,0.6 2.01,2.21 -0.43,1.4 -1.57,0.39 -2.38,0.17 -13.54,-3.64 -26.09,-11.75 -39.36,-16.36 -2.27,-0.79 -3.81,-0.66 -5.5,1.48 -4.46,5.67 -10.93,7.24 -17.17,8.99 -10.9,3.06 -21.26,0.54 -31.31,-4.17 -5.91,-2.77 -11.44,-6.35 -16.82,-10.17 -2.19,-1.56 -4.69,-1.07 -6.69,-0.8 -7.66,1.05 -15.33,0.15 -22.97,0.76 -4.28,0.34 -4.31,0.27 -4.22,4.78 0.08,4.02 0.26,8.03 0.31,12.05 0.02,1.77 0.61,2.41 2.31,2.4 22.37,-0.04 44.73,-0.22 67.09,-0.9 7.01,-0.21 14.05,0.84 21.05,0.58 16.72,-0.64 33.43,-1.2 50.16,-1.17 0.92,0 1.89,-0.22 2.76,0.01 2.04,0.55 3.65,1.45 3.54,4.36 -0.72,18.28 -0.03,36.57 0.39,54.84 0.21,9.07 0.85,18.12 1.2,27.18 0.09,2.37 0.16,4.74 0.2,7.11 0.03,2.17 0.28,4.49 -0.31,6.6 -0.14,0.48 -0.31,0.97 -0.64,1.36 -0.8,0.92 -2.34,0.72 -3.45,0.8 -1.61,0.11 -3.23,0.18 -4.85,0.23 -23.47,0.62 -43.11,1.16 -66.58,1.82 -26.71,0.75 -53.41,1.54 -80.12,2.29 -63.39,1.79 -126.78,3.59 -190.17,5.37 -31.14,0.87 -62.28,1.71 -93.43,2.56 -0.37,0.01 -0.83,-0.13 -1.1,0.05 -3.48,2.36 -6.41,-0.9 -9.63,-1.1 -1.24,-0.08 -1.43,-1.67 -2.3,-2.4 -5.8,-4.96 -11.58,-9.95 -17.36,-14.93 -3.32,-2.86 -6.1,-6.32 -9.72,-8.83 -1.74,-1.18 -3.74,-2.03 -5.52,-3.15 z m 262,19.4 c 30.86,-0.88 61.72,-1.76 92.59,-2.63 41.77,-1.18 83.53,-2.38 125.3,-3.47 2.46,-0.06 3.15,-0.85 3.09,-3.45 -0.2,-10.25 -0.69,-20.47 -1.19,-30.71 -0.84,-17.15 -0.93,-34.32 -0.64,-51.49 0.04,-2.31 -0.04,-4.62 0.01,-6.93 0.04,-1.78 -0.74,-2.6 -2.31,-2.61 -1.57,-0.01 -3.14,0.05 -4.71,0.03 -17.47,-0.26 -34.91,1.16 -52.38,1.17 -8.3,0 -16.59,-0.5 -24.92,-0.24 -19.03,0.58 -38.07,0.5 -57.11,0.69 -0.74,0.01 -1.51,-0.07 -2.21,0.13 -3.84,1.12 -4.87,0.38 -5.07,-3.79 -0.04,-0.8 -0.02,-1.61 -0.04,-2.41 -0.25,-10.13 0.6,-20.24 0.73,-30.35 0.2,-14.86 0.19,-29.72 -0.44,-44.59 -0.38,-8.92 -0.14,-17.88 0.02,-26.83 0.05,-2.93 -0.77,-3.81 -3.48,-3.67 -13.01,0.66 -25.97,2.12 -39.02,2.2 -14.6,0.1 -29.19,0.56 -43.77,1.49 -4.98,0.32 -9.97,0.5 -14.95,0.77 -12.26,0.68 -24.51,1.44 -36.78,2.02 -1.67,0.08 -2.21,0.55 -2.43,2.3 -1.25,9.67 -1.37,19.42 -1.83,29.14 -0.56,12.03 -0.61,24.1 -0.89,36.15 -0.02,0.88 0.2,1.95 -0.67,2.47 -1.13,0.67 -1.3,-0.5 -1.76,-1.22 -0.46,-0.71 -1.21,-0.16 -1.81,-0.14 -9.51,0.28 -19.01,0.6 -28.51,0.93 -0.46,0.02 -0.92,0.1 -1.38,0.14 -11.33,0.91 -22.65,2.15 -33.99,2.66 -23.99,1.08 -48,1.8 -72.01,2.57 -1.94,0.06 -2.45,0.68 -2.5,2.75 -0.22,8.63 0.12,17.27 -0.41,25.91 -0.97,15.53 -1.45,31.09 -2.46,46.62 -1.26,19.25 -1.33,38.55 -2.04,57.82 -0.09,2.32 0.57,2.83 2.65,2.76 25.87,-0.81 51.74,-1.52 77.62,-2.25 46.56,-1.33 93.13,-2.64 139.7,-3.94 z m -222.48,5.49 c 0.17,-1.01 0.28,-1.38 0.3,-1.75 0.68,-20.27 0.91,-40.55 2.1,-60.79 0.5,-8.51 0.79,-17.04 1.36,-25.54 0.97,-14.73 1.6,-29.46 1.46,-44.23 -0.02,-2.5 -0.83,-3.89 -3.2,-4.69 -4.13,-1.39 -8.15,-3.2 -12.17,-4.96 -7.69,-3.36 -15.34,-6.82 -23.02,-10.21 -2.41,-1.06 -3.16,-0.61 -3.13,2.09 0.13,16.77 -0.68,33.52 -0.96,50.27 -0.34,19.78 -0.72,39.56 -2.22,59.27 -0.42,5.55 1.83,8.82 5.08,11.8 5.43,4.97 11.06,9.69 16.7,14.39 5.69,4.76 11.51,9.35 17.7,14.35 z M 436.7,158.24 c -0.26,-12.51 0.65,-26.87 -0.32,-41.23 -0.24,-3.61 -0.73,-4.13 -4.12,-3.88 -3.96,0.29 -7.96,0.48 -11.84,1.26 -1.54,0.31 -3.39,0.65 -4.7,2.1 -10.89,12.03 -21.77,24.07 -33.02,35.7 -1.13,1.17 -0.87,1.94 0.03,2.94 2,2.23 4.45,4.19 5.82,6.81 1.53,2.92 2.34,1.53 3.62,0.17 6.82,-7.24 14.58,-13.27 21.85,-19.92 1.05,-0.96 2.53,-2.33 3.91,-1.67 1.92,0.92 0.13,2.67 0.03,3.97 -1.17,14.52 -1.33,29.09 -1.83,43.64 -0.57,16.36 -0.45,32.74 -0.63,49.12 -0.04,3.39 -0.71,6.31 -1.83,9.51 -0.06,0.18 -0.14,0.38 -0.29,0.49 -0.13,0.1 -0.31,0.13 -0.48,0.15 -4.18,0.58 -8.37,1.07 -12.54,1.73 -4.31,0.68 -8.64,1.31 -13.01,1.32 -1.81,0.01 -2.47,0.6 -2.39,2.59 0.13,3.21 0.17,6.44 0.03,9.64 -0.09,2.16 0.64,2.74 2.56,2.66 6.74,-0.28 13.49,-0.19 20.22,-0.61 10.88,-0.68 21.79,-0.23 32.68,-1.41 6.47,-0.7 13.05,-1.52 19.6,-0.18 1.55,0.32 2.46,-0.1 2.18,-2.23 -0.48,-3.58 -0.86,-7.18 -1.03,-10.79 -0.12,-2.61 -0.91,-3.58 -3.46,-3.38 -5.71,0.44 -11.45,0.53 -17.17,0.74 -0.98,0.04 -2.36,0.41 -2.55,-1.04 -0.23,-1.78 -0.99,-3.33 -1.24,-5.12 -0.7,-4.9 -0.05,-9.77 -0.15,-14.65 -0.46,-22.18 -1.35,-44.38 0.07,-68.43 z M 312.64,326.79 c 0.01,0 0.03,0 0.04,0 0,-3.12 -0.03,-6.23 0.01,-9.35 0.02,-1.59 -0.46,-2.47 -2.08,-2.33 -1.1,0.09 -2.22,0 -3.33,0 -1.36,0.01 -2.18,0.52 -2.46,2.18 -0.72,4.36 -3.36,6.97 -7,8.62 -9.04,4.09 -18.72,4.33 -28.24,5.47 -4.12,0.49 -8.29,0.49 -12.44,0.68 -1.45,0.07 -3.28,1.71 -4.22,0.15 -1.04,-1.72 1.36,-2.17 2.07,-3.33 5.05,-8.35 11.9,-15.03 17.83,-22.57 6.95,-8.85 14.59,-17.04 20.7,-26.68 3.16,-4.99 5.76,-10.38 7.34,-16.08 1.53,-5.51 2.07,-11.26 1.49,-16.95 -0.25,-2.46 -0.7,-4.91 -1.32,-7.3 -0.49,-1.87 -1.21,-3.67 -1.78,-5.52 -0.34,-1.1 -0.51,-2.34 -1.06,-3.39 -0.67,-1.29 -1.9,-1.82 -3.12,-2.48 -1.69,-0.91 -3.3,-1.99 -5.13,-2.6 -1.97,-0.65 -4.02,-0.99 -6.07,-1.33 -8.94,-1.47 -17.45,0.49 -25.72,4.09 -10.71,4.66 -17.05,13.6 -20.7,25.14 -0.64,2.02 -0.09,2.99 2.05,2.86 2.86,-0.16 5.73,-0.21 8.59,-0.08 1.7,0.08 2.46,-0.57 2.91,-2.32 0.77,-3.02 1.89,-5.89 3.97,-8.18 6.67,-7.33 14.64,-10.99 24.22,-10.29 4.84,0.36 8.3,3.26 9.8,8.3 2.39,8.05 0.24,15.57 -3.32,22.26 -5.56,10.43 -12.65,19.82 -20.06,28.77 -8.34,10.08 -17.37,19.47 -25.96,29.31 -2.85,3.27 -5.82,6.46 -8.2,10.2 -1.56,2.47 -2.26,5.64 -1.44,8 0.64,1.84 3.77,1.23 5.87,1.14 0.74,-0.03 1.48,-0.11 2.21,-0.16 16.97,-1.09 33.94,-2.12 50.9,-3.29 7.1,-0.49 14.23,-0.12 21.31,-1.16 1.99,-0.29 2.44,-1.15 2.37,-3.07 -0.1,-2.88 -0.03,-5.8 -0.03,-8.71 z m 255.94,-8.77 c 3.12,-1.23 5.9,-0.8 8.63,-1.07 9.99,-0.96 17.47,4.11 21.41,13.91 5.43,13.52 -4.66,30.9 -19.43,30.06 -6.32,-0.36 -11.75,-2.99 -17.11,-6.26 -4.14,-2.52 -6.49,-6.75 -9.21,-10.65 -1.25,-1.8 -2.5,-2.19 -4.19,-0.76 -1.75,1.48 -3.49,2.98 -5.34,4.3 -1.47,1.05 -1.3,2.1 -0.47,3.46 1.11,1.84 2.62,3.32 3.67,5.26 2.47,4.57 5.95,8.46 10.15,10.87 5.76,3.31 11.97,6.02 18.57,6.58 12.77,1.08 27.49,-2.94 34.01,-17.19 5.81,-12.69 7.28,-25.11 -0.87,-37.44 -2.81,-4.26 -6.67,-6.81 -10.83,-8.97 -0.74,-0.38 -1.84,0.1 -2.26,-1.17 -0.45,-1.38 0.51,-2.02 1.19,-2.78 1.59,-1.81 3.59,-3.16 4.81,-5.38 5.53,-10.06 8.61,-20.66 6.04,-32.47 -1.37,-6.31 -4.99,-10.84 -10.19,-13.7 -4.65,-2.55 -9.87,-2.83 -14.9,-2.59 -11.34,0.53 -20.9,6.04 -29.53,13.7 -1.6,1.42 -2.62,3.31 -3.74,5.17 -1.94,3.21 -2.09,7.28 -4.43,10.26 -0.54,0.69 -0.2,1.08 0.45,1.27 2.93,0.86 5.8,2.01 8.85,2.39 0.95,0.12 1.4,-0.02 1.83,-1.13 4.55,-11.69 12.33,-18.81 24.27,-19.75 3.54,-0.28 7.19,-0.06 10,2.53 7.29,6.74 8.18,18.94 1.89,26.79 -5.26,6.56 -12.24,9.77 -20.06,10.97 -1.05,0.16 -2.25,-0.29 -2.2,1.74 0.08,3.87 0.14,7.77 -1.01,12.05 z m -210.16,27.35 c 0.31,-0.07 0.62,-0.13 0.93,-0.2 0,-4.57 -0.07,-9.14 0.01,-13.7 0.17,-9.03 0.3,-18.06 0.68,-27.07 0.32,-7.61 0.53,-15.24 1.46,-22.8 0.16,-1.34 -0.19,-2.48 -1.42,-2.9 -4.52,-1.57 -8.49,-4.35 -12.73,-6.54 -6.83,-3.53 -14.24,-5.61 -20.86,-9.66 -1.66,-1.01 -1.99,-0.46 -2.05,1.37 -0.17,5.41 -0.08,10.88 -0.78,16.22 -1.73,13.27 -1.01,26.67 -2.02,39.96 -0.05,0.68 -0.1,1.82 0.2,1.99 2.35,1.3 3.7,3.81 6.01,5.29 10.02,6.38 21.16,10.45 30.57,18.04 z m 143.34,-74.78 c -1.64,-1.03 -3.07,-2.18 -4.66,-2.88 -10.08,-4.42 -20.21,-8.73 -30.3,-13.12 -2.01,-0.87 -2.55,-0.02 -2.21,1.98 0.45,2.62 0.9,5.25 1.52,7.82 0.25,1.02 0.34,2.17 -0.61,2.15 -2.34,-0.05 -4.52,1.63 -6.57,1.33 -5.11,-0.74 -10.17,-0.32 -15.19,0.14 -19.44,1.79 -38.95,1.41 -58.41,2.4 -1.05,0.05 -1.92,-0.21 -2.84,-0.86 -5.65,-3.98 -11.67,-7.16 -18.01,-9.59 -1.29,-0.49 -1.55,-1.35 -1.09,-2.54 0.72,-1.87 -0.04,-2.03 -1.51,-1.84 -3.11,0.41 -6.23,0.81 -9.36,0.97 -8.48,0.44 -16.97,0.74 -25.46,1.12 -0.6,0.03 -1.47,-0.36 -1.73,0.46 -0.32,1.04 0.69,1.28 1.27,1.65 2.79,1.78 5.72,3.25 8.75,4.52 5.67,2.38 11.46,4.53 16.75,7.84 7.48,4.69 15.37,6.63 23.93,4.79 0.54,-0.12 1.1,-0.09 1.66,-0.11 17.36,-0.59 34.68,-1.97 52.02,-2.7 22.79,-0.96 45.61,-0.95 68.38,-2.75 1.17,-0.08 2.38,0.14 3.67,-0.78 z M 415.43,145.32 c -4.9,4.02 -8.79,8.27 -12.97,12.16 -2.46,2.29 -3.62,4.64 -3.88,8.46 -0.97,14.09 -2.55,28.13 -4.03,42.17 -0.89,8.49 -1.66,16.97 -1.45,25.53 0.03,1.4 -0.08,2.53 1.74,3.12 4.9,1.59 9.97,2.76 14.48,5.57 1.61,1 2.56,0.64 2.68,-1.62 0.45,-8.62 1.35,-17.21 1.27,-25.86 -0.18,-21.7 1.04,-43.34 2.15,-64.98 0.07,-1.29 0.01,-2.59 0.01,-4.55 z M 180.72,336.56 c 3.44,1.99 6.87,2.38 9.74,4.05 7.45,4.34 15.59,6.76 23.24,10.48 3.41,1.66 6.73,1.83 10.21,1.59 6.08,-0.42 12.18,-0.54 18.26,-0.84 17.16,-0.86 34.36,-1.07 51.52,-1.99 16.78,-0.9 33.49,-3.17 50.34,-3.09 3.15,0.02 6.39,-0.54 10.14,-0.58 -9.01,-7.3 -18.76,-11.59 -27.58,-17.61 -2.63,-1.8 -5.12,-2.74 -8.27,-2.09 -3.15,0.65 -4.18,1.55 -3.69,4.95 0.45,3.13 0.05,6.19 -0.11,9.29 -0.08,1.58 -0.86,2.39 -2.21,2.6 -1.73,0.28 -3.48,0.7 -5.22,0.68 -12.49,-0.11 -24.88,1.7 -37.35,2.03 -4.15,0.11 -8.3,0.47 -12.45,0.71 -9.13,0.52 -18.24,1.47 -27.4,1.53 -2.09,0.01 -4.18,-0.18 -5.8,-1.62 -2.7,-2.41 -6.51,-3.07 -8.55,-6.5 -0.33,-0.56 -1,-0.36 -1.52,-0.49 -1.65,-0.42 -3.73,-1.48 -3.74,-2.99 -0.01,-2.73 -1.34,-2.38 -2.77,-2.28 -8.71,0.6 -17.48,0.51 -26.79,2.17 z M 286.2,249.45 c 0.31,-3.99 -1.01,-6.91 -4.08,-9.27 -3.08,-2.37 -6.25,-1.95 -9.55,-1.4 -0.68,0.11 -1.62,-0.32 -1.95,0.62 -0.27,0.77 0.56,1.17 0.94,1.69 2.72,3.71 3.96,7.88 3.36,12.63 -0.65,5.13 -2.43,9.86 -4.41,14.51 -2.68,6.3 -7.12,11.25 -11.24,16.35 -12.33,15.25 -26.26,28.76 -39.83,42.66 -2.99,3.07 -3.19,6.14 -0.45,9.63 1.33,1.69 3.01,2.59 4.78,3.46 3.41,1.69 3.75,1.54 4,-2.65 0.19,-3.27 1.19,-5.95 3.42,-8.25 6.96,-7.2 13.48,-14.88 19.79,-22.74 10.68,-13.31 20.55,-27.35 30.11,-41.64 3.11,-4.67 4.82,-9.88 5.11,-15.6 z M 378,151.39 c 1.81,0.25 2.63,-1.16 3.54,-2.21 4,-4.59 7.63,-9.54 11.95,-13.82 6.49,-6.42 12.84,-13.01 19.22,-19.55 2.05,-2.1 1.99,-2.38 -0.73,-3.31 -1.76,-0.6 -3.55,-1.12 -5.35,-1.56 -3.33,-0.82 -6.07,-0.46 -8.81,2.59 -6.46,7.17 -13.28,13.95 -20.19,20.61 -3.8,3.66 -7.67,7.22 -11.28,11.11 -0.89,0.96 -1.38,1.63 0.14,2.34 3.76,1.76 7.7,2.82 11.51,3.8 z m 218.47,99.88 c -5.44,-6.49 -12.89,-7.62 -20.11,-8.32 -6.15,-0.6 -12.33,1.3 -18.11,3.7 -12.57,5.2 -21.48,14.51 -25.87,28.6 -0.47,1.49 -0.06,2.19 1.08,2.41 2.4,0.45 4.59,1.42 6.73,2.62 0.81,0.46 1.65,0.32 2.05,-0.78 0.97,-2.62 2.8,-4.69 3.78,-7.34 1.29,-3.47 3.15,-6.55 5.93,-8.93 13.17,-11.25 27.63,-16.72 44.52,-11.96 z M 293.09,224.39 c -4.44,-3.29 -8.78,-6.92 -14.38,-7.68 -8.94,-1.22 -17.63,-0.74 -25.84,4.01 -6.38,3.69 -12.81,7.27 -17.4,13.58 -3.43,4.72 -5.71,10 -6.02,16.16 -0.17,3.37 2.24,3.55 4.14,4.21 2.13,0.75 1.36,-1.59 1.79,-2.48 0.98,-2.04 1.55,-4.3 2.5,-6.35 3.02,-6.53 6.9,-12.36 12.79,-16.16 9.76,-6.31 20.28,-9.34 31.72,-8.25 3.74,0.35 7.26,1.26 10.7,2.96 z m -35.12,104.79 c 9.17,0.74 17.55,-0.76 25.95,-1.94 4.49,-0.63 8.9,-1.5 13.09,-3.52 2.39,-1.15 4.3,-2.76 5.31,-5.39 0.49,-1.28 0.81,-2.71 -0.69,-3.69 -1.73,-1.13 -3.44,-2.31 -5.1,-3.56 -1.22,-0.91 -1.97,-0.97 -2.81,0.65 -0.99,1.9 -2.13,3.76 -3.82,5.09 -8.05,6.34 -17.36,7.09 -26.82,7.03 -0.76,0 -1.18,0.08 -1.59,0.62 -1.1,1.45 -2.18,2.91 -3.52,4.71 z m 311.99,26.78 c 7.24,4.21 14.42,2.68 20.88,-1.79 6.62,-4.57 7.06,-12.25 6.28,-19.9 -0.57,-5.62 -3.65,-10.23 -6.96,-11.13 3.02,19.55 -5.99,34.1 -20.2,32.82 z m -8.48,-54.93 c 3.31,1.94 5.85,1.29 8.64,1.07 6.09,-0.49 11.24,-3.17 16.19,-6.48 9,-6.02 10.22,-20.86 1.78,-27.32 -0.29,0.64 0.15,1.14 0.28,1.7 1.77,7.82 -0.15,14.73 -5.35,20.09 -4.7,4.84 -10.28,8.5 -16.95,9.56 -1.33,0.21 -2.61,0.77 -4.59,1.38 z M 382.01,265.89 c 0,-4.8 -0.02,-9.28 0.02,-13.75 0.01,-0.81 -0.16,-1.47 -0.86,-1.67 -4.17,-1.22 -7.33,-4.49 -11.18,-6.36 -1.16,-0.56 -2.16,-0.83 -2.09,1.23 0.04,1.3 -0.13,2.6 -0.1,3.9 0.03,1.3 -0.88,4.6 -1.23,4.64 -0.26,1.53 -1.2,3.74 0.72,4.55 4.96,2.1 9.53,5.11 14.72,7.46 z m 166.27,74.31 c -0.28,-0.28 -0.6,-0.61 -0.93,-0.91 -0.86,-0.76 -1.75,-1.47 -2.59,-2.25 -6.74,-6.23 -8.99,-6.05 -14.99,1.17 -0.19,0.22 -0.38,0.44 -0.57,0.66 -0.69,0.77 -0.52,1.28 0.29,1.86 2.69,1.93 5.32,3.95 7.99,5.93 0.7,0.52 1.44,0.93 2.32,0.45 2.98,-1.65 5.39,-4.18 8.1,-6.24 0.13,-0.09 0.19,-0.31 0.38,-0.67 z m 6.93,-31.98 c 0.64,1.44 -1.36,3.62 0.83,4.94 2.73,1.66 5.51,3.23 8.27,4.84 1.13,0.66 1.94,0.57 2.23,-0.99 0.23,-1.28 0.58,-2.54 0.69,-3.83 0.55,-6.76 0.53,-6.75 -5.23,-9.11 -0.69,-0.28 -1.32,-0.72 -1.99,-1.05 -3.7,-1.83 -4.43,-1.39 -4.69,2.86 -0.06,0.71 -0.08,1.42 -0.11,2.34 z M 408.03,245.27 c -0.81,0.14 -2.67,-0.93 -3.46,-1.21 -1.22,-0.43 -2.43,-0.86 -3.65,-1.29 -1.45,-0.52 -2.89,-1.05 -4.34,-1.59 -0.86,-0.32 -1.69,-0.85 -2.62,-0.97 -1.07,-0.14 -1.63,0.43 -2.51,0.87 -2.01,0.98 -4.31,1 -6.49,1.12 -0.85,0.05 -9.7,1.72 -9.67,1.8 0.57,1.62 1.8,1.95 2.81,2.57 2.38,1.47 4.87,0.99 7.43,0.77 7.26,-0.65 14.56,-0.68 22.5,-2.07 z m 120.8,97.91 c 1.98,8.2 16.78,22.83 24.21,23.9 -4.4,-3.16 -7.03,-7.34 -9.66,-11.58 -1.21,-1.95 -2.51,-4.66 -4.11,-5.39 -3.7,-1.71 -6.82,-4.23 -10.44,-6.93 z M 406.75,108.07 c 8.43,5.09 17.29,2.78 26.75,1.52 -9.2,-6.36 -18.14,-1.68 -26.75,-1.52 z m -23.47,54.29 c -4.69,-5.32 -8.76,-11.55 -16.75,-11.46 2.16,1.86 2.99,4.59 4.58,6.77 0.85,1.17 1.41,3.07 2.77,3.17 3.17,0.25 6.26,0.84 9.4,1.52 z m 73.31,81.34 c -4.9,-2.77 -10.23,-3.69 -15.45,-5.02 -0.88,-0.22 -2.08,-0.67 -1.93,0.98 0.13,1.39 -1.41,3.87 1.29,3.98 5.35,0.2 10.72,0.06 16.09,0.06 z M 296.3,308.81 c 3.75,4.91 8.02,5.1 12.9,3.39 -4.22,-1.56 -8.1,-3.65 -12.9,-3.39 z" />
			</g>
		</g>
	</g>
</g>
</svg>
