<?xml version="1.0" encoding="utf-8"?>
<!-- Generator: Adobe Illustrator 23.0.2, SVG Export Plug-In . SVG Version: 6.00 Build 0)  -->
<svg version="1.1" xmlns="http://www.w3.org/2000/svg" xmlns:xlink="http://www.w3.org/1999/xlink" x="0px" y="0px"
	 viewBox="0 0 841.89 595.28" style="enable-background:new 0 0 841.89 595.28;" xml:space="preserve">
<style type="text/css">
	.st0{fill:#ECC5BF;}
	.st1{fill:#F8E2D2;}
	.st2{fill:#CBF4FF;}
	.st3{fill:#FF3A5B;}
	.st4{fill:#E7BA9F;}
	.st5{fill:#422918;}
	.st6{fill:#E59C8B;}
	.st7{fill:#FFFFFF;}
	.st8{fill:#1D70B7;}
	.st9{fill:#FFDD4C;}
	.st10{fill:#007EFF;}
	.st11{fill:#97E6FC;}
	.st12{fill:#FFF88A;}
	.st13{fill:#FF6671;}
	.st14{fill:#D9D9D9;}
	.st15{fill:#50E3C2;}
	.st16{fill:#B1B1B1;}
	.st17{fill:#868686;}
	.st18{fill:#C89B83;}
	.st19{fill:#E3C9BB;}
	.st20{fill:#ECECEC;}
	.st21{fill:#FF8438;}
	.st22{fill:#DEB496;}
	.st23{fill:#EACEB3;}
	.st24{fill:#ECDCD2;}
	.st25{fill:#F5F5F5;}
	.st26{fill:url(#SVGID_1_);}
	.st27{fill:url(#SVGID_2_);}
	.st28{fill:#AE846C;}
	.st29{fill:#9E6D57;}
	.st30{fill:#C6C6C5;}
	.st31{fill:#F6ECE3;}
	.st32{fill:#E7BCA9;}
	.st33{fill:#F6D8C7;}
	.st34{fill:#F6E9DA;}
	.st35{fill:#1D1D1B;}
	.st36{fill:none;}
</style>
<g id="colour">
</g>
<g id="Layer_3">
	<path class="st7" d="M505.52,345.81c0.72-1.79,3.79-2.82,5.62-4.44c1.98-1.74,3.57-3.91,4.77-6.18c1.71-3.23,2.67-6.74,3.21-10.46
		c1.25-8.52,1.23-17.04,0.92-25.59c-0.18-5.02-0.59-10.02-0.89-15.04c-0.04-0.7-0.46-1.14-1-1.54c-1.55-1.17-1.64-3.03-2.05-4.7
		c-0.28-1.15,0.91-1.16,1.58-1.37c4.94-1.54,10.04-1.77,16.11-1.75c3.6-0.32,7.97,0.51,12.18,2.18c0.74,0.29,2.22,0,2.04,1.14
		c-0.2,1.29-0.19,3.1-1.8,3.61c-1.56,0.49-2.01,1.53-1.99,2.87c0.07,7.69-1.1,15.29-1.7,22.92c-0.13,1.71,0.29,3.31,0.81,4.92
		c0.64,1.97,0.38,4.36,1.14,6.01c1.5,3.25,2.72,6.87,5.63,9.3c1.65,1.38,3.45,2.58,5.22,3.81c1.02,0.71,2.21,0.67,2.55-0.58
		c0.47-1.69,1.4-1.39,2.51-1.01c1.93,0.67,3.93,0.95,5.89,0.42c1.57-0.43,1.51,0.28,1.5,1.41c-0.05,3.07-1.18,6.13-0.01,9.23
		c0.43,1.14-0.69,1-1.33,1.09c-3.48,0.51-6.95,0.96-10.33,2.02c-2.36,0.74-3.77,2.29-3.87,4.63c-0.11,2.81-1.36,4.99-2.85,7.22
		c-2.88,4.31-6.32,7.96-10.78,10.69c-3.74,2.3-7.69,2.97-11.94,2.35c-4.15-0.6-8.03-1.81-11.58-4.23
		c-4.32-2.95-6.34-7.26-7.85-11.97C506.51,350.45,504.8,347.62,505.52,345.81z"/>
	<path class="st3" d="M536.31,353.94c1.51,0,2.78,0.03,4.06-0.01c1.11-0.03,2.72-0.31,2.58,1.19c-0.12,1.21-1.05,2.97-2.56,3
		c-3.23,0.06-6.44-0.64-9.68,0.42c-1.03,0.34-1.7-1.19-1.41-2.01c0.46-1.34,0.74-2.92,2.43-3.58c1.5-0.58,2.75-1.62,3.9-2.75
		c0.84-0.82,1.06-1.87,0.43-2.84c-0.72-1.11-1.59-0.37-2.51-0.06c-1.27,0.42-2.91,2.2-3.91,0.24c-0.92-1.8,0.8-3.07,2.24-3.99
		c2.42-1.54,5.61-1.26,7.04,0.51c1.62,2,1.26,5.23-0.79,7.42C537.47,352.17,536.69,352.75,536.31,353.94z"/>
	<path class="st3" d="M525.32,354.32c0.07,4.25-0.77,4.41-4.21,3.3c-2.64-0.85-4.18-2.92-6.43-4.09c-0.95-0.49-1.07-1.49-0.08-2.11
		c2.7-1.71,5.99-2.14,8.72-3.83c0.41-0.25,1.11,0.12,1.05,0.64C524.11,350.56,525.79,352.6,525.32,354.32z"/>
	<g>
		<path class="st31" d="M571.81,322.53c-1.85-1.26-3.78-2.48-5.94-3.06c-1.15-0.3-2.34-0.42-3.45-0.83
			c-1.87-0.68-3.38-2.15-4.42-3.84c-3.07-5.02-1.75-12.25,2.89-15.86c4.64-3.61,11.98-3.11,16.09,1.09
			c0.71,0.72,1.34,1.57,1.54,2.56c0.14,0.69,0.06,1.4-0.01,2.09c-0.63,5.75-1.32,11.69-4.23,16.69"/>
	</g>
	<g>
		<path class="st32" d="M523.48,214.86c3.57-2.08,7.92,0.63,12.02,1.15c7.02,0.89,13.39-4.86,20.47-4.83c0.77,0,1.56,0.08,2.22,0.48
			c1.45,0.89,1.63,2.89,1.62,4.58c-0.04,18.08-3.43,39.11-8.27,56.53c-10.34-4.13-21.66-6.17-31.27-0.54
			c-0.9,0.53-1.84,1.11-2.88,1.11c-3.76,0.01-3.63-6.15-6.62-8.43c-1.15-0.88-2.79-1.17-3.54-2.4c-0.9-1.47-0.01-3.35,0.85-4.85
			c7.6-13.28,13.16-27.73,16.42-42.69"/>
	</g>
	<g>
		<path class="st17" d="M500.79,404.92c-2.5-0.24-4.03,2.66-4.61,5.1c-1.79,7.48-1.39,15.46,1.13,22.72
			c-5.73-1.5-12.93-2.56-16.61,2.09c-0.44,0.55-0.83,1.19-1.47,1.47c-1.4,0.62-2.93-0.79-4.46-0.67c-1.7,0.13-2.66,2.05-2.84,3.74
			s0.08,3.49-0.64,5.03c-1.49,3.17-7.16,2.61-8-0.79c-0.25-1-0.13-2.08-0.5-3.05c-0.88-2.33-4.8-2.51-5.89-0.27
			c-0.51-1.69-1.05-3.45-2.3-4.7c-1.25-1.25-3.42-1.76-4.77-0.63c-1.06,0.88-1.27,2.4-1.4,3.78c-0.95,9.76-1.55,19.55-1.81,29.35
			c-0.03,1.05-0.04,2.15,0.43,3.09c1.06,2.11,4.17,2.4,6.21,1.18c2.03-1.21,3.23-3.41,4.33-5.5c2.82,3.54,9.23-4.08,12.48-0.93
			c-0.58,2.02,0.51,4.38,2.42,5.25c1.91,0.87,4.4,0.15,5.55-1.6c0.87,3.76,3.05,7.48,6.61,8.96c3.56,1.49,8.47-0.22,9.37-3.97
			c0.78-3.24-1.13-7.56,1.59-9.48c0.97-0.68,2.23-0.74,3.42-0.78c3.5-0.11,7-0.21,10.51-0.32c2.76,4.93,2.32,11.47-1.08,15.98
			c-1.28,1.69-2.92,3.11-4,4.92c-2.71,4.53-0.89,11.15,3.75,13.66c1.44,0.78,3.17,1.28,4.03,2.66c0.66,1.05,0.65,2.37,0.63,3.61
			c-0.33,16.42-0.67,78.56-1,94.98c8.8,2.17,18.2,2.13,26.82-0.66c1.24-0.4,2.53-0.91,3.27-1.98c0.74-1.08,0.74-5.22,0.72-6.53
			c-0.28-13.13-0.55-69.56-0.83-82.68c-0.04-2.04,0.05-4.39,1.65-5.66c0.73-0.58,1.67-0.83,2.46-1.31c1.58-0.95,2.48-2.74,2.95-4.52
			c2.15-8.15-3-16.19-5.57-24.21c-2.51-7.83,0.33-15.57,0.29-23.79c0-0.9-2.89-2.48-2.41-3.24c0.53-0.83,1.49-1.24,2.39-1.65
			c12.27-5.59,20.14-19.55,18.58-32.94c-0.08-0.73-0.21-1.49-0.69-2.05c-0.65-0.75-1.75-0.89-2.74-0.97
			c-18.49-1.6-37.04-2.56-55.6-2.88"/>
	</g>
	<path class="st11" d="M534.14,404.14c3.92,0,7.84,0.11,11.75-0.03c6.41-0.22,12.75-0.95,18.76-3.42c1.79-0.74,3.19-1.87,3.42-3.94
		c0.33-2.94,0.73-5.87,0.87-8.82c0.45-9.27,2.21-18.37,3.27-27.56c0.63-5.47,1.61-10.9,1.62-16.43c0-1.87-0.61-2.47-2.45-1.72
		c-2.53,1.02-5.17,1.62-7.9,1.9c-2.39,0.24-4.73,0.74-7.04,1.41c-1.35,0.39-2.04,1.17-2.19,2.5c-0.77,6.87-5.35,11.52-9.87,15.96
		c-7.14,7.02-15.82,8.68-25.29,5.58c-5.01-1.64-9.35-4.39-12.51-8.82c-2.85-4-4.1-8.62-5.37-13.24c-0.44-1.59-0.95-3.28-2.9-3.36
		c-3.51-0.14-7.03-0.05-10.55,0c-1.39,0.02-1.83,0.79-1.85,2.18c-0.1,6.64-0.33,13.27-0.47,19.9c-0.19,8.32,0.95,16.61,0.68,24.92
		c-0.14,4.37,2.24,6.62,5.55,7.89c6.09,2.34,12.44,4.12,18.98,4.53C518.48,404.05,526.3,404.68,534.14,404.14z"/>
	<path class="st32" d="M467.78,281.49c-0.55,0.22-0.44,0.58-0.46,0.86c-0.7,8.46-0.14,16.91,0.14,25.36
		c0.2,5.93,2.39,10.72,7.45,14.21c2.08,1.43,3.95,0.66,5.61,0.02c1.42-0.54,2.1-2.29,1.51-4.1c-0.27-0.83-0.26-1.75-0.57-2.56
		c-3.38-8.87-6.23-17.94-10.14-26.59C470.21,286.25,468.96,283.88,467.78,281.49z"/>
	<g>
		<path class="st33" d="M636.67,5.26c-31.18,51.58-82.52,79.72-82.52,79.72c-19.84,11.93-38.49,25.84-55.58,41.47
			c-4.41,4.03-8.79,8.27-11.58,13.55c-3.19,6.02-4.1,12.95-4.96,19.71c-5.62,44.23-11.24,88.46-16.86,132.69
			c-1.02,8.04-1.86,16.9,2.73,23.57s16.91,7.77,19.72,0.17c1.16,5.24,2.41,10.68,5.73,14.9c3.32,4.22,7.1,12.3,11.95,10
			c4.39-2.08,8.58-12.69,9.66-17.42c3.96-17.35,1.86-36.02-5.86-52.06c12.48-4.42,26.1-5.55,39.13-3.26
			c1.09,0.19,2.27,0.46,2.97,1.32c0.78,0.95,0.72,2.31,0.57,3.53c-0.94,7.87-3.82,15.39-5.22,23.19c-1.41,7.8-1.13,16.47,3.58,22.85
			c4.71,6.38,14.98,8.92,20.76,3.49c2.87-2.7,4.11-6.67,5.23-10.44c9.11-30.6,20.07-63.33,46.07-81.86
			c8.49-6.05,18.27-10.3,25.99-17.3c16.73-15.15,20.61-39.86,33.66-58.28c8.18-11.55,19.68-20.24,29.7-30.24
			c8.41-8.4,56.35-86.21,71.92-119.29H636.67z"/>
	</g>
	<path class="st16" d="M544.88,487.36c-5.14-0.17-9.94,1.25-14.73,2.84c-1.67,0.56-2.45,1.63-2.31,3.43
		c0.22,2.86,0.34,5.73,0.52,8.6c0.04,0.61-0.03,1.45,0.83,1.49c0.85,0.04,0.89-0.76,0.95-1.4c0.21-2.48,0.03-4.97-0.36-7.41
		c-0.3-1.89,0.36-2.69,2.12-3.28c5.14-1.72,10.36-2.57,15.79-2.35c1.24,0.05,1.5,0.49,1.48,1.54c-0.05,2.32-0.59,4.79,0.04,6.91
		c0.91,3.07-0.93,3.54-2.87,3.98c-6.07,1.38-12.14,2.64-18.45,2.57c-5.39-0.06-10.43-1.48-15.41-3.14c-3.7-1.23-5.93-3.94-5.51-8.2
		c0.05-0.47-0.01-0.96-0.03-1.44c-0.15-4.1,0.3-4.54,4.35-3.87c3.07,0.51,6.09,1.24,8.95,2.56c1.96,0.91,2.99,2.25,2.93,4.46
		c-0.05,2.08,0.04,4.16,0.1,6.23c0.02,0.72,0.1,1.61,1,1.66c1.06,0.06,0.93-0.9,0.92-1.58c-0.03-2.4-0.04-4.8-0.17-7.19
		c-0.13-2.45-1.4-4.13-3.65-5.2c-3.14-1.49-6.43-2.33-9.85-2.78c-1.01-0.13-2.11-0.07-3-1.05c3.1-2.85,4.73-3.08,7.94-0.82
		c2.19,1.54,4.75,1.15,7.11,1.75c4.73,1.2,9.51,1.85,14.43,0.43c2.7-0.78,5-2.01,7.16-3.69c2.23-1.73,2.63-1.58,3.06,1.08
		C548.85,487.4,548.84,487.49,544.88,487.36z"/>
	<path class="st34" d="M579.12,302.14c-1.06,2.98-1.24,6.07-1.22,9.19c0.03,3.61-1.76,6.36-4.26,8.76c-0.52,0.5-1.18,1.17-1.87,0.59
		c-2.59-2.18-6.05-2.38-8.86-3.92c-7.88-4.33-6.88-6.82-4.57-14.41c1.19-3.91,4.82-5.98,10.37-6.13c3.19-0.24,6.64,2.03,10.03,4.51
		C579.35,301.17,579.32,301.57,579.12,302.14z"/>
	<g>
		<rect x="8.65" y="6.58" class="st7" width="439.63" height="501.9"/>
		<path d="M53.64,7.3c0.92,4,0.97,8.09,1.03,12.15c0.09,6.32,0.03,111.1-0.1,117.41c-0.29,13.76,0.89,27.49,0.93,41.24
			c0.06,21.04-1.46,42.03-1.92,63.06c-0.26,11.84-0.23,23.68-0.47,35.51c-1.01,48.95-0.88,97.9-1,146.85
			c-0.02,9.92,0.04,19.84,0.17,29.76c0.11,8.7,4.5,15.21,10.68,20.9c3.3,3.04,6.84,3.24,10.83,2.15c5.03-1.38,9.31-3.93,11.14-8.94
			c1.22-3.33,1.35-7.06,0.21-10.59c-0.36-1.11-0.37-2.2-0.37-3.31c-0.02-62.32-0.03-124.64-0.04-186.96
			C84.71,213.98,84.7,62.97,84.7,10.41c0-1.04,0.09-2.07,0.14-3.11c1.44,0,2.88,0,4.32,0c-0.01,27.83-0.02,154.12-0.02,181.96
			c0,86.14,0.01,172.29,0,258.43c0,5.03,0.94,9.98,1.05,15.02c0.18,8.17-6.14,14.64-12.26,16.95c-5.84,2.2-11.82,3.1-17.3-0.39
			c-7.33-4.68-12.6-10.81-12.82-20.32c-1.25-53.74-0.15-107.49-0.32-161.23c-0.2-63.35-0.04-225.15-0.03-288.5
			c0-0.64-0.04-1.28-0.06-1.92C49.48,7.3,51.56,7.3,53.64,7.3z"/>
		<path d="M130.92,7.3c-0.47,19.91-0.39,138.28,0.61,158.18c0.3,6.09-0.36,12.15-0.38,18.23c-0.03,9.28-0.06,18.55,0.32,27.83
			c0.5,12.4-0.62,24.78-0.51,37.17c0.45,54.39,0.9,108.79,1.65,163.18c0.2,14.54,0.35,29.17,2.77,43.53
			c0.98,5.8,3.15,11.76,8.87,15.27c1.16,0.71,2.29,0.96,3.61,0.96c3.99-0.01,7.69-1.35,11.46-2.35c1.46-0.39,2.43-1.46,3.03-2.87
			c1.39-3.28,1.96-6.71,2.26-10.25c1.54-18.14,0.19-36.29,0.29-54.44c0.2-38.72,0.5-77.43,0.56-116.15
			c0.03-19.6-0.87-39.19-0.55-58.79c0.2-12.39,0.66-24.77,1.36-37.16c0.75-13.33,0.13-26.71,0.17-40.06
			c0.04-14.62-0.43-127.73,1.45-142.29c1.44,0,2.88,0,4.32,0c-1.68,13.93-1.12,126.4-1.38,140.37c-0.17,9.02,0.56,18.07,0.3,27.1
			c-0.43,15.02-1.27,30.03-1.64,45.05c-0.28,11.43-0.39,22.88-0.08,34.31c0.57,21.19,0.48,42.38,0.39,63.58
			c-0.14,31.51-0.36,63.02-0.47,94.53c-0.02,6.79,0.37,13.59,0.47,20.38c0.13,8.64-0.45,17.26-0.96,25.88
			c-0.19,3.3-1.07,6.46-2.33,9.51c-1.36,3.29-3.83,5.15-7.29,5.94c-3.03,0.69-6.52,0.8-8.97,2.2c-2.88,1.65-4.77,0.53-7.28,0.12
			c-4.8-0.78-8.66-2.62-11.14-6.93c-0.55-0.96-1.22-1.91-2.02-2.67c-1.48-1.4-2.24-2.64-0.98-4.76c0.8-1.34-0.2-3.11-0.22-4.71
			c-0.18-15.19-0.21-30.38-0.69-45.55c-1.43-45.65-1.05-91.32-1.41-136.98c-0.45-56.3-1.19-211.06-1.81-267.36
			C126.76,7.3,128.84,7.3,130.92,7.3z"/>
		<g>
			<path class="st35" d="M204.25,280.02c0.38,28.79,0.99,57.59,0.81,86.38c-0.18,28.89,1.32,57.72,1.51,86.59
				c0.03,3.73,0.14,7.63,2.11,10.95c4.14,6.98,9.46,12.49,18.21,13.22c4.9,0.41,9.89,0.84,14.26-1.83
				c6.01-3.67,9.02-9.08,8.89-16.36c-0.31-17.43-0.41-34.87-0.52-52.31c-0.58-98.39-1.13-295.24-1.68-393.63
				c-0.01-1.84-0.53-3.83,1.6-5.08c0.63-0.37,0.44-1.31,0.4-2.03c-2.08,0-4.16,0-6.24,0c-0.09,1.52-0.26,3.03-0.25,4.54
				c0.16,30.63,0.34,159.72,0.52,190.34c0.53,86.69,1.06,173.38,1.59,260.07c0.03,5.37-4.27,10.63-9.53,11.73
				c-2.14,0.45-4.33,0.66-6.44,0.35c-7.57-1.1-15.36-5.28-16.27-14.5c-1.24-12.65-2.35-25.31-2.59-38.02
				c-0.5-27.11-0.96-54.22-1-81.33c-0.03-23.02,0.52-46.05,0.86-69.07c0.2-13.44-0.66-26.86-0.86-40.28
				c-0.13-9.19,0.09-18.39,0.3-27.58c0.43-18.87,0.04-37.74-0.06-56.61c-0.08-13.73-0.23-125.92-0.34-139.65c-2.56,0-5.12,0-7.68,0
				c0.03,2.72,0.05,5.44,0.09,8.16C202.72,69.91,203.52,224.19,204.25,280.02z"/>
			<path class="st35" d="M286.27,457.56c0.22,9.51,5.49,15.64,12.82,20.32c5.48,3.5,11.46,2.59,17.3,0.39
				c6.12-2.3,12.45-8.77,12.26-16.95c-0.11-5.05-1.06-9.99-1.05-15.02c0.01-86.14,0-172.29,0-258.43
				c0-27.83,0.01-154.12,0.02-181.96c-1.44,0-2.88,0-4.32,0c-0.05,1.04-0.14,2.07-0.14,3.11c0,52.56,0.01,203.57,0.01,256.13
				c0.01,62.32,0.02,124.64,0.04,186.96c0,1.11,0.01,2.2,0.37,3.31c1.14,3.53,1,7.26-0.21,10.59c-1.83,5.01-6.11,7.57-11.14,8.94
				c-3.99,1.09-7.53,0.89-10.83-2.15c-6.18-5.69-10.57-12.2-10.68-20.9c-0.12-9.92-0.19-19.84-0.17-29.76
				c0.12-48.95-0.01-97.91,1-146.85c0.24-11.84,0.21-23.68,0.47-35.51c0.46-21.02,1.98-42.02,1.92-63.06
				c-0.04-13.75-1.22-27.48-0.93-41.24c0.13-6.32,0.19-111.1,0.1-117.41c-0.06-4.06-0.11-8.15-1.03-12.15c-2.08,0-4.16,0-6.24,0
				c0.02,0.64,0.06,1.28,0.06,1.92c0,63.35-0.16,225.15,0.03,288.5C286.12,350.08,285.02,403.82,286.27,457.56z"/>
			<path class="st35" d="M366.36,410.26c0.47,15.18,0.5,30.37,0.69,45.55c0.02,1.6,1.02,3.37,0.22,4.71
				c-1.26,2.12-0.51,3.36,0.98,4.76c0.8,0.76,1.47,1.71,2.02,2.67c2.49,4.32,6.35,6.15,11.14,6.94c2.51,0.41,4.4,1.52,7.28-0.12
				c2.45-1.4,5.94-1.51,8.97-2.2c3.46-0.79,5.93-2.66,7.29-5.94c1.26-3.05,2.14-6.21,2.33-9.51c0.5-8.62,1.08-17.24,0.96-25.88
				c-0.1-6.8-0.49-13.59-0.47-20.38c0.1-31.51,0.33-63.02,0.47-94.53c0.09-21.19,0.19-42.38-0.39-63.58
				c-0.31-11.43-0.2-22.88,0.08-34.31c0.37-15.02,1.22-30.03,1.64-45.05c0.26-9.03-0.47-18.08-0.3-27.1
				c0.26-13.97-0.3-126.44,1.38-140.37c-1.44,0-2.88,0-4.32,0c-1.87,14.56-1.4,127.68-1.45,142.29
				c-0.04,13.35,0.58,26.73-0.17,40.06c-0.7,12.38-1.16,24.77-1.36,37.16c-0.32,19.6,0.58,39.19,0.55,58.79
				c-0.05,38.72-0.36,77.43-0.56,116.15c-0.09,18.15,1.25,36.3-0.29,54.44c-0.3,3.54-0.87,6.97-2.26,10.25
				c-0.6,1.41-1.57,2.48-3.03,2.87c-3.77,1-7.48,2.33-11.46,2.35c-1.32,0-2.45-0.25-3.61-0.96c-5.71-3.51-7.89-9.47-8.87-15.27
				c-2.42-14.37-2.57-29-2.77-43.53c-0.76-54.39-1.2-108.79-1.65-163.18c-0.1-12.39,1.01-24.77,0.51-37.17
				c-0.37-9.27-0.34-18.55-0.32-27.83c0.02-6.08,0.69-12.13,0.38-18.23c-1-19.9-1.08-138.26-0.61-158.18c-2.08,0-4.16,0-6.24,0
				c0.62,56.3,1.37,211.06,1.81,267.36C365.31,318.94,364.93,364.61,366.36,410.26z"/>
			<path class="st35" d="M522.88,161.36c-0.36-0.61-0.72-1.27-1.59-1.34c-1.01,0.32-0.77,0.97-0.42,1.68
				c1.55,3.18,2.08,6.69,3.24,9.99c2.17,6.17,3.15,12.68,5.65,18.77c1.98,4.84,5.42,8.86,7.25,13.76c0.19,0.51,0.6,1.03,1.28,0.74
				c0.65-0.28,0.6-0.9,0.41-1.45c-0.67-1.98-1.6-3.83-2.75-5.57c-3.02-4.58-5.32-9.51-6.59-14.81c-1.33-5.6-3.22-11.02-4.68-16.57
				C524.21,164.78,523.82,162.96,522.88,161.36z"/>
			<path class="st35" d="M485.43,445.24c-0.68,0-1.96-0.04-3.23,0.02c-0.72,0.03-1.59,0.2-1.5,1.15c0.08,0.8,0.92,0.73,1.54,0.78
				c2.94,0.21,5.9-0.39,8.83,0.2c0.5,0.1,0.98-0.16,1.1-0.69c0.16-0.71-0.38-0.93-0.94-1.14
				C489.53,444.9,487.77,445.18,485.43,445.24z"/>
			<path class="st35" d="M537.29,330.54c2.42,0,1.86-2.57,1.89-4.21c0.23-11.97,0.38-23.95,0.6-35.93c0.04-1.99,0.32-3.97,0.43-5.96
				c0.07-1.15-0.35-2.14-1.62-2.25c-1.17-0.1-1.68,0.76-1.82,1.81c-0.14,1.03-0.31,2.06-0.33,3.09
				c-0.27,13.09-0.51,26.18-0.76,39.27C535.78,327.94,534.7,330.54,537.29,330.54z"/>
			<path class="st35" d="M525.86,326.14c0,0.96,0.02,1.92,0,2.88c-0.03,1.23,0.21,2.38,1.67,2.41c1.46,0.03,1.78-1.17,1.81-2.35
				c0.12-5.67,0.63-11.33,0.21-17c-0.65-8.86-0.57-17.71,0.51-26.55c0.16-1.32-0.01-2.54-1.6-2.67c-1.57-0.12-1.97,1.04-2.06,2.37
				c-0.17,2.55-0.29,5.11-0.54,7.65C524.75,303.96,527.04,315.05,525.86,326.14z"/>
			<path class="st35" d="M782.42,5.26c-24.84,32.14-46.62,66.89-63.65,103.67c-2.08,3.24-4.16,6.49-6.19,9.77
				c-6.25,10.1-14.41,18.64-23.75,26.08c-5.01,3.99-9.27,8.74-12.31,14.52c-3.45,6.55-5.05,13.81-8.16,20.47
				c-3.84,8.24-6.95,16.86-13.16,23.83c-2.88,3.23-5.98,6.21-9.14,9.15c-6.68,6.2-14.02,11.33-22.42,14.96
				c-4.77,2.06-9.78,4.17-12.49,8.86c-3.07,5.29-6.54,10.35-8.95,16.06c-1.92,4.54-4.47,8.78-7.26,12.84
				c-4.75,6.92-8.22,14.36-11.37,22.01c-1.4,3.4-2.79,6.8-3.28,10.49c-0.22,1.68-0.69,2.72-2.62,1.08
				c-2.07-1.75-4.46-3.07-7.25-3.51c-12.63-2.03-16.4,7.05-16.15,16.89c0.01,0.37,0.22,0.78,0.44,1.1c2.31,3.41,5.25,5.93,9.38,6.93
				c1.95,0.47,4.05,0.84,5.29,2.69c-0.28,0.58-0.7,0.55-1.09,0.58c-7.52,0.57-13.66-2.17-18.53-7.74c-1.63-1.86-2.49-4.3-2.47-6.77
				c0.02-2.72,0.15-5.43,0.23-8.15c0.26-8.21,1.75-16.11,5.36-23.57c2.38-4.92,4.09-10.14,5.03-15.52
				c1.34-7.72,2.54-15.46,3.86-23.19c1.26-7.35,2.24-14.73,1.07-22.17c-0.37-2.38-0.8-4.98-2.06-6.92
				c-0.95-1.47-2.34-2.82-3.08-4.46c-1.34-3-3.04-5.81-4.41-8.76c-1.48-3.19-3.86-5.87-4.8-9.35c-1.29-4.78-2.51-9.61-4.34-14.19
				c-2.57-6.42-3.24-13.11-3.82-19.86c-0.1-1.17-0.05-2.44-1.54-2.52c-1.61-0.08-1.92,1.21-1.89,2.49c0.07,3,0.2,6.01,0.33,9.01
				c0.13,3.08,0.78,6.14,2.07,8.94c2.31,5.01,3.21,10.47,5.06,15.64c1.9,5.31,4.9,10,7.13,15.1c1.04,2.38,1.92,4.65,2.28,7.21
				c0.27,1.95-0.69,2.3-2.13,2.03c-1.58-0.3-2.96,0.03-4.52,0.35c-7.36,1.5-14.81,2.49-22.37,1.62c-0.55-0.06-1.24,0.03-1.38-0.67
				c-0.71-3.54-3.58-5.81-5.17-8.83c-1.99-3.79-5.24-6.62-7.87-9.93c-0.56-0.71-1.45-1.34-2.26-0.54c-0.95,0.94,0.3,1.3,0.78,1.81
				c4.6,4.82,8.25,10.35,11.87,15.9c0.38,0.58,0.75,1.41,0.63,2.02c-0.59,2.99,0.02,6.07-0.83,9.03
				c-3.19,11.04-7.91,21.4-13.82,31.24c-1.57,2.61-1.52,2.48-4.02,0.77c-1.6-1.09-3.04-2.68-5.26-2.54
				c-0.79,0.05-1.49,0.33-1.49,1.22c0,1.02,0.67,0.92,1.5,0.89c2.47-0.09,4.68,2.21,4.92,4.65c0.19,1.95,0.6,3.8,1.63,5.64
				c2.23,4.03,4.49,8.08,5.23,12.79c0.9,5.75,2.12,11.46,3.17,17.19c0.08,0.42,0.33,0.94-0.2,1.25c-1.03-0.27-2.02-0.59-3.03-0.76
				c-0.74-0.13-1.79-0.44-1.94,0.72c-0.14,1.09,0.84,1.1,1.65,1.25c4.35,0.82,4.34,0.84,4.57,5.03c0.03,0.58,0.16,1.53,0.27,2.1
				c1.55,7.67,2.31,15.35,0.55,23.14c-0.26,1.14-0.81,2.21-1.63,3.05c-1.74,1.79-3.19,3.91-3.61,6.37c-0.57,3.35-4.11,5.91-7.45,5.7
				c-1.28-0.08-2.85,0-3.02-1.94c-0.08-0.95-0.67-1.74-1.51-2.18c-1.43-0.74-2.26-2.03-2.58-3.42c-1.28-5.53-3.73-10.72-4.73-16.33
				c-1.32-7.45-4.45-14.33-6.98-21.38c-2.18-6.07-5.37-11.78-7.67-17.82c-2.18-5.73-5.62-11.23-4.41-17.85
				c0.33-1.8,0.38-3.65,0.54-5.48c0.51-5.65,0.41-11.36,1.71-16.92c1.12-4.75,1.92-9.54,2.62-14.37c0.65-4.52,0.61-9.13,1.47-13.56
				c1.89-9.67,2.67-19.47,3.77-29.22c1.02-9.04,1.83-18.12,2.92-27.16c0.83-6.91,3.87-12.67,9.18-17.11
				c7.89-6.61,16.47-12.39,24.01-19.44c1.46-1.36,2.95-2.66,4.47-3.95v0.38c13.94-9.73,27.89-21.73,41.83-31.46
				c12.72-8.88,26.05-17.32,37.04-28.36c10.61-10.67,19.66-23.01,28.43-35.2c3.17-4.41,6.27-8.88,9.31-13.39h-6.02
				c-2.14,3.15-4.32,6.27-6.53,9.37C616.58,27,607.44,39.5,596.69,50.31c-11.14,11.2-24.74,19.7-37.64,28.7
				c-12.65,8.82-25.29,16.65-37.94,25.36h-0.54c-8.38,7.64-17.03,14.96-26.09,21.78c-4.23,3.18-8.29,6.48-11.58,10.7
				c-4.74,6.09-6.25,13.23-6.96,20.61c-0.73,7.55-1.53,15.1-2.35,22.64c-1.04,9.59-1.78,19.24-3.69,28.75
				c-0.95,4.76-0.77,9.69-1.56,14.52c-0.7,4.26-1.28,8.52-2.35,12.71c-1.49,5.85-1.41,11.89-1.92,17.85
				c-0.39,4.63-1.12,9.2-2.02,13.75c-2.16,10.94-2.09,21.99-1.57,33.06c0.1,2.22,0.1,4.44,0.14,6.66
				c0.15,9.59,4.62,16.61,12.89,21.45c1.54,0.9,3.12,1.37,4.8,0.72c2-0.77,4.14-0.21,6.15-0.83c1.08-0.33,1.11,0.62,1.36,1.24
				c1.05,2.58,0.87,5.54,2.47,7.98c0.52,0.8-0.34,1.07-0.86,1.38c-2.41,1.48-3.22,3.67-3.39,6.45c-0.97,15.35-0.36,30.69,0.15,46.03
				c0.07,2.24-0.12,4.56,0.43,6.68c0.78,3.05,2.74,5.49,5.48,7.2c1.34,0.83,3.4,1.35,3.86,2.51c0.48,1.2-0.87,3.01-0.91,4.57
				c-0.15,5.75-1.72,11.62,1.16,17.17c0.73,1.4-0.34,1.24-1.09,1.23c-3.34-0.07-6.66-0.74-10.01,0.03
				c-1.89,0.44-3.94,0.11-4.49,2.95c-0.24,1.25-2.17,1.32-3.54,1.29c-4.42-0.11-4.91,0.37-4.97,4.81c-0.07,4.75,0.65,3.78-3.87,4.14
				c-2.59,0.21-3.08-0.48-2.49-3.07c0.77-3.42,0.66-3.7-2.68-3.42c-2.38,0.2-4.33,0.49-4.87-2.71c-0.24-1.43-1.94-1.17-3.1-1.1
				c-1.37,0.08-1.78-0.44-1.79-1.78c-0.23-18.55-0.95-37.11-0.63-55.65c0.29-16.88-0.03-33.74-0.37-50.6
				c-0.31-15.57-0.89-31.13-0.67-46.7c0.23-15.84,0.13-31.68-0.33-47.51c-0.34-11.83,0.74-23.72,0.02-35.54
				c-0.53-8.68-1.42-17.34-1.28-26.05c0.13-8.47,0.51-16.96,0.38-25.41c-0.2-13.49,0.27-125.47-0.82-138.94h-7.68
				c0.7,4.84,0.7,9.72,0.77,14.58c0.12,8.61-0.07,115.68,0.11,124.29c0.29,13.19,0.22,26.39,0.58,39.58
				c0.29,10.86,0.28,21.73,1.33,32.57c0.7,7.23,1.66,14.43,1.68,21.73c0.06,18.15-0.13,36.29,0.3,54.44
				c0.45,18.54-0.1,37.09,0.76,55.65c1,21.58-0.16,43.18-0.39,64.77c-0.15,13.66-1.02,27.31-1.53,40.97
				c-0.63,17.02-0.63,34.06,0.22,51.09c0.19,3.77,0.05,3.79-3.59,4.05c-1.27,0.09-2.55,0.14-3.83,0.18
				c-18.31,0.52-36.6,1.35-54.9,2.23c-17.09,0.82-34.18,1.86-51.28,2.26c-19.43,0.46-38.87,0.36-58.31,0.45
				c-22.87,0.11-45.74,0.46-68.61-0.42c-16.14-0.62-180.03,0.16-196.15-1.02v4.32c9.34,0.55,166.39,1.1,175.75,0.96
				c4.73-0.07,9.47-0.18,14.19,0.05c21.94,1.05,43.91,1.08,65.87,0.64c30.96-0.62,61.94,0.53,92.87-1.61
				c12.44-0.86,24.93-0.97,37.38-1.67c16.84-0.95,33.71-1.37,50.56-1.9c1.52-0.05,3.05-0.2,4.51,0.97c1.33,1.06,2.73,0.21,3.07-1.37
				c0.28-1.3,0.96-2.34,1.42-3.51c0.83-2.14,2.09-4.72,0.29-6.56c-1.91-1.95-1.92-4.11-1.97-6.31c-0.13-5.92,0.01-11.84-0.07-17.76
				c-0.03-2.03,0.17-3.55,2.7-3.73c0.79-0.06,1.76-0.65,2.23-1.3c1.55-2.14,4.01-1.98,6.09-2.3c2.01-0.31,2.78-0.8,2.21-2.8
				c-0.46-1.62,0.31-2.04,1.75-1.64c1.49,0.41,3.41-0.87,4.26,0.01c0.87,0.9,0.64,2.85,0.91,4.33c0.21,1.17,0.9,1.77,2.11,1.92
				c2.24,0.28,4.39,0.16,6.46-1.32c0.23,2.33-0.3,4.88,2.57,5.3c2.83,0.42,5.67,0.94,8.55,0.82c0.72-0.03,1.58-0.09,1.58-1.07
				c0-1.05-0.88-0.98-1.59-0.9c-2.51,0.31-4.9-0.57-7.38-0.67c-2.39-0.1-1.61-2.22-1.6-3.56c0.02-1.61,1.29-1,2.15-0.79
				c2.1,0.52,4.32-0.08,6.4,0.76c0.63,0.25,1.6,0.19,1.8-0.69c0.25-1.1-0.82-0.84-1.41-1.13c-2.33-1.12-4.89-0.51-7.32-0.99
				c-1.74-0.34-2.02-1.09-2.04-2.49c-0.04-2.88-0.05-5.74-0.3-8.62c-0.67-7.73-1.02-15.47-0.35-23.22c0.11-1.31,0.6-2.18,2.17-2.33
				c2.7-0.26,5.35-0.34,8.09-0.17c2.61,0.16,2.69,1.23,2.58,3.23c-0.37,6.86-1.22,13.72-0.74,20.6c0.46,6.53,0.28,13.11,1.25,19.61
				c0.14,0.95-0.01,2.16,1.28,2.21c1.31,0.05,1.69-1.05,1.68-2.18c-0.01-2.48-0.09-4.96-0.14-7.43c-0.08-3.4-0.09-3.34,3.39-3.09
				c2.62,0.18,5.37,1.01,8.18-1.46c0,2.98-0.19,5.51,0.05,7.99c0.28,2.97-0.42,4.97-3.18,6.71c-2.6,1.63-5.08,4.33-4.22,7.73
				c0.72,2.84,0.74,5.66,1.16,8.48c0.66,4.41,0.98,9,6.51,10.37c1.46,0.36,1.18,1.68,1.22,2.78c0.58,16.41-0.52,76.1-0.46,92.5
				c3.06,0.13,1.74,0.07,4.8,0.2c0.61-8.38-0.88-60.03-0.2-68.42c0.6-7.42,0.74-14.87,0.27-22.31c-0.16-2.54,0.19-3.06,2.07-2.73
				c6.93,1.19,13.85,1.05,20.71-0.53c1.33-0.31,1.63,0.11,1.69,1.38c0.64,13.34,0.82,69.99,1.15,83.34c0.08,3.27-0.28,6.61,0.89,9.8
				c2.33-0.35,1.81-0.27,4.14-0.61c0.2-5.33,0.02-10.65-0.19-15.98c-0.42-10.71-0.5-64.73-0.16-75.44c0.07-2.39,0.79-3.99,3.15-4.94
				c3.91-1.57,5.93-4.47,5.33-8.85c-0.63-4.59-1.15-9.19-1.99-13.74c-0.37-2.03-1.53-3.91-3.22-5.22c-0.96-0.74-1.24-1.52-1.21-2.64
				c0.25-9.51,0.48-19.02,0.69-28.53c0.03-1.14,0.3-2.02,1.5-2.43c3.26-1.12,5.62-3.56,8.16-5.71c1.72-1.45,2.93-3.31,3.99-5.33
				c3.9-7.41,2.01-15.55,2.89-23.32c0.18-1.56,0.58-1.75,1.5-2c3.81-1.06,6.54-3.15,7.69-7.12c0.47-1.62,0.03-3.17,0.16-4.76
				c0.94-11.86,2.5-23.66,4.19-35.43c0.68-4.75,1.26-9.51,1.44-14.3c0.16-4.46-1.54-6.58-5.9-7.26c-1.45-0.23-1.61-0.84-1.58-2.02
				c0.06-2.32,0.14-4.64-0.03-6.95c-0.08-1.11,0.1-1.63,1.1-2.23c3.67-2.19,6.27-5.34,8.02-9.28c1.79-4.05,2.68-8.35,3.98-12.53
				c4.11-13.24,9.53-25.92,16.26-38.05c4.84-8.73,10.32-17.12,14.37-26.27c1.71-3.86,4.54-6.33,8.34-7.77
				c10.92-4.13,19.95-11.18,28.11-19.17c7.6-7.45,13.27-16.55,18.96-25.53c3.35-5.27,5.04-11.39,8.4-16.68
				c1.89-2.97,2.93-6.34,3.78-9.79c1.2-4.87,3.89-8.69,8.04-11.79c9.87-7.4,18.93-15.74,26.75-25.31c2.4-2.93,3.92-5.99,5.38-9.1
				h1.54c17.73-39.32,38.32-76.43,64.33-110.47H782.42z M480.92,321.49c-1.67,0.64-3.54,1.41-5.61-0.02
				c-5.06-3.49-7.25-8.28-7.45-14.21c-0.28-8.45-0.84-16.9-0.14-25.36c0.02-0.28-0.08-0.64,0.46-0.86c1.18,2.39,2.43,4.76,3.53,7.19
				c3.92,8.66,6.77,17.73,10.14,26.59c0.31,0.81,0.3,1.74,0.57,2.56C483.02,319.2,482.33,320.94,480.92,321.49z M453.85,473.55
				c-0.68,0.39-1.38,1.06-2.19,0.67c-0.91-0.43-0.54-1.42-0.54-2.17c-0.03-5.6-0.01-11.2-0.01-16.8c0.09,0,0.18,0,0.27,0
				c0-5.68-0.01-11.36,0.02-17.04c0-0.85-0.48-2.12,1.1-2.15c1.62-0.03,1.13,1.35,1.16,2.13c0.14,4.07,0.35,8.16,0.17,12.23
				c-0.27,6.49,0.36,12.95,0.46,19.42c0.01,0.55,0.01,1.24,0.32,1.6C455.68,472.7,454.67,473.07,453.85,473.55z M456.86,445.49
				c0.05-0.79,0-1.59,0.01-2.38c0.04-2.56,1.71-3.81,4.24-3.28c0.78,0.16,0.8,0.57,0.72,1.19c-0.11,0.87-0.17,1.74-0.25,2.61
				c0.01,0,0.01,0,0.02,0c-0.05,0.63-0.19,1.28-0.13,1.9c0.22,1.99-0.62,2.55-2.58,2.53C456.86,448.04,456.76,446.99,456.86,445.49z
				 M459.56,470.58c-1.36,0.32-2.32-0.04-2.28-1.78c0.07-2.95,0.02-5.91,0.02-8.86c-0.15,0-0.31,0-0.46,0c0-2.8,0.04-5.59-0.02-8.39
				c-0.02-1.2,0.31-1.91,1.62-1.6c1.1,0.26,2.96-0.88,2.95,1.57c-0.02,5.68,0.42,11.33,0.91,16.99
				C462.49,470.78,460.72,470.31,459.56,470.58z M469.02,465.1c-0.3-0.09-0.65-0.01-0.95-0.1c-1.34-0.4-3.06,1.09-3.95-0.28
				c-0.66-1.02-0.49-2.63-0.52-3.98c-0.11-4.07-0.11-8.14-0.2-12.21c-0.02-1.05,0.16-1.73,1.42-1.41c0.07,0.02,0.16-0.01,0.24-0.01
				c5.15-0.51,5.15-0.51,5.17,4.8c0.01,1.36,0,2.71,0,4.07c0.05,0,0.09,0,0.14,0c0,2.64-0.01,5.27,0.01,7.91
				C470.38,464.83,470.2,465.48,469.02,465.1z M476.81,470.92c-1.56,0.02-3.35,0.61-3.31-2.25c0.07-6.05-0.88-12.1-0.42-18.17
				c0-3.75,0.04-7.5-0.02-11.25c-0.02-1.41,0.08-2.2,1.94-1.96c3.76,0.5,3.85,0.38,3.61,4.27c-0.56,8.96,0.9,17.83,1.05,26.76
				C479.7,470.81,478.46,470.91,476.81,470.92z M547.74,218.98c1.77-2.59,5.14-2.61,7.81-3.71c0.66-0.27,0.72,0.64,0.94,1.12
				c1.47,3.28,2.02,6.7,1.5,10.09c0.85,6.1-1.32,11.62-2.79,17.08c-2.15,7.97-2.41,16.07-3.36,24.14c-0.07,0.63-0.02,1.28-0.09,1.91
				c-0.28,2.55-0.57,2.67-2.97,1.76c-3.95-1.49-8.19-1.15-12.28-1.81c-2.2-0.35-4.45-0.53-6.67-0.52c-1.72,0.01-1.85-0.74-1.48-2.04
				c1.23-4.31,2.87-8.49,4.79-12.52c2.83-5.94,5.04-12.08,6.65-18.44C541.35,229.85,544.17,224.21,547.74,218.98z M515.26,270.35
				c-0.74,0.31-1.16-0.04-1.43-0.78c-0.34-0.98-0.61-2.07-1.24-2.84c-3.09-3.78-2.2-7.11-0.21-11.33
				c5.32-11.25,9.99-22.81,13.06-34.93c0.33-1.3,0.83-1.95,2.38-2.06c5.18-0.36,10.36-0.29,15.99-0.26
				c-1.08,2.01-1.92,3.62-2.8,5.21c-1.43,2.6-2.83,5.26-3.52,8.11c-2.46,10.15-6.75,19.6-10.71,29.18
				c-0.89,2.14-1.71,4.31-2.07,6.61c-0.2,1.29-0.75,1.95-2.15,2C520.1,269.35,517.61,269.36,515.26,270.35z M505.69,344.77
				c0.72-1.79,3.79-2.82,5.62-4.44c1.98-1.74,3.57-3.91,4.77-6.18c1.71-3.23,2.67-6.74,3.21-10.46c1.25-8.52,1.23-17.04,0.92-25.59
				c-0.18-5.02-0.59-10.02-0.89-15.04c-0.04-0.7-0.46-1.14-1-1.54c-1.55-1.17-1.64-3.03-2.05-4.7c-0.28-1.15,0.91-1.16,1.58-1.37
				c4.94-1.54,10.04-1.77,16.11-1.75c3.6-0.32,7.97,0.51,12.18,2.18c0.74,0.29,2.22,0,2.04,1.14c-0.2,1.29-0.19,3.1-1.8,3.61
				c-1.56,0.49-2.01,1.53-1.99,2.87c0.07,7.69-1.1,15.29-1.7,22.92c-0.13,1.71,0.29,3.31,0.81,4.92c0.64,1.97,0.38,4.36,1.14,6.01
				c1.5,3.25,2.72,6.87,5.63,9.3c1.65,1.38,3.45,2.58,5.22,3.81c1.02,0.71,2.21,0.67,2.55-0.58c0.47-1.69,1.4-1.39,2.51-1.01
				c1.93,0.67,3.93,0.95,5.89,0.42c1.57-0.43,1.51,0.28,1.5,1.41c-0.05,3.07-1.18,6.13-0.01,9.23c0.43,1.14-0.69,1-1.33,1.09
				c-3.48,0.51-6.95,0.96-10.33,2.02c-2.36,0.74-3.77,2.29-3.87,4.63c-0.11,2.81-1.36,4.99-2.85,7.22
				c-2.88,4.31-6.32,7.96-10.78,10.69c-3.74,2.3-7.69,2.97-11.94,2.35c-4.15-0.6-8.03-1.81-11.58-4.23
				c-4.32-2.95-6.34-7.26-7.85-11.97C506.68,349.41,504.96,346.58,505.69,344.77z M506.89,462.23c-3.09-0.19-6.19-0.4-9.28-0.48
				c-0.96-0.02-0.81-0.59-0.81-1.08c-0.05-4.47-0.06-8.94-0.09-13.42c-0.01-0.95,0.24-1.45,1.37-1.39c2.55,0.13,5.11,0.19,7.66,0.15
				c1.66-0.02,2.24,0.7,2.27,2.28c0.04,2.15,0.26,4.3,0.44,6.96c0,1.5-0.05,3.5,0.02,5.49C508.5,461.94,507.98,462.3,506.89,462.23z
				 M496.75,440.84c0.14-1.4,0.33-2.78,0.58-4.8c2.22,2.49,4.11,4.3,6.73,6.01c-2.44,0.63-4.44,0.27-6.42,0.19
				C496.76,442.21,496.69,441.5,496.75,440.84z M543.19,485.9c-5.14-0.17-9.94,1.25-14.73,2.84c-1.67,0.56-2.45,1.63-2.31,3.43
				c0.22,2.86,0.34,5.73,0.52,8.6c0.04,0.61-0.03,1.45,0.83,1.49c0.85,0.04,0.89-0.76,0.95-1.4c0.21-2.48,0.03-4.97-0.36-7.41
				c-0.3-1.89,0.36-2.69,2.12-3.28c5.14-1.72,10.36-2.57,15.79-2.35c1.24,0.05,1.5,0.49,1.48,1.54c-0.05,2.32-0.59,4.79,0.04,6.91
				c0.91,3.07-0.93,3.54-2.87,3.98c-6.07,1.38-12.14,2.64-18.45,2.57c-5.39-0.06-10.43-1.48-15.41-3.14
				c-3.7-1.23-5.93-3.94-5.51-8.2c0.05-0.47-0.01-0.96-0.03-1.44c-0.15-4.1,0.3-4.54,4.35-3.87c3.07,0.51,6.09,1.24,8.95,2.56
				c1.96,0.91,2.99,2.25,2.93,4.46c-0.05,2.08,0.04,4.16,0.1,6.23c0.02,0.72,0.1,1.61,1,1.66c1.06,0.06,0.93-0.9,0.92-1.58
				c-0.03-2.4-0.04-4.8-0.17-7.19c-0.13-2.45-1.4-4.13-3.65-5.2c-3.14-1.49-6.43-2.33-9.85-2.78c-1.01-0.13-2.11-0.07-3-1.05
				c3.1-2.85,4.73-3.08,7.94-0.82c2.19,1.54,4.75,1.15,7.11,1.75c4.73,1.2,9.51,1.85,14.43,0.43c2.7-0.78,5-2.01,7.16-3.69
				c2.23-1.73,2.63-1.58,3.06,1.08C547.16,485.95,547.16,486.03,543.19,485.9z M512.6,449.62c-0.02-0.64,0-1.29-0.13-1.91
				c-0.69-3.3-0.68-3.4,2.72-2.77c8.16,1.52,16.34,1.75,24.54,0.46c1.59-0.25,1.94,0.31,1.91,1.74c-0.07,3.44-0.02,6.87-0.02,10.31
				c0.32,5.36-0.41,10.7-0.4,16.05c0,0.95-0.24,2.13,0.65,2.68c2.17,1.34,0.73,2.44-0.22,3.32c-2.34,2.16-5.36,2.84-8.39,3.08
				c-5.37,0.42-10.66-0.07-15.82-1.86c-3.66-1.27-5.68-4.03-5.53-7.89C512.24,465.11,512.87,457.38,512.6,449.62z M555.72,431.79
				c-0.5,0.94-1.06,1.79-2.03,2.29c-5.2,2.67-10.39,5.1-16.49,5.16c-5.82,0.05-11.64,0.62-17.48,0.62c-6.34,0-11.51-3.06-16.66-6.06
				c-1.71-0.99-2.7-3.12-3.46-5.07c-2.26-5.8-2.53-11.8-1.62-17.91c0.21-1.4,0.76-1.77,2.06-1.46c0.69,0.17,1.44,0.11,2.14,0.27
				c1.15,0.25,3.19-0.75,2.25,2.2c-0.58,1.83,1.91,4.31,4.39,5.03c7.36,2.14,14.72,4.4,20.65,3.56c6.92-0.33,12,0.15,16.87-1.5
				c3.69-1.25,6.22-3.53,6.41-7.69c0.05-1.01,0.48-1.45,1.42-1.53c0.4-0.04,0.79-0.09,1.19-0.16c4.31-0.76,4.17-0.75,4.5,3.58
				C560.36,419.79,558.83,425.95,555.72,431.79z M507.28,411.03c0.22-0.93,0.95-0.6,1.56-0.59c6.62,0.01,13.25,0,19.87,0
				c0,0.21,0,0.41,0,0.62c6.63,0.05,13.26-0.02,19.87-0.51c0.56-0.04,1.35-0.6,1.7,0.23c0.32,0.77-0.29,1.33-0.81,1.84
				c-2.88,2.82-6.39,4.31-10.35,4.29c-7.66-0.05-15.33-0.27-22.99-0.59c-3.13-0.13-5.62-2.12-8.24-3.62
				C507.23,412.31,507.12,411.69,507.28,411.03z M572.93,342.94c1.84-0.74,2.45-0.14,2.45,1.72c-0.01,5.53-0.99,10.96-1.62,16.43
				c-1.06,9.19-2.83,18.3-3.27,27.56c-0.14,2.95-0.54,5.89-0.87,8.82c-0.23,2.07-1.63,3.2-3.42,3.94
				c-6.01,2.47-12.35,3.2-18.76,3.42c-3.91,0.14-7.83,0.03-11.75,0.03c-7.84,0.55-15.66-0.09-23.47-0.58
				c-6.54-0.41-12.89-2.19-18.98-4.53c-3.31-1.27-5.69-3.52-5.55-7.89c0.27-8.3-0.87-16.6-0.68-24.92
				c0.15-6.63,0.37-13.27,0.47-19.9c0.02-1.39,0.47-2.17,1.85-2.18c3.52-0.04,7.04-0.14,10.55,0c1.94,0.08,2.46,1.78,2.9,3.36
				c1.28,4.62,2.52,9.24,5.37,13.24c3.15,4.43,7.49,7.18,12.51,8.82c9.47,3.1,18.16,1.43,25.29-5.58c4.51-4.44,9.09-9.09,9.87-15.96
				c0.15-1.33,0.84-2.11,2.19-2.5c2.31-0.67,4.66-1.17,7.04-1.41C567.76,344.56,570.4,343.96,572.93,342.94z M578.44,303.01
				c-1.06,2.98-1.24,6.07-1.22,9.19c0.03,3.61-1.76,6.36-4.26,8.76c-0.52,0.5-1.18,1.17-1.87,0.59c-2.59-2.18-6.05-2.38-8.86-3.92
				c-7.88-4.33-6.88-6.82-4.57-14.41c1.19-3.91,4.82-5.98,10.37-6.13c3.19-0.24,6.64,2.03,10.03,4.51
				C578.67,302.05,578.64,302.45,578.44,303.01z"/>
		</g>
	</g>
</g>
</svg>
