<?xml version="1.0" encoding="utf-8"?>
<!-- Generator: Adobe Illustrator 23.0.2, SVG Export Plug-In . SVG Version: 6.00 Build 0)  -->
<svg version="1.1" xmlns="http://www.w3.org/2000/svg" xmlns:xlink="http://www.w3.org/1999/xlink" x="0px" y="0px"
	 viewBox="0 0 841.89 595.28" style="enable-background:new 0 0 841.89 595.28;" xml:space="preserve">
<style type="text/css">
	.st0{fill:#ECC5BF;}
	.st1{fill:#F8E2D2;}
	.st2{fill:#CBF4FF;}
	.st3{fill:#FF3A5B;}
	.st4{fill:#E7BA9F;}
	.st5{fill:#422918;}
	.st6{fill:#E59C8B;}
	.st7{fill:#FFFFFF;}
	.st8{fill:#1D70B7;}
	.st9{fill:#FFDD4C;}
	.st10{fill:#007EFF;}
	.st11{fill:#97E6FC;}
	.st12{fill:#FFF88A;}
	.st13{fill:#FF6671;}
	.st14{fill:#D9D9D9;}
	.st15{fill:#50E3C2;}
	.st16{fill:#B1B1B1;}
	.st17{fill:#868686;}
	.st18{fill:#C89B83;}
	.st19{fill:#E3C9BB;}
	.st20{fill:#ECECEC;}
	.st21{fill:#FF8438;}
	.st22{fill:#DEB496;}
	.st23{fill:#EACEB3;}
	.st24{fill:#ECDCD2;}
	.st25{fill:#F5F5F5;}
	.st26{fill:url(#SVGID_1_);}
	.st27{fill:url(#SVGID_2_);}
	.st28{fill:#AE846C;}
	.st29{fill:#9E6D57;}
	.st30{fill:#C6C6C5;}
	.st31{fill:#F6ECE3;}
	.st32{fill:#E7BCA9;}
	.st33{fill:#F6D8C7;}
	.st34{fill:#F6E9DA;}
	.st35{fill:#1D1D1B;}
	.st36{fill:none;}
</style>
<g id="colour">
</g>
<g id="Layer_3">
	<path class="st14" d="M372.04,342.09c0.96,10.19,0.35,21.09-0.39,31.99c-0.11,1.62,0.39,1.61,1.67,1.63
		c5.13,0.09,10.24,0.15,15.35-0.53c3.39-0.45,4.73-1.63,3.46-4.64c-2-4.74-0.41-8.14,3.31-11.17c0.86-0.7,1.57-1.54,1.49-2.7
		c-0.35-5.16-4.21-8.55-9.8-8.55c-2.86,0-4.62-1.16-5.72-3.75c-2.92-6.87-0.82-12.88,3.64-18.2c2.37-2.82,5.79-4.9,10.06-4.1
		c2.16,0.4,2.33-0.56,2.17-2.16c-0.5-5.15-0.83-10.31-0.69-15.49c0.05-1.84-0.55-2.57-2.6-2.37c-6.8,0.64-13.6,1.33-20.45,0.8
		c-1.9-0.14-2.11,0.83-1.94,2.33c0.25,2.18,0.41,4.39,0.42,6.59C372.07,321.64,372.04,331.5,372.04,342.09z"/>
	<path class="st14" d="M403.26,442.98c0.16,1.77-0.76,3.6,0.27,5.33c2.64,4.43,9.53,4.8,12.62,0.63c5.14-6.94,6.16-15.03,6.69-23.16
		c0.19-2.83-3.08-2.42-4.92-3.25c-1.47-0.67-2.18,0.28-2.77,1.4c-1.96,3.7-4.68,6.44-9.42,6.5c-0.81,0.01-1.3,0.21-1.27,1.15
		C404.59,435.43,402.94,439.1,403.26,442.98z"/>
	<path class="st14" d="M418.79,347.95c-1.32-4.3-4.26-7.24-7.52-9.89c-2.36-1.92-5.36-3.32-7.03-5.79
		c-2.31-3.41-6.18-2.95-9.15-3.17c-5.14-0.38-9.08,3.15-10.47,7.88c-0.4,1.34-0.52,3.08,1.47,3.56c3.52,0.85,6.61,2.68,10.05,3.71
		c3.17,0.95,6.87,0.26,9.54,2.79c0.18,0.17,0.57,0.2,0.86,0.22C410.54,347.5,414.55,347.72,418.79,347.95z"/>
	<g>
		<path class="st18" d="M385.35,440.41c-9.51-12.18-11-30.07-3.63-43.65c4.79-8.84,13.06-16.26,14.31-26.23
			c0.35-2.76,0.21-5.84,2.02-7.97c1.08-1.27,2.78-2.09,3.3-3.68c0.87-2.67-2.17-5.93-0.43-8.14c0.59-0.75,1.57-1.07,2.5-1.3
			c18.81-4.83,38.35,5.35,52.83,18.29c4.06,3.63,7.98,7.59,10.4,12.46c6.59,13.27,0.65,29.33,3.22,43.93
			c1.2,6.81,4.23,13.13,7.22,19.36c5.82,12.1,11.64,24.19,17.46,36.29c19.25,40,38.51,80.03,60.29,118.71
			c2.59,4.59,4.64,11.56,0.05,14.14c-0.95,0.54-2.05,0.75-3.12,0.94c-22.8,4.21-45.88,6.88-69.04,8
			c-6.07,0.29-13.56-0.34-16.09-5.87c-0.87-1.91-0.94-4.07-1.01-6.17c-1.44-40.16-12.08-79.35-22.66-118.13
			c-1.49-5.45-3.04-11.04-6.37-15.6c-2.88-3.94-6.93-6.88-11.07-9.46c-5.65-3.52-11.61-6.53-17.8-8.98
			c4.86-3.03,9.78-6.16,13.52-10.5s6.19-10.15,5.21-15.79c-0.98-5.64-6.11-10.68-11.83-10.3c0.03,4.05-3.38,7.83-7.41,8.2
			c-1.05,0.1-2.18,0.01-3.08,0.55c-1.46,0.87-1.64,2.88-1.65,4.58c-0.03,4.94-0.05,9.88-0.08,14.82c-0.01,1.12-0.08,2.39-0.93,3.12
			c-1.3,1.12-3.29,0.17-4.66-0.85c-5.92-4.39-10.99-9.93-14.83-16.23c-2.18-3.57-4-7.48-4.44-11.64c-0.4-3.7,0.31-7.42,1.01-11.08
			c1.02-5.32,2.04-10.64,3.05-15.96"/>
	</g>
	<g>
		<path class="st22" d="M396.09,373.83c-0.84-2.02-1.52-4.2-1.22-6.37c0.31-2.17,1.86-4.29,4.02-4.61c2.16-0.32,4.13,1.13,6,2.26
			c3.69,2.23,8,3.41,12.31,3.37c1.89-0.01,3.87-0.25,5.61,0.48c1.2,0.5,2.17,1.4,3.12,2.28c2.28,2.13,4.56,4.26,6.85,6.39
			c1.79,1.68,3.75,3.84,3.21,6.24c-0.82,3.62-6.08,3.76-8.69,6.4c3.01,2.41,6.16,5.25,6.69,9.07c0.68,4.81-4.03,9.58-8.85,8.96
			c2.57,2.24,5.39,5.47,4.05,8.6c-0.87,2.05-3.23,3.02-5.42,3.42c-3.31,0.61-6.77,0.4-9.98-0.62c0.93,3.17-1.25,6.63-4.23,8.05
			c-2.98,1.42-6.49,1.18-9.69,0.38c-3.2-0.79-6.27-2.1-9.5-2.77c-2.46-0.51-5.01-0.65-7.41-1.4c-2.4-0.75-4.74-2.27-5.63-4.62
			c-1.69-4.45,2.38-8.92,3.09-13.63c0.46-3.04-0.48-6.34,0.85-9.11c1.39-2.88,4.82-4.27,6.4-7.04c0.66-1.16,0.95-2.49,1.41-3.74
			c1.37-3.74,4.19-6.73,6.94-9.61"/>
	</g>
	<g>
		<path class="st23" d="M429.77,387.9c-1.26-0.41-2.54-0.83-3.59-1.64s-1.84-2.08-1.7-3.39c0.09-0.91,0.61-1.73,1.26-2.38
			c1.39-1.4,3.51-2.11,5.42-1.63c1.92,0.48,3.5,2.22,3.61,4.19s-1.42,3.95-3.38,4.18"/>
	</g>
	<g>
		<path class="st23" d="M425.43,406.22c-0.25-0.69-1.17-0.77-1.79-1.15c-1.04-0.63-1.16-2.18-0.59-3.25
			c0.57-1.07,1.62-1.79,2.64-2.45c0.71-0.47,1.43-0.94,2.14-1.41c0.36-0.24,0.74-0.48,1.16-0.55c0.79-0.13,1.56,0.37,2.08,0.98
			c1.34,1.57,1.51,4.02,0.42,5.77c-1.1,1.75-3.38,2.65-5.38,2.12"/>
	</g>
	<g>
		<path class="st23" d="M419.13,419.73c0.08-1.47-2.43-1.98-2.47-3.45c-0.01-0.45,0.23-0.86,0.46-1.24
			c0.96-1.56,2.38-3.27,4.19-3.04c0.61,0.08,1.17,0.38,1.68,0.73c1.12,0.78,2.07,1.88,2.41,3.2c0.34,1.32-0.01,2.86-1.08,3.71
			c-1.07,0.85-2.84,0.76-3.65-0.33"/>
	</g>
	<g>
		<path class="st23" d="M402.99,426.35c-0.89-0.97-0.72-2.56-0.03-3.68c1.05-1.69,3.3-2.62,5.17-1.94c1.87,0.68,3,3.06,2.14,4.85
			c-0.86,1.8-3.67,2.32-4.98,0.82"/>
	</g>
	<path class="st11" d="M304.18,327.81c-0.19,0-0.38,0-0.56,0c0,52.62,0,105.24,0,157.86c0,0.77,0.01,1.53,0.01,2.3
		c0,0.65,0.25,1.18,1,1.17c4.83-0.03,9.15,2.98,14.13,2.15c0.66-0.11,1.53-0.04,2.05,0.3c3.38,2.19,2.95-0.29,3-2.17
		c0.6-22.8,0.31-45.61,0.39-68.41c0.09-24.91,0.93-49.82-0.33-74.73c-0.31-6.22-1.26-12.39-1.17-18.64
		c0.33-24.33,0.26-48.66,1.66-72.99c1.66-28.78,1.04-57.66,3.14-86.45c0.21-2.89-0.99-3.81-3.78-3.53c-4.5,0.45-8.95,1.19-13.5,1.21
		c-6.03,0.02-6.04,0.12-6.04,6.08C304.18,223.91,304.18,275.86,304.18,327.81z"/>
	<path class="st11" d="M631.04,335.57c-0.01,0-0.01,0-0.02,0c0.88-46.77,1.74-93.53,2.67-140.3c0.05-2.28-0.43-3.16-3.06-3.18
		c-11.68-0.05-23.35-0.36-35.03-0.5c-29.19-0.33-58.39-0.57-87.59-0.94c-30-0.38-59.99-0.85-89.99-1.36
		c-2.32-0.04-3.06,0.57-3.19,2.83c-1.24,21.16-0.68,42.35-0.91,63.52c-0.28,25.48,0.02,50.98,0.73,76.46
		c0.08,2.89,0.52,5.32,2.62,7.58c1.79,1.92,3.02,4.32,3.8,6.8c0.51,1.63,1.18,1.99,3,1.78c4.64-0.53,9.18,0.02,12.38,3.71
		c5.88,6.78,13.59,11.62,20.28,17.55c3.32,2.95,6.66,5.48,8.52,9.66c2.07,4.66,4.68,9.03,5.57,14.17c1.5,8.66-0.35,17.38,0.85,26.03
		c0.8,5.8,0.27,11.71,3.35,17.23c3.57,6.41,6.67,13.08,9.59,19.79c2.66,6.1,5.32,12.19,8.19,18.21c1.1,2.32,2.58,2.87,5.09,2.9
		c42.18,0.42,84.36,0.93,126.55,1.42c3.93,0.05,3.93,0.03,4-3.66C629.28,428.72,630.16,382.15,631.04,335.57z"/>
	<polygon class="st7" points="445.25,360.63 633.7,195.27 451.19,367.9 	"/>
	<polygon class="st7" points="464.41,377.15 633.51,219.94 467.05,385.73 	"/>
	<path class="st7" d="M415.41,334.35c0.7-0.91,0.4-1.8,0.4-2.61c-0.36-47.36-0.74-94.72-1.11-142.08c-0.01-1.44-0.14-2.89,0.07-4.31
		c0.24-1.64,1.37-2.5,2.98-1.43c1.16,0.78,2.25,0.58,3.44,0.54c2.01-0.07,4.1-0.49,6.01-0.1c7.4,1.5,14.96,1.14,22.44,2.1
		c14.65,1.89,29.52,1.28,44.3,1.59c19.02,0.4,38.05,0.47,57.09,0.29c28.2-0.26,56.36,1.25,84.55,1.65c8.26,0.12,8.24,0.27,8.1,8.02
		c-1.55,82.53-3.09,165.07-4.63,247.6c-0.21,11.5-0.42,23.01-0.64,34.51c-0.07,3.95-0.57,4.39-4.82,4.38c-0.5,0-1.01-0.01-1.51-0.01
		c-42.29-0.51-84.58-1.02-126.88-1.52c-3.51-0.04-3.71,0.12-2.37,2.75c5.07,9.92,8.33,20.56,13.3,30.51
		c3.19,6.4,5.41,13.2,9.04,19.42c0.56,0.95,0.88,1.88,2.35,1.75c9.45-0.85,18.93,0.05,28.38-0.45c19.91-1.07,39.83-1.62,59.78-1.46
		c3.93,0.03,7.87,0.16,11.78-0.1c17.09-1.16,34.21-1.21,51.33-0.98c7.17,0.1,14.26-0.95,21.4-0.87c2,0.02,2.87-0.74,2.74-2.77
		c-0.22-3.44-0.08-6.9-0.3-10.35c-1.03-16.36-1.71-32.75-2.01-49.11c-0.48-25.86,0.2-51.73,1.16-77.61
		c1.06-28.73,2.26-57.47,3.31-86.2c0.86-23.58,0.96-47.16-0.38-70.72c-0.54-9.47-1.41-18.93-1.01-28.43
		c0.87-20.34-1-40.61-1.49-60.92c-0.04-1.82-0.81-2.49-2.71-2.61c-3.33-0.2-6.57,0.62-9.99,0.16c-8.57-1.15-17.26-0.59-25.9-1.04
		c-12.15-0.64-24.35-0.42-36.53-0.63c-18.22-0.32-36.41-1.26-54.62-1.89c-18.4-0.64-36.82-1.35-55.22-2.05
		c-53.1-2.01-106.27-1.05-159.37-3c-2.26-0.08-3.04,0.48-3.13,2.57c-0.29,7.65-0.88,15.3-1,22.96c-0.12,7.47,0.38,14.95,0.3,22.42
		c-0.24,21.37-1.45,42.74-0.73,64.12c0.97,28.84,1.71,57.68,1.28,86.53c-0.43,28.75-1.18,57.49-0.17,86.26
		c0.86,24.62-0.5,49.27-0.33,73.9c0.09,13.52,0.03,27.02-0.57,40.53c-0.1,2.16,0.8,2.68,2.74,2.65c5.54-0.07,11.06,0.5,16.59,0.6
		c13.18,0.24,26.29,1.37,39.41,2.47c11.65,0.98,23.33,0.76,35,0.26c1.96-0.08,2.1-0.73,1.87-2.48c-0.67-4.92-2.58-9.5-2.52-14.75
		c0.08-7.07-2.2-14.17-5.35-20.78c-2.25-4.72-4.1-9.59-5.63-14.55c-2.35-7.62-6.42-13.69-14.51-16.85
		c-2.28-0.89-4.22-2.59-6.33-3.88c-5.35-3.27-10.1-7.27-14.96-11.13c-6.89-5.47-13.34-11.26-17.31-19.18
		c-1.71-3.41-2.47-7.07-3.9-10.54c-2.02-4.92-1.89-10.01-0.14-14.93c1.12-3.14,1.81-6.24,1.73-9.55c-0.09-3.66,1.13-6.9,3.41-9.91
		c2.11-2.79,3.85-5.84,5.76-8.76c0.95-1.46,0.6-2.03-1.25-1.95c-3.32,0.14-6.64,0.11-9.96,0.22c-1.3,0.04-2.49-0.63-3.86-0.23
		c-3.15,0.92-3.8,0.44-3.59-2.6c0.34-4.88,0.31-9.76,0.24-14.65c-0.22-16.66-1.82-33.31-0.18-49.98c0.33-3.33,0.27-6.71,0.11-10.05
		c-0.18-3.7,0.32-4.29,4.28-4.43c8.45-0.3,16.89-0.66,25.33-1.03c2.94-0.13,3.95,0.68,4.1,3.65c0.31,6.41,0.55,12.83,0.82,19.24
		c0.14,3.35-0.47,7.06,4.49,8.06c0.68,0.14,1.19,1,1.8,1.49C412.82,332.98,413.97,333.89,415.41,334.35z"/>
	<path class="st7" d="M278.54,331.33c0,61.25,0,122.51,0,183.76c0,0.96,0.03,1.92,0,2.88c-0.03,1.21,0.58,1.7,1.83,1.73
		c13.49,0.39,26.97,0.8,40.46,1.21c1.04,0.03,1.81-0.17,1.81-1.35c0-5.87,1.2-11.63,1.58-17.47c0.1-1.54-0.61-1.77-1.98-1.57
		c-4.13,0.59-8.21,0.25-12.3-0.55c-1.88-0.37-3.85-0.92-5.71,0.62c-0.96,0.8-1.88,0.1-2.6-1.02c-1.9-2.97-1.62-6.23-1.62-9.43
		c-0.08-106.21-0.14-212.43-0.2-318.64c0-1.05,0.12-2.17-0.24-3.12c-1.27-3.38,0.33-6.19,4.07-6.71c2.1-0.3,4.24-0.24,6.32,0.17
		c5.28,1.02,10.63,0.64,15.95,0.93c1.75,0.09,2.46-0.39,2.59-2.19c0.4-5.65,0.35-11.3,0.52-16.95c0.06-1.93-0.69-2.41-2.62-2.36
		c-14.69,0.38-29.39,0.72-44.09,0.96c-2.22,0.04-3,0.7-2.99,2.8c0.06,13.61-0.05,27.22,0.06,40.83c0.16,20.88,1,41.76,0.18,62.66
		C278.46,276.1,279.16,303.72,278.54,331.33z"/>
	<g>
		<g>
			<path d="M460.88,609.04c-1.79-10.78-3.6-21.56-5.37-32.35c-0.62-3.79-1.16-7.59-2.4-11.25c-2.04-6.02-3.29-12.23-4.89-18.36
				c-0.42-1.63-0.95-2.39-2.96-2.35c-19.95,0.43-39.8-1.36-59.69-2.52c-11.32-0.66-22.69-0.65-34.05-0.6
				c-1.95,0.01-4.5-0.95-5.74-2.31c-2.4-2.62-5.75-3.68-8.67-4.94c-4.51-1.95-9-4.2-13.93-5.24c-0.76-0.16-1.47-0.47-1.57-1.16
				c-0.41-2.66-2.56-2.88-4.52-2.64c-9.79,1.23-19.44-1.13-29.2-0.85c-4.73,0.14-9.3-1.45-13.95-2.27
				c-1.34-0.23-1.81-1.15-1.96-2.24c-0.3-2.18-0.64-4.37-0.73-6.57c-0.66-17.43-1.07-34.87-1.22-52.31
				c-0.19-21.47-0.84-42.94,0.38-64.4c1.44-25.28,1.42-50.57,1.22-75.88c-0.22-27.4,0.42-54.81,0.74-82.22
				c0.26-22.34-0.13-44.66-1-66.98c-0.19-4.88,0-9.78,0.3-14.65c0.32-5.39-1.26-10.67-0.69-16.06c0.35-3.32,2.89-5.64,6.33-5.59
				c8.96,0.11,17.92,0.2,26.87,0.34c6.54,0.1,13.08,0.28,19.61,0.41c7.36,0.15,14.35-0.88,20.4-5.33c1.47-1.08,3.39-1.42,5.18-0.87
				c3.04,0.93,6.13,0.81,9.24,0.96c38.61,1.89,77.26,1.09,115.89,1.99c28.88,0.67,57.76,1.64,86.63,2.63
				c26.05,0.89,52.07,2.18,78.15,2.43c13.78,0.13,27.58,0.38,41.36,0.67c6.43,0.14,12.84,0.94,19.29,0.82
				c2.22-0.04,2.82,1.44,2.83,3.3c0.15,20.32,0.79,40.63,2.27,60.89c2.11,28.94,0.53,57.87,0.87,86.8
				c0.38,32.79-1.07,65.55-1.65,98.32c-0.46,26.16-1.99,52.29-1.78,78.46c0.17,20.8,0.96,41.59,2.03,62.36
				c0.31,5.98-1.75,8.15-7.94,8.87c-16.46,1.89-32.98,1.31-49.47,1.23c-11.19-0.05-22.35,0.38-33.51,0.75
				c-28.88,0.96-57.78,0.75-86.67,0.94c-2.11,0.01-2.26,0.35-1.71,2.21c2.59,8.65,7.77,16.18,11.36,24.36
				c5.8,13.2,14.08,25.2,19.59,38.5c0.36,0.87,1.06,1.66,0.8,2.7c-1.81,0-3.63,0-5.44,0c-0.72-1.78-1.23-3.68-2.19-5.34
				c-8.87-15.14-15.34-31.37-23.85-46.73c-8.79-15.87-14.41-33.25-21.46-49.95c-4.53-10.74-9.21-21.41-14.06-32.01
				c-4.82-10.52-10.43-20.69-14.9-31.37c-3.04-7.28-6.95-14.26-7.32-22.29c-0.31-6.71,0.48-13.39,1.05-20.07
				c0.85-9.98-3.21-18.2-10.56-24.92c-7.04-6.43-14.62-12.31-21.68-18.71c-3.1-2.81-6.07-4.69-10.62-4.82
				c-4.3-0.13-8.7,0.19-12.98-0.8c-2.92-0.67-5.9-1.13-8.85-1.69c-0.65-0.12-1.43-0.57-1.82,0.3c-0.34,0.76,0.25,1.31,0.84,1.66
				c0.46,0.27,1.06,0.32,1.66,0.48c-0.79,0.45-1.89-0.43-2.31,0.94c-1.15,3.81,0,7.04,3.56,9.23c5.13,3.16,11.07,3.72,16.88,4.68
				c0.81,0.13,1.58-0.14,2.29-0.56c1.41-0.84,2.97-1.6,4.43-0.34c1.56,1.34,2.09,3.45,1.18,5.01c-1.26,2.16-0.06,3.15,1.26,4.28
				c0.96,0.83,2.03,1.55,3.11,2.25c3.06,1.96,3.71,5.75,1.32,8.45c-2.14,2.41-4.6,4.31-8.27,3.75c-0.5-1.23-0.46-2.2,1.16-2.63
				c1.06-0.28,2.11-0.65,3.11-1.09c1.62-0.73,2.79-1.79,2.96-3.67c0.17-1.8-1.05-2.51-2.36-3.31c-2.58-1.57-4.6-3.69-6.28-6.12
				c-0.48-0.69-0.8-1.67-1.96-1.51c-4.33,0.61-8.3-0.94-12.43-1.65c-4.33-0.75-7.98-2.46-11.37-4.97c-0.83-0.61-1.35-2.27-2.9-1.2
				c-1.33,0.92-1.92,2.2-1.33,3.78c0.75,2.01,0.9,4.11,1.2,6.2c0.27,1.86-0.16,3.16-1.96,4.03c-3.65,1.78-4.9,4.93-4.96,8.55
				c-0.05,3.24-1.34,6.08-3.98,7.71c-4.4,2.72-4.61,6.64-4.46,10.82c0.04,1.11,0.05,2.09-0.73,2.96c-3.57,3.98-3.5,8.5-2.39,13.3
				c0.59,2.56,2.29,4.72,2.59,7.31c0.31,2.67,1.48,4.93,3.14,7.04c1.2,1.53,2.47,3.07,3.35,4.77c2.56,4.97,6.57,8.64,11.18,11.81
				c1.1,0.76,2.21,1.46,3.21,1.23c-2.47-7.74-2.6-15.26-0.73-23c-6.01,0.03-11.28-2.42-16.54-4.79c-0.9-0.4-2.31-1.1-1.54-2.36
				c0.69-1.14,1.93-0.47,2.98-0.12c4.74,1.57,9.44,3.24,14.24,4.61c4.9,1.4,8.59,0.06,11.08-3.48c0.94-1.34,0.87-2.04-0.72-2.89
				c-5.5-2.93-11.18-5.59-15.84-9.77c-1.08-0.97-2.42-1.84-3.81-2.3c-2.06-0.68-3.53-1.66-4.16-3.72c-0.22-0.72-1.8-1.11-0.9-2.08
				c0.92-0.99,2.11-0.29,3.02,0.25c4.27,2.48,8.16,5.5,12.37,8.1c3.22,1.99,6.5,4.14,9.5,6.54c0.76,0.61,1.66,1.15,2.75,0.99
				c2.93-0.41,5.82,0.3,8.74,0.24c1.14-0.02,2.19-0.06,3.14-0.74c2.32-1.67,2.25-4.39-0.48-6.58c-8.85-7.08-18.11-13.66-27.6-19.93
				c-0.57-0.38-1.09-0.85-1.9-0.44c-0.76,0.39-1.46,0.22-1.58-0.65c-0.16-1.06,0.02-2.16,0.9-2.91c0.62-0.53,1.29-0.18,1.9,0.26
				c7.91,5.72,15.86,11.39,23.73,17.16c1.97,1.45,3.58,2.14,6.32,1.16c5.03-1.8,6.22-3.63,3.97-8.37c-0.49-1.03-1.24-1.96-1.94-2.89
				c-2.07-2.79-5-4.59-7.87-6.57c-6.65-4.58-14.29-7.32-21.41-11.03c-0.76-0.4-2.04-0.33-1.74-1.5c0.27-1.06,1.38-0.91,2.29-0.69
				c0.68,0.16,1.39,0.29,2.01,0.6c5.89,2.91,11.82,5.76,17.6,8.84c2.58,1.38,4.62,3.63,7.5,4.61c2.25,2.94,4.51,5.89,6.76,8.83
				l-0.08-0.08c0.67,4.71,0.03,8.78-5.54,10.56c-0.58,0.19-1.46,0.12-1.7,0.94c4.73,5.93,4.21,8.3-2.78,12.23
				c1.23,1.62,2.42,3.26,2.15,5.42c-0.56,4.47-0.8,8.99-1.67,13.4c-0.75,3.82-1.92,7.66-5.86,9.86c-0.81-0.6,0.53-1.37-0.15-1.92
				c-2.77,1.96-3.57,5.67-7.38,6.5c-1.04,0.23-0.72,1.32-0.26,2.19c0.83,1.59,2.61,1.48,3.88,2.22c5.65,3.3,12.13,5.43,16.57,10.46
				c1.15,1.3,2.94,1.72,4.21,3.1c1.66,1.8,1.25,3.87,1.92,5.74c3.93,11.05,7.94,22.07,10.28,33.58c2.56,12.59,6.43,24.92,8.89,37.54
				c1.78,9.13,2.13,18.47,4.64,27.49c2.8,10.09,3.62,20.61,7.16,30.55C466.52,609.04,463.7,609.04,460.88,609.04z M411.45,332.43
				c0.7-0.91,0.4-1.8,0.4-2.61c-0.36-47.36-0.74-94.72-1.11-142.08c-0.01-1.44-0.14-2.89,0.07-4.31c0.24-1.64,1.37-2.5,2.98-1.43
				c1.16,0.78,2.25,0.58,3.44,0.54c2.01-0.07,4.1-0.49,6.01-0.1c7.4,1.5,14.96,1.14,22.44,2.1c14.65,1.89,29.52,1.28,44.3,1.59
				c19.02,0.4,38.05,0.47,57.09,0.29c28.2-0.26,56.36,1.25,84.55,1.65c8.26,0.12,8.24,0.27,8.1,8.02
				c-1.55,82.53-3.09,165.07-4.63,247.6c-0.21,11.5-0.42,23.01-0.64,34.51c-0.07,3.95-0.57,4.39-4.82,4.38
				c-0.5,0-1.01-0.01-1.51-0.01c-42.29-0.51-84.58-1.02-126.88-1.52c-3.51-0.04-3.71,0.12-2.37,2.75
				c5.07,9.92,8.33,20.56,13.3,30.51c3.19,6.4,5.41,13.2,9.04,19.42c0.56,0.95,0.88,1.88,2.35,1.75c9.45-0.85,18.93,0.05,28.38-0.45
				c19.91-1.07,39.83-1.62,59.78-1.46c3.93,0.03,7.87,0.16,11.78-0.1c17.09-1.16,34.21-1.21,51.33-0.98
				c7.17,0.1,14.26-0.95,21.4-0.87c2,0.02,2.87-0.74,2.74-2.77c-0.22-3.44-0.08-6.9-0.3-10.35c-1.03-16.36-1.71-32.75-2.01-49.11
				c-0.48-25.86,0.2-51.73,1.16-77.61c1.06-28.73,2.26-57.47,3.31-86.2c0.86-23.58,0.96-47.16-0.38-70.72
				c-0.54-9.47-1.41-18.93-1.01-28.43c0.87-20.34-1-40.61-1.49-60.92c-0.04-1.82-0.81-2.49-2.71-2.61c-3.33-0.2-6.57,0.62-9.99,0.16
				c-8.57-1.15-17.26-0.59-25.9-1.04c-12.15-0.64-24.35-0.42-36.53-0.63c-18.22-0.32-36.41-1.26-54.62-1.89
				c-18.4-0.64-36.82-1.35-55.22-2.05c-53.1-2.01-106.27-1.05-159.37-3c-2.26-0.08-3.04,0.48-3.13,2.57
				c-0.29,7.65-0.88,15.3-1,22.96c-0.12,7.47,0.38,14.95,0.3,22.42c-0.24,21.37-1.45,42.74-0.73,64.12
				c0.97,28.84,1.71,57.68,1.28,86.53c-0.43,28.75-1.18,57.49-0.17,86.26c0.86,24.62-0.5,49.27-0.33,73.9
				c0.09,13.52,0.03,27.02-0.57,40.53c-0.1,2.16,0.8,2.68,2.74,2.65c5.54-0.07,11.06,0.5,16.59,0.6
				c13.18,0.24,26.29,1.37,39.41,2.47c11.65,0.98,23.33,0.76,35,0.26c1.96-0.08,2.1-0.73,1.87-2.48c-0.67-4.92-2.58-9.5-2.52-14.75
				c0.08-7.07-2.2-14.17-5.35-20.78c-2.25-4.72-4.1-9.59-5.63-14.55c-2.35-7.62-6.42-13.69-14.51-16.85
				c-2.28-0.89-4.22-2.59-6.33-3.88c-5.35-3.27-10.1-7.27-14.96-11.13c-6.89-5.47-13.34-11.26-17.31-19.18
				c-1.71-3.41-2.47-7.07-3.9-10.54c-2.02-4.92-1.89-10.01-0.14-14.93c1.12-3.14,1.81-6.24,1.73-9.55c-0.09-3.66,1.13-6.9,3.41-9.91
				c2.11-2.79,3.85-5.84,5.76-8.76c0.95-1.46,0.6-2.03-1.25-1.95c-3.32,0.14-6.64,0.11-9.96,0.22c-1.3,0.04-2.49-0.63-3.86-0.23
				c-3.15,0.92-3.8,0.44-3.59-2.6c0.34-4.88,0.31-9.76,0.24-14.65c-0.22-16.66-1.82-33.31-0.18-49.98
				c0.33-3.33,0.27-6.71,0.11-10.05c-0.18-3.7,0.32-4.29,4.28-4.43c8.45-0.3,16.89-0.66,25.33-1.03c2.94-0.13,3.95,0.68,4.1,3.65
				c0.31,6.41,0.55,12.83,0.82,19.24c0.14,3.35-0.47,7.06,4.49,8.06c0.68,0.14,1.19,1,1.8,1.49
				C408.86,331.06,410,331.97,411.45,332.43z M633.28,335.51c-0.01,0-0.01,0-0.02,0c0.88-46.77,1.74-93.53,2.67-140.3
				c0.05-2.28-0.43-3.16-3.06-3.18c-11.68-0.05-23.35-0.36-35.03-0.5c-29.19-0.33-58.39-0.57-87.59-0.94
				c-30-0.38-59.99-0.85-89.99-1.36c-2.32-0.04-3.06,0.57-3.19,2.83c-1.24,21.16-0.68,42.35-0.91,63.52
				c-0.28,25.48,0.02,50.98,0.73,76.46c0.08,2.89,0.52,5.32,2.62,7.58c1.79,1.92,3.02,4.32,3.8,6.8c0.51,1.63,1.18,1.99,3,1.78
				c4.64-0.53,9.18,0.02,12.38,3.71c5.88,6.78,13.59,11.62,20.28,17.55c3.32,2.95,6.66,5.48,8.52,9.66
				c2.07,4.66,4.68,9.03,5.57,14.17c1.5,8.66-0.35,17.38,0.85,26.03c0.8,5.8,0.27,11.71,3.35,17.23c3.57,6.41,6.67,13.08,9.59,19.79
				c2.66,6.1,5.32,12.19,8.19,18.21c1.1,2.32,2.58,2.87,5.09,2.9c42.18,0.42,84.36,0.93,126.55,1.42c3.93,0.05,3.93,0.03,4-3.66
				C631.52,428.66,632.4,382.08,633.28,335.51z M277.48,330.33c0,61.25,0,122.51,0,183.76c0,0.96,0.03,1.92,0,2.88
				c-0.03,1.21,0.58,1.7,1.83,1.73c13.49,0.39,26.97,0.8,40.46,1.21c1.04,0.03,1.81-0.17,1.81-1.35c0-5.87,1.2-11.63,1.58-17.47
				c0.1-1.54-0.61-1.77-1.98-1.57c-4.13,0.59-8.21,0.25-12.3-0.55c-1.88-0.37-3.85-0.92-5.71,0.62c-0.96,0.8-1.88,0.1-2.6-1.02
				c-1.9-2.97-1.62-6.23-1.62-9.43c-0.08-106.21-0.14-212.43-0.2-318.64c0-1.05,0.12-2.17-0.24-3.12c-1.27-3.38,0.33-6.19,4.07-6.71
				c2.1-0.3,4.24-0.24,6.32,0.17c5.28,1.02,10.63,0.64,15.95,0.93c1.75,0.09,2.46-0.39,2.59-2.19c0.4-5.65,0.35-11.3,0.52-16.95
				c0.06-1.93-0.69-2.41-2.62-2.36c-14.69,0.38-29.39,0.72-44.09,0.96c-2.22,0.04-3,0.7-2.99,2.8c0.06,13.61-0.05,27.22,0.06,40.83
				c0.16,20.88,1,41.76,0.18,62.66C277.41,275.11,278.1,302.73,277.48,330.33z M303.84,330.03c-0.19,0-0.38,0-0.56,0
				c0,52.62,0,105.24,0,157.86c0,0.77,0.01,1.53,0.01,2.3c0,0.65,0.25,1.18,1,1.17c4.83-0.03,9.15,2.98,14.13,2.15
				c0.66-0.11,1.53-0.04,2.05,0.3c3.38,2.19,2.95-0.29,3-2.17c0.6-22.8,0.31-45.61,0.39-68.41c0.09-24.91,0.93-49.82-0.33-74.73
				c-0.31-6.22-1.26-12.39-1.17-18.64c0.33-24.33,0.26-48.66,1.66-72.99c1.66-28.78,1.04-57.66,3.14-86.45
				c0.21-2.89-0.99-3.81-3.78-3.53c-4.5,0.45-8.95,1.19-13.5,1.21c-6.03,0.02-6.04,0.12-6.04,6.08
				C303.83,226.13,303.84,278.08,303.84,330.03z M345.59,369.88c0.5-35-0.95-64.41-0.8-93.83c0.1-20.42-1.22-40.81-0.76-61.23
				c0.24-10.73-0.01-21.45,0-32.17c0.01-7.56-0.79-15.14,0.06-22.7c0.82-7.3-0.04-14.55-0.45-21.81c-0.1-1.77-0.82-1.95-2.23-1.13
				c-2.15,1.25-4.26,2.56-6.45,3.72c-1.09,0.58-1.2,1.41-1.22,2.4c-0.27,12.35-0.79,24.69-1.21,37.03
				c-0.61,18-0.55,36.02-2.05,53.99c-1.73,20.75-1.2,41.57-1.95,62.35c-0.65,17.99,0.09,36.03,0.13,54.05
				c0.04,15.24,0.1,30.47,0.59,45.71c0.48,15.23,1.75,30.44,1.12,45.7c-0.26,6.32-0.78,12.64-0.8,18.96
				c-0.06,21.57,1.17,43.12,0.91,64.68c-0.02,1.47,0.6,2.07,1.86,2.83c2.67,1.62,6.06,1.57,8.48,3.61c0.93,0.78,2.22,1.66,3.2,1.3
				c1.28-0.47,0.65-2.06,0.63-3.13C343.93,474.91,346.3,419.62,345.59,369.88z M372.38,342.51c0.96,10.19,0.35,21.09-0.39,31.99
				c-0.11,1.62,0.39,1.61,1.67,1.63c5.13,0.09,10.24,0.15,15.35-0.53c3.39-0.45,4.73-1.63,3.46-4.64c-2-4.74-0.41-8.14,3.31-11.17
				c0.86-0.7,1.57-1.54,1.49-2.7c-0.35-5.16-4.21-8.55-9.8-8.55c-2.86,0-4.62-1.16-5.72-3.75c-2.92-6.87-0.82-12.88,3.64-18.2
				c2.37-2.82,5.79-4.9,10.06-4.1c2.16,0.4,2.33-0.56,2.17-2.16c-0.5-5.15-0.83-10.31-0.69-15.49c0.05-1.84-0.55-2.57-2.6-2.37
				c-6.8,0.64-13.6,1.33-20.45,0.8c-1.9-0.14-2.11,0.83-1.94,2.33c0.25,2.18,0.41,4.39,0.42,6.59
				C372.4,322.05,372.38,331.92,372.38,342.51z M403.59,443.39c0.16,1.77-0.76,3.6,0.27,5.33c2.64,4.43,9.53,4.8,12.62,0.63
				c5.14-6.94,6.16-15.03,6.69-23.16c0.19-2.83-3.08-2.42-4.92-3.25c-1.47-0.67-2.18,0.28-2.77,1.4c-1.96,3.7-4.68,6.44-9.42,6.5
				c-0.81,0.01-1.3,0.21-1.27,1.15C404.92,435.84,403.27,439.52,403.59,443.39z M419.12,348.36c-1.32-4.3-4.26-7.24-7.52-9.89
				c-2.36-1.92-5.36-3.32-7.03-5.79c-2.31-3.41-6.18-2.95-9.15-3.17c-5.14-0.38-9.08,3.15-10.47,7.88c-0.4,1.34-0.52,3.08,1.47,3.56
				c3.52,0.85,6.61,2.68,10.05,3.71c3.17,0.95,6.87,0.26,9.54,2.79c0.18,0.17,0.57,0.2,0.86,0.22
				C410.88,347.91,414.88,348.13,419.12,348.36z"/>
			<path d="M435.05,399.24c-0.88-7.87,2.37-13.86,9.49-18.03c-0.57,0.63-1.05,1.38-1.73,1.88c-4.86,3.59-7.11,8.33-6.98,14.14
				c0.02,0.76,0.11,1.57-0.87,1.93C434.97,399.17,435.05,399.24,435.05,399.24z"/>
			<path d="M429.25,398.98c-4.65,1.26-4.65,1.26-5.53,5.05c-1.7-1.33-1.77-2.64-0.17-5C425.31,396.44,427.26,396.73,429.25,398.98z"
				/>
			<path d="M430.55,379.23c-1.18,0.33-2.3,0.59-3.37,0.96c-1.16,0.4-1.39,1.48-1.84,2.43c-0.32,0.68,1.54,2.08-0.45,1.94
				c-1.35-0.09-0.98-1.68-0.84-2.64C424.47,379,427.76,377.62,430.55,379.23z"/>
			<path d="M415.83,417.38c-0.14-3.25,1.21-5.21,4.04-6.39c1.05-0.44,1.25,0.11,1.47,0.67c0.39,0.98-0.6,0.47-0.83,0.5
				c-1.7,0.24-2.97,1.24-3.01,2.69C417.46,416.23,416.34,416.55,415.83,417.38z"/>
			<path d="M405.51,420.45c-1.12,1.56-3.03,2.59-2.46,5.04c-1.76-0.76-1.35-1.64-1.01-2.66
				C402.58,421.21,403.55,420.31,405.51,420.45z"/>
		</g>
	</g>
	<path class="st14" d="M107.03,272.84c9.55-0.13,18.07-0.14,26.57-0.5c4.4-0.18,8.81-0.1,13.21-0.21
		c12.34-0.31,24.68-0.41,37.02-0.64c6.72-0.13,13.43-0.46,20.15-0.36c4.1,0.06,8.21,0.28,12.27,0.86c2.52,0.36,4.96,1.1,7.09,2.47
		c1.31,0.85,2.34,2.05,3.38,3.19c0.08,0.09,0.14,0.2,0.24,0.27c2.23,1.65,2.51,4.05,2.68,6.46c0.43,6.04,0.52,12.08,0.64,18.13
		c0.05,2.48,0.33,4.96,0.28,7.46c-0.1,4.86-0.23,9.72-0.27,14.58c-0.05,6-0.08,12-0.01,18.01c0.05,4.43-0.2,8.87,0.14,13.3
		c0.11,1.46,0.11,2.88-0.3,4.3c-0.24,0.85-0.56,1.69-1.09,2.41c-0.7,0.95-1.44,1.87-2.07,2.87c-0.21,0.33-0.55,0.56-0.92,0.7
		c-1.94,0.74-3.84,1.55-5.91,1.92c-3.26,0.58-6.56,0.75-9.86,0.84c-4.33,0.13-8.65,0.17-12.98,0.42c-2.83,0.16-5.67,0.04-8.51,0.05
		c-6.69,0.02-13.38,0.29-20.07,0.28c-5.05,0-10.09,0.31-15.13,0.53c-7.21,0.31-14.42,0.45-21.64,0.43c-4.7-0.01-9.4,0.18-14.1,0.43
		c-0.74,0.04-1.49,0.02-2.24,0.02c-1.79-0.01-3.56,0.05-5.35,0.26c-3.34,0.38-6.71,0.15-10.06-0.01c-2.86-0.14-5.65-0.78-8.49-1.07
		c-1.95-0.2-3.71-1.18-5.48-1.98c-0.47-0.21-0.9-0.51-1.37-0.73c-0.67-0.31-1.29-0.59-1.28-1.47c0-0.28-0.31-0.58-0.51-0.85
		c-1.91-2.5-2.95-5.34-3.74-8.31c-0.96-3.65-1.47-7.36-1.87-11.08c-0.36-3.32-0.64-6.65-0.31-10.01c0.24-2.41-0.14-4.83-0.11-7.25
		c0.1-7.47,0.14-14.95,0.4-22.42c0.09-2.46,0.11-4.94,0-7.4c-0.12-2.63,0.49-5.13,1.2-7.63c0.12-0.41,0.27-0.82,0.31-1.24
		c0.32-3.36,1.9-6.18,3.96-8.84c1.42-1.83,3.03-3.45,4.93-4.82c1.72-1.24,3.71-1.94,5.76-2.42c2.54-0.6,5.13-0.98,7.75-0.95
		C103.6,272.86,105.84,272.89,107.03,272.84z"/>
	<path class="st15" d="M119.14,287.2c-1.78-0.07-5.28,0.11-8.79,0.1c-2.99,0-5.96,0.36-8.88,0.97c-1.58,0.33-3,0.95-4.24,2.08
		c-1.93,1.76-2.34,4.03-2.72,6.31c-0.47,2.76-0.54,5.57-0.77,8.36c-0.46,5.61-0.61,11.23-0.62,16.85c0,0.47,0.02,0.95-0.05,1.42
		c-0.31,2.24-0.29,4.5-0.47,6.74c-0.03,0.39,0.11,0.51,0.5,0.49c1.05-0.07,2.09,0.05,3.13,0.08c3.56,0.11,7.11,0.13,10.67,0.07
		c3.63-0.06,7.26,0.11,10.89,0.23c5.99,0.21,11.98-0.32,17.98-0.07c2.09,0.09,4.18,0.03,6.27,0.01c5.15-0.03,10.3,0.04,15.45,0.19
		c1.84,0.06,3.57-0.53,5.29-1.07c1.11-0.35,1.67-1.17,2.1-2.16c0.18-0.41-0.24-0.82,0.09-1.16c0.3-0.3,0.27-0.63,0.26-0.99
		c-0.01-0.31,0-0.63,0.09-0.92c0.36-1.16,0.53-2.37,0.54-3.55c0.03-4.51,0.61-8.99,0.75-13.49c0.13-3.96,0.27-7.92-0.11-11.87
		c-0.22-2.28,0.23-4.61-0.61-6.87c-0.18-0.49-0.25-0.6-0.72-0.58c-1.64,0.05-3.28,0.1-4.92,0.11c-2.16,0.02-4.33-0.05-6.49-0.14
		c-3.63-0.14-7.27-0.13-10.89-0.31C135.55,287.68,128.22,287.29,119.14,287.2z"/>
	<path class="st16" d="M118.86,346.5c-12.25,0.1-24.49,0.2-36.74,0.31c-0.26,0-0.56-0.09-0.77,0.16c-0.31,0.36-0.74,0.47-1.2,0.49
		c-0.5,0.01-0.63,0.23-0.58,0.68c0.24,1.81,0.43,3.63,0.69,5.44c0.27,1.89,1.05,3.65,1.67,5.45c0.11,0.31,0.32,0.64,0.07,0.95
		c-0.24,0.28-0.13,0.54-0.04,0.8c0.85,2.31,2.08,4.37,3.95,6.1c1.22,1.13,2.56,1.94,4.17,2.31c2.1,0.49,4.29,0.49,6.4,0.93
		c0.29,0.06,0.6,0.04,0.89,0.02c2.84-0.16,5.67,0.1,8.5,0.15c5.54,0.1,11.07,0.44,16.63,0.07c5.28-0.35,10.58-0.51,15.89-0.53
		c1.99-0.01,3.98,0.1,5.97-0.07c2.13-0.18,4.27-0.08,6.42-0.04c2.51,0.05,5.04,0.22,7.54-0.01c3.64-0.34,7.29-0.5,10.93-0.8
		c4.91-0.41,9.85-0.29,14.77-0.38c5.79-0.11,11.59,0.04,17.39-0.09c3.56-0.08,7.08-0.57,10.64-0.56c3.09,0.01,6.1-0.44,8.99-1.45
		c1.11-0.39,2.26-0.83,3.19-1.5c1.24-0.9,2.32-2.02,2.33-3.69c0-0.07,0.03-0.15,0.07-0.2c0.84-1,0.79-2.19,0.78-3.37
		c-0.04-4.6-0.28-9.2-0.4-13.79c-0.06-2.32,0.04-4.65,0.1-6.97c0.14-5.67,0.14-11.34,0.22-17.01c0.01-0.57-0.17-0.7-0.75-0.72
		c-2.68-0.1-5.3,0.39-7.95,0.61c-3.67,0.3-7.35,0.35-11.03,0.45c-2.49,0.06-4.96,0.36-7.42,0.67c-2.28,0.29-4.45,1.03-6.61,1.74
		c-2.26,0.75-4.4,1.73-6.36,3.08c-1.28,0.88-2.37,1.95-3.56,2.92c-1.74,1.42-3.17,3.05-4.34,4.93c-1.62,2.61-3.38,5.1-6.04,6.95
		c-3.24,2.24-6.57,4.14-10.6,4.76c-2.77,0.43-5.53,0.97-8.35,0.98c-1.84,0.01-3.68-0.03-5.52-0.01
		C138.82,346.32,128.84,346.41,118.86,346.5z"/>
	<path class="st17" d="M190.94,273.88c-1.83-0.03-3.64,0.16-5.47,0.24c-2.49,0.11-4.98,0.21-7.47,0.17c-0.5-0.01-0.67,0.1-0.58,0.67
		c0.26,1.61,0.29,3.25,0.25,4.88c-0.05,2.04-0.04,4.09-0.02,6.14c0.03,4.04,0.38,8.07,0.44,12.11c0.03,2.37-0.19,4.72-0.33,7.08
		c-0.2,3.45-0.38,6.91-0.55,10.36c-0.14,2.97-0.69,5.9-1.03,8.85c-0.21,1.91,0.06,3.91-1.05,5.66c-0.31,0.49-0.56,1.04-0.72,1.6
		c-0.58,1.89-1.75,3.39-3.27,4.59c-3.87,3.06-8.35,4.71-13.22,5.41c-2.2,0.32-4.41,0.3-6.63,0.32c-23.03,0.19-46.06,0.43-69.09,0.67
		c-0.73,0.01-1.69-0.32-2.12,0.18c-0.4,0.48-0.07,1.4-0.03,2.13c0.1,1.51,0.11,1.52,1.64,1.5c20.49-0.19,40.98-0.38,61.47-0.57
		c5.02-0.05,10.04,0.04,15.05-0.34c2.15-0.16,4.31-0.53,6.38-1.13c2.91-0.84,5.43-2.44,7.88-4.22c2.35-1.7,3.88-3.99,5.37-6.33
		c0.8-1.26,1.54-2.55,2.55-3.66c0.88-0.96,1.93-1.74,2.84-2.66c1.69-1.71,3.6-3.13,5.74-4.2c5.64-2.83,11.69-4.05,17.97-4.2
		c3.35-0.08,6.7-0.17,10.05-0.37c3.09-0.19,6.15-0.84,9.27-0.68c0.47,0.02,0.6-0.17,0.6-0.59c-0.01-0.58,0.03-1.17,0.03-1.75
		c-0.05-9.2-0.01-18.4-0.63-27.6c-0.22-3.19-1.31-5.89-2.83-8.54c-0.12-0.21-0.19-0.56-0.57-0.46c-0.48,0.12-0.72-0.18-1-0.47
		c-0.93-0.98-1.92-1.91-3.18-2.45c-0.82-0.35-1.74-0.23-2.55-0.91c-0.61-0.51-1.72-0.49-2.62-0.63c-3.41-0.54-6.85-0.74-10.3-0.88
		C199.12,273.62,195.03,273.98,190.94,273.88z"/>
	<path class="st7" d="M193.71,300.48c3.01,0.13,6.12-0.4,9.25-0.42c2.89-0.02,5.77-0.04,8.65,0.09c1.6,0.08,2.91,0.74,4.17,1.55
		c0.68,0.44,1.09,1.08,1.24,1.87c0.14,0.75,0.4,1.47,0.49,2.22c0.18,1.47-0.24,2.71-1.48,3.73c-1.86,1.54-4.08,1.93-6.4,1.9
		c-4.87-0.06-9.75-0.2-14.62-0.07c-2.62,0.07-5.22-0.01-7.81-0.38c-2.44-0.35-4.21-1.47-5.06-3.76c-0.31-0.83-0.37-1.73-0.06-2.52
		c0.87-2.24,1.89-3.44,4.43-3.77C188.87,300.63,191.22,300.52,193.71,300.48z"/>
	<path class="st7" d="M200,296.8c-1.87,0-3.73-0.02-5.6,0.01c-2.04,0.03-4.08,0.12-6.12,0.14c-1.45,0.02-2.8-0.39-4.04-1.1
		c-1.86-1.07-2.58-4.02-1.83-5.89c1.04-2.6,3.24-3.29,5.71-3.69c3.74-0.62,7.52-0.78,11.3-0.68c3.86,0.1,7.71-0.08,11.57-0.05
		c1.38,0.01,2.7,0.34,3.89,0.86c1.48,0.64,2.45,1.81,2.49,3.5c0.02,0.97,0.06,1.95-0.24,2.89c-0.71,2.25-2.25,3.31-5.06,3.59
		c-3.57,0.35-7.14,0.49-10.73,0.36c-0.45-0.02-0.9,0-1.34,0C200,296.76,200,296.78,200,296.8z"/>
	<g id="thermostat_1_">
		<g>
			<g>
				<path d="M106.5,274.22c9.55-0.13,18.07-0.14,26.57-0.5c4.4-0.18,8.81-0.1,13.21-0.21c12.34-0.31,24.68-0.41,37.02-0.64
					c6.72-0.13,13.43-0.46,20.15-0.36c4.1,0.06,8.21,0.28,12.27,0.86c2.52,0.36,4.96,1.1,7.09,2.47c1.31,0.85,2.34,2.05,3.38,3.19
					c0.08,0.09,0.14,0.2,0.24,0.27c2.23,1.65,2.51,4.05,2.68,6.46c0.43,6.04,0.52,12.08,0.64,18.13c0.05,2.48,0.33,4.96,0.28,7.46
					c-0.1,4.86-0.23,9.72-0.27,14.58c-0.05,6-0.08,12-0.01,18.01c0.05,4.43-0.2,8.87,0.14,13.3c0.11,1.46,0.11,2.88-0.3,4.3
					c-0.24,0.85-0.56,1.69-1.09,2.41c-0.7,0.95-1.44,1.87-2.07,2.87c-0.21,0.33-0.55,0.56-0.92,0.7c-1.94,0.74-3.84,1.55-5.91,1.92
					c-3.26,0.58-6.56,0.75-9.86,0.84c-4.33,0.13-8.65,0.17-12.98,0.42c-2.83,0.16-5.67,0.04-8.51,0.05
					c-6.69,0.02-13.38,0.29-20.07,0.28c-5.05,0-10.09,0.31-15.13,0.53c-7.21,0.31-14.42,0.45-21.64,0.43
					c-4.7-0.01-9.4,0.18-14.1,0.43c-0.74,0.04-1.49,0.02-2.24,0.02c-1.79-0.01-3.56,0.05-5.35,0.26c-3.34,0.38-6.71,0.15-10.06-0.01
					c-2.86-0.14-5.65-0.78-8.49-1.07c-1.95-0.2-3.71-1.18-5.48-1.98c-0.47-0.21-0.9-0.51-1.37-0.73c-0.67-0.31-1.29-0.59-1.28-1.47
					c0-0.28-0.31-0.58-0.51-0.85c-1.91-2.5-2.95-5.34-3.74-8.31c-0.96-3.65-1.47-7.36-1.87-11.08c-0.36-3.32-0.64-6.65-0.31-10.01
					c0.24-2.41-0.14-4.83-0.11-7.25c0.1-7.47,0.14-14.95,0.4-22.42c0.09-2.46,0.11-4.94,0-7.4c-0.12-2.63,0.49-5.13,1.2-7.63
					c0.12-0.41,0.27-0.82,0.31-1.24c0.32-3.36,1.9-6.18,3.96-8.84c1.42-1.83,3.03-3.45,4.93-4.82c1.72-1.24,3.71-1.94,5.76-2.42
					c2.54-0.6,5.13-0.98,7.75-0.95C103.07,274.24,105.31,274.27,106.5,274.22z M119.07,346.35c-12.25,0.1-24.49,0.2-36.74,0.31
					c-0.26,0-0.56-0.09-0.77,0.16c-0.31,0.36-0.74,0.47-1.2,0.49c-0.5,0.01-0.63,0.23-0.58,0.68c0.24,1.81,0.43,3.63,0.69,5.44
					c0.27,1.89,1.05,3.65,1.67,5.45c0.11,0.31,0.32,0.64,0.07,0.95c-0.24,0.28-0.13,0.54-0.04,0.8c0.85,2.31,2.08,4.37,3.95,6.1
					c1.22,1.13,2.56,1.94,4.17,2.31c2.1,0.49,4.29,0.49,6.4,0.93c0.29,0.06,0.6,0.04,0.89,0.02c2.84-0.16,5.67,0.1,8.5,0.15
					c5.54,0.1,11.07,0.44,16.63,0.07c5.28-0.35,10.58-0.51,15.89-0.53c1.99-0.01,3.98,0.1,5.97-0.07c2.13-0.18,4.27-0.08,6.42-0.04
					c2.51,0.05,5.04,0.22,7.54-0.01c3.64-0.34,7.29-0.5,10.93-0.8c4.91-0.41,9.85-0.29,14.77-0.38c5.79-0.11,11.59,0.04,17.39-0.09
					c3.56-0.08,7.08-0.57,10.64-0.56c3.09,0.01,6.1-0.44,8.99-1.45c1.11-0.39,2.26-0.83,3.19-1.5c1.24-0.9,2.32-2.02,2.33-3.69
					c0-0.07,0.03-0.15,0.07-0.2c0.84-1,0.79-2.19,0.78-3.37c-0.04-4.6-0.28-9.2-0.4-13.79c-0.06-2.32,0.04-4.65,0.1-6.97
					c0.14-5.67,0.14-11.34,0.22-17.01c0.01-0.57-0.17-0.7-0.75-0.72c-2.68-0.1-5.3,0.39-7.95,0.61c-3.67,0.3-7.35,0.35-11.03,0.45
					c-2.49,0.06-4.96,0.36-7.42,0.67c-2.28,0.29-4.45,1.03-6.61,1.74c-2.26,0.75-4.4,1.73-6.36,3.08c-1.28,0.88-2.37,1.95-3.56,2.92
					c-1.74,1.42-3.17,3.05-4.34,4.93c-1.62,2.61-3.38,5.1-6.04,6.95c-3.24,2.24-6.57,4.14-10.6,4.76c-2.77,0.43-5.53,0.97-8.35,0.98
					c-1.84,0.01-3.68-0.03-5.52-0.01C139.03,346.17,129.05,346.26,119.07,346.35z M117.74,340c0,0,0,0.01,0,0.01
					c9.68-0.1,19.37-0.15,29.05-0.31c4.14-0.07,8.3,0.24,12.43-0.53c4.01-0.75,7.64-2.19,10.94-4.47c2.34-1.61,3.27-4.05,4.19-6.49
					c0.18-0.47,0.36-0.95,0.42-1.43c0.33-2.76,0.68-5.51,1.03-8.27c0.69-5.44,0.61-10.94,1.08-16.4c0.26-3.05,0.07-6.11-0.1-9.17
					c-0.23-4.16-0.33-8.34-0.18-12.52c0.05-1.52-0.05-3.03-0.23-4.55c-0.07-0.59-0.32-0.79-0.95-0.77c-3.16,0.06-6.32,0.1-9.48,0.18
					c-7.49,0.17-14.98-0.32-22.47-0.27c-0.12,0-0.25-0.01-0.37-0.01c-3.16-0.13-6.32-0.01-9.48,0.14c-3.7,0.17-7.4,0.48-11.1,0.57
					c-4.9,0.12-9.8,0.04-14.71,0.13c-4.36,0.08-8.68,0.34-12.98,1.06c-2.97,0.5-5.66,1.47-7.94,3.43c-2.13,1.84-3.45,4.18-4.5,6.63
					c-0.91,2.13-1.17,4.45-1.64,6.71c-0.97,4.69-1.51,9.41-1.55,14.2c-0.03,3.2-0.02,6.4-0.04,9.61c-0.02,3.32-0.18,6.64-0.22,9.96
					c-0.04,3.99,0.11,7.97,0.25,11.95c0.04,0.99,0.03,0.99,1.07,0.98C92.75,340.24,105.25,340.12,117.74,340z M191.35,274.7
					c-1.84-0.03-3.68,0.15-5.52,0.23c-2.51,0.11-5.02,0.2-7.54,0.17c-0.51-0.01-0.68,0.1-0.59,0.65c0.26,1.57,0.3,3.16,0.26,4.75
					c-0.05,1.99-0.04,3.98-0.03,5.98c0.03,3.94,0.39,7.86,0.44,11.8c0.03,2.31-0.19,4.6-0.33,6.89c-0.2,3.36-0.39,6.73-0.55,10.09
					c-0.14,2.9-0.7,5.75-1.04,8.62c-0.22,1.86,0.06,3.81-1.06,5.52c-0.31,0.48-0.56,1.01-0.73,1.55c-0.59,1.84-1.77,3.3-3.3,4.47
					c-3.9,2.98-8.43,4.59-13.34,5.27c-2.22,0.31-4.45,0.29-6.69,0.31c-23.25,0.18-46.5,0.42-69.74,0.65
					c-0.73,0.01-1.71-0.32-2.14,0.17c-0.41,0.47-0.07,1.37-0.03,2.07c0.1,1.47,0.11,1.48,1.66,1.46
					c20.68-0.18,41.37-0.37,62.05-0.55c5.07-0.04,10.14,0.04,15.19-0.33c2.17-0.16,4.35-0.52,6.44-1.1
					c2.94-0.82,5.48-2.38,7.96-4.11c2.37-1.66,3.92-3.88,5.42-6.17c0.81-1.23,1.55-2.48,2.58-3.56c0.89-0.93,1.95-1.7,2.86-2.59
					c1.71-1.66,3.64-3.05,5.79-4.09c5.69-2.76,11.8-3.95,18.14-4.09c3.38-0.08,6.77-0.16,10.14-0.36c3.12-0.18,6.21-0.82,9.36-0.66
					c0.47,0.02,0.61-0.16,0.6-0.57c-0.01-0.57,0.03-1.14,0.03-1.71c-0.05-8.96-0.01-17.93-0.64-26.89
					c-0.22-3.11-1.32-5.73-2.86-8.32c-0.12-0.2-0.19-0.54-0.57-0.45c-0.48,0.12-0.73-0.17-1.01-0.45c-0.94-0.96-1.93-1.86-3.22-2.39
					c-0.83-0.34-1.76-0.23-2.57-0.89c-0.62-0.5-1.73-0.48-2.64-0.62c-3.44-0.53-6.92-0.72-10.4-0.86
					C199.61,274.44,195.48,274.8,191.35,274.7z"/>
				<path d="M141.21,332.87c-5.9-0.19-10.92-0.52-15.95-0.31c-7.83,0.33-15.67,0.31-23.51,0.39c-3.05,0.03-6.11-0.23-9.17-0.35
					c-0.17-0.01-0.35-0.03-0.52-0.01c-1.13,0.15-1.79-0.41-1.82-1.52c-0.09-3.69,0.02-7.38,0.12-11.08
					c0.08-2.77-0.03-5.55,0.03-8.33c0.06-2.75,0.07-5.5,0.34-8.24c0.18-1.86,0.4-3.72,0.52-5.59c0.15-2.25,0.49-4.51,1.46-6.58
					c1.37-2.94,3.54-4.99,7.09-5.57c2.58-0.42,5.17-0.51,7.76-0.7c5.03-0.37,10.05-0.34,15.07-0.2c7.21,0.19,14.43,0.35,21.64,0.48
					c3.66,0.07,7.31,0.18,10.97,0.33c3.58,0.15,7.16,0.22,10.72,0.64c0.74,0.09,1.49,0.04,2.24,0.07c0.78,0.03,1.03,0.32,0.86,1.05
					c-0.13,0.54-0.16,1.08-0.13,1.63c0.2,3.67-0.03,7.34,0.13,11.02c0.17,3.88-0.05,7.77-0.22,11.65
					c-0.18,4.08-0.51,8.14-0.67,12.22c-0.09,2.33-0.76,4.49-2.42,6.29c-0.13,0.14-0.29,0.26-0.45,0.36c-2.29,1.5-4.89,1.97-7.6,2.19
					c-2.07,0.16-4.13,0.11-6.19,0.13C147.8,332.86,144.07,333.1,141.21,332.87z M118.94,286.82c-1.78-0.07-5.28,0.11-8.79,0.1
					c-2.99,0-5.96,0.36-8.88,0.97c-1.58,0.33-3,0.95-4.24,2.08c-1.93,1.76-2.34,4.03-2.72,6.31c-0.47,2.76-0.54,5.57-0.77,8.36
					c-0.46,5.61-0.61,11.23-0.62,16.85c0,0.47,0.02,0.95-0.05,1.42c-0.31,2.24-0.29,4.5-0.47,6.74c-0.03,0.39,0.11,0.51,0.5,0.49
					c1.05-0.07,2.09,0.05,3.13,0.08c3.56,0.11,7.11,0.13,10.67,0.07c3.63-0.06,7.26,0.11,10.89,0.23
					c5.99,0.21,11.98-0.32,17.98-0.07c2.09,0.09,4.18,0.03,6.27,0.01c5.15-0.03,10.3,0.04,15.45,0.19c1.84,0.06,3.57-0.53,5.29-1.07
					c1.11-0.35,1.67-1.17,2.1-2.16c0.18-0.41-0.24-0.82,0.09-1.16c0.3-0.3,0.27-0.63,0.26-0.99c-0.01-0.31,0-0.63,0.09-0.92
					c0.36-1.16,0.53-2.37,0.54-3.55c0.03-4.51,0.61-8.99,0.75-13.49c0.13-3.96,0.27-7.92-0.11-11.87c-0.22-2.28,0.23-4.61-0.61-6.87
					c-0.18-0.49-0.25-0.6-0.72-0.58c-1.64,0.05-3.28,0.1-4.92,0.11c-2.16,0.02-4.33-0.05-6.49-0.14c-3.63-0.14-7.27-0.13-10.89-0.31
					C135.34,287.29,128.01,286.9,118.94,286.82z"/>
				<path d="M193.37,300.37c3.01,0.13,6.12-0.4,9.25-0.42c2.89-0.02,5.77-0.04,8.65,0.09c1.6,0.08,2.91,0.74,4.17,1.55
					c0.68,0.44,1.09,1.08,1.24,1.87c0.14,0.75,0.4,1.47,0.49,2.22c0.18,1.47-0.24,2.71-1.48,3.73c-1.86,1.54-4.08,1.93-6.4,1.9
					c-4.87-0.06-9.75-0.2-14.62-0.07c-2.62,0.07-5.22-0.01-7.81-0.38c-2.44-0.35-4.21-1.47-5.06-3.76
					c-0.31-0.83-0.37-1.73-0.06-2.52c0.87-2.24,1.89-3.44,4.43-3.77C188.52,300.52,190.88,300.4,193.37,300.37z M200.24,301.93
					c-3.11,0.09-6.82-0.18-10.51,0.3c-1.4,0.18-2.85,0.13-4.17,0.71c-0.96,0.42-2.02,0.77-2.04,2.05c0,0.09-0.07,0.18-0.1,0.27
					c-0.38,1.22,0.02,2.71,1.4,3.27c1.32,0.53,2.66,0.57,4.01,0.67c5.12,0.36,10.25,0.44,15.37,0.32c3.22-0.07,6.55,0.28,9.56-1.34
					c0.38-0.2,0.68-0.4,0.93-0.75c0.92-1.23,0.73-2.51,0.27-3.8c-0.29-0.82-0.91-1.29-1.82-1.36c-1.46-0.12-2.92-0.28-4.39-0.31
					C206.11,301.89,203.47,301.93,200.24,301.93z"/>
				<path d="M199.65,296.69c-1.87,0-3.73-0.02-5.6,0.01c-2.04,0.03-4.08,0.12-6.12,0.14c-1.45,0.02-2.8-0.39-4.04-1.1
					c-1.86-1.07-2.58-4.02-1.83-5.89c1.04-2.6,3.24-3.29,5.71-3.69c3.74-0.62,7.52-0.78,11.3-0.68c3.86,0.1,7.71-0.08,11.57-0.05
					c1.38,0.01,2.7,0.34,3.89,0.86c1.48,0.64,2.45,1.81,2.49,3.5c0.02,0.97,0.06,1.95-0.24,2.89c-0.71,2.25-2.25,3.31-5.06,3.59
					c-3.57,0.35-7.14,0.49-10.73,0.36c-0.45-0.02-0.9,0-1.34,0C199.65,296.64,199.65,296.66,199.65,296.69z M197.25,295.13
					c0.8,0,1.59,0.02,2.39,0c3.35-0.11,6.71,0.08,10.05-0.45c1.48-0.23,2.96-0.45,4.25-1.23c0.75-0.45,1.4-0.98,1.46-1.93
					c0.14-2.21-2.12-4.6-4.42-4.53c-2.49,0.08-4.98-0.07-7.46-0.01c-4.42,0.11-8.83,0.48-13.26,0.44c-1.21-0.01-2.46,0.09-3.58,0.58
					c-1.28,0.57-2.72,1.17-3.03,2.63c-0.48,2.26,0.68,4.34,3.39,4.5C190.44,295.34,193.85,295.29,197.25,295.13z"/>
				<path d="M134.82,306.9c0.29-1.02,0.33-1.97,0.38-2.91c0.1-2.06,0.24-4.12,0.17-6.18c-0.03-0.81-0.16-1.61-0.36-2.39
					c-0.15-0.56,0.02-0.97,0.48-1.31c0.2-0.14,0.4-0.29,0.59-0.44c0.88-0.71,1.5-0.71,2.32-0.01c0.23,0.2,0.24,0.44,0.24,0.71
					c-0.02,2.8-0.09,5.6-0.01,8.39c0.03,1.22-0.54,2.11-1.2,3.02c-0.37,0.5-0.77,0.99-1.17,1.48c-0.1,0.13-0.29,0.35-0.36,0.33
					c-0.89-0.33-1.62,0.49-2.59,0.2c-1.06-0.31-2.26-0.27-3.4-0.29c-2.01-0.04-4.03-0.02-6.05-0.01c-0.46,0-0.94,0.02-1.1-0.51
					c-0.15-0.5,0.27-0.71,0.62-0.94c0.41-0.27,0.84-0.49,1.15-0.89c0.24-0.31,0.66-0.32,1.03-0.32c2.29-0.02,4.58-0.05,6.87-0.05
					c1.46,0,1.98,0.48,2.19,1.85C134.63,306.69,134.7,306.75,134.82,306.9z"/>
				<path d="M125.14,312.59c-0.07,1.71,0.03,3.51,0.16,5.31c0.04,0.61,0,1.19-0.44,1.75c-0.29,0.36-0.12,0.92-0.04,1.38
					c0.07,0.39-0.01,0.7-0.28,0.98c-0.55,0.59-1,1.23-1.31,1.97c-0.15,0.37-0.44,0.59-0.87,0.5c-0.44-0.09-0.58-0.41-0.59-0.8
					c-0.01-0.38,0-0.76,0.01-1.14c0.07-2.61-0.29-5.2-0.45-7.79c-0.08-1.21-0.25-2.4-0.31-3.6c-0.02-0.34-0.07-0.66-0.2-0.97
					c-0.15-0.37-0.22-0.75,0.09-1.07c0.22-0.23,0.05-0.45,0.05-0.67c0-0.52,0.28-0.87,0.81-0.78c0.49,0.08,1.06,0.1,1.43,0.5
					c0.24,0.25,0.43,0.28,0.67,0.03c0.23-0.25,0.52-0.39,0.86-0.23c0.37,0.17,0.4,0.5,0.4,0.85
					C125.14,310.03,125.14,311.27,125.14,312.59z"/>
				<path d="M139.37,314.01c0,1.78-0.01,3.56,0,5.34c0,0.72-0.1,1.42-0.31,2.1c-0.11,0.36-0.3,0.66-0.71,0.75
					c-0.4,0.08-0.63-0.18-0.89-0.41c-0.98-0.87-1.24-1.98-1.27-3.2c-0.07-2.46-0.51-4.91-0.37-7.38c0.02-0.4-0.03-0.81-0.09-1.2
					c-0.24-1.51,0.77-2.96,2.34-3.34c0.61-0.15,1.32,0.39,1.36,1.09c0.05,0.8,0.03,1.61,0.02,2.42c-0.01,0.64-0.05,1.28-0.06,1.92
					c-0.01,0.64,0,1.28,0,1.92C139.38,314.01,139.37,314.01,139.37,314.01z"/>
				<path d="M114.63,316.53c0,2.13,0.01,4.26,0,6.39c-0.01,1.53-0.65,1.83-2.14,1.23c-0.86-0.35-1.03-0.86-1.02-1.65
					c0.05-2.72,0.27-5.44,0.09-8.16c-0.09-1.27-0.14-2.55-0.23-3.82c-0.04-0.6,0.15-1.02,0.8-1.18c0.47-0.12,0.84-0.45,1.4-0.4
					c0.88,0.07,1.04,0.19,1.09,1.06C114.74,312.17,114.63,314.35,114.63,316.53z"/>
				<path d="M114.7,294.14c0.47,2.46,0.23,4.92,0.02,7.37c-0.15,1.75-0.2,3.5-0.32,5.25c-0.05,0.7-0.56,1.07-1.22,1.26
					c-0.6,0.17-0.93-0.1-1.27-0.58c-0.33-0.46-0.31-0.87-0.3-1.38c0.03-1.87-0.03-3.74-0.08-5.61c-0.04-1.56-0.21-3.12-0.16-4.68
					c0.03-1.21,1.01-2.01,1.81-2.83c0.24-0.25,0.71-0.41,1.1-0.16C114.8,293.12,114.74,293.64,114.7,294.14z"/>
				<path d="M124.48,297.16c0.06,1.74-0.16,3.34-0.27,4.95c-0.02,0.26-0.03,0.52,0.01,0.78c0.05,0.39,0.34,0.77,0.04,1.16
					c-0.56,0.74-0.81,1.7-1.76,2.15c-0.58,0.27-1.18,0.16-1.22-0.31c-0.04-0.47-0.27-0.9-0.28-1.36c-0.07-2.82,0.15-5.63,0.23-8.45
					c0.02-0.64,0.06-1.28,0.07-1.91c0.01-0.48,0.2-0.86,0.55-1.2c0.59-0.57,0.99-0.5,1.63,0.04c1.02,0.88,1.25,1.93,1.06,3.15
					C124.48,296.53,124.5,296.92,124.48,297.16z"/>
				<path d="M136.8,324.02c-3.58,0-7.16,0-10.74,0c-0.37,0-0.74,0.05-1.11,0.08c-0.4,0.03-0.76-0.04-0.92-0.44
					c-0.16-0.4,0.04-0.7,0.4-0.89c0.5-0.27,0.96-0.57,1.26-1.06c0.17-0.28,0.53-0.34,0.86-0.36c1.98-0.09,3.97-0.28,5.95-0.06
					c0.34,0.04,0.72,0.08,1.04,0c1.39-0.35,2.41,0.3,3.39,1.07c0.26,0.2,0.47,0.43,0.61,0.71c0.34,0.67,0.02,1.13-0.75,1.11
					C136.8,324.14,136.8,324.08,136.8,324.02z"/>
				<path d="M134.17,294.04c-1.19-0.28-2.28,0.05-3.38,0.14c-0.9,0.07-1.78,0.12-2.65-0.16c-0.46-0.15-0.88-0.19-1.29,0.21
					c-0.36,0.35-0.82,0.24-1.07-0.18c-0.34-0.58-0.85-0.98-1.34-1.41c-0.24-0.21-0.4-0.43-0.29-0.75c0.12-0.33,0.41-0.42,0.74-0.5
					c0.84-0.19,1.69-0.22,2.55-0.13c0.4,0.04,0.79,0.01,1.11,0.3c0.22,0.2,0.52,0.14,0.78,0.14c1.83,0.03,3.66-0.23,5.49-0.01
					c0.47,0.06,0.99-0.04,1.2,0.5c0.21,0.56-0.26,0.79-0.66,1.04c-0.2,0.13-0.37,0.31-0.54,0.48
					C134.62,293.93,134.39,294.05,134.17,294.04z"/>
				<path d="M151.87,299.83c-1.59,0.18-2.76-0.71-3.39-2.03c-0.61-1.28-0.32-2.61,0.62-3.81c0.68-0.87,3.73-1.52,4.89-1.09
					c0.44,0.16,0.68,0.56,0.86,0.94c0.19,0.42-0.21,0.8-0.76,0.78c-0.59-0.03-1.19-0.04-1.78-0.09c-0.53-0.05-0.97,0.1-1.4,0.36
					c-1.21,0.74-1.38,1.3-0.71,2.54c0.44,0.83,1.56,1.15,2.58,0.74c0.37-0.15,0.71-0.33,1.07-0.5c0.29-0.14,0.58-0.14,0.83,0.09
					c0.24,0.22,0.28,0.49,0.18,0.78c-0.19,0.55-0.54,0.95-1.15,1.11C153.14,299.8,152.57,299.85,151.87,299.83z"/>
				<path d="M142.95,295.16c0.01-0.86,0.75-1.57,1.61-1.54c0.67,0.02,1.23,0.77,1.22,1.64c-0.01,0.66-0.72,1.27-1.46,1.25
					C143.47,296.51,142.94,295.98,142.95,295.16z"/>
				<path d="M198.95,304.47c1.04,0,2.09,0,3.13,0c0.41,0,0.83,0.02,0.97,0.48c0.15,0.48-0.22,0.65-0.58,0.86
					c-0.33,0.2-0.67,0.27-1.05,0.27c-1.94-0.01-3.88-0.01-5.81-0.01c-0.5,0-1.04-0.01-1.07-0.61c-0.03-0.62,0.48-0.85,1.06-0.86
					c1.12-0.02,2.24-0.01,3.35-0.01C198.95,304.55,198.95,304.51,198.95,304.47z"/>
				<path d="M197.66,289.41c-0.03-0.26-0.09-0.52-0.1-0.78c-0.01-0.44,0.2-0.75,0.68-0.77c0.44-0.02,0.68,0.24,0.73,0.65
					c0,0.02,0,0.05,0,0.07c0.07,0.48-0.19,1.15,0.2,1.4c0.36,0.22,1,0.03,1.52,0.02c0.32-0.01,0.65-0.01,0.97-0.01
					c0.42,0,0.75,0.16,0.77,0.6c0.02,0.44-0.29,0.64-0.71,0.68c-0.67,0.05-1.34,0.11-2.01,0.1c-0.56-0.01-0.85,0.11-0.68,0.72
					c0.08,0.27,0.06,0.57,0.05,0.85c-0.02,0.34-0.21,0.59-0.58,0.63c-0.38,0.04-0.63-0.16-0.71-0.49c-0.09-0.37-0.14-0.75-0.14-1.12
					c0-0.44-0.19-0.57-0.63-0.54c-0.66,0.05-1.32-0.07-1.93,0.37c-0.35,0.25-0.72,0.05-0.89-0.34c-0.22-0.48,0.02-0.99,0.54-1.13
					c0.7-0.19,1.43-0.21,2.15-0.16C197.49,290.17,197.76,289.99,197.66,289.41z"/>
			</g>
		</g>
	</g>
</g>
</svg>
