<?xml version="1.0" encoding="utf-8"?>
<!-- Generator: Adobe Illustrator 23.0.2, SVG Export Plug-In . SVG Version: 6.00 Build 0)  -->
<svg version="1.1" xmlns="http://www.w3.org/2000/svg" xmlns:xlink="http://www.w3.org/1999/xlink" x="0px" y="0px"
	 viewBox="0 0 841.89 595.28" style="enable-background:new 0 0 841.89 595.28;" xml:space="preserve">
<style type="text/css">
	.st0{fill:#ECC5BF;}
	.st1{fill:#F8E2D2;}
	.st2{fill:#CBF4FF;}
	.st3{fill:#FF3A5B;}
	.st4{fill:#E7BA9F;}
	.st5{fill:#422918;}
	.st6{fill:#E59C8B;}
	.st7{fill:#FFFFFF;}
	.st8{fill:#1D70B7;}
	.st9{fill:#FFDD4C;}
	.st10{fill:#007EFF;}
	.st11{fill:#97E6FC;}
	.st12{fill:#FFF88A;}
	.st13{fill:#FF6671;}
	.st14{fill:#D9D9D9;}
	.st15{fill:#50E3C2;}
	.st16{fill:#B1B1B1;}
	.st17{fill:#868686;}
	.st18{fill:#C89B83;}
	.st19{fill:#E3C9BB;}
	.st20{fill:#ECECEC;}
	.st21{fill:#FF8438;}
	.st22{fill:#DEB496;}
	.st23{fill:#EACEB3;}
	.st24{fill:#ECDCD2;}
	.st25{fill:#F5F5F5;}
	.st26{fill:url(#SVGID_1_);}
	.st27{fill:url(#SVGID_2_);}
	.st28{fill:#AE846C;}
	.st29{fill:#9E6D57;}
	.st30{fill:#C6C6C5;}
	.st31{fill:#F6ECE3;}
	.st32{fill:#E7BCA9;}
	.st33{fill:#F6D8C7;}
	.st34{fill:#F6E9DA;}
	.st35{fill:#1D1D1B;}
	.st36{fill:none;}
</style>
<g id="colour">
</g>
<g id="Layer_3">
	<g>
		<path class="st28" d="M842.9,224.56c-62.09,39.19-112.48,69.34-180.64,95.13c-2.83,1.07-5.75,2.14-8.78,2.07
			c-4.27-0.1-8.13-2.42-11.77-4.67c-19.09-11.85-38.54-26.72-53.57-43.42c-7.02-7.81-10.61-15.35-19.38-21.14
			c-11.55-7.62-28.46-7.37-42.01-10.2c-21.86-4.56-42.46-13.73-63.87-20.09c-21.41-6.36-44.68-9.82-65.88-2.82
			c-3.57,1.18-12.65-0.09-14.52,3.17c-3.72,6.49,7.91,17.75,15.11,19.76s14.85,0.17,22.33,0.19c2.3,0,4.69,0.21,6.71,1.33
			c2.28,1.26,3.79,3.51,5.37,5.58c7.02,9.19,16.93,16.13,27.97,19.57c4.81,1.5,9.95,2.41,14.11,5.26c4.16,2.85,7.03,8.49,4.79,13.01
			c-2,4.03-6.91,5.41-11.13,6.95c-9.25,3.38-18.33,11.06-18.07,20.9c0.17,6.53,4.33,13.6,0.8,19.1c-2.15,3.34-6.35,4.57-9.68,6.72
			c-7.22,4.67-13.73,15.12-12.72,23.66s8.89,15.28,14.07,22.14c24.77,32.87,66.28,49.37,107.13,54.38
			c40.85,5.01,82.16,0.1,123.28-1.6c20.43-0.85,41.04-0.91,61.08-5c22.8-4.65,31.94-7.22,53.12-16.86c10.1-4.6-7.41,6.49,0-1.76
			c8.16-9.08,56.73-0.79,56.15-12.99c-1.98-41.61-1.98-110.97,0-170.42"/>
	</g>
	<path class="st7" d="M367.41,279.85c0.83-1.43,1.04-2.52,0.63-3.34c-0.99-1.98-0.64-4-0.57-6.02c0.67-17.77,1.87-35.52,1.9-53.32
		c0.01-3.31,1.18-4.52,4.48-4.49c4.53,0.05,9.03,0.64,13.58,0.44c1.82-0.08,3.11,1.13,3.48,2.71c0.33,1.42,0.91,1.77,2.15,1.57
		c6.43-1.03,12.96-0.79,19.42-1.47c7.08-0.75,14.17-1.31,21.26-1.89c1.49-0.12,3.22-0.46,4.4,0.57c1.65,1.43,3.55,1.53,5.47,1.61
		c1.72,0.07,3.33,0.42,4.95,0.94c6.68,2.14,13.39,4.22,20.07,6.34c3.73,1.18,7.51,2.23,11.15,3.64c11.12,4.3,22.35,8.28,33.99,10.88
		c10.58,2.36,21.05,5.24,31.86,6.5c2.12,0.25,2.45-0.03,2.32-2.19c-0.33-5.68-0.46-11.38-0.34-17.07
		c0.21-9.61,0.33-19.22-0.09-28.82c-0.16-3.59-0.33-3.83-3.96-4.31c-39.7-5.2-79.4-10.39-119.1-15.58
		c-62.37-8.16-124.74-16.31-187.11-24.47c-4.58-0.6-4.9-0.33-4.83,4.26c1.31,79.81,2.62,159.61,3.94,239.42
		c0.15,8.9,0.34,17.79,0.43,26.69c0.02,1.75,0.46,2.24,2.32,2.9c3.51,1.26,6.81,0.58,10.19,0.24c19.47-2,38.94-4.07,58.4-6.09
		c1.6-0.17,3.01-0.23,2.6-2.55c-1.3-7.33-0.76-14.7-0.21-22.06c0.86-11.62,1.43-23.25,1.72-34.9c0.04-1.62-0.08-2.61-2.18-2.66
		c-6.32-0.16-12.57-1.12-18.7-2.66c-8.97-2.25-18.21-4.04-24.71-11.49c-1.74-2-4.54-1.84-6.2-3.78c-4.52-5.31-6.26-11.71-6.92-18.39
		c-1.04-10.54,1.05-20.9,2.48-31.27c1.41-10.24,4.32-20.15,7.21-30.04c2.39-8.2,5.49-16.05,10.36-23.27
		c5.93-8.8,13.84-13.06,24.24-13.75c4.46-0.29,8.93-0.43,13.4-1.16c9.37-1.53,18.81-0.6,28.17,0.6c8.32,1.07,14.37,5.14,17.17,13.4
		c2.94,8.68,5.55,17.44,7.19,26.48C364.48,267.82,365.99,273.58,367.41,279.85z"/>
	<path class="st25" d="M368.07,284.83c0.51,3.04,1,5.83,1.45,8.62c1.59,9.82,3.97,19.56,3.34,29.61
		c-0.39,6.21-0.88,12.46-5.19,17.54c-4.08,4.8-9.18,8.34-14.33,11.85c-2.6,1.77-5.26,3.32-8.43,3.78c-2.99,0.43-5.97,0.92-8.97,1.24
		c-1.34,0.15-2.06,0.49-2.18,2.01c-0.29,3.54-0.8,7.07-1.18,10.6c-1.61,14.89-1.13,29.66,2.57,44.25c0.48,1.91,0.71,3.94,3.65,2.87
		c0.95-0.34,2.12-0.05,3.18-0.1c38.32-1.48,76.64-2.96,114.97-4.46c0.83-0.03,1.75,0.2,2.67-0.58c-2.29-1.61-4.71-2.81-6.73-4.72
		c-5.03-4.77-10.3-9.29-15.22-14.19c-7.52-7.49-12.74-16.09-13.81-26.92c-1.14-11.6,7.21-24.42,19.79-25.53
		c1.13-0.1,2.2-0.72,3.33-0.92c1.79-0.31,2.33-1.46,1.66-2.88c-2.27-4.83-2.02-10.05-2.57-15.15c-0.55-5.13,0.08-10.23,3.35-14.17
		c3.63-4.37,8.6-7.45,13.6-10.09c3.13-1.65,6.15-3.56,9.42-4.96c1.24-0.53,1.82-1.44,1.54-2.97c-0.52-2.88-0.84-5.8-1.19-8.71
		c-0.09-0.76-0.14-1.29-1.12-1.46c-6.73-1.12-13.05-3.48-18.99-6.77c-6.2-3.44-12.55-6.59-17.02-12.52
		c-2.9-3.85-6.8-6.87-9.92-11.56c0.68,7.02,1.25,13.18,1.89,19.34c0.31,3,0.22,6.11,1.27,8.95c0.66,1.81,0.3,3.03-0.94,4.24
		c-0.84,0.82-2,2-1.7,2.85c0.78,2.17-0.71,2.21-1.83,2.22c-7.87,0.06-15.78,0.62-23.49-1.74c-1.9-0.58-2.44-1.45-1.1-2.99
		c0.69-0.79,0.71-1.56,0.59-2.46c-1.3-9.87-2.6-19.74-3.88-29.61c-0.13-0.99-0.22-1.95-1.44-2.71c1.34,9.53,2.88,18.73,3.13,28.08
		c0.03,1.14-0.46,2.03-0.75,3c-0.66,2.19-2.36,3.88-2.74,5.96c-0.32,1.76-1.28,2.14-2.45,2.16
		C384.31,285.94,376.24,287.31,368.07,284.83z"/>
	<path class="st29" d="M479.62,337.11c-2.96-1.22-4.54-3.41-7.16-3.98c-1.15-0.25-1.92-1.1-1.55-2.37c0.36-1.25,1.4-1.46,2.58-1.3
		c1.91,0.27,3.52,1.2,5.06,2.27c3.64,2.53,4.18,2.5,7.44-0.52c2.38-2.2,2.4-3.09,0.08-5.43c-0.89-0.9-1.87-1.78-1.31-3.22
		c0.57-1.48,1.98-0.98,3.23-0.96c-1.39-2.13-2.74-4.01-3.9-5.99c-3.19-5.46-5.95-11.09-7.43-17.33c-0.84-3.55-1.12-3.49-4.38-1.68
		c-1.86,1.04-3.61,2.32-5.56,3.14c-4.92,2.07-8.73,5.71-12.98,8.73c-0.9,0.64-1.25,1.67-1.7,2.65c-2.6,5.63-0.73,11.4-0.55,17.1
		c0.1,3.11,1.11,6.49,2.57,8.81c1.65,2.63,5.75,0.27,8.73,0.85c0.43,0.08,0.89,0.05,1.33,0.06
		C469.07,338.06,474,337.81,479.62,337.11z"/>
	<path class="st14" d="M228.73,150.75c-0.36,2.16-2.02,2.17-3.57,2.17c-3.82,0.01-7.65-0.15-11.46,0.26
		c-0.57,0.06-1.68-0.09-1.52,0.57c0.71,2.95-1.34,5.34-1.28,8.27c0.61,27.93,0.98,55.86,1.4,83.79
		c0.85,57.02,1.69,114.04,2.54,171.06c0.07,4.83,0.08,4.72,4.81,5.23c3.55,0.38,7.1,0.45,10.65,0.53c3.7,0.09,3.5,0.88,3.43-3.49
		c-0.18-10.94-0.36-21.88-0.55-32.82c-1.29-77.56-2.57-155.13-3.86-232.69C229.31,152.67,229.54,151.65,228.73,150.75z"/>
	<path class="st7" d="M336.46,342.43c13.87,0.38,15.92-0.07,25.9-7.25c2.13-1.54,3.78-3.43,4.9-5.85c2.25-4.83,2.92-9.92,2.26-15.1
		c-2.12-16.49-4.93-32.86-8.48-49.11c-2.05-9.39-4.06-18.76-7.3-27.83c-1.18-3.3-2.73-6.39-5.43-8.63c-2.48-2.06-5.52-3.05-8.7-3.74
		c-3.61-0.79-7.26-0.55-10.89-0.91c-5.86-0.57-11.75-0.65-17.56,0.41c-3.81,0.69-7.36,2.14-9.78,5.45
		c-2.15,2.94-4.19,5.95-5.96,9.16c-4.85,8.79-7.53,18.4-10.43,27.9c-2.46,8.06-4.98,16.12-6.55,24.45
		c-1.77,9.4-0.83,18.81-0.28,28.2c0.47,8.08,8.55,19.79,18.58,20.88c6.35,0.69,12.68,1.77,19.07,1.86
		C323.43,342.4,331.07,342,336.46,342.43z"/>
	<path class="st7" d="M374.46,251.55c0,4.44-0.07,8.88,0.03,13.32c0.06,2.84,0.3,5.67,0.99,8.45c0.27,1.08,0.61,1.7,1.89,1.72
		c5.33,0.1,10.66,0.27,15.98,0.48c1.29,0.05,1.94-0.16,1.85-1.71c-0.53-9.32-1.7-18.56-3.29-27.75c-0.24-1.37-0.88-2.32-2.14-3.13
		c-4.35-2.78-7.7-6.56-10.1-11.12c-3.16-6.01-0.46-12.64,5.89-14.72c0.52-0.17,1.45-0.03,1.35-0.93c-0.11-0.98-0.92-1.15-1.8-1.14
		c-3,0.03-6.01,0.15-9,0c-3.33-0.17-3.5-0.1-3.32,3.25C373.37,229.36,374.49,240.43,374.46,251.55z"/>
	<path class="st7" d="M418.86,276.49c6,0.07,5.81,0.09,5.37-3.88c-0.87-7.73-2.73-15.34-2.7-23.16c0.01-2.05-0.83-2.3-2.58-2.04
		c-4.68,0.71-9.36,0.8-13.98-0.47c-2.1-0.58-2.73,0.04-2.25,2.22c1.37,6.24,2.39,12.54,2.64,18.94c0.08,1.95,0.23,3.9,0.4,5.84
		c0.1,1.15,0.52,1.91,1.95,1.95C411.52,276.01,415.33,276.29,418.86,276.49z"/>
	<path class="st30" d="M298.53,226.31c-8.65-0.21-15.34,3.24-20.33,9.89c-5.76,7.69-8.62,16.57-11.17,25.63
		c-3.48,12.32-6.68,24.68-7.89,37.47c-0.43,4.51-1.11,9.03-1.05,13.54c0.07,5.92,1.25,11.39,4.89,16.66
		c3.45,5,7.14,9.25,12.57,11.74c6.39,2.94,13.2,4.76,20.05,6.3c4.25,0.95,8.59,1.38,12.95,1.57c1.54,0.07,1.82-0.81,1.97-1.88
		c0.22-1.57-1.11-1.14-1.82-1.12c-3.67,0.1-7.24-0.8-10.87-1.07c-5.48-0.41-10.63-2.5-14.58-5.94c-4.37-3.82-7.41-9.03-9.29-14.71
		c-2.31-6.98-1.66-14.55-3.83-21.46c-2.01-6.39-0.82-12.42,0.14-18.57c0.87-5.61,1.98-11.19,3.13-16.76
		c1.96-9.48,3.93-18.95,8.18-27.78c2.83-5.88,7.37-9.46,13.62-10.9C296.71,228.57,297.81,227.97,298.53,226.31z"/>
	<path class="st30" d="M292.46,234.36c-1.22,0.71-1.71,0.93-2.13,1.25c-4.25,3.22-6.19,7.92-7.94,12.69
		c-3.46,9.48-4.55,19.52-6.74,29.3c-0.09,0.42-0.01,0.87-0.01,1.31C281.54,264.36,284.76,248.96,292.46,234.36z"/>
	<path class="st30" d="M402.99,277.95c1.93-1.33,2.18-2.86,2.06-4.81c-0.47-8.16-1.53-16.23-3.04-24.26
		c-0.25-1.33-0.42-2.24-1.98-2.1c-1.66,0.15-1.08,1.47-0.98,2.25C400.31,258.59,401.64,268.13,402.99,277.95z"/>
	<path class="st30" d="M373.71,234.58c-0.28,0-0.56,0.01-0.84,0.01c-1.35,14.7-1.82,29.42-1.51,44.24c1.16-1.59,4.23-1.39,3.54-4.38
		c-0.97-4.25-1.21-8.6-1.2-12.96C373.72,252.52,373.71,243.55,373.71,234.58z"/>
	<path class="st30" d="M394.12,278.09c-5.48,0-10.96-0.04-16.43,0.03c-1.33,0.02-2.64,0.46-3.61,1.5c-0.41,0.44-1.2,0.78-1.01,1.45
		c0.24,0.81,1.14,0.71,1.81,0.72c4,0.06,8.02-0.08,12.01,0.18C389.9,282.17,392.25,281.29,394.12,278.09z"/>
	<path class="st30" d="M425.46,279.42c-6.2,0.31-11.75-0.34-17.3-0.77c-2.48-0.19-3.49,0.63-4.71,3.43c6.4,0,12.25-0.02,18.1,0.01
		C423.15,282.09,424.18,281.27,425.46,279.42z"/>
	<path class="st30" d="M348.38,346.82c-3.63,0.4-7.26,0.21-10.89,0.06c-1.01-0.04-1.82,0.24-1.89,1.37
		c-0.09,1.57,1.21,1.04,1.9,0.99C341.21,348.96,344.87,348.34,348.38,346.82z"/>
	<path class="st3" d="M477.41,536.17l1.97-0.05c-18.05-87.19-99.84-93.84-99.84-93.84c-54.92-11.49-47.69-44.88-47.69-44.88
		l1.76-52.4l-2.96,1.3c-12.87-4.09-10.98,1.98-10.98,1.98c-9.1,11.21-2.79,73.78-2.79,73.78c3.52,28.18,84.11,39.63,84.11,39.63
		c37.13,12.6,52.54,48.64,57.9,65.7l-3.07-0.31l20.48,70.02l16.51-1.32L477.41,536.17z"/>
	<g id="plug-socket_4_">
		<g>
			<g>
				<path d="M847.59,223.77c-2.36,0.28-4.4,1.46-6.32,2.67c-12.43,7.8-82.91,48.42-95.51,55.93c-1.99,1.18-4.06,2.22-6.09,3.32
					c-3.11,1.68-6.22,3.3-8.87,5.77c-1.66,1.55-3.8,2.63-5.84,3.72c-14.11,7.59-28.61,14.37-43.31,20.7
					c-12.01,5.17-24.46,9.17-37.09,12.56c-9.88,2.65-19.95,1.84-29.97,1.34c-3.95-0.2-7.38-2.49-11.18-3.46
					c-0.94-0.24-1.44-1.11-1.2-2.11c0.28-1.13,1.19-1.53,2.26-1.41c1.96,0.21,3.81,0.91,5.6,1.68c2.83,1.23,5.75,1.71,8.83,1.67
					c8.69-0.11,17.45,0.76,25.98-1.74c0.92-0.27,1.85-0.48,3.45-0.88c-3.72-1.36-6.59-2.95-9.46-4.63
					c-6.18-3.62-11.7-8.08-16.99-12.81c-5.24-4.68-11.03-8.66-16.2-13.45c-6.44-5.97-13.41-11.37-19.8-17.39
					c-3.46-3.26-6.8-6.8-9.3-10.93c-4.45-7.37-11.35-11.47-19.26-13.73c-15.22-4.36-31.06-5.93-46.37-9.97
					c-10.93-2.89-21.67-6.32-32.18-10.49c-3.9-1.55-7.94-2.6-11.91-3.9c-5.15-1.69-10.38-3.15-15.45-5.03
					c-5.58-2.06-11.6-1.75-17.17-3.53c-5-1.6-9.88-0.32-14.73,0.13c-9.83,0.91-19.73,1.01-29.51,2.42
					c-1.23,0.18-2.48,0.35-3.66,0.69c-2.8,0.82-2.69,2.03-2.27,4.84c0.65,4.29,3.25,7.15,5.62,10.31c0.94,1.25,2.12,2.26,3.54,2.75
					c9.99,3.4,20.03,5.68,30.45,1.51c3.11-1.25,4.88-0.33,6.02,2.82c2.1,5.81,6.37,9.91,11.09,13.36
					c5.86,4.29,12.06,8.07,18.96,10.74c4.67,1.81,9.31,3.39,14.19,4.41c1.63,0.34,2.5,0.26,2.9-1.47c0.22-0.96,0.62-1.92,1.89-1.9
					c1.15,0.02,1.25,1.02,1.68,1.79c1.43,2.5,1.03,5.02,0.42,7.64c-0.76,3.28-0.57,6.55,1.17,9.57c0.39,0.67,0.6,1.83,0.53,2.6
					c-0.29,3.18,1.49,5.82,2.67,8.56c1.93,4.49,4.1,8.88,6.29,13.25c1.31,2.61,3.45,4.67,5.95,5.98c3.22,1.68,3.12,4.75,3.55,7.43
					c0.26,1.65-1.9,2.59-3.15,3.65c-0.66,0.56-1.52,0.88-2,1.7c-3.06,5.21-6.9,9.64-12.22,12.72c-1.74,1.01-3.19,1.69-5.41,1.15
					c-5.92-1.43-12.03-0.67-18.06-0.86c-4.27-0.13-8.45,0.8-12.68,1.19c-3.18,0.3-5.62,2.7-8.8,2.93c-4.07,0.3-5.93,3.15-7.33,6.45
					c-4.44,10.46-1.5,19.36,5.82,27.33c2.29,2.49,4.79,4.8,6.98,7.33c6.8,7.87,14.98,13.73,24.22,18.39
					c6.73,3.4,13.18,7.37,20,10.63c2.55,1.22,5.2,2.07,7.98,2.81c3.91,1.04,7.54,3.12,10.97,5.34c2.36,1.53,4.8,2.73,7.62,2.96
					c4.29,0.35,7.98,2.69,12.16,3.59c5.16,1.11,10.45,1.01,15.53,2.41c0.67,0.19,1.19-0.15,1.74-0.46c1.5-0.83,3.21-0.9,4.65-0.22
					c4.99,2.33,10.45,1.94,15.66,2.89c14.17,2.57,28.53,1.86,42.83,2.22c12.33,0.31,24.49-1.32,36.65-2.97
					c0.62-0.08,1.23-0.3,1.84-0.28c7.13,0.25,14.21-0.72,21.25-1.46c10.44-1.1,21.06-0.02,31.34-2.37
					c8.42-1.92,16.96-3.06,25.45-4.51c10.95-1.87,21.88-3.86,32.73-6.16c7.11-1.51,14.05-3.83,21.08-5.74
					c4.09-1.11,73.54-18.77,77.64-19.84v16.02c-10.11-1.51-85.26,16.62-94.95,19.44c-5.53,1.61-11.36,0.69-16.93,2.04
					c-16.75,4.05-33.97,4.89-50.94,7.47c-14.28,2.17-28.67,2.85-43.05,3.8c-11.9,0.79-23.88,0.43-35.72,1.45
					c-6.7,0.58-13.37,1.08-20.08,1.02c-5.33-0.04-10.75,0.02-15.97-0.91c-8.39-1.49-16.85-0.43-25.2-1.42
					c-5.55-0.65-11.2-1.33-16.48-3.01c-5.78-1.84-11.86-2.33-17.52-4.56c-5.8-2.29-12-3.33-17.89-5.28
					c-7.24-2.41-14.15-5.73-20.7-9.75c-2.99-1.83-6.04-3.76-9.32-4.88c-2.07-0.71-4.29-0.88-6.47-0.65
					c-21.03,2.18-42.07,4.15-63.21,5.02c-13.14,0.54-26.25,1.84-39.41,2.34c-5.7,0.22-11.39-0.18-17.08-0.1
					c-1.03,0.01-2.11-0.27-3.33,0.33c4.2,3.83,8.12,7.62,13.86,9c4.72,1.14,8.97,3.8,13.86,4.65c4.7,0.82,9.45,1.18,14.06,2.72
					c8.67,2.9,17.86,4.39,26.14,8.29c10.8,5.08,21.84,9.81,31.23,17.56c3.63,2.99,7.45,5.68,10.68,9.18
					c5.34,5.8,8.54,12.82,11.95,19.74c2.71,5.5,5.37,11.03,8.29,16.42c5.56,10.22,7.43,23.8,10.36,34.93
					c4.32,16.46,8.55,32.94,12.82,49.41c-1.54,1.83-4.15-0.91-4.86-3.19c-11.55-36.84-15.54-76.72-37.11-109.8
					c-3.39-5.21-7.27-9.84-12.53-13.51c-6.58-4.59-13.11-9.19-20.4-12.57c-4.67-2.17-9.48-4.05-14.19-6.14
					c-8.88-3.93-18.41-5.75-27.58-8.73c-3.44-1.12-7-0.91-10.48-1.7c-6.05-1.37-11.39-4.56-17.37-5.96
					c-1.76-0.41-2.97-1.93-4.53-2.78c-11.36-6.13-15.51-16.31-16.41-28.51c-0.55-7.45-1.53-14.85-1.31-22.35
					c0.14-4.73,0.61-9.42,1.18-14.08c0.76-6.18,0.26-12.48,1.78-18.57c0.57-2.29-1.06-2.18-3.77-1.86
					c-2.38,0.28-4.79,0.16-7.17-0.12c-2.05-0.24-1.86,0.94-1.79,1.92c0.15,2.39,0.55,4.77,0.63,7.17
					c0.31,8.93-1.51,17.69-2.32,26.53c-1.23,13.45-2.18,26.86,3.42,39.67c6.2,14.18,17.19,22.51,32.2,25.53
					c4.15,0.84,8.24,1.96,12.26,3.31c7.33,2.46,15.2,2.68,22.57,5.19c10.26,3.5,20.74,6.36,30.65,10.87
					c7.82,3.56,15.03,8.18,20.32,14.82c14.32,17.97,21.71,39.85,27.23,61.87c4.59,18.34,11.67,36.81,14.42,55.54
					c0.12,0.8,1.22,2.41-0.8,2.31c-1.46-0.07-3.45,1.23-4.17-1.71c-3.24-13.25-21.59-84.16-31.61-101.72
					c-7.53-15.2-19.9-24.61-35.73-30.1c-9.41-3.27-18.9-6.3-28.47-9c-6.07-1.71-12.49-1.75-18.66-3.15
					c-4.85-1.11-9.81-1.88-14.38-3.88c-9.43-4.12-18.58-8.73-26.5-15.48c-2.51-2.14-4.3-4.76-5.54-7.73
					c-0.63-1.51-1.42-1.92-2.97-1.88c-5.93,0.16-11.56,1.98-17.36,2.89c-19.13,3.02-38.38,4.05-57.72,3.59
					c-4.89-0.12-9.67-1.7-14.59-1.37c-2.72,0.18-5.35,0.04-7.95-0.8c-2.09-0.68-2.41-2.57-2.62-4.25
					c-2.55-20.69-2.91-41.51-3.32-62.32c-0.36-17.97-0.73-35.93-1.85-53.88c-0.39-6.2-0.26-12.45,0.12-18.67
					c0.77-12.53,0.41-25.07,0.23-37.62c-0.27-18.67-1.66-37.29-1.04-56.01c0.47-14.2,1.15-28.45,0.65-42.68
					c-0.09-2.48,0.74-3.65,3.25-5.12c3.17-1.87,5.66,0.6,8.5-0.43c2.25-0.82,4.88-0.75,7.23-1.64c3.74-1.43,7.45-1.3,11.43-0.66
					c10.8,1.74,21.69,2.95,32.54,4.37c49.85,6.52,99.7,13.04,149.56,19.55c43.06,5.63,86.12,11.25,129.18,16.87
					c3.26,0.43,3.68,1,3.85,4.51c0.71,14.68-0.09,29.36,0.19,44.04c0.16,8.1,0.14,7.74,7.74,10.09c8.78,2.72,16.43,7.22,21.54,15.47
					c4.05,6.53,9.89,11.6,15.78,16.5c4.24,3.53,8.74,6.78,12.7,10.6c8.26,7.96,17.36,14.91,26.25,22.09
					c3.22,2.6,7.03,4.48,10.62,6.61c1.14,0.68,2.42,1.08,3.83,0.9c1.08-0.14,2.23,0.34,2.16,1.45c-0.16,2.63,1.33,1.6,2.42,1.22
					c12.7-4.33,25.44-8.47,37.56-14.43c9.65-4.75,19.45-9.2,29.04-14.08c2-1.02,3.61-2.5,5.47-3.66
					c12.35-7.77,25.05-14.92,37.96-21.71c5.34-2.81,10.35-6.25,15.52-9.38c3.41-2.07,64.28-37.97,68.19-38.97V223.77z
					 M367.12,278.92c0.83-1.43,1.04-2.52,0.63-3.34c-0.99-1.98-0.64-4-0.57-6.02c0.67-17.77,1.87-35.52,1.9-53.32
					c0.01-3.31,1.18-4.52,4.48-4.49c4.53,0.05,9.03,0.64,13.58,0.44c1.82-0.08,3.11,1.13,3.48,2.71c0.33,1.42,0.91,1.77,2.15,1.57
					c6.43-1.03,12.96-0.79,19.42-1.47c7.08-0.75,14.17-1.31,21.26-1.89c1.49-0.12,3.22-0.46,4.4,0.57c1.65,1.43,3.55,1.53,5.47,1.61
					c1.72,0.07,3.33,0.42,4.95,0.94c6.68,2.14,13.39,4.22,20.07,6.34c3.73,1.18,7.51,2.23,11.15,3.64
					c11.12,4.3,22.35,8.28,33.99,10.88c10.58,2.36,21.05,5.24,31.86,6.5c2.12,0.25,2.45-0.03,2.32-2.19
					c-0.33-5.68-0.46-11.38-0.34-17.07c0.21-9.61,0.33-19.22-0.09-28.82c-0.16-3.59-0.33-3.83-3.96-4.31
					c-39.7-5.2-79.4-10.39-119.1-15.58c-62.37-8.16-124.74-16.31-187.11-24.47c-4.58-0.6-4.9-0.33-4.83,4.26
					c1.31,79.81,2.62,159.61,3.94,239.42c0.15,8.9,0.34,17.79,0.43,26.69c0.02,1.75,0.46,2.24,2.32,2.9
					c3.51,1.26,6.81,0.58,10.18,0.24c19.47-2,38.94-4.07,58.4-6.09c1.6-0.17,3.01-0.23,2.6-2.55c-1.3-7.33-0.76-14.7-0.21-22.06
					c0.86-11.62,1.43-23.25,1.72-34.9c0.04-1.62-0.08-2.61-2.18-2.66c-6.32-0.16-12.57-1.12-18.7-2.66
					c-8.97-2.25-18.21-4.04-24.71-11.49c-1.74-2-4.54-1.84-6.2-3.78c-4.52-5.31-6.26-11.71-6.92-18.39
					c-1.04-10.54,1.05-20.9,2.48-31.27c1.41-10.24,4.32-20.15,7.21-30.04c2.39-8.2,5.49-16.05,10.36-23.27
					c5.93-8.8,13.84-13.06,24.24-13.75c4.46-0.29,8.93-0.43,13.4-1.16c9.37-1.53,18.8-0.6,28.17,0.6
					c8.32,1.07,14.37,5.14,17.17,13.4c2.94,8.68,5.55,17.44,7.19,26.48C364.19,266.9,365.7,272.65,367.12,278.92z M367.78,283.9
					c0.51,3.04,1,5.83,1.45,8.62c1.59,9.82,3.97,19.56,3.34,29.61c-0.39,6.21-0.88,12.46-5.19,17.54
					c-4.08,4.8-9.18,8.34-14.33,11.85c-2.6,1.77-5.26,3.32-8.43,3.78c-2.99,0.43-5.97,0.92-8.97,1.24
					c-1.34,0.15-2.06,0.49-2.18,2.01c-0.29,3.54-0.8,7.07-1.18,10.6c-1.61,14.89-1.13,29.66,2.57,44.25
					c0.48,1.91,0.71,3.94,3.65,2.87c0.95-0.34,2.12-0.05,3.18-0.1c38.32-1.48,76.64-2.96,114.97-4.46c0.83-0.03,1.75,0.2,2.67-0.58
					c-2.29-1.61-4.71-2.81-6.73-4.72c-5.03-4.77-10.3-9.29-15.22-14.19c-7.52-7.49-12.74-16.09-13.81-26.92
					c-1.14-11.6,7.21-24.42,19.79-25.53c1.13-0.1,2.2-0.72,3.33-0.92c1.79-0.31,2.33-1.46,1.66-2.88
					c-2.27-4.83-2.02-10.05-2.57-15.15c-0.55-5.13,0.08-10.23,3.35-14.17c3.63-4.37,8.6-7.45,13.6-10.09
					c3.13-1.65,6.15-3.56,9.42-4.96c1.24-0.53,1.82-1.44,1.54-2.97c-0.52-2.88-0.84-5.8-1.19-8.71c-0.09-0.76-0.14-1.29-1.12-1.46
					c-6.73-1.12-13.05-3.48-18.99-6.77c-6.2-3.44-12.55-6.59-17.02-12.52c-2.9-3.85-6.8-6.87-9.92-11.56
					c0.68,7.02,1.25,13.18,1.89,19.34c0.31,3,0.22,6.11,1.27,8.95c0.66,1.81,0.3,3.03-0.94,4.24c-0.84,0.82-2,2-1.7,2.85
					c0.78,2.17-0.71,2.21-1.83,2.22c-7.87,0.06-15.78,0.62-23.49-1.74c-1.9-0.58-2.44-1.45-1.1-2.99c0.69-0.79,0.71-1.56,0.59-2.46
					c-1.3-9.87-2.6-19.74-3.88-29.61c-0.13-0.99-0.22-1.95-1.44-2.71c1.34,9.53,2.88,18.73,3.13,28.08c0.03,1.14-0.46,2.03-0.75,3
					c-0.66,2.19-2.36,3.88-2.74,5.96c-0.32,1.76-1.28,2.14-2.45,2.16C384.02,285.02,375.95,286.39,367.78,283.9z M335.52,342.6
					c13.87,0.38,15.92-0.07,25.9-7.25c2.13-1.54,3.78-3.43,4.9-5.85c2.25-4.83,2.92-9.92,2.26-15.1
					c-2.12-16.49-4.93-32.86-8.48-49.11c-2.05-9.39-4.06-18.76-7.3-27.83c-1.18-3.3-2.73-6.39-5.43-8.63
					c-2.48-2.06-5.52-3.05-8.7-3.74c-3.61-0.79-7.26-0.55-10.89-0.91c-5.86-0.57-11.75-0.65-17.56,0.41
					c-3.81,0.69-7.36,2.14-9.78,5.45c-2.15,2.94-4.19,5.95-5.96,9.16c-4.85,8.79-7.53,18.4-10.43,27.9
					c-2.46,8.06-4.98,16.12-6.55,24.45c-1.77,9.4-0.83,18.81-0.28,28.2c0.47,8.08,8.55,19.79,18.58,20.88
					c6.35,0.69,12.68,1.77,19.07,1.86C322.49,342.57,330.14,342.18,335.52,342.6z M228.2,150.96c-0.36,2.16-2.02,2.17-3.57,2.17
					c-3.82,0.01-7.65-0.15-11.46,0.26c-0.57,0.06-1.68-0.09-1.52,0.57c0.71,2.95-1.34,5.34-1.28,8.27
					c0.61,27.93,0.98,55.86,1.4,83.79c0.85,57.02,1.69,114.04,2.54,171.06c0.07,4.83,0.08,4.72,4.81,5.23
					c3.55,0.38,7.1,0.45,10.65,0.53c3.7,0.09,3.5,0.88,3.43-3.49c-0.18-10.94-0.36-21.88-0.55-32.82
					c-1.29-77.56-2.57-155.13-3.86-232.69C228.78,152.88,229.01,151.86,228.2,150.96z M297.87,226.05
					c-8.65-0.21-15.34,3.24-20.33,9.89c-5.76,7.69-8.62,16.57-11.17,25.63c-3.48,12.32-6.68,24.68-7.89,37.47
					c-0.43,4.51-1.11,9.03-1.05,13.54c0.07,5.92,1.25,11.39,4.89,16.66c3.45,5,7.14,9.25,12.57,11.74c6.39,2.94,13.2,4.76,20.05,6.3
					c4.25,0.95,8.59,1.38,12.95,1.57c1.54,0.07,1.82-0.81,1.97-1.88c0.22-1.57-1.11-1.14-1.82-1.12c-3.67,0.1-7.24-0.8-10.87-1.07
					c-5.48-0.41-10.63-2.5-14.58-5.94c-4.37-3.82-7.41-9.03-9.29-14.71c-2.31-6.98-1.66-14.55-3.83-21.46
					c-2.01-6.39-0.82-12.42,0.14-18.57c0.87-5.61,1.98-11.19,3.13-16.76c1.96-9.48,3.93-18.95,8.18-27.78
					c2.83-5.88,7.37-9.46,13.62-10.9C296.05,228.32,297.15,227.72,297.87,226.05z M479.51,337.56c-2.96-1.22-4.54-3.41-7.16-3.98
					c-1.15-0.25-1.92-1.1-1.55-2.37c0.36-1.25,1.4-1.46,2.58-1.3c1.91,0.27,3.52,1.2,5.06,2.27c3.64,2.53,4.18,2.5,7.44-0.52
					c2.38-2.2,2.4-3.09,0.08-5.43c-0.89-0.9-1.87-1.78-1.31-3.22c0.57-1.48,1.98-0.98,3.23-0.96c-1.39-2.13-2.74-4.01-3.9-5.99
					c-3.19-5.46-5.95-11.09-7.43-17.33c-0.84-3.55-1.12-3.49-4.38-1.68c-1.86,1.04-3.61,2.32-5.56,3.14
					c-4.92,2.07-8.73,5.71-12.98,8.73c-0.9,0.64-1.25,1.67-1.7,2.65c-2.6,5.63-0.73,11.4-0.55,17.1c0.1,3.11,1.11,6.49,2.57,8.81
					c1.65,2.63,5.75,0.27,8.73,0.85c0.43,0.08,0.89,0.05,1.33,0.06C468.96,338.51,473.89,338.26,479.51,337.56z M375.24,251.82
					c0,4.44-0.07,8.88,0.03,13.32c0.06,2.84,0.3,5.67,0.99,8.45c0.27,1.08,0.61,1.7,1.89,1.72c5.33,0.1,10.66,0.27,15.98,0.48
					c1.29,0.05,1.94-0.16,1.85-1.71c-0.53-9.32-1.7-18.56-3.29-27.75c-0.24-1.37-0.88-2.32-2.14-3.13
					c-4.35-2.78-7.7-6.56-10.1-11.12c-3.16-6.01-0.46-12.64,5.89-14.72c0.52-0.17,1.45-0.03,1.35-0.93
					c-0.11-0.98-0.92-1.15-1.8-1.14c-3,0.03-6.01,0.15-9,0c-3.33-0.17-3.5-0.1-3.32,3.25C374.15,229.64,375.27,240.7,375.24,251.82z
					 M419.64,276.76c6,0.07,5.81,0.09,5.37-3.88c-0.87-7.73-2.73-15.34-2.7-23.16c0.01-2.05-0.83-2.3-2.58-2.04
					c-4.68,0.71-9.36,0.8-13.98-0.47c-2.1-0.58-2.73,0.04-2.25,2.22c1.37,6.24,2.39,12.54,2.64,18.94c0.08,1.95,0.23,3.9,0.4,5.84
					c0.1,1.15,0.52,1.91,1.95,1.95C412.3,276.28,416.11,276.56,419.64,276.76z M291.8,234.11c-1.22,0.71-1.71,0.93-2.13,1.25
					c-4.25,3.22-6.19,7.92-7.94,12.69c-3.46,9.48-4.55,19.52-6.74,29.3c-0.09,0.42-0.01,0.87-0.01,1.31
					C280.88,264.11,284.1,248.7,291.8,234.11z M402.33,277.7c1.93-1.33,2.18-2.86,2.06-4.81c-0.47-8.16-1.53-16.23-3.04-24.26
					c-0.25-1.33-0.42-2.24-1.98-2.1c-1.66,0.15-1.08,1.47-0.98,2.25C399.65,258.33,400.98,267.88,402.33,277.7z M373.05,234.33
					c-0.28,0-0.56,0.01-0.84,0.01c-1.35,14.7-1.82,29.42-1.51,44.24c1.16-1.59,4.23-1.39,3.54-4.38c-0.97-4.25-1.21-8.6-1.2-12.96
					C373.06,252.26,373.05,243.3,373.05,234.33z M393.46,277.84c-5.48,0-10.96-0.04-16.43,0.03c-1.33,0.02-2.64,0.46-3.61,1.5
					c-0.41,0.44-1.2,0.78-1.01,1.45c0.24,0.81,1.14,0.71,1.81,0.72c4,0.06,8.02-0.08,12.01,0.18
					C389.24,281.92,391.59,281.04,393.46,277.84z M424.8,279.17c-6.2,0.31-11.75-0.34-17.3-0.77c-2.48-0.19-3.49,0.63-4.71,3.43
					c6.4,0,12.25-0.02,18.1,0.01C422.49,281.84,423.52,281.02,424.8,279.17z M209.14,315.28c0-7.57,0-15.14,0-22.72
					C208.26,300.14,208.09,307.71,209.14,315.28z M347.72,346.56c-3.63,0.4-7.26,0.21-10.89,0.06c-1.01-0.04-1.82,0.24-1.89,1.37
					c-0.09,1.57,1.21,1.04,1.9,0.99C340.55,348.71,344.21,348.09,347.72,346.56z M492.98,323.5c-2.04-3.8-5.39-6.58-7.79-10.09
					C486.98,317.41,489.53,320.8,492.98,323.5z"/>
			</g>
		</g>
	</g>
</g>
</svg>
