<?xml version="1.0" encoding="utf-8"?>
<!-- Generator: Adobe Illustrator 23.0.2, SVG Export Plug-In . SVG Version: 6.00 Build 0)  -->
<svg version="1.1" xmlns="http://www.w3.org/2000/svg" xmlns:xlink="http://www.w3.org/1999/xlink" x="0px" y="0px"
	 viewBox="0 0 841.89 595.28" style="enable-background:new 0 0 841.89 595.28;" xml:space="preserve">
<style type="text/css">
	.st0{fill:#ECC5BF;}
	.st1{fill:#F8E2D2;}
	.st2{fill:#CBF4FF;}
	.st3{fill:#FF3A5B;}
	.st4{fill:#E7BA9F;}
	.st5{fill:#422918;}
	.st6{fill:#E59C8B;}
	.st7{fill:#FFFFFF;}
	.st8{fill:#1D70B7;}
	.st9{fill:#FFDD4C;}
	.st10{fill:#007EFF;}
	.st11{fill:#97E6FC;}
	.st12{fill:#FFF88A;}
	.st13{fill:#FF6671;}
	.st14{fill:#D9D9D9;}
	.st15{fill:#50E3C2;}
	.st16{fill:#B1B1B1;}
	.st17{fill:#868686;}
	.st18{fill:#C89B83;}
	.st19{fill:#E3C9BB;}
	.st20{fill:#ECECEC;}
	.st21{fill:#FF8438;}
	.st22{fill:#DEB496;}
	.st23{fill:#EACEB3;}
	.st24{fill:#ECDCD2;}
	.st25{fill:#F5F5F5;}
	.st26{fill:url(#SVGID_1_);}
	.st27{fill:url(#SVGID_2_);}
	.st28{fill:#AE846C;}
	.st29{fill:#9E6D57;}
	.st30{fill:#C6C6C5;}
	.st31{fill:#F6ECE3;}
	.st32{fill:#E7BCA9;}
	.st33{fill:#F6D8C7;}
	.st34{fill:#F6E9DA;}
	.st35{fill:#1D1D1B;}
	.st36{fill:none;}
</style>
<g id="colour">
</g>
<g id="Layer_3">
	<path class="st7" d="M299.73,390.86c3.04-0.84,5.67-0.67,8.31-0.3c5.56,0.78,11.12,2.06,16.7,2.24
		c17.52,0.55,35.06,0.71,52.59,0.97c9.35,0.14,18.69,0.2,28.04,0.31c14.68,0.18,29.24,2.55,43.95,2.46
		c4.47-0.03,8.93,0.53,13.41,0.71c7.24,0.3,14.49,0.43,21.74,0.14c1.56-0.06,2.75-0.35,2.44-2.48c-1.04-7.02-0.75-14.06,0.12-21.08
		c0.6-4.86,0.45-5.23-3.87-7.52c-1.09-0.57-2.27-0.99-3.44-1.38c-2.18-0.73-4.3-1.59-6.22-2.86c-8.96-5.94-16.96-13.1-24.06-21.04
		c-5.32-5.94-10.85-11.41-17.35-15.97c-1.59-1.12-3.09-2.37-4.9-3.77c-0.53,3.64-1.08,6.71-0.96,9.87c0.16,4.43-0.67,5.36-5.01,5.69
		c-1.23,0.09-2.47,0.23-3.71,0.23c-15.73-0.05-31.47-0.11-47.2-0.21c-1.22-0.01-2.45-0.32-3.64-0.62c-0.86-0.21-1.63-0.78-1.69-1.74
		c-0.14-2.29-1.28-4.34-1.27-6.7c0.05-17.92-1.31-35.82-0.87-53.74c0.22-8.97-1.51-17.88-0.73-26.86c0.1-1.13-0.31-2.55,0.95-3.06
		c2.23-0.92,4.17-2.48,6.9-2.3c5.6,0.37,11.23,0.2,16.84,0.37c4.87,0.15,9.81,0.69,14.74-1.44c7.31-3.15,14.35-0.06,21.13,2.67
		c4.58,1.84,8.25,5.21,12.31,7.95c8.51,5.75,17.37,10.72,24.43,18.6c10.03,11.2,23.02,18.98,35.06,27.81
		c0.31,0.23,0.67,0.35,0.68,0.34c0-5.12,0.19-9.89-0.03-14.64c-0.85-18.28-1.72-36.56-2.8-54.83c-0.54-9.21-0.16-18.49-1.91-27.62
		c-0.21-1.08-0.04-2.7-1.34-2.85c-2.59-0.3-5.01-1.33-7.75-1.13c-5.32,0.38-10.67,0.44-16.01,0.38
		c-23.08-0.25-46.13-1.61-69.21-1.65c-4.1-0.01-8.2-0.13-12.3-0.18c-18.31-0.24-36.61-0.87-54.92-0.5
		c-7.05,0.14-14.08,0.84-21.15,0.63c-2.47-0.07-4.95-0.3-7.41-0.19c-3.34,0.15-4.59,1.46-3.86,4.58c0.73,3.12-0.18,6.06-0.22,9.08
		c-0.27,21.47,0.68,42.91,1.46,64.35c0.89,24.49,2.75,48.94,2.63,73.47c-0.06,12.59,0.22,25.18,0.32,37.77
		C300.64,386.76,301.18,388.74,299.73,390.86z"/>
	<g>
		<path class="st0" d="M846.57,573.36c-39.9-27.5-84.3-47.64-129.5-65.1c-15.57-6.02-29.93-7.5-46.57-8.92
			c-26.47-2.26-53.76-0.89-79.88-5.71c-40.42-7.46-68.76-42.9-93.29-75.88c-5.77-7.76-11.75-16-12.87-25.61
			c-0.99-8.5,1.82-17.86-2.53-25.23c-1.93-3.27-5.04-5.65-8.05-7.96c-23.22-17.87-45.2-37.36-65.72-58.28
			c-8.74-8.91-17.62-18.88-19.47-31.23c-1.84-12.34,6.93-26.95,19.4-26.38c6.52,0.3,12.14,4.45,17.35,8.38
			c34.17,25.85,69.66,49.97,106.28,72.22c-0.55-10.03,20.17-5.48,23.45-14.97c0.68-1.96,0.36-4.12,0.7-6.17
			c1.84-11.07,17.7-10.34,28.26-14.14c6.06-2.18,10.99-6.6,16.28-10.26c24.5-16.97,59.51-17.03,84.07-0.15
			c23.62,16.23,35.67,44.27,53.99,66.31c24.17,29.07,62.13,43.22,95.52,60.95c5.01,2.66,6.89,9.43,9.74,14.34
			c2.71,4.68,2.76,10.39,2.74,15.8c-0.19,42.25-0.39,84.5-0.58,126.74"/>
	</g>
	<g>
		<path class="st24" d="M393.95,252.41c-1.45,1.16-1.36,3.43-0.64,5.14c1.27,3.01,3.92,5.18,6.48,7.22c2.7,2.15,5.68,4.4,9.13,4.41
			c1.72,0,3.4-0.57,4.97-1.29c3.05-1.4,5.85-3.37,8.14-5.83c2.05-2.2,3.76-5.23,2.9-8.11c-0.36-1.19-1.12-2.21-1.91-3.16
			c-2.3-2.77-5.08-5.32-8.52-6.37c-3.3-1-6.92-0.5-10.15,0.73c-3.23,1.23-6.14,3.14-9.02,5.04"/>
	</g>
	<g>
		<path class="st14" d="M288.63,401.25c4.2-6.16,4.31-6.16,4.19-13.22c-0.41-24.89-1.19-49.76-1.28-74.66
			c-0.04-11.33-0.76-22.67-1.53-33.98c-0.72-10.57-0.93-21.12-0.57-31.71c0.4-11.44-0.98-22.86-0.58-34.32
			c0.18-4.99,0.03-10,0.03-14.75c-2.96,1.64-5.26,4.73-5.49,8.25c-1.03,15.33-1.68,30.68-0.55,46.01c1.3,17.6,2.01,35.21,2.01,52.86
			c0,6.58-0.07,13.17,0.26,19.74c0.95,19.14,1.81,38.28,2.22,57.44C287.49,388.78,288.16,394.62,288.63,401.25z"/>
		<path class="st14" d="M409.2,408.17c9.36,0.82,24.06,0.4,38.74,0.87c7.04,0.22,14.15-0.44,21.13,0.94
			c5.84,1.16,11.77,0.97,17.66,1.42c0.8,0.06,1.8,0.39,2.4-0.43c0.81-1.1-1.34-5.58-2.78-5.69c-5.32-0.39-10.65-0.84-15.98-0.99
			c-10.58-0.29-21.19-0.02-31.75-0.66c-21.99-1.35-44.02-1.54-66.01-2.87c-24.73-1.5-49.6,0.09-74.29-2.82
			c-0.89-0.11-1.56-0.02-1.71,0.95c-0.16,1.02-0.74,1.35-1.67,1.63c-1.11,0.33-2.43,1.3-2.26,2.27c0.24,1.37,1.9,0.74,2.92,0.8
			c16.45,0.98,32.94,0.94,49.41,2.19C364.58,407.25,384.26,407.31,409.2,408.17z"/>
	</g>
	<path class="st8" d="M358.89,222.91c-1.46-7.85,6.1-13.05,14.55-9.6c2.3,0.94,3.92,2.74,4.63,5.15c0.53,1.82,0.91,3.67,0.92,5.61
		c0.01,7.16-5.62,11.19-12.48,8.88C360.56,230.96,358.98,228.88,358.89,222.91z M371.99,223.51c0.04-3-1.36-4.59-4.2-4.41
		c-2.51,0.17-2.43,2.56-2.69,4.33c-0.25,1.76,2.57,4.36,4.64,4.08C372.16,227.18,371.58,224.84,371.99,223.51z"/>
	<path class="st8" d="M404.5,228.48c0.22-3.76-0.19-7.15-0.66-10.57c-0.52-3.75,0.25-4.64,4.04-4.84c3.62-0.19,7.19-0.9,10.84-0.76
		c1.88,0.07,2.53,0.96,2.64,2.63c0.13,1.84-0.84,2.62-2.54,2.72c-2.47,0.14-4.95,0.31-7.42,0.36c-1.22,0.03-2.04,0.25-2.01,1.71
		c0.03,1.52,1.11,1.28,2.03,1.29c2.1,0.04,4.2,0.01,6.3,0.07c1.24,0.04,2.33,0.49,2.43,1.91c0.1,1.44-0.97,1.94-2.15,2.24
		c-1.88,0.48-3.79,0.39-5.7,0.3c-1.57-0.07-2.09,0.52-1.62,2.01c0.26,0.81,0.39,1.68,0.75,2.44c0.63,1.32,1.43,2.59,0.08,3.9
		c-1.58,1.52-3.36,2.49-5.66,1.91c-1.18-0.3-1.36-1.17-1.35-2.2C404.51,231.79,404.5,229.98,404.5,228.48z"/>
	<path class="st8" d="M382.67,214.82c0.01-1.33,0.38-2.38,1.94-2.22c3.71,0.39,7.4-0.02,11.09-0.22c2.04-0.11,2.99,0.85,3.54,2.54
		c0.63,1.92-0.42,3.43-2.38,3.04c-2.32-0.47-4.52,0.44-6.78,0.18c-1.62-0.19-1.55,0.9-1.52,2.01c0.04,1.27,0.42,1.98,1.89,1.68
		c1.4-0.29,2.82-0.51,4.24-0.61c2.02-0.15,3.4,0.99,3.64,2.86c0.24,1.91-1.47,2.14-2.93,2.33c-0.57,0.07-1.13,0.16-1.7,0.2
		c-4.07,0.24-4.18,0.25-3.91,4.42c0.14,2.26,0.03,4.22-2.76,4.2c-2.68-0.02-3.05-2.08-3.05-4.25
		C383.96,225.55,383.63,220.14,382.67,214.82z"/>
	<g>
		<path class="st3" d="M404.96,363.31c0,2.58,0.01,4.9,0,7.23c-0.01,1.72-0.35,3.52-2.38,3.64c-1.8,0.1-3.3-0.87-3.42-3.01
			c-0.27-5.03-0.53-10.07-0.76-15.1c-0.05-1.09,0.44-1.93,1.6-1.97c1.69-0.06,3.36-0.26,4.56,1.57c2.1,3.22,5.24,5.38,8.55,7.84
			c0.45-2.58,0.28-4.71-0.55-6.9c-0.99-2.63,0.02-5.09,2.07-5.73c2.43-0.76,3.7,0.02,3.85,2.57c0.34,5.7,0.58,11.41,0.83,17.12
			c0.04,0.95,0.06,1.94-1.04,2.44c-1.42,0.64-2.73,0.48-4.06-0.32c-3.51-2.11-5.63-5.6-8.42-8.42
			C405.54,364.02,405.32,363.74,404.96,363.31z"/>
		<path class="st3" d="M393.54,365.5c0.17,3.62-2.06,6.85-5.73,8.69c-3.93,1.97-7.81,0.51-11.24-1.81c-3.47-2.36-4.41-5.66-3.5-9.76
			c0.52-2.36,1.27-4.6,2.58-6.53c3.02-4.46,10.62-4.54,14.52-0.3C392.05,357.84,393.54,361.76,393.54,365.5z M383.94,369.5
			c2.63,0,4.76-2.09,4.68-4.58c-0.08-2.57-3.51-5.93-6.09-5.98c-2.41-0.04-3.86,1.82-3.87,4.94
			C378.65,367.47,380.56,369.51,383.94,369.5z"/>
	</g>
	<path class="st14" d="M417.96,332.57c0-2.05-0.1-3.65,0.03-5.24c0.13-1.7-0.33-2.3-2.19-2.2c-7.68,0.41-15.36-0.29-23.07-0.09
		c-6.63,0.17-13.32-0.38-19.99-0.14c-5.01,0.18-4.78,0.26-5.29,5.03c-0.29,2.73,0.69,3.13,2.99,3.07
		c7.71-0.22,15.43,0.06,23.15-0.33C401.67,332.26,409.78,332.57,417.96,332.57z"/>
	<path class="st25" d="M391.91,246.7c-1.69,0.89-3.42,0.8-5.09,0.67c-5.23-0.41-10.46-0.48-15.69-0.42
		c-3.09,0.03-4.74,2.02-4.2,4.99c0.17,0.93,0.38,1.88,0.37,2.81c-0.27,20.84,1.04,41.66,1.19,62.49c0.02,2.94,1.18,3.55,3.61,3.44
		c3.71-0.17,7.43-0.57,11.13-0.39c10.84,0.53,21.68,0.21,32.51,0.37c3.4,0.05,3.19-0.1,2.82-3.56c-0.22-2.07-1.34-3.05-2.87-3.87
		c-2.14-1.16-3.85-2.74-5.3-4.69c-4.08-5.5-7.87-11.27-12.44-16.34c-5.88-6.53-9.61-13.84-10.8-22.48c-0.35-2.52-0.13-4.96,1.66-7
		c0.57-0.65,1.11-1.31,0.76-2.29C387.84,255.48,389.25,251.08,391.91,246.7z"/>
	<g id="switch_off_1_">
		<g>
			<g>
				<path d="M838.85,412.18c-5.1-2.18-9.92-4.87-14.56-7.9c-10.08-6.57-21.29-11.19-31.2-18.01c-2.98-2.05-6.49-2.46-9.53-4.15
					c-8.09-4.5-15.35-10.31-23.32-15c-4.33-2.55-8.11-6-12.86-7.89c-0.49-0.19-1.08-0.64-1.23-1.09c-1.21-3.79-3.97-6.55-6.71-9.05
					c-6.39-5.81-10.79-13.01-15.4-20.14c-5.74-8.87-11.98-17.41-18.71-25.57c-4.73-5.74-9.65-11.33-14.13-17.26
					c-9.22-12.19-21.36-18.29-36.58-18.22c-10.69,0.05-21.32,0.68-31.63,3.91c-5.22,1.64-9.98,4.27-14.74,6.86
					c-3.08,1.67-5.93,3.75-8.84,5.63c0.25,1.14,1.08,0.82,1.64,0.81c6.25-0.06,12.61,0.59,18.33-2.91c0.71-0.44,1.61-0.59,2.44-0.8
					c1.73-0.43,3.52-0.8,4.17,1.57c0.63,2.3-0.79,4.57-3.12,4.81c-7.66,0.76-15.32,1.45-22.99,2.11c-1.46,0.13-2.73,0.5-4.03,1.21
					c-4.86,2.65-10.26,3.51-15.65,4.23c-4.78,0.63-9.25,2.27-13.76,3.78c-4.74,1.59-6.72,5.99-9.46,9.56
					c-1.01,1.31-2.2,2.61-2.53,4.67c5.52,0.08,10.79-0.69,16.06-1.36c7.37-0.94,14.74-1.79,22.15-2.27c2.71-0.17,5.26-0.46,7.4-2.36
					c1.01-0.9,2.24-1.42,3.59-1.66c1.53-0.28,2.65,0.16,3.07,1.77c0.4,1.51,0.19,2.58-1.39,3.56c-4.37,2.71-9.3,2.52-14.03,2.82
					c-16.48,1.04-32.8,3.48-49.2,5.23c-3.59,0.38-6.97,1.87-9.72,4.44c-1.33,1.24-1.25,2.03,0.57,2.5c1.57,0.41,3.11,0.94,4.7,1.25
					c4.25,0.83,8.27,2.23,12.01,4.44c4.03,2.38,8.13,4.59,12.77,5.62c0.73,0.16,1.25,0.43,2.1,0.07c3.63-1.54,8.14,1.74,8.01,5.7
					c-0.1,2.9-2.89,3.51-6.1,2.31c-10.63-3.98-20.09-10.53-31.18-13.52c-8.49-2.29-16.19-6.46-23.5-11.4
					c-5.17-3.48-9.48-7.98-14.52-11.55c-5.42-3.84-11.11-7.47-16.1-11.73c-4.92-4.21-10.08-8.06-15.16-12.02
					c-5.55-4.33-10.7-9.13-16.19-13.53c-3.4-2.72-5.62-6.75-9.54-8.97c-0.41-0.23-0.75-0.61-1.18-0.8c-3.92-1.79-7.2-4.35-9.79-7.82
					c-1.45-1.94-3.5-3-5.86-3.11c-0.96-0.05-1.31-0.49-1.83-1.02c-2.69-2.76-5.97-4.07-9.8-3.67c-5.03,0.53-9.84,1.71-13.98,4.94
					c-2.29,1.79-4.37,6.33-2.58,8.09c2.76,2.71,4.92,6.33,8.44,7.95c2.52,1.16,5.63,0.57,8.37-0.59c2.61-1.1,5.42-1.71,7.65-3.7
					c1.4-1.25,2.6-2.48,2.96-4.38c0.23-1.23,0.75-2.3,2.24-1.97c1.47,0.32,1.45,1.59,1.36,2.76c-0.19,2.33-1.37,4.19-3.11,5.61
					c-5.61,4.58-12.05,6.83-19.32,6.38c-2.84-0.18-4.3-2.62-6.28-4.2c-0.59-0.47-0.73-1.84-1.78-1.35c-0.98,0.46-0.8,1.61-0.71,2.57
					c0.23,2.47,0.76,4.83,1.74,7.14c2.17,5.11,5.52,9.46,8.56,14.04c3.93,5.92,10.1,9.34,14.91,14.18
					c3.43,3.45,7.21,6.69,10.16,10.58c1.86,2.46,4.63,3.38,6.79,5.24c5.38,4.62,11,8.92,15.46,14.56
					c3.24,4.11,7.26,7.54,11.28,10.92c2.62,2.2,5.13,4.53,7.73,6.75c5.21,4.47,10.55,8.7,17.51,10.19c2.49,0.53,3.55,2.66,4.61,4.67
					c0.29,0.56,0.12,1.41,0.74,1.8c8.71,5.51,15.13,14,24.54,18.63c4.02,1.98,7.08,5.12,9.83,8.83
					c5.09,6.85,10.77,13.26,16.24,19.83c0.95,1.14,2.26,1.8,3.75,1.85c1.91,0.06,3.78,0.3,5.59,0.93c0.84,0.29,1.65,0.25,2.48-0.08
					c2.72-1.07,3.15-0.81,3.61,2.11c0.23,1.42,0.35,2.85,0.04,4.27c-0.77,3.44-3.39,4.33-6.13,2.1c-0.43-0.35-0.87-0.91-1.34-0.94
					c-6.42-0.42-11-4.35-15.61-8.15c-9.96-8.22-18.84-17.56-27.62-26.97c-4.97-5.33-11.67-8.57-16.43-14.34
					c0.33,8.54-2.47,16.76,1.61,25.44c3.35,7.13,6.98,14.07,10.74,20.95c1.58,2.88,3.58,5.7,5.95,7.95
					c4.41,4.18,7.88,9.02,11.02,14.13c9.63,15.66,22.61,27.85,38.26,37.37c5.06,3.08,10.69,4.69,16.01,7.09
					c1.95,0.88,4.12,0.9,6.11,1.01c7.11,0.39,14.09,1.69,21.12,2.6c15.74,2.06,31.54,1.48,47.33,1.61
					c5.81,0.05,11.6-0.38,17.43,0.21c3.27,0.33,6.34,1.22,9.49,1.93c12.98,2.93,25.67,6.79,38.08,11.61
					c13.19,5.12,26.41,10.11,39.32,15.94c10.26,4.63,20.68,8.96,31.35,12.68c5.38,1.88,10.44,4.67,15.68,6.95
					c12.06,5.25,24.07,10.63,35.86,16.47c0,2.29,0,4.58,0,6.87c-5.85-1.57-11.16-4.49-16.38-7.34
					c-9.98-5.45-20.28-10.16-30.74-14.53c-11.26-4.7-22.41-9.82-34.02-13.48c-18.66-5.88-36.49-13.95-55.12-19.91
					c-11.15-3.57-22.07-7.79-33.6-10.04c-4.25-0.83-8.57-0.23-12.85-0.42c-10.01-0.45-20.11,1.41-30-0.2
					c-12.44-2.02-25.05-2.17-37.45-4.43c-5.97-1.09-11.91-1.76-17.83-3.57c-8.66-2.64-15.88-7.23-22.79-12.68
					c-9.67-7.64-18.27-16.31-26.67-25.36c-8.27-8.91-15.13-18.81-22.76-28.15c-2.62-3.21-3.77-7.25-6.04-10.67
					c-0.79-1.19-1.66-1.62-3.03-1.61c-18.7,0.07-37.4-0.57-56.04-1.76c-16.47-1.05-32.95-1.63-49.43-2.24
					c-3.42-0.13-6.86-0.06-10.29,0.09c-13.84,0.64-27.62-1.16-41.45-1.15c-9.71,0-19.34-2.01-29.08-2.03
					c-3.33-0.01-6.63,0.56-9.99,0.25c-6.5-0.62-9.85-3.87-10-10.47c-0.27-12.11-0.45-24.23-0.51-36.34
					c-0.11-20.51-1.71-40.97-2.45-61.45c-0.63-17.44-0.39-34.91-0.97-52.35c-0.45-13.47,0.3-26.89,0.62-40.33
					c0.06-2.63,0.23-4.78,3.04-6.71c2.45-1.68,4.7-4.1,6.95-6.27c1.13-1.08,2.43-1.45,3.93-1.27c8.55,1.02,17.16,0.73,25.69,0.31
					c11.74-0.58,23.46-0.37,35.18-0.18c27.09,0.44,54.17,0.92,81.26,1.46c9.92,0.2,19.83,0.73,29.74,0.86
					c6.1,0.08,12.2-0.31,18.3-0.49c7.17-0.22,7.7,0.58,9.6,5.9c1.45,4.04,2.28,8.01,2.33,12.25c0.14,11.16,0.29,22.32,0.61,33.47
					c0.47,16.19,1.06,32.37,1.67,48.56c0.09,2.37,0.63,4.72,0.91,7.08c0.11,0.92,0.54,1.61,1.21,2.19
					c6.87,6.03,13.46,12.41,21.89,16.38c1.66,0.78,2.38,0.59,3.45-0.79c4.31-5.57,9.89-8.68,17.09-7.85c3.43,0.39,5.44-0.98,6.65-4
					c0.14-0.35,0.4-0.66,0.52-1.02c4.42-13.09,14.93-17.17,27.31-18.43c4.99-0.51,9.5-1.8,13.8-4.75
					c8.93-6.14,17.89-12.26,27.63-17.19c4.51-2.28,9.26-2.62,13.93-3.78c10.98-2.73,21.94-1.82,32.93-0.68
					c5.15,0.53,9.38,3.59,13.86,5.87c1.33,0.68,2.49,1.42,4.21,1.3c1.94-0.13,3.95,0.91,4.52,2.87c0.46,1.57,1.4,2.29,2.54,3.15
					c5.12,3.83,9.81,8.08,13.59,13.33c3.11,4.33,7.14,7.9,10.32,12.22c7.16,9.74,13.64,19.86,18.22,31.09
					c2.18,5.33,6.22,9.23,10.01,13.32c2.65,2.85,5.31,5.71,8.2,8.31c4.47,4.01,9.82,7.09,15.01,9.68
					c10.54,5.26,20.09,12.04,30.26,17.8c5.55,3.14,11.31,5.98,17.18,8.46c8.58,3.62,16.48,8.69,25.33,11.7c0,1.34,0,2.67,0,4.01
					c-2.73-0.32-4.84-2.47-8.45-2.8c3.29,1.76,5.87,3.14,8.45,4.52C838.85,408.75,838.85,410.47,838.85,412.18z M298.97,392.3
					c3.04-0.84,5.67-0.67,8.31-0.3c5.56,0.78,11.12,2.06,16.7,2.24c17.52,0.55,35.06,0.71,52.59,0.97
					c9.35,0.14,18.69,0.2,28.04,0.31c14.68,0.18,29.24,2.55,43.95,2.46c4.47-0.03,8.93,0.53,13.41,0.71
					c7.24,0.3,14.49,0.43,21.74,0.14c1.56-0.06,2.75-0.35,2.44-2.48c-1.04-7.02-0.75-14.06,0.12-21.08c0.6-4.86,0.45-5.23-3.87-7.52
					c-1.09-0.57-2.27-0.99-3.44-1.38c-2.18-0.73-4.3-1.59-6.22-2.86c-8.96-5.94-16.96-13.1-24.06-21.04
					c-5.32-5.94-10.85-11.41-17.35-15.97c-1.59-1.12-3.09-2.37-4.9-3.77c-0.53,3.64-1.08,6.71-0.96,9.87
					c0.16,4.43-0.67,5.36-5.01,5.69c-1.23,0.09-2.47,0.23-3.71,0.23c-15.73-0.05-31.47-0.11-47.2-0.21
					c-1.22-0.01-2.45-0.32-3.64-0.62c-0.86-0.21-1.63-0.78-1.69-1.74c-0.14-2.29-1.28-4.34-1.27-6.7
					c0.05-17.92-1.31-35.82-0.87-53.74c0.22-8.97-1.51-17.88-0.73-26.86c0.1-1.13-0.31-2.55,0.95-3.06c2.23-0.92,4.17-2.48,6.9-2.3
					c5.6,0.37,11.23,0.2,16.84,0.37c4.87,0.15,9.81,0.69,14.74-1.44c7.31-3.15,14.35-0.06,21.13,2.67
					c4.58,1.84,8.25,5.21,12.31,7.95c8.51,5.75,17.37,10.72,24.43,18.6c10.03,11.2,23.02,18.98,35.06,27.81
					c0.31,0.23,0.67,0.35,0.68,0.34c0-5.12,0.19-9.89-0.03-14.64c-0.85-18.28-1.72-36.56-2.8-54.83
					c-0.54-9.21-0.16-18.49-1.91-27.62c-0.21-1.08-0.04-2.7-1.34-2.85c-2.59-0.3-5.01-1.33-7.75-1.13
					c-5.32,0.38-10.67,0.44-16.01,0.38c-23.08-0.25-46.13-1.61-69.21-1.65c-4.1-0.01-8.2-0.13-12.3-0.18
					c-18.31-0.24-36.61-0.87-54.92-0.5c-7.05,0.14-14.08,0.84-21.15,0.63c-2.47-0.07-4.95-0.3-7.41-0.19
					c-3.34,0.15-4.59,1.46-3.86,4.58c0.73,3.12-0.18,6.06-0.22,9.08c-0.27,21.47,0.68,42.91,1.46,64.35
					c0.89,24.49,2.75,48.94,2.63,73.47c-0.06,12.59,0.22,25.18,0.32,37.77C299.89,388.2,300.43,390.18,298.97,392.3z M392.14,247.03
					c-1.69,0.89-3.42,0.8-5.09,0.67c-5.23-0.41-10.46-0.48-15.69-0.42c-3.09,0.03-4.74,2.02-4.2,4.99c0.17,0.93,0.38,1.88,0.37,2.81
					c-0.27,20.84,1.04,41.66,1.19,62.49c0.02,2.94,1.18,3.55,3.61,3.44c3.71-0.17,7.43-0.57,11.13-0.39
					c10.84,0.53,21.68,0.21,32.51,0.37c3.4,0.05,3.19-0.1,2.82-3.56c-0.22-2.07-1.34-3.05-2.87-3.87c-2.14-1.16-3.85-2.74-5.3-4.69
					c-4.08-5.5-7.87-11.27-12.44-16.34c-5.88-6.53-9.61-13.84-10.8-22.48c-0.35-2.52-0.13-4.96,1.66-7
					c0.57-0.65,1.11-1.31,0.76-2.29C388.07,255.81,389.48,251.41,392.14,247.03z M288.89,401.24c4.2-6.16,4.31-6.16,4.19-13.22
					c-0.41-24.89-1.19-49.76-1.28-74.66c-0.04-11.33-0.76-22.67-1.53-33.98c-0.72-10.57-0.93-21.12-0.57-31.71
					c0.4-11.44-0.98-22.86-0.58-34.32c0.18-4.99,0.03-10,0.03-14.75c-2.96,1.64-5.26,4.73-5.49,8.25
					c-1.03,15.33-1.68,30.68-0.55,46.01c1.3,17.6,2.01,35.21,2.01,52.86c0,6.58-0.07,13.17,0.26,19.74
					c0.95,19.14,1.81,38.28,2.22,57.44C287.74,388.77,288.41,394.61,288.89,401.24z M409.46,408.16c9.36,0.82,24.06,0.4,38.74,0.87
					c7.04,0.22,14.15-0.44,21.13,0.94c5.84,1.16,11.77,0.97,17.66,1.42c0.8,0.06,1.8,0.39,2.4-0.43c0.81-1.1-1.34-5.58-2.78-5.69
					c-5.32-0.39-10.65-0.84-15.98-0.99c-10.58-0.29-21.19-0.02-31.75-0.67c-21.99-1.35-44.02-1.54-66.01-2.87
					c-24.73-1.5-49.6,0.09-74.29-2.82c-0.89-0.11-1.56-0.02-1.71,0.95c-0.16,1.02-0.74,1.35-1.67,1.63
					c-1.11,0.33-2.43,1.3-2.26,2.27c0.24,1.37,1.9,0.74,2.92,0.8c16.45,0.98,32.94,0.94,49.41,2.19
					C364.84,407.24,384.52,407.3,409.46,408.16z M419.23,332.26c0-2.05-0.1-3.65,0.03-5.24c0.13-1.7-0.33-2.3-2.19-2.2
					c-7.68,0.41-15.36-0.29-23.07-0.09c-6.63,0.17-13.32-0.38-19.99-0.14c-5.01,0.18-4.78,0.26-5.29,5.03
					c-0.29,2.73,0.69,3.13,2.99,3.07c7.71-0.22,15.43,0.06,23.15-0.33C402.94,331.94,411.06,332.26,419.23,332.26z M292.72,270.6
					c0-1.85,0.01-3.71,0-5.56c-0.01-1.8,0.06-3.61-0.06-5.4c-0.11-1.74-0.42-3.47-0.64-5.21
					C291.68,259.86,291.29,265.26,292.72,270.6z"/>
			</g>
		</g>
	</g>
</g>
</svg>
