<?xml version="1.0" encoding="utf-8"?>
<!-- Generator: Adobe Illustrator 23.0.2, SVG Export Plug-In . SVG Version: 6.00 Build 0)  -->
<svg version="1.1" xmlns="http://www.w3.org/2000/svg" xmlns:xlink="http://www.w3.org/1999/xlink" x="0px" y="0px"
	 viewBox="0 0 841.89 595.28" style="enable-background:new 0 0 841.89 595.28;" xml:space="preserve">
<style type="text/css">
	.st0{fill:#ECC5BF;}
	.st1{fill:#F8E2D2;}
	.st2{fill:#CBF4FF;}
	.st3{fill:#FF3A5B;}
	.st4{fill:#E7BA9F;}
	.st5{fill:#422918;}
	.st6{fill:#E59C8B;}
	.st7{fill:#FFFFFF;}
	.st8{fill:#1D70B7;}
	.st9{fill:#FFDD4C;}
	.st10{fill:#007EFF;}
	.st11{fill:#97E6FC;}
	.st12{fill:#FFF88A;}
	.st13{fill:#FF6671;}
	.st14{fill:#D9D9D9;}
	.st15{fill:#50E3C2;}
	.st16{fill:#B1B1B1;}
	.st17{fill:#868686;}
	.st18{fill:#C89B83;}
	.st19{fill:#E3C9BB;}
	.st20{fill:#ECECEC;}
	.st21{fill:#FF8438;}
	.st22{fill:#DEB496;}
	.st23{fill:#EACEB3;}
	.st24{fill:#ECDCD2;}
	.st25{fill:#F5F5F5;}
	.st26{fill:url(#SVGID_1_);}
	.st27{fill:url(#SVGID_2_);}
	.st28{fill:#AE846C;}
	.st29{fill:#9E6D57;}
	.st30{fill:#C6C6C5;}
	.st31{fill:#F6ECE3;}
	.st32{fill:#E7BCA9;}
	.st33{fill:#F6D8C7;}
	.st34{fill:#F6E9DA;}
	.st35{fill:#1D1D1B;}
	.st36{fill:none;}
</style>
<g id="colour">
</g>
<g id="Layer_3">
	<g>
		<path class="st0" d="M408.63,245.25l0.27-0.9C408.76,244.65,408.67,244.95,408.63,245.25z"/>
	</g>
	<g>
		<path class="st0" d="M696.06,388.33c-45.15-15.96-95.74-24.22-132.2-55.26c-9.43-8.03-15.12-22.29-25.19-29.51
			c-37.46-26.88-90.77-24.19-126.82-52.94c-1.7-1.36-3.49-3.38-3.23-5.36l-1.07,3.58c0.14-4.41-6-6.8-9.85-4.65
			c-3.85,2.14-5.5,6.83-6.06,11.2c-2.61,20.24,14.5,44.3,34.82,46.2c0.07,8.5,4.17,13.46,11.38,17.98
			c3.34,2.09,7.14,3.39,10.42,5.58c3.37,2.25,3.29,7.52,5.95,10.57c15.03,17.27,32.84,32.37,47.86,49.64
			c6.4,7.35,13.21,15.95,12.11,25.63c-0.72,6.36-4.79,11.78-8.92,16.67c-10.34,12.23-22.03,23.31-34.8,32.97
			c-3.35,2.54-6.97,5.05-11.13,5.6c-11.69,1.53-17.58-11.23-27.7-17.28c6.47-5.28,14.78-8.1,17.08-16.13
			c2.3-8.03,4.41-16.11-3.52-18.72c-7.31-2.4-23.22-0.62-30.39,2.2c-7.16,2.82-12.4,1.31-14.97-5.94
			c9.19,0.59,13.58-14.66,11.23-23.56s-14.38-12.62-23.44-14.23c-9.06-1.61-17.07,1.9-25.22-1.18c-6.22-7.73-6.18-14.72-9.69-24
			s-10.85-18.17-20.7-16.95c-3.07-13.55-14.33-30.76-28.18-31.71c-8.59,19.82,9.18,36.2,22.46,34.35
			c-9.95,6.24-12.39,21.04-5.28,30.39c7.11,9.35,26.91,9.86,38.31,7.05c1.77,2,5.47,2.55,4.84,5.06
			c-1.58,6.36-11.92,15.71-11.89,22.46c0.03,6.72,2.15,10.42,7.81,14.03c5.67,3.61,11.39,8.05,17.51,10.85
			c1.75,0.8,4.44-0.7,5.14,1.1c0.62,1.6,0.15,3.4-0.14,5.09c-2.59,15.18,8.63,32.56,22.08,40.05
			c31.36,17.46,68.93,21.86,104.66,25.32c58.8,5.7,118.45,12.63,172.85,35.68c4.08,1.73,136.65,67.04,157.52,74.24
			c0.88-60.72,0.78-121.08,2.45-181.86C809.01,413.9,697.95,389,696.06,388.33z"/>
	</g>
	<g>
		<path class="st1" d="M390.41,382.39c-1.61-0.22-3.15,0.81-4.15,2.1c-2.9,3.74-2.21,9.04-1.38,13.7c0.12,0.66,0.25,1.34,0.67,1.86
			c0.63,0.78,1.73,0.98,2.73,1.06c2.65,0.2,5.33-0.07,7.89-0.8c1.35-0.38,2.73-0.94,3.58-2.05c0.6-0.77,0.88-1.73,1.11-2.68
			c0.63-2.59,0.97-5.24,1.02-7.91c0.01-0.79,0-1.6-0.26-2.35c-0.98-2.84-4.67-3.43-7.67-3.54"/>
	</g>
	<g>
		<path class="st1" d="M441.62,416.82c-3.05,0.91-5.45,0.23-8.39,1.44c-1.6,0.66-3.2,1.37-4.53,2.46c-2.47,2.03-3.8,5.36-3.41,8.53
			c0.39,3.17,2.5,6.08,5.39,7.44c2.26,1.07,4.82,1.21,7.32,1.3c1.18,0.04,2.37,0.08,3.51-0.19c0.78-0.97,1.33-2.08,1.58-3.31
			C445.42,428.27,445.94,421.97,441.62,416.82z"/>
	</g>
	<path class="st2" d="M437.61,409.92c9.06-1.17,16.97,10.69,12.97,21.39c-2.47,6.61-6.11,11.78-11.75,15.3
		c-2.78,1.73-2.73,1.82-0.86,4.63c2.5,3.76,5.73,6.77,8.56,10.18c2.56,3.08,5.63,4.22,8.9,3.17c5.21-1.67,10.32-3.84,14.83-7.4
		c3.42-2.7,5.88-6.54,9.6-8.92c9.18-5.87,16.59-14.08,23.6-22.75c2.86-3.53,5.59-7.2,8.37-10.81c0.77-1.01,1.36-2.12,0.93-3.5
		c-1.43-4.6-3.05-9.17-6.07-12.76c-8.78-10.41-17.66-20.73-27.13-30.38c-9.9-10.09-19.35-20.68-28.7-31.38
		c-0.64-0.73-1.55-1.48-1.33-2.49c0.48-2.2-0.9-2.67-2.16-3.3c-6.58-3.28-12.67-7.08-17.6-13.29c-2.7-3.4-4.67-6.76-5.32-11.07
		c-0.23-1.51-0.72-1.91-2.01-1.97c-2.49-0.13-4.86-0.95-7.16-2.02c-10.87-5.09-17.88-14.48-22.82-25.82c-1.82-4.18-3.2-8.88-3-13.71
		c0.08-1.88-0.42-3.06-1.56-4.28c-6.89-7.35-13.94-14.52-20.5-22.24c-3-3.52-5.62-7.48-8.83-10.72
		c-7.94-8.02-14.92-17.04-22.47-25.46c-10.87-12.11-21.07-24.94-31.65-37.37c-13.78-16.18-27.41-32.54-42.76-46.99
		c-3.29-3.1-6.49-3.7-10.41-1.34c-2.25,1.35-4.49,2.73-6.6,4.32c-11.71,8.87-22.43,18.99-31.97,30.65
		c-2.38,2.91-4.82,5.65-6.58,9.13c-2.85,5.66-3.14,11.14-0.05,16.81c4.36,8,9.56,15.31,14.97,22.45c4.14,5.46,9,10.22,13.09,15.7
		c13.63,18.27,28.24,35.5,44.29,51.19c13.49,13.18,26.75,26.62,39.1,41.12c5.43,6.37,11.69,11.85,16.36,19.04
		c2.19,3.36,5.27,5.84,8.2,8.3c2.31,1.93,4.75,3.69,6.56,6.17c4.1,5.62,8.34,11.25,7.23,19.29c-0.09,0.64,0.01,1.22,0.41,1.79
		c2.91,4.21,5.85,8.37,9.73,11.59c0.65,0.54,1.26,0.86,2.03,0.62c3.89-1.19,7.91-0.5,11.82-1.01c3.04-0.4,6.48,1.21,9.12-1.79
		c0.1-0.11,0.56-0.04,0.67,0.11c1.97,2.62,4.86,1.92,7.32,2.23c14.18,1.79,18.59,18.37,14.31,29.13c-1.62,4.08-4.86,6.06-7.81,8.5
		c-0.49,0.41-1.31,0.54-1.26,1.49c0.08,1.62,4.01,4.9,5.46,4.36c3.79-1.41,7.78-1.61,11.64-2.61
		C425.33,411.59,431.44,410.46,437.61,409.92z"/>
	<path class="st3" d="M444.19,391.05c3.1,2.03,5.66,1.96,7.6-0.44c1.51-1.87,1.21-5.25-1.29-7.82c-3.62-3.72-6.28-8.3-9.77-12.17
		c-10.84-11.99-21.36-24.34-31.88-36.67c-15.91-18.66-31.17-37.98-47.34-56.39c-8.56-9.75-16.67-19.99-25.3-29.69
		c-1.29-1.45-2.06-1.63-3.25,0.07c-1.45,2.07-2.95,4.2-4.79,5.77c-1.41,1.2-0.85,1.65-0.12,2.7c3.55,5.09,7.81,9.49,11.5,14.45
		c3.5,4.7,7.56,8.89,11.23,13.44c10.27,12.72,21.3,24.63,31.89,37c5.53,6.46,11.91,11.95,17.02,18.92c2.63,3.59,5.73,6.8,8.42,10.38
		c0.92,1.22,1.55,2.72,3.51,2.29c1.09-0.23,1.57,1.47,1.36,2.11c-0.6,1.79,0.54,2.54,1.32,3.46c6.36,7.55,12.74,15.07,19.14,22.58
		c1.81,2.13,3.5,4.43,6.1,6.24"/>
	<path class="st7" d="M324.55,250.88c-6.76-9.01-14.61-16.91-21.49-25.8c-2.41-3.11-5.45-5.56-7.72-8.83
		c-0.57-0.82-1.59-1.4-1.14-2.77c0.11-0.34-0.15-0.65-0.48-0.84c-5.31-3.15-13.96-13.5-15.69-17.91c-1.24-3.15,0.88-5.83,5.16-5.73
		c2.91,0.4,5.85,2.35,7.76,5.31c8.16,12.68,19.15,22.33,28.82,33.38c4.13,4.72,8.19,9.51,12.31,14.23c0.83,0.95,1.24,1.43,0.07,2.74
		c-1.77,1.98-3.73,3.82-5.09,6.24C326.25,252.31,325.44,252.07,324.55,250.88z"/>
	<path class="st1" d="M329.03,360.3c-0.51,1.04-1.22,1.71-2.38,1.54c-1.12-0.16-1.78-0.75-2.45-1.9c-1.54-2.67-3.31-5.13-2.56-8.45
		c0-0.78-0.09-1.43,0.02-2.05c0.33-1.99-0.15-4.77,2.09-5.38c2.42-0.66,5.09-0.81,7.29,1.3c0.61,0.59,0.92,1.19,0.93,2.09
		C332.01,352.03,330.99,356.3,329.03,360.3z"/>
	<g>
		<path d="M444.75,415.82c-0.65-1.1-1.82-1.92-3.43-2.21c0.07,0.03,0.14,0.07,0.21,0.1c0.14,0.02,0.28,0.04,0.43,0.07
			c-0.03,0.04-0.05,0.06-0.08,0.1C442.95,414.39,444.1,414.96,444.75,415.82z"/>
		<path d="M406.19,248.22c0.78,0.66,1.54,1.37,2.22,2.15c3.65,4.2,7.94,7.64,12.68,9.88c7.87,3.72,15.86,7.09,24.2,9.62
			c8.05,2.44,16.11,4.65,24.26,6.6c10.02,2.39,19.66,6.3,29.54,9.28c10.01,3.02,19.52,7.21,28.48,13.1
			c9.68,6.36,18.02,14.2,23.93,24.84c2.87,5.18,6.32,9.71,10.63,13.34c7.42,6.25,15.02,12.12,23.76,16.13
			c10.14,4.65,20.24,9.39,30.47,13.81c5.55,2.4,11.11,4.65,16.92,6.16c8.85,2.3,17.6,4.99,26.18,8.33
			c8.59,3.34,162.22,40.45,171.27,41.79c6.05,0.9,11.98,2.69,18.11,2.93c0-1.83,0-3.65,0-5.48c-3.25-0.64-6.55-1.05-9.74-1.95
			c-20.89-5.85-186.68-46.07-206.94-54.29c-8.37-3.4-16.94-6.19-25.1-10.2c-10.33-5.07-20.55-10.47-31-15.2
			c-9.57-4.33-16.58-11.49-22.07-20.98c-3.37-5.83-7.22-11.31-12.03-15.91c-4.96-4.76-10.4-8.71-16.12-12.18
			c-7.82-4.75-15.72-9.2-24.67-11.06c-8.18-1.71-16.32-3.73-24.36-6.19c-7.93-2.42-15.61-5.83-23.9-6.84
			c-2.51-0.3-5.12-0.56-7.55-1.39c-6.61-2.26-13.32-4.2-19.68-7.29c-1.57-0.76-3.36-0.92-4.72-2.29c-3.71-3.76-7.64-7.23-11.66-10.6
			c-3.83-3.21-8.46-2.98-11.64,1.07c-1.52,1.93-2.79,4.06-3.74,6.43c-1.11,2.79-1.17,2.81-3.13,0.6
			c-9.02-10.16-17.87-20.52-27.45-30.05c-10.44-10.39-20.04-21.73-30.1-32.55c-8.53-9.17-16.92-18.47-24.98-28.14
			c-9.17-11.02-18.45-21.91-28.14-32.38c-4.95-5.36-9.78-10.85-14.37-16.6c-2.07-2.6-4.37-5.02-7.9-5.01
			c-5.52,0.01-10.72,1.6-15.14,5.12c-7.71,6.14-14.6,13.39-21.52,20.58c-5.29,5.5-10.22,11.38-15.21,17.19
			c-6.14,7.14-7.77,15.58-5.19,24.81c1.16,4.14,3.44,7.87,5.52,11.6c3.49,6.27,8.12,11.48,12.6,16.84
			c7.46,8.94,13.45,19.29,22.13,27.09c6.21,5.58,11.12,12.7,16.41,19.35c8.19,10.28,17.11,19.78,25.77,29.57
			c5.2,5.87,10.29,11.86,15.54,17.67c2.13,2.35,3.09,4.44,1.91,8c-2.9,8.74,1.07,19.54,8.74,23.76c3.93,2.16,7.8,4.47,12.44,3.8
			c0.37-0.05,0.83-0.12,1.21,0.63c-1.18,1.58-2.34,3.27-3.7,4.86c-2.75,3.23-5.21,6.88-4.58,11.61c1.24,9.28,4.73,17.08,12.92,21.28
			c7.54,3.86,15.49,4.08,23.51,2.92c2.58-0.37,5.15-1.28,7.55-2.4c1.02-0.48,1.37-0.42,1.95,0.37c0.47,0.64,0.94,1.31,1.53,1.78
			c1.09,0.86,1.13,1.49,0.06,2.48c-2.15,1.98-3.93,4.38-5.85,6.63c-7.09,8.32-8.21,24.25,3.1,32.46c6.58,4.78,13.94,7.41,21.42,9.68
			c1.59,0.48,2.01,0.71,1.4,2.77c-3.49,11.79-2.37,23.71,6.62,32.77c4.86,4.89,10.31,8.58,16.03,11.77l-0.07,0.22
			c0,0,3.71,2.12,10.65,5.17c0.14,0.07,0.27,0.13,0.41,0.2c1,0.48,2.01,0.9,3.03,1.28c34.88,12.89,70.13,20.66,107.54,20.84
			c25.18,0.12,49.15,3.31,73.72,9.66c25.05,6.47,49.61,14.77,73.72,24.12c22.17,8.6,43.93,18.23,65.3,28.64
			c35.25,17.16,71.06,39.05,108.19,51.86c0-2.56,0-5.11,0-7.67c0-5.82-81.89-38.22-89.54-41.91
			c-44.86-21.61-90.35-43.9-137.89-58.95c-20.71-6.55-41.98-9.41-63.57-11.8l-0.3-0.3c0,0-0.79,0.01-2.24,0.02
			c-22.83,0.08-45.68-1.07-68.32-4.06c-11.44-1.51-22.83-3.49-34.09-6.04c-10.33-2.34-20.11-6.91-30.34-9.69
			c-10.13-2.76-19.29-8.59-26.79-15.84c-3.47-3.35-6.45-7.56-8.4-12.41c-2.75-6.84,0.13-16.36,5.73-20.55
			c6.49-4.86,14.02-5.71,21.29-7.53c6.51-1.62,13.13-2.7,19.7-4.04c2.85-0.58,5.68-0.68,8.77-0.17c-0.07-0.03-0.14-0.07-0.21-0.1
			c-0.39-0.07-0.8-0.12-1.24-0.12c0.44,0,0.85,0.05,1.24,0.12c-0.08-0.04-0.16-0.08-0.24-0.12c0.08,0.04,0.16,0.08,0.24,0.12
			c1.61,0.28,2.78,1.11,3.43,2.21c0.14,0.18,0.24,0.38,0.33,0.58c3.52,3.29,4.43,8.05,2.65,13.61c-1.94,6.03-5.36,10.58-10.48,13.61
			c-2.54,1.5-4.28,4.73-7.7,4.29c-3.02,3.47-7.2,2.39-10.85,3.41c-0.56,0.16-1.15,0.16-1.71,0.3c-1.14,0.3-2.49,0.6-2.15,2.35
			c0.31,1.58,1.55,1.27,2.64,1.08c3.67-0.63,7.35-1.23,11.03-1.83c0.8-0.13,1.63-0.45,2.34,0.32c2.24,2.42,4.51,4.81,6.75,7.24
			c2.83,3.07,5.6,6.19,8.46,9.22c1.69,1.79,3.77,2.4,6.11,2.48c5.35,0.18,10.33-0.77,15.31-3.34c6.33-3.27,12.34-7.09,17.8-11.75
			c8.57-7.31,16.29-15.71,23.28-24.89c3.51-4.61,7.07-9.17,9.2-14.83c0.95-2.54,1.53-5.11,0.23-7.62
			c-3.79-7.34-7.66-14.46-13.11-20.69c-8.21-9.39-16.6-18.56-25.16-27.54c-7.43-7.79-14.65-15.81-21.84-23.87
			c-0.4-0.45-1.01-0.85-0.92-1.75c9.13,3.67,18.15,7.26,24.82,15.49c0.66,0.82,1.5,1.69,2.57,0.92c1.09-0.79,0.73-1.86,0.1-2.85
			c-0.18-0.29-0.49-0.74-0.4-0.95c1.26-3.01-1.01-4.11-2.5-5.49c-6.96-6.43-15.14-10.49-23.64-13.46
			c-10.48-3.66-19.49-9.17-25.92-19.37c-2.14-3.4-2.8-6.68-1.82-10.51c0.42-1.64,0.92-3.47-1.06-4.12
			c-1.91-0.62-3.12,0.45-3.44,2.71c-0.26,1.82-1.39,2.31-2.93,2.02c-2.38-0.45-4.68-1.17-6.72-2.66
			c-7.35-5.34-13.7-11.86-17.73-20.59c-4.29-9.3-5.36-18.78,0.57-27.95C401.45,245.34,402.54,245.15,406.19,248.22z M321.95,329.4
			c-5.99-0.31-10.78-2.21-14.61-6.2c-4.89-5.11-5.54-12.8-2.93-19.44c0.49-1.25,1.16-1.6,2.21-0.44
			c6.91,7.56,13.85,15.08,20.8,22.59c0.81,0.87,0.6,1.3-0.32,1.71C325.22,328.45,323.49,329.95,321.95,329.4z M332.66,369.81
			c-8.96-2.95-14.75-8.59-14.87-20.38c-0.03-3.26,1.55-5.81,3.35-7.99c1.5-1.82,2.88-3.74,4.38-5.54c4.3-5.19,7.95-6.61,13.03-1.49
			c2.08,2.1,4.6,3.44,6.61,5.69c2.84,3.17,4.94,6.86,6.82,10.68c1.66,3.37,1.5,7.06,0.05,10.55c-0.85,2.07-1.96,4.01-2.94,6.01
			c-0.47,0.96-0.69,1.95,0.29,2.65c0.99,0.71,1.77,0.07,2.32-0.79c0.61-0.96,1.2-1.98,1.61-3.07c0.8-2.16,1.64-1.87,2.58-0.18
			c0.54,0.98,1.56,1.6,1.78,2.71C349.41,372.11,340.97,372.55,332.66,369.81z M400.89,416.98c-0.23,0.97-1.51,0.93-2.36,1.12
			c-3.25,0.71-5.88,2.82-8.64,4.63c-0.94,0.62-1.83,1.09-3.01,0.78c-7.81-2.04-15.44-4.64-22.6-8.68c-3.62-2.04-6.95-4.78-8.63-9.06
			c-2.69-6.88-1.66-13.31,2.41-19.27c2.55-3.72,5.62-6.76,9.1-9.38c1.66-1.25,3.51-1.62,5.39-1.69c3.13-0.13,6.27-0.03,9.4-0.03
			c5.37-0.73,10.72-0.66,16.02,0.52c8.71,1.93,12.68,10.09,11.69,19.22c-0.78,7.21-6.2,12.76-12.55,13.65
			c-0.4,0.06-0.85,0.12-1.17,0.35c-3.4,2.47-7.25,2.78-11.15,2.87c-0.41,0.01-0.83,0.01-1.23,0.07c-0.9,0.15-1.61,0.62-1.58,1.73
			c0.02,1.11,0.73,1.55,1.65,1.64c2.91,0.3,5.76-0.31,8.61-0.72c1.3-0.19,2.51-1.43,3.83,0.06c0.3,0.34,1.03,0.12,1.32-0.37
			c0.67-1.1,1.3-0.91,1.91-0.01C399.9,415.26,401.16,415.86,400.89,416.98z M415.46,302.46c2.3,1.08,4.67,1.9,7.16,2.02
			c1.29,0.07,1.78,0.47,2.01,1.97c0.66,4.31,2.62,7.66,5.32,11.07c4.93,6.22,11.03,10.02,17.6,13.29c1.26,0.63,2.65,1.1,2.16,3.3
			c-0.22,1.01,0.69,1.76,1.33,2.49c9.35,10.7,18.8,21.29,28.7,31.38c9.47,9.65,18.36,19.96,27.13,30.38
			c3.02,3.59,4.64,8.16,6.07,12.76c0.43,1.38-0.16,2.5-0.93,3.5c-2.78,3.62-5.51,7.28-8.37,10.81c-7.01,8.66-14.42,16.88-23.6,22.75
			c-3.72,2.38-6.19,6.22-9.6,8.92c-4.51,3.56-9.62,5.73-14.83,7.4c-3.27,1.05-6.34-0.09-8.9-3.17c-2.83-3.41-6.06-6.42-8.56-10.18
			c-1.87-2.81-1.92-2.9,0.86-4.63c5.64-3.51,9.28-8.69,11.75-15.3c4-10.69-3.91-22.55-12.97-21.39c-6.17,0.54-12.28,1.67-18.3,3.23
			c-3.86,1-7.85,1.2-11.64,2.61c-1.46,0.54-5.38-2.74-5.46-4.36c-0.05-0.95,0.77-1.08,1.26-1.49c2.95-2.44,6.19-4.41,7.81-8.5
			c4.28-10.76-0.13-27.34-14.31-29.13c-2.45-0.31-5.35,0.39-7.32-2.23c-0.11-0.15-0.58-0.22-0.67-0.11c-2.64,3-6.08,1.39-9.12,1.79
			c-3.91,0.51-7.93-0.17-11.82,1.01c-0.77,0.24-1.38-0.08-2.03-0.62c-3.89-3.22-6.83-7.38-9.73-11.59c-0.39-0.57-0.5-1.14-0.41-1.79
			c1.11-8.04-3.13-13.67-7.23-19.29c-1.81-2.48-4.25-4.24-6.56-6.17c-2.94-2.45-6.02-4.94-8.2-8.3
			c-4.67-7.18-10.93-12.67-16.36-19.04c-12.35-14.5-25.61-27.94-39.1-41.12c-16.05-15.68-30.66-32.92-44.29-51.19
			c-4.09-5.48-8.94-10.24-13.09-15.7c-5.41-7.14-10.61-14.44-14.97-22.45c-3.09-5.68-2.8-11.15,0.05-16.81
			c1.75-3.48,4.2-6.22,6.58-9.13c9.54-11.66,20.26-21.79,31.97-30.65c2.11-1.59,4.35-2.97,6.6-4.32c3.92-2.35,7.12-1.76,10.41,1.34
			c15.35,14.45,28.98,30.8,42.76,46.99c10.58,12.43,20.78,25.26,31.65,37.37c7.55,8.42,14.53,17.45,22.47,25.46
			c3.21,3.25,5.84,7.2,8.83,10.72c6.56,7.72,13.6,14.89,20.5,22.24c1.14,1.22,1.64,2.39,1.56,4.28c-0.2,4.83,1.19,9.53,3,13.71
			C397.57,287.99,404.59,297.37,415.46,302.46z"/>
		<path d="M445.02,416.34c0.02,0.02,0.04,0.05,0.07,0.07c-0.09-0.21-0.2-0.4-0.33-0.58C444.85,415.99,444.94,416.16,445.02,416.34z"
			/>
		<path d="M443.81,418.78c-0.34-0.53-0.91-1.62-0.97-1.9c-0.02-0.08-0.08-0.14-0.14-0.19c-1.71-1.53-3.32-1.17-5.45-0.94
			c-1.59,0.21-3.2,0.38-4.77,0.7c-5.58,1.13-9.05,5.89-9.14,11.94c-0.15,9.46,7.4,12.12,14.14,10.81c0.23,0.1,0.51,0.12,0.84,0
			c4.95-1.92,7.61-6.38,7.79-11.63c0.1-2.92-0.01-6.45-2.15-8.7c0.04,0.14,0.07,0.29,0.11,0.43
			C443.99,419.11,443.91,418.94,443.81,418.78z M443.45,428.72c-0.4,3.25-1.98,6.09-4.86,7.61c-0.33-0.16-0.75-0.16-1.16-0.1
			c-2.07,0.29-4.14,0.21-6.18-0.08c-2.43-0.35-4.26-2.14-4.77-4.56c-0.63-2.97-1.5-6.26,1.19-8.93c2.95-2.94,6.49-3.71,10.26-4.02
			c0.52-0.04,1.04-0.09,1.55-0.17c0.13,0.5,0.5,0.95,1.13,1.04C443.85,419.95,443.71,426.61,443.45,428.72z"/>
		<path d="M390.96,302.66c0.45-0.56,1-1.14,0.47-1.88c-0.54-0.76-1.15-0.29-1.74,0.1c-1.04,0.69-1.64,2.49-2.9,2.24
			c-1.27-0.26-1.82-2-2.78-2.99c-0.54-0.56-1.04-1.17-1.54-1.78c-2.64-3.18-2.65-3.19-0.19-6.36c0.45-0.59,0.98-1.12,0.29-1.84
			c-0.6-0.63-1.23-0.35-1.77,0.16c-0.44,0.42-0.87,0.85-1.24,1.33c-0.95,1.22-1.74,1.35-2.77-0.02c-1.16-1.54-2.49-2.92-3.82-4.29
			c-1.05-1.08-1.59-2.03-0.23-3.31c0.53-0.5,1.16-1.37,0.39-2.1c-0.71-0.68-1.43-0.03-1.89,0.63c-0.98,1.39-1.72,0.92-2.51-0.22
			c-0.55-0.79-1.16-1.57-1.85-2.2c-1.9-1.73-3.3-3.46-0.74-5.88c0.34-0.32,0.65-0.92,0.16-1.44c-0.42-0.44-0.94-0.37-1.36-0.02
			c-0.46,0.38-0.9,0.82-1.24,1.32c-0.63,0.93-1.16,1.1-1.93,0.13c-1.31-1.64-2.7-3.2-4.09-4.76c-0.81-0.91-0.8-1.69,0.07-2.54
			c0.61-0.6,1.93-1.14,0.96-2.28c-0.83-0.97-1.6,0.25-2.34,0.73c-0.49,0.32-0.74,1.19-1.55,0.16c-1.49-1.9-3.22-3.56-4.8-5.38
			c-0.91-1.04-1.93-2.1-2.43-3.37c-0.14-0.36,1.43-1.47,2.14-2.32c0.54-0.65,1.29-1.46,0.39-2.32c-0.8-0.77-1.27,0.14-1.81,0.7
			c-2.41,2.45-2.49,2.44-4.69-0.08c-0.98-1.11-1.84-2.35-2.88-3.39c-1.25-1.25-1.06-2.39,0.08-3.4c1.18-1.05,1.35-2.33,1.07-3.89
			c-1.14,0.58-2.13,1.33-2.79,2.54c-0.7,1.28-1.27,1.05-2.32,0.21c-1.07-0.85-0.78-2.68-2.18-3.08c-1.38-0.4-2.2-1.63-2.97-2.76
			c-1.39-2.02,1.08-2.32,1.51-3.58c0.32-0.93,1.7-1.79,0.47-2.76c-1.2-0.94-1.79,0.11-2.31,1.38c-0.91,2.22-1.96,2.29-3.49,0.45
			c-0.89-1.07-1.7-2.25-2.68-3.22c-1.07-1.06-1.41-1.94-0.14-3.08c0.51-0.46,0.95-1.15,0.34-1.88c-0.63-0.75-1.28-0.27-1.71,0.27
			c-1.19,1.47-2.11,0.83-3.05-0.32c-0.83-1.01-1.62-2.11-2.59-2.93c-2.09-1.78-3.19-3.52-0.65-5.9c0.53-0.5,0.68-1.35,0.01-1.92
			c-0.56-0.48-1.18-0.16-1.49,0.43c-1.73,3.24-3.35,2.16-5.04-0.05c-0.63-0.83-1.44-1.49-2.16-2.25c-1.62-1.73-3.39-3.4-0.38-5.59
			c0.63-0.46,1.3-1.49,0.44-2.32c-0.73-0.7-1.28,0.18-1.85,0.72c-2.28,2.17-3.1,2.14-5.11-0.22c-0.96-1.13-1.77-2.42-2.78-3.48
			c-1.17-1.22-1.5-2.21-0.06-3.47c0.6-0.52,1.41-1.44,0.62-2.3c-0.8-0.87-1.51,0.15-2.09,0.71c-1.05,1.02-1.72,0.89-2.56-0.42
			c-1.28-2-2.4-4.26-4.25-5.66c-2.07-1.57-2.45-2.9-0.28-4.64c0.55-0.44,1.01-1.16,0.49-1.88c-0.65-0.9-1.48-0.35-1.9,0.27
			c-1.62,2.39-3.56,2.08-5.95,1.65c-2.51-0.46-5.47-1.42-7.33,2.03c-1.24,2.3-0.95,4.65-0.24,6.85c0.55,1.69,0.24,2.65-0.87,3.77
			c-1.03,1.03-1.84,2.33-2.71,3.54c-0.51,0.72-0.67,1.51,0.12,2.14c0.75,0.59,1.13-0.02,1.62-0.6c0.95-1.13,1.97-2.2,3.02-3.21
			c0.67-0.64,1.34-0.84,2.13,0.07c3.59,4.16,7.22,8.28,10.89,12.35c0.93,1.03,0.78,1.72,0,2.74c-0.78,1.01-2.17,1.36-2.61,2.91
			c1.69,0.7,2.71-0.26,3.68-1.43c0.61-0.73,1.15-1.59,2.17-0.38c3.77,4.47,7.58,8.9,11.42,13.29c0.94,1.07,0.81,1.78-0.19,2.64
			c-1.17,1.01-2.34,2.04-3.18,3.43c-0.28,0.46-0.57,1.02-0.22,1.51c0.45,0.63,1.1,0.41,1.55,0.01c1.21-1.09,2.39-2.23,3.52-3.42
			c0.64-0.67,1.16-0.93,1.86-0.11c3.62,4.25,7.45,8.29,10.75,12.86c0.65,0.9,0.65,1.45-0.15,2.26c-1.34,1.35-2.56,2.84-3.81,4.3
			c-0.5,0.58-0.66,1.34-0.36,2.04c0.45,1.05,1.21,0.26,1.71,0.08c1.71-0.61,3.03-1.91,3.94-3.57c0.95-1.73,1.66-1.53,2.77-0.14
			c3.27,4.1,6.55,8.21,10.02,12.11c1.52,1.7,1.36,2.66-0.21,4.03c-1.28,1.13-2.33,2.58-3.46,3.91c-0.55,0.65-1.39,1.32-0.69,2.31
			c0.63,0.9,1.57,0.46,2.28,0.09c1.87-0.97,3.61-2.18,4.85-4.08c0.56-0.86,1.02-1.35,1.89-0.28c3.66,4.46,7.36,8.89,11.09,13.27
			c0.96,1.12,0.95,1.83-0.17,2.83c-1.67,1.49-3.17,3.2-4.76,4.79c-0.73,0.73-1.38,1.55-0.56,2.55c0.73,0.89,1.45,0,1.89-0.52
			c1.4-1.65,3.56-2.15,4.74-4.26c0.47-0.84,2.07-1.52,3.3,0.02c2.23,2.81,4.62,5.47,6.96,8.18c3.72,4.29,3.73,4.29-0.09,8.21
			c-0.42,0.44-0.8,0.95-1.26,1.31c-1.68,1.33-2.29,2.88-0.79,5.13c2.1-2.52,4.06-4.84,6.25-6.94c1.12-1.07,1.68-1.25,2.74,0.05
			c3.2,3.92,6.36,7.91,9.95,11.41c1.21,1.18,1.02,2.03-0.19,3.01c-1.33,1.08-2.6,2.25-3.85,3.43c-0.52,0.49-0.95,1.21-0.36,1.89
			c0.62,0.71,1.2,0.1,1.72-0.37c1.48-1.32,2.97-2.62,4.42-3.96c0.56-0.52,1.03-0.85,1.69-0.13c4.38,4.83,8.76,9.65,13.19,14.43
			c0.98,1.06,0.77,1.74-0.18,2.63c-1.38,1.3-2.7,2.69-3.97,4.13c-0.57,0.64-1.15,1.62-0.46,2.43c0.83,0.97,1.5-0.07,2.05-0.66
			c1.32-1.38,2.59-2.82,3.85-4.27c0.77-0.88,1.39-1.05,2.22-0.01c3.68,4.56,7.41,9.09,11.14,13.6c1.07,1.29,0.99,2.25-0.26,3.4
			c-1.06,0.97-1.86,2.28-2.78,3.44c-0.4,0.51-0.74,1.09-0.31,1.71c0.52,0.74,1.18,0.55,1.73,0.02c1.19-1.13,2.37-2.27,3.51-3.46
			c0.93-0.97,1.58-0.79,2.44,0.24c4.89,5.82,9.89,11.52,14.75,17.37c4.64,5.58,9.18,11.25,14.61,15.95
			c2.11,1.83,4.39,3.03,7.08,2.55c2.53-0.46,4.74-1.65,5.71-4.59c1.15-3.47-0.01-6.64-1.1-9.81c-0.13-0.39-0.41-0.49-0.79-0.39
			c-1.42,0.39-1.86-0.8-2.27-1.86c-0.72-1.89-1.83-3.42-3.2-4.77c-1.97-1.94-3.95-3.88-5.8-5.96c-6.19-6.97-12.3-14.03-18.49-20.99
			c-0.97-1.09-1.25-1.65,0.13-2.62c0.97-0.68,3.22-1.2,2.19-2.82c-0.86-1.36-2.54,0.13-3.6,1.11c-1,0.92-1.7,1.11-2.66-0.13
			c-1.45-1.86-3.01-3.65-4.66-5.3c-1.51-1.51-1.53-2.82-0.06-4.29c0.37-0.36,0.68-0.8,1.01-1.21c0.48-0.6,1.26-1.25,0.47-2.06
			c-0.74-0.77-1.34,0.08-1.91,0.56c-3.11,2.66-3.11,2.66-5.78-0.42c-0.29-0.33-0.56-0.68-0.86-0.98c-1.59-1.56-2.66-3.09-0.12-4.81
			c0.49-0.33,0.84-0.98,0.36-1.64c-0.48-0.65-1.18-0.44-1.53,0.02c-2.36,3.15-3.63,0.55-5.08-1.11c-0.57-0.66-1.08-1.38-1.65-2.05
			c-1.12-1.32-2.75-2.57,0.2-3.72c1.01-0.4,1.05-1.63,0.57-2.59c-0.45-0.89-1.26-0.54-1.67,0.02c-2.18,3.01-3.53,1.07-4.95-0.89
			c-0.62-0.86-1.3-1.66-1.96-2.47C388.56,305.69,388.55,305.69,390.96,302.66z M323.74,251.02c-6.76-9.01-14.61-16.91-21.49-25.8
			c-2.41-3.11-5.45-5.56-7.72-8.83c-0.57-0.82-1.59-1.4-1.14-2.77c0.11-0.34-0.15-0.65-0.48-0.84c-5.31-3.15-13.96-13.5-15.69-17.91
			c-1.24-3.15,0.88-5.83,5.16-5.73c2.91,0.4,5.85,2.35,7.76,5.31c8.16,12.68,19.15,22.33,28.82,33.38
			c4.13,4.72,8.19,9.51,12.31,14.23c0.83,0.95,1.24,1.43,0.07,2.74c-1.77,1.98-3.73,3.82-5.09,6.24
			C325.44,252.44,324.64,252.21,323.74,251.02z M408.69,333.44c10.52,12.34,21.05,24.68,31.88,36.67c3.49,3.87,6.15,8.45,9.77,12.17
			c2.51,2.57,2.81,5.95,1.29,7.82c-1.94,2.4-4.5,2.47-7.6,0.44l-4.66-3.76c-2.6-1.8-4.29-4.11-6.1-6.24
			c-6.4-7.51-12.78-15.03-19.14-22.58c-0.78-0.93-1.92-1.67-1.32-3.46c0.21-0.63-0.28-2.34-1.36-2.11c-1.96,0.42-2.6-1.07-3.51-2.29
			c-2.69-3.58-5.79-6.78-8.42-10.38c-5.1-6.96-11.48-12.46-17.02-18.92c-10.6-12.37-21.62-24.28-31.89-37
			c-3.67-4.55-7.73-8.74-11.23-13.44c-3.69-4.96-7.95-9.36-11.5-14.45c-0.73-1.05-1.29-1.5,0.12-2.7c1.85-1.57,3.35-3.71,4.79-5.77
			c1.19-1.7,1.96-1.53,3.25-0.07c8.62,9.7,16.73,19.94,25.3,29.69C377.52,295.45,392.78,314.78,408.69,333.44z"/>
		<path d="M279.77,167.63c0.35,0.53,0.93,0.78,1.54,0.4c0.47-0.29,0.71-0.74,0.63-1.78c-0.72-1.18-1.58-2.73-2.56-4.17
			c-0.68-1-0.91-1.75-0.03-2.84c0.86-1.06,2.64-2.29,1.27-3.85c-1.46-1.67-2.67,0.24-3.71,1.27c-1.28,1.26-1.68-0.2-2.37-0.79
			c-0.93-0.79-0.64-1.44,0.15-2.16c1.15-1.04,2.28-2.11,3.33-3.27c0.54-0.6,0.81-1.45,0.16-2.21c-0.66-0.77-1.36-0.47-1.97,0.11
			c-1.68,1.61-3.38,3.2-5,4.89c-0.74,0.77-1.36,1.95-0.53,2.92C273.84,159.86,277.04,163.51,279.77,167.63z"/>
		<path d="M258.13,190.7c0.22-0.65,0.23-1.25-0.27-1.75c-0.52-0.52-1.09-0.46-1.58-0.04c-1.1,0.95-2.23,1.87-3.21,2.96
			c-1.28,1.42-2.58,1.1-3.79,0.15c-2.91-2.29-2.57-5.63,0.71-7.15c0.82-0.38,1.67-0.62,1.35-1.81c-0.34-1.22-1.33-1.23-2.26-1.04
			c-0.47,0.1-0.93,0.37-1.34,0.65c-2.49,1.68-3.86,4.71-3.23,7.08c0.87,3.27,3.79,5.87,6.68,5.95
			C252.96,195.74,257.56,192.42,258.13,190.7z"/>
		<path d="M275.84,236.76c0.91-0.61,1.24-1.82,0.49-2.5c-0.57-0.52-1.73-0.28-2.21,0.87c-0.21,0.51-0.97,1.11-1.03,0.95
			c-0.88-2.26-4.47-0.78-4.56-4.09c-0.02-0.67-0.45-1.49-1.31-1.23c-0.69,0.21-0.61,0.97-0.63,1.6c0.45,2.97,1.24,5.84,2.21,8.64
			c0.45,1.29,1.52,1.16,2.21,0.35c1.26-1.46,2.23-1.46,3.38,0.13c0.48,0.67,1.52,1.37,2.09,0.71c0.67-0.78-0.24-1.69-0.8-2.26
			C274.49,238.72,274.34,237.76,275.84,236.76z"/>
		<path d="M364.65,338.05c-1.81,1.13-2.43,0.6-2.92-1.58c-0.45-2.05-1.87-3.59-4.03-3.17c-1.69,0.33-1.72,2.23-2.11,3.65
			c-0.24,0.87-0.19,2.06,0.76,2.33c1.33,0.38,1.02-0.99,1.17-1.79c0.14-0.74,0.36-1.58,1.15-1.53c0.75,0.05,0.99,0.94,1.07,1.65
			c0.23,1.99,0.34,3.99-0.03,5.98c-0.16,0.64-0.26,1.29,0.37,1.69c0.75,0.47,1.2-0.11,1.7-0.61c1.34-1.35,2.7-2.67,4.07-3.99
			c0.7-0.67,1.95-1.06,1.14-2.52C366.31,336.93,365.31,337.64,364.65,338.05z"/>
		<path d="M382.57,344.69c-0.77-0.03-1.5-0.26-2.08-0.98c-0.23,1.6-0.61,3.2-0.65,4.8c-0.06,2.47-0.62,5.13,2.57,6.27
			c1.8,0.64,3.4,1.13,4.76-0.42c1.39-1.58,1.51-3.65,0.46-5.53C386.47,346.75,385.13,344.79,382.57,344.69z M384.78,353.25
			c-1.29,0.18-2.96-1.93-2.96-3.76c0-0.99,0.27-1.93,1.36-1.79c1.78,0.22,2.7,1.53,3.02,3.16
			C386.24,352.22,385.9,353.09,384.78,353.25z"/>
		<path d="M334.89,295.44c-2.24,0.02-4.63,2.63-4.68,5.12c-0.05,2.29,2.14,4.8,4.22,4.83c2.83,0.05,4.78-2.28,4.75-5.68
			C339.16,297.36,337.21,295.42,334.89,295.44z M334.22,303.09c-0.99-0.4-1.63-1.25-1.67-2.38c-0.08-1.95,1.35-2.62,2.69-2.88
			c0.84-0.16,1.68,0.57,1.76,1.82C337.15,301.84,335.49,302.22,334.22,303.09z"/>
		<path d="M379.34,355.55c-3.11,1.18-3.37,1.06-2.93-2.28c0.19-1.46-0.3-1.61-1.2-1.37c-2.16,0.58-3.72,2.26-5.28,3.88
			c-0.41,0.42-0.65,1.14-0.12,1.72c0.55,0.6,1.04,0.23,1.49-0.25c0.76-0.82,1.52-1.64,2.94-1.91c-0.51,2.61,0.66,3.26,2.71,3.22
			c1.49-0.03,1.16,1.48,1.14,2.5c-0.01,0.64-0.06,1.62-1.06,1.28c-0.66-0.22-1.31-1.16-1.78,0.13c-0.29,0.78,0.17,1.41,0.67,1.92
			c0.76,0.78,1.67,0.88,2.51,0.27c1.4-1.01,1.76-2.62,1.61-4.33C379.92,358.8,379.6,357.29,379.34,355.55z"/>
		<path d="M286.51,249.98c-1.35,0-1.38-0.89-1.43-1.96c-0.09-2.21-1.09-2.44-2.59-1.35c-0.54,0.4-1.15,0.83-1.48,1.41
			c-0.68,1.18-3.14,1.79-1.98,3.38c1.1,1.51,2.25-0.99,3.7-1.46c0.54,2.83,0.54,2.84,2.94,2.56c0.75-0.09,1.65-0.32,1.72,0.84
			c0.06,0.91-0.37,1.89-1.38,1.89c-1.01,0-1.75,0.17-1.33,1.47c0.37,1.13,1.32,1.4,2.25,0.93c1.4-0.71,2.44-1.9,2.73-3.62
			C290.05,251.75,288.69,249.97,286.51,249.98z"/>
		<path d="M280.58,233.95c2.25-0.83,1.82-3.17,1.73-5.11c-0.09-1.77-1.21-2.93-2.39-3.97c-1.04-0.91-2.14-1.95-3.56-1.29
			c-1.52,0.7-1.28,2.35-1.3,3.95c-0.07,0.76,0.07,1.63,0.25,2.53C275.85,232.69,278.38,234.76,280.58,233.95z M279.39,231.24
			c-1.6-0.31-1.74-1.94-1.99-3.34c-0.08-0.47,0.11-1.34,0.71-1.12c1.19,0.44,2.16,1.29,2.21,2.9
			C280.17,230.34,280.34,231.42,279.39,231.24z"/>
		<path d="M394.6,363.91c-0.78,0.53-2.54,0.86-1.97,1.88c0.85,1.55,1.03-1.59,2.44-0.69c-0.92,2.84,0.19,4.72,2.69,6.18
			c1.97,1.16,3.49,0.99,4.83-0.72c1.4-1.79,1.17-3.65-0.3-5.36C400.16,362.74,397.14,362.19,394.6,363.91z M399.69,369.72
			c-1.41-0.51-2.7-1.41-2.72-3.35c-0.01-0.77,0.32-1.42,1.54-1.1c1.18,0.42,2.82,0.85,2.88,3.01
			C401.41,369.29,400.55,370.03,399.69,369.72z"/>
		<path d="M350.87,310.13c-0.72-0.19-1.25,0.15-1.72,0.74c-0.9,1.15-1.44,2.42-1.33,3.74c-0.02,2.75,0.99,4.59,3.1,5.59
			c2.84,1.36,4.72-0.13,4.54-3.55C355.33,314.36,352.7,310.61,350.87,310.13z M351.9,317.32c-1.46-0.08-1.94-1.14-1.99-2.55
			c-0.03-0.87,0.32-1.41,1.18-1.23c1.31,0.27,1.87,1.32,2.15,2.64C353.2,317.15,352.62,317.37,351.9,317.32z"/>
		<path d="M259.32,213.76c-1.54-0.21-3.05,0.11-1.93-2.55c0.22-0.52-0.09-2.52-1.38-1.54c-1.29,0.98-2.31,2.56-2.5,4.02
			c0.02,3.29,1.65,4.73,3.48,3.43c1.05-0.74,2.05-1.53,3.03-0.27c1.05,1.35,0.29,2.5-0.71,3.51c-0.5,0.5-0.91,1.21-0.29,1.88
			c0.57,0.63,1.24,0.29,1.79-0.15c1.37-1.09,2.11-2.51,1.79-4.45C262.26,215.57,261.26,214.02,259.32,213.76z"/>
		<path d="M370.9,332.06c0.11-2.58-0.31-3.21-2.99-5.27c-2.76-2.13-4.25-1.62-5.34,1.92c-0.55,1.8-0.06,3.44,1.2,4.68
			c1.43,1.41,3,2.85,5.08,1.97C370.42,334.71,370.83,333.04,370.9,332.06z M367.86,333.07c-1.32-0.59-3.21-0.69-3.26-2.96
			c-0.03-1.01,0.81-1.22,1.59-1.49c0.87,1.04,2.76,1.01,2.73,3.04C368.91,332.32,368.65,333.42,367.86,333.07z"/>
		<path d="M289.48,240.33c-0.85-0.08-1.51,0.27-1.76,1.13c-0.7,2.42-0.9,4.89,0.66,6.99c1.23,1.66,2.98,2.28,4.87,1.7
			c1.38-0.43,1.74-1.78,1.77-3.24C295.03,244.57,291.61,240.54,289.48,240.33z M292.64,247.18c-0.26,0.65-0.78,0.52-1.27,0.44
			c-1.89-0.32-1.78-2.1-2.09-3.54c-0.1-0.46,0.11-0.88,0.6-1.01C290.63,242.95,292.95,246.4,292.64,247.18z"/>
		<path d="M268.19,210.49c-0.92-1.62-2.06-3.08-3.54-4.16c-0.76-0.56-1.52-1.26-2.48-0.59c-0.87,0.61-1,1.61-0.9,3.05
			c0.22,2.06,0.33,4.59,2.4,6.22c1.27,1,2.7,1.79,4.06,0.48C269.2,214.08,269.15,212.18,268.19,210.49z M266.71,212.98
			c-0.08,0.53-0.36,0.81-0.84,0.67c-1.25-0.37-1.85-1.33-1.93-2.73c-0.01-0.26-0.05-0.52-0.11-1.1c0.61,0.26,0.94,0.32,1.2,0.51
			C265.9,210.96,266.93,211.5,266.71,212.98z"/>
		<path d="M303.44,270.59c-1.51,1.31-1.77,0.21-2.05-1.09c-0.13-0.62-0.27-1.25-0.46-1.84c-0.52-1.59-1.37-2.83-3.08-2.45
			c-1.69,0.38-2.37,1.8-2.5,3.37c0.02,1.17,0.08,2.21,1.1,2.39c1.12,0.2,1.08-0.75,0.99-1.62c-0.07-0.67-0.05-1.41,0.7-1.49
			c0.71-0.08,0.91,0.68,1.05,1.29c0.33,1.42,0.51,2.86,0.35,4.34c-0.07,0.66-0.04,1.31,0.58,1.66c0.62,0.35,1.05-0.09,1.54-0.47
			c0.87-0.67,1.84-1.19,2.74-1.82c0.62-0.44,1.88-0.57,1.24-1.84C305.2,270.18,304.15,269.97,303.44,270.59z"/>
		<path d="M320.44,275.57c-2.17-0.02-2.25,1.93-2.53,3.4c0,3.03,2.2,5.6,4.59,5.61c2.3,0.01,2.62-1.78,2.69-3.69
			C325.28,278.46,322.75,275.59,320.44,275.57z M321.95,281.74c-1.01-0.33-1.87-0.84-1.87-2.19c0-0.7,0.25-1.33,1.03-1.14
			c1.12,0.27,1.63,1.16,1.66,2.38C322.78,281.35,322.71,281.94,321.95,281.74z"/>
		<path d="M304.84,258.52c-2.45,0.12-2.21,2.35-2.29,4.02c-0.12,2.56,2.07,4.49,4.61,4.53c2.1,0.03,2.38-1.44,2.38-3.23
			C309.51,260.52,307.63,258.38,304.84,258.52z M306.27,264.5c-1.01-0.23-1.6-0.84-1.5-2.08c0.07-0.77,0.19-1.6,1.09-1.43
			c1.12,0.21,1.08,1.49,1.39,2.35C307.48,263.99,307.05,264.55,306.27,264.5z"/>
		<path d="M234.98,186.88c-1.29,0.43-2.56,1.09-2.46,3.04c0.09,1.76,0.98,3.02,2.62,3.03c1.85,0.02,2.57-1.54,2.6-3.31
			C237.76,187.89,236.59,187.16,234.98,186.88z"/>
		<path d="M263.64,162.18c1.59,0,2.13-1.41,2.55-2.97c-0.59-1.48-1.5-2.97-2.99-3.07c-1.42-0.1-2.4,1.25-2.34,2.9
			C260.94,160.87,261.88,162.18,263.64,162.18z"/>
		<path d="M343.32,317.19c-0.22-0.24-0.54-0.37-0.91-0.61c-0.27,0.22-0.61,0.36-0.74,0.62c-0.26,0.55-0.01,1.06,0.34,1.48
			c1.64,1.92,3.28,3.84,4.93,5.74c0.43,0.5,0.99,0.8,1.53,0.32c0.72-0.64,0.29-1.35-0.16-1.88
			C346.66,320.94,344.99,319.06,343.32,317.19z"/>
		<path d="M313.21,282.42c-0.16-0.17-0.45-0.17-0.8-0.3c-0.2,0.16-0.55,0.3-0.68,0.56c-0.29,0.56,0.02,1.04,0.39,1.42
			c1.61,1.66,3.23,3.3,4.84,4.96c0.42,0.44,0.87,1.03,1.46,0.55c0.67-0.54,0.42-1.29,0.02-1.92
			C317.04,285.53,314.93,284.21,313.21,282.42z"/>
		<path d="M387.58,403.59c1.13,0.21,2.29,0.25,3.44,0.37c3.68-0.04,6.75-1.19,10.9-3.94c1.34-0.89,1.96-1.97,2.07-3.7
			c0.22-3.66-0.17-7.27-0.41-10.9c-0.23-3.56-0.74-4.37-4.06-4.48c-2.72-0.09-5.42-0.19-8.13-0.54c-3.06-0.39-5.29,1.08-7.15,3.84
			c-2.51,3.74-1.91,7.99-2.07,12.11C381.99,400.93,383.49,402.84,387.58,403.59z M384.77,395.41c0.13-1.81,0.19-3.63,0.32-5.45
			c0.31-4.16,2.76-6.6,6.48-6.39c2.55,0.14,5.1,0.32,7.65,0.4c1.13,0.04,1.66,0.55,1.71,1.78c0.04,1.09,0.12,2.18,0.23,3.27
			c0.3,2.87,1.32,6.22-0.83,8.31c-2.74,2.65-6.26,4-10.09,3.6c-0.49-0.05-0.98-0.17-1.47-0.24
			C385.23,400.22,384.5,399.24,384.77,395.41z"/>
		<path d="M334.44,343.69c-2.57-2.68-5.72-3.95-9.08-2.85c-2.62,0.86-4.05,3.48-4.88,6.39c-1.58,5.49-0.29,10.3,2.79,14.65
			c2.9,4.09,6.87,3.67,9.09-0.95c1.84-3.83,2.81-7.94,2.89-12.36C335.04,346.97,335.77,345.07,334.44,343.69z M329.7,360.07
			c-0.51,1.04-1.22,1.71-2.38,1.54c-1.12-0.16-1.78-0.75-2.45-1.9c-1.54-2.67-3.31-5.13-2.56-8.45c0-0.78-0.09-1.43,0.02-2.05
			c0.33-1.99-0.15-4.77,2.09-5.38c2.42-0.66,5.09-0.81,7.29,1.3c0.61,0.59,0.92,1.19,0.93,2.09
			C332.68,351.8,331.66,356.07,329.7,360.07z"/>
	</g>
</g>
</svg>
