<?xml version="1.0" encoding="utf-8"?>
<!-- Generator: Adobe Illustrator 23.0.2, SVG Export Plug-In . SVG Version: 6.00 Build 0)  -->
<svg version="1.1" xmlns="http://www.w3.org/2000/svg" xmlns:xlink="http://www.w3.org/1999/xlink" x="0px" y="0px"
	 viewBox="0 0 841.89 595.28" style="enable-background:new 0 0 841.89 595.28;" xml:space="preserve">
<style type="text/css">
	.st0{fill:#ECC5BF;}
	.st1{fill:#F8E2D2;}
	.st2{fill:#CBF4FF;}
	.st3{fill:#FF3A5B;}
	.st4{fill:#E7BA9F;}
	.st5{fill:#422918;}
	.st6{fill:#E59C8B;}
	.st7{fill:#FFFFFF;}
	.st8{fill:#1D70B7;}
	.st9{fill:#FFDD4C;}
	.st10{fill:#007EFF;}
	.st11{fill:#97E6FC;}
	.st12{fill:#FFF88A;}
	.st13{fill:#FF6671;}
	.st14{fill:#D9D9D9;}
	.st15{fill:#50E3C2;}
	.st16{fill:#B1B1B1;}
	.st17{fill:#868686;}
	.st18{fill:#C89B83;}
	.st19{fill:#E3C9BB;}
	.st20{fill:#ECECEC;}
	.st21{fill:#FF8438;}
	.st22{fill:#DEB496;}
	.st23{fill:#EACEB3;}
	.st24{fill:#ECDCD2;}
	.st25{fill:#F5F5F5;}
	.st26{fill:url(#SVGID_1_);}
	.st27{fill:url(#SVGID_2_);}
	.st28{fill:#AE846C;}
	.st29{fill:#9E6D57;}
	.st30{fill:#C6C6C5;}
	.st31{fill:#F6ECE3;}
	.st32{fill:#E7BCA9;}
	.st33{fill:#F6D8C7;}
	.st34{fill:#F6E9DA;}
	.st35{fill:#1D1D1B;}
	.st36{fill:none;}
</style>
<g id="colour">
</g>
<g id="Layer_3">
	<path class="st14" d="M281.96,158.12c25.91-0.36,49-0.41,72.07-1.42c11.94-0.52,23.88-0.29,35.82-0.61
		c33.4-0.88,66.84-1.16,100.42-1.82c18.22-0.36,36.43-1.3,54.65-1.04c11.13,0.16,22.26,0.79,33.28,2.44
		c6.84,1.03,13.46,3.12,19.22,7.03c3.56,2.41,6.35,5.82,9.18,9.08c0.22,0.25,0.39,0.57,0.65,0.77c6.04,4.69,6.81,11.54,7.27,18.37
		c1.17,17.17,1.41,34.38,1.73,51.58c0.13,7.06,0.89,14.13,0.76,21.22c-0.26,13.83-0.61,27.66-0.72,41.49
		c-0.13,17.08-0.21,34.16-0.03,51.23c0.13,12.62-0.53,25.25,0.39,37.85c0.3,4.14,0.29,8.2-0.81,12.23c-0.66,2.43-1.52,4.8-2.95,6.85
		c-1.89,2.71-3.91,5.32-5.6,8.16c-0.56,0.94-1.48,1.59-2.5,1.99c-5.25,2.1-10.41,4.42-16.04,5.47c-8.85,1.65-17.8,2.12-26.76,2.4
		c-11.73,0.36-23.47,0.48-35.2,1.18c-7.67,0.46-15.39,0.13-23.08,0.15c-18.15,0.05-36.28,0.82-54.44,0.81
		c-13.69-0.01-27.37,0.88-41.04,1.5c-19.55,0.88-39.12,1.27-58.69,1.21c-12.76-0.04-25.5,0.51-38.24,1.22
		c-2.02,0.11-4.05,0.07-6.07,0.06c-4.85-0.03-9.66,0.14-14.52,0.73c-9.06,1.09-18.2,0.43-27.3-0.03
		c-7.76-0.39-15.32-2.23-23.04-3.04c-5.28-0.56-10.06-3.37-14.87-5.64c-1.28-0.6-2.43-1.46-3.71-2.07c-1.81-0.87-3.5-1.67-3.47-4.18
		c0.01-0.8-0.83-1.66-1.38-2.42c-5.19-7.11-8.01-15.2-10.14-23.65c-2.62-10.37-3.98-20.95-5.07-31.53
		c-0.98-9.45-1.73-18.92-0.84-28.48c0.64-6.85-0.38-13.75-0.29-20.64c0.27-21.26,0.37-42.52,1.1-63.78
		c0.24-7.01,0.29-14.05-0.01-21.05c-0.32-7.49,1.33-14.6,3.26-21.7c0.32-1.17,0.73-2.34,0.84-3.54c0.87-9.55,5.16-17.59,10.74-25.14
		c3.85-5.2,8.22-9.81,13.38-13.7c4.68-3.54,10.06-5.51,15.64-6.89c6.89-1.7,13.92-2.78,21.02-2.69
		C272.66,158.17,278.73,158.26,281.96,158.12z"/>
	<path class="st15" d="M314.8,196.14c-4.82-0.19-14.33,0.3-23.85,0.3c-8.12-0.01-16.16,1.03-24.07,2.77
		c-4.28,0.94-8.14,2.7-11.51,5.92c-5.24,5-6.35,11.46-7.39,17.95c-1.27,7.86-1.46,15.85-2.08,23.78
		c-1.24,15.95-1.66,31.94-1.69,47.94c0,1.35,0.05,2.71-0.13,4.04c-0.85,6.37-0.78,12.8-1.27,19.19c-0.08,1.1,0.3,1.46,1.35,1.39
		c2.84-0.2,5.66,0.15,8.49,0.24c9.65,0.31,19.3,0.36,28.95,0.19c9.86-0.17,19.7,0.3,29.55,0.66c16.26,0.6,32.51-0.91,48.77-0.21
		c5.66,0.25,11.34,0.07,17.01,0.03c13.97-0.1,27.94,0.11,41.9,0.55c4.99,0.16,9.68-1.51,14.35-3.04c3.02-0.99,4.54-3.33,5.69-6.14
		c0.48-1.17-0.65-2.34,0.26-3.29c0.81-0.85,0.73-1.79,0.71-2.81c-0.02-0.87,0.01-1.78,0.25-2.61c0.99-3.3,1.44-6.75,1.45-10.11
		c0.07-12.84,1.65-25.58,2.05-38.39c0.35-11.27,0.73-22.54-0.29-33.78c-0.59-6.5,0.63-13.12-1.64-19.54c-0.5-1.4-0.67-1.7-1.95-1.66
		c-4.45,0.15-8.9,0.27-13.36,0.31c-5.87,0.05-11.74-0.15-17.61-0.4c-9.85-0.41-19.71-0.38-29.55-0.89
		C359.3,197.49,339.42,196.38,314.8,196.14z"/>
	<path class="st16" d="M314.05,364.87c-33.21,0.29-66.43,0.58-99.64,0.88c-0.71,0.01-1.52-0.24-2.09,0.44
		c-0.85,1.03-2.02,1.35-3.25,1.38c-1.35,0.04-1.72,0.66-1.56,1.92c0.64,5.15,1.16,10.33,1.86,15.47c0.74,5.39,2.86,10.39,4.54,15.52
		c0.29,0.87,0.88,1.83,0.18,2.7c-0.64,0.8-0.36,1.53-0.1,2.28c2.29,6.57,5.63,12.42,10.7,17.37c3.3,3.22,6.96,5.51,11.32,6.57
		c5.69,1.39,11.62,1.39,17.35,2.65c0.78,0.17,1.62,0.1,2.42,0.05c7.7-0.47,15.37,0.28,23.06,0.43c15.04,0.29,30.03,1.24,45.12,0.2
		c14.33-0.99,28.71-1.44,43.09-1.51c5.4-0.02,10.79,0.28,16.19-0.19c5.79-0.5,11.59-0.23,17.4-0.11c6.81,0.13,13.66,0.64,20.44-0.02
		c9.87-0.96,19.78-1.41,29.66-2.28c13.32-1.18,26.71-0.81,40.06-1.09c15.71-0.32,31.44,0.12,47.17-0.25
		c9.64-0.22,19.22-1.61,28.87-1.58c8.37,0.02,16.54-1.24,24.39-4.12c3.01-1.1,6.12-2.36,8.64-4.26c3.37-2.56,6.3-5.76,6.33-10.51
		c0-0.19,0.07-0.42,0.19-0.57c2.28-2.86,2.15-6.24,2.12-9.6c-0.1-13.09-0.77-26.17-1.08-39.25c-0.16-6.61,0.12-13.22,0.28-19.84
		c0.39-16.13,0.37-32.27,0.59-48.4c0.02-1.61-0.47-1.98-2.04-2.05c-7.26-0.28-14.38,1.11-21.55,1.72c-9.96,0.86-19.95,1-29.93,1.27
		c-6.76,0.18-13.46,1.02-20.14,1.9c-6.17,0.81-12.06,2.92-17.92,4.96c-6.13,2.13-11.95,4.91-17.25,8.76
		c-3.46,2.52-6.43,5.54-9.65,8.3c-4.72,4.04-8.61,8.67-11.77,14.02c-4.4,7.44-9.16,14.5-16.39,19.77
		c-8.78,6.39-17.82,11.79-28.76,13.55c-7.52,1.21-14.99,2.76-22.65,2.79c-4.99,0.02-9.99-0.08-14.98-0.03
		C368.19,364.36,341.12,364.62,314.05,364.87z"/>
	<path class="st17" d="M212.29,367.5c-5.59,0-6.04-2.64-6.3-6.94c-0.03-0.44-0.11-0.97-0.2-1.54c-0.31-2-0.69-4.5,0.88-6.46
		c0.98-1.23,2.45-1.86,4.36-1.86c0.73,0,1.47,0.09,2.12,0.16c0.53,0.06,1.03,0.12,1.41,0.12l11.36-0.12
		c57.71-0.63,117.38-1.27,176.07-1.78l1.68-0.01c5.5-0.04,10.69-0.08,15.9-0.86c13.7-2.07,24.97-6.9,34.46-14.78
		c4.03-3.35,6.64-7.17,7.95-11.68c0.55-1.87,1.33-3.67,2.26-5.22c1.86-3.07,2.01-6.67,2.17-10.48c0.06-1.46,0.13-2.97,0.29-4.47
		c0.32-2.96,0.71-5.93,1.1-8.81c0.71-5.31,1.43-10.79,1.68-16.19c0.48-10.7,1.04-21.38,1.48-29.5c0.09-1.76,0.21-3.52,0.32-5.28
		c0.31-4.82,0.62-9.8,0.56-14.67c-0.07-5.47-0.33-11.05-0.58-16.44c-0.28-5.9-0.56-12-0.6-18.04l0-0.38
		c-0.03-5.62-0.07-11.43,0.07-17.17c0.13-5.33-0.08-9.59-0.66-13.39c-0.1-0.67-0.37-2.43,0.82-3.82c1.15-1.34,2.81-1.34,3.43-1.34
		l0.18,0c0.99,0.02,1.99,0.02,2.99,0.02c5.69,0,11.33-0.24,17.09-0.51c1.59-0.07,3.19-0.18,4.78-0.28c3-0.2,6.1-0.4,9.21-0.4
		c0.34,0,0.67,0,1.01,0.01c1.43,0.04,2.83,0.05,4.23,0.05c3.73,0,7.54-0.11,11.22-0.22c3.72-0.11,7.58-0.22,11.39-0.22
		c2.36,0,4.5,0.04,6.54,0.13c10.52,0.45,19.35,1.06,28.29,2.55c0.54,0.09,1.11,0.15,1.69,0.22c2.29,0.26,4.88,0.55,6.81,2.25
		c0.78,0.69,1.63,0.9,3.06,1.21c0.96,0.21,2.04,0.44,3.14,0.94c3.94,1.78,6.93,4.73,9.58,7.66c0,0,0.27,0.3,0.35,0.39
		c0.2-0.03,0.39-0.04,0.58-0.04c1.61,0,2.83,0.9,3.62,2.68l0.08,0.16c5,9.15,7.48,17.01,8.03,25.48
		c1.49,23.21,1.59,46.78,1.68,69.57l0.04,9.12c0,0.8-0.02,1.61-0.04,2.42c-0.02,0.85-0.05,1.69-0.04,2.54
		c0.01,0.53,0.04,2.16-1.17,3.38c-0.77,0.78-1.81,1.18-3.08,1.18c-0.11,0-0.23,0-0.36-0.01c-0.84-0.04-1.72-0.07-2.61-0.07
		c-4.27,0-8.47,0.51-12.92,1.05c-3.03,0.37-6.15,0.75-9.28,0.94c-8.98,0.57-18.07,0.83-27.37,1.06
		c-17.96,0.46-33.5,4.26-47.49,11.63c-5.37,2.83-10.35,6.66-14.82,11.38c-1.15,1.22-2.37,2.35-3.55,3.44
		c-1.46,1.35-2.84,2.63-4.07,4.04c-2.1,2.4-3.74,5.16-5.48,8.08c-0.38,0.64-0.77,1.29-1.16,1.93c-4.43,7.3-8.64,13.75-15.28,18.79
		c-6.48,4.92-13.66,9.84-22.27,12.45c-5.65,1.72-11.68,2.84-17.91,3.33c-10.7,0.85-21.55,0.89-32.04,0.92
		c-2.99,0.01-5.98,0.02-8.97,0.05c-37.09,0.35-74.19,0.71-111.28,1.08l-55.44,0.54L212.29,367.5z"/>
	<path class="st7" d="M560.31,263.69c-2.93-0.04-5.87-0.09-8.8-0.14c-6.27-0.11-12.76-0.22-19.15-0.22c-4.27,0-8.11,0.05-11.76,0.15
		c-1.48,0.04-2.96,0.06-4.44,0.06c-6.01,0-11.4-0.37-16.49-1.13c-6.49-0.97-10.61-4.16-12.58-9.76c-0.78-2.2-0.84-4.41-0.18-6.2
		c2.14-5.82,4.42-8.94,10.88-9.82c5.63-0.77,11.77-1.17,19.33-1.28c0.81,0.04,1.71,0.06,2.61,0.06c3.79,0,7.68-0.32,11.44-0.63
		c3.61-0.3,7.35-0.6,11.03-0.63c2.84-0.02,5.68-0.04,8.52-0.04c5.94,0,10.53,0.1,14.87,0.31c4.19,0.21,7.57,2.12,10.59,4.16
		c1.49,1,2.42,2.49,2.76,4.41c0.17,0.92,0.39,1.83,0.6,2.7c0.3,1.22,0.58,2.37,0.71,3.53c0.45,3.92-0.67,6.9-3.54,9.39
		c-3.98,3.46-8.99,5.07-15.77,5.07L560.31,263.69z"/>
	<path class="st7" d="M502.11,222.47c-3.39,0-6.75-0.98-9.98-2.92c-4.56-2.73-6.11-10.46-4.36-15.04c2.43-6.35,7.31-8.39,14.4-9.62
		c7.72-1.34,15.88-1.99,24.96-1.99c1.75,0,3.57,0.02,5.4,0.07c2.19,0.06,4.5,0.09,7.07,0.09c3.74,0,7.54-0.06,11.21-0.12
		c3.66-0.06,7.44-0.12,11.16-0.12c0.65,0,1.31,0,1.96,0.01c3.26,0.02,6.62,0.8,9.98,2.32c2.64,1.19,5.81,3.67,5.93,8.69l0,0.23
		c0.06,2.66,0.12,5.18-0.6,7.57c-1.74,5.81-5.37,8.47-12.52,9.2c-7.46,0.76-14.82,1.15-21.86,1.15c-2.36,0-4.73-0.04-7.05-0.13
		c-0.46-0.02-0.92-0.02-1.38-0.02c-0.39,0-1.93,0.02-2.31,0.02h-1.42v0.2c-1.07,0-2.15-0.01-3.22-0.01
		c-1.55-0.01-3.1-0.01-4.65-0.01c-1.97,0-3.95,0.01-5.92,0.04c-2.69,0.04-5.38,0.12-8.07,0.2c-2.79,0.08-5.68,0.17-8.51,0.21
		L502.11,222.47z"/>
	<g id="thermostat_5_">
		<g>
			<g>
				<path d="M280.53,159.22c25.91-0.36,49-0.41,72.07-1.42c11.94-0.52,23.88-0.29,35.82-0.61c33.47-0.89,66.95-1.16,100.42-1.82
					c18.22-0.36,36.43-1.3,54.65-1.04c11.13,0.16,22.26,0.79,33.28,2.44c6.84,1.03,13.46,3.12,19.22,7.03
					c3.56,2.41,6.35,5.82,9.18,9.08c0.22,0.25,0.39,0.57,0.65,0.77c6.04,4.69,6.81,11.54,7.27,18.37
					c1.17,17.17,1.41,34.38,1.73,51.58c0.13,7.06,0.89,14.13,0.76,21.22c-0.26,13.83-0.61,27.66-0.72,41.49
					c-0.13,17.08-0.21,34.16-0.03,51.23c0.13,12.62-0.53,25.25,0.39,37.85c0.3,4.14,0.29,8.2-0.81,12.23
					c-0.66,2.43-1.52,4.8-2.95,6.85c-1.89,2.71-3.91,5.32-5.6,8.16c-0.56,0.94-1.48,1.59-2.5,1.99c-5.25,2.1-10.41,4.42-16.04,5.47
					c-8.85,1.65-17.8,2.12-26.76,2.4c-11.73,0.36-23.47,0.48-35.2,1.18c-7.67,0.46-15.39,0.13-23.08,0.15
					c-18.15,0.05-36.28,0.82-54.44,0.81c-13.69-0.01-27.37,0.88-41.04,1.5c-19.55,0.88-39.12,1.27-58.69,1.21
					c-12.76-0.04-25.5,0.51-38.24,1.22c-2.02,0.11-4.05,0.07-6.07,0.06c-4.85-0.03-9.66,0.14-14.52,0.73
					c-9.06,1.09-18.2,0.43-27.3-0.03c-7.76-0.39-15.32-2.23-23.04-3.04c-5.28-0.56-10.06-3.37-14.87-5.64
					c-1.28-0.6-2.43-1.46-3.71-2.07c-1.81-0.87-3.5-1.67-3.47-4.18c0.01-0.8-0.83-1.66-1.38-2.42c-5.19-7.11-8.01-15.2-10.14-23.65
					c-2.62-10.37-3.98-20.95-5.07-31.53c-0.98-9.45-1.73-18.92-0.84-28.48c0.64-6.85-0.38-13.75-0.29-20.64
					c0.27-21.26,0.37-42.52,1.1-63.78c0.24-7.01,0.29-14.05-0.01-21.05c-0.32-7.49,1.33-14.6,3.26-21.7
					c0.32-1.17,0.73-2.34,0.84-3.54c0.87-9.55,5.16-17.59,10.74-25.14c3.85-5.2,8.22-9.81,13.38-13.7
					c4.68-3.54,10.06-5.51,15.64-6.89c6.89-1.7,13.92-2.78,21.02-2.69C271.23,159.27,277.29,159.36,280.53,159.22z M314.62,364.43
					c-33.21,0.29-66.43,0.58-99.64,0.88c-0.71,0.01-1.52-0.24-2.09,0.44c-0.85,1.03-2.02,1.35-3.25,1.38
					c-1.35,0.04-1.72,0.66-1.56,1.92c0.64,5.15,1.16,10.33,1.86,15.47c0.74,5.39,2.86,10.39,4.54,15.52
					c0.29,0.87,0.88,1.83,0.18,2.7c-0.64,0.8-0.36,1.53-0.1,2.28c2.29,6.57,5.63,12.42,10.7,17.37c3.3,3.22,6.96,5.51,11.32,6.57
					c5.69,1.39,11.62,1.39,17.35,2.65c0.78,0.17,1.62,0.1,2.42,0.05c7.7-0.47,15.37,0.28,23.06,0.43
					c15.04,0.29,30.03,1.24,45.12,0.2c14.33-0.99,28.71-1.44,43.09-1.51c5.4-0.02,10.79,0.28,16.19-0.19
					c5.79-0.5,11.59-0.23,17.4-0.11c6.81,0.13,13.66,0.64,20.44-0.02c9.87-0.96,19.78-1.41,29.66-2.28
					c13.32-1.18,26.71-0.81,40.06-1.09c15.71-0.32,31.44,0.12,47.17-0.25c9.64-0.22,19.22-1.61,28.87-1.58
					c8.37,0.02,16.54-1.24,24.39-4.12c3.01-1.1,6.12-2.36,8.64-4.26c3.37-2.56,6.3-5.76,6.33-10.51c0-0.19,0.07-0.42,0.19-0.57
					c2.28-2.86,2.15-6.24,2.12-9.6c-0.1-13.09-0.77-26.17-1.08-39.25c-0.16-6.61,0.12-13.22,0.28-19.84
					c0.39-16.13,0.37-32.27,0.59-48.4c0.02-1.61-0.47-1.98-2.04-2.05c-7.26-0.28-14.38,1.11-21.55,1.72
					c-9.96,0.86-19.95,1-29.93,1.27c-6.76,0.18-13.46,1.02-20.14,1.9c-6.17,0.81-12.06,2.92-17.92,4.96
					c-6.13,2.13-11.95,4.91-17.25,8.76c-3.46,2.52-6.43,5.54-9.65,8.3c-4.72,4.04-8.61,8.67-11.77,14.02
					c-4.4,7.44-9.16,14.5-16.39,19.77c-8.78,6.39-17.82,11.79-28.76,13.55c-7.52,1.21-14.99,2.76-22.65,2.79
					c-4.99,0.02-9.99-0.08-14.98-0.03C368.76,363.92,341.69,364.18,314.62,364.43z M311.02,346.36c0,0.01,0,0.03,0,0.04
					c26.26-0.28,52.53-0.44,78.78-0.88c11.24-0.19,22.5,0.69,33.71-1.5c10.87-2.12,20.73-6.24,29.67-12.72
					c6.34-4.59,8.86-11.52,11.36-18.46c0.48-1.33,0.98-2.69,1.14-4.08c0.89-7.84,1.85-15.68,2.8-23.52
					c1.88-15.49,1.67-31.13,2.92-46.67c0.7-8.69,0.18-17.38-0.28-26.09c-0.63-11.85-0.9-23.74-0.5-35.62
					c0.15-4.32-0.15-8.63-0.62-12.93c-0.18-1.67-0.86-2.23-2.59-2.2c-8.57,0.16-17.14,0.29-25.71,0.5
					c-20.32,0.5-40.62-0.92-60.94-0.78c-0.34,0-0.67-0.03-1.01-0.04c-8.57-0.36-17.14-0.01-25.7,0.39
					c-10.04,0.48-20.07,1.37-30.12,1.63c-13.29,0.34-26.59,0.11-39.89,0.36c-11.82,0.22-23.55,0.96-35.22,3
					c-8.07,1.41-15.37,4.18-21.53,9.77c-5.77,5.23-9.35,11.89-12.21,18.87c-2.47,6.05-3.18,12.66-4.45,19.08
					c-2.64,13.35-4.08,26.79-4.19,40.4c-0.07,9.11-0.06,18.22-0.1,27.34c-0.05,9.45-0.5,18.89-0.59,28.34
					c-0.11,11.34,0.29,22.68,0.69,34.01c0.1,2.83,0.08,2.83,2.91,2.8C243.24,347.06,277.13,346.71,311.02,346.36z M510.66,160.56
					c-5-0.07-9.98,0.43-14.97,0.66c-6.81,0.31-13.63,0.58-20.45,0.48c-1.38-0.02-1.84,0.28-1.59,1.85c0.7,4.47,0.81,9,0.69,13.53
					c-0.14,5.67-0.1,11.34-0.07,17.01c0.07,11.21,1.05,22.37,1.19,33.58c0.08,6.56-0.53,13.08-0.89,19.61
					c-0.54,9.57-1.05,19.14-1.5,28.72c-0.38,8.24-1.9,16.35-2.81,24.53c-0.59,5.28,0.17,10.83-2.88,15.7
					c-0.85,1.36-1.52,2.89-1.99,4.42c-1.59,5.25-4.79,9.4-8.95,12.73c-10.59,8.48-22.86,13.07-36.19,15.01
					c-6.02,0.88-12.07,0.83-18.15,0.88c-63.06,0.52-126.11,1.19-189.17,1.85c-1.99,0.02-4.64-0.9-5.79,0.49
					c-1.11,1.34-0.2,3.89-0.07,5.9c0.27,4.19,0.29,4.2,4.49,4.16c56.1-0.52,112.21-1.06,168.31-1.58c13.74-0.13,27.5,0.11,41.2-0.94
					c5.89-0.45,11.8-1.48,17.47-3.14c7.97-2.34,14.87-6.77,21.58-11.69c6.43-4.71,10.62-11.05,14.71-17.54
					c2.19-3.49,4.21-7.06,6.99-10.14c2.41-2.66,5.28-4.83,7.77-7.37c4.63-4.73,9.86-8.66,15.71-11.64
					c15.43-7.85,32-11.23,49.21-11.65c9.18-0.22,18.35-0.47,27.52-1.03c8.47-0.52,16.85-2.32,25.38-1.88
					c1.28,0.07,1.65-0.46,1.63-1.64c-0.03-1.62,0.09-3.24,0.08-4.86c-0.14-25.51-0.03-51.01-1.73-76.5
					c-0.59-8.85-3.59-16.31-7.76-23.68c-0.33-0.57-0.52-1.54-1.55-1.28c-1.3,0.34-1.98-0.49-2.73-1.29
					c-2.55-2.72-5.24-5.28-8.72-6.8c-2.25-0.98-4.76-0.65-6.98-2.53c-1.68-1.43-4.7-1.36-7.16-1.76c-9.34-1.5-18.77-2.06-28.21-2.45
					C533.06,159.84,521.86,160.85,510.66,160.56z"/>
				<path d="M374.68,326.08c-15.99-0.54-29.63-1.47-43.26-0.87c-21.25,0.93-42.5,0.89-63.76,1.1c-8.29,0.08-16.58-0.64-24.87-1
					c-0.47-0.02-0.95-0.08-1.41-0.02c-3.08,0.42-4.85-1.16-4.92-4.33c-0.25-10.51,0.06-21.01,0.34-31.51
					c0.21-7.89-0.08-15.8,0.09-23.69c0.17-7.82,0.2-15.64,0.93-23.45c0.5-5.3,1.08-10.59,1.42-15.92c0.41-6.4,1.33-12.83,3.95-18.73
					c3.72-8.37,9.59-14.2,19.23-15.84c7.01-1.19,14.01-1.46,21.05-2c13.64-1.05,27.26-0.96,40.88-0.58
					c19.56,0.55,39.13,0.99,58.7,1.37c9.92,0.19,19.84,0.5,29.75,0.93c9.7,0.42,19.42,0.62,29.08,1.82c2,0.25,4.04,0.12,6.07,0.2
					c2.12,0.09,2.8,0.92,2.33,2.99c-0.35,1.54-0.43,3.08-0.35,4.63c0.54,10.44-0.09,20.9,0.35,31.35c0.47,11.05-0.13,22.1-0.6,33.16
					c-0.49,11.6-1.37,23.17-1.81,34.77c-0.25,6.63-2.06,12.77-6.56,17.89c-0.35,0.4-0.78,0.73-1.22,1.03
					c-6.2,4.27-13.25,5.62-20.61,6.22c-5.6,0.46-11.2,0.3-16.79,0.36C392.55,326.05,382.43,326.74,374.68,326.08z M314.25,195.04
					c-4.82-0.19-14.33,0.3-23.85,0.3c-8.12-0.01-16.16,1.03-24.07,2.77c-4.28,0.94-8.14,2.7-11.51,5.92
					c-5.24,5-6.35,11.46-7.39,17.95c-1.27,7.86-1.46,15.85-2.08,23.78c-1.24,15.95-1.66,31.94-1.69,47.94
					c0,1.35,0.05,2.71-0.13,4.04c-0.85,6.37-0.78,12.8-1.27,19.19c-0.08,1.1,0.3,1.46,1.35,1.39c2.84-0.2,5.66,0.15,8.49,0.24
					c9.65,0.31,19.3,0.36,28.95,0.19c9.86-0.17,19.7,0.3,29.55,0.66c16.26,0.6,32.51-0.91,48.77-0.21
					c5.66,0.25,11.34,0.07,17.01,0.03c13.97-0.1,27.94,0.11,41.9,0.55c4.99,0.16,9.68-1.51,14.35-3.04
					c3.02-0.99,4.54-3.33,5.69-6.14c0.48-1.17-0.65-2.34,0.26-3.29c0.81-0.85,0.73-1.79,0.71-2.81c-0.02-0.87,0.01-1.78,0.25-2.61
					c0.99-3.3,1.44-6.75,1.45-10.11c0.07-12.84,1.65-25.58,2.05-38.39c0.35-11.27,0.73-22.54-0.29-33.78
					c-0.59-6.5,0.63-13.12-1.64-19.54c-0.5-1.4-0.67-1.7-1.95-1.66c-4.45,0.15-8.9,0.27-13.36,0.31c-5.87,0.05-11.74-0.15-17.61-0.4
					c-9.85-0.41-19.71-0.38-29.55-0.89C358.75,196.39,338.87,195.28,314.25,195.04z"/>
				<path d="M516.15,233.61c8.17,0.36,16.6-1.13,25.1-1.2c7.83-0.06,15.65-0.12,23.47,0.27c4.34,0.21,7.89,2.1,11.31,4.41
					c1.86,1.25,2.96,3.07,3.37,5.33c0.38,2.12,1.08,4.19,1.33,6.33c0.48,4.18-0.66,7.7-4.02,10.62c-5.05,4.39-11.08,5.5-17.35,5.42
					c-13.22-0.18-26.44-0.58-39.66-0.21c-7.1,0.2-14.15-0.03-21.19-1.08c-6.61-0.99-11.42-4.2-13.71-10.69
					c-0.84-2.37-1-4.93-0.18-7.16c2.35-6.38,5.12-9.79,12.02-10.74C503,234.03,509.39,233.7,516.15,233.61z M534.77,238.05
					c-8.43,0.27-18.5-0.53-28.52,0.86c-3.8,0.52-7.72,0.38-11.3,2.01c-2.6,1.18-5.48,2.18-5.54,5.83c0,0.25-0.19,0.5-0.27,0.76
					c-1.02,3.48,0.04,7.72,3.81,9.31c3.58,1.51,7.23,1.63,10.88,1.9c13.87,1.02,27.79,1.25,41.68,0.91
					c8.73-0.21,17.77,0.8,25.93-3.81c1.03-0.58,1.83-1.15,2.54-2.14c2.49-3.5,1.97-7.14,0.72-10.83c-0.79-2.32-2.48-3.67-4.94-3.88
					c-3.96-0.34-7.93-0.8-11.9-0.87C550.69,237.94,543.53,238.05,534.77,238.05z"/>
				<path d="M533.18,223.13c-5.06,0-10.12-0.06-15.18,0.02c-5.53,0.08-11.06,0.34-16.59,0.41c-3.93,0.05-7.6-1.11-10.95-3.12
					c-5.06-3.03-6.99-11.45-4.96-16.76c2.82-7.39,8.79-9.35,15.49-10.51c10.14-1.76,20.39-2.21,30.64-1.94
					c10.46,0.28,20.91-0.22,31.37-0.15c3.73,0.02,7.31,0.98,10.55,2.44c4.01,1.81,6.65,5.16,6.76,9.95
					c0.06,2.77,0.15,5.55-0.65,8.23c-1.93,6.41-6.11,9.43-13.73,10.21c-9.68,0.99-19.38,1.39-29.1,1.03
					c-1.21-0.04-2.43-0.01-3.64-0.01C533.18,223,533.18,223.07,533.18,223.13z M526.68,218.71c2.16,0,4.32,0.07,6.47-0.01
					c9.09-0.33,18.21,0.22,27.25-1.27c4.01-0.66,8.02-1.28,11.52-3.49c2.02-1.28,3.81-2.79,3.97-5.49
					c0.37-6.28-5.75-13.09-11.99-12.89c-6.75,0.22-13.49-0.19-20.23-0.02c-11.99,0.3-23.96,1.36-35.98,1.25
					c-3.29-0.03-6.67,0.25-9.71,1.66c-3.48,1.62-7.39,3.32-8.23,7.47c-1.3,6.43,1.85,12.35,9.2,12.8
					C508.19,219.29,517.44,219.15,526.68,218.71z"/>
				<path d="M357.33,252.19c0.78-2.89,0.89-5.62,1.02-8.28c0.27-5.86,0.65-11.72,0.47-17.59c-0.07-2.31-0.43-4.57-0.98-6.79
					c-0.39-1.58,0.06-2.77,1.31-3.74c0.53-0.41,1.07-0.82,1.59-1.26c2.38-2.02,4.07-2.02,6.3-0.02c0.62,0.56,0.66,1.26,0.65,2.03
					c-0.05,7.96-0.25,15.93-0.04,23.88c0.09,3.47-1.46,6.01-3.26,8.59c-1,1.44-2.09,2.81-3.17,4.2c-0.28,0.37-0.8,1-0.97,0.93
					c-2.41-0.95-4.39,1.39-7.02,0.58c-2.88-0.89-6.12-0.77-9.21-0.84c-5.46-0.12-10.93-0.05-16.4-0.04c-1.25,0-2.55,0.05-2.99-1.44
					c-0.41-1.43,0.74-2.02,1.68-2.67c1.11-0.76,2.28-1.39,3.13-2.52c0.66-0.88,1.78-0.9,2.79-0.91c6.21-0.06,12.42-0.15,18.62-0.14
					c3.95,0,5.38,1.35,5.94,5.26C356.82,251.61,357.01,251.75,357.33,252.19z"/>
				<path d="M331.09,268.38c-0.19,4.87,0.08,9.98,0.43,15.1c0.12,1.72,0.01,3.39-1.18,4.97c-0.78,1.03-0.32,2.61-0.1,3.92
					c0.18,1.1-0.03,1.98-0.75,2.8c-1.49,1.67-2.72,3.51-3.55,5.61c-0.41,1.05-1.18,1.68-2.36,1.42c-1.18-0.25-1.58-1.17-1.6-2.27
					c-0.02-1.08,0-2.16,0.03-3.24c0.18-7.42-0.78-14.78-1.22-22.17c-0.21-3.43-0.69-6.83-0.85-10.26c-0.04-0.96-0.2-1.87-0.54-2.76
					c-0.4-1.05-0.59-2.13,0.25-3.04c0.61-0.65,0.14-1.27,0.14-1.9c-0.01-1.48,0.77-2.48,2.19-2.23c1.33,0.24,2.87,0.3,3.89,1.43
					c0.65,0.72,1.17,0.8,1.82,0.07c0.64-0.72,1.41-1.1,2.34-0.64c1,0.49,1.08,1.43,1.07,2.42
					C331.08,261.11,331.09,264.62,331.09,268.38z"/>
				<path d="M369.67,272.42c0,5.06-0.01,10.12,0.01,15.19c0.01,2.04-0.26,4.03-0.84,5.99c-0.3,1.02-0.8,1.88-1.94,2.12
					c-1.09,0.24-1.71-0.52-2.41-1.17c-2.67-2.47-3.35-5.65-3.45-9.11c-0.2-7-1.37-13.96-0.99-21c0.06-1.14-0.08-2.3-0.25-3.43
					c-0.65-4.3,2.09-8.43,6.33-9.52c1.65-0.42,3.58,1.11,3.69,3.11c0.13,2.29,0.08,4.59,0.06,6.88c-0.02,1.82-0.13,3.64-0.16,5.46
					c-0.03,1.82-0.01,3.64-0.01,5.47C369.71,272.42,369.69,272.42,369.67,272.42z"/>
				<path d="M302.57,279.59c0,6.07,0.04,12.13-0.01,18.2c-0.04,4.36-1.77,5.21-5.8,3.49c-2.34-1-2.8-2.43-2.75-4.69
					c0.15-7.74,0.73-15.48,0.23-23.23c-0.23-3.62-0.38-7.25-0.63-10.88c-0.12-1.71,0.41-2.89,2.16-3.36
					c1.27-0.34,2.27-1.28,3.79-1.14c2.39,0.21,2.82,0.54,2.96,3.02C302.86,267.19,302.59,273.39,302.57,279.59z"/>
				<path d="M302.77,215.89c1.28,6.99,0.63,14,0.05,20.98c-0.41,4.98-0.55,9.96-0.87,14.93c-0.13,1.99-1.51,3.05-3.31,3.59
					c-1.64,0.49-2.51-0.27-3.44-1.64c-0.89-1.31-0.84-2.48-0.82-3.93c0.07-5.32-0.08-10.64-0.22-15.95
					c-0.12-4.44-0.56-8.89-0.45-13.32c0.09-3.44,2.73-5.73,4.92-8.06c0.66-0.71,1.91-1.16,2.99-0.45
					C303.03,212.97,302.86,214.47,302.77,215.89z"/>
				<path d="M329.3,224.49c0.15,4.96-0.44,9.51-0.73,14.08c-0.05,0.74-0.07,1.48,0.02,2.21c0.13,1.1,0.91,2.2,0.11,3.3
					c-1.51,2.1-2.2,4.84-4.78,6.11c-1.57,0.77-3.2,0.46-3.31-0.89c-0.11-1.35-0.72-2.56-0.75-3.88c-0.18-8.02,0.39-16.02,0.63-24.03
					c0.05-1.82,0.15-3.63,0.19-5.45c0.02-1.36,0.54-2.44,1.5-3.4c1.61-1.63,2.69-1.43,4.41,0.12c2.76,2.5,3.38,5.49,2.86,8.96
					C329.3,222.69,329.34,223.78,329.3,224.49z"/>
				<path d="M362.71,300.91c-9.71,0-19.41-0.01-29.12,0.01c-1.01,0-2.01,0.15-3.02,0.23c-1.09,0.09-2.07-0.12-2.5-1.25
					c-0.43-1.13,0.1-2,1.07-2.55c1.37-0.77,2.6-1.61,3.43-3.02c0.47-0.79,1.44-0.98,2.33-1.02c5.38-0.24,10.76-0.79,16.15-0.17
					c0.93,0.11,1.94,0.24,2.82,0.01c3.77-1,6.53,0.84,9.21,3.05c0.69,0.57,1.26,1.22,1.65,2.02c0.92,1.9,0.07,3.22-2.03,3.17
					C362.71,301.23,362.71,301.07,362.71,300.91z"/>
				<path d="M355.58,215.61c-3.23-0.79-6.19,0.14-9.17,0.4c-2.43,0.21-4.83,0.35-7.19-0.45c-1.25-0.42-2.39-0.54-3.51,0.6
					c-0.98,1-2.24,0.68-2.9-0.5c-0.92-1.64-2.31-2.79-3.64-4.01c-0.64-0.59-1.07-1.24-0.78-2.13c0.31-0.95,1.1-1.2,2.01-1.42
					c2.29-0.55,4.58-0.62,6.91-0.37c1.07,0.12,2.15,0.02,3.02,0.86c0.6,0.57,1.4,0.39,2.13,0.4c4.96,0.08,9.92-0.65,14.9-0.03
					c1.27,0.16,2.7-0.12,3.24,1.41c0.57,1.6-0.71,2.24-1.78,2.97c-0.55,0.37-1.01,0.88-1.47,1.36
					C356.8,215.28,356.18,215.63,355.58,215.61z"/>
				<path d="M403.59,232.08c-4.3,0.52-7.48-2.03-9.18-5.77c-1.66-3.63-0.86-7.43,1.68-10.83c1.84-2.46,10.11-4.34,13.26-3.11
					c1.18,0.46,1.86,1.58,2.32,2.68c0.51,1.2-0.57,2.28-2.05,2.21c-1.61-0.07-3.23-0.11-4.83-0.27c-1.42-0.14-2.62,0.28-3.8,1.03
					c-3.29,2.1-3.74,3.69-1.94,7.23c1.2,2.35,4.24,3.28,7,2.11c0.99-0.42,1.94-0.94,2.91-1.41c0.8-0.39,1.57-0.39,2.24,0.25
					c0.65,0.62,0.76,1.39,0.48,2.23c-0.52,1.57-1.47,2.72-3.13,3.15C407.03,231.98,405.49,232.14,403.59,232.08z"/>
				<path d="M379.4,218.79c0.03-2.45,2.03-4.45,4.36-4.37c1.82,0.06,3.34,2.2,3.32,4.68c-0.02,1.87-1.94,3.6-3.96,3.56
					C380.81,222.61,379.37,221.12,379.4,218.79z"/>
				<path d="M531.27,245.28c2.83,0,5.66,0,8.49,0c1.11,0,2.25,0.06,2.64,1.36c0.41,1.35-0.61,1.85-1.56,2.45
					c-0.91,0.57-1.82,0.77-2.86,0.77c-5.26-0.03-10.51-0.03-15.77-0.03c-1.34,0-2.82-0.03-2.9-1.74c-0.08-1.76,1.31-2.41,2.87-2.44
					c3.03-0.06,6.06-0.02,9.1-0.02C531.27,245.51,531.27,245.4,531.27,245.28z"/>
				<path d="M527.78,202.42c-0.09-0.74-0.24-1.47-0.26-2.21c-0.04-1.25,0.53-2.13,1.85-2.19c1.2-0.06,1.83,0.68,1.99,1.85
					c0.01,0.07,0,0.13,0.01,0.2c0.18,1.37-0.52,3.28,0.54,3.98c0.97,0.64,2.72,0.09,4.13,0.06c0.88-0.02,1.75-0.04,2.63-0.03
					c1.15,0.01,2.03,0.46,2.08,1.71c0.05,1.24-0.79,1.83-1.92,1.92c-1.81,0.16-3.63,0.31-5.45,0.29c-1.51-0.02-2.31,0.3-1.84,2.04
					c0.21,0.76,0.17,1.61,0.13,2.41c-0.04,0.98-0.56,1.68-1.58,1.79c-1.03,0.12-1.72-0.45-1.93-1.4c-0.23-1.04-0.38-2.13-0.37-3.2
					c0.01-1.26-0.51-1.64-1.71-1.55c-1.79,0.13-3.58-0.21-5.22,1.04c-0.95,0.73-1.95,0.13-2.43-0.97c-0.59-1.37,0.04-2.82,1.48-3.22
					c1.9-0.53,3.87-0.59,5.82-0.47C527.31,204.58,528.06,204.07,527.78,202.42z"/>
			</g>
		</g>
	</g>
</g>
</svg>
