<?xml version="1.0" encoding="utf-8"?>
<!-- Generator: Adobe Illustrator 23.0.2, SVG Export Plug-In . SVG Version: 6.00 Build 0)  -->
<svg version="1.1" xmlns="http://www.w3.org/2000/svg" xmlns:xlink="http://www.w3.org/1999/xlink" x="0px" y="0px"
	 viewBox="0 0 841.89 595.28" style="enable-background:new 0 0 841.89 595.28;" xml:space="preserve">
<style type="text/css">
	.st0{fill:#ECC5BF;}
	.st1{fill:#F8E2D2;}
	.st2{fill:#CBF4FF;}
	.st3{fill:#FF3A5B;}
	.st4{fill:#E7BA9F;}
	.st5{fill:#422918;}
	.st6{fill:#E59C8B;}
	.st7{fill:#FFFFFF;}
	.st8{fill:#1D70B7;}
	.st9{fill:#FFDD4C;}
	.st10{fill:#007EFF;}
	.st11{fill:#97E6FC;}
	.st12{fill:#FFF88A;}
	.st13{fill:#FF6671;}
	.st14{fill:#D9D9D9;}
	.st15{fill:#50E3C2;}
	.st16{fill:#B1B1B1;}
	.st17{fill:#868686;}
	.st18{fill:#C89B83;}
	.st19{fill:#E3C9BB;}
	.st20{fill:#ECECEC;}
	.st21{fill:#FF8438;}
	.st22{fill:#DEB496;}
	.st23{fill:#EACEB3;}
	.st24{fill:#ECDCD2;}
	.st25{fill:#F5F5F5;}
	.st26{fill:url(#SVGID_1_);}
	.st27{fill:url(#SVGID_2_);}
	.st28{fill:#AE846C;}
	.st29{fill:#9E6D57;}
	.st30{fill:#C6C6C5;}
	.st31{fill:#F6ECE3;}
	.st32{fill:#E7BCA9;}
	.st33{fill:#F6D8C7;}
	.st34{fill:#F6E9DA;}
	.st35{fill:#1D1D1B;}
	.st36{fill:none;}
</style>
<g id="colour">
</g>
<g id="Layer_3">
	<g>
		<path class="st18" d="M310.16,655.89c-0.26-33.45-0.88-68.4-16.59-97.94c-8.71-16.38-21.85-30.62-27.07-48.42
			c-5.1-17.38-2-36,1.65-53.73c3.06-14.83,1.55-30.78,11.15-42.49c2.72-3.32,11.12-5.73,13.02-9.57c2.18-4.41,3.23-9.49,2.76-14.39
			c-2.74-28.95,2.46-58.96,8.76-86.46c1.3-5.66,6.84-9.41,12.38-11.16c5.48-1.72,11.34,2.66,13.42,8.01
			c2.08,5.35,1.42,11.31,0.89,17.03c-2.77,30.08-0.94,60.57,5.42,90.1c8.93-4.62,17.11,8.48,27.02,10.21
			c5.42,0.95,11.29-1.67,16.36,0.48c4.76,2.02,7.45,7.78,12.51,8.89c2.88,0.63,5.88-0.44,8.8-0.08c4.84,0.6,8.27,4.85,11.17,8.76
			c11.31,15.29,26.25,29.84,28.52,48.72c2.04,16.94-7.05,35.37-11.6,51.82c-10.24,37.03-14.18,75.8-11.6,114.14
			c-34.78,0.68-69.49,4.5-103.58,11.41"/>
	</g>
	<g>
		<path class="st19" d="M312.89,293.21c-0.83,3.09-1.49,6.22-1.98,9.37c-0.49,3.17-0.66,6.83,1.58,9.12
			c2.15,2.19,5.62,2.2,8.69,2.05c0.95-0.04,1.96-0.11,2.74-0.66c0.6-0.43,0.98-1.09,1.33-1.74c2.17-4.15,3.39-9.18,1.62-13.52
			c-1.77-4.34-7.41-7.18-11.42-4.75"/>
	</g>
	<path class="st20" d="M582.18,276.98c0.48,0,0.97,0,1.45,0c0-28.72,0.1-57.43-0.07-86.15c-0.04-7.25-0.18-14.57-3.11-21.51
		c-1.75-4.14-5.02-6-8.99-6.43c-5.66-0.62-11.38-0.87-17.07-0.86c-97.83,0.31-195.67,0.7-293.5,1c-4.2,0.01-8.39,0.86-12.66-0.38
		c-1.85-0.54-4.7-0.21-5.91,1.88c-1.74,3.01-3.61,6.05-3.89,9.72c-0.42,5.45-1.08,10.88-1.44,16.34c-1.03,15.92-1,31.85-0.31,47.78
		c1.86,42.71,2.47,85.47,5.51,128.14c0.73,10.2,6.93,13.13,13.99,13.49c10.8,0.56,21.64,0.07,32.47,0.24
		c3.11,0.05,3.91-1.07,3.82-4.02c-0.35-11.31-0.38-22.62,2.05-33.76c0.8-3.68,1.82-7.31,2.65-10.98c0.37-1.67,1.32-3.54-2.11-3.3
		c-3.08,0.22-3.94-2.28-4.01-4.99c-0.13-5.35-0.01-10.73-0.49-16.05c-1-11.14-2.12-22.26-2.06-33.47
		c0.04-7.53,0.16-15.07-0.38-22.61c-0.32-4.39-0.21-9.08,3.2-12.72c1.12-1.2,2.35-2.32,4.12-1.56c3.05,1.32,6.31,1.33,9.49,1.59
		c7.03,0.56,14.08,0.81,21.11,1.32c6.78,0.49,8.42,2.15,9.17,8.86c0.1,0.85,0.14,1.7,0.2,2.55c1.26,17.34,2.24,34.7,2.38,52.08
		c0.05,5.33,1.23,11.18-1.07,15.87c-2.73,5.57-3.11,11.23-3.06,16.89c0.11,12.51,1.09,25.02,1.5,37.53c0.1,3.1,0.94,4.08,4.2,4.08
		c24.21,0,48.43,0.31,72.64,0.36c52.14,0.1,104.3,1.22,156.43-0.3c8.73-0.25,13.86-3.15,13.8-13.02
		C582.07,335.38,582.18,306.18,582.18,276.98z"/>
	<path class="st15" d="M311.22,217.02c6.33,0.07,11.42-5.12,11.44-11.67c0.01-5.39-6.41-12.97-11-12.97
		c-7.81-0.01-13.07,4.73-13.2,11.88C298.31,211.82,303.43,216.93,311.22,217.02z"/>
	<path class="st21" d="M395.39,202.91c-0.4,6.87,4.15,12.2,10.76,12.59c6.69,0.39,12.19-4.81,12.55-11.87
		c0.3-5.99-4.81-11.85-10.67-12.24C400.28,190.88,395.85,194.92,395.39,202.91z"/>
	<path class="st3" d="M513.11,202.82c0.23-6.94-4.6-12.48-11.47-12.37c-7.58,0.12-10.81,3.45-11.25,13.37
		c-0.25,5.49,5.06,10.38,11.54,10.69C508.32,214.81,512.87,210.06,513.11,202.82z"/>
	<path class="st7" d="M332.89,296.39c-0.13-6.55,0.16-13.08-0.48-19.61c-0.96-9.79-1.49-19.62-2.15-29.43
		c-0.18-2.68-1.53-3.81-4.18-3.96c-6.91-0.38-13.82-0.93-20.73-1.39c-1.09-0.07-2.19-0.03-3.28-0.03
		c-8.77,0.04-10.59,2.02-9.57,10.58c1.18,9.9,1.23,19.87,1.77,29.81c0.51,9.46-0.95,18.95,0.25,28.41c0.48,3.77-0.3,7.51-0.16,11.27
		c0.04,1.15,0.42,1.87,1.59,2.03c1.37,0.18,1.17-0.91,1.28-1.68c0.48-3.36,1.42-6.62,1.73-10.04c0.6-6.76,2.46-13.15,7.03-18.42
		c1.82-2.1,3.79-4.42,6.42-5.14C320.07,286.67,328.59,287.99,332.89,296.39z"/>
	<path class="st7" d="M425.49,273.75c0.19-9.41-1.12-19.08-1.41-28.79c-0.05-1.63-0.37-3.11-2.51-3.38
		c-10.04-1.28-20.13-1.28-30.22-1.09c-1.03,0.02-1.85,0.21-1.98,1.56c-0.35,3.75-1.02,7.48-1.19,11.23
		c-1.01,22.61,0.32,45.22,0.41,67.83c0.01,2.4,0.84,3.24,3.11,3.32c10.58,0.36,21.16,0.53,31.69-0.79c2.03-0.25,4.72-0.2,1.84-3.33
		c-0.46-0.5-0.3-1.62-0.34-2.46C424.32,303.24,424.4,288.65,425.49,273.75z"/>
	<path class="st7" d="M501.39,241.2c-5.62,0.28-10.48,0.63-15.33,0.73c-2.51,0.05-2.96,0.99-2.7,3.37c0.54,4.94,0.82,9.92,0.97,14.9
		c0.59,20.52,0.62,41.05,1.65,61.56c0.15,2.94,1.35,3.89,3.87,4.07c3.63,0.26,7.28,0.27,10.91,0.47c6.66,0.38,13.31,1.29,20,0.81
		c3.84-0.27,5.58-2.19,5.21-5.85c-0.33-3.25-0.77-6.5-1.35-9.71c-1.49-8.27-2.07-16.67-2.4-25.01c-0.53-13.11-1.18-26.21-2.19-39.28
		c-0.31-4.09-2.18-5.93-6.27-6.03C509.38,241.11,505,241.2,501.39,241.2z"/>
	<g id="traffic_lights_1_">
		<g>
			<g>
				<path d="M415.2,661.55c0.18-4.19-0.45-8.38-0.54-12.5c-0.38-17.26,0.53-34.49,2.26-51.71c2.51-25.03,9.37-49.14,14.68-73.59
					c2.14-9.85,5.06-19.56,6.62-29.49c1.88-11.9,0.49-23.47-6.83-33.74c-2.54-3.57-4.87-7.25-8.11-10.28
					c-5.52-5.16-9.97-11.29-14.53-17.24c-3.25-4.26-7.34-5.45-12.69-6.01c3.45,4.52,5.24,9.59,9.76,12.68
					c0.97,0.66,1.68,1.75,2.37,2.74c0.63,0.9,0.53,1.88-0.39,2.59c-0.79,0.6-1.73,0.52-2.33-0.17c-1.26-1.45-2.47-1.75-4.4-1.09
					c-1.62,0.55-2.69-1.05-3.1-2.47c-2.26-7.82-8.52-12.55-14.41-16.95c-5.23-3.9-11.61-7.06-19.18-5.19
					c4.15,7.54,9.46,13.82,15.02,19.92c0.49,0.54,1.11,0.96,1.6,1.49c0.72,0.77,1.07,1.71,0.38,2.64c-0.83,1.1-1.91,0.9-2.91,0.23
					c-1.84-1.24-3.22-2.94-4.66-4.6c-1.36-1.57-2.24-3.74-5.19-2.99c-1.38,0.35-2.23-1.27-2.7-2.56
					c-2.5-6.87-7.07-12.01-12.81-16.45c-2.61-2.02-4.27-5.19-7.81-6.16c-1.05-0.29-2.06-0.61-3.16-0.73
					c-2.52-0.27-3.25,0.71-2.69,3.15c1.39,6.04,2.48,12.15,4.02,18.15c0.81,3.17,0.79,6.2,0.27,9.34c-0.17,1.04-0.5,1.95-1.7,2.01
					c-1.16,0.06-1.77-0.71-2.01-1.75c-2.08-9.2-6.86-17.67-6.79-27.48c0.06-9.02-2.91-17.71-3.68-26.69
					c-1.08-12.73-1.91-25.46-2.07-38.23c-0.06-4.76-0.5-9.46-1.03-14.17c-0.34-3-0.43-6.1-0.07-9.09
					c0.99-8.26,0.63-16.53,0.36-24.79c-0.22-6.59-9.22-9.95-15.47-5.87c-4.46,2.91-6.79,7.46-7.72,12.39
					c-1.32,7.01-2.54,14.06-3.22,21.2c-0.52,5.4-2.33,10.66-3.36,16.03c-2.87,14.96-1.76,30.07-1.42,45.13
					c0.28,12.63,0.95,25.24,1.43,37.86c0.25,6.49-1.86,12.74-1.95,19.2c-0.06,3.89-0.37,7.77,0.14,11.66
					c0.51,3.89,0.15,7.69-1.7,11.28c-0.47,0.92-0.78,1.87-1.95,1.79c-1.33-0.09-1.82-1.12-1.91-2.29c-0.19-2.42-0.56-4.87-0.4-7.28
					c0.91-13.34-0.11-26.75,1.45-40.08c0.38-3.22-0.23-6.55-0.36-9.82c-0.06-1.57-0.59-2.62-2.11-1.22
					c-3.48,3.2-7.55,5.79-10.3,9.76c-0.84,1.21-1.56,2.45-1.67,3.98c-1.28,16.65-5.44,32.83-8.07,49.26
					c-1.54,9.66-1.17,19.4-1.81,29.1c-0.12,1.84,0.67,3.53,1.43,5.22c6.69,14.87,14.47,29.19,22.42,43.39
					c4.97,8.89,10.27,17.45,13.02,27.46c1.95,7.07,1.07,14.29,2.46,21.32c3.46,17.58,2.1,35.68,5.73,53.25
					c0.59,2.87,1.24,5.69,2.26,8.43c-2.68,0-5.35,0-8.03,0c-1.22-22.84-5.16-45.46-6-68.3c-0.46-12.52-5.13-22.91-11.49-33.23
					c-5.53-8.97-9.21-18.99-14.7-28.06c-5.09-8.41-7.95-17.99-13.31-26.3c-0.53-0.83-0.47-2.11-0.49-3.19
					c-0.25-10.7,0-21.29,2.22-31.9c2.68-12.83,4.29-25.88,6.49-38.81c0.61-3.57,1.11-7.38,2.75-10.5c1.5-2.83,4.4-4.96,6.83-7.25
					c2.56-2.42,4.98-5.26,8.02-6.85c6.81-3.56,5.96-9.5,5.81-15.43c-0.05-1.93-1.21-1.57-2.47-1.61
					c-10.44-0.33-20.92,0.41-31.32-1.39c-8.24-1.43-15.07-5.23-20.81-11.19c-1.07-1.11-1.53-2.42-1.82-3.89
					c-0.46-2.26-0.95-4.55-2.6-6.33c-1.35-1.46-0.69-3.24-0.8-4.89c-2.47-34.84-3.93-69.72-3.92-104.64
					c0.01-20.67,0.89-41.35,1.41-62.02c0.21-8.61,0.31-17.23,2.39-25.66c2.05-8.3,9.57-12.74,18-11.13c3.16,0.6,6.51,0.2,9.78,0.19
					c99.42-0.41,198.84-0.85,298.26-1.21c4.35-0.02,8.7,0.62,13.05,0.94c0.72,0.05,1.47,0.15,2.18,0.05c5.69-0.8,9.18,1.6,11.65,6.7
					c3.75,7.76,3.86,16.22,3.99,24.26c0.34,21.04,1.59,42.07,1.59,63.09c0.01,30.4-1.11,60.8-1.79,91.2
					c-0.17,7.54-0.24,15.09-0.77,22.61c-0.46,6.65-2.64,12.3-10.19,14.19c-2.77,0.69-4.48,3.61-7.39,4.48
					c-1.76,0.53-3.42,1.11-5.31,0.95c-18.79-1.62-37.62-1.99-56.46-1.85c-17.4,0.13-34.8,0.25-52.2,0.28
					c-38.57,0.08-77.13,0.78-115.69,1.46c-4.41,0.08-5.54,1.38-4.71,5.59c0.8,4.05,1.8,8.07,2.52,12.13c0.28,1.58,1,2.08,2.43,1.94
					c2.15-0.21,4.26,0.04,6.47-0.43c3.28-0.7,6.42,1.02,8.3,3.53c3.66,4.89,8.32,6.29,14.05,5.66c1.68-0.18,3.41-0.11,4.98,0.78
					c1.79,1.02,3.5,2.3,5.43,0.05c0.64-0.75,1.86-0.36,2.76,0.08c1.2,0.6,2.68,0.98,3.49,1.93c5.16,6.1,12.27,5.87,19.23,6.17
					c2.92,0.13,4.46,2.26,6.11,4.18c6.17,7.18,11.72,14.88,18.49,21.56c6.65,6.57,11.54,14.62,13.08,23.62
					c1.62,9.49,1.82,19.33,0.16,29.06c-2.77,16.21-7.64,31.91-11.13,47.94c-4.64,21.33-7.84,42.79-7.6,64.69
					c0.17,15.57,0.07,31.15,0.09,46.72C421.53,661.55,418.37,661.55,415.2,661.55z M580.96,277.03c0.48,0,0.97,0,1.45,0
					c0-28.72,0.1-57.43-0.07-86.15c-0.04-7.25-0.18-14.57-3.11-21.51c-1.75-4.14-5.02-6-8.99-6.43c-5.66-0.62-11.38-0.87-17.07-0.86
					c-97.83,0.31-195.67,0.7-293.5,1c-4.2,0.01-8.39,0.86-12.66-0.38c-1.85-0.54-4.7-0.21-5.91,1.88c-1.74,3.01-3.61,6.05-3.89,9.72
					c-0.42,5.45-1.08,10.88-1.44,16.34c-1.03,15.92-1,31.85-0.31,47.78c1.86,42.71,2.47,85.47,5.51,128.14
					c0.73,10.2,6.93,13.13,13.99,13.49c10.8,0.56,21.64,0.07,32.47,0.24c3.11,0.05,3.91-1.07,3.82-4.02
					c-0.35-11.31-0.38-22.62,2.05-33.76c0.8-3.68,1.82-7.31,2.65-10.98c0.37-1.67,1.32-3.54-2.11-3.3
					c-3.08,0.22-3.94-2.28-4.01-4.99c-0.13-5.35-0.01-10.73-0.49-16.05c-1-11.14-2.12-22.26-2.06-33.47
					c0.04-7.53,0.16-15.07-0.38-22.61c-0.32-4.39-0.21-9.08,3.2-12.72c1.12-1.2,2.35-2.32,4.12-1.56c3.05,1.32,6.31,1.33,9.49,1.59
					c7.03,0.56,14.08,0.81,21.11,1.32c6.78,0.49,8.42,2.15,9.17,8.86c0.1,0.85,0.14,1.7,0.2,2.55c1.26,17.34,2.24,34.7,2.38,52.08
					c0.05,5.33,1.23,11.18-1.07,15.87c-2.73,5.57-3.11,11.23-3.06,16.89c0.11,12.51,1.09,25.02,1.5,37.53
					c0.1,3.1,0.94,4.08,4.2,4.08c24.21,0,48.43,0.31,72.64,0.36c52.14,0.1,104.3,1.22,156.43-0.3c8.73-0.25,13.86-3.15,13.8-13.02
					C580.84,335.43,580.96,306.23,580.96,277.03z M332.45,296.84c-0.13-6.55,0.16-13.08-0.48-19.61
					c-0.96-9.79-1.49-19.62-2.15-29.43c-0.18-2.68-1.53-3.81-4.18-3.96c-6.91-0.38-13.82-0.93-20.73-1.39
					c-1.09-0.07-2.19-0.03-3.28-0.03c-8.77,0.04-10.59,2.02-9.57,10.58c1.18,9.9,1.23,19.87,1.77,29.81
					c0.51,9.46-0.95,18.95,0.25,28.41c0.48,3.77-0.3,7.51-0.16,11.27c0.04,1.15,0.42,1.87,1.59,2.03c1.37,0.18,1.17-0.91,1.28-1.68
					c0.48-3.36,1.42-6.62,1.73-10.04c0.6-6.76,2.46-13.15,7.03-18.42c1.82-2.1,3.79-4.42,6.42-5.14
					C319.64,287.11,328.15,288.44,332.45,296.84z"/>
				<path d="M311.64,298.02c0.86,2.43,0.28,4.41,0.11,6.35c-0.72,8.56,1.78,10.68,9.98,8.45c0.91-0.25,2.23-0.92,2.62,0.09
					c0.58,1.51-1.12,1.59-2.03,1.9c-1.48,0.49-3.03,0.95-4.57,1.06c-4.84,0.34-6.06-0.55-7.53-5.03
					C308.44,305.37,308.44,305.37,311.64,298.02z"/>
				<path d="M403.33,236.72c6.01,0.44,12.44,0.86,18.85,1.39c3.48,0.29,5.1,2.38,5.4,6.57c1.06,14.55,1.81,29.08,0.85,43.7
					c-0.58,8.84-0.09,17.76-0.1,26.64c0,1.39,0.43,2.44,1.26,3.62c2.6,3.74,0.53,8.45-4.02,9.07c-12.21,1.66-24.47,2.03-36.74,0.81
					c-4.18-0.41-5.79-2.75-5.25-6.81c0.27-2.03,0.19-4.14,0.04-6.19c-1.11-15.79-0.84-31.59-0.68-47.39
					c0.04-3.62-0.67-7.25-1.03-10.87c-0.5-5,0.12-9.96,0.49-14.93c0.23-3.06,1.97-4.39,4.86-4.94
					C392.46,236.41,397.69,236.99,403.33,236.72z M425.05,274.19c0.19-9.41-1.12-19.08-1.41-28.79c-0.05-1.63-0.37-3.11-2.51-3.38
					c-10.04-1.28-20.13-1.28-30.22-1.09c-1.03,0.02-1.85,0.21-1.98,1.56c-0.35,3.75-1.02,7.48-1.19,11.23
					c-1.01,22.61,0.32,45.22,0.41,67.83c0.01,2.4,0.84,3.24,3.11,3.32c10.58,0.36,21.16,0.53,31.69-0.79
					c2.03-0.25,4.72-0.2,1.84-3.33c-0.46-0.5-0.3-1.62-0.34-2.46C423.89,303.69,423.97,289.1,425.05,274.19z"/>
				<path d="M523.2,255.96c0.65,12.49,1.26,24.99,1.95,37.48c0.5,8.97,1.7,17.84,3.33,26.69c1.07,5.8-2.22,10.23-8.04,11.39
					c-10.59,2.11-21.17,2.6-31.7-0.6c-5.49-1.67-8.29-5.63-8.61-10.87c-0.76-12.72-1.29-25.48-1.35-38.22
					c-0.05-11.18-1.03-22.36-0.17-33.54c0.02-0.24,0.02-0.49,0.01-0.73c-0.25-7.35,0.68-8.61,8.14-8.78
					c8.37-0.19,16.71-1.22,25.12-0.66c8.58,0.58,11.58,3.48,11.6,11.99c0.01,1.94,0,3.89,0,5.83
					C523.38,255.95,523.29,255.95,523.2,255.96z M500.96,241.64c-5.62,0.28-10.48,0.63-15.33,0.73c-2.51,0.05-2.96,0.99-2.7,3.37
					c0.54,4.94,0.82,9.92,0.97,14.9c0.59,20.52,0.62,41.05,1.65,61.56c0.15,2.94,1.35,3.89,3.87,4.07
					c3.63,0.26,7.28,0.27,10.91,0.47c6.66,0.38,13.31,1.29,20,0.81c3.84-0.27,5.58-2.19,5.21-5.85c-0.33-3.25-0.77-6.5-1.35-9.71
					c-1.49-8.27-2.07-16.67-2.4-25.01c-0.53-13.11-1.18-26.21-2.19-39.28c-0.31-4.09-2.18-5.93-6.27-6.03
					C508.94,241.56,504.57,241.64,500.96,241.64z"/>
				<path d="M323.88,204.86c0.36,9.37-7.93,14.08-15.26,14.14c-8.89,0.08-13.78-5.52-13.49-14.47c0.27-8.21,6.97-15.71,13.96-15.64
					C317.01,188.97,324.1,196.64,323.88,204.86z M310.31,216.22c6.33,0.07,11.42-5.12,11.44-11.67c0.01-5.39-6.41-12.97-11-12.97
					c-7.81-0.01-13.07,4.73-13.2,11.88C297.4,211.02,302.52,216.13,310.31,216.22z"/>
				<path d="M391.62,203.68c0.11-8.49,5.71-15.91,12-15.9c9.72,0.02,16.58,5.94,16.12,14.38c-0.63,11.44-4.11,14.83-13.75,14.63
					C397.9,216.63,391.3,211.94,391.62,203.68z M394.47,202.11c-0.4,6.87,4.15,12.2,10.76,12.59c6.69,0.39,12.19-4.81,12.55-11.87
					c0.3-5.99-4.81-11.85-10.67-12.24C399.37,190.08,394.94,194.12,394.47,202.11z"/>
				<path d="M500.87,187.06c7.82,0.25,12.81,6.27,13.41,14.51c0.61,8.42-5.05,14.31-12.89,14.3c-7.62-0.01-15.96-7.01-15.9-13.35
					C485.57,194.52,492.93,187.12,500.87,187.06z M512.19,202.02c0.23-6.94-4.6-12.48-11.47-12.37
					c-7.58,0.12-10.81,3.45-11.25,13.37c-0.25,5.49,5.06,10.38,11.54,10.69C507.41,214.01,511.95,209.26,512.19,202.02z"/>
			</g>
		</g>
	</g>
</g>
</svg>
