<?xml version="1.0" encoding="utf-8"?>
<!-- Generator: Adobe Illustrator 23.0.2, SVG Export Plug-In . SVG Version: 6.00 Build 0)  -->
<svg version="1.1" id="line" xmlns="http://www.w3.org/2000/svg" xmlns:xlink="http://www.w3.org/1999/xlink" x="0px" y="0px"
	 viewBox="0 0 288 226.77" style="enable-background:new 0 0 288 226.77;" xml:space="preserve">
<style type="text/css">
	.st0{fill:#FF3A5B;}
	.st1{fill:#50E3C2;}
	.st2{fill:#FF8438;}
	.st3{fill:#FFDD4C;}
	.st4{fill:#FFFFFF;}
	.st5{fill:#925F36;}
	.st6{fill:#422918;}
	.st7{fill:#007EFF;}
	.st8{fill:#9C9B9B;}
	.st9{fill:#C6C6C5;}
	.st10{fill:#D9D9D9;}
	.st11{fill:#6F6F6E;}
	.st12{fill:#ECECEC;}
	.st13{fill:#97E6FC;}
	.st14{fill:#B1B1B1;}
	.st15{fill:#1D1D1B;}
	.st16{fill:#FFFFFF;stroke:#1D1D1B;stroke-width:0.5;stroke-miterlimit:10;}
	.st17{fill:none;stroke:#FFFFFF;stroke-linecap:round;stroke-linejoin:round;stroke-miterlimit:10;}
	.st18{fill:#A0ECD2;}
	.st19{fill:#C4F5FB;}
	.st20{fill:none;stroke:#FFFFFF;stroke-width:0.876;stroke-linecap:round;stroke-linejoin:round;stroke-miterlimit:10;}
	.st21{fill:none;}
	.st22{fill:#575756;}
	.st23{fill:#FFFFFF;stroke:#1D1D1B;stroke-width:0.9148;stroke-miterlimit:10;}
	.st24{fill:#9B5416;}
	.st25{fill:#868686;}
</style>
<g>
	<g>
		<path class="st0" d="M57.08,105.62c-3.07-1.05-4.07-5.41-2.83-8.54s3.98-5.27,6.6-7.26c17.93-13.62,34.8-28.27,52.73-41.89
			c23.12,13.88,48.9,28.33,73.01,40.21c-5.87,4.16-12.29,8.6-16.97,14.18c-3.91-1.47-2.98-4.77-6.97-6.26
			c-3.12-1.16-6.54,0.85-9.65,2.05c-10.22,3.92-20.62,7.94-29.28,14.86c-7.46,1.33-17.25,2.72-24.79,7.18
			c-1.31,0.78-2.68,1.64-4.18,1.59c-1.28-0.04-2.37-0.88-3.55-1.38c-11.44-4.84-24.03-9.61-36.07-16.78"/>
		<path class="st3" d="M106.72,93.89c-0.77,4.34-1.35,8.72-1.73,13.13c0.84,0.33,1.77-0.01,2.6-0.36c3.41-1.41,6.83-2.82,10.24-4.23
			c0.2-0.08,0.41-0.17,0.57-0.33c0.35-0.35,0.33-0.97,0.09-1.42s-0.65-0.75-1.05-1.05c-2.34-1.72-4.68-3.45-7.06-5.11
			c-0.71-0.5-1.45-1-2.29-1.15s-1.81,0.13-2.24,0.9"/>
		<path class="st13" d="M134.68,72.67c-1.43,0.23-2.22,1.83-2.78,3.23c-1.19,2.99-2.39,5.97-3.58,8.96
			c-0.3,0.75-0.61,1.58-0.38,2.36c0.14,0.47,0.46,0.86,0.8,1.21c2.78,2.82,7.43,3.35,10.72,1.22c2.14-1.39,3.71-4.1,3.09-6.66
			c-0.21-0.88-0.66-1.67-1.12-2.43c-1.73-2.88-3.73-5.58-5.97-8.04"/>
		<path class="st7" d="M155.56,97.92c0.52-3.63,1.04-7.27,1.57-10.9c0.1-0.7,0.24-1.47,0.77-1.92c0.61-0.51,1.49-0.38,2.25-0.23
			c2.18,0.44,4.37,0.88,6.55,1.32c0.95,0.19,2.03,0.48,2.46,1.39c0.28,0.58,0.21,1.28,0.11,1.92c-0.49,3.33-1.48,6.58-2.93,9.6
			c-0.77-1.06-1.61-2.05-2.52-2.97c-0.26-0.26-0.53-0.53-0.87-0.67c-0.82-0.35-1.73,0.11-2.54,0.5c-1.67,0.82-3.44,1.42-5.25,1.77"
			/>
		<path class="st1" d="M125.96,111.63c-0.25-3.17,0.22-6.41,1.38-9.36c0.27-0.69,0.59-1.38,1.13-1.86c1.3-1.15,3.26-0.63,4.88-0.05
			c1.9,0.68,3.8,1.36,5.7,2.04c0.76,0.27,1.68,0.78,1.6,1.62c-4.95,1.74-10.03,3.55-14.05,7.05"/>
		<path class="st4" d="M108.37,69.42c-0.89,0-1.77,0.43-2.54,1.25c-0.16,0.17-0.31,0.34-0.46,0.51c-0.25,0.28-0.49,0.56-0.76,0.81
			c-0.35,0.33-0.5,0.64-0.46,0.95c0.03,0.3,0.24,0.56,0.63,0.78c0.6,0.34,1.21,0.68,1.82,1.01c2.25,1.25,4.57,2.53,6.74,4.04
			l0.95,0.66l-0.52-1.07c-0.5-1.02-1.31-1.64-2.09-2.24l-0.3-0.23c-0.55-0.43-0.78-0.7-0.81-0.94c-0.02-0.22,0.13-0.52,0.49-0.97
			c0.87-1.09,0.48-2.05,0.12-2.68C110.49,70.08,109.49,69.42,108.37,69.42z"/>
		<path class="st4" d="M116.6,71.96l0.42,0.35c0.63,0.52,1.29,0.79,1.95,0.79l0,0c1.47,0,2.78-1.31,3.58-3.6l0.3-0.87l-0.75,0.49
			c-1.88,1.24-3.42,2.05-5.01,2.64l-0.23,0.09l-0.29-0.6c-0.41-0.84-0.22-1.38,0.65-1.95c0.25-0.16,0.45-0.4,0.63-0.62l0.15-0.18
			c0.23-0.26,0.63-0.69,0.17-1.21c-0.18-0.2-0.41-0.31-0.65-0.31c-0.19,0-0.38,0.06-0.55,0.18c-0.29,0.2-0.57,0.43-0.86,0.65
			c-0.23,0.18-0.45,0.36-0.68,0.53c-0.37,0.27-0.74,0.41-1.1,0.41c-0.41,0-0.81-0.19-1.18-0.55c-0.71-0.7-0.88-1.94-0.36-2.72
			c0.02-0.02,0.07-0.07,0.11-0.11c0.14-0.12,0.33-0.29,0.32-0.56c0-0.17-0.09-0.33-0.27-0.47c-0.12-0.09-0.24-0.14-0.37-0.14
			c-0.28,0-0.47,0.23-0.6,0.4c-0.04,0.05-0.08,0.1-0.12,0.14c-0.1,0.09-0.19,0.2-0.27,0.31l-0.09,0.11
			c-0.74,0.89-1.07,1.29-1.02,1.77c0.04,0.47,0.44,0.79,1.23,1.43l0.09,0.08c0.38,0.31,0.74,0.65,1.1,0.99
			c0.93,0.88,1.89,1.79,3.28,2.26l0.56,0.19L116.6,71.96z"/>
		<path class="st4" d="M121.48,62.87c0.4,0,0.8,0.04,1.2,0.08c0.28,0.03,0.56,0.05,0.85,0.07c1.27,0.06,2.29,0.9,2.32,1.91
			c0.03,0.98-0.31,1.62-2.18,2.01l-0.81,0.17l0.72,0.42c0.64,0.37,1.22,0.56,1.72,0.56l0,0c0.69,0,1.58-0.35,1.95-2.02
			c0.22-1.01,0.02-2.05-0.56-2.85c-0.59-0.82-1.52-1.33-2.55-1.38c-0.48-0.03-0.96-0.03-1.43-0.03c-1.1,0-2.14-0.01-3.17-0.29
			c-0.52-0.14-0.88-0.4-1.05-0.75c-0.16-0.34-0.15-0.75,0.02-1.23c0.02-0.06,0.08-0.14,0.14-0.21c0.18-0.23,0.54-0.72-0.03-1.27
			c-0.2-0.19-0.43-0.29-0.67-0.29c-0.29,0-0.54,0.14-0.75,0.27c-0.06,0.04-0.12,0.07-0.18,0.1c-1.01,0.5-1.4,1.47-1.11,2.71
			c0.26,1.09,2.14,2.48,3.36,2.48c0.19,0,0.37-0.04,0.52-0.1C120.3,62.98,120.83,62.87,121.48,62.87z"/>
		<path class="st4" d="M85.49,95.9c0.32,0,0.64,0.02,0.96,0.05c1.28,0.13,1.87,1.1,2.14,1.88c0.31,0.9,0.03,1.7-0.86,2.44
			c-0.47,0.4-1.04,0.6-1.87,0.81l-0.95,0.24l0.91,0.36c0.6,0.23,1.18,0.35,1.73,0.35c1.04,0,1.98-0.43,2.8-1.27
			c1.31-1.35,1.01-3.1,0.66-4.3c-0.52-1.81-1.93-2.26-3.1-2.45c-0.46-0.07-0.93-0.09-1.38-0.11l-0.42-0.02
			c-0.2-0.01-0.39-0.01-0.59-0.01c-1.12,0-2.25,0.14-3.33,0.28l-0.18,0.02c-0.08,0.01-0.16,0.02-0.23,0.02
			c-0.54,0-0.84-0.26-0.95-0.82c-0.12-0.61,0.11-1.02,0.75-1.33c0.28-0.13,0.56-0.2,0.84-0.2c0.22,0,0.44,0.04,0.67,0.12
			c0.17,0.07,0.31,0.11,0.45,0.11c0.13,0,0.44-0.05,0.55-0.49c0.14-0.53-0.07-0.94-0.56-1.1c-0.83-0.28-1.51-0.4-2.15-0.4
			c-0.49,0-0.97,0.08-1.4,0.24c-1.36,0.49-2.44,2.43-2.18,3.9c0.22,1.25,1.51,2.17,3.13,2.24c0.09,0,0.18,0.01,0.26,0.01
			c0.85,0,1.68-0.17,2.45-0.36C84.23,95.97,84.85,95.9,85.49,95.9z"/>
		<path class="st4" d="M88.91,86.36c-0.29,0-0.5,0.2-0.67,0.37c-0.05,0.05-0.11,0.11-0.17,0.15c-0.11,0.09-0.44,0.35-0.44,0.73
			c0,0.26,0.14,0.49,0.42,0.71c0.93,0.74,4.9,3.9,5.96,4.74c0.21,0.17,0.49,0.36,0.81,0.36c0.27,0,0.51-0.13,0.72-0.39
			c0.44-0.56,0.06-1.02-0.12-1.24c-0.05-0.06-0.09-0.11-0.13-0.17c-0.13-0.2-0.27-0.39-0.42-0.58c-0.34-0.44-0.67-0.86-0.68-1.43
			c-0.02-0.3,0.02-0.51,0.15-0.67c0.41-0.54,0.89-0.82,1.39-0.82c0.47,0,0.93,0.25,1.33,0.73c0.42,0.5,0.9,0.96,1.54,0.96
			c0.12,0,0.25-0.02,0.37-0.05c0.53-0.15,0.99-0.71,1.07-1.34c0.14-0.99-0.62-1.35-1.12-1.58l-0.22-0.11
			c-1.71-0.89-3.28-2.04-4.81-3.51c-0.49-0.48-1.13-0.81-1.94-1.01c-0.09-0.02-0.17-0.03-0.25-0.03c-0.25,0-0.59,0.11-0.8,0.61
			c-0.24,0.59,0.22,0.91,0.39,1.03L91.58,84c0.36,0.25,0.72,0.5,1.06,0.78c0.51,0.42,0.74,0.72,0.76,0.97
			c0.01,0.25-0.17,0.57-0.61,1.04c-0.79,0.85-1.27,1.37-1.6,1.37c-0.33,0-0.83-0.56-1.58-1.42C89.37,86.49,89.14,86.36,88.91,86.36z
			"/>
		<path class="st4" d="M99.24,76.44c-0.43,0-0.64,0.38-0.77,0.64c-0.09,0.17-0.19,0.26-0.28,0.35c-0.25,0.24-0.73,0.68-0.27,1.39
			c1.47,2.27,2.96,4.53,4.44,6.79c0.16,0.24,0.36,0.55,0.76,0.55l0.13-0.01c0.37-0.04,0.74-0.35,0.94-0.79
			c0.2-0.45,0.2-0.92-0.01-1.27c-0.12-0.19-0.24-0.39-0.35-0.59c-0.28-0.48-0.57-0.97-0.92-1.42c-0.19-0.25-0.28-0.45-0.24-0.58
			c0.04-0.15,0.27-0.29,0.68-0.43c0.24-0.08,0.5-0.12,0.77-0.12c0.23,0,0.47,0.03,0.69,0.09c0.57,0.16,1.14,0.29,1.71,0.43
			c0.46,0.11,0.92,0.22,1.37,0.34c0.13,0.03,0.24,0.05,0.35,0.05c0.28,0,0.67-0.11,0.92-0.66c0.1-0.23,0.12-0.43,0.05-0.61
			c-0.11-0.27-0.37-0.36-0.58-0.44c-0.71-0.26-1.38-0.51-2.06-0.75c-2.3-0.83-4.69-1.68-6.9-2.85
			C99.52,76.48,99.38,76.44,99.24,76.44z"/>
		<path class="st13" d="M66.93,102.71c-0.71,0-0.88,0.79-0.94,1.08c-0.3,1.4-0.29,2.61,0.05,3.71c0.26,0.83,0.52,1.71,1.33,2.15
			c1.53,0.83,3.04,1.66,4.82,2.14l0.38,0.1l0-0.41c-0.02-1.64,0.26-3.12,0.85-4.5c0.14-0.34,0.22-0.63,0.12-0.9
			c-0.11-0.29-0.38-0.45-0.67-0.57c-2.04-0.93-3.67-1.73-5.12-2.54C67.42,102.79,67.16,102.71,66.93,102.71z"/>
		<path class="st7" d="M79.87,143.16c-0.02,0,0.01,0.08,0.02,0.11c-0.1,0.89,0.37,1.53,0.78,2.08c0.11,0.15,0.22,0.3,0.32,0.45
			c5.99,9.37,12.27,18.75,18.34,27.82c1.97,2.95,3.94,5.89,5.91,8.84c0.47,0.7,1.07,1.06,1.78,1.06c0.35,0,0.72-0.09,1.1-0.26
			c1.88-0.85,3.66-1.87,5.01-2.66c5.3-3.13,10.97-5.72,16.44-8.23c1.09-0.5,2.18-1,3.26-1.5c1.43-0.66,2.88-1.24,3.99-1.68
			c1.37-0.54,2.74-1.15,4.07-1.75c2.68-1.2,5.45-2.44,8.37-3.1c2.93-0.66,5.61-1.57,8.18-2.79l-0.15-0.6
			c-0.09,0.01-0.18,0.02-0.26,0.02c-0.21,0.01-0.43,0.03-0.64,0.09c-2.06,0.58-4.16,1.09-6.2,1.59c-3.8,0.93-7.72,1.9-11.49,3.29
			c-7.94,2.93-15.67,5.92-22.9,10.24c-1.45,0.87-3.1,1.73-5.2,2.71c-0.79,0.37-1.34,0.52-1.86,0.52c-0.72,0-1.35-0.31-2-0.99
			c-0.89-0.94-1.68-1.99-2.44-3.01c-0.59-0.79-1.21-1.61-1.87-2.38c-3.32-3.82-6.08-8.18-8.76-12.4c-1.1-1.73-2.24-3.53-3.4-5.26
			c-1.6-2.39-3.16-4.86-4.67-7.26c-2.32-3.69-4.73-7.5-7.33-11.09c-0.04-0.06-0.08-0.13-0.12-0.2c-0.15-0.27-0.35-0.64-0.75-0.64
			c-0.09,0-0.18,0.02-0.28,0.06c-0.38,0.17-1.18,0.51-1.22,1.31c-0.04,0.77,0.32,1.47,1,1.95l0.14,0.1c0.28,0.2,0.53,0.37,0.74,0.65
			c0.21,0.28,0.34,0.63,0.49,0.99C78.53,142.01,78.85,142.86,79.87,143.16C79.87,143.16,79.87,143.16,79.87,143.16z"/>
		<path class="st7" d="M199.69,145.09c-0.09,0-0.19,0.01-0.29,0.03c-1.04,0.18-2.08,0.33-3.13,0.47c-2.12,0.29-4.3,0.6-6.41,1.19
			c-5.69,1.61-11.23,3.86-16.48,6.68l-0.19,0.1c-0.54,0.28-1.15,0.6-1.76,1.4l-0.72,0.93l1.07-0.44c9.5-3.94,19.33-6.7,30.07-8.44
			l0.76-0.12l-0.64-0.45c-0.25-0.18-0.47-0.36-0.67-0.54C200.8,145.48,200.34,145.09,199.69,145.09z"/>
		<path class="st7" d="M52.9,104.9c0.07-0.01,0.14-0.01,0.22-0.01c0.27,0,0.63,0,0.93-0.39l0.12-0.15l-0.07-0.18
			c-0.04-0.09-0.08-0.18-0.13-0.27c-0.08-0.17-0.16-0.32-0.18-0.46"/>
		<path class="st7" d="M80.1,74.27c0,0-32.36-0.37-35.34,1.83c0,0-25.37,57.39-25.89,61.97c0,0,12.42-1.83,23.97-0.73
			s32.36,2.75,32.36,2.75l-1.05-2.38l18.72-14.67l-37.26-17.6c0,0-4.02-6.23-0.17-9.53S80.1,74.27,80.1,74.27z"/>
	</g>
	<g>
		<path d="M106.37,184.83c-0.92,0-1.66-0.52-2.41-1.68c-0.9-1.38-1.89-2.72-2.85-4.02l-0.89-1.21c-3.62-4.94-6.9-10.25-10.08-15.38
			c-1.81-2.92-3.68-5.93-5.58-8.85c-2.03-3.1-4.04-4.27-7.41-4.3c-12.61-0.14-25.43-0.46-37.82-0.77
			c-5.56-0.14-11.13-0.28-16.69-0.4c-0.88-0.02-1.56-0.3-2.21-0.9c-1.85-1.7-2.7-3.49-2.76-5.8c-0.09-3.27,0.49-6.42,1.86-10.2
			c0.8-2.2,1.77-4.37,2.7-6.47c1.32-2.96,2.69-6.02,3.61-9.23c0.8-2.78,2.08-5.42,3.31-7.98c0.7-1.45,1.43-2.95,2.06-4.47
			c1.88-4.5,4.39-10.4,7.07-16.21c1.08-2.33,2.32-4.64,3.53-6.86c0.55-1.01,1.1-2.03,1.63-3.05c0.74-1.42,1.83-2.14,3.64-2.41
			c4.9-0.75,9.81-0.85,13.55-0.85c1.9,0,3.81,0.03,5.71,0.06c1.91,0.03,3.81,0.06,5.72,0.06l1,0c1.07-0.01,2.15-0.13,3.19-0.25
			c1.05-0.12,2.14-0.25,3.21-0.25c0.14,0,0.43,0.01,0.43,0.01c0.59,0,1-0.32,1.36-0.6l0.17-0.14c10.69-8.05,21.48-16.73,30.99-24.39
			c0.61-0.49,0.92-0.71,1.14-0.71c0.23,0,0.54,0.27,1.08,0.77l0.11,0.1c0.92,0.83,2.01,1.38,3.07,1.92c0.51,0.26,1.01,0.51,1.5,0.8
			c2.22,1.3,4.51,2.52,6.74,3.71c3.04,1.62,6.18,3.29,9.15,5.18c1.42,0.9,2.93,1.69,4.39,2.46c0.72,0.38,1.43,0.75,2.14,1.14
			c2.54,1.4,5.1,2.77,7.66,4.14c4.34,2.33,8.83,4.74,13.17,7.23c6.48,3.71,12.31,6.89,17.8,9.72c1.32,0.68,2.7,1.31,4.03,1.92
			c0.71,0.32,1.42,0.65,2.12,0.98c0.53,0.25,0.81,0.45,0.83,0.58c0.01,0.09-0.06,0.29-0.52,0.77c-0.18,0.19-0.72,0.75-0.25,1.33
			c0.06,0.08,0.12,0.19,0.18,0.3c0.17,0.33,0.41,0.78,0.98,0.78c0.05,0,0.2-0.01,0.21-0.01c0.11,0,0.14,0.03,0.22,0.21
			c0.05,0.11,0.11,0.24,0.2,0.36c0.72,0.88,1.17,1.53,0.86,2.54l-0.13,0.41h0.41c0.41,0,0.61,0.26,0.91,0.68
			c0.23,0.32,0.48,0.69,0.91,0.86c0.27,0.11,0.44,0.26,0.52,0.45c0.09,0.22,0.07,0.52-0.07,0.88c-0.31,0.8-0.69,1.41-1.24,1.96
			c-2.17,2.19-4.55,4.2-6.86,6.15c-1.42,1.2-2.89,2.44-4.3,3.71l-0.09,0.09c-1.08,0.97-1.62,1.46-1.65,2.09
			c-0.03,0.63,0.46,1.19,1.43,2.3c0,0,17,19.32,20.6,23.4c0.31,0.35,0.59,0.75,0.87,1.13l0.29,0.41c0.1,0.13,0.21,0.25,0.33,0.38
			c0.36,0.37,0.49,0.55,0.37,0.87c-0.11,0.29-0.32,0.33-0.83,0.35c-0.21,0.01-0.44,0.02-0.65,0.07l-0.37,0.08l0.16,0.36
			c0.4,0.88,1.06,1.26,1.65,1.59l0.14,0.08c0.39,0.22,0.61,0.46,0.65,0.7c0.04,0.22-0.05,0.47-0.27,0.76
			c-0.53,0.68-0.36,1.08,0.15,1.57c0.11,0.11,0.25,0.22,0.38,0.33c0.54,0.43,0.86,0.72,0.69,1.22c-0.23,0.68-0.89,0.96-1.82,1.18
			c-5.22,1.24-10.46,2.74-15.53,4.2l-3.41,0.98c-6.15,1.75-11.42,3.64-16.13,5.78c-0.6,0.27-1.25,0.48-1.87,0.68
			c-0.5,0.16-0.99,0.32-1.47,0.51c-2.87,1.14-5.27,2.09-7.8,2.96c-1.18,0.41-2.36,0.84-3.54,1.26c-2.18,0.79-4.44,1.61-6.69,2.3
			c-4.38,1.34-8.65,3.16-12.79,4.93l-0.93,0.4c-2.55,1.09-5.09,2.35-7.55,3.57c-1.64,0.81-3.27,1.63-4.93,2.4
			c-1.74,0.81-3.41,1.83-5.02,2.81c-1.87,1.14-3.81,2.32-5.86,3.18C107.31,184.71,106.81,184.83,106.37,184.83z M79.58,143
			c-0.02,0,0.01,0.08,0.02,0.11c-0.1,0.89,0.37,1.53,0.78,2.08c0.11,0.15,0.22,0.3,0.32,0.45c5.99,9.37,12.27,18.75,18.34,27.82
			c1.97,2.95,3.94,5.89,5.91,8.84c0.47,0.7,1.07,1.06,1.78,1.06c0.35,0,0.72-0.09,1.1-0.26c1.88-0.85,3.66-1.87,5.01-2.66
			c5.3-3.13,10.97-5.72,16.44-8.23c1.09-0.5,2.18-1,3.26-1.5c1.43-0.66,2.88-1.24,3.99-1.68c1.37-0.54,2.74-1.15,4.07-1.75
			c2.68-1.2,5.45-2.44,8.37-3.1c2.93-0.66,5.61-1.57,8.18-2.79l-0.15-0.6c-0.09,0.01-0.18,0.02-0.26,0.02
			c-0.21,0.01-0.43,0.03-0.64,0.09c-2.06,0.58-4.16,1.09-6.2,1.59c-3.8,0.93-7.72,1.9-11.49,3.29c-7.94,2.93-15.67,5.92-22.9,10.24
			c-1.45,0.87-3.1,1.73-5.2,2.71c-0.79,0.37-1.34,0.52-1.86,0.52c-0.72,0-1.35-0.31-2-0.99c-0.89-0.94-1.68-1.99-2.44-3
			c-0.59-0.79-1.21-1.61-1.87-2.38c-3.32-3.82-6.08-8.18-8.76-12.4c-1.1-1.73-2.24-3.53-3.4-5.26c-1.6-2.39-3.16-4.86-4.67-7.26
			c-2.32-3.69-4.73-7.5-7.33-11.09c-0.04-0.06-0.08-0.13-0.12-0.2c-0.15-0.27-0.35-0.64-0.75-0.64c-0.09,0-0.18,0.02-0.28,0.06
			c-0.38,0.17-1.18,0.51-1.22,1.31c-0.04,0.77,0.32,1.47,1,1.95l0.14,0.1c0.28,0.2,0.53,0.37,0.74,0.65
			c0.21,0.28,0.34,0.63,0.49,0.99C78.23,141.86,78.56,142.7,79.58,143C79.58,143,79.58,143,79.58,143z M79.32,134.18
			c-0.19,0-0.4,0.08-0.63,0.25c-0.29,0.21-0.44,0.44-0.47,0.7c-0.05,0.39,0.2,0.69,0.4,0.93c0.07,0.08,0.13,0.15,0.17,0.23l0.77,1.3
			c1.02,1.73,2.08,3.52,3.25,5.19c6.09,8.74,12.21,17.47,18.33,26.19l5.57,7.94c0.21,0.29,0.43,0.58,0.66,0.85
			c0.13,0.15,0.31,0.24,0.49,0.24c0.14,0,0.27-0.05,0.38-0.14c0.13-0.11,0.17-0.26,0.2-0.38l0.06-0.15l-0.06-0.23l-0.17-0.26
			c-0.11-0.18-0.23-0.36-0.34-0.53l-0.8-1.17c-0.47-0.69-0.95-1.38-1.41-2.08c-0.98-1.49-1.96-2.99-2.93-4.49
			c-2.32-3.57-4.72-7.26-7.2-10.81c-1.09-1.55-2.24-3.08-3.35-4.57c-1.66-2.21-3.38-4.5-4.9-6.88c-0.81-1.27-1.61-2.56-2.4-3.84
			c-1.48-2.4-3.01-4.88-4.66-7.23c-0.05-0.07-0.09-0.17-0.14-0.27C80,134.63,79.79,134.18,79.32,134.18z M81.51,132.25
			c-0.24,0-0.48,0.11-0.77,0.35c-0.63,0.52-0.88,1-0.3,1.91c1.01,1.56,2,3.14,2.98,4.73c0.86,1.39,1.73,2.78,2.61,4.15l0.74,1.16
			c1.15,1.8,2.34,3.67,3.67,5.37c4.83,6.15,9.18,12.83,13.39,19.28c1.71,2.62,3.41,5.24,5.16,7.83c0.3,0.44,0.58,0.8,1.03,0.8
			c0.2,0,0.42-0.07,0.69-0.23c0.28-0.17,0.58-0.3,0.87-0.43c0.16-0.07,0.33-0.14,0.49-0.22c0.21-0.1,0.54-0.26,0.6-0.75l0.01-0.13
			l-0.22-0.3c-0.12-0.16-0.25-0.34-0.38-0.51c-0.19-0.24-0.39-0.47-0.59-0.71c-0.36-0.43-0.72-0.85-1.05-1.3l-2.55-3.55
			c-3.57-4.96-7.27-10.1-10.86-15.18c-0.8-1.13-1.61-2.26-2.42-3.38c-2.06-2.86-4.19-5.81-6.1-8.85c-0.47-0.76-0.94-1.52-1.41-2.28
			c-1.46-2.37-2.96-4.83-4.66-7.09C82.19,132.57,81.91,132.25,81.51,132.25z M83.27,130.88c-0.48,0.17-0.72,0.39-0.8,0.67
			c-0.1,0.37,0.12,0.72,0.3,0.95c0.86,1.12,1.7,2.34,2.57,3.75l1.12,1.83c1.43,2.34,2.91,4.76,4.5,7.04
			c2.72,3.91,5.56,7.83,8.3,11.62c1.17,1.62,2.35,3.25,3.51,4.87c0.8,1.12,1.6,2.24,2.39,3.36c2.4,3.38,4.87,6.87,7.5,10.16
			c0.05,0.06,0.1,0.13,0.15,0.2c0.22,0.31,0.5,0.69,0.93,0.69l0,0c0.24,0,0.48-0.11,0.73-0.35c0.24-0.22,0.36-0.46,0.36-0.7
			c0-0.37-0.27-0.62-0.48-0.82c-0.07-0.07-0.15-0.14-0.19-0.19c-2.51-3.58-5.04-7.15-7.57-10.72c0,0-17.26-24.33-22.48-31.7
			c-0.03-0.05-0.06-0.1-0.09-0.16c-0.09-0.2-0.25-0.53-0.64-0.53h-0.02L83.27,130.88z M122.1,115.15c-0.42,0.03-0.84,0.03-1.26,0.03
			c-0.59,0-1.2,0.01-1.8,0.09c-9.69,1.37-17.95,4.19-25.27,8.63c-2.07,1.25-4.12,2.61-6.11,3.92l-1.9,1.25
			c-0.74,0.48-1.09,0.9-1.18,1.38c-0.09,0.5,0.1,1.02,0.67,1.82c9.45,13.32,18.9,26.64,28.35,39.95c0.16,0.22,0.31,0.48,0.46,0.73
			c0.42,0.7,0.85,1.41,1.5,1.68c0.15,0.06,0.32,0.1,0.48,0.1c0.59,0,1.1-0.42,1.59-0.82c0.26-0.22,0.54-0.44,0.8-0.58
			c6.03-3.11,13.2-6.63,20.61-9.24c5.09-1.79,10.35-3.63,15.87-4.46c0.89-0.13,1.77-0.27,2.66-0.41l1.52-0.24l-0.07-0.33
			c-0.12-0.57-0.43-0.9-0.7-1.2c-0.07-0.07-0.13-0.14-0.19-0.21c-3.74-4.48-7.48-8.96-11.22-13.43l-3.32-3.97
			c-6.57-7.85-13.14-15.7-19.71-23.55l-0.18-0.23c-0.32-0.41-0.72-0.92-1.46-0.92h-0.01L122.1,115.15z M196.9,140.92
			c-0.49,0-1.01,0.11-1.55,0.31c-0.33,0.13-0.69,0.19-1.06,0.25c-0.17,0.03-0.34,0.05-0.5,0.09c-10.54,2.11-19.35,5.8-26.9,11.29
			c-1.59,1.16-3.59,2.87-4.96,5.91l-0.4,0.89l2.36-1.38c1.01-0.59,1.93-1.12,2.83-1.67c7.59-4.68,14.66-7.93,21.6-9.93
			c3.55-1.03,7.21-1.91,10.86-2.63c0.08-0.02,0.16-0.02,0.25-0.03c0.34-0.03,0.85-0.07,0.98-0.59c0.15-0.58-0.28-0.88-0.57-1.08
			c-0.09-0.06-0.18-0.12-0.25-0.19C198.78,141.33,197.88,140.92,196.9,140.92z M161.66,96.59c-0.15,0-0.32,0.03-0.49,0.09
			c-0.65,0.24-1.31,0.46-1.97,0.67c-0.9,0.3-1.83,0.61-2.73,0.96c-1.04,0.41-2.06,0.85-3.09,1.3c-0.89,0.39-1.79,0.77-2.69,1.14
			c-1.19,0.48-2.39,0.92-3.6,1.37c-0.71,0.26-1.42,0.53-2.13,0.8l-0.97,0.37c-1.51,0.58-3.07,1.18-4.64,1.69
			c-4.41,1.44-8.32,3.79-11.57,5.9c-1.05,0.68-1.84,1.58-2.71,2.73c-0.63,0.83-0.33,1.39,0.09,1.88c0.95,1.1,1.89,2.21,2.83,3.33
			l6.64,7.89c8.31,9.87,16.61,19.73,24.91,29.61c0.35,0.42,0.66,0.78,1.1,0.78c0.31,0,0.63-0.18,1.04-0.58
			c2.61-2.59,4.8-4.57,6.89-6.23c3.06-2.44,6.69-3.92,10.19-5.35c0.68-0.28,1.37-0.56,2.05-0.84c1.85-0.78,3.83-1.24,5.75-1.68
			l0.44-0.1c0.53-0.12,1.05-0.26,1.58-0.39c1.5-0.38,3.06-0.77,4.6-0.92c0.9-0.09,1.74-0.41,2.56-0.71c0.95-0.36,1.84-0.69,2.8-0.69
			c0.22,0,0.44,0.02,0.67,0.06c0,0,0.01,0,0.01,0c0.2,0,0.3-0.1,0.38-0.19c0.03-0.03,0.05-0.06,0.09-0.09l0.23-0.2l-0.38-0.48
			c-0.15-0.19-0.3-0.38-0.46-0.56c-2.93-3.33-5.86-6.65-8.79-9.97c-0.94-1.06-1.88-2.11-2.82-3.16l-5.33-5.99
			c-0.41-0.46-0.83-0.92-1.25-1.38c-0.94-1.03-1.91-2.09-2.79-3.2c-0.65-0.82-1.37-1.56-2.07-2.28c-0.62-0.63-1.25-1.29-1.83-1.98
			c-2.57-3.11-5.32-6.15-7.97-9.1c-1.09-1.2-2.17-2.41-3.25-3.62l-0.11-0.12C162.56,96.99,162.22,96.59,161.66,96.59z
			 M199.34,145.34c-0.09,0-0.19,0.01-0.29,0.03c-1.04,0.18-2.08,0.33-3.13,0.47c-2.12,0.29-4.3,0.6-6.41,1.19
			c-5.69,1.61-11.23,3.86-16.48,6.68l-0.19,0.1c-0.54,0.28-1.15,0.6-1.76,1.4l-0.72,0.93l1.07-0.44c9.5-3.94,19.33-6.7,30.07-8.44
			l0.76-0.12l-0.64-0.45c-0.25-0.18-0.47-0.36-0.67-0.54C200.45,145.74,199.99,145.34,199.34,145.34z M40.3,146
			c5.41,0,10.91,0.28,16.23,0.55l2.8,0.14c2.24,0.11,4.52,0.16,6.73,0.2c3.08,0.06,6.27,0.13,9.39,0.37
			c0.47,0.04,0.94,0.1,1.42,0.17c0.71,0.1,1.44,0.2,2.19,0.2c0.16,0,0.32,0,0.48-0.02l0.42-0.03l-0.16-0.41
			c-0.46-1.14-0.58-1.23-1.85-1.31c-10.06-0.63-21.75-1.3-33.21-1.3c-1.47,0-2.93,0.01-4.4,0.03c-1.71,0.03-3.45,0.11-5.13,0.19
			c-2.02,0.1-4.11,0.2-6.16,0.2c-1.96,0-3.69-0.09-5.3-0.29c-0.08-0.01-0.16-0.01-0.24-0.01c-0.26,0-0.51,0.04-0.77,0.09
			c-0.15,0.03-0.29,0.05-0.44,0.07c-0.7,0.08-0.83,0.46-0.81,0.76c0.04,0.6,0.59,0.6,0.77,0.6l0.12,0c0.44,0.01,0.87,0.03,1.31,0.05
			c0.91,0.04,1.83,0.07,2.74,0.07c0.22,0,0.44,0,0.66-0.01c1.67-0.03,3.35-0.09,5.02-0.15c2.31-0.08,4.7-0.16,7.04-0.18L40.3,146z
			 M45.23,144.03c11.01,0,22.07,0.64,31.58,1.23c0.07,0,0.14,0.01,0.21,0.02c0.12,0.02,0.25,0.03,0.37,0.03
			c0.3,0,0.55-0.09,0.78-0.27l0.17-0.14l-0.07-0.21c-0.38-1.16-1.09-1.7-2.3-1.75l-2.9-0.12c-8.59-0.37-17.47-0.76-26.22-0.76
			c-2.45,0-4.84,0.03-7.1,0.09l-1.5,0.04c-2.63,0.07-5.36,0.15-8.03,0.15c-2.23,0-4.21-0.05-6.07-0.16
			c-0.11-0.01-0.22-0.01-0.32-0.01l-0.67,0.01c-0.82,0-0.9,0.65-0.95,1.05c-0.04,0.32,0.01,0.53,0.13,0.68
			c0.18,0.23,0.47,0.24,0.69,0.25c0.62,0.03,1.14,0.07,1.67,0.1c1.33,0.09,2.69,0.18,4.05,0.18c0.58,0,1.17-0.02,1.75-0.06
			c2.36-0.16,4.76-0.21,7.09-0.26l1.53-0.03C41.16,144.05,43.19,144.03,45.23,144.03z M19.99,139.01c-0.11,0-0.21,0.03-0.31,0.08
			c-0.58,0.3-0.57,0.86-0.57,1.26c0,0.13,0,0.26-0.02,0.38c-0.02,0.09-0.01,0.18-0.01,0.25c0.01,0.87,0.08,1.81,0.47,2.65
			c0.04,0.09,0.08,0.18,0.11,0.29c0.16,0.43,0.38,1.02,0.93,1.02h0.03l0.14-0.02c0.59-0.14,0.71-0.8,0.81-1.33
			c0.02-0.12,0.05-0.25,0.07-0.36c0.07-0.28,0.09-0.78-0.55-1.09c-0.15-0.07-0.21-0.15-0.22-0.19c-0.01-0.04,0.02-0.13,0.13-0.24
			c0.67-0.73,0.25-1.33-0.02-1.72c-0.11-0.15-0.2-0.29-0.24-0.42C20.64,139.25,20.32,139.01,19.99,139.01z M45.7,141.57
			c8.37,0,17.1,0.21,26.69,0.65c0.44,0.02,0.89,0.03,1.34,0.03c0.38,0,1.99-0.02,2.43-0.02h0.69l-0.47-0.53
			c-0.49-0.55-1-0.58-1.42-0.6l-0.21-0.01c-12.08-1.05-22.08-1.54-31.47-1.54c-0.94,0-1.88,0-2.82,0.02
			c-1.66,0.02-3.32,0.05-4.99,0.09c-2.35,0.05-4.79,0.1-7.18,0.1c-2.02,0-3.81-0.04-5.49-0.11l-0.12-0.01
			c-0.07-0.01-0.15-0.02-0.22-0.02c-0.37,0-0.54,0.2-0.62,0.37c-0.19,0.39,0.01,0.73,0.14,0.96c0.03,0.06,0.07,0.11,0.09,0.17
			c0.23,0.52,0.71,0.52,0.98,0.52l0.18,0c0.78,0.02,1.55,0.06,2.33,0.09c1.25,0.06,2.54,0.11,3.82,0.11c0.41,0,0.83-0.01,1.24-0.02
			C35.47,141.65,40.55,141.57,45.7,141.57z M28.91,137.41c-3,0-6.84,0.09-8.1,0.54l-0.52,0.18l0.42,0.36
			c0.96,0.82,12.07,0.86,14.29,0.86c0,0,0,0,0,0c5.12,0,10.08-0.15,13.61-0.41l0-0.63C42.04,137.75,34.68,137.41,28.91,137.41z
			 M39.32,136.89c8.45,0,17.06,0.52,25.6,1.53c1.92,0.23,3.82,0.36,5.83,0.5c0.93,0.07,1.88,0.13,2.84,0.21l0.6,0.05l-0.33-0.53
			c-0.69-1.12-0.48-1.99,0.67-2.8c1.38-0.97,2.62-2.14,3.82-3.27c1.33-1.26,2.71-2.56,4.26-3.56c0.18-0.11,0.16-0.33,0.15-0.45
			l-0.02-0.25l-0.25-0.13l-2.56-0.31c-5.56-0.68-11.31-1.38-17.01-1.78c-2.19-0.16-4.39-0.35-6.58-0.54
			c-4.87-0.43-9.91-0.88-14.89-0.88c-0.59,0-1.17,0.01-1.76,0.02l-0.48,0c-0.81,0-1.61-0.04-2.4-0.13
			c-0.69-0.08-1.25-0.45-1.53-1.03c-0.29-0.59-0.25-1.3,0.1-1.95c0.09-0.16,0.18-0.31,0.27-0.47c0.37-0.64,0.76-1.29,0.8-2.07
			c0.04-0.76,0.26-0.88,0.94-0.88l0.71,0.02c4.56,0.11,9.28,0.23,13.93,0.25c9.2,0.05,18.32,0.71,25.23,1.27
			c1.28,0.1,2.57,0.19,3.85,0.28l1.71,0.12l0.14-0.6c-1.62-0.72-3.17-1.64-4.67-2.53c-1.36-0.81-2.77-1.64-4.23-2.33
			c-1.32-0.62-2.65-1.23-3.97-1.85c-1.54-0.71-3.07-1.42-4.6-2.15c-0.15-0.07-0.34-0.16-0.57-0.16c-0.12,0-0.25,0.02-0.37,0.08
			c-1.12,0.46-2.31,0.69-3.62,0.69c-1.14,0-2.35-0.17-3.82-0.52c-0.24-0.06-0.48-0.13-0.71-0.21c-0.51-0.16-1.03-0.32-1.56-0.32
			c-0.66,0-1.23,0.25-1.75,0.77c-0.03,0.03-0.13,0.09-0.48,0.09c-0.11,0-0.5-0.02-0.5-0.02c-0.41,0-0.74,0.12-1.13,0.4
			c-0.81,0.59-1.79,0.91-2.83,0.91c-2.25,0-4.34-1.44-5.09-3.49c-0.58-1.6,0.02-3.32,1.45-4.19c0.75-0.45,1.57-0.67,2.49-0.67
			c0.53,0,1.09,0.07,1.73,0.22c0.53,0.12,0.89,0.39,1.08,0.82c0.11,0.25,0.03,0.37-0.07,0.45c-0.04,0.01-0.07,0.02-0.1,0.02
			c-0.08,0-0.14-0.04-0.2-0.1c-0.64-0.62-1.39-0.93-2.22-0.93c-0.62,0-1.3,0.17-2.12,0.52c-0.81,0.35-1.39,0.97-1.63,1.73
			c-0.25,0.81-0.12,1.72,0.37,2.58c0.88,1.53,2.67,2.56,4.46,2.56c0.36,0,0.72-0.04,1.05-0.13c1.21-0.31,1.75-1.03,1.66-2.19
			c-0.06-0.72-0.07-1.49-0.03-2.35c0.07-1.41,0.54-1.98,1.87-2.23c0.07-0.01,0.14-0.01,0.22-0.01c0.27,0,0.63,0,0.93-0.39l0.12-0.15
			l-0.07-0.18c-0.04-0.09-0.08-0.18-0.13-0.27c-0.08-0.17-0.16-0.32-0.18-0.46c-0.35-3.14-2.39-3.44-4.82-3.49
			c-2.43-0.05-4.51-0.46-6.35-1.27c-0.81-0.35-1.11-0.74-1.05-1.33c0.07-0.72,0.56-0.95,1.39-1.11c0.14-0.03,0.29-0.03,0.43-0.03
			c0,0,0.54,0.02,0.66,0.02c0.14,0,0.27-0.01,0.41-0.02c0.04,0,0.07-0.01,0.11-0.01c0.29,0,0.55,0.15,0.83,0.31
			c0.29,0.17,0.62,0.35,1.01,0.38c0.75,0.06,1.5,0.12,2.25,0.19c0.9,0.08,1.79,0.16,2.69,0.22c0.19,0.01,0.37,0.02,0.54,0.02
			c1.47,0,2.09-0.56,2.57-2.31c0.16-0.57,0.41-0.93,0.81-1.12c2.05-1.01,3.73-2.54,5.35-4.03c0.83-0.76,1.69-1.54,2.58-2.24
			c0.75-0.59,1.44-1.27,2.11-1.94c0.31-0.31,0.62-0.62,0.95-0.93l0.36-0.34l-0.45-0.19c-0.42-0.17-0.86-0.26-1.29-0.26
			c-1.54,0-2.84,1.08-3.16,2.62c-0.22,1.06-1.01,1.81-1.9,1.81c-0.07,0-0.13,0-0.2-0.01c-0.9-0.11-0.94-0.63-0.95-1.62l-0.01-0.84
			c-0.04-1.25-0.06-2.23-1.2-2.23c-0.31,0-0.7,0.07-1.22,0.17c-0.04,0.01-0.08,0.01-0.12,0.01l-0.33-0.01
			c-0.13,0-0.24,0.02-0.34,0.05c-0.21,0.08-0.39,0.12-0.52,0.12c-0.04,0-0.13,0-0.15-0.04c-0.01-0.02-0.1-0.18,0.1-0.79l0.21-0.63
			l-0.6,0.23c-3.41,1.33-5.29,4.64-4.91,8.63l0.01,0.15c0.07,0.73,0.17,1.95,1.14,1.97c0.74,0,0.89-0.99,1-1.71
			c0.02-0.12,0.04-0.24,0.06-0.35c0.4-2.25,2.72-4.63,4.88-5c0.15-0.03,0.27-0.05,0.39-0.05c0.17,0,0.26,0.05,0.33,0.18
			c0.12,0.21,0.08,0.39-0.17,0.76c-0.46,0.69-0.76,1.42-0.89,2.19c-0.06,0.34-0.08,0.69,0.12,0.95c0.13,0.16,0.33,0.25,0.58,0.25
			c0.07,0,0.16-0.01,0.25-0.02c0.14-0.02,0.26-0.04,0.36-0.04c0.14,0,0.16,0.01,0.17,0.17c0.01,0.21-0.09,0.33-0.65,0.44
			c-0.13,0.03-0.25,0.04-0.37,0.04c-0.31,0-0.55-0.09-0.72-0.27c-0.19-0.21-0.29-0.54-0.27-0.97c0.01-0.47,0.11-0.95,0.21-1.47
			c0.05-0.25,0.1-0.51,0.14-0.79l0.1-0.62l-0.53,0.28c-1.78,0.94-3.38,1.99-3.46,4.38c-0.01,0.32-0.15,0.67-0.28,1.01l-0.11,0.29
			c-0.28,0.73-0.49,1.18-1.07,1.19c0,0,0,0,0,0c-0.67,0-0.98-0.47-1.29-1.3c-1.23-3.23-0.08-7.09,2.94-9.83
			c0.77-0.7,1.59-1.04,2.52-1.04c1.02,0,2.05,0.4,3.04,0.8l0.19,0.08c0.9,0.35,0.98,1.28,1,2.66c0,0.25,0.01,0.49,0.02,0.72
			c0,0.15,0,0.22,0.01,0.28c0.01,0.05,0,0.11,0,0.17c0,0.24,0,0.75,0.54,0.88c0.06,0.02,0.13,0.02,0.19,0.02
			c0.36,0,0.64-0.23,0.87-0.45c0.3-0.29,0.36-0.66,0.42-0.98l0.03-0.16c0.31-1.55,2.1-2.9,3.84-2.9c0.47,0,0.9,0.1,1.27,0.31
			c0.28,0.15,0.51,0.22,0.73,0.22c0.36,0,0.62-0.19,0.91-0.47c1.84-1.8,3.91-3.45,6.32-5.02c0.89-0.58,1.72-1.26,2.6-1.99
			c0.41-0.34,0.84-0.69,1.3-1.05l0.65-0.51l-0.81-0.05c-2.63-0.17-5.4-0.25-8.48-0.25c-4.02,0-8.04,0.14-11.94,0.28
			c-2.72,0.09-5.44,0.19-8.15,0.24c-3.32,0.06-5.03,2.34-6.15,4.32c-2.08,3.69-3.65,7.64-5.08,11.36
			c-2.56,6.69-5.42,13.38-8.18,19.85c-0.75,1.76-1.5,3.52-2.24,5.28c-1.92,4.54-3.62,9.24-5.27,13.79
			c-0.64,1.76-1.27,3.51-1.92,5.27c-0.24,0.65-0.26,1.1-0.05,1.42c0.18,0.27,0.49,0.4,0.96,0.4c0.11,0,0.23-0.01,0.37-0.02
			c1.11-0.12,2.29-0.18,3.62-0.18c1.59,0,3.21,0.09,4.78,0.17c1.58,0.08,3.2,0.17,4.81,0.17c0.24,0,0.48,0,0.72-0.01
			C36.96,136.9,38.14,136.89,39.32,136.89z M39.65,118.93c-1.96,0-2.08,0.4-2.41,2.53l-0.03,0.2c-0.07,0.43-0.1,0.91,0.15,1.23
			c0.26,0.33,0.7,0.37,1.21,0.39c0.81,0.03,1.62,0.06,2.44,0.08c3.11,0.1,6.32,0.21,9.45,0.58c6.38,0.76,11.53,1.23,16.2,1.49
			c4.76,0.25,9.62,0.75,14.86,1.5c0.44,0.06,0.89,0.1,1.32,0.1c3.14,0,5.53-1.65,7.91-3.5l0.38-0.29L90.71,123
			c-2.4-1.37-4.55-1.78-6.15-2c-2.42-0.32-4.89-0.36-7.27-0.41c-1.35-0.02-2.69-0.05-4.04-0.12c-2.66-0.14-5.33-0.3-7.99-0.46
			c-8.19-0.48-16.66-0.98-25-1.08L39.65,118.93z M75.45,106.68c-0.79,0-1.11,0.72-1.29,1.26c-0.88,2.69-0.22,4.42,2.14,5.61
			c5.29,2.66,10.94,5.29,16.81,7.83c0.07,0.03,0.14,0.07,0.21,0.1c0.24,0.12,0.52,0.26,0.83,0.26c0.14,0,0.27-0.03,0.39-0.08
			c1.61-0.68,3.22-1.38,4.9-2.11l2.51-1.09l-0.74-0.27c-2.16-0.79-4.23-1.7-6.23-2.58c-1.96-0.86-3.81-1.68-5.75-2.4
			c-3.49-1.29-6.86-3.08-10.12-4.81c-0.91-0.48-1.82-0.96-2.73-1.43C76.03,106.77,75.72,106.68,75.45,106.68z M113.9,49.42
			c-0.48,0-0.91,0.25-1.22,0.47c-3.07,2.12-5.94,4.45-8.73,6.7C89.43,68.33,74.92,80.08,60.43,91.85c-0.2,0.16-0.41,0.32-0.62,0.48
			c-0.91,0.7-1.86,1.43-2.45,2.62c-0.16,0.32-0.29,0.62-0.2,0.9c0.08,0.26,0.3,0.41,0.51,0.52c0,0,6.73,3.65,8.66,4.7
			c1.61,0.87,3.29,1.63,4.91,2.37c1.5,0.69,3.06,1.39,4.54,2.18c9.35,4.94,18.11,8.81,26.78,11.82c0.34,0.12,0.65,0.17,0.95,0.17
			c0.35,0,0.69-0.07,1.07-0.23c4.68-1.96,9.7-2.84,14.55-3.7c1.11-0.2,2.23-0.39,3.34-0.6c1.16-0.22,2.45-1.14,2.53-2.65
			c0.16-3.22,1.27-6.21,2.34-9.1c0.43-1.16,1.33-1.86,2.41-1.86c0.27,0,0.54,0.04,0.81,0.13c2.54,0.79,5.26,1.65,7.97,2.63
			c0.52,0.19,0.96,0.27,1.38,0.27c0.46,0,0.91-0.1,1.38-0.32c3.21-1.46,6.68-2.94,10.35-3.87c2-0.51,3.01-1.7,3.37-3.97
			c0.39-2.41,0.91-4.99,1.61-7.9c0.44-1.85,0.67-2.01,1.6-2.01c0.3,0,0.66,0.03,1.1,0.07c2.91,0.28,5.66,1.17,8.33,2.04
			c1.39,0.45,1.61,0.79,1.56,2.44c-0.05,1.79-0.36,3.12-1.01,4.32c-0.55,1.01-0.8,2.15-1.04,3.25c-0.07,0.29-0.13,0.59-0.2,0.88
			c-0.41,1.7,0.01,3.11,1.3,4.3c0.33,0.3,0.61,0.5,0.95,0.5l0,0c0.3,0,0.58-0.16,0.91-0.5c1.49-1.56,3.06-3.12,4.69-4.66
			c2.73-2.57,5.63-4.85,8.7-7.25l2.09-1.64l-0.98-0.47c-0.32-0.16-0.61-0.3-0.89-0.42c-5.14-2.23-10.45-4.98-16.69-8.66
			c-4.37-2.57-8.9-5-13.28-7.35c-3.88-2.08-7.89-4.23-11.77-6.47c-1.28-0.74-2.57-1.45-3.87-2.16c-1.56-0.86-3.18-1.75-4.74-2.67
			c-3.21-1.9-6.54-3.69-9.75-5.42c-2.92-1.57-5.95-3.2-8.87-4.9C114.46,49.5,114.18,49.42,113.9,49.42z M66.91,102.55
			c-0.71,0-0.88,0.79-0.94,1.08c-0.3,1.4-0.29,2.61,0.05,3.71c0.26,0.83,0.52,1.71,1.33,2.15c1.53,0.83,3.04,1.66,4.82,2.14
			l0.38,0.1l0-0.41c-0.02-1.64,0.26-3.12,0.85-4.5c0.14-0.34,0.22-0.63,0.12-0.9c-0.11-0.29-0.38-0.45-0.67-0.57
			c-2.04-0.93-3.67-1.73-5.12-2.54C67.4,102.64,67.14,102.55,66.91,102.55z M56.63,106.65c-0.62,0-0.84,0.52-1.29,1.56l-0.04,0.1
			c-0.13,0.31-0.24,0.63-0.11,0.92c0.12,0.29,0.41,0.43,0.7,0.53c1.54,0.56,2.93,0.83,4.25,0.83c0.94,0,1.88-0.14,2.78-0.42
			l0.75-0.23l-2.2-1.1c-1.09-0.55-2.18-1.1-3.28-1.63C57.44,106.86,56.99,106.65,56.63,106.65z M188.68,96.79
			c-0.24,0.13-0.48,0.26-0.7,0.43c-3.09,2.39-6.01,5.08-8.83,7.69c-1.19,1.1-2.39,2.21-3.6,3.29c-0.22,0.2-0.52,0.51-0.54,0.93
			c-0.02,0.31,0.11,0.63,0.4,0.96c0.23,0.26,0.46,0.39,0.7,0.39c0.35,0,0.59-0.26,0.78-0.47l0.09-0.1c3.05-3.15,6.49-5.93,9.82-8.62
			c1.03-0.83,2.05-1.66,3.07-2.5c0.07-0.06,0.15-0.11,0.24-0.17c0.33-0.21,0.82-0.54,0.65-1.11c-0.15-0.5-0.6-0.61-0.97-0.7
			c-0.19-0.05-0.38-0.09-0.52-0.19l-0.15-0.09C189.12,96.53,188.78,96.73,188.68,96.79z M129.74,100.05c-0.41,0-0.76,0.21-0.97,0.57
			c-1.46,2.51-2.83,5.28-2.95,8.52c-0.02,0.46,0.05,0.75,0.21,0.92c0.1,0.11,0.24,0.17,0.39,0.17c0.24,0,0.5-0.15,0.82-0.37
			c2.72-1.89,5.85-3.67,9.85-5.63l0.24-0.11c0.4-0.18,0.85-0.38,1.23-0.92l0.25-0.36l-2.42-0.77c-2.1-0.67-4.18-1.32-6.26-1.97
			C130,100.07,129.87,100.05,129.74,100.05z M53.38,105.47c-1.61,0.06-1.89,0.83-1.9,2.53c0,0.5,0.09,0.85,0.3,1.07
			c0.16,0.17,0.37,0.25,0.64,0.25c0.14,0,0.3-0.02,0.49-0.07c1.3-0.03,2.21-0.93,2.19-2.23c-0.01-0.71-0.29-1.56-1.59-1.56
			L53.38,105.47z M188,94.34c-0.27,0-0.48,0.18-0.66,0.33c-0.05,0.04-0.09,0.08-0.14,0.11c-5.31,3.89-9.42,7.43-12.96,11.14
			c-0.11,0.12-0.2,0.25-0.3,0.38l-0.12,0.16c-0.54,0.71-0.27,1.25,0.05,1.58c0.19,0.19,0.37,0.29,0.57,0.29
			c0.3,0,0.49-0.22,0.63-0.39c0.04-0.05,0.08-0.1,0.13-0.13c1.31-1.16,2.59-2.35,3.88-3.54c2.93-2.72,5.96-5.53,9.24-7.92
			c0.26-0.18,0.6-0.42,0.54-0.94l-0.01-0.06l-0.03-0.05c-0.03-0.06-0.06-0.13-0.09-0.21c-0.09-0.23-0.2-0.52-0.45-0.67
			C188.2,94.36,188.11,94.34,188,94.34z M56,96.51c-0.49,0-0.69,0.56-0.78,0.83c-0.62,1.77-0.58,3.59,0.13,5.92
			c0.24,0.79,0.67,1.14,1.28,1.45c1.79,0.9,3.64,1.53,5.59,2.2c0.73,0.25,1.46,0.5,2.21,0.77l0.5,0.18l-0.11-0.54
			c-0.34-1.74-0.24-3.3,0.32-4.76c0.28-0.73-0.19-1.03-0.47-1.2l-0.12-0.08c-1.26-0.87-2.63-1.56-3.95-2.23
			c-1.37-0.7-2.79-1.41-4.06-2.32C56.34,96.58,56.17,96.51,56,96.51z M187.08,92.66c-0.35,0-0.63,0.21-0.85,0.37l-0.12,0.09
			c-0.5,0.35-0.99,0.71-1.48,1.07c-0.68,0.5-1.37,1.01-2.07,1.48c-3.56,2.42-7.04,5.18-10.66,8.43c-0.65,0.58-0.51,1.07-0.1,1.62
			c0.29,0.39,0.58,0.58,0.89,0.58l0,0c0.38,0,0.7-0.29,0.98-0.55l1.12-1.1c2.72-2.67,5.53-5.43,8.69-7.66
			c0.74-0.52,1.47-1.1,2.17-1.66c0.73-0.58,1.49-1.19,2.28-1.74l0.31-0.22l-0.27-0.27C187.67,92.8,187.38,92.66,187.08,92.66z
			 M185.18,89.74c-0.33,0-0.58,0.26-0.76,0.44c-0.05,0.05-0.09,0.1-0.14,0.14c-1.1,0.94-2.17,1.85-3.29,2.67
			c-2.42,1.77-4.63,3.87-6.77,5.9l-0.45,0.43c-0.85,0.81-1.68,1.66-2.49,2.49l-0.81,0.83c-0.21,0.21-0.56,0.56-0.29,1.05
			c0.08,0.15,0.22,0.21,0.33,0.27c0.04,0.02,0.07,0.04,0.11,0.06l0.19,0.12l0.65-0.6c1.37-1.29,2.87-2.48,4.33-3.63
			c0.44-0.35,0.89-0.7,1.33-1.06c0.87-0.7,1.74-1.38,2.62-2.06c1.94-1.52,3.95-3.08,5.82-4.78c0.43-0.39,0.93-1.01,0.3-1.86
			C185.64,89.88,185.42,89.74,185.18,89.74z M43.63,96.74c-0.35,0-0.69,0.12-1.05,0.26l-0.44,0.16l0.04,0.26
			c0.07,0.45,0.26,0.72,0.62,0.85c2.78,1.06,5.72,1.26,8.57,1.44c0,0,0.78,0.05,0.78,0.05c0.59,0,0.89-0.37,0.9-1
			c0-0.25-0.06-0.45-0.19-0.59c-0.2-0.21-0.47-0.21-0.67-0.21l-0.14,0c-2.11-0.16-4.22-0.31-6.34-0.46
			c-0.1-0.01-0.19-0.01-0.29-0.01c-0.33,0-0.55-0.01-0.7-0.19C44.41,96.92,44.05,96.74,43.63,96.74z M161.78,94.74
			c0.48,0,0.83,0.23,1.16,0.78c0.25,0.42,0.61,0.75,0.95,1.07c0.2,0.19,0.4,0.38,0.58,0.58c0.17,0.2,0.41,0.43,0.69,0.43
			c0.37,0,0.6-0.38,0.77-0.65c1.26-2.05,1.84-4.37,2.39-6.62l0.14-0.55c0.19-0.78-0.09-2.16-1.3-2.66
			c-2.23-0.91-4.58-1.37-6.85-1.81l-1.18-0.23c-0.2-0.04-0.38-0.06-0.54-0.06c-0.95,0-1.26,0.73-1.43,1.36
			c-0.41,1.5-0.68,3.06-0.94,4.56c-0.32,1.79-0.64,3.65-1.2,5.44l-0.13,0.41c0,0,0.41,0,0.41,0c1.03,0,1.75-0.35,2.46-0.68l0.2-0.09
			c1.09-0.52,2.21-0.88,3.06-1.14C161.32,94.78,161.57,94.74,161.78,94.74z"/>
		<path d="M259.58,132.51c-13.44-0.07-26.87-0.14-40.31-0.22l-0.25,0c-1.19,0-2.38,0.05-3.57,0.1c-1.18,0.05-2.36,0.1-3.54,0.1
			c-1.02,0-1.93-0.04-2.77-0.11c-2.47-0.22-3.07-0.85-3.2-3.37c-0.04-0.67-0.04-1.37,0.22-1.95c0.17-0.38,0.33-0.85,0.11-1.21
			c-0.22-0.35-0.67-0.38-1.09-0.38l-2.06,0.01c-0.93,0-1.93,0.01-2.93,0.09c-0.27,0.02-0.54,0.03-0.8,0.03c-1,0-1.82-0.18-2.51-0.56
			c-1.09-0.6-1.58-1.39-1.5-2.42c0.08-1.05,0.2-2.1,0.31-3.14l0.13-1.21c0.05-0.1,0.11-0.24,0.05-0.41c-0.6-1.46,0.21-2.18,1.14-3
			c0.23-0.21,0.46-0.41,0.67-0.62c1.05-1.1,1.5-2.18,1.45-3.5c-0.07-1.87,0.44-3.45,1.61-4.97l0.39-0.51l-0.9,0
			c-1.34,0-2.39,0-3.4-0.43c-1.66-0.7-2.37-1.76-2.53-3.78c-0.16-1.95,0.6-3.47,1.53-5.11c1.48-2.59,3.14-5.12,4.75-7.56
			c1.53-2.33,3.12-4.74,4.55-7.21c0.78-1.34,1.75-2.61,2.69-3.83c0.37-0.48,0.74-0.97,1.1-1.46c0.3-0.4,0.7-0.65,1.32-0.79
			c3.5-0.84,7.36-1.26,11.82-1.26c1.08,0,2.17,0.02,3.25,0.06l4.13,0.16c7.03,0.27,14.31,0.56,21.47,0.56
			c1.38,0,2.76-0.01,4.14-0.03c0,0,0.67-0.01,0.86-0.01c0.41,0,0.71,0.02,1,0.06c0.44,0.07,0.87,0.16,1.01,0.41
			c0.09,0.16,0.08,0.43-0.04,0.79c-0.26,0.77,0.19,1.41,0.51,1.88l0.08,0.11c0.81,1.18,1.39,2.52,1.95,3.82
			c0.38,0.88,0.77,1.78,1.23,2.64c1.17,2.18,2.26,4.44,3.32,6.64c0.49,1.01,0.98,2.02,1.47,3.02c0.24,0.49,0.22,1.31-0.05,1.99
			c-0.2,0.48-0.49,0.82-0.82,0.92c-1.23,0.39-1.5,1.34-1.64,2.2c-0.14,0.78-0.15,1.66-0.03,2.61c0.13,1.12,0.79,1.73,1.91,1.77
			c1.63,0.05,2.86,0.16,4,0.38c0.87,0.16,1.12,0.4,1.18,0.56c0.06,0.17,0,0.52-0.58,1.23c-0.43,0.52-0.65,1.12-0.68,1.89l-0.03,0.61
			c-0.08,1.47-0.16,2.98-0.02,4.5c0.08,0.84,0.2,1.48,1.1,2.19c0.23,0.18,0.43,0.42,0.64,0.66c0.42,0.5,0.9,1.06,1.72,1.26
			c0.1,0.02,0.17,0.38,0.09,0.83c-0.06,0.29-0.21,0.39-0.7,0.46c-1.48,0.21-3.07,0.31-4.89,0.31l-7.93-0.02
			c-19.39-0.06-38.79-0.11-58.18-0.16c-0.11,0-0.22-0.01-0.34-0.01c-0.13-0.01-0.26-0.02-0.4-0.02c-0.28,0-0.66,0.03-1.08,0.26
			l-0.37,0.2l0.3,0.3c0.39,0.39,0.8,0.44,1.08,0.44c0.11,0,0.23-0.01,0.34-0.02c0.09-0.01,0.18-0.01,0.27-0.01
			c19.76,0.02,39.51,0.04,59.27,0.06l10.89,0.01c0.46,0,0.93,0,1.39,0.03c0.3,0.02,0.3,0.15,0.3,0.25c0,0.1,0,0.22-0.3,0.24
			c-0.35,0.02-0.7,0.03-1.06,0.03l-14.19-0.01c-18.59-0.01-37.19-0.03-55.78-0.04c-0.11,0-0.22-0.01-0.34-0.01
			c-0.13-0.01-0.26-0.02-0.39-0.02c-0.25,0-0.59,0.02-0.96,0.22l-0.59,0.31l0.61,0.26c0.5,0.22,0.99,0.24,1.37,0.24
			c0.15,0,0.73-0.02,0.87-0.02l20.36,0.17c16.11,0.13,32.22,0.26,48.33,0.41h0c0.19,0,0.39-0.03,0.6-0.05
			c0.2-0.03,0.41-0.06,0.6-0.06c0.2,0,0.34,0.04,0.4,0.1c0.05,0.06,0.08,0.16,0.08,0.3c0,0.14,0,0.28-0.46,0.28
			c-0.2,0-0.42-0.03-0.62-0.05c-0.21-0.03-0.41-0.05-0.58-0.05c-19.78-0.14-39.55-0.3-59.33-0.47l-10.77-0.09
			c-0.12,0-0.23,0-0.35,0.01c-0.29,0.02-0.58,0.05-0.77,0.28c-0.11,0.14-0.15,0.31-0.13,0.52c0.05,0.56,0.58,0.58,0.81,0.58
			c0.26,0.02,0.43,0.02,0.59,0.02l69.67,0.82c0.77,0.01,1.41,0.27,1.84,0.74c0.41,0.45,0.62,1.06,0.6,1.78
			c0,0.14-0.06,0.21-0.27,0.34c-1.16,0.68-1.68,1.93-1.42,3.41c0.19,1.1,1.1,1.85,2.32,1.91c0.17,0.01,0.32,0.07,0.4,0.16
			c0.05,0.06,0.08,0.14,0.07,0.25c-0.01,0.12-0.02,0.45-0.58,0.49c-0.18,0.01-0.36,0.01-0.54,0.01L259.58,132.51z M269.65,130.59
			c0.24,0,0.32,0.06,0.35,0.1c0.08,0.09,0.12,0.27,0.11,0.54c0,0.19,0.05,0.35,0.15,0.46c0.07,0.08,0.21,0.17,0.43,0.17
			c0.18,0,0.36-0.06,0.48-0.1c0.2-0.06,0.32-0.16,0.38-0.31c0.08-0.22-0.03-0.42-0.1-0.55c-0.46-1.06-1-1.71-2.32-1.71
			c-5.08,0.04-10.12,0.05-15.17,0.05l-13.02-0.01v-0.25h-9.87c-6.38,0-12.76,0-19.13,0.01c-0.1,0-0.22-0.01-0.34-0.03
			c-0.15-0.02-0.31-0.03-0.46-0.03c-0.73,0-0.82,0.48-0.82,0.69c0,0.26,0.07,0.47,0.21,0.61c0.14,0.15,0.34,0.22,0.6,0.22
			c0.15,0,0.32-0.03,0.49-0.05c0.12-0.02,0.23-0.04,0.33-0.04c7.21,0.04,14.42,0.06,21.62,0.09l10.01,0.03
			c8.47,0.03,16.94,0.07,25.4,0.13c0,0,0,0,0,0c0.12,0,0.23-0.01,0.35-0.02C269.44,130.59,269.54,130.59,269.65,130.59z
			 M208.07,125.92c-0.38,0.05-0.85,0.32-0.93,1.29c-0.06,0.72-0.07,1.41-0.03,2.04l0.01,0.28c0.02,0.64,0.05,1.71,1.14,1.71
			c0.95-0.05,1.44-0.84,1.39-2.06c-0.01-0.12,0-0.23,0-0.35l0-0.17l-0.01-0.29c-0.01-0.52-0.03-1.05-0.31-1.56
			c-0.17-0.32-0.5-0.9-1.12-0.9h-0.02L208.07,125.92z M216.11,128.52c17.84,0.07,35.67,0.13,53.51,0.19c0.06,0,0.12,0,0.19,0.01
			c0.08,0.01,0.16,0.01,0.25,0.01c0.2,0,0.49-0.03,0.79-0.28l0.27-0.22l-0.25-0.25c-0.29-0.29-0.59-0.32-0.82-0.32l-0.28,0.01
			c-19.41-0.19-38.81-0.38-58.21-0.55c-0.07,0-0.15-0.01-0.23-0.02c-0.12-0.01-0.24-0.03-0.36-0.03c-0.68,0-0.75,0.51-0.76,0.73
			c0,0.22,0.06,0.39,0.18,0.51c0.17,0.18,0.4,0.2,0.56,0.2c0.08,0,0.16-0.01,0.24-0.01c0.07,0,0.13-0.01,0.2-0.01
			c0.19,0.03,0.28,0.03,0.37,0.03l0.29-0.01L216.11,128.52z M209.82,126.6l61.55,0.51l0.01-0.75l-61.55-0.81L209.82,126.6z
			 M260.81,125.66h10.96v-0.63l-0.3-0.07h-10.66V125.66z M198.04,118.11c-0.61,0-0.92,0.34-1.07,0.63
			c-0.63,1.17-0.58,2.29,0.13,3.34c0.06,0.09,0.12,0.17,0.19,0.26c0.24,0.32,0.46,0.62,0.53,1.15l0.1,0.8l0.44-0.66
			c1.07-1.61,0.92-3.08,0.66-4.56c-0.14-0.76-0.58-0.93-0.93-0.94L198.04,118.11z M262.84,115.45c-2.75,0-5.54,0.06-8.23,0.12
			c-2.6,0.06-5.3,0.12-7.95,0.12l-0.01,0.63c3.81,0.11,7.54,0.17,11.1,0.17h0c4.2,0,8.33-0.08,12.27-0.23l0-0.63
			C267.85,115.51,265.5,115.45,262.84,115.45z M199.19,113.73c-0.06,0-0.13,0.01-0.2,0.03c-0.81,0.26-1.4,1.13-1.97,2.07l-0.37,0.6
			l4.35-0.78l-0.51-0.44c-0.22-0.19-0.37-0.48-0.51-0.74C199.79,114.12,199.59,113.73,199.19,113.73z M202.53,115.84l0.32,0
			c2.35-0.04,4.71-0.07,7.04-0.1c7.12-0.1,13.85-0.19,19.97-0.45l-0.01-0.63h-27.28L202.53,115.84z M201.39,106.79
			c-0.36,0-0.53,0.34-0.69,0.67c-1.17,2.33-0.95,4.63,0.66,7.05l0.22,0.33l0.25-0.3c1.84-2.17,1.93-5.25,0.21-7.34
			C201.88,107.02,201.67,106.79,201.39,106.79z M204.21,112.87c-0.27,0-0.67,0.06-0.95,0.55l-0.12,0.21l0.17,0.17
			c0.35,0.35,0.73,0.39,0.99,0.39c0.14,0,0.28-0.01,0.42-0.03c0.12-0.01,0.23-0.02,0.34-0.02c15.22-0.06,30.44-0.13,45.66-0.2
			l10.13-0.05c2.41-0.01,4.83-0.02,7.24-0.02l0.19,0c0.16,0,0.46,0,0.66-0.22c0.14-0.15,0.21-0.37,0.2-0.68
			c-0.02-0.61-0.32-0.92-0.9-0.92c-0.06,0-0.32,0.01-0.32,0.01l-6.53,0.08c-18.9,0.24-37.81,0.49-56.71,0.74c0,0,0,0,0,0
			c-0.08,0-0.15-0.01-0.22-0.01C204.38,112.88,204.29,112.87,204.21,112.87z M204.8,110.42c-0.62,0-0.96,0.32-0.99,0.94
			c-0.02,0.32,0.05,0.55,0.2,0.72c0.2,0.23,0.5,0.26,0.75,0.26l0.7,0l31.16-0.4v-0.07l2.28,0c0.5,0,0.99,0,1.49-0.01
			c9.1-0.11,18.21-0.22,27.31-0.34l0,0c0.07,0,0.14,0.01,0.22,0.02c0.11,0.01,0.22,0.03,0.33,0.03c0.6,0,0.69-0.46,0.7-0.66
			c0.01-0.22-0.04-0.4-0.16-0.52c-0.17-0.19-0.43-0.19-0.51-0.19c-0.07,0-0.15,0.01-0.22,0.01c-0.06,0-0.12,0.01-0.17,0.01
			c-0.14-0.02-0.21-0.02-0.28-0.02l-1.26,0.01L204.8,110.42z M204.3,108.28c-0.42,0-0.67,0.26-0.68,0.71
			c-0.01,0.26,0.06,0.48,0.21,0.63c0.22,0.24,0.55,0.27,0.84,0.27l0.95,0h30.92v-0.15l3.51,0l27.89-0.07c0.35,0,1.16,0,1.19-1.18
			c0.01-0.4-0.07-0.68-0.24-0.86c-0.14-0.15-0.33-0.23-0.59-0.23c-0.11,0-0.23,0.01-0.34,0.03c-0.09,0.01-0.17,0.02-0.25,0.02
			c-19.48,0.25-38.96,0.5-58.44,0.75c-1.53,0.02-3.05,0.05-4.58,0.1c0,0,0,0,0,0c-0.06,0-0.11-0.01-0.16-0.01
			C204.45,108.28,204.37,108.28,204.3,108.28z M203.04,105.44c-0.32,0.01-0.72,0.06-0.87,0.38c-0.16,0.33,0.04,0.7,0.23,0.99
			c0.58,0.88,1.35,0.95,2.09,0.95l63.56-0.84c0.07,0,0.15,0.01,0.22,0.02c0.1,0.01,0.2,0.02,0.29,0.02c0.48,0,0.75-0.28,0.77-0.8
			c0.01-0.29-0.05-0.5-0.18-0.64c-0.11-0.12-0.27-0.19-0.46-0.19c-0.13,0-0.27,0.03-0.38,0.06c-0.07,0.02-0.16,0.04-0.2,0.04
			c-7.83-0.01-15.66-0.02-23.49-0.02h-8.96v0.02l-32.3,0L203.04,105.44z M239.86,103.67c-7.45,0-14.24,0.19-20.17,0.56l0.02,0.63
			h43.95l0.01-0.63C255.34,103.86,247.32,103.67,239.86,103.67z M196.04,97.68c-0.9,0-1.05,1.04-1.15,1.73l-0.02,0.15
			c-0.04,0.25-0.03,0.49-0.02,0.69l0.01,0.17c-0.11,0.94,0.05,1.76,0.5,2.56c0.27,0.49,0.61,1,1.19,1l0,0c0.3,0,0.62-0.14,1-0.43
			c1.87-1.45,1.82-1.96,1.21-4.46c-0.32-1.29-1.07-1.44-1.6-1.44c-0.16,0-0.32,0.01-0.48,0.03c-0.14,0.01-0.27,0.02-0.4,0.02
			C196.23,97.69,196.04,97.68,196.04,97.68z M202.16,101.14c-1.27,0-2.84,0-3.02,2.41l-0.03,0.35l0.34-0.02
			c0.94-0.04,1.88-0.08,2.82-0.11c2.06-0.07,4.19-0.14,6.28-0.34c7.86-0.75,15.88-0.83,23.63-0.92c0,0,1.42-0.01,1.95-0.01
			c4.62,0,9.31,0.2,13.85,0.4c4.55,0.2,9.25,0.4,13.88,0.4h0.37c0.05,0,0.14,0.02,0.22,0.04c0.12,0.03,0.26,0.06,0.4,0.06
			c0.19,0,0.34-0.06,0.46-0.18c0.13-0.14,0.19-0.34,0.18-0.6c-0.03-0.95-0.39-1.43-1.08-1.43c-0.06,0-0.12,0-0.19,0.01
			c-0.08,0.01-0.15,0.01-0.23,0.01l-0.5-0.01l-11.64-0.01c-15.86-0.01-31.73-0.01-47.59-0.05H202.16z M231.41,100.66h29.97
			l1.01-0.01c0.41,0,0.88-0.17,0.91-0.96c0.01-0.37-0.06-0.64-0.23-0.82c-0.16-0.17-0.39-0.26-0.69-0.26l-1.04,0l-4.27,0.05
			c-18.64,0.2-37.28,0.4-55.92,0.62l0,0c-0.09,0-0.18-0.01-0.28-0.03c-0.14-0.02-0.29-0.04-0.42-0.04c-0.25,0-0.43,0.07-0.56,0.2
			c-0.12,0.13-0.18,0.31-0.18,0.53c0,0.21,0.08,0.69,0.76,0.69c0.1,0,0.2-0.01,0.31-0.02c0.09-0.01,0.17-0.02,0.25-0.02
			c0.04,0,0.07,0,0.11,0.01c0.09,0.02,0.19,0.02,0.29,0.02l0.39-0.01h29.29L231.41,100.66z M200.01,97.44
			c-0.27,0-0.65,0.05-0.97,0.47l-0.18,0.24l0.22,0.2c0.43,0.38,0.88,0.43,1.18,0.43c0.16,0,0.33-0.02,0.49-0.03
			c0.13-0.01,0.26-0.02,0.39-0.03c16.51-0.15,33.02-0.32,49.53-0.49l11.7-0.13c0.6,0,1.42-0.01,1.53-1.17l0.03-0.33l-3.48-0.13
			c-2.28-0.09-4.56-0.17-6.85-0.25c-1.44-0.05-2.88-0.06-4.32-0.06c-2.79,0-5.62,0.07-8.36,0.13c-2.51,0.06-5.1,0.12-7.65,0.13
			l-2.63,0.01c-9.84,0.03-20.02,0.06-30.01,1.04c-0.03,0-0.07,0-0.09,0c-0.11,0-0.17-0.01-0.24-0.01
			C200.21,97.45,200.11,97.44,200.01,97.44z M223.03,74.41c-3.15,0-5.96,0.12-8.58,0.37c-2.76,0.26-4.95,0.94-6.68,3.37
			c-0.78,1.09-1.47,2.24-2.14,3.36c-0.66,1.09-1.33,2.22-2.08,3.26c-1.98,2.79-3.81,5.74-5.58,8.6l-0.34,0.55
			c-0.18,0.29-0.33,0.6-0.48,0.91l-0.45,0.89l0.53-0.02c14.37-0.67,29.23-1.35,44.18-1.35c8.77,0,16.75,0.24,24.39,0.72l0.47,0.03
			c0,0-0.33-0.86-0.39-1.03c-0.12-0.34-0.22-0.62-0.35-0.88c-0.66-1.32-1.32-2.64-1.98-3.96c-0.93-1.85-1.86-3.71-2.78-5.57
			l-0.6-1.21c-0.99-1.99-2.01-4.05-2.88-6.13c-0.35-0.83-0.7-1.25-1.66-1.25l-1.73,0.02c-2.06,0.02-4.12,0.04-6.18,0.04
			c-1.6,0-3.21-0.01-4.81-0.04c-2.84-0.06-5.72-0.19-8.51-0.32C230.66,74.59,226.81,74.41,223.03,74.41z"/>
		<path d="M113.76,79.82c-0.29,0-0.64-0.26-0.95-0.49c-2.59-1.93-5.43-3.67-8.76-5.38c-0.62-0.32-1-0.76-1.07-1.23
			c-0.07-0.48,0.17-1,0.69-1.51c1.33-1.28,2.82-2.47,4.71-2.47c0.44,0,0.9,0.06,1.36,0.19l0.79,0.21l-0.47-0.7
			c-1.1-1.65-1.1-1.65,0.23-3.09l0.43-0.45c0.34-0.36,0.68-0.72,0.99-1.1c0.38-0.47,0.72-0.68,1.13-0.68c0.22,0,0.47,0.06,0.75,0.18
			c0.65,0.29,1,0.55,1.06,0.82c0.06,0.25-0.11,0.62-0.51,1.13c-0.09,0.12-0.21,0.23-0.33,0.34c-0.32,0.3-0.68,0.64-0.69,1.12
			c0,0.31,0.14,0.6,0.44,0.89c0.26,0.25,0.53,0.38,0.82,0.38c0.5,0,0.92-0.38,1.28-0.72c0.08-0.08,0.17-0.16,0.25-0.22
			c0.68-0.57,1.48-0.92,2.14-0.92c0.39,0,0.71,0.12,0.92,0.34c0.55,0.58,0.2,1.85-0.82,2.96c-0.05,0.05-0.11,0.1-0.16,0.15
			c-0.14,0.12-0.31,0.26-0.42,0.49l-0.28,0.57l0.6-0.11c1.01-0.19,1.84-0.72,2.64-1.22c0.56-0.35,1.09-0.69,1.67-0.91
			c0.55-0.22,0.45-0.72,0.4-0.94c-0.01-0.06-0.03-0.11-0.03-0.17c-0.01-0.41,0.01-0.99,0.23-1.24c0.1-0.11,0.25-0.16,0.46-0.16
			c0.14,0,0.32,0.03,0.51,0.08c0.11,0.03,0.21,0.04,0.31,0.04c0.55,0,0.98-0.42,1.07-1.05c0.04-0.32-0.03-0.61-0.22-0.84
			c-0.21-0.26-0.55-0.4-0.93-0.4c-1.23,0.03-2.2,0.12-3.11,0.26c-0.27,0.04-0.54,0.06-0.8,0.06c-1.09,0-2.19-0.36-3.36-1.09
			c-1.33-0.83-1.81-2.05-1.43-3.63c0.32-1.34,1.34-2.19,2.79-2.35h0c0.56,0,1.94,1.1,2.02,1.49c0.07,0.36-0.05,0.42-0.13,0.46
			c-0.35,0.18-0.74,0.45-0.76,0.86c-0.01,0.43,0.4,0.68,0.76,0.91l0.14,0.09c0.57,0.37,1.17,0.4,1.75,0.4
			c0.93,0,1.85,0.01,2.78,0.06c1.22,0.07,2.24,0.77,2.8,1.93c0.67,1.39,0.55,3.16-0.29,4.49c-0.4,0.63-1.05,0.94-1.98,0.94
			c-0.16,0-0.31-0.01-0.47-0.02c-0.24-0.02-0.48-0.08-0.72-0.13l-0.69-0.14l-0.01,0.37c-0.09,2.63-1.82,4.02-3.68,5.13
			c-0.22,0.13-0.45,0.19-0.71,0.19c-0.76,0-1.6-0.57-2.25-1.06c-1.47-1.12-3.05-2.05-4.68-2.97l-0.84-0.48l0.43,0.9
			c0.75,1.56,1.14,2.59,0.18,3.69c-0.14,0.16-0.21,0.34-0.2,0.53c0.02,0.31,0.25,0.51,0.42,0.65c0.72,0.64,1.42,1.22,2.13,1.8
			c0.88,0.71,0.93,1.38,0.21,2.44C114.06,79.79,113.88,79.82,113.76,79.82z M108.35,69.34c-0.89,0-1.77,0.43-2.54,1.25
			c-0.16,0.17-0.31,0.34-0.46,0.51c-0.25,0.28-0.49,0.56-0.76,0.81c-0.35,0.33-0.5,0.64-0.46,0.95c0.03,0.3,0.24,0.56,0.63,0.78
			c0.6,0.34,1.21,0.68,1.82,1.01c2.25,1.25,4.57,2.53,6.74,4.04l0.95,0.66l-0.52-1.07c-0.5-1.02-1.31-1.64-2.09-2.24l-0.3-0.23
			c-0.55-0.43-0.78-0.7-0.81-0.94c-0.02-0.22,0.13-0.52,0.49-0.97c0.87-1.09,0.48-2.05,0.12-2.68
			C110.46,70,109.46,69.34,108.35,69.34z M116.58,71.88l0.42,0.35c0.63,0.52,1.29,0.79,1.95,0.79l0,0c1.47,0,2.78-1.31,3.58-3.6
			l0.3-0.87l-0.75,0.49c-1.88,1.24-3.42,2.05-5.01,2.64l-0.23,0.09l-0.29-0.6c-0.41-0.84-0.22-1.38,0.65-1.95
			c0.25-0.16,0.45-0.4,0.63-0.62l0.15-0.18c0.23-0.26,0.63-0.69,0.17-1.21c-0.18-0.2-0.41-0.31-0.65-0.31
			c-0.19,0-0.38,0.06-0.55,0.18c-0.29,0.2-0.57,0.43-0.86,0.65c-0.23,0.18-0.45,0.36-0.68,0.53c-0.37,0.27-0.74,0.41-1.1,0.41
			c-0.41,0-0.81-0.19-1.18-0.55c-0.71-0.7-0.88-1.94-0.36-2.72c0.02-0.02,0.07-0.07,0.11-0.11c0.14-0.12,0.33-0.29,0.32-0.56
			c0-0.17-0.09-0.33-0.27-0.47c-0.12-0.09-0.24-0.14-0.37-0.14c-0.28,0-0.47,0.23-0.6,0.4c-0.04,0.05-0.08,0.1-0.12,0.14
			c-0.1,0.09-0.19,0.2-0.27,0.31l-0.09,0.11c-0.74,0.89-1.07,1.29-1.02,1.77c0.04,0.47,0.44,0.79,1.23,1.43l0.09,0.08
			c0.38,0.31,0.74,0.65,1.1,0.99c0.93,0.88,1.89,1.79,3.28,2.26l0.56,0.19L116.58,71.88z M121.45,62.79c0.4,0,0.8,0.04,1.2,0.08
			c0.28,0.03,0.56,0.05,0.85,0.07c1.27,0.06,2.29,0.9,2.32,1.91c0.03,0.98-0.31,1.62-2.18,2.01l-0.81,0.17l0.72,0.42
			c0.64,0.37,1.22,0.56,1.72,0.56l0,0c0.69,0,1.58-0.35,1.95-2.02c0.22-1.01,0.02-2.05-0.56-2.85c-0.59-0.82-1.52-1.33-2.55-1.38
			c-0.48-0.03-0.96-0.03-1.43-0.03c-1.1,0-2.14-0.01-3.17-0.29c-0.52-0.14-0.88-0.4-1.05-0.75c-0.16-0.34-0.15-0.75,0.02-1.23
			c0.02-0.06,0.08-0.14,0.14-0.21c0.18-0.23,0.54-0.72-0.03-1.27c-0.2-0.19-0.43-0.29-0.67-0.29c-0.29,0-0.54,0.14-0.75,0.27
			c-0.06,0.04-0.12,0.07-0.18,0.1c-1.01,0.5-1.4,1.47-1.11,2.71c0.26,1.09,2.14,2.48,3.36,2.48c0.19,0,0.37-0.04,0.52-0.1
			C120.27,62.89,120.8,62.79,121.45,62.79z"/>
		<path d="M135.03,91.34c-0.31,0-0.62-0.02-0.93-0.05c-2.48-0.02-4.31-0.34-5.88-1.86c-0.3-0.29-0.52-0.48-0.68-0.63
			c-0.35-0.31-0.35-0.31-0.36-0.57c-0.06-0.93-0.04-1.71,0.22-2.49c0.66-1.98,1.53-3.92,2.37-5.8c0.24-0.53,0.48-1.07,0.71-1.6
			c0.59-1.34,1.26-2.72,2.11-4.34c0.56-1.07,1.31-1.68,2.05-1.68c0.55,0,1.08,0.34,1.55,0.98c0.54,0.74,1.1,1.46,1.67,2.19
			c1.82,2.34,3.7,4.75,4.72,7.68c0.76,2.19-0.24,5.08-2.22,6.44C138.69,90.76,136.9,91.34,135.03,91.34z M135.97,84.19
			c-1.99,0-4.32,0.17-6.43,1.45c-0.65,0.4-1.05,1.08-1.08,1.88c-0.03,0.84,0.34,1.63,1,2.11c1.3,0.95,2.76,1.02,3.72,1.06
			c0.18,0.01,0.35,0.02,0.5,0.03c0.28,0.01,0.54,0.02,0.79,0.02c2.75,0,4.56-0.71,6.04-2.38c0.76-0.86,1.06-1.55,0.92-2.17
			c-0.13-0.6-0.65-1.06-1.64-1.45c-1.26-0.5-2.59-0.55-3.73-0.55H135.97z M134.65,73.26c-0.54,0-1.03,0.28-1.28,0.73
			c-1.96,3.51-3.57,6.96-4.94,10.55l-0.22,0.59l0.58-0.17c2.37-0.68,5.05-1.44,7.62-1.44c1.96,0,3.72,0.44,5.37,1.35l0.35,0.19
			l0.09-0.4c0.13-0.58-0.11-1.18-0.33-1.64c-1.16-2.43-2.72-4.61-4.24-6.72c-0.55-0.76-1.1-1.53-1.63-2.3
			C135.68,73.53,135.19,73.26,134.65,73.26z"/>
		<path d="M87.27,102.55c-0.36,0-0.71-0.04-1.05-0.13c-0.14-0.03-0.27-0.08-0.41-0.12c-0.19-0.06-0.39-0.12-0.58-0.16
			c-0.55-0.12-0.76-0.41-0.7-0.99c0.06-0.57,0.31-0.82,0.89-0.86c0.38-0.03,0.87-0.09,1.32-0.28c0.53-0.23,1.52-0.66,1.25-1.91
			c-0.22-1.04-0.86-1.63-1.84-1.71c-0.19-0.02-0.38-0.02-0.58-0.02c-0.72,0-1.49,0.1-2.41,0.32c-0.77,0.18-1.4,0.27-2,0.27
			c-0.66,0-1.26-0.11-1.83-0.34c-1.71-0.69-2.47-1.9-2.21-3.51c0.35-2.09,1.87-3.68,3.56-3.69c0,0,0.01,0,0.01,0
			c0.39,0,0.71,0.02,1.04,0.04l0.33,0.02c1.32,0.08,2.05,0.32,2.36,0.78c0.32,0.46,0.31,1.26-0.03,2.59l-0.1,0.4h0.39
			c0.29,0,0.57-0.01,0.86-0.01c0.28-0.01,0.56-0.01,0.83-0.01c0.32,0,0.64,0.01,0.96,0.03c1.74,0.13,3.18,0.89,3.96,2.09
			c0.71,1.1,0.83,2.49,0.36,4.01C91.09,101.21,89.24,102.55,87.27,102.55z M85.46,95.82c0.32,0,0.64,0.02,0.96,0.05
			c1.28,0.13,1.87,1.1,2.14,1.88c0.31,0.9,0.03,1.7-0.86,2.44c-0.47,0.4-1.04,0.6-1.87,0.81l-0.95,0.24l0.91,0.36
			c0.6,0.23,1.18,0.35,1.73,0.35c1.04,0,1.98-0.43,2.8-1.27c1.31-1.35,1.01-3.1,0.66-4.3c-0.52-1.81-1.93-2.26-3.1-2.45
			c-0.46-0.07-0.93-0.09-1.38-0.11l-0.42-0.02c-0.2-0.01-0.39-0.01-0.59-0.01c-1.12,0-2.25,0.14-3.33,0.28l-0.18,0.02
			c-0.08,0.01-0.16,0.02-0.23,0.02c-0.54,0-0.84-0.26-0.95-0.82c-0.12-0.61,0.11-1.02,0.75-1.33c0.28-0.13,0.56-0.2,0.84-0.2
			c0.22,0,0.44,0.04,0.67,0.12c0.17,0.07,0.31,0.11,0.45,0.11c0.13,0,0.44-0.05,0.55-0.49c0.14-0.53-0.07-0.94-0.56-1.1
			c-0.83-0.28-1.51-0.4-2.15-0.4c-0.49,0-0.97,0.08-1.4,0.24c-1.36,0.49-2.44,2.43-2.18,3.9c0.22,1.25,1.51,2.17,3.13,2.24
			c0.09,0,0.18,0.01,0.26,0.01c0.85,0,1.68-0.17,2.45-0.36C84.2,95.89,84.82,95.82,85.46,95.82z"/>
		<path d="M95.28,94.31c-0.17,0-0.39-0.14-0.61-0.28c-0.14-0.09-0.28-0.17-0.41-0.24c-1.74-0.81-3.19-2.14-4.58-3.42
			c-0.78-0.71-1.58-1.45-2.43-2.1c-0.43-0.33-0.49-0.74-0.18-1.21c0.41-0.61,0.9-1.09,1.47-1.43c0.2-0.12,0.39-0.18,0.56-0.18
			c0.35,0,0.68,0.27,1.04,0.85c0.03,0.04,0.05,0.1,0.08,0.15c0.11,0.22,0.29,0.59,0.67,0.59c0.12,0,0.24-0.04,0.37-0.11
			c0.58-0.34,0.95-0.69,1.15-1.06c0.28-0.55-0.23-0.85-0.45-0.98c-0.08-0.04-0.16-0.09-0.2-0.13c-0.21-0.19-0.45-0.32-0.68-0.44
			c-0.95-0.5-1.26-0.85-0.84-1.76c0.46-0.97,0.67-1.14,1.09-1.14c0.22,0,0.51,0.06,0.95,0.19c1.08,0.32,1.89,0.81,2.57,1.56
			c1.28,1.42,2.75,2.41,4.35,2.93c0.95,0.31,1.43,0.96,1.53,2.1c-0.12,0.28-0.18,0.6-0.24,0.91c-0.11,0.62-0.21,1.16-0.74,1.4
			c-0.21,0.1-0.42,0.15-0.65,0.15c-0.71,0-1.42-0.51-1.99-0.91c-0.08-0.06-0.16-0.15-0.24-0.25c-0.11-0.14-0.23-0.29-0.4-0.4
			c-0.22-0.14-0.46-0.21-0.7-0.21c-0.29,0-0.54,0.11-0.73,0.32c-0.39,0.43-0.05,0.86,0.1,1.04c0.04,0.05,0.08,0.09,0.1,0.14
			c0.28,0.46,0.56,0.91,0.87,1.34c0.55,0.75,0.24,1.29-0.34,2.08l-0.2,0.28C95.43,94.31,95.32,94.31,95.28,94.31z M88.88,86.28
			c-0.29,0-0.5,0.2-0.67,0.37c-0.05,0.05-0.11,0.11-0.17,0.15c-0.11,0.09-0.44,0.35-0.44,0.73c0,0.26,0.14,0.49,0.42,0.71
			c0.93,0.74,4.9,3.9,5.96,4.74c0.21,0.17,0.49,0.36,0.81,0.36c0.27,0,0.51-0.13,0.72-0.39c0.44-0.56,0.06-1.02-0.12-1.24
			c-0.05-0.06-0.09-0.11-0.13-0.17c-0.13-0.2-0.27-0.39-0.42-0.58c-0.34-0.44-0.67-0.86-0.68-1.43c-0.02-0.3,0.02-0.51,0.15-0.67
			c0.41-0.54,0.89-0.82,1.39-0.82c0.47,0,0.93,0.25,1.33,0.73c0.42,0.5,0.9,0.96,1.54,0.96c0.12,0,0.25-0.02,0.37-0.05
			c0.53-0.15,0.99-0.71,1.07-1.34c0.14-0.99-0.62-1.35-1.12-1.58l-0.22-0.11c-1.71-0.89-3.28-2.04-4.81-3.51
			c-0.49-0.48-1.13-0.81-1.94-1.01c-0.09-0.02-0.17-0.03-0.25-0.03c-0.25,0-0.59,0.11-0.8,0.61c-0.24,0.59,0.22,0.91,0.39,1.03
			l0.27,0.19c0.36,0.25,0.72,0.5,1.06,0.78c0.51,0.42,0.74,0.72,0.76,0.97c0.01,0.25-0.17,0.57-0.61,1.04
			c-0.79,0.85-1.27,1.37-1.6,1.37c-0.33,0-0.83-0.56-1.58-1.42C89.34,86.41,89.12,86.28,88.88,86.28z"/>
		<path d="M105.7,107.63c-0.81-0.01-1.2-0.11-1.38-0.32c-0.2-0.24-0.22-0.76-0.09-1.79c0.18-1.42,0.38-2.83,0.58-4.25
			c0.22-1.57,0.44-3.14,0.64-4.71c0.02-0.19,0.05-0.38,0.09-0.56c0.11-0.69,0.23-1.4,0.05-2.18c-0.03-0.11,0-0.22,0.08-0.33
			c0.19-0.26,0.64-0.44,1.11-0.44c0.15,0,0.31,0.02,0.45,0.05c0.59,0.14,1.17,0.46,1.55,0.69c1.39,0.83,2.96,1.76,4.47,2.77
			c0.28,0.18,0.55,0.37,0.82,0.56c1.06,0.73,2.16,1.48,3.38,2.01c1.01,0.43,1.55,1.29,1.54,2.4c-0.01,0.93-0.7,1.29-1.74,1.72
			c-2.88,1.19-5.76,2.38-8.63,3.56l-0.45,0.19c-0.76,0.32-1.47,0.63-2.25,0.63C105.84,107.64,105.77,107.63,105.7,107.63z
			 M107.5,94.14c-0.59,0-0.82,0.63-0.89,0.84c-0.48,1.33-0.75,2.72-0.83,4.25l-0.05,1.08c-0.08,1.89-0.15,3.85-0.74,5.67
			c-0.08,0.23-0.14,0.54,0.01,0.78c0.17,0.27,0.49,0.28,0.86,0.3l0.23,0.01c0,0,0.54-0.19,0.81-0.28c0.64-0.21,1.36-0.45,2.05-0.76
			c0.86-0.37,1.73-0.72,2.6-1.06c1.79-0.71,3.65-1.45,5.38-2.41c0.09-0.05,0.22-0.08,0.36-0.11c0.35-0.08,0.93-0.22,0.96-0.95
			c0.03-0.69-0.49-1.03-0.88-1.28l-0.21-0.14c-0.48-0.34-1-0.61-1.5-0.88c-0.71-0.37-1.38-0.73-1.96-1.26
			c-1.24-1.14-2.68-1.95-4.08-2.74c-0.49-0.28-0.98-0.55-1.46-0.84C107.92,94.22,107.7,94.14,107.5,94.14z"/>
		<path d="M102.83,86.98c-0.1,0-0.41,0-0.89-0.85c-1.34-2.34-2.96-5.07-4.85-7.64c-0.47-0.63-0.38-1.23,0.29-2.15
			c0.43-0.58,0.87-0.86,1.35-0.86c0.19,0,0.4,0.05,0.61,0.14c1.15,0.49,2.33,0.91,3.48,1.32c1.64,0.58,3.34,1.19,4.93,1.99
			c0.53,0.27,1.08,0.49,1.54,0.68c0.51,0.2,0.76,0.37,0.82,0.53c0.06,0.17-0.03,0.48-0.31,1c-0.59,1.13-0.82,1.39-1.23,1.39
			c-0.29,0-0.7-0.12-1.3-0.34c-1.04-0.37-2.05-0.6-3.07-0.7l-0.34-0.03l0.02,0.36c0.02,0.53,0.29,0.78,0.47,0.95
			c0.04,0.04,0.09,0.08,0.13,0.13c0.66,0.83,0.92,1.37,0.87,1.82c-0.06,0.46-0.45,0.94-1.37,1.63
			C103.47,86.71,103.12,86.98,102.83,86.98C102.83,86.98,102.83,86.98,102.83,86.98z M99.22,76.35c-0.43,0-0.64,0.38-0.77,0.64
			c-0.09,0.17-0.19,0.26-0.28,0.35c-0.25,0.24-0.73,0.68-0.27,1.39c1.47,2.27,2.96,4.53,4.44,6.79c0.16,0.24,0.36,0.55,0.76,0.55
			l0.13-0.01c0.37-0.04,0.74-0.35,0.94-0.79c0.2-0.45,0.2-0.92-0.01-1.27c-0.12-0.19-0.24-0.39-0.35-0.59
			c-0.28-0.48-0.57-0.97-0.92-1.42c-0.19-0.25-0.28-0.45-0.24-0.58c0.04-0.15,0.27-0.29,0.68-0.43c0.24-0.08,0.5-0.12,0.77-0.12
			c0.23,0,0.47,0.03,0.69,0.09c0.57,0.16,1.14,0.29,1.71,0.43c0.46,0.11,0.92,0.22,1.37,0.34c0.13,0.03,0.24,0.05,0.35,0.05
			c0.28,0,0.67-0.11,0.92-0.66c0.1-0.23,0.12-0.43,0.05-0.61c-0.11-0.27-0.37-0.36-0.58-0.44c-0.71-0.26-1.38-0.51-2.06-0.75
			c-2.3-0.83-4.69-1.68-6.9-2.85C99.5,76.39,99.35,76.35,99.22,76.35z"/>
		<path d="M115.77,165.04c-0.06,0-0.12-0.07-0.17-0.13c-0.15-0.21-0.1-0.41,0.15-0.61c0.33-0.26,0.67-0.5,1.02-0.73
			c5.98-3.76,12.45-6.43,18.56-8.75c3.8-1.45,7.71-2.93,11.69-3.91l1.3-0.32l0.08,0c0.45,0,0.47,0.13,0.48,0.27
			c0.02,0.19-0.02,0.27-0.5,0.4c-10.6,2.65-20.8,6.74-30.32,12.17l-0.34,0.19c-0.57,0.31-1.17,0.64-1.64,1.19
			C115.91,165.02,115.8,165.04,115.77,165.04z"/>
		<path d="M117.38,167.93c-0.03,0-0.1,0-0.22-0.2c-0.03-0.06-0.07-0.14-0.06-0.2c0.03-0.12,0.28-0.27,0.47-0.37
			c0.08-0.05,0.16-0.09,0.23-0.14c8.62-5.64,18.64-9.52,30.63-11.87c0.58-0.11,1.1-0.18,1.59-0.2c0,0,0.01,0,0.01,0
			c0.09,0,0.21,0.01,0.26,0.07c0.05,0.06,0.06,0.18,0.05,0.27c-0.02,0.09-0.07,0.18-0.47,0.23c-7.61,0.93-14.68,3.58-21.27,6.21
			c-3.4,1.36-6.84,3.24-10.49,5.76l-0.21,0.15C117.72,167.78,117.51,167.93,117.38,167.93z"/>
		<path d="M113.39,161.38c-0.04,0-0.12,0-0.21-0.17c-0.13-0.26-0.09-0.47,0.52-0.83c6.61-3.96,13.83-8,21.8-10.77l0.35-0.12
			c2.55-0.89,5.2-1.81,7.91-2.25c0.15-0.02,0.28-0.05,0.41-0.05c0.15,0,0.25,0.02,0.32,0.23c-0.08,0.27-0.28,0.33-0.7,0.39
			c-4.15,0.64-8.07,2.22-11.87,3.75l-0.3,0.12c-6.4,2.58-12,5.56-17.11,9.1c-0.17,0.12-0.34,0.23-0.52,0.33
			C113.75,161.26,113.53,161.38,113.39,161.38z"/>
		<path d="M110.68,158.72c-0.02,0-0.05,0-0.11-0.09c-0.07-0.11-0.07-0.18-0.06-0.22c0.03-0.12,0.17-0.27,0.4-0.4
			c0.79-0.46,1.58-0.91,2.37-1.37c0.92-0.52,1.83-1.04,2.74-1.58l0.89-0.53c4.18-2.49,8.5-5.07,13.1-6.86
			c0.56-0.22,1.11-0.44,1.67-0.66c2.36-0.94,4.8-1.91,7.3-2.52c0.9-0.22,1.72-0.41,2.58-0.48c0.07-0.01,0.14-0.01,0.21-0.01
			c0.24,0,0.24,0.07,0.26,0.18c0.02,0.17,0.04,0.3-0.46,0.39c-7.13,1.39-14.35,4.4-22.73,9.46c-1.61,0.97-3.24,1.91-4.87,2.84
			c-0.93,0.53-1.86,1.07-2.78,1.61l-0.1,0.06C110.95,158.62,110.78,158.72,110.68,158.72z"/>
		<path d="M104.9,149.49c-0.03,0-0.09,0-0.17-0.12c-0.07-0.1-0.11-0.18-0.1-0.23c0.02-0.11,0.24-0.27,0.42-0.39l0.17-0.12
			c6.84-5.03,14.99-9.12,24.9-12.5c0.96-0.33,1.97-0.55,2.96-0.77c0.41-0.09,0.81-0.18,1.21-0.28c0.14-0.03,0.29-0.07,0.41-0.07
			c0.12,0,0.22,0,0.26,0.29c-0.04,0.19-0.17,0.23-0.52,0.3l-0.11,0.02c-8,1.74-15.33,5.37-21.44,8.69
			c-2.84,1.54-5.25,3.12-7.37,4.81C105.29,149.3,105.06,149.49,104.9,149.49z"/>
		<path d="M103.86,146.73c-0.01,0-0.06,0-0.13-0.06c-0.12-0.1-0.12-0.18-0.12-0.21c0-0.1,0.07-0.23,0.2-0.35l0.23-0.22
			c0.47-0.45,0.97-0.91,1.5-1.25c10.24-6.64,18.68-10.34,27.36-11.97c0.16-0.03,0.29-0.05,0.41-0.05c0.15,0,0.23,0.03,0.26,0.06
			c0.02,0.02,0.03,0.08,0.03,0.16c-0.03,0.28-0.17,0.34-0.67,0.42c-4.66,0.71-9.43,2.31-15.02,5.03c-4.08,1.98-7.74,3.81-11.15,6.14
			l-0.15,0.1c-0.84,0.57-1.71,1.16-2.41,1.98C104.07,146.64,103.95,146.73,103.86,146.73z"/>
		<path d="M109.4,155.59c-0.03,0-0.1,0-0.2-0.17c-0.07-0.11-0.06-0.17-0.05-0.18c0.03-0.16,0.32-0.35,0.53-0.48
			c4.92-3.24,10.26-6.59,16.1-9.29c4.75-2.2,8.5-3.58,12.14-4.45l0.18-0.05c0.15-0.04,0.29-0.08,0.4-0.08c0.08,0,0.16,0,0.22,0.29
			c-0.04,0.21-0.17,0.27-0.57,0.37c-10.94,2.71-20.32,8.43-28.05,13.66l-0.16,0.11C109.73,155.44,109.53,155.59,109.4,155.59z"/>
		<path d="M107.01,152.31c-0.03,0-0.08-0.04-0.12-0.11c-0.07-0.11-0.1-0.19-0.09-0.26c0.02-0.15,0.27-0.32,0.46-0.46
			c1.35-0.98,2.84-1.79,4.28-2.57c0.48-0.26,0.97-0.53,1.45-0.79c4.94-2.77,10.45-5.36,16.85-7.92c2.13-0.85,4.4-1.33,6.33-1.69
			c0.38,0,0.39,0.12,0.4,0.23c0.01,0.13,0.03,0.32-0.47,0.39c-5.19,0.73-9.93,3.01-14.5,5.21c-0.63,0.3-1.26,0.61-1.89,0.9
			c-4.25,2.02-8.39,4.05-12.24,6.81C107.27,152.19,107.1,152.31,107.01,152.31z"/>
		<path d="M109.63,132.6c-1.57,0-3.29-1.7-3.29-3.26c0-0.83,0.29-1.57,0.83-2.14c0.66-0.7,1.66-1.08,2.79-1.08
			c1.91,0.01,2.67,0.99,2.71,3.49c0.01,0.47-0.34,1.14-0.92,1.76c-0.68,0.74-1.51,1.22-2.09,1.22L109.63,132.6z M109.28,126.96
			c-0.87,0-1.41,0.66-1.75,1.16c-0.35,0.52-0.62,1.39,0.07,2.58c0.32,0.55,0.79,0.83,1.41,0.83c0,0,0,0,0,0
			c0.21,0,0.43-0.03,0.69-0.09c1.38-0.33,2.05-1.25,2.05-2.79c-0.04-0.19-0.04-0.33-0.05-0.47c-0.03-0.43-0.08-1.16-0.8-1.16
			c-0.21,0-0.46,0.07-0.76,0.21c0.04-0.02-0.04-0.06-0.09-0.09c-0.1-0.05-0.2-0.1-0.29-0.12
			C109.6,126.98,109.44,126.96,109.28,126.96z"/>
		<path d="M116.25,131.06c-1.03-0.03-2.11-1.32-2.08-2.49c0.02-1.31,0.87-2.51,1.78-2.51c1.35,0.07,2.52,1.47,2.5,2.94
			c-0.02,1.15-0.95,2.06-2.12,2.06L116.25,131.06z M115.89,126.94c-0.34,0-0.6,0.1-0.78,0.29c-0.28,0.3-0.28,0.75-0.26,1.14
			c0.02,0.41,0.07,1.67,1.25,1.67c0.54-0.03,1.29-0.27,1.31-1.66c0.02-0.89-0.44-1.38-1.38-1.44L115.89,126.94z"/>
		<path d="M150.07,115.93c-1.18,0-2.54-0.57-3.04-1.27c-0.25-0.36-0.33-0.76-0.24-1.31c0.29-0.69-0.26-1.18-0.5-1.38
			c-0.67-0.58-0.84-1.19-0.52-1.85c0.37-0.75,0.91-1.13,1.62-1.13c0.08,0,0.16,0,0.25,0.01l0.13,0.02c0.1,0.01,0.19,0.03,0.28,0.03
			c0.35,0,0.6-0.19,0.78-0.6c0.3-0.65,0.72-1.01,1.21-1.01c0.34,0,0.7,0.18,1.03,0.53c0.41,0.42,0.82,0.61,1.33,0.61
			c0.19,0,0.38-0.02,0.6-0.06c0.3-0.05,0.59-0.08,0.85-0.08c0.83,0,1.85,0.25,2.04,1.45c0.09,0.62-0.09,1.29-0.51,1.86
			c-0.46,0.62-1.14,1.02-1.86,1.08c-0.9,0.08-1.42,0.36-1.44,1.52c-0.02,0.8-0.69,1.22-1.09,1.41
			C150.74,115.87,150.43,115.93,150.07,115.93z M148.13,112.95c-0.19,0-0.77,0-0.83,0.73c-0.07,0.87,0.69,1.18,1.15,1.36
			c0.47,0.19,0.97,0.29,1.48,0.32l0.12,0c0.62,0,1.13-0.27,1.39-0.73c0.27-0.47,0.24-1.08-0.07-1.67c-0.06-0.12-0.15-0.23-0.24-0.34
			c-0.24-0.29-0.23-0.33-0.13-0.45c0.09-0.11,0.16-0.13,0.25-0.13c0.12,0,0.26,0.05,0.42,0.1c0.11,0.04,0.23,0.08,0.34,0.1
			c0.34,0.07,0.66,0.11,0.96,0.11c1.07,0,1.84-0.47,2.23-1.36c0.34-0.78,0.22-1.39-0.37-1.8c-0.28-0.2-0.68-0.24-0.97-0.24
			c-0.72,0-1.65,0.26-2.02,0.75c-0.09,0.12-0.16,0.26-0.22,0.39c-0.13,0.28-0.19,0.37-0.29,0.37c-0.03,0-0.07-0.01-0.12-0.02
			c-0.25-0.08-0.28-0.18-0.2-0.7c0.02-0.12,0.04-0.24,0.04-0.35c0.04-0.66-0.19-1.09-0.69-1.28c-0.12-0.04-0.22-0.07-0.32-0.07
			c-0.4,0-0.57,0.33-0.69,0.54c-0.04,0.07-0.07,0.15-0.12,0.21c-0.42,0.52-0.77,0.85-1.25,0.85c-0.07,0-0.15-0.01-0.22-0.02
			c-0.12-0.02-0.24-0.04-0.36-0.04c-0.56,0-0.95,0.3-1.1,0.84c-0.22,0.78,0.35,1.16,0.73,1.4l0.1,0.06c0.3,0.2,0.61,0.3,0.93,0.3
			c0.29,0,0.6-0.08,0.92-0.25c0.1-0.05,0.2-0.08,0.27-0.08c0.04,0,0.12,0,0.19,0.16c0.09,0.2,0.03,0.39-0.18,0.55
			c-0.16,0.13-0.38,0.22-0.6,0.31l-0.11,0.05c-0.05,0.02-0.15,0.02-0.19,0.02L148.13,112.95z"/>
		<path d="M163.33,148.58c-0.02,0-0.08,0-0.16-0.12c-0.12-0.17-0.14-0.24,0.34-0.63c1.79-1.44,3.65-2.67,5.53-3.65l1.94-1.02
			c4.07-2.15,8.27-4.37,12.71-5.79c2.41-0.77,4.59-1.44,6.83-1.95l1.22-0.27c0.47,0.01,0.52,0.06,0.54,0.25
			c0.01,0.15,0.02,0.19-0.38,0.27l-0.18,0.04c-0.5,0.12-0.99,0.24-1.49,0.36c-0.91,0.21-1.82,0.43-2.72,0.68
			c-6.89,1.93-13.75,5.1-21.58,9.99c-0.51,0.32-0.99,0.69-1.45,1.05c-0.21,0.17-0.43,0.33-0.64,0.5
			C163.64,148.43,163.45,148.58,163.33,148.58z"/>
		<path d="M154.69,136.9c-0.13,0-0.24-0.05-0.34-0.17c-0.19-0.21-0.24-0.47-0.13-0.79c0.04-0.11,0.12-0.3,0.26-0.3
			c0.04,0,0.08,0.01,0.13,0.04c0.16,0.09,0.33,0.15,0.49,0.15c0.33,0,0.55-0.2,0.71-0.35c0.05-0.05,0.1-0.1,0.16-0.13
			c5.76-3.83,11.96-6.97,18.98-9.6c0.55-0.2,1.1-0.4,1.64-0.6c0.73-0.27,1.46-0.53,2.19-0.81c0.62-0.24,1.35-0.5,2.12-0.51
			c0,0,0,0,0,0c0.35,0,0.37,0.15,0.38,0.2c0.02,0.13,0.04,0.22-0.38,0.34c-8.39,2.28-16.04,6.29-21.77,9.53
			c-1.48,0.84-2.64,1.65-3.63,2.55c-0.17,0.15-0.3,0.27-0.45,0.35C154.92,136.86,154.8,136.9,154.69,136.9z"/>
		<path d="M161.7,145.56c-0.01,0-0.06-0.02-0.13-0.13c-0.06-0.1-0.09-0.18-0.08-0.24c0.03-0.16,0.29-0.34,0.49-0.49l0.1-0.07
			c2.21-1.61,4.08-2.73,5.89-3.53c1.81-0.8,3.62-1.68,5.37-2.53c3-1.46,6.1-2.96,9.28-4.11c1.32-0.48,2.69-0.86,4.02-1.22
			c0.53-0.14,1.05-0.29,1.57-0.44c0.17-0.05,0.3-0.07,0.39-0.07c0.1,0,0.22,0,0.29,0.26c-0.06,0.22-0.21,0.3-0.59,0.39
			c-6.28,1.4-12.09,4.31-17.7,7.13c-1.36,0.68-2.72,1.36-4.08,2.02c-0.98,0.47-1.9,1.08-2.79,1.67c-0.46,0.3-0.92,0.61-1.39,0.89
			c-0.1,0.06-0.2,0.15-0.31,0.24C161.93,145.43,161.77,145.56,161.7,145.56z"/>
		<path d="M159.43,143c-0.09,0-0.18-0.03-0.27-0.1c-0.03-0.03-0.14-0.1-0.08-0.4c0.04-0.19,0.11-0.22,0.43-0.3
			c0.08-0.02,0.16-0.04,0.24-0.07c0.55-0.18,1.05-0.5,1.53-0.81c7.52-4.84,15.43-8.54,23.49-10.99c0.08-0.02,0.16-0.05,0.24-0.08
			c0.16-0.06,0.32-0.12,0.44-0.12c0.06,0,0.14,0,0.23,0.21c-0.11,0.29-0.34,0.39-0.74,0.49c-2.57,0.63-5.02,1.68-7.39,2.7
			c-0.89,0.38-1.77,0.76-2.66,1.12c-5.05,2.04-9.62,4.8-14.24,7.7l-0.65,0.42C159.82,142.87,159.61,143,159.43,143z"/>
		<path d="M156.99,140.43c-0.11-0.06-0.22-0.14-0.26-0.27c-0.03-0.11,0.01-0.26,0.12-0.39c0.35-0.46,0.84-0.79,1.18-0.99
			c7.09-4.03,15.58-8.51,24.83-11.18l0.14-0.04c0.15-0.05,0.3-0.09,0.42-0.09c0.08,0,0.13,0.01,0.18,0.15
			c0.03,0.08,0.03,0.14,0.01,0.17c-0.05,0.11-0.31,0.21-0.5,0.28c-1.11,0.41-2.2,0.75-3.25,1.08c-1.5,0.47-3.05,0.96-4.54,1.59
			c-5.37,2.28-10.87,5-16.32,8.06l-0.24,0.13c-0.56,0.3-1.19,0.65-1.56,1.36C157.19,140.34,157.15,140.42,156.99,140.43z"/>
		<path d="M151.29,134.21c-0.04,0-0.1-0.07-0.16-0.18c-0.11-0.2-0.15-0.39,0.39-0.74c6.03-3.97,11.27-6.79,16.5-8.88
			c1.96-0.78,4.03-1.27,6.03-1.73c0.96-0.22,1.93-0.45,2.88-0.71c0.15-0.04,0.28-0.06,0.39-0.06c0.19,0,0.31,0.06,0.4,0.19
			c-0.03,0.2-0.14,0.28-0.44,0.35l-0.64,0.15c-0.44,0.11-0.89,0.21-1.33,0.3c-7.54,1.57-14.99,5.05-23.46,10.95l-0.18,0.13
			C151.55,134.08,151.38,134.21,151.29,134.21z"/>
		<path d="M147.85,128c-0.14,0-0.27-0.1-0.35-0.19c-0.09-0.1-0.22-0.24,0.13-0.6c0.11-0.11,0.26-0.23,0.44-0.33
			c6.59-3.7,13.4-7.53,20.91-9.58c0.85-0.23,1.7-0.42,2.56-0.6c0.55-0.12,1.1-0.24,1.64-0.37c0.16-0.04,0.28-0.06,0.37-0.06
			c0.16,0,0.27,0.04,0.35,0.22c-0.07,0.25-0.23,0.32-0.58,0.38c-4.64,0.77-9.4,2.4-14.98,5.13c-2.08,1.02-4.16,2.14-6.16,3.23
			c-1.04,0.57-2.08,1.13-3.13,1.68c-0.35,0.19-0.56,0.46-0.76,0.72l-0.13,0.17C148.07,127.94,147.96,128,147.85,128z"/>
		<path d="M149.62,130.52c-0.06,0-0.14-0.02-0.23-0.15c-0.04-0.05-0.09-0.14-0.08-0.2c0.02-0.11,0.24-0.28,0.4-0.39l0.11-0.08
			c4.78-3.57,10.37-5.52,15.78-7.41l0.77-0.27c1.82-0.64,3.72-1.15,5.55-1.66c0.79-0.22,1.58-0.43,2.37-0.66
			c0.22-0.06,0.44-0.1,0.64-0.13l0.28-0.05c0.47,0,0.48,0.1,0.49,0.19c0.02,0.23-0.02,0.29-0.54,0.41
			c-7.84,1.86-14.64,4.27-20.85,7.38c-1.41,0.7-2.88,1.52-4.15,2.71C149.95,130.41,149.76,130.52,149.62,130.52z"/>
		<path d="M251.28,88.67c-3.05,0-6.15-0.1-9.15-0.2c-2.24-0.07-4.47-0.14-6.71-0.18c-2.38-0.04-4.76-0.11-7.14-0.18
			c-3.33-0.1-6.78-0.2-10.17-0.2c-1.67,0-3.2,0.02-4.68,0.07c-0.13,0-0.27,0.02-0.41,0.03c-0.17,0.02-0.34,0.04-0.5,0.04
			c-0.45,0-0.66-0.14-0.75-0.51c-0.1-0.41,0.12-0.58,0.69-0.9c0.19-0.1,0.37-0.21,0.53-0.33c0.68-0.54,1.47-0.8,2.43-0.8
			c3.23,0,19.02,0,19.02,0l0,0.38l1.71-0.01c4.22,0,8.51,0.13,12.66,0.25c1.66,0.05,3.32,0.1,4.98,0.14l0.38,0.01
			c0.18,0,0.33-0.02,0.46-0.06c0.32-0.09,0.57-0.17,0.78-0.17c0.2,0,0.41,0.05,0.53,0.6c0.11,0.52,0.05,0.98-0.17,1.32
			c-0.2,0.31-0.53,0.51-0.95,0.59c-0.24,0.04-0.48,0.04-0.72,0.04l-0.24,0C252.98,88.66,252.13,88.67,251.28,88.67z M216.65,87.4
			c5.42,0,10.87,0.15,16.14,0.29c5.19,0.14,10.56,0.28,15.83,0.28c2.25,0,4.32-0.03,6.34-0.08l0.56-0.01l-0.32-0.48
			c-0.37-0.56-0.88-0.56-1.12-0.56l-0.24,0c-1.71-0.04-3.36-0.08-5.01-0.12l-5.88-0.12c-8.87-0.18-17.75-0.37-26.62-0.52l-0.47-0.01
			c-0.75,0-1.57,0.09-2.51,0.76l-0.81,0.59l0.99-0.01C214.56,87.41,215.61,87.4,216.65,87.4z"/>
		<path d="M252.52,91.9c-3.5,0-7.15-0.06-11.17-0.18c-1.01-0.03-2.02-0.04-3.03-0.04c-0.83,0-1.66,0.01-2.49,0.01
			c-0.73,0.01-1.46,0.01-2.2,0.01l-0.29-0.01c0,0-17.04,0-21.47,0c-0.47,0-0.97-0.04-1.47-0.11c-0.17-0.02-0.24-0.13-0.23-0.32
			c0.01-0.12,0.03-0.29,0.4-0.29c5.4,0.07,10.87,0.07,16.16,0.08c8.73,0.01,17.76,0.02,26.63,0.31l0.24,0.01
			c0.22,0.01,0.45,0.02,0.67,0.02c0.53,0,0.93-0.05,1.32-0.15c0.21-0.06,0.39-0.09,0.54-0.09c0.37,0,0.42,0.16,0.44,0.32
			c0.01,0.11,0.01,0.25-0.05,0.32c-0.09,0.11-0.37,0.11-0.46,0.11l-0.47-0.01C254.55,91.9,253.53,91.9,252.52,91.9z"/>
		<path d="M244.06,83.59c-1.27,0-2.42-0.39-3-1.02c-0.39-0.42-0.59-1-0.78-1.55c-0.07-0.22-0.15-0.43-0.23-0.63
			c-0.05-0.13-0.03-0.21,0-0.26c0.12-0.26,0.62-0.52,1.3-0.69c0.15-0.04,0.33-0.06,0.55-0.06c0.16,0,0.33,0.01,0.5,0.02
			c0.18,0.01,0.35,0.02,0.53,0.02c0.12,0,0.23-0.01,0.33-0.01c0.98,0,1.99,0.17,3.08,0.51c0.61,0.19,1.03,0.59,1.15,1.09
			c0.13,0.52-0.06,1.1-0.51,1.6C246.4,83.21,245.29,83.59,244.06,83.59z M242.15,80.07c-0.42,0-0.72,0.18-0.9,0.56
			c-0.23,0.47-0.18,1.01,0.15,1.46c0.51,0.71,1.72,0.96,2.68,0.96h0c1.23,0,2.2-0.36,2.6-0.95c0.34-0.51,0.3-0.88,0.21-1.09
			c-0.08-0.21-0.3-0.47-0.83-0.56c-0.69-0.11-1.39-0.19-2.13-0.27l-1.08-0.12l-0.07,0.03c-0.02,0.01-0.06,0.02-0.12,0.02
			c-0.07,0-0.14-0.01-0.22-0.02C242.34,80.08,242.24,80.07,242.15,80.07z"/>
		<path d="M218.61,82.81c-0.94,0-1.83-0.26-2.5-0.72c-0.87-0.61-1.07-1.4-0.61-2.36c0.38-0.78,1.44-1.51,2.19-1.51
			c0.1,0,0.19,0.01,0.26,0.04c0.15,0.05,0.24,0.13,0.26,0.16l-0.11,0.14c-0.22,0.42-0.49,0.94-0.8,0.94
			c-0.13-0.01-0.23-0.01-0.33-0.01c-0.46,0-1.09,0.11-1.14,1.06c-0.05,0.98,0.78,1.27,1.27,1.44c0.62,0.22,1.13,0.32,1.62,0.32l0,0
			c0.58,0,1.11-0.14,1.62-0.43l0.25-0.14l-0.11-0.27c-0.03-0.06-0.04-0.11-0.06-0.15c-0.04-0.11-0.07-0.21-0.17-0.3
			c-0.71-0.6-0.96-0.97-0.52-1.55c0.19-0.26,0.43-0.38,0.72-0.38c0.25,0,0.54,0.09,0.87,0.27c0.64,0.35,0.85,0.95,0.63,1.79
			c-0.11,0.41-0.45,0.7-0.76,0.92C220.49,82.54,219.58,82.81,218.61,82.81z"/>
		<path d="M227,82.74c-0.56,0-1.06-0.22-1.51-0.68c-0.09-0.09-0.16-0.19-0.23-0.29c-0.22-0.31-0.5-0.69-1.09-0.74
			c-0.13-0.01-0.14-0.35-0.13-0.53c0.05-1.06,1.71-2.36,3-2.36c1.64,0.05,2.45,0.92,2.43,2.5c0.04,0.86-0.34,1.41-1.26,1.81
			C227.78,82.64,227.37,82.74,227,82.74z M227.8,78.83c-0.43,0-0.44,0.5-0.45,0.72c0,0.07,0,0.19-0.02,0.22
			c-0.11,0.04-0.3,0.13-0.49,0.22l-0.19,0.09c-0.06,0.03-0.13,0.06-0.2,0.09c-0.32,0.13-0.91,0.37-0.78,1.07
			c0.16,0.83,1.06,0.92,1.35,0.95l0.03,0l0.14-0.02c0.47-0.07,1-0.14,1.36-0.59c0.32-0.39,0.48-0.83,0.45-1.28
			c-0.03-0.44-0.24-0.83-0.59-1.15C228.15,78.93,227.97,78.83,227.8,78.83z"/>
		<path d="M235.51,83.12c-0.73,0-1.44-0.05-2.11-0.15c-0.86-0.12-1.24-0.6-1.17-1.48c0-0.06,0.01-0.13,0.02-0.19
			c0.04-0.25,0.08-0.56-0.11-0.89c-0.14-0.25-0.41-0.7-0.41-0.83c0.01,0,0.04,0,0.08,0c0.17,0,0.56-0.01,0.81-0.02
			c0.41-0.01,0.81-0.04,1.22-0.07l0.56-0.04l1.53,0c1.39,0,1.39,0.12,1.39,1.24c0,0.99-0.16,1.64-0.5,2
			c-0.27,0.29-0.7,0.43-1.3,0.43L235.51,83.12z M235.05,82.57c0.08,0,0.16,0.01,0.24,0.01c0.1,0.01,0.2,0.02,0.3,0.02
			c0.16,0,0.65,0,0.96-0.53c0.43-0.74,0.3-1.21,0.12-1.48c-0.23-0.34-0.57-0.51-1-0.51c-0.21,0-0.44,0.04-0.64,0.08l-0.18,0.03
			c-0.11,0.02-0.24,0.03-0.37,0.04c-0.62,0.06-1.67,0.17-1.65,1.31c0.02,0.97,0.82,0.97,1.08,0.97l0.44-0.01
			c0.09,0,0.23,0,0.33,0.04l0.04,0.01l0.25,0.01L235.05,82.57z"/>
		<path d="M251.69,82.52c-0.5,0-0.98-0.18-1.41-0.54c-0.94-0.77-1.38-1.6-1.35-2.55c0.01-0.33,0.09-0.57,0.39-0.69l0.21,0.75
			c0.56,2.04,1.48,2.47,2.16,2.47c0.19,0,0.38-0.04,0.58-0.1c0.42-0.15,0.7-0.37,0.84-0.67c0.11-0.24,0.12-0.51,0.03-0.81
			c-0.16-0.48-0.72-0.84-1.11-0.84c-0.17,0-0.32,0.07-0.41,0.2c-0.13,0.18-0.32,0.4-0.48,0.4c-0.18,0-0.42-0.26-0.67-0.53
			c-0.14-0.15-0.29-0.3-0.45-0.45l-0.53-0.48c0.13-0.03,0.29-0.05,0.49-0.05c0.11,0,0.23,0.01,0.36,0.01
			c0.71,0.09,1.61,0.19,2.42,0.61c0.66,0.34,1.04,0.66,1.02,1.26c-0.03,0.84-0.38,1.43-1.04,1.74
			C252.38,82.44,252.03,82.52,251.69,82.52z"/>
		<path d="M108.93,73.88c-0.18,0-0.37-0.05-0.57-0.14c-0.25-0.12-0.51-0.25-0.74-0.41c-0.15-0.11-0.33-0.2-0.5-0.29
			c-0.59-0.3-0.87-0.48-0.69-1.12c0.17-0.61,1.02-1.15,1.81-1.15c0.12,0,0.24,0.01,0.35,0.04c1.05,0.23,1.36,1.04,1.43,1.67
			C110.03,73.29,109.57,73.88,108.93,73.88z"/>
		<path d="M100.8,80.24c-0.43-0.04-0.54-0.66-0.54-0.98c0-0.27,0.15-0.4,0.43-0.4c0.72,0.08,0.9,0.38,0.96,0.63
			c-0.13,0.46-0.44,0.76-0.8,0.76L100.8,80.24z"/>
	</g>
</g>
</svg>
