<?xml version="1.0" encoding="utf-8"?>
<!-- Generator: Adobe Illustrator 23.0.2, SVG Export Plug-In . SVG Version: 6.00 Build 0)  -->
<svg version="1.1" xmlns="http://www.w3.org/2000/svg" xmlns:xlink="http://www.w3.org/1999/xlink" x="0px" y="0px"
   viewBox="0 0 841.89 595.28" style="enable-background:new 0 0 841.89 595.28;" xml:space="preserve">
<style type="text/css">
  .st0{fill:#FFDD00;}
  .st1{fill:#1D70B7;}
  .st2{fill:#CBF4FF;}
  .st3{fill:#9C9B9B;}
  .st4{fill:#FFFFFF;}
  .st5{fill:#FF8438;}
  .st6{fill:#50E3C2;}
  .st7{fill:#FF5F70;}
  .st8{fill:#FFDD4C;}
  .st9{fill:#1D1D1B;}
</style>
<g id="colour">
</g>
<g id="black_outline">
  <g id="_x31_Ts6ZX_2_">
    <g>
      <path d="M611.26,295.56c-3.16,3.21-6.04,6.2-9,9.11c-2.79,2.75-5.56,5.52-9,7.5c-0.77,0.44-2.02,0.4-2.22,1.38
        c-0.16,0.8,0.29,1.71,0.45,2.57c0.85,4.4,2.07,8.74,2.48,13.2c1.05,11.22,2.84,22.38,3.2,33.66c0.28,8.74,0.89,17.49,0.23,26.24
        c-0.11,1.43,0.07,2.97-1.04,4.21c-0.26,0.29-0.14,0.92-0.18,1.4c-0.45,5.37-1.83,10.44-4.82,15c-1.05,1.6-1.63,3.47-2.75,5.04
        c-0.32,0.45-0.55,1.01-0.96,1.37c-2.16,1.92-3.78,4.35-5.92,6.28c-1.31,1.19-2.27,2.68-3.48,3.96
        c-7.46,7.84-16.66,12.36-27.25,14.22c-3.31,0.58-6.62,1.13-9.97,1.41c-3.1,0.26-6.15-0.22-9.19-0.7
        c-2.68-0.42-5.38-0.77-8.03-1.42c-3.32-0.81-6.38-2.26-9.51-3.57c-2.51-1.04-4.81-2.48-7.27-3.63c-2.87-1.34-5.56-3.17-7.48-5.85
        c-0.43-0.6-0.95-1.08-1.49-1.55c-1.8-1.56-3.37-3.3-4.31-5.54c-0.26-0.61-0.78-1-1.23-1.45c-2.71-2.73-4.82-5.84-6.16-9.47
        c-0.44-1.2-1-2.36-1.16-3.65c-0.06-0.44-0.17-0.69-0.76-0.59c-3.05,0.54-6.13,0.23-9.2,0.15c-2.41-0.06-4.73,0.68-7.13,0.79
        c-3.76,0.17-7.43,1.08-11.17,1.51c-9.78,1.12-19.56,0.75-29.35,0.12c-4.07-0.26-8.15-0.32-12.23,0.08
        c-4.47,0.44-8.96,0.03-13.42,0.49c-10.03,1.03-20.13,0.8-30.18,1.6c-4.27,0.34-8.46,1.26-12.73,1.63
        c-2.39,0.21-4.76,0.63-7.16,0.67c-7.93,0.14-15.76,1.46-23.64,2.16c-7.09,0.63-14.18,1.16-21.31,0.87
        c-2.36-0.1-4.72-0.04-7.08-0.04c-0.28,0-0.67-0.04-0.81,0.12c-0.99,1.09-2.26,0.77-3.48,0.81c-3.91,0.14-7.83,0.04-11.69,0.94
        c-3,0.7-3.39,0.39-4.86-2.34c-0.65,0.82-1.08,1.71-1.45,2.63c-2.68,6.51-6.46,12.28-11.52,17.2c-0.49,0.47-0.94,0.99-1.32,1.54
        c-3.18,4.57-7.16,8.43-11.5,11.82c-5.53,4.33-11.95,6.71-19,7.25c-1.44,0.11-2.88,0.14-4.3,0.34
        c-5.51,0.74-10.84-0.35-16.14-1.61c-0.93-0.22-1.81-0.63-2.69-1.01c-4.23-1.79-8.54-3.47-12.53-5.72
        c-3.92-2.2-7.74-4.6-10.85-8.01c-2.72-2.98-5.92-5.52-8.22-8.88c-1.85-2.7-3.81-5.34-5.52-8.14c-1.08-1.77-2.51-3.3-3.51-5.15
        c-0.53-0.98-1.18-1.91-1.47-3c-0.24-0.92-0.76-1.09-1.61-0.75c-0.82,0.32-1.68,0.54-2.51,0.81c-0.82,0.27-1.56,0.23-2.43-0.09
        c-1.16-0.44-2.47-0.29-3.63,0.14c-1.7,0.63-3.47,1.08-5.22,1.31c-2.32,0.3-4.65-0.31-6.72-1.39c-3.73-1.95-7.6-3.49-11.6-4.79
        c-1.81-0.59-3.25-1.85-4.22-3.56c-0.67-1.18-1.35-2.36-1.98-3.57c-0.8-1.53-1.36-3.13-1.44-4.9c-0.13-2.87-0.58-5.74-0.57-8.61
        c0.02-7.57,0.76-15.08,2.1-22.54c1.96-10.98,3.75-21.99,5.81-32.96c0.96-5.09,1.88-10.24,4.15-14.99
        c0.44-0.93,0.66-1.97,0.96-2.96c0.24-0.8,0.12-1.82,1.4-1.91c0.2-0.01,0.38-0.48,0.55-0.75c1.1-1.74,2.46-3.23,4-4.59
        c1.86-1.64,3.6-3.41,5.44-5.07c5.25-4.74,10.93-8.97,16.38-13.48c3.72-3.08,7.81-5.71,11.82-8.41c2.49-1.68,4.84-3.54,7.26-5.32
        c2.55-1.88,5.28-3.47,7.98-5.1c9.08-5.47,17.89-11.35,26.92-16.9c5.17-3.18,10.46-6.19,15.57-9.47
        c8.35-5.35,16.52-10.98,24.27-17.18c0.25-0.2,0.51-0.4,0.78-0.55c3.51-2.01,6.74-4.44,10.06-6.74
        c6.04-4.2,12.25-8.13,18.66-11.76c2.98-1.69,5.76-3.75,8.63-5.65c1.71-1.13,3.52-2.06,5.42-2.81c1.23-0.48,2.4-1.09,3.54-1.75
        c6.67-3.88,13.31-7.85,20.45-10.79c7.06-2.91,14.3-5.24,21.89-6.56c9.44-1.64,18.92-2.61,28.46-3.18
        c10.06-0.59,20.14-0.77,30.19-1.42c9.22-0.59,18.45-0.77,27.67-1.33c9.61-0.58,19.27-1.21,28.88-0.28
        c8.82,0.85,17.61,1.86,26.15,4.66c7.91,2.59,15.53,5.69,22.78,9.74c2.13,1.19,4.18,2.54,5.94,4.24c2.94,2.82,6.21,5.28,9.03,8.25
        c3.92,4.14,7.29,8.71,10.71,13.24c2.7,3.57,5.21,7.28,7.72,10.99c1.9,2.8,3.72,5.69,6.05,8.19c1.4,1.5,2.45,3.28,3.38,5.09
        c1.48,2.89,3.31,5.56,5.04,8.3c1.69,2.67,2.99,5.57,4.36,8.41c3.02,6.27,6,12.55,8.9,18.88c3.05,6.66,5.5,13.55,7.88,20.47
        c1.08,3.14,2.17,6.27,3.05,9.47c0.31,1.13,0.76,1.1,1.69,0.74c4.84-1.87,8.76-5.01,12.42-8.6c3.37-3.32,6.37-6.96,9.45-10.52
        c0.69-0.8,0.97-1.61,0.81-2.73c-0.68-4.73-0.52-9.5-0.57-14.25c-0.11-10.64,0.35-21.27,0.18-31.91c-0.11-7-0.49-13.98-0.8-20.97
        c-0.47-10.59-0.03-21.19-0.03-31.79c0-1.8-0.01-3.6-0.02-5.4c-0.01-1.02,0.24-1.99,0.66-2.9c0.56-1.18,1.37-1.91,2.86-1.95
        c4.2-0.1,8.39-0.12,12.59-0.01c2.51,0.06,5.03-0.2,7.53-0.44c3-0.3,6-0.36,8.99-0.18c5.21,0.32,10.39-0.22,15.59-0.21
        c3.56,0.01,7.11-0.25,10.67-0.4c1.23-0.05,1.71,0.5,1.4,1.66c-0.05,0.19-0.16,0.39-0.13,0.57c0.71,4.21,0.18,8.46,0.51,12.69
        c0.59,7.62,0.05,15.27,0.54,22.9c0.84,12.97,0.69,25.98,1.28,38.96c0.37,8.03,0.53,16.07,0.76,24.1
        c0.24,8.42-0.14,16.87-0.14,25.3c0,5.2,0.42,10.4,0.3,15.59c-0.25,10.6-0.3,21.19-0.03,31.79c0.18,7.08,0.31,14.16,0.71,21.22
        c0.28,5.08,0.53,10.12,0.31,15.2c-0.12,2.79,0.74,5.55,0.62,8.36c-0.02,0.52,0.31,0.55,0.72,0.52c1.77-0.13,2.73,0.91,3.34,2.38
        c0.34,0.81,0.51,1.68,0.6,2.56c0.13,1.35,0.08,2.77,0.49,4.04c0.77,2.37-0.13,4.3-1.28,6.16c-0.95,1.55-2.74,1.51-4.27,1.81
        c-4.89,0.94-9.9,0.61-14.81,1.2c-8.53,1.02-17.09,0.69-25.64,0.88c-1.72,0.04-3.43,0.09-5.14,0.33
        c-5.52,0.77-11.01,0.27-16.49-0.45c-1.77-0.23-3.09-1.42-4.35-2.48c-1.1-0.93-0.91-2.49-0.86-3.86c0.07-1.6,0.19-3.19,0.31-4.79
        c0.14-1.87,1.06-3.15,2.88-3.7c0.76-0.23,1.54-0.51,2.32-0.57c0.94-0.08,1.16-0.53,1.01-1.34c-1.31-6.95-0.3-13.98-0.8-20.95
        c-0.68-9.54-0.34-19.11-1.07-28.65c-0.2-2.55-0.08-5.12,0.06-7.67c0.07-1.32,0.12-2.64,0.04-3.96
        c-0.44-7.22-0.36-14.47-1.13-21.68c-0.49-4.59-0.6-9.17-0.02-13.76C611.35,296.29,611.31,296.14,611.26,295.56z M134.43,403.02
        c0.01,0.03,0.01,0.16,0.08,0.24c0.17,0.22,0.36,0.43,0.56,0.62c1.93,1.84,4.23,3.06,6.72,3.97c1.92,0.7,4.04,0.79,5.88,1.63
        c1.85,0.84,3.8,0.8,5.63,0.74c2.76-0.08,5.49-0.77,7.9-2.4c1.57-1.06,2.41-2.62,3.07-4.23c0.55-1.35,0.67-2.87,0.93-4.33
        c0.86-4.76,2.22-9.41,3.35-14.11c0.82-3.4,2.26-6.57,3.38-9.86c2.29-6.73,6.03-12.67,10.57-18.12c1.93-2.31,4.31-4.17,6.37-6.35
        c1.19-1.26,2.56-2.31,4.05-3.18c2.8-1.63,5.62-3.21,8.46-4.77c4.07-2.23,8.46-3.69,12.95-4.62c4.49-0.93,9.08-1.45,13.67-1.72
        c0.48-0.03,0.97-0.02,1.44,0.05c6.65,1,13.18,2.48,19.58,4.57c1.51,0.49,2.67,1.61,4.18,2.03c1.09,0.3,2.11,0.74,3.09,1.3
        c2.7,1.57,5.27,3.29,7.52,5.49c1.82,1.79,4.02,3.19,5.81,5c3.83,3.85,6.49,8.48,8.34,13.57c0.63,1.73,1.19,3.48,1.83,5.21
        c0.89,2.39,1.48,4.87,2.45,7.25c0.8,1.97,0.93,4.3,0.94,6.48c0.03,4.93,0.42,9.82,0.78,14.72c0.19,2.61,1.25,4.63,3,6.43
        c0.3,0.31,0.6,0.55,1.01,0.55c2.15-0.01,4.28,0.45,6.46,0.19c6.48-0.78,12.97-1.21,19.5-1.06c1.08,0.03,2.16-0.05,3.24-0.09
        c6.92-0.23,13.81-0.78,20.7-1.4c6.06-0.54,12.15-0.06,18.2-0.92c5.7-0.81,11.49-0.67,17.23-1.12c9.96-0.77,19.96-0.99,29.93-1.78
        c3.1-0.25,6.26,0.05,9.35-0.27c8.65-0.91,17.26-0.22,25.89,0.19c6.86,0.33,13.68-0.07,20.46-0.99c6.22-0.84,12.4-1.87,18.71-1.82
        c1.46,0.01,2.95-0.06,4.36-0.62c0.92-0.36,1.4-0.85,1.3-1.96c-0.47-5.16,0.03-10.3,0.53-15.44c0.33-3.44,1.37-6.73,2.02-10.1
        c1.2-6.14,3.24-11.93,6.62-17.24c2.47-3.88,4.96-7.74,8.29-10.97c3.05-2.95,6.39-5.56,9.66-8.26c2.58-2.12,5.4-3.81,8.54-5.02
        c2.69-1.04,5.43-1.88,8.16-2.78c7.03-2.3,14.11-2.58,21.4-1.46c5.37,0.83,10.36,2.75,15.27,4.78c6.27,2.6,11.94,6.32,16.53,11.45
        c0.99,1.1,1.83,2.33,2.83,3.41c3.4,3.65,6.29,7.66,8.62,12.06c0.16,0.3,0.23,0.69,0.63,0.8c0.23-0.21,0.13-0.46,0.11-0.68
        c-0.34-3.22-0.62-6.45-0.75-9.69c-0.3-7.22-1.48-14.31-3.11-21.33c-0.88-3.77-1.38-7.63-2.7-11.31c-0.33-0.91-0.67-1.14-1.5-0.7
        c-2.83,1.46-5.85,1.67-8.98,1.58c-3.7-0.11-7.38,0.68-11.12,0.25c-3.55-0.41-7.11-0.59-10.16-2.76
        c-0.88-0.62-1.68-1.35-2.68-1.81c-4.02-1.89-7.56-4.35-9.93-8.24c-0.1-0.16-0.26-0.32-0.43-0.41c-0.69-0.4-1.06-1.05-1.46-1.7
        c-1.62-2.64-2.6-5.56-3.81-8.39c-2.41-5.63-4.54-11.36-6.25-17.23c-0.95-3.26-2.49-6.22-3.81-9.29
        c-0.24-0.55-0.61-1.03-0.89-1.56c-0.23-0.43-0.51-0.45-0.86-0.15c-1.17,1.02-2.51,1.86-3.32,3.25
        c-3.86,6.64-7.28,13.52-10.57,20.45c-3.93,8.28-8.13,16.38-13.17,24.05c-4.86,7.39-9.98,14.57-15.25,21.67
        c-6.76,9.13-14.26,17.57-22.32,25.53c-2.18,2.15-4.23,4.44-7,5.96c-1.55,0.85-3.23,1.39-4.73,2.31
        c-3.34,2.05-6.98,3.37-10.72,4.42c-4.35,1.22-8.76,2.22-13.11,3.41c-9.49,2.58-19.22,3.82-28.97,4.7
        c-8.17,0.74-16.3,1.73-24.4,2.94c-6.32,0.94-12.63,1.96-18.93,3.01c-3.55,0.59-7.17,0.5-10.74,0.95
        c-3.96,0.5-7.94,1.04-11.91,1.31c-6.94,0.47-13.82,1.57-20.77,1.87c-0.68,0.03-1.56-0.22-2,0.12c-1.18,0.92-1.6,0.02-2.2-0.64
        c-0.49-0.54-0.84-1.17-1.14-1.82c-0.9-1.92-1.38-3.99-2.22-5.94c-2.41-5.62-4.68-11.29-6.13-17.27
        c-1.7-7.01-2.83-14.1-3.84-21.23c-0.36-2.54-0.2-5.11-0.58-7.65c-0.76-4.98-1.71-9.93-2.16-14.95c-0.28-3.11-0.33-6.27-0.98-9.3
        c-1.6-7.37-1.65-14.84-1.93-22.31c-0.16-4.22,1-8.23,1.8-12.31c0.69-3.51,2-6.73,4.31-9.5c0.16-0.19,0.47-0.36,0.19-0.78
        c-2.7,0.29-5.44,0.57-8.17,0.89c-4.4,0.52-8.79,1.22-13.25,1.17c-1.6-0.02-3.23-0.23-4.78,0.04c-3.33,0.57-6.62,1.4-9.92,2.13
        c-2.59,0.57-5.19,1.08-7.79,1.26c-6.19,0.42-12.23,1.73-18.27,2.93c-4.02,0.8-7.96,1.96-12.04,2.64
        c-3.09,0.52-6.19,1.22-9.29,1.79c-0.94,0.17-1.87,0.38-2.85,0.33c-2.59-0.11-5.19-0.3-7.79-0.14c-1.09,0.07-2.14-0.11-3.21-0.28
        c-3.72-0.58-7.24-0.61-10.76,1.43c-8.91,5.15-17.06,11.26-24.52,18.32c-4.39,4.15-8.37,8.69-12.31,13.26
        c-1.46,1.7-2.62,3.57-3.2,5.8c-0.53,2.05-1.07,4.1-1.5,6.18c-0.4,1.94-0.39,1.8,1.5,2.22c3.31,0.73,6.63,1.4,10.01,1.79
        c3.12,0.36,3.9,1.28,3.74,4.43c-0.01,0.24,0.01,0.48,0,0.72c-0.07,2.56-0.67,4.96-1.89,7.23c-1.56,2.89-3.32,5.64-5.48,8.13
        c-1.83,2.11-3.94,3.65-6.81,4.12c-2.17,0.35-4.31,0.82-6.51,0.96c-1.23,0.07-0.73,1.24-0.84,1.91c-0.11,0.7,0.6,0.45,0.97,0.41
        c1.21-0.13,2.4,0.01,3.58,0.22c1.63,0.28,2.63,1.21,3.02,2.84c0.46,1.93,0.63,3.89,0.35,5.84c-0.45,3.04-0.83,6.11-2.11,8.96
        c-0.19,0.41-0.32,0.74,0.34,0.83c1.52,0.2,2.88,0.94,4.35,1.31c2.58,0.64,4.16,2.28,4.66,4.91c0.12,0.63,0.17,1.27,0.25,1.9
        c0.28,2.33-0.33,4.62-0.21,6.94c0.12,2.25-0.03,4.52-0.52,6.68c-1.32,5.75-2.33,6.31-7.18,6.1
        C140.03,403.69,137.3,402.66,134.43,403.02z M287.9,293.82c-0.1,2.14,0.04,3.93,0.09,5.73c0.13,5.26,1.36,10.38,1.89,15.59
        c0.35,3.41,1.19,6.75,1.27,10.21c0.06,2.47,0.22,4.98,0.73,7.39c1.09,5.2,1.86,10.46,2.79,15.68c1.37,7.69,3.63,15.16,5.26,22.77
        c0.67,3.14,2.55,5.86,3.17,9.03c0.11,0.55,0.54,0.46,0.95,0.43c2.82-0.24,5.64-0.32,8.45-0.77c7.14-1.14,14.39-1.36,21.57-2.28
        c3.37-0.43,6.81-0.32,10.15-0.89c8.98-1.52,18.03-2.63,26.97-4.46c5.87-1.2,11.8-2.12,17.72-3.06c4.59-0.73,9-2.23,13.53-3.19
        c7.63-1.61,15.18-3.51,22.65-5.77c12.19-3.68,21.27-11.23,28.4-21.63c4.57-6.67,8.08-13.96,12.67-20.63
        c3.59-5.22,6.51-10.92,9.62-16.46c2.3-4.11,4.86-8.12,6.61-12.5c2.05-5.13,4.38-10.13,6.59-15.18c0.15-0.34,0.56-0.67,0.21-1.08
        c-0.3-0.35-0.72-0.22-1.12-0.17c-3.58,0.4-7.09,0.32-10.47-1.16c-1.8-0.79-3.4-1.88-5.08-2.85c-3.93-2.26-7.56-4.93-10.92-7.9
        c-1.98-1.75-3.76-3.97-3.36-7.06c0.24-1.83,0.16-1.93-1.68-1.48c-2.49,0.61-5.04,0.2-7.51,0.56c-3.8,0.57-7.62,0.89-11.43,1.32
        c-3.97,0.45-7.98,0.54-11.96,0.89c-6.45,0.58-12.89,1.23-19.38,1.31c-2.87,0.04-5.76,0.26-8.61,0.6
        c-6.27,0.74-12.56,1.28-18.86,1.81c-2.68,0.23-5.35-0.01-8.02,0.3c-5.91,0.68-11.82,1.49-17.8,1.31
        c-0.96-0.03-1.91,0.06-2.87,0.22c-0.53,0.09-0.89,0.23-0.92,0.87c-0.05,0.93-0.52,1.61-1.46,1.81c-1.04,0.23-1.81-0.26-2.28-1.15
        c-0.34-0.64-0.72-0.81-1.43-0.68c-6.39,1.12-12.82,1.78-19.32,1.58c-0.39-0.01-0.84-0.12-1.15,0.19
        c-1.75,1.69-4.02,2.38-6.15,3.37c-2.55,1.19-5.1,1.2-7.73,0.7c-2.7-0.51-5.41-0.99-8.05-1.78c-0.38-0.11-0.81-0.25-1.12,0.13
        c-0.85,1.05-2.04,1.2-3.25,1.25c-1.37,0.06-2.49,0.59-3.34,1.62c-1.02,1.23-1.88,2.56-2.54,4.05c-1.85,4.19-2.34,8.71-3.26,13.12
        C287.49,288.38,287.76,291.28,287.9,293.82z M614.71,279.48c0.14-0.2,0.28-0.34,0.36-0.5c2.77-5.36,6.4-10.24,8.92-15.76
        c0.54-1.19,1.37-2.25,2.01-3.4c1.51-2.73,3.24-5.31,5.14-7.79c0.18-0.23,0.57-0.53,0.28-0.82c-1.07-1.1-0.7-2.49-0.76-3.76
        c-0.16-3.15,0.02-6.32-0.3-9.47c-0.2-2.02-0.6-4.04-0.33-6.09c0.16-1.26,1-2.16,2.23-2.44c1.22-0.28,2.44-0.36,3.68-0.43
        c2.92-0.17,5.83-0.08,8.74,0c1.94,0.05,2.42,0.44,2.45,2.4c0.05,3.08-0.06,6.16,0.11,9.23c0.35,6.24-0.1,12.48,0.11,18.71
        c0.04,1.22-0.44,2-1.72,2.36c-3.45,0.97-6.91,1.67-10.52,1.45c-0.45-0.03-0.88-0.04-1.26-0.31c-0.92-0.65-1.41-0.25-2.02,0.57
        c-2.83,3.86-4.55,8.34-7.06,12.38c-2.9,4.67-5.06,9.79-8.82,13.95c-0.9,1-1.95,2.17-2.1,3.58c-0.46,4.45-0.83,8.93-0.41,13.41
        c0.52,5.53,1.28,11.04,1.72,16.58c0.75,9.49,0.39,19.02,1.07,28.52c0.42,5.86,0.21,11.75,0.69,17.62
        c0.65,7.89-0.39,15.84,0.72,23.72c0.08,0.54-0.03,0.99,0.79,0.95c5.48-0.26,10.96,0.17,16.43-0.04
        c4.83-0.18,9.66-0.53,14.48-0.88c6.62-0.48,13.25-0.75,19.85-1.49c3.13-0.35,3.15-0.31,2.76-3.5c-0.33-2.7-0.73-5.39-0.59-8.12
        c0.11-2.04-0.06-4.07-0.15-6.11c-0.11-2.49-0.93-4.89-0.85-7.38c0.27-8.56-0.26-17.11-0.45-25.67c-0.22-10,0.24-19.99,0.45-29.98
        c0.06-2.92-0.16-5.83-0.1-8.75c0.14-7.19,0.64-14.35,0.2-21.57c-0.66-10.93-0.97-21.89-1.19-32.85
        c-0.3-14.39-0.33-28.79-0.57-43.18c-0.08-4.72,0.51-9.44,0.2-14.15c-0.32-4.96-0.34-9.91-0.11-14.86
        c0.04-0.82-0.14-1.16-1.03-1.13c-5.43,0.17-10.88,0.02-16.3,0.38c-1.6,0.11-3.2,0.2-4.79,0.06c-2.83-0.23-5.67-0.3-8.51-0.24
        c-4.35,0.1-8.71,0.31-13.06,0.34c-3.43,0.03-6.87-0.09-10.3-0.27c-0.87-0.05-1.43,0.42-2.05,0.75c-0.25,0.13-0.14,0.97-0.14,1.48
        c-0.04,6-0.02,11.99-0.1,17.99c-0.11,7.68,0.12,15.36,0.61,23.02c0.68,10.58,1.12,21.16,1.13,31.75
        C614.25,259.63,614.35,269.5,614.71,279.48z M452.38,188.72c0.03-0.06,0.06-0.11,0.1-0.17c0.52,0.19,1.28,0.24,1.51,0.61
        c0.75,1.22,1.96,1.04,3.05,1.23c0.63,0.11,1.26,0.24,1.84,0.5c5.55,2.51,10.83,5.39,15.45,9.5c3.85,3.42,6.73,7.57,9.7,11.67
        c0.9,1.25,1.35,2.78,2.2,4.11c1.92,2.99,3.2,6.26,3.65,9.81c0.56,4.45,0.7,8.93,0.87,13.4c0.03,0.76,0.26,1.28,0.84,1.74
        c0.81,0.64,1.62,1.28,2.22,2.17c2.84,4.25,3.24,8.91,2.53,13.81c-0.57,3.96-1.89,7.69-3.09,11.49
        c-1.16,3.67-2.53,7.24-4.02,10.76c-1.87,4.42-3.2,9.05-5.31,13.37c-3.82,7.84-8.29,15.33-12.51,22.96
        c-2.57,4.65-5.89,8.87-8.01,13.78c-0.5,1.17-1.22,2.25-1.87,3.35c-3.18,5.29-6.85,10.23-10.9,14.89
        c-1.96,2.26-3.66,4.8-6.22,6.45c-1.94,1.25-3.99,2.34-6,3.5c-1.04,0.6-2.07,1.2-3.12,1.79c-4.64,2.63-9.72,4.05-14.81,5.47
        c-6.67,1.86-13.51,2.98-20.24,4.55c-2.02,0.47-3.97,1.19-6.05,1.48c-4.19,0.6-8.4,1.18-12.55,2.02
        c-11.48,2.33-23.02,4.33-34.64,5.86c-5.39,0.71-10.85,0.61-16.24,1.4c-3.87,0.56-7.8,0.62-11.7,1c-4.52,0.44-9.01,1.4-13.59,1.01
        c-0.28-0.02-0.56,0.03-0.84,0.04c-0.64,0.02-0.83,0.29-0.62,0.92c0.62,1.9,1.22,3.8,1.8,5.71c0.12,0.4,0.37,0.52,0.7,0.52
        c0.52,0.01,1.04-0.02,1.55-0.08c5.2-0.61,10.4-1.15,15.58-1.86c4.2-0.57,8.44-0.81,12.63-1.45c5.21-0.8,10.4-1.74,15.68-2.08
        c4.66-0.3,9.35-0.69,13.95-1.48c6.42-1.11,12.86-2.09,19.31-2.99c4.83-0.67,9.71-0.83,14.54-1.62
        c5.16-0.84,10.38-1.35,15.52-2.37c9.11-1.8,18.1-4.08,26.86-7.14c3.37-1.18,6.62-2.71,9.39-5.17c1.61-1.43,3.15-2.94,4.81-4.32
        c2.46-2.05,4.84-4.22,6.94-6.61c5.04-5.73,9.98-11.55,14.5-17.73c6.69-9.13,13.47-18.19,19.08-28.05
        c2.17-3.82,4.57-7.49,6.33-11.56c1.4-3.26,3.23-6.34,4.91-9.48c2.5-4.7,5.36-9.18,8.16-13.7c1.84-2.97,3.44-6.19,6.83-7.84
        c0.16-0.08,0.42-0.33,0.39-0.4c-0.29-0.67-0.83-1.16-1.32-1.68c-0.34-0.36-0.65-0.04-0.97,0.11c-1.89,0.92-3.84,1.64-5.98,1.51
        c-2.66-0.16-5.21-0.86-7.64-1.91c-1.68-0.73-2.84-1.93-3.25-3.86c-0.47-2.24-0.8-4.49-1.09-6.75c-0.47-3.66,0.57-7.28,5.05-9.05
        c4.42-1.74,8.98-2.72,13.8-2.35c3.78,0.29,5.17,2,5.88,5.02c0.81,3.42,0.54,6.74-0.91,9.95c-0.45,1,0.54,1.18,0.92,1.69
        c0.31,0.43,0.71,0.57,1.22,0.18c3.06-2.33,6.5-3.73,10.36-3.98c0.68-0.04,0.71-0.44,0.49-0.89c-0.23-0.46-0.53-0.89-0.85-1.3
        c-1.08-1.39-2.26-2.71-3.25-4.16c-4.42-6.52-8.72-13.12-13.13-19.64c-3.74-5.53-7.14-11.27-11.3-16.51
        c-1.35-1.7-3.07-3.04-4.44-4.71c-3.88-4.75-8.37-8.91-12.8-13.12c-0.63-0.6-1.36-1.19-2.22-1.36c-0.51-0.1-0.86-0.35-1.25-0.61
        c-2.91-1.92-5.52-4.24-8.43-6.15c-3.07-2.02-6.24-3.92-10.18-3.64c-0.82,0.06-1.67-0.18-2.5-0.26c-3.18-0.3-6.37-0.88-9.55-0.84
        c-6.32,0.07-12.63-0.18-18.94-0.28c-3.28-0.05-6.56,0.18-9.83,0.16c-7.92-0.06-15.83-0.33-23.75,0.05
        c-5.15,0.25-10.32-0.11-15.45,0.53c-3.23,0.4-6.49,0.02-9.7,0.41c-10.04,1.21-20.1,2.25-30.06,4.09
        c-6.44,1.19-12.6,3.31-18.88,5.06c-0.4,0.11-1.36,0.11-0.49,1.01c1.36,1.4,1.47,2.4,0.44,4.07c-1.19,1.93-2.92,3.38-4.66,4.79
        c-1.55,1.26-2.99,2.65-4.52,3.94c-3.36,2.84-6.56,5.86-10.13,8.44c-2.6,1.87-5.21,3.73-7.68,5.75
        c-4.93,4.02-10.05,7.83-15.28,11.39c-9.34,6.35-17.96,13.65-27.21,20.1c-3.96,2.76-7.58,6.01-11.38,9
        c-3.05,2.4-6.04,4.87-8.67,7.73c-2.11,2.3-4.37,4.45-7.01,6.17c-0.31,0.2-0.74,0.33-0.85,0.8c0.14,0.01,0.26,0.04,0.37,0.02
        c4.69-1.23,9.59-1.22,14.31-2.29c1.64-0.37,3.28-0.79,4.94-0.96c2.92-0.3,5.72-1.14,8.55-1.84c1.32-0.32,2.43-1.05,3.35-2.01
        c3.65-3.83,7.88-7.01,11.86-10.47c4.48-3.9,9.05-7.72,14.09-10.95c3.08-1.98,5.89-4.42,8.68-6.8c4.32-3.68,8.82-7.13,13.11-10.87
        c4.15-3.62,8.6-6.9,12.92-10.33c6.04-4.81,12.26-9.37,18.27-14.2c1.5-1.21,3.2-2.41,5.01-2.72c1.61-0.27,2.77-1.02,4.01-1.82
        c1.39-0.89,3.03-0.95,4.53-1.45c4.66-1.55,9.34-3.02,14.25-3.69c3.73-0.51,7.49-0.65,11.22-1.05c6.52-0.7,13.02-1.57,19.53-2.27
        c4.37-0.47,8.77-0.57,13.17-0.78c5.79-0.28,11.59-0.19,17.38-0.45c3.92-0.17,7.61,1.29,11.45,1.63c2.03,0.18,4.04,0.54,6.06,0.79
        c0.28,0.04,0.73,0.26,0.84-0.12c0.12-0.44-0.36-0.53-0.68-0.67C452.95,188.97,452.66,188.85,452.38,188.72z M435.74,201.13
        c0-2.88-0.02-5.76,0.02-8.64c0.01-0.83-0.28-1.07-1.09-1.14c-2.45-0.19-4.87,0.19-7.31,0.21c-8.96,0.08-17.89,0.42-26.81,1.46
        c-6.19,0.72-12.41,1.3-18.59,2.09c-8.21,1.05-16.27,3.05-24.11,5.75c-3.09,1.06-6.18,2.24-8.94,4.06
        c-3.24,2.13-6.14,4.71-9.32,6.93c-3.73,2.61-7.24,5.54-10.88,8.28c-0.6,0.45-0.66,0.81-0.3,1.38c0.64,1.01,1.31,2.01,1.91,3.04
        c3.97,6.85,7.4,13.98,11.48,20.77c2.19,3.65,4.07,7.52,5.78,11.44c0.41,0.93,0.87,1.26,1.9,1.01c1.36-0.33,2.76-0.41,4.17-0.35
        c3.28,0.14,6.55-0.07,9.81-0.46c3.53-0.43,7.05-1.09,10.61-1.06c3.73,0.03,7.43-0.36,11.13-0.63c6.82-0.5,13.58-1.65,20.41-1.92
        c10.12-0.4,20.13-2.01,30.24-2.45c0.69-0.03,1.02-0.28,1.01-1c-0.03-1.16,0.08-2.33-0.03-3.48c-0.41-4.59-0.27-9.19-0.36-13.78
        c-0.08-4.32,0.12-8.64-0.07-12.96C436.11,213.52,435.65,207.33,435.74,201.13z M519.06,430.9c0.08-0.07,0.16-0.14,0.24-0.21
        c1.83,1.33,3.99,2.08,6.06,2.7c4.32,1.29,8.8,2.03,13.37,1.82c1.15-0.05,2.31,0.1,3.47,0.16c2.16,0.11,4.36,0.26,6.43-0.38
        c5.74-1.78,11.73-2.76,17.1-5.71c3.06-1.68,6.05-3.36,8.69-5.67c2.18-1.9,4.07-4.07,5.95-6.25c3.6-4.19,6.79-8.67,9.27-13.65
        c1.85-3.72,1.72-7.83,2.52-11.75c1.25-6.13,0.36-12.27-0.86-18.32c-1.17-5.79-2.39-11.6-5.85-16.6c-0.55-0.79-1.13-1.56-1.58-2.4
        c-3.56-6.67-9.04-11.6-14.75-16.32c-0.34-0.28-0.74-0.47-1.11-0.71c-3.25-2.22-6.78-3.82-10.53-5.07
        c-6.21-2.07-12.51-2.88-19.01-2.34c-4.97,0.41-9.71,1.92-14.4,3.45c-5.26,1.71-9.79,4.88-14.02,8.36
        c-5.51,4.54-9.89,10.1-13.34,16.35c-2.45,4.44-4.86,8.91-6,13.93c-1.17,5.14-2.45,10.26-2.62,15.57
        c-0.1,3.19-0.29,6.37,0.46,9.54c0.6,2.55,1.77,4.84,2.78,7.22c2.79,6.65,7.74,11.66,12.38,16.91c2.93,3.31,6.89,5.29,10.57,7.61
        c1.71,1.08,3.65,1.77,5.49,2.64c0.06-0.1,0.13-0.2,0.19-0.3C519.66,431.28,519.36,431.09,519.06,430.9z M278.48,393.93
        c0.28-4.24-0.49-8.36-1.2-12.51c-0.74-4.33-1.95-8.55-3.85-12.45c-1.8-3.69-3.51-7.53-6.63-10.44c-2.07-1.93-4.29-3.7-6.16-5.85
        c-0.1-0.12-0.25-0.2-0.39-0.28c-3.5-1.97-6.73-4.4-10.28-6.28c-0.14-0.07-0.29-0.19-0.43-0.19c-1.47,0.01-2.71-0.78-3.83-1.47
        c-2.78-1.72-5.85-2.06-8.93-2.34c-6.88-0.62-13.72,0.16-20.55,0.93c-7.59,0.85-14.55,3.22-20.57,8.08
        c-1.46,1.18-3.06,2.16-4.4,3.5c-3.69,3.66-5.9,8.32-8.73,12.57c-0.07,0.1-0.11,0.21-0.16,0.32c-1.64,4.03-3.53,7.96-5.15,12.01
        c-1.33,3.32-2.01,6.82-3.24,10.16c-2.13,5.78-1.92,11.63-0.54,17.58c0.79,3.37,2.23,6.49,3.19,9.79c0.41,1.4,1.1,2.76,1.98,3.96
        c3.08,4.22,5.96,8.61,9.95,12.11c2.74,2.4,5.5,4.68,8.72,6.45c1.95,1.07,3.99,1.98,5.93,3.08c1.71,0.97,3.4,2.12,5.35,2.62
        c2.09,0.54,4.2,0.98,6.31,1.46c4.95,1.12,9.97,1.17,15.02,1.01c5.38-0.17,10.57-1.16,15.48-3.35c2.65-1.18,5.43-2.19,7.59-4.27
        c0.87-0.84,1.81-1.57,2.84-2.2c2.5-1.52,4.64-3.32,6.51-5.67c3.47-4.37,6.61-8.93,9.21-13.85c2.03-3.85,4.45-7.47,6.13-11.53
        c0.66-1.61,1.14-3.11,1.05-4.81C278.56,399.35,278.41,396.64,278.48,393.93z M489.82,182.53c-0.08,0.12-0.16,0.24-0.24,0.36
        c1.56,0.38,2.39,1.66,3.53,2.56c2.44,1.91,5.22,3.39,6.92,6.2c0.89,1.47,2.3,2.65,3.54,3.9c4.56,4.61,8.92,9.39,12.46,14.85
        c1.82,2.82,3.56,5.69,5.61,8.36c1.07,1.4,2.31,2.64,3.4,4.03c2.91,3.73,5.17,7.9,7.89,11.74c2.15,3.03,4.44,5.95,6.26,9.2
        c0.06,0.1,0.14,0.2,0.21,0.29c2.08,2.43,3.88,5.05,5.43,7.85c1.03,1.85,0.3,3.44-1.81,3.55c-1.48,0.08-2.96,0.01-4.44-0.01
        c-1.39-0.03-2.72,0.27-3.92,0.95c-1.28,0.73-2.46,1.6-4.05,1.63c-0.71,0.01-0.94,0.5-0.44,1.14c0.72,0.93,1.16,2,1.52,3.11
        c1.6,4.94,3.16,9.9,4.81,14.82c1.78,5.29,3.01,10.78,5.86,15.69c0.58,1,1.51,1.71,1.92,2.82c0.46,1.23,0.99,2.46,1.7,3.56
        c0.93,1.43,1.88,2.99,3.43,3.77c1.81,0.91,3.39,2.08,5.05,3.2c2.23,1.51,4.71,2.63,7.35,3.08c4.1,0.7,8.25,0.8,12.39-0.02
        c2.51-0.49,5.05-0.81,7.49-1.58c0.78-0.25,1.65-0.81,1.41-1.79c-0.52-2.1-1.37-4.09-2.29-6.04c-0.2-0.43-0.41-0.59-0.91-0.49
        c-4.88,0.94-9.81,0.72-14.71,0.32c-2.35-0.19-4.78-0.5-7.04-1.35c-2.11-0.79-4-1.95-4.73-4.26c-0.41-1.29-0.64-2.64-0.87-3.98
        c-0.15-0.89,0.05-1.74,0.65-2.48c1.9-2.31,4.34-3.98,7.01-5.12c3.63-1.55,7.33-3,11.21-3.84c0.8-0.17,0.82-0.49,0.58-1.15
        c-0.63-1.69-1.44-3.3-2.22-4.92c-0.23-0.49-0.5-0.61-1.04-0.44c-3.26,1.01-6.62,1.45-10.01,1.73c-1.95,0.16-3.28-0.65-4.53-2.12
        c-2.04-2.4-2.49-5.41-3.53-8.19c-0.31-0.82-0.15-1.74,0.26-2.57c0.71-1.44,1.69-2.57,3.15-3.33c1.9-0.99,3.96-1.47,5.94-2.21
        c1.99-0.74,2.18-0.33,1.02-2.6c-1.51-2.95-3.03-5.91-4.75-8.73c-3.84-6.27-7.89-12.42-11.9-18.58
        c-4.38-6.72-9.46-12.89-14.45-19.14c-1.3-1.62-2.71-3.13-4.5-4.27c-1.24-0.79-2.49-1.64-3.48-2.74
        c-4.61-5.09-10.94-7.55-16.67-10.92c-3.49-2.05-7.33-3.48-11.26-4.56C492.63,183.4,491.23,182.95,489.82,182.53z M190.2,277.33
        c0.21,0.16,0.26,0.24,0.33,0.26c0.23,0.06,0.47,0.1,0.7,0.16c3.02,0.75,6.1,0.49,9.17,0.58c6.82,0.19,13.31-1.41,19.79-3.19
        c1.51-0.41,2.82-1.31,4.32-1.78c3.64-1.12,7.19-2.6,10.29-4.77c3.72-2.61,7.47-5.23,10.91-8.23c3.62-3.15,7.41-6.1,11.04-9.23
        c4.88-4.21,10.3-7.74,15.19-11.92c7.52-6.43,15.82-11.82,23.6-17.9c7.34-5.73,14.92-11.15,22.23-16.93
        c2.63-2.08,5.09-4.38,7.67-6.52c1.63-1.36,3.34-2.62,4.7-4.26c0.25-0.3,0.61-0.57,0.48-1.03c-0.17-0.61-2.19-1.47-2.82-1.19
        c-2.34,1.03-4.68,2.07-7.02,3.12c-4.35,1.95-8.34,4.56-12.47,6.91c-7.39,4.18-14.32,9.06-21.43,13.66
        c-2.15,1.39-4.25,2.85-6.42,4.21c-5.48,3.45-10.53,7.55-16.16,10.78c-0.14,0.08-0.25,0.2-0.38,0.29
        c-4.26,3.25-8.65,6.34-13.15,9.24c-9.89,6.36-19.77,12.73-29.77,18.91c-8.91,5.51-17.59,11.39-26.78,16.45
        C192.88,275.67,191.58,276.5,190.2,277.33z M445.48,217.57c0.36,6,0.44,11.32,0.23,16.63c-0.19,4.83,0.34,9.57,1.01,14.32
        c0.09,0.61,0.28,0.95,0.98,0.9c3.06-0.24,6.15-0.23,9.19-0.69c1.05-0.16,2.29-0.06,3.06-0.89c1.97-2.13,4.57-3.33,6.91-4.92
        c5.46-3.71,11.56-5.28,18.05-5.63c0.69-0.04,0.95-0.23,0.86-0.9c-0.27-2.15-0.18-4.31-0.24-6.47c-0.1-4.05-0.9-7.92-2.75-11.55
        c-1.89-3.71-4.18-7.14-6.65-10.5c-2.24-3.03-4.87-5.58-7.87-7.81c-2.24-1.67-4.58-3.21-7-4.61c-1.86-1.08-3.62-2.34-5.83-2.71
        c-0.98-0.16-1.89,0.22-2.85,0.07c-2.01-0.31-4.05-0.45-6.06-0.79c-1.05-0.18-1.21,0.15-1.19,1.08c0.13,4.59,0.14,9.19,0.32,13.78
        C445.79,210.68,445.55,214.47,445.48,217.57z M294.8,253.43c-0.08,2.44,0.34,4.65,2.19,6.48c1.49,1.48,3.21,2.23,5.24,2.63
        c3.71,0.73,7.46,1.39,11.12,0.2c2.98-0.98,5.91-2.24,8.66-3.75c2.68-1.47,4.08-4.22,4.37-7.11c0.21-2.15-0.28-4.47-1.14-6.56
        c-0.36-0.89-0.98-1.66-2.01-1.91c-1.24-0.31-2.48-0.65-3.74-0.86c-2.99-0.5-6.08-0.21-9.04-1c-1.34-0.36-2.67-0.26-4.03-0.11
        c-2.24,0.25-4.32,1.08-6.49,1.53c-1.74,0.36-2.79,1.24-3.49,2.69C295.26,248.1,294.79,250.72,294.8,253.43z M493.38,257.49
        c0.05-1.09-0.03-2.39-0.26-3.7c-0.56-3.15-1.34-6.24-2.4-9.26c-0.27-0.78-0.63-1.52-1.32-1.94c-1.72-1.05-3.63-1.55-5.65-1.67
        c-1.54-0.09-3,0.4-4.5,0.57c-4.8,0.53-9.11,2.31-13.02,5.08c-0.94,0.67-1.96,1.33-2.65,2.23c-0.81,1.05-1.51,2.15-2.61,2.97
        c-0.44,0.33-0.77,1.05-0.43,1.63c1.03,1.78,1.2,4.01,2.86,5.46c0.69,0.61,1.36,1.24,1.99,1.9c3.25,3.39,7.28,5.67,11.34,7.89
        c0.89,0.49,1.92,0.95,2.91,1.01c2.54,0.16,5.07,0.75,7.63,0.41c1.43-0.19,2.93-0.5,3.59-2
        C492.3,264.77,493.69,261.44,493.38,257.49z M576.09,314c2.46,0.24,4.76-0.23,6.97-1.34c1.21-0.61,2.49-1.19,3.81-1.42
        c2.84-0.5,5.24-1.91,7.54-3.46c3.16-2.12,6.04-4.61,8.64-7.39c3.13-3.33,6.88-5.97,9.49-9.92c2.81-4.26,6.03-8.27,8.51-12.75
        c1.98-3.56,4.21-6.97,6-10.65c2.08-4.25,4.91-8.04,8.06-11.57c1.08-1.21,2.51-1.94,3.73-2.95c0.93-0.77,1.1-1.96,0.48-2.62
        c-0.61-0.64-2.57-0.79-3.22-0.23c-2.41,2.08-4.34,4.61-6.11,7.19c-2.11,3.09-4.14,6.27-5.66,9.73
        c-2.23,5.06-5.51,9.55-7.86,14.56c-0.98,2.08-2.34,4.02-3.78,5.83c-2.79,3.5-5.58,6.98-8.85,10.09
        c-3.62,3.45-7.31,6.69-12.13,8.36c-0.37,0.13-0.69,0.39-1.02,0.61c-1.82,1.21-3.69,2.2-5.82,2.89c-4.17,1.35-8.44,2.17-12.73,2.9
        c-4.56,0.78-9.04,0.11-13.4-1.55c-3.92-1.49-6.98-4.32-10.49-6.44c-2.68-1.61-4.54-4.33-6.1-7.06
        c-3.02-5.29-5.23-10.93-6.93-16.8c-1.67-5.76-3.6-11.44-5.43-17.14c-0.21-0.64-0.44-1.3-0.78-1.87
        c-2.52-4.29-6.05-7.47-10.61-9.48c-0.47-0.21-0.93-0.47-1.35-0.77c-1.53-1.11-3.09-1.39-4.79-0.36c-0.5,0.3-1.04,0.55-0.91,1.24
        c0.14,0.74,0.27,1.52,1.21,1.73c0.42,0.1,0.83,0.27,1.24,0.44c2.57,1.1,4.97,2.5,7.31,4.03c1.9,1.24,3.72,2.55,4.96,4.44
        c2.43,3.69,4.35,7.68,5.43,11.95c0.95,3.77,2.22,7.42,3.42,11.1c1.15,3.54,2.84,6.86,3.93,10.43c0.45,1.48,0.8,3.06,1.78,4.3
        c1.64,2.06,2.8,4.48,5.13,6.04c1.71,1.14,3.16,2.66,5.09,3.54c1.3,0.59,2.61,1.2,3.72,2.16c1.51,1.31,3.27,2.22,5.26,2.45
        c3.46,0.4,6.94,0.48,10.41,0.2C572.19,314.28,574.13,313.95,576.09,314z M675.83,394.5c-1.14,1.6-2.83,1.46-4.17,1.78
        c-5.39,1.31-10.96,1.31-16.44,1.16c-8.39-0.23-16.78,0.35-25.17-0.14c-3.64-0.22-7.22,0.39-10.82,0.64
        c-2.15,0.15-4.3,0.36-6.44,0.67c-0.82,0.12-1.1,0.42-1.28,1.32c-0.26,1.33,0.37,2.48,0.32,3.71c-0.03,0.84,0.31,1.07,1.03,1.06
        c2.92-0.04,5.84,0,8.75-0.13c5.07-0.22,10.13-0.8,15.21-0.62c4.96,0.18,9.91,0,14.87,0.04c7.28,0.05,14.52-0.73,21.77-1.38
        c1.02-0.09,2.35,0.35,2.98-0.42c0.62-0.76,0-2-0.08-3.02C676.23,397.67,676.24,396.15,675.83,394.5z M326.38,260.59
        c0.4,0.25,0.8,0.09,1.18,0.09c3.05-0.05,6.05-0.52,9.06-0.9c1.01-0.13,1.25-0.42,0.79-1.34c-0.75-1.5-1.64-2.96-1.93-4.63
        c-0.36-2.08-1.21-3.98-2.13-5.84c-3.59-7.28-7.62-14.31-11.82-21.25c-0.6-0.98-0.92-0.89-1.76-0.26
        c-4.31,3.24-8.2,7.02-12.78,9.93c-0.98,0.62-1.8,1.5-2.69,2.25c1.76,0.07,3.38-0.18,5.02-0.02c0.99,0.1,1.96,0.51,2.96,0.35
        c4.27-0.71,8.11,0.82,11.98,2.24c0.29,0.11,0.57,0.31,0.79,0.52c3.5,3.36,5.1,7.42,4.07,12.22
        C328.64,256.26,328,258.6,326.38,260.59z M443.28,215.32c0-6.59,0.01-13.19,0-19.78c-0.01-4.07-0.09-4.12-4.19-4.17
        c-0.93-0.01-1.26,0.18-1.15,1.2c0.61,5.92,1.05,11.84,1.02,17.8c-0.04,6.87,0.59,13.73,0.12,20.61c-0.1,1.47-0.1,2.96-0.06,4.43
        c0.12,4.27,0.33,8.54,0.4,12.82c0.04,2.14-0.05,2.15,2.02,1.97c0.44-0.04,0.88-0.09,1.32-0.09c0.83-0.01,1.13-0.31,0.91-1.19
        c-1.01-3.97-0.86-7.99-0.52-12.03c0.23-2.79,0.2-5.59,0.22-8.39C443.37,224.11,443.21,219.72,443.28,215.32z M569.74,296.3
        c2.55,0.14,5.45-0.04,8.34-0.49c1-0.16,1.28-0.43,0.85-1.44c-1.8-4.27-3.56-8.56-5.29-12.86c-0.29-0.73-0.62-0.71-1.27-0.48
        c-4.06,1.45-8.15,2.78-12.04,4.68c-3.3,1.61-4.35,3.29-3.72,6.9c0.26,1.49,1.16,2.39,2.64,2.71
        C562.59,296.06,565.96,296.4,569.74,296.3z M519.78,260.04c-2.23-2.37-5.11-3.58-7.83-5.02c-1.4-0.74-2.49-3.16-1.85-4.62
        c0.12-0.28,0.32-0.56,0.55-0.77c1.7-1.61,4.74-1.96,6.7-0.7c2.37,1.53,5.29,2.14,7.21,4.4c0.31,0.37,0.64,0.27,0.78-0.21
        c0.86-2.95,1.42-5.93,0.52-8.97c-0.43-1.47-1.3-2.71-2.96-2.95c-1.06-0.15-2.17-0.17-3.23-0.04c-3.14,0.41-6.15,1.4-9.17,2.31
        c-3.65,1.11-5.06,3.27-4.72,7.02c0.2,2.19,0.59,4.36,0.81,6.54c0.14,1.41,0.9,2.17,2.17,2.52c2.59,0.73,5.25,1.06,7.92,1.23
        C517.74,260.85,518.79,260.55,519.78,260.04z M268.8,267.15c1.51,0.27,2.87,0.13,4.25-0.07c4.03-0.6,8-1.55,12.04-2.13
        c3.16-0.45,6.34-0.89,9.4-1.85c0.59-0.18,0.96-0.28,0.32-0.98c-1.77-1.96-2.72-4.24-2.69-6.95c0.02-2.26-0.04-4.51,0.59-6.73
        c-0.11-0.06-0.22-0.12-0.33-0.18C284.52,254.57,276.66,260.86,268.8,267.15z M132.2,394.62c-0.27,1.08,0.09,1.54,0.88,1.76
        c0.77,0.21,1.57,0.37,2.27,0.73c2.09,1.08,4.33,1.6,6.64,1.88c1.32,0.16,1.53-0.04,1.54-1.4c0.03-3.56,0.45-7.09,0.69-10.63
        c0.13-1.95-0.78-4.12-2.6-4.87c-2.53-1.04-5.16-1.86-7.84-2.45c-0.54-0.12-0.5,0.24-0.5,0.55
        C133.32,385.12,132.15,389.96,132.2,394.62z M633,249.86c1.21-0.68,1.64-1.46,1.28-2.74c-0.24-0.86-0.18-1.82-0.19-2.74
        c0-1.93,0.66-2.73,2.57-3.16c1.71-0.39,3.41-0.1,5.12,0.09c1.18,0.13,1.7,0.72,1.67,1.89c-0.05,2.08,0.14,4.15,0.27,6.22
        c0.14,2.07,0.46,4.13,0.34,6.22c-0.03,0.53-0.07,1.02-0.57,1.37c-1.61,1.12-4.34,0.94-5.82-0.42c-0.29-0.27-0.55-0.55-0.87-0.11
        c-0.96,1.33-1.9,2.69-2.79,3.95c3.43,0.34,6.75-0.39,10.09-0.27c1.17,0.04,1.31-0.45,1.09-1.35c-0.49-1.96-0.53-3.96-0.46-5.96
        c0.18-5.59-0.17-11.19,0.13-16.78c0.07-1.4,0.03-2.8,0.06-4.2c0.01-0.54-0.12-0.75-0.74-0.75c-3.43-0.02-6.86-0.11-10.3-0.17
        c-1.64-0.03-1.76-0.01-1.57,1.61c0.66,5.57,0.71,11.16,0.58,16.76C632.9,249.46,632.95,249.6,633,249.86z M140.98,334.47
        c-1.4,0-1.4,0-1.66,1.13c-0.06,0.27-0.12,0.55-0.18,0.82c-0.99,4.08-1.85,8.18-2.55,12.32c-0.06,0.36-0.44,0.85,0.32,1.03
        c2.83,0.67,5.42,0.19,7.82-1.45c3.41-2.32,5.09-5.75,6.06-9.59c0.53-2.12-0.82-3.6-3.04-3.52c-0.77,0.03-1.51-0.15-2.26-0.16
        C143.89,335.03,142.44,333.95,140.98,334.47z M560.69,270.64c2.06,0.1,5.5-0.72,6.75-1.42c0.65-0.37,0.68-0.72,0.42-1.34
        c-1.48-3.59-3.23-7.05-4.9-10.55c-0.23-0.48-0.5-0.56-0.94-0.35c-1.61,0.79-3.39,1.26-4.79,2.45c-1.58,1.34-2.93,2.78-2.08,5.13
        c0.13,0.36,0.08,0.79,0.14,1.19c0.36,2.38,1.92,4.29,3.88,4.72C559.75,270.59,560.36,270.6,560.69,270.64z M341.72,259.07
        c0.31-0.07,0.62-0.14,0.94-0.21c1.42-0.31,1.47-0.33,0.89-1.66c-1.39-3.18-2.63-6.46-4.29-9.5c-3.15-5.75-6.17-11.55-9.04-17.45
        c-1-2.05-1.75-4.22-3.04-6.11c-0.45-0.65-0.52-1.88-1.2-1.9c-0.67-0.02-1.33,0.89-2.05,1.31c-0.62,0.37-0.57,0.69-0.2,1.24
        c1.04,1.56,2.09,3.13,3.01,4.76c3.1,5.49,6.16,11.01,9.22,16.53c0.93,1.68,1.92,3.39,2.28,5.26c0.49,2.52,1.72,4.72,2.64,7.05
        C341.03,258.79,341.19,259.16,341.72,259.07z M148.88,389.01c0.05-1.17,0.16-2.09,0.12-3c-0.1-2.31-0.77-4.39-3.1-5.35
        c-1.12-0.46-2.15-1.04-3.21-1.57c-0.61-0.31-1.24-0.58-1.91-0.69c-2.16-0.36-4.34-0.64-6.38-1.52c-0.31-0.14-0.83-0.42-1.02,0.15
        c-0.14,0.44-0.21,0.98,0.23,1.34c0.24,0.2,0.54,0.4,0.84,0.43c2.21,0.23,4.18,1.29,6.33,1.73c3.24,0.68,5.27,3.23,5.15,6.22
        c-0.16,4-1.07,7.91-1.14,11.92c-0.02,1-0.99,1.85-1.95,1.68c-1.88-0.32-3.78-0.58-5.6-1.26c-1.53-0.57-2.96-1.39-4.58-1.72
        c-0.19-0.04-0.44-0.15-0.53,0.05c-0.06,0.14,0.02,0.38,0.11,0.54c0.17,0.3,0.48,0.4,0.79,0.49c2.31,0.63,4.51,1.61,6.87,2.08
        c1.02,0.2,1.96,0.59,2.87,1.15c1.4,0.85,3.31,0.52,4.07-0.68c0.77-1.21,1.45-2.51,1.52-3.99
        C148.5,394.25,148.99,391.52,148.88,389.01z M138.76,350.96c-0.39,0-0.99,0.01-1.59,0c-0.56-0.01-1.06,0.06-1.13,0.76
        c-0.07,0.79,0.56,0.65,0.99,0.69c2.85,0.31,5.54-0.49,8.23-1.22c0.37-0.1,0.69-0.39,1.01-0.62c3.29-2.3,5.3-5.57,6.94-9.14
        c0.87-1.88,1.29-3.86,1.58-5.88c0.33-2.26-0.61-3.38-2.86-3.67c-0.91-0.12-1.83-0.25-2.72-0.46c-2.21-0.54-4.44-0.96-6.71-1.09
        c-2.07-0.12-2.04-0.1-2.46,1.96c-0.19,0.93,0.15,1.2,0.98,1.02c0.75-0.17,1.5-0.27,2.25-0.02c1.45,0.48,2.93,0.69,4.45,0.68
        c2.79-0.03,4.76,2.19,4.02,4.82c-1.05,3.69-2.66,7.13-5.91,9.46C143.79,349.72,141.8,351.45,138.76,350.96z M140.4,366.32
        c0.13-2.05,0.07-3.56-0.21-5.06c-0.15-0.8-0.56-1.22-1.4-1.4c-0.99-0.21-1.97-0.13-2.95-0.18c-0.78-0.04-0.94,0.19-1.06,0.84
        c-0.69,3.74-1.02,7.52-1.25,11.31c-0.23,3.85-0.05,3.95,3.86,3.47c1.05-0.13,1.63-0.57,1.98-1.58
        C140.26,371.15,140.11,368.44,140.4,366.32z M642.56,253.46c-0.24-2.41-0.49-5.16-0.79-7.89c-0.31-2.88,0.29-2.12-2.52-2.49
        c-3-0.4-3.16-0.13-3.15,2.89c0.01,1.01-0.06,1.92,1.44,1.69c0.56-0.08,1.17,0.21,1.77,0.27c1.04,0.11,1.67,0.67,2.03,1.62
        c0.74,1.94,0.4,3.01-1.5,4.64c-0.73,0.63-0.71,1.09,0.07,1.5c1.49,0.77,2.65,0.09,2.65-1.54
        C642.56,254.03,642.56,253.91,642.56,253.46z"/>
      <path d="M163.14,319.88c-0.38-0.02-0.58-0.03-0.78-0.04c-4.14-0.36-5.18-2.21-3.69-6.23c1.28-3.45,3.62-6.23,6.39-8.57
        c5.53-4.66,11.7-8.35,18.22-11.43c2.92-1.38,5.81-2.84,8.79-4.11c2.85-1.21,5.86-1.54,8.84-2.05c1.18-0.2,2.46,0.14,3.69,0.21
        c1.79,0.1,2.52,1.4,2.84,3.05c0.21,1.07,0.11,2.28-0.52,3.13c-1.6,2.19-2.54,4.78-4.36,6.85c-5.16,5.85-11.19,10.45-18.51,13.28
        c-3.17,1.22-6.32,2.49-9.48,3.71c-2.52,0.97-5.14,1.42-7.82,1.69C165.49,319.5,164.23,319.73,163.14,319.88z M163.41,317.12
        c1.69-0.24,3.58-0.33,5.42-1.04c2.31-0.9,4.44-2.21,6.82-2.92c3.83-1.15,7.4-3.01,11.18-4.3c1.75-0.6,3.41-1.37,4.95-2.39
        c4.81-3.19,8.95-7.06,12.27-11.82c0.83-1.19,0.77-2.37,0.76-3.63c0-0.33-0.21-0.65-0.53-0.75c-1.29-0.39-2.55-1.08-3.95-0.69
        c-2.07,0.59-4.15,1.18-6.18,1.91c-6.75,2.43-13.15,5.58-19.4,9.09c-4.63,2.6-8.68,5.83-12.09,9.87
        c-0.91,1.07-1.66,2.25-2.33,3.48c-0.14,0.26-0.73,0.75,0.19,0.88c0.24,0.03,0.05,0.34,0.02,0.52c-0.29,1.49-0.29,1.49,1.22,1.65
        C162.24,317.03,162.72,317.06,163.41,317.12z"/>
      <path d="M652.39,217.01c-4.2-0.2-9.33,0.35-14.46,0.89c-4.69,0.5-9.41,0.61-14.12,0.62c-2.45,0.01-2.47,0.04-2.59-2.4
        c-0.31-6.07-0.36-12.14-0.51-18.21c-0.12-4.71-0.45-9.4-1.08-14.07c-0.14-1.02,0.04-2.1-0.14-3.11
        c-0.25-1.33,0.64-1.74,1.49-2.23c0.08-0.05,0.25-0.02,0.33,0.04c0.97,0.78,2.07,0.46,3.12,0.35c4.68-0.47,9.35,0.21,14.02,0.04
        c2.4-0.09,4.79-0.32,7.18-0.32c3.8,0,7.55-0.84,11.36-0.61c1.59,0.1,3.17,0.26,4.75,0.48c0.92,0.13,1.88,1.65,1.89,2.77
        c0.02,2.2-0.01,4.4,0.06,6.59c0.29,9.11,0.15,18.23,0.04,27.34c-0.01,1.06-1.2,1.81-2.93,1.83
        C658.32,217.02,655.84,217.01,652.39,217.01z M661.84,197.55c0.09-5.01-0.2-10.33,0.12-15.65c0.03-0.49,0-0.84-0.62-1.09
        c-2.23-0.9-4.51-0.83-6.83-0.62c-5.17,0.47-10.34,0.98-15.55,1.01c-5.63,0.04-11.25-0.58-16.88-0.4
        c-0.51,0.02-0.76,0.08-0.74,0.61c0.06,1.52-0.07,3.07,0.21,4.55c0.84,4.47,0.97,8.98,1.03,13.49c0.07,5.36,0.13,10.71,0.13,16.07
        c0,1.11,0.45,1.38,1.44,1.23c0.83-0.12,1.67-0.18,2.51-0.21c4.75-0.17,9.5-0.04,14.24-0.51c5.21-0.52,10.44-0.83,15.68-0.64
        c0.92,0.03,1.83,0.17,2.75,0.18c1.44,0,2.46-0.99,2.39-2.38C661.49,208.09,661.92,202.98,661.84,197.55z"/>
      <path d="M633.54,305.68c-1.49-0.13-3.52-0.81-5.64-0.95c-0.76-0.05-1.26-0.68-1.38-1.47c-0.11-0.75,0.19-1.37,0.84-1.72
        c0.62-0.33,0.86-0.88,1.17-1.45c3.34-6.09,5.56-12.76,9.44-18.58c0.67-1,1.35-1.29,2.57-1.18c2.64,0.25,5.3,0.88,7.97,0.12
        c0.49-0.14,0.96-0.03,1.27,0.44c0.34,0.51,0.2,1.02-0.14,1.45c-1.14,1.49-2.24,3.02-3.49,4.42c-2.25,2.53-3.71,5.59-5.72,8.28
        c-0.72,0.96-1.37,1.97-2.07,2.94c-0.38,0.53-0.42,0.83,0.39,0.84c2.06,0.02,4,0.75,6,1.11c1.32,0.24,1.77,1.22,1.2,2.45
        c-0.52,1.12-1.15,2.2-1.8,3.25c-2.15,3.49-3.84,7.17-5.02,11.11c-0.98,3.26-2.6,6.27-4.2,9.27c-0.35,0.66-0.81,1.29-1.68,1.03
        c-0.98-0.29-0.92-1.16-0.76-1.9c0.64-3.01,1.28-6.02,2.04-9c0.71-2.8,1.26-5.61,1.51-8.49
        C636.21,305.69,636.17,305.66,633.54,305.68z M646.24,282.83c-1.62,0-3.2,0.07-4.77-0.03c-1.09-0.07-1.63,0.44-2.18,1.28
        c-3.43,5.22-5.71,11.09-9.15,16.3c-0.45,0.68-0.3,0.96,0.49,1.26c1.99,0.75,4.11,0.97,6.14,1.55c2.25,0.64,2.53,1.14,1.97,3.44
        c-0.86,3.52-1.53,7.09-2.52,10.58c0.74-1.03,0.97-2.25,1.39-3.4c1.4-3.81,3.42-7.3,5.52-10.75c0.45-0.74,0.41-1.04-0.53-1.22
        c-2.11-0.41-4.18-0.99-6.38-0.82c-1.33,0.1-1.84-0.92-1.19-2.1c0.45-0.8,0.94-1.58,1.45-2.34c2.84-4.25,5.37-8.71,8.97-12.41
        C645.77,283.84,646.17,283.53,646.24,282.83z"/>
      <path d="M542.13,417.84c-4.59,0.58-8.8-0.68-12.87-2.62c-1.95-0.93-3.91-1.84-5.86-2.75c-0.65-0.31-1.4-0.5-1.94-0.94
        c-3.52-2.85-7.26-5.51-9.47-9.63c-1.45-2.7-3.12-5.31-3.89-8.34c-1.37-5.36-2.64-10.71-1.11-16.29c0.6-2.19,0.93-4.47,1.72-6.61
        c3.42-9.19,9.25-16.09,18.58-19.8c4.31-1.71,8.68-3.06,13.29-3.41c2.82-0.21,5.69-0.36,8.48-0.02c2.64,0.32,5.15,1.43,7.34,3.06
        c1,0.74,2.06,1.37,3.15,1.97c3.15,1.72,5.82,4.08,8.41,6.51c1.43,1.34,2.21,3.13,2.96,4.9c1.13,2.67,3.03,4.96,3.67,7.9
        c0.43,1.98,0.44,3.97,0.73,5.94c0.8,5.4-0.24,10.58-1.87,15.69c-0.36,1.11-1.01,2.19-0.34,3.42c0.1,0.18,0.05,0.48,0,0.71
        c-0.68,2.68-1.5,5.31-3.2,7.56c-0.84,1.11-1.58,2.3-2.54,3.34c-1.7,1.84-3.97,2.82-6.04,4.08c-4.23,2.57-8.7,4.57-13.7,5.13
        C545.79,417.85,543.95,417.55,542.13,417.84z M541.57,414.38c2.17,0,3.73,0.06,5.28-0.01c3.59-0.17,6.93-1.35,10.04-3
        c3.74-1.98,7.29-4.24,9.63-8.03c1.3-2.11,2.13-4.35,2.92-6.65c2.06-5.95,3.09-12.05,2.88-18.36c-0.1-3.17-0.96-6.18-2.22-9.02
        c-1.03-2.33-2.47-4.47-3.61-6.77c-0.52-1.05-1.35-1.84-2.2-2.65c-2.96-2.81-6.55-4.7-9.81-7.07c-1.84-1.34-3.89-2.39-6.1-2.67
        c-2.51-0.32-5.11-0.28-7.64-0.04c-2.77,0.27-5.51,0.86-8.19,1.77c-5.61,1.9-10.78,4.21-14.89,8.9c-5.7,6.5-7.71,14.1-8.32,22.34
        c-0.24,3.25,0.66,6.31,1.68,9.37c0.81,2.42,1.88,4.63,3.33,6.73c1.18,1.71,2.58,3.23,3.86,4.85c1.64,2.07,3.52,3.65,5.91,4.71
        c1.75,0.78,3.46,1.67,5.18,2.52C533.37,413.33,537.53,414.87,541.57,414.38z"/>
      <path d="M223.69,431.44c-3.33,0.11-7.38-0.52-11.07-2.37c-3.35-1.67-6.85-3.14-9.95-5.21c-3.24-2.17-5.89-5.01-7.95-8.5
        c-2.12-3.58-3.53-7.45-5.01-11.24c-1.67-4.27-2.42-8.86-1.04-13.5c0.34-1.15,0.36-2.46,0.93-3.46c2.15-3.75,2.5-8.22,5.05-11.83
        c2.52-3.58,5.09-7.13,8.37-10c5.31-4.64,11.22-8.35,18.15-10.13c0.42-0.11,0.88-0.21,1.3-0.17c4.25,0.4,8.6,0.11,12.69,1.51
        c2.7,0.92,5.45,1.89,7.67,3.83c0.12,0.11,0.25,0.21,0.38,0.29c5.06,3.04,9.39,7.04,13.9,10.78c2.4,1.99,3.82,4.79,4.67,7.69
        c0.88,2.97,1.6,6.02,2.07,9.11c0.22,1.46,0.09,2.87-0.29,4.27c-1.35,5.01-2.71,10.02-4.07,15.03c-0.4,1.45-1.29,2.66-2.07,3.91
        c-1.7,2.75-3.48,5.46-5.2,8.2c-0.76,1.2-1.72,2.22-2.8,3.11c-3.19,2.63-6.53,5.03-10.39,6.61c-0.97,0.4-1.94,0.79-2.97,0.93
        C232.23,430.8,228.41,431.48,223.69,431.44z M224.43,427.11c5.26-0.39,10.58-0.26,15.54-2.79c6.22-3.17,11.3-7.34,14.1-13.9
        c1.9-4.43,4.57-8.53,5.72-13.29c0.6-2.48,1.72-4.91,1.58-7.47c-0.18-3.44-1.19-6.78-2.34-10.01c-1.34-3.79-3.95-6.74-7.13-9.13
        c-3.48-2.61-6.65-5.59-10.29-8.02c-2.93-1.96-5.95-3.35-9.42-3.87c-1.68-0.26-3.45-0.07-5.03-0.95
        c-0.37-0.21-0.53-0.66-1.03-0.71c-2.25-0.22-4.46-0.18-6.61,0.7c-9.49,3.87-17.11,10.04-22.87,18.51
        c-0.63,0.92-1.2,1.88-1.68,2.9c-1.99,4.33-2.89,8.97-3.75,13.6c-0.52,2.8-0.47,5.76,0.53,8.43c1.93,5.17,4.21,10.21,7.66,14.6
        c1.54,1.96,3.38,3.75,5.54,4.89c3.1,1.63,6.34,2.97,9.45,4.63C217.47,426.89,220.92,427.27,224.43,427.11z"/>
      <path d="M477.59,260.8c-1.82,0.23-4.4,0.05-6.94-0.51c-1.66-0.37-3.33-0.87-4.88-1.56c-2.15-0.95-2.1-2.72-0.37-4.27
        c2.8-2.51,6.18-2.39,9.49-2.4c2.19,0,4.37,0.2,6.57,0.04c1.89-0.13,3.52,0.47,4.66,2.13c1.44,2.09,0.8,4.55-1.52,5.55
        C482.61,260.64,480.49,260.72,477.59,260.8z M476.58,253.9c-2.03-0.4-4.19,0.19-6.38,0.32c-1.13,0.07-2.03,0.68-2.89,1.34
        c-0.42,0.32-0.44,0.59,0.02,0.92c1.42,1.02,2.91,1.79,4.75,1.66c2.95-0.21,5.91-0.35,8.86-0.54c0.36-0.02,0.71-0.1,1.06-0.19
        c1.87-0.49,1.99-0.77,1.04-2.41c-0.12-0.21-0.29-0.41-0.32-0.64c-0.14-0.88-0.71-0.93-1.41-0.81
        C479.8,253.81,478.29,253.9,476.58,253.9z"/>
      <path d="M629.08,198.49c0.04-3.52,0.85-6.59,2.76-9.35c2.04-2.95,5.05-4.15,8.41-4.76c2.61-0.47,4.87,0.26,7.14,1.58
        c5.58,3.26,5.65,8.1,4.54,13.62c-1.02,5.04-4.33,7.43-8.86,8.57c-2.72,0.69-5.37-0.18-7.94-1.07c-2.41-0.83-3.87-2.7-5.17-4.75
        C629.15,201.08,629.04,199.71,629.08,198.49z M650.83,196.1c-0.05-0.96,0-1.93-0.17-2.86c-0.32-1.77-0.6-3.69-2.15-4.81
        c-1.81-1.31-3.83-2.25-6.21-2.11c-1.7,0.1-1.72,0.03-1.65,1.73c0.02,0.5-0.27,1.26,0.59,1.33c1.07,0.09,1.86,0.74,2.67,1.26
        c2.09,1.35,3.76,3.07,3.59,5.81c-0.19,2.99-1.77,5.13-4.47,6.29c-1,0.43-1.77,0.46-1.56,1.96c0.18,1.27,0.58,1.31,1.57,1.08
        C647.17,204.81,650.49,201.79,650.83,196.1z M641.39,200.98c2.46,0.19,4.1-2.48,4.24-5.31c0.13-2.66-1.57-3.99-4.45-4.3
        c-2.92-0.31-5.34,2.17-5.53,5.38C635.49,199.28,637.6,200.82,641.39,200.98z M638.74,186.74c-1.38,0.07-2.57,0.7-3.61,1.56
        c-3.53,2.91-4.06,6.86-3.69,11.09c0.17,1.95,1.56,3.22,2.9,4.33c1.6,1.33,3.7,1.62,5.71,1.95c0.18,0.03,0.36,0.14,0.52-0.1
        c0.53-0.81-0.17-2.55-1.12-2.66c-2.53-0.3-4.5-1.51-5.23-3.95c-0.87-2.91-0.36-6.59,2.55-8.62c0.66-0.46,1.33-0.93,2.17-0.92
        c0.87,0.01,1.15-0.41,0.93-1.18C639.71,187.63,640.2,186.45,638.74,186.74z"/>
      <path d="M566.98,379.11c0,0.72,0.02,1.08,0,1.44c-0.07,1.3-0.63,1.77-1.89,2.05c-4.42,0.98-8.71-0.1-13.04-0.7
        c-0.39-0.05-0.78-0.2-1.14-0.35c-1.29-0.55-1.28-1.35-0.37-2.36c1.61-1.78,3.24-3.51,5.02-5.11c1.65-1.48,3.45-2.73,5.53-3.52
        c1.79-0.68,2.79-0.31,3.91,1.27C566.62,374.12,566.92,376.76,566.98,379.11z M552.59,379.27c0.19,0.08,0.37,0.2,0.55,0.22
        c3.62,0.41,7.21,1.27,10.9,0.72c0.71-0.11,0.74-0.49,0.69-0.98c-0.17-1.95-0.37-3.87-1.41-5.62c-0.56-0.94-1.09-1.28-2.2-0.92
        c-0.98,0.32-1.82,0.8-2.57,1.46c-1.59,1.39-3.17,2.79-4.93,3.98C553.22,378.4,552.74,378.67,552.59,379.27z"/>
      <path d="M550.96,356.96c3.59-0.05,7.44,3.33,7.83,6.82c0.16,1.39-0.3,2.42-1.52,3.11c-2.98,1.7-5.99,3.34-9.12,4.77
        c-1.11,0.5-2.38,0.34-3.43,1.06c-0.41,0.28-0.62-0.34-0.73-0.72c-0.28-1,0.11-1.97,0.24-2.93c0.36-2.61,0.93-5.19,1.32-7.79
        C545.91,359.06,548.92,356.9,550.96,356.96z M545.98,370.53c0.62-0.21,1-0.31,1.35-0.46c2.75-1.17,5.37-2.61,7.95-4.13
        c1.63-0.96,1.73-1.36,0.99-3.08c-0.79-1.82-2.01-3.04-4.02-3.58c-1.19-0.32-2.05-0.31-2.56,0.75
        C548.13,363.29,546.96,366.71,545.98,370.53z"/>
      <path d="M538.03,354.59c0.4,0.03,0.56,0.05,0.72,0.06c1.43,0.12,2.56,1.01,3.76,1.62c1.2,0.61,1.45,1.75,0.81,3.14
        c-1.41,3.09-2.28,6.39-3.58,9.52c-0.36,0.88-0.53,1.84-0.8,2.75c-0.42,1.37-0.85,1.48-1.85,0.5c-1.36-1.33-2.03-3.05-2.52-4.81
        c-0.54-1.95-1.35-3.75-2.45-5.43c-0.24-0.37-0.46-0.75-0.65-1.15c-0.7-1.49-0.42-2.44,0.74-3.6
        C533.9,355.52,536.09,355.1,538.03,354.59z M537.86,369.07c0.72-3.41,1.69-6.57,2.8-9.69c0.57-1.6-0.62-3.25-2.16-2.95
        c-1.59,0.31-3.16,0.82-4.54,1.77c-0.62,0.43-0.83,0.89-0.41,1.6C535.26,362.67,536.13,365.95,537.86,369.07z"/>
      <path d="M532.61,373.6c0.04,1.16-0.12,1.87-0.92,2.28c-0.14,0.07-0.36,0.17-0.37,0.27c-0.14,1.94-1.05,0.77-1.61,0.35
        c-2.9-2.21-6.1-3.86-9.45-5.29c-2.39-1.02-2.68-2.17-1.74-4.6c0.85-2.21,1.84-4.24,4.18-5.27c1.79-0.79,3.97-0.14,5.24,1.53
        c2.26,2.97,3.77,6.27,4.53,9.92C532.56,373.16,532.6,373.56,532.61,373.6z M530.67,373.11c0.01,0.02-0.05-0.31-0.21-0.57
        c-1.91-3.17-3.69-6.42-5.81-9.46c-0.36-0.51-0.65-0.56-1.18-0.32c-1.23,0.57-2.02,1.56-2.6,2.71c-1.62,3.19-1.34,3.83,2.01,5.12
        c2.23,0.86,4.51,1.64,6.09,3.63c0.22,0.28,0.51,0.66,1,0.32C530.36,374.26,530.82,374.05,530.67,373.11z"/>
      <path d="M537.64,399.91c0.23,1.87-0.06,4.31-0.63,6.74c-0.22,0.96-0.8,1.66-1.75,1.72c-3.2,0.2-6.1-0.72-8.52-2.83
        c-1.6-1.4-1.47-2.61-0.11-4.22c2.25-2.67,4.79-5.03,7.37-7.36c0.44-0.4,0.93-1.11,1.49-0.7c0.82,0.59,2.24,0.65,2.16,2.2
        C537.58,396.73,537.64,398.01,537.64,399.91z M535.25,397.9c0-0.56,0.02-0.84-0.01-1.11c-0.03-0.35,0.14-0.84-0.2-1
        c-0.43-0.19-0.66,0.33-0.92,0.58c-2.1,2.13-4.17,4.29-6.27,6.41c-0.56,0.57-0.39,1,0.13,1.38c1.76,1.27,3.66,2.09,5.9,1.7
        c0.68-0.12,0.89-0.57,0.92-1.2C534.95,402.31,535.11,399.97,535.25,397.9z"/>
      <path d="M557.42,401.45c-0.81,0.07-1.61-0.28-2.31-0.97c-2.01-1.95-3.44-4.29-4.61-6.8c-0.17-0.36-0.3-0.74-0.49-1.09
        c-1.08-1.88-0.65-2.9,1.4-3.67c1.69-0.63,3.43-0.52,5.08-0.17c2.16,0.46,4.35,0.34,6.5,0.64c2.71,0.37,3.43,1.53,2.54,4.14
        c-0.4,1.17-0.89,2.31-1.41,3.44c-0.53,1.16-1.34,2.05-2.53,2.61c-0.75,0.35-1.51,0.71-2.1,1.36
        C558.99,401.49,558.27,401.45,557.42,401.45z M552.05,391.07c0.49,3.53,2.27,6.07,4.45,8.39c0.27,0.29,0.66,0.19,1.02,0.11
        c3.01-0.61,5.11-2.12,5.87-5.32c0.6-2.53,0.96-2.67-2.23-2.8c-1.33-0.06-2.57-0.18-3.86-0.56c-1.35-0.4-2.77-0.71-4.22-0.67
        C552.34,390.24,551.97,390.55,552.05,391.07z"/>
      <path d="M517.32,386.93c-0.48,0-0.96,0-1.44,0c-1.95-0.02-2.31-0.32-2.44-2.26c-0.13-1.96,0.13-3.91,0.42-5.84
        c0.09-0.58,0.32-1.16,0.59-1.69c1.29-2.62,2.65-3.09,5.21-1.7c1.73,0.93,3.71,1.19,5.39,2.27c1.75,1.13,3.23,2.61,4.99,3.72
        c0.54,0.34,0.74,0.93,0.48,1.59c-0.09,0.23-0.22,0.45-0.47,0.5c-0.41,0.08-0.28-0.27-0.34-0.47c-0.09-0.3-0.32-0.48-0.58-0.57
        c-2.07-0.71-3.68-2.23-5.61-3.2c-1.86-0.94-3.97-1.22-5.74-2.35c-0.48-0.3-0.91-0.09-1.25,0.35c-0.4,0.51-0.75,1.07-0.86,1.7
        c-0.34,1.89-0.58,3.79-0.58,5.71c0,0.66,0.26,0.9,0.93,0.92c1.85,0.04,3.63-0.12,5.43-0.66c1.89-0.57,3.9-0.78,5.87-1.09
        c0.66-0.1,1.36,0.06,1.46,0.88c0.1,0.76-0.49,1.05-1.13,1.13C524.21,386.27,520.79,386.87,517.32,386.93z"/>
      <path d="M526.05,389.59c2.06,0,3.76-0.2,5.43,0.29c0.45,0.13,0.83,0.28,1,0.74c0.17,0.47,0.07,0.94-0.31,1.2
        c-2.9,1.94-4.78,4.93-7.45,7.1c-0.4,0.32-0.84,0.62-1.31,0.83c-2.66,1.18-4.6,0.48-5.9-2.14c-0.67-1.34-0.97-2.8-1.08-4.28
        c-0.13-1.67,0.63-2.63,2.27-3C521.24,389.75,523.79,389.3,526.05,389.59z M529.27,391.02c-2.68,0.81-5.47,0.37-8.16,0.98
        c-3.1,0.7-3.28,0.73-2.33,3.78c0.93,3.01,2.65,3.82,5.12,1.51C525.91,395.41,527.29,392.99,529.27,391.02z"/>
      <path d="M547.41,409.58c-1.9-0.25-3.79-0.5-5.69-0.77c-0.59-0.08-0.91-0.46-0.96-1.06c-0.12-1.68-0.19-3.34,0.47-4.95
        c0.89-2.17,1.28-4.47,1.2-6.79c-0.04-1.26,0.87-1.39,1.53-1.8c0.61-0.38,1.09,0.12,1.57,0.51c1.35,1.11,2.46,2.38,3.05,4.06
        c0.23,0.64,0.72,1.14,1.15,1.67c1.34,1.65,2.07,3.58,2.54,5.62c0.19,0.82-0.1,1.55-0.78,2
        C550.27,408.88,548.99,409.66,547.41,409.58z M547.49,407.86c0.42,0.04,1.09-0.14,1.75-0.48c1.53-0.78,1.52-0.75,0.96-2.43
        c-0.95-2.8-3.2-4.83-4.42-7.47c-0.08-0.17-0.28-0.28-0.43-0.41c-0.84-0.71-1.16-0.64-1.28,0.43c-0.34,3.05-0.58,6.11-1.36,9.09
        c-0.19,0.74,0.2,1,0.89,1.03C544.8,407.68,545.99,407.77,547.49,407.86z"/>
      <path d="M546.36,383.21c-0.01,2.24-0.71,3.39-2.32,3.84c-2.6,0.73-4.25,0.3-5.33-1.38c-0.98-1.54-0.75-3.94,0.53-5.32
        c0.6-0.65,0.97-1.5,2.05-1.68C544.84,378.09,546.38,379.43,546.36,383.21z M544.39,383.72c-0.03-2.28-0.48-2.87-2.18-2.87
        c-1.44,0-2.25,0.88-2.21,2.38c0.04,1.61,0.63,2.32,1.94,2.3C543.84,385.52,544.41,385.09,544.39,383.72z"/>
      <path d="M223.85,382.33c0.01,1.78-0.94,2.66-2.53,2.43c-1.55-0.23-2.98-0.76-4.38-1.51c-3.78-2.01-7-4.73-10.13-7.59
        c-0.48-0.44-0.98-0.88-0.81-1.62c0.16-0.69,0.72-0.76,1.32-0.76c0.49,0.01,0.49-0.43,0.63-0.75c1.67-3.87,4.82-6.08,8.61-7.43
        c1.38-0.49,2.86,0.05,4.17,0.65c0.96,0.45,1.2,1.45,1.32,2.42c0.47,3.96,1.24,7.9,1.2,11.91
        C223.25,380.95,223.96,381.63,223.85,382.33z M217.35,367.32c-0.11,0.02-0.4,0.03-0.66,0.12c-2.6,0.96-4.78,2.56-6.71,4.51
        c-0.97,0.98-0.52,2.86,0.32,3.69c1.36,1.34,2.83,2.61,4.39,3.7c1.5,1.05,3.16,1.86,4.79,2.7c0.43,0.22,1.06,0.53,1.46,0.19
        c0.35-0.3-0.24-0.76-0.26-1.18c0-0.12-0.05-0.24-0.05-0.35c-0.23-3.75-0.5-7.49-0.92-11.22
        C219.52,367.68,219.38,367.41,217.35,367.32z"/>
      <path d="M247.71,412.85c-0.03,2.39-1.82,4.94-4.09,5.86c-0.81,0.33-1.62,0.66-2.42,1.02c-1.53,0.7-2.99,0.35-3.83-1.11
        c-0.7-1.22-1.5-2.35-2.26-3.52c-0.22-0.33-0.44-0.7-0.51-1.07c-0.59-3.04-1.91-5.81-3.08-8.64c-0.15-0.36-0.26-0.76-0.29-1.15
        c-0.03-0.46,0.36-0.94,0.7-0.72c0.89,0.57,1.43-0.16,2.13-0.32c1.28-0.31,2.54-0.21,3.67,0.57c2.75,1.91,5.51,3.82,8.25,5.75
        C247.29,410.45,247.73,411.35,247.71,412.85z M244.63,413.1c0.04-0.57-0.25-0.91-0.68-1.2c-2.55-1.72-5.1-3.44-7.65-5.16
        c-0.34-0.23-0.7-0.36-1.12-0.38c-0.55-0.03-0.79,0.17-0.47,0.69c1.65,2.72,1.97,6.08,4.1,8.57c0.51,0.59,0.43,1.82,1.27,1.84
        c0.75,0.02,1.54-0.59,2.26-1.01C243.65,415.71,244.29,414.49,244.63,413.1z"/>
      <path d="M256.19,387.19c-0.27,1.84-0.4,3.73-1.01,5.52c-0.58,1.69-1.54,2.21-3.25,1.69c-1.76-0.54-3.56-0.88-5.37-1.22
        c-1.98-0.37-3.63-1.63-5.52-2.25c-0.46-0.15-0.33-0.43-0.15-0.73c0.31-0.53,0.77-0.79,1.38-0.82c0.73-0.04,1.51-0.04,2.1,0.35
        c1.83,1.17,3.92,1.26,5.96,1.61c2.37,0.41,2.28,0.4,2.81-1.98c0.47-2.13,0.22-4.2-0.09-6.3c-0.09-0.6-0.33-1.15-0.65-1.66
        c-0.78-1.23-1.76-1.44-2.9-0.52c-2.05,1.66-4.05,3.38-6.1,5.04c-0.87,0.7-1.8,1.33-2.73,1.95c-0.54,0.36-1.16,0.46-1.58-0.18
        c-0.39-0.59-0.07-1.09,0.4-1.45c3.12-2.37,5.94-5.1,8.93-7.63c1.78-1.51,4.42-1.07,5.82,0.8c0.81,1.08,1.34,2.26,1.48,3.61
        C255.87,384.39,256.04,385.78,256.19,387.19z"/>
      <path d="M243.26,372.93c0.08,1.33-0.6,2.45-1.97,3.19c-2.37,1.29-4.53,2.85-6.3,4.92c-0.54,0.64-1.22,1.16-1.98,1.54
        c-1.39,0.72-2.62,0-2.58-1.54c0.05-1.98-0.32-3.91-0.8-5.8c-0.71-2.74-0.45-5.48-0.12-8.22c0.12-1.01,0.72-1.64,1.68-1.98
        c1.94-0.68,3.84-0.24,5.62,0.45c2.07,0.8,3.79,2.23,5.25,3.89C242.87,370.31,243.31,371.43,243.26,372.93z M232.42,380.25
        c0.28-0.14,0.4-0.17,0.48-0.25c0.29-0.28,0.6-0.54,0.83-0.86c1.58-2.15,3.66-3.72,6.03-4.82c1.71-0.8,1.57-2.59,0.4-3.59
        c-1.32-1.12-2.76-2.05-4.29-2.84c-0.78-0.4-1.67-0.52-2.56-0.58c-0.62-0.04-0.96,0.22-1.04,0.87c-0.23,2.02-0.63,4.04-0.34,6.08
        C232.21,376.19,232.49,378.13,232.42,380.25z"/>
      <path d="M225.86,424.17c-1.71-0.1-3.42-0.23-4.96-1.13c-1.44-0.84-1.82-1.58-1.64-3.25c0.35-3.11,1.76-5.88,2.9-8.72
        c0.67-1.66,1.35-3.33,2.36-4.84c0.4-0.6,0.82-1.2,1.43-1.59c0.54-0.34,1.19-0.68,1.14,0.47c-0.01,0.31,0.14,0.43,0.34,0.56
        c0.99,0.65,1.44,1.66,1.85,2.72c1.25,3.17,1.84,6.53,2.87,9.76c0.78,2.48-0.44,4.51-2.9,5.38
        C228.16,423.91,227.05,424.27,225.86,424.17z M225.91,421.84c0.57,0.07,1.54-0.17,2.51-0.43c1.87-0.5,2.36-1.41,1.58-3.18
        c-0.71-1.61-1.27-3.27-1.83-4.94c-0.52-1.55-1.09-3.09-1.89-4.53c-0.13-0.24-0.25-0.56-0.56-0.56c-0.36,0-0.36,0.38-0.45,0.62
        c-0.35,0.93-0.7,1.87-1,2.82c-0.86,2.78-2.09,5.44-2.77,8.29c-0.2,0.82,0.06,1.18,0.77,1.43
        C223.31,421.73,224.39,421.76,225.91,421.84z"/>
      <path d="M209.33,420.11c-1.81-0.16-3.53-0.99-4.49-3.2c-0.73-1.67-1.86-3.14-2.22-5.01c-0.34-1.75,0.05-2.64,1.73-3.28
        c2.69-1.03,5.46-1.81,8.27-2.44c0.9-0.2,1.76-0.52,2.63-0.83c0.64-0.23,0.99-0.19,1.46,0.71c1.05,2.03-0.1,3.51-0.72,5.13
        c-0.7,1.81-0.92,3.73-1.52,5.55C213.63,419.26,212.4,420.13,209.33,420.11z M215.26,407.5c-3.21,1.19-6.14,2.3-9.09,3.37
        c-0.51,0.19-0.66,0.4-0.51,0.97c0.43,1.69,1.43,3.12,2.29,4.57c0.66,1.13,2.11,1.07,3.39,0.9c1.01-0.13,1.16-0.95,1.31-1.64
        C213.26,412.95,214.1,410.3,215.26,407.5z"/>
      <path d="M210.8,397.91c-2.74-0.24-5.57-0.43-8.38-0.77c-2.73-0.32-3.31,0.25-2.59,2.93c0.23,0.84,0.51,1.69,0.89,2.48
        c0.54,1.14,1.37,1.43,2.58,1.02c1.53-0.51,2.94-1.26,4.21-2.25c1.08-0.84,2.24-1.53,3.42-2.2c0.42-0.24,0.85-0.44,1.35-0.44
        c0.62,0,1.09,0.25,1.29,0.87c0.18,0.57-0.02,1.11-0.52,1.34c-3.1,1.39-5.61,3.82-8.9,4.89c-2.55,0.83-4.62,0.09-5.75-2.35
        c-0.66-1.42-1.07-2.93-1.23-4.49c-0.27-2.66,1.4-4.57,4.09-4.36c2.78,0.22,5.56,0.51,8.26,1.31c0.99,0.29,2.02,0.47,3.03,0.72
        c0.35,0.09,0.73,0.23,0.7,0.69c-0.03,0.5-0.45,0.48-0.81,0.51C211.92,397.84,211.4,397.87,210.8,397.91z"/>
      <path d="M246.26,396.61c2.45-0.2,4.83,0.53,7.21,1.17c1.11,0.3,1.78,1.09,1.86,2.24c0.14,2.1-0.28,4.05-1.69,5.7
        c-0.92,1.08-1.92,1.3-3.2,0.69c-1.87-0.89-3.74-1.76-5.6-2.67c-1.77-0.86-3.07-2.28-4.2-3.84c-0.71-0.98-0.3-1.72,0.89-1.87
        c0.2-0.02,0.42,0.02,0.54-0.16C243.12,396.4,244.66,396.51,246.26,396.61z M253.31,401.16c-0.01-0.48,0.09-1.09-0.84-1.27
        c-2.37-0.46-4.73-0.6-7.12-0.22c-0.38,0.06-0.92,0-1,0.45c-0.07,0.43,0.46,0.59,0.78,0.81c0.33,0.22,0.69,0.42,1.06,0.54
        c1.57,0.5,2.9,1.49,4.35,2.22c1.51,0.77,1.83,0.72,2.48-0.86C253.21,402.34,253.3,401.83,253.31,401.16z"/>
      <path d="M209.06,389.29c1.17-0.13,2.33-0.18,3.43,0.27c0.52,0.21,0.9,0.58,0.77,1.2c-0.13,0.63-0.65,0.82-1.2,0.74
        c-3.08-0.41-6.24-0.12-9.24-1.1c-0.19-0.06-0.39-0.09-0.58-0.16c-3.71-1.39-4.24-2.3-2.99-6.49c0.39-1.29,1.31-2.37,2.3-3.33
        c1.19-1.15,2.43-1.19,3.78-0.24c2.58,1.83,5.1,3.71,7.13,6.17c0.5,0.6,1.2,0.91,1.87,1.26c0.46,0.24,0.92,0.51,1.02,1.1
        c0.05,0.29,0.01,0.57-0.24,0.76c-0.29,0.23-0.47-0.06-0.72-0.15c-3.87-1.4-6.13-5.04-9.69-6.9c-1-0.52-1.52-0.5-2.17,0.39
        c-0.8,1.12-1.5,2.24-1.75,3.63c-0.15,0.81,0.07,1.29,0.78,1.65C203.95,389.29,206.51,389.22,209.06,389.29z"/>
      <path d="M227.27,397.15c-1.8,0-4.22-1.98-4.22-3.44c0.01-2.54,2.75-4.96,5.58-4.93c1.82,0.02,3.52,2.11,3.52,4.31
        C232.14,395.39,230.03,397.15,227.27,397.15z M228.04,391.08c-1.4-0.02-2.37,0.83-2.39,2.09c-0.02,1.01,0.71,1.91,1.55,1.93
        c1.3,0.03,2.52-0.97,2.51-2.06C229.69,392.02,228.9,391.09,228.04,391.08z"/>
    </g>
  </g>
</g>
</svg>
