<?xml version="1.0" encoding="utf-8"?>
<!-- Generator: Adobe Illustrator 23.0.2, SVG Export Plug-In . SVG Version: 6.00 Build 0)  -->
<svg version="1.1" id="line" xmlns="http://www.w3.org/2000/svg" xmlns:xlink="http://www.w3.org/1999/xlink" x="0px" y="0px"
	 viewBox="0 0 288 226.77" style="enable-background:new 0 0 288 226.77;" xml:space="preserve">
<style type="text/css">
	.st0{fill:#FF3A5B;}
	.st1{fill:#50E3C2;}
	.st2{fill:#FF8438;}
	.st3{fill:#FFDD4C;}
	.st4{fill:#FFFFFF;}
	.st5{fill:#925F36;}
	.st6{fill:#422918;}
	.st7{fill:#007EFF;}
	.st8{fill:#9C9B9B;}
	.st9{fill:#C6C6C5;}
	.st10{fill:#D9D9D9;}
	.st11{fill:#6F6F6E;}
	.st12{fill:#ECECEC;}
	.st13{fill:#97E6FC;}
	.st14{fill:#B1B1B1;}
	.st15{fill:#1D1D1B;}
	.st16{fill:#FFFFFF;stroke:#1D1D1B;stroke-width:0.5;stroke-miterlimit:10;}
	.st17{fill:none;stroke:#FFFFFF;stroke-linecap:round;stroke-linejoin:round;stroke-miterlimit:10;}
	.st18{fill:#A0ECD2;}
	.st19{fill:#C4F5FB;}
	.st20{fill:none;stroke:#FFFFFF;stroke-width:0.876;stroke-linecap:round;stroke-linejoin:round;stroke-miterlimit:10;}
	.st21{fill:none;}
	.st22{fill:#575756;}
	.st23{fill:#FFFFFF;stroke:#1D1D1B;stroke-width:0.9148;stroke-miterlimit:10;}
	.st24{fill:#9B5416;}
	.st25{fill:#868686;}
</style>
<g>
	<g>
		<g>
			<path class="st12" d="M230.8,76.93c-0.24,8.43-1.6,16.77-1.76,25.21c-0.16,8.19-0.17,16.39-0.17,24.58c0,8.33-0.01,16.66-0.01,25
				c0,1.11-0.24,2.22,0.06,3.32c0.22,0.81-0.49,1.36-0.7,2.06c-0.69,2.25-1.82,4.04-4.34,4.92c-5.72,2-11.59,3.08-17.61,3.39
				c-3.56,0.18-7.11,0.52-10.67,0.4c-2.27-0.07-4.54-0.28-6.81-0.38c-5.01-0.23-10.04-0.29-15.04-0.68
				c-4.38-0.34-8.75-0.15-13.12-0.34c-1.15-0.05-2.31-0.17-3.44-0.38c-2.63-0.49-5.27-0.93-7.8-1.84c-3.34-1.19-5.96-4.97-5.85-8.52
				c0.12-4.01-0.34-7.98-0.66-11.96c-0.54-6.69-0.82-13.38-0.68-20.09c0.12-5.48,0-10.98,0.24-16.46c0.32-7.1,0.84-14.19,1.23-21.29
				c0.34-6.26,1.09-12.47,1.46-18.73c0.23-3.9,0.47-7.84,1.3-11.7c0.58-2.7,1.41-5.34,2.79-7.7c1.29-2.2,3.31-3.83,5.78-4.55
				c4.39-1.28,8.84-2.35,13.45-2.6c3.35-0.19,6.7-0.51,10.05-0.63c3.6-0.13,7.2-0.47,10.81-0.4c6.48,0.13,12.96,0.02,19.44,0.15
				c3.32,0.07,6.6,0.61,9.87,1.3c5.43,1.15,8.24,5.02,9.88,9.75c1.13,3.23,1.93,6.62,2.54,10.03c0.41,2.28,0.13,4.6,0.25,6.9
				C231.46,69.44,230.91,73.18,230.8,76.93z"/>
			<path class="st0" d="M179.25,134.05c-0.07-0.01-0.15-0.02-0.22-0.03c-0.09-0.1-0.22-0.19-0.36-0.26
				c-1.38-0.69-2.84-1.26-4.12-2.1c-2.14-1.4-4-3.07-4.78-5.67c-0.74-2.49-1.42-4.99-1.91-7.56c-0.91-4.85-0.41-9.35,2.68-13.38
				c1.97-2.56,4.27-4.78,7.23-6.09c2.26-1,4.77-1.24,7.22-1.57c0.48-0.06,0.57,0.19,0.57,0.6c-0.02,0.98-0.05,1.97,0.01,2.94
				c0.03,0.61-0.2,0.85-0.78,0.9c-2.11,0.16-3.98,1.09-5.82,2.01c-3.29,1.65-6.07,3.76-6.49,7.81c-0.03,0.27-0.14,0.52-0.2,0.79
				c-0.67,2.97-1.31,5.88-0.09,8.95c1.37,3.45,4.01,5.58,6.91,7.55c0.29,0.19,0.64,0.22,0.98,0.18c0.9-0.09,0.98,0.29,0.81,1.1
				c-0.3,1.35-0.69,2.68-1.07,4.01C179.63,134.14,179.43,134.08,179.25,134.05z"/>
			<path class="st13" d="M203.89,123.06c-2.6,5.04-6.18,9.16-11.85,10.9c-1.38,0.42-2.75,0.96-4.21,1.13
				c-0.17,0.02-0.33,0.06-0.5,0.08c-0.76,0.1-1.64,0.07-2.17-0.31c-0.7-0.5,0.17-1.24,0.22-1.9c0.14-1.91,0.97-2.7,3.1-2.98
				c3.43-0.44,6.7-1.68,8.99-4.63c0.42-0.54,1.03-1.08,1.8-1.18c0.46-0.06,0.49-0.36,0.45-0.64c-0.15-1.02,0.26-1.89,0.78-2.66
				c1.83-2.69,1.93-5.76,1.16-8.61c-0.75-2.77-1.99-5.45-4.57-7.34c-2.89-2.11-5.99-3.24-9.52-3.31c-0.57-0.01-0.79-0.2-0.77-0.77
				c0.03-0.88,0-1.76,0.02-2.64c0.01-0.56,0.23-1.06,0.86-1.04c1.39,0.04,2.76-0.45,4.15-0.07c1.85,0.5,3.68,1.03,5.27,2.18
				c0.19,0.14,0.39,0.32,0.61,0.35c2.28,0.35,3.42,2.11,4.75,3.69c1.49,1.77,2.23,3.91,3.18,5.94c0.65,1.36,0.36,2.93,0.44,5.14
				C206.37,117.04,205.38,120.17,203.89,123.06z"/>
			<g>
				<path class="st12" d="M113.35,116.92c0.41-0.11,0.64,0.06,0.88,0.32c0.67,0.74,1.23,1.48,0.98,2.62
					c-0.2,0.91,0.23,1.87-0.48,2.79c-0.97,1.27-2.04,2.24-3.66,2.52c-0.47,0.08-1.04,0.19-0.85,0.86c0.15,0.56,0.66,0.48,1.11,0.39
					c1.62-0.3,2.99-1.05,3.96-2.38c0.34,0.14,0.25,0.37,0.25,0.55c0,3.42-0.15,6.83-0.31,10.25c-0.06,1.29-0.72,2.02-1.54,2.73
					c-1.65,1.43-3.62,2.06-5.79,2.16c-2.48,0.11-4.93-0.05-7.32-0.82c-0.23-0.07-0.45-0.15-0.67-0.25c-1.2-0.53-1.83-1.27-1.82-2.77
					c0.01-3.35-0.67-6.66-0.69-10.02c0-0.33-0.11-0.67,0.09-1.03c1.41,0.46,2.82,0.91,4.24,1.37c0.45,0.15,0.99,0.4,1.22-0.22
					c0.22-0.6-0.32-0.82-0.77-0.98c-0.86-0.3-1.74-0.59-2.62-0.84c-2.87-0.82-2.86-2.24-2.59-4.47c0.19-1.51,1.32-2.55,2.58-3.37
					c0.49-0.32,0.76-0.23,0.65,0.42c-0.02,0.1-0.02,0.2-0.03,0.3c-0.25,2.96,0.51,4.11,3.74,5.68c1.82,0.88,4.74,0.51,6.21-0.92
					c0.63-0.61,1.48-0.89,1.96-1.77c0.42-0.77,0.75-1.48,0.83-2.34C112.94,117.4,112.87,117.05,113.35,116.92z"/>
				<path class="st12" d="M126.05,63.27c-1.91,2.13-4.34,3.42-7.23,3.68c-1.07,0.1-1.89,0.7-2.78,1.18c-0.18,0.1-0.28,0.28-0.31,0.5
					c-0.43,3.1-0.9,6.2-1.29,9.3c-0.6,4.77-0.71,9.58-1,14.38c-0.16,2.7-0.53,5.39-0.96,8.06c-0.53,3.26-0.4,6.55-0.68,9.82
					c-0.18,2.09-0.16,4.19-0.28,6.29c-0.06,1.01-0.75,1.77-1.2,2.62c-0.12,0.23-0.42,0.49-0.75,0.12c-0.44-0.5-0.86-0.32-1.18,0.11
					c-0.42,0.57-0.98,0.68-1.61,0.64c-1.35-0.08-2.73-0.05-3.8-1.11c-0.36-0.36-0.66-0.69-0.64-1.29c0.05-1.96,0.02-3.93,0.02-5.89
					c0.19-4.75-0.32-9.47-0.83-14.18c-0.22-2.05-0.39-4.11-0.37-6.18c0.04-4.71,0.03-9.41-0.54-14.1c-0.22-1.84-0.34-3.71,0.21-5.54
					c0.23-0.78-0.13-1.13-0.89-1.6c-1.81-1.1-3.6-2.29-5.09-3.82c-0.77-0.79-1.52-1.63-2.22-2.51c-1.21-1.52-1.57-3.28-1.78-5.1
					c-0.65-5.85,2.01-9.63,6.86-12.37c3.8-2.14,8.05-2.75,12.31-3.23c2.01-0.23,4.04-0.57,6.08-0.17c2.66,0.53,4.9,1.89,7.03,3.49
					c1.37,1.03,3,1.73,4.04,3.19c0.38,0.53,0.78,1.04,0.8,1.71c0.02,0.46,0.11,0.83,0.51,1.15c0.4,0.31,0.35,0.87,0.41,1.32
					C129.3,57.33,128.47,60.57,126.05,63.27z"/>
			</g>
			<path class="st14" d="M183.26,137.91c-0.03,0.17-0.06,0.33-0.1,0.5c-0.38,1.56-1.96,2.31-3.45,1.66c-0.34-0.15-0.3-0.4-0.24-0.67
				c0.33-1.59,0.56-3.21,1.15-4.73c0.61-1.59,0.76-3.3,1.31-4.9c0.16-0.47-0.1-0.82-0.46-1.15c-0.92-0.83-2.02-1.39-3.15-1.81
				c-1.43-0.53-2.21-1.61-2.84-2.88c-1.33-2.7-2.18-5.49-2.03-8.56c0.13-2.61,0.75-4.91,2.2-7.2c2.08-3.29,5.26-4.4,8.65-5.12
				c3.34-0.71,6.69-0.55,9.8,1.18c2.72,1.51,4.76,3.54,5.88,6.56c0.51,1.38,0.76,2.7,0.88,4.54c0.14,1.49-0.22,3.27-1.3,4.9
				c-0.28,0.42-0.45,0.91-0.67,1.37c-0.1,0.21-0.15,0.52-0.32,0.62c-1.68,0.99-2.2,3-3.79,4.11c-2.14,1.49-4.4,2.48-7.01,2.63
				c-0.64,0.04-1.27,0.16-1.9,0.27c-0.36,0.06-0.46,0.34-0.54,0.65C184.71,132.56,183.72,135.17,183.26,137.91z"/>
			<path class="st14" d="M185.75,69.32c3.23,0.03,5.94,3.61,4.88,6.66c-0.85,2.46-3.02,3.08-5.59,2.03
				c-0.71-0.29-1.35-0.77-2.01-1.18c-0.45-0.28-0.71-0.73-0.92-1.19C180.99,73.07,182.76,69.29,185.75,69.32z"/>
			<path class="st14" d="M102.3,35.66c3.95-0.95,7.98-1.2,12.02-0.63c3.26,0.46,5.97,2.09,8.34,4.32c0.31,0.3,0.59,0.63,1.05,1.14
				c-1.07-0.03-1.91-0.01-2.78-0.35c-3.96-1.53-8.05-2.33-12.33-2.05c-2.64,0.17-5.28,0.29-7.79,1.27c-3.12,1.2-5.82,3.04-8.21,5.32
				c-0.7,0.67-1.29,1.47-1.93,2.21c-0.11-0.13-0.22-0.26-0.33-0.39C92.3,40.69,96.35,37.09,102.3,35.66z"/>
			<path class="st8" d="M187.75,169.04c-0.3,1.26-0.15,2.56-0.11,3.83c0.02,0.72-0.15,1.19-0.7,1.73c-0.92,0.9-1.79,1.73-3.17,1.76
				c-1.58,0.03-3-0.39-4.29-1.3c-0.51-0.36-0.81-0.79-0.8-1.43c0.04-1.49,0.08-2.97,0.09-4.46c0.01-0.56,0.24-0.76,0.8-0.75
				c1.29,0.03,2.57,0.01,3.86,0.01c0,0.03,0,0.07,0,0.1c1.25,0,2.5-0.01,3.75,0.01C187.49,168.54,187.9,168.41,187.75,169.04z"/>
		</g>
		<g>
			<g>
				<path class="st13" d="M93.1,61.65c-0.81,2.31-1.29,4.74-1.42,7.18c-0.03,0.49,0.25,1.21,0.7,1c0.74-2.66,0.91-5.48,0.51-8.22"/>
				<path class="st13" d="M90.26,74.2c-0.55,2.04-1.1,4.08-1.66,6.13c-0.11,0.41-0.22,0.83-0.14,1.25c0.08,0.41,0.42,0.81,0.84,0.81
					c0.54,0,0.88-0.59,1.05-1.11c0.76-2.31,0.76-4.86,0-7.16"/>
				<path class="st13" d="M87.37,91.61c0.09-0.16-0.14-0.33-0.31-0.27c-0.17,0.06-0.26,0.24-0.33,0.4
					c-1.22,2.79-1.98,5.79-2.22,8.82c-0.01,0.18-0.02,0.38,0.08,0.53c0.21,0.32,0.72,0.2,1.03-0.03c1.1-0.83,1.27-2.39,1.36-3.77
					c0.11-1.82,0.22-3.63,0.33-5.45c0.01-0.17-0.02-0.39-0.18-0.43c-0.16-0.04-0.12,0.33-0.01,0.21"/>
				<path class="st13" d="M82.36,109.33c-0.41,1.09-0.83,2.19-1.24,3.28c-0.39,1.02-0.78,2.08-0.67,3.16
					c0.05,0.5,0.27,1.06,0.76,1.18c0.72,0.18,1.22-0.7,1.39-1.42c0.54-2.26,0.63-4.62,0.24-6.91c-0.03-0.18-0.11-0.4-0.29-0.4
					c-0.18,0-0.07,0.38,0.04,0.23"/>
				<path class="st13" d="M77.27,126.92c-1,1.54-1.71,3.26-2.08,5.05c-0.14,0.69-0.23,1.44,0.08,2.07c0.31,0.63,1.15,1.05,1.74,0.68
					c0.51-0.32,0.61-1.01,0.65-1.61c0.2-2.67,0.4-5.35,0.6-8.02c-0.44,0.65-0.88,1.29-1.32,1.94"/>
				<path class="st13" d="M70.67,145.45c-0.87,1.85-1.5,3.82-1.87,5.84c-0.1,0.55-0.18,1.12,0,1.65c0.17,0.53,0.66,0.99,1.22,0.95
					c0.77-0.06,1.15-0.95,1.33-1.69c0.71-2.88,1-5.87,0.86-8.84c-0.46,0.63-0.82,1.34-1.05,2.09"/>
				<path class="st13" d="M65.07,163.12c-1.48,1.98-2.59,4.24-3.26,6.62c-0.19,0.69-0.31,1.55,0.24,2.01
					c0.4,0.34,1.02,0.31,1.47,0.04s0.74-0.73,0.96-1.21c1.17-2.57,0.4-5.7,1.56-8.27c-0.52-0.12-1.09,0.31-1.12,0.84"/>
				<path class="st13" d="M58.39,181.68c-1.04,2.52-1.97,5.09-2.8,7.69c-0.14,0.44-0.27,0.92-0.11,1.35
					c0.35,0.92,1.81,0.84,2.43,0.08c0.62-0.76,0.66-1.82,0.71-2.8c0.13-2.45,0.52-4.89,1.18-7.26"/>
			</g>
			<g>
				<path class="st13" d="M95.91,59.89c-0.53,2.39-0.72,4.85-0.57,7.3c0.03,0.49,0.39,1.17,0.82,0.91c0.42-2.73,0.26-5.55-0.46-8.22
					"/>
				<path class="st13" d="M94.56,72.68c-0.31,2.09-0.62,4.19-0.92,6.28c-0.06,0.42-0.12,0.85,0.01,1.25s0.51,0.76,0.93,0.71
					c0.54-0.06,0.8-0.69,0.91-1.22c0.49-2.38,0.19-4.91-0.84-7.11"/>
				<path class="st13" d="M93.74,90.31c0.07-0.17-0.18-0.31-0.34-0.24c-0.16,0.08-0.23,0.27-0.28,0.44
					c-0.89,2.92-1.28,5.98-1.17,9.02c0.01,0.18,0.02,0.38,0.14,0.52c0.25,0.3,0.74,0.11,1.02-0.15c0.99-0.96,0.98-2.52,0.91-3.9
					c-0.1-1.82-0.21-3.64-0.31-5.45c-0.01-0.17-0.06-0.39-0.23-0.4c-0.17-0.02-0.08,0.35,0.02,0.21"/>
				<path class="st13" d="M90.85,108.49c-0.28,1.14-0.57,2.27-0.85,3.41c-0.26,1.05-0.53,2.15-0.3,3.22
					c0.11,0.49,0.4,1.02,0.89,1.08c0.74,0.09,1.13-0.84,1.21-1.58c0.27-2.31,0.08-4.67-0.57-6.89c-0.05-0.17-0.16-0.39-0.34-0.37
					c-0.18,0.02-0.02,0.39,0.06,0.23"/>
				<path class="st13" d="M87.87,126.56c-0.81,1.64-1.31,3.44-1.47,5.26c-0.06,0.7-0.06,1.46,0.32,2.05
					c0.38,0.59,1.26,0.91,1.81,0.47c0.47-0.38,0.49-1.08,0.46-1.68c-0.12-2.68-0.23-5.36-0.35-8.04c-0.36,0.69-0.72,1.39-1.08,2.08"
					/>
				<path class="st13" d="M83.49,145.74c-0.65,1.94-1.04,3.97-1.17,6.02c-0.03,0.55-0.04,1.13,0.19,1.64
					c0.23,0.5,0.78,0.91,1.32,0.8c0.75-0.15,1.03-1.07,1.12-1.84c0.36-2.95,0.3-5.95-0.19-8.88c-0.38,0.68-0.65,1.43-0.8,2.2"/>
				<path class="st13" d="M80.01,163.94c-1.24,2.14-2.07,4.52-2.46,6.96c-0.11,0.71-0.12,1.57,0.47,1.97
					c0.43,0.29,1.05,0.19,1.46-0.14c0.41-0.32,0.65-0.82,0.81-1.31c0.86-2.69-0.27-5.71,0.58-8.4c-0.53-0.05-1.04,0.43-1.02,0.96"/>
				<path class="st13" d="M75.56,183.16c-0.74,2.63-1.36,5.28-1.87,7.96c-0.09,0.45-0.16,0.95,0.05,1.35
					c0.45,0.87,1.89,0.62,2.43-0.21c0.53-0.83,0.44-1.89,0.38-2.87c-0.16-2.45-0.06-4.92,0.32-7.35"/>
			</g>
			<g>
				<path class="st13" d="M100.59,53.09c-0.39,2.42-0.44,4.89-0.14,7.32c0.06,0.49,0.46,1.14,0.87,0.87
					c0.26-2.75-0.06-5.56-0.94-8.18"/>
				<path class="st13" d="M99.99,65.94c-0.18,2.11-0.37,4.22-0.55,6.32c-0.04,0.42-0.07,0.86,0.08,1.25s0.55,0.73,0.97,0.65
					c0.54-0.09,0.76-0.74,0.84-1.28c0.35-2.4-0.1-4.91-1.26-7.05"/>
				<path class="st13" d="M100.2,83.58c0.06-0.17-0.2-0.3-0.36-0.22c-0.16,0.09-0.21,0.28-0.26,0.46c-0.71,2.96-0.93,6.04-0.64,9.08
					c0.02,0.18,0.04,0.37,0.17,0.51c0.27,0.28,0.75,0.07,1.01-0.21c0.94-1.01,0.83-2.58,0.68-3.95c-0.21-1.81-0.42-3.62-0.63-5.43
					c-0.02-0.17-0.08-0.38-0.25-0.39c-0.17-0.01-0.06,0.35,0.03,0.21"/>
				<path class="st13" d="M98.38,101.91c-0.22,1.15-0.43,2.3-0.65,3.45c-0.2,1.07-0.4,2.18-0.11,3.23c0.13,0.48,0.46,0.99,0.95,1.03
					c0.74,0.05,1.07-0.91,1.12-1.65c0.14-2.32-0.2-4.66-0.98-6.85c-0.06-0.17-0.18-0.38-0.36-0.35c-0.18,0.03,0,0.39,0.08,0.22"/>
				<path class="st13" d="M96.46,120.11c-0.71,1.69-1.11,3.51-1.16,5.34c-0.02,0.7,0.03,1.46,0.44,2.03
					c0.41,0.57,1.31,0.83,1.84,0.36c0.45-0.4,0.42-1.1,0.36-1.7c-0.27-2.67-0.55-5.33-0.82-8c-0.32,0.71-0.64,1.43-0.96,2.14"/>
				<path class="st13" d="M93.22,139.52c-0.53,1.98-0.81,4.03-0.81,6.07c0,0.56,0.02,1.13,0.28,1.62s0.83,0.86,1.37,0.72
					c0.74-0.19,0.96-1.13,1.01-1.9c0.19-2.96-0.05-5.95-0.71-8.85c-0.34,0.71-0.57,1.47-0.67,2.25"/>
				<path class="st13" d="M90.81,157.9c-1.11,2.21-1.81,4.63-2.05,7.09c-0.07,0.71-0.03,1.58,0.59,1.94
					c0.45,0.27,1.06,0.12,1.45-0.22c0.39-0.35,0.6-0.85,0.73-1.36c0.71-2.73-0.6-5.68,0.08-8.42c-0.53-0.02-1.01,0.49-0.96,1.02"/>
				<path class="st13" d="M87.49,177.34c-0.58,2.66-1.05,5.35-1.4,8.06c-0.06,0.46-0.11,0.95,0.13,1.35
					c0.5,0.84,1.93,0.51,2.41-0.35c0.48-0.86,0.33-1.91,0.21-2.88c-0.31-2.44-0.34-4.91-0.11-7.35"/>
			</g>
			<g>
				<path class="st13" d="M124.87,61.65c0.81,2.31,1.29,4.74,1.42,7.18c0.03,0.49-0.25,1.21-0.7,1c-0.74-2.66-0.91-5.48-0.51-8.22"
					/>
				<path class="st13" d="M127.71,74.2c0.55,2.04,1.1,4.08,1.66,6.13c0.11,0.41,0.22,0.83,0.14,1.25c-0.08,0.41-0.42,0.81-0.84,0.81
					c-0.54,0-0.88-0.59-1.05-1.11c-0.76-2.31-0.76-4.86,0-7.16"/>
				<path class="st13" d="M130.61,91.61c-0.09-0.16,0.14-0.33,0.31-0.27c0.17,0.06,0.26,0.24,0.33,0.4
					c1.22,2.79,1.98,5.79,2.22,8.82c0.01,0.18,0.02,0.38-0.08,0.53c-0.21,0.32-0.72,0.2-1.03-0.03c-1.1-0.83-1.27-2.39-1.36-3.77
					c-0.11-1.82-0.22-3.63-0.33-5.45c-0.01-0.17,0.02-0.39,0.18-0.43c0.16-0.04,0.12,0.33,0.01,0.21"/>
				<path class="st13" d="M135.61,109.33c0.41,1.09,0.83,2.19,1.24,3.28c0.39,1.02,0.78,2.08,0.67,3.16
					c-0.05,0.5-0.27,1.06-0.76,1.18c-0.72,0.18-1.22-0.7-1.39-1.42c-0.54-2.26-0.63-4.62-0.24-6.91c0.03-0.18,0.11-0.4,0.29-0.4
					c0.18,0,0.07,0.38-0.04,0.23"/>
				<path class="st13" d="M140.7,126.92c1,1.54,1.71,3.26,2.08,5.05c0.14,0.69,0.23,1.44-0.08,2.07c-0.31,0.63-1.15,1.05-1.74,0.68
					c-0.51-0.32-0.61-1.01-0.65-1.61c-0.2-2.67-0.4-5.35-0.6-8.02c0.44,0.65,0.88,1.29,1.32,1.94"/>
				<path class="st13" d="M147.3,145.45c0.87,1.85,1.5,3.82,1.87,5.84c0.1,0.55,0.18,1.12,0,1.65c-0.17,0.53-0.66,0.99-1.22,0.95
					c-0.77-0.06-1.15-0.95-1.33-1.69c-0.71-2.88-1-5.87-0.86-8.84c0.46,0.63,0.82,1.34,1.05,2.09"/>
				<path class="st13" d="M152.9,163.12c1.48,1.98,2.59,4.24,3.26,6.62c0.19,0.69,0.31,1.55-0.24,2.01
					c-0.4,0.34-1.02,0.31-1.47,0.04c-0.45-0.27-0.74-0.73-0.96-1.21c-1.17-2.57-0.4-5.7-1.56-8.27c0.52-0.12,1.09,0.31,1.12,0.84"/>
				<path class="st13" d="M159.58,181.68c1.04,2.52,1.97,5.09,2.8,7.69c0.14,0.44,0.27,0.92,0.11,1.35
					c-0.35,0.92-1.81,0.84-2.43,0.08c-0.62-0.76-0.66-1.82-0.71-2.8c-0.13-2.45-0.52-4.89-1.18-7.26"/>
			</g>
			<g>
				<path class="st13" d="M122.06,59.89c0.53,2.39,0.72,4.85,0.57,7.3c-0.03,0.49-0.39,1.17-0.82,0.91
					c-0.42-2.73-0.26-5.55,0.46-8.22"/>
				<path class="st13" d="M123.41,72.68c0.31,2.09,0.62,4.19,0.92,6.28c0.06,0.42,0.12,0.85-0.01,1.25s-0.51,0.76-0.93,0.71
					c-0.54-0.06-0.8-0.69-0.91-1.22c-0.49-2.38-0.19-4.91,0.84-7.11"/>
				<path class="st13" d="M124.23,90.31c-0.07-0.17,0.18-0.31,0.34-0.24c0.16,0.08,0.23,0.27,0.28,0.44
					c0.89,2.92,1.28,5.98,1.17,9.02c-0.01,0.18-0.02,0.38-0.14,0.52c-0.25,0.3-0.74,0.11-1.02-0.15c-0.99-0.96-0.98-2.52-0.91-3.9
					c0.1-1.82,0.21-3.64,0.31-5.45c0.01-0.17,0.06-0.39,0.23-0.4c0.17-0.02,0.08,0.35-0.02,0.21"/>
				<path class="st13" d="M127.12,108.49c0.28,1.14,0.57,2.27,0.85,3.41c0.26,1.05,0.53,2.15,0.3,3.22
					c-0.11,0.49-0.4,1.02-0.89,1.08c-0.74,0.09-1.13-0.84-1.21-1.58c-0.27-2.31-0.08-4.67,0.57-6.89c0.05-0.17,0.16-0.39,0.34-0.37
					c0.18,0.02,0.02,0.39-0.06,0.23"/>
				<path class="st13" d="M130.11,126.56c0.81,1.64,1.31,3.44,1.47,5.26c0.06,0.7,0.06,1.46-0.32,2.05
					c-0.38,0.59-1.26,0.91-1.81,0.47c-0.47-0.38-0.49-1.08-0.46-1.68c0.12-2.68,0.23-5.36,0.35-8.04c0.36,0.69,0.72,1.39,1.08,2.08"
					/>
				<path class="st13" d="M134.48,145.74c0.65,1.94,1.04,3.97,1.17,6.02c0.03,0.55,0.04,1.13-0.19,1.64
					c-0.23,0.5-0.78,0.91-1.32,0.8c-0.75-0.15-1.03-1.07-1.12-1.84c-0.36-2.95-0.3-5.95,0.19-8.88c0.38,0.68,0.65,1.43,0.8,2.2"/>
				<path class="st13" d="M137.96,163.94c1.24,2.14,2.07,4.52,2.46,6.96c0.11,0.71,0.12,1.57-0.47,1.97
					c-0.43,0.29-1.05,0.19-1.46-0.14c-0.41-0.32-0.65-0.82-0.81-1.31c-0.86-2.69,0.27-5.71-0.58-8.4c0.53-0.05,1.04,0.43,1.02,0.96"
					/>
				<path class="st13" d="M142.41,183.16c0.74,2.63,1.36,5.28,1.87,7.96c0.09,0.45,0.16,0.95-0.05,1.35
					c-0.45,0.87-1.89,0.62-2.43-0.21c-0.53-0.83-0.44-1.89-0.38-2.87c0.16-2.45,0.06-4.92-0.32-7.35"/>
			</g>
			<g>
				<path class="st13" d="M117.38,53.09c0.39,2.42,0.44,4.89,0.14,7.32c-0.06,0.49-0.46,1.14-0.87,0.87
					c-0.26-2.75,0.06-5.56,0.94-8.18"/>
				<path class="st13" d="M117.98,65.94c0.18,2.11,0.37,4.22,0.55,6.32c0.04,0.42,0.07,0.86-0.08,1.25s-0.55,0.73-0.97,0.65
					c-0.54-0.09-0.76-0.74-0.84-1.28c-0.35-2.4,0.1-4.91,1.26-7.05"/>
				<path class="st13" d="M117.77,83.58c-0.06-0.17,0.2-0.3,0.36-0.22c0.16,0.09,0.21,0.28,0.26,0.46c0.71,2.96,0.93,6.04,0.64,9.08
					c-0.02,0.18-0.04,0.37-0.17,0.51c-0.27,0.28-0.75,0.07-1.01-0.21c-0.94-1.01-0.83-2.58-0.68-3.95c0.21-1.81,0.42-3.62,0.63-5.43
					c0.02-0.17,0.08-0.38,0.25-0.39c0.17-0.01,0.06,0.35-0.03,0.21"/>
				<path class="st13" d="M119.59,101.91c0.22,1.15,0.43,2.3,0.65,3.45c0.2,1.07,0.4,2.18,0.11,3.23c-0.13,0.48-0.46,0.99-0.95,1.03
					c-0.74,0.05-1.07-0.91-1.12-1.65c-0.14-2.32,0.2-4.66,0.98-6.85c0.06-0.17,0.18-0.38,0.36-0.35c0.18,0.03,0,0.39-0.08,0.22"/>
				<path class="st13" d="M121.51,120.11c0.71,1.69,1.11,3.51,1.16,5.34c0.02,0.7-0.03,1.46-0.44,2.03
					c-0.41,0.57-1.31,0.83-1.84,0.36c-0.45-0.4-0.42-1.1-0.36-1.7c0.27-2.67,0.55-5.33,0.82-8c0.32,0.71,0.64,1.43,0.96,2.14"/>
				<path class="st13" d="M124.75,139.52c0.53,1.98,0.81,4.03,0.81,6.07c0,0.56-0.02,1.13-0.28,1.62c-0.26,0.49-0.83,0.86-1.37,0.72
					c-0.74-0.19-0.96-1.13-1.01-1.9c-0.19-2.96,0.05-5.95,0.71-8.85c0.34,0.71,0.57,1.47,0.67,2.25"/>
				<path class="st13" d="M127.17,157.9c1.11,2.21,1.81,4.63,2.05,7.09c0.07,0.71,0.03,1.58-0.59,1.94
					c-0.45,0.27-1.06,0.12-1.45-0.22c-0.39-0.35-0.6-0.85-0.73-1.36c-0.71-2.73,0.6-5.68-0.08-8.42c0.53-0.02,1.01,0.49,0.96,1.02"
					/>
				<path class="st13" d="M130.48,177.34c0.58,2.66,1.05,5.35,1.4,8.06c0.06,0.46,0.11,0.95-0.13,1.35
					c-0.5,0.84-1.93,0.51-2.41-0.35c-0.48-0.86-0.33-1.91-0.21-2.88c0.31-2.44,0.34-4.91,0.11-7.35"/>
			</g>
			<g>
				<path class="st13" d="M106.09,50.22c-0.29,2.43-0.24,4.9,0.16,7.32c0.08,0.49,0.51,1.12,0.9,0.83c0.15-2.76-0.29-5.55-1.28-8.13
					"/>
				<path class="st13" d="M106.02,63.09c-0.1,2.11-0.2,4.23-0.29,6.34c-0.02,0.42-0.04,0.86,0.13,1.25c0.17,0.39,0.58,0.7,1,0.61
					c0.53-0.12,0.73-0.77,0.78-1.31c0.25-2.42-0.3-4.91-1.55-6.99"/>
				<path class="st13" d="M106.95,80.71c0.05-0.17-0.21-0.3-0.36-0.2c-0.15,0.09-0.2,0.29-0.24,0.47c-0.59,2.99-0.68,6.08-0.26,9.1
					c0.02,0.18,0.06,0.37,0.19,0.5c0.28,0.27,0.75,0.04,1-0.26c0.89-1.05,0.73-2.61,0.51-3.97c-0.28-1.8-0.57-3.6-0.85-5.4
					c-0.03-0.17-0.1-0.38-0.27-0.38c-0.17,0-0.05,0.35,0.04,0.2"/>
				<path class="st13" d="M105.89,99.09c-0.17,1.16-0.34,2.32-0.51,3.48c-0.16,1.08-0.31,2.2,0.02,3.23c0.15,0.48,0.5,0.97,1,0.99
					c0.74,0.02,1.04-0.95,1.05-1.69c0.04-2.32-0.39-4.65-1.26-6.8c-0.07-0.17-0.2-0.37-0.38-0.33s0.02,0.39,0.08,0.22"/>
				<path class="st13" d="M104.71,117.36c-0.64,1.72-0.96,3.55-0.94,5.38c0.01,0.7,0.09,1.45,0.52,2.01
					c0.44,0.55,1.35,0.78,1.85,0.29c0.43-0.42,0.38-1.12,0.29-1.72c-0.38-2.65-0.77-5.31-1.15-7.96c-0.29,0.73-0.58,1.45-0.87,2.18"
					/>
				<path class="st13" d="M102.27,136.88c-0.45,2-0.64,4.06-0.56,6.1c0.02,0.55,0.07,1.13,0.35,1.61c0.28,0.48,0.86,0.83,1.39,0.66
					c0.74-0.22,0.91-1.17,0.93-1.94c0.07-2.97-0.29-5.95-1.07-8.81c-0.31,0.72-0.51,1.49-0.58,2.27"/>
				<path class="st13" d="M100.61,155.34c-1.02,2.26-1.61,4.7-1.76,7.17c-0.04,0.71,0.04,1.58,0.67,1.91
					c0.46,0.25,1.06,0.08,1.44-0.28s0.57-0.88,0.68-1.39c0.59-2.76-0.84-5.65-0.26-8.41c-0.53,0-0.99,0.54-0.91,1.06"/>
				<path class="st13" d="M98.1,174.91c-0.47,2.69-0.83,5.39-1.07,8.11c-0.04,0.46-0.07,0.96,0.18,1.34
					c0.54,0.82,1.95,0.43,2.39-0.45c0.45-0.87,0.25-1.92,0.09-2.89c-0.41-2.42-0.55-4.89-0.41-7.34"/>
			</g>
			<g>
				<path class="st13" d="M112.37,50.22c-0.29,2.43-0.24,4.9,0.16,7.32c0.08,0.49,0.51,1.12,0.9,0.83c0.15-2.76-0.29-5.55-1.28-8.13
					"/>
				<path class="st13" d="M112.29,63.09c-0.1,2.11-0.2,4.23-0.29,6.34c-0.02,0.42-0.04,0.86,0.13,1.25c0.17,0.39,0.58,0.7,1,0.61
					c0.53-0.12,0.73-0.77,0.78-1.31c0.25-2.42-0.3-4.91-1.55-6.99"/>
				<path class="st13" d="M113.23,80.71c0.05-0.17-0.21-0.3-0.36-0.2c-0.15,0.09-0.2,0.29-0.24,0.47c-0.59,2.99-0.68,6.08-0.26,9.1
					c0.02,0.18,0.06,0.37,0.19,0.5c0.28,0.27,0.75,0.04,1-0.26c0.89-1.05,0.73-2.61,0.51-3.97c-0.28-1.8-0.57-3.6-0.85-5.4
					c-0.03-0.17-0.1-0.38-0.27-0.38c-0.17,0-0.05,0.35,0.04,0.2"/>
				<path class="st13" d="M112.16,99.09c-0.17,1.16-0.34,2.32-0.51,3.48c-0.16,1.08-0.31,2.2,0.02,3.23c0.15,0.48,0.5,0.97,1,0.99
					c0.74,0.02,1.04-0.95,1.05-1.69c0.04-2.32-0.39-4.65-1.26-6.8c-0.07-0.17-0.2-0.37-0.38-0.33s0.02,0.39,0.08,0.22"/>
				<path class="st13" d="M110.99,117.36c-0.64,1.72-0.96,3.55-0.94,5.38c0.01,0.7,0.09,1.45,0.52,2.01
					c0.44,0.55,1.35,0.78,1.85,0.29c0.43-0.42,0.38-1.12,0.29-1.72c-0.38-2.65-0.77-5.31-1.15-7.96c-0.29,0.73-0.58,1.45-0.87,2.18"
					/>
				<path class="st13" d="M108.54,136.88c-0.45,2-0.64,4.06-0.56,6.1c0.02,0.55,0.07,1.13,0.35,1.61s0.86,0.83,1.39,0.66
					c0.74-0.22,0.91-1.17,0.93-1.94c0.07-2.97-0.29-5.95-1.07-8.81c-0.31,0.72-0.51,1.49-0.58,2.27"/>
				<path class="st13" d="M106.89,155.34c-1.02,2.26-1.61,4.7-1.76,7.17c-0.04,0.71,0.04,1.58,0.67,1.91
					c0.46,0.25,1.06,0.08,1.44-0.28s0.57-0.88,0.68-1.39c0.59-2.76-0.84-5.65-0.26-8.41c-0.53,0-0.99,0.54-0.91,1.06"/>
				<path class="st13" d="M104.37,174.91c-0.47,2.69-0.83,5.39-1.07,8.11c-0.04,0.46-0.07,0.96,0.18,1.34
					c0.54,0.82,1.95,0.43,2.39-0.45s0.25-1.92,0.09-2.89c-0.41-2.42-0.55-4.89-0.41-7.34"/>
			</g>
		</g>
	</g>
	<g>
		<path class="st15" d="M130.31,54.57c-0.01-1.27-0.3-2.48-0.77-3.65c-0.24-0.59-0.57-1.16,0.02-1.76c0.24-0.25,0.01-0.57-0.11-0.85
			c-0.76-1.81-1.75-3.51-2.51-5.3c-0.86-2.02-2.06-3.68-3.78-5.04c-2.58-2.04-5.31-3.79-8.65-4.22c-4.04-0.53-8.05-0.32-12.03,0.56
			c-6.13,1.35-10.45,4.81-12.97,10.61c-1.37,3.15-1.14,6.45-1.3,9.69c-0.24,4.86,1.72,9.08,4.34,13.07
			c1.33,2.02,3.16,3.28,5.24,4.31c0.69,0.34,1.06,0.8,1.08,1.63c0.15,5.79,0.34,11.58,0.52,17.36c0.11,3.69,0.15,7.38,0.41,11.06
			c0.28,3.85,0.55,7.7,0.44,11.57c-0.01,0.41,0.15,0.89-0.47,1.08c-1.36,0.42-2.33,1.36-3.16,2.45c-0.27,0.36-0.6,0.5-1.03,0.55
			c-2.89,0.33-5.79,0.63-8.68-0.04c-0.32-0.07-0.63-0.06-0.8,0.26c-0.18,0.36-0.03,0.65,0.29,0.87c0.56,0.38,1.18,0.5,1.84,0.49
			c1.97-0.03,3.93-0.06,5.9-0.07c0.29,0,0.81-0.31,0.83,0.35c0.02,0.59-0.42,0.56-0.84,0.6c-2.5,0.26-5.02-0.23-7.51,0.27
			c-1.11,0.22-1.26-0.01-1.3-1.19c-0.06-1.83-0.13-3.65-0.22-5.48c-0.22-4.63-0.61-9.26-0.36-13.9c0.45-8.32,0.68-16.65,0.53-24.98
			c-0.01-0.59,0.29-1.56-0.6-1.58c-1.03-0.03-0.66,1-0.67,1.59c-0.02,6.37,0.18,12.74-0.29,19.09c-0.49,6.67-0.29,13.33,0.09,19.99
			c0.11,1.89,0.13,3.79,0.22,5.68c0.03,0.59-0.22,0.87-0.75,1c-1.32,0.34-2.62,0.22-3.93-0.03c-0.45-0.09-0.42-0.38-0.42-0.76
			c0.05-3.89,0.33-7.78,0.3-11.68c-0.03-3.83,0.11-7.65,0.14-11.48c0.04-5.66,0.14-11.31,0.05-16.97
			c-0.06-3.52-0.48-7.03,0.24-10.52c0.07-0.35-0.06-0.69-0.46-0.8c-0.4-0.1-0.7,0.12-0.79,0.46c-0.15,0.55-0.24,1.12-0.31,1.69
			c-0.4,3.38,0.04,6.76,0.04,10.14c-0.02,8.97-0.17,17.95-0.22,26.92c-0.02,3.65-0.08,7.3-0.32,11.14c-0.44-0.25-0.69-0.56-1.1-0.52
			c-2.22,0.23-4.44,0.43-6.65,0.69c-1.38,0.16-2.75,0.6-4.13,0.46c-2.12-0.21-4.2-0.04-6.28,0.29c-0.94,0.15-2.07,0.42-2.21,1.48
			c-0.18,1.32-0.66,2.61-0.48,3.99c0.12,0.97,0.12,1.96,0.11,2.94c-0.03,3.56-0.07,7.11-0.14,10.67c-0.01,0.68,0.41,1.42,0.23,1.92
			c-0.3,0.84,0.14,0.87,0.64,0.99c1.36,0.32,2.76,0.41,4.15,0.28c3.2-0.29,6.4-0.67,9.6-1.02c1.2-0.13,2.09,0.02,3.28,0.56
			c0.34,0.15,0.69,0.31,1.05,0.37c0.9,0.14,1.14,0.59,1.14,1.51c0.01,5.69-0.07,11.38,0.09,17.07c0.15,5.35-0.03,10.7-0.3,16.05
			c-0.03,0.55-0.46,1.41,0.42,1.53c0.95,0.13,0.81-0.83,0.84-1.41c0.3-5.51,0.51-11.03,0.33-16.55c-0.18-5.45-0.05-10.9-0.12-16.36
			c0-0.2-0.01-0.41,0.01-0.61c0.02-0.2,0.04-0.41,0.36-0.29c1.52,0.58,2.94,0.1,4.35-0.43c0.62-0.23,0.87-0.11,0.85,0.58
			c-0.03,1.42,0,2.85-0.03,4.27c-0.24,9.32,0.34,18.62,0.47,27.93c0,0.1,0,0.2,0.01,0.3c0.05,0.37,0.22,0.66,0.63,0.65
			c0.41-0.01,0.6-0.3,0.61-0.68c0.03-0.71,0.04-1.42,0.03-2.13c-0.04-6.53-0.63-13.05-0.49-19.6c0.09-4.13,0-8.26-0.03-12.39
			c0-0.36,0.09-0.54,0.4-0.71c0.74-0.43,1.54-0.45,2.36-0.45c2.9-0.01,5.83,0.37,8.69-0.41c0.3-0.08,0.52-0.03,0.74,0.18
			c1.15,1.04,2.56,1.28,4.05,1.39c2.14,0.15,4.27-0.02,6.4,0.01c2.59,0.04,4.83-0.8,6.8-2.29c0.82-0.62,1.97-1.17,2.05-2.55
			c0.27-4.7,0.47-9.4,0.42-14.11c-0.01-1.05,0.13-2.1-0.11-3.14c-0.4-1.8-1.24-3.34-3.09-3.95c-0.59-0.19-0.66-0.39-0.63-0.86
			c0.41-5.64,0.98-11.26,1.38-16.9c0.25-3.51,0.77-7.01,0.89-10.52c0.16-4.9,1.03-9.69,1.77-14.51c0.07-0.47,0.18-0.72,0.76-0.63
			c0.84,0.14,1.58-0.25,2.08-0.86c0.46-0.56,1.03-0.85,1.63-1.16c5.22-2.7,8.18-7.03,9.24-12.73c0.04-0.23,0.09-0.53-0.02-0.69
			C130.22,55.85,130.31,55.21,130.31,54.57z M58.14,126.06c0.03-0.79,0.73-0.73,1.21-0.77c1.41-0.12,2.83-0.15,4.25-0.22
			c0,0.02,0,0.03,0,0.05c0.1,0,0.2,0,0.3,0c2.02,0.04,2.22,0.3,1.99,2.32c-0.05,0.42-0.22,0.61-0.63,0.6
			c-2.24-0.03-4.45,0.18-6.61,0.82c-0.43,0.13-0.53-0.1-0.53-0.47C58.13,127.62,58.1,126.84,58.14,126.06z M58.98,138.94
			c-0.76,0.25-1.11,0.09-0.94-0.78c-0.15-0.72,0.16-1,0.91-1.04c1.79-0.1,3.58-0.28,5.36-0.42c0.38-0.03,0.77-0.03,0.85,0.49
			c0.07,0.47-0.21,0.69-0.6,0.8c-1.08,0.3-2.15,0.64-3.28,0.65C60.5,138.65,59.72,138.7,58.98,138.94z M70.41,139.62
			c-2.46,0.31-4.92,0.53-7.4,0.51c-0.5,0-1.01,0-1.51-0.1c1.15-0.27,2.32-0.47,3.44-0.82c1.33-0.41,1.75-1.22,1.45-2.48
			c-0.25-1.05-0.94-1.52-2.27-1.3c-1.58,0.27-3.19,0.05-4.76,0.36c-0.5,0.1-0.76-0.04-0.73-0.62c0.07-1.42,0.11-2.84-0.23-4.24
			c-0.13-0.55,0.2-0.7,0.63-0.83c1.56-0.5,3.19-0.63,4.81-0.74c0.64-0.05,1.29,0.02,1.93-0.05c0.93-0.1,1.5-0.56,1.41-1.6
			c-0.07-0.81-0.05-1.62-0.12-2.43c-0.11-1.24-0.37-1.46-1.59-1.43c-2.03,0.05-4.07,0.06-6.1,0.16c-0.68,0.03-0.93-0.16-0.9-0.81
			c0.01-0.2-0.03-0.41-0.07-0.6c-0.21-0.94,0.17-1.31,1.12-1.48c2.01-0.36,4.01-0.63,6.06-0.31c1.54,0.24,3-0.44,4.69-0.52
			c-0.29,0.73-0.64,1.37,0.45,1.53c0.38,0.06,0.15,0.46,0.18,0.7c0.39,3.19,0.47,6.41,0.52,9.62c0.03,1.94,0.48,3.83,0.49,5.76
			C71.94,139.26,71.75,139.45,70.41,139.62z M95.34,135.91c0,0.1-0.01,0.2-0.01,0.3c-0.01,2.02,0,2.02-2.01,2.02
			c-1.66,0-3.32,0.01-4.98-0.03c-1.95-0.05-3.69,0.32-5.4,1.47c-1.3,0.88-3.05,0.8-4.66,0.59c-0.7-0.09-1.4-0.28-2.11-0.28
			c-1.08-0.01-1.7-1.01-2.72-1.15c-0.31-0.04-0.21-0.52-0.24-0.81c-0.61-5.18-0.53-10.4-0.94-15.59c-0.05-0.59-0.31-0.92-0.89-1.03
			c0.53-0.8,1.07-1.23,2.05-0.93c0.6,0.18,1.27-0.08,1.89-0.26c0.74-0.21,1.35-0.25,1.88,0.57c0.56,0.85,1.58,1.13,2.58,1.24
			c2.71,0.28,5.38-0.06,8.06-0.44c2.16-0.31,4.33,0.04,6.5-0.13c0.57-0.04,0.5,0.4,0.54,0.77
			C95.28,126.77,95.42,131.34,95.34,135.91z M102.3,35.66c3.95-0.95,7.98-1.2,12.02-0.63c3.26,0.46,5.97,2.09,8.34,4.32
			c0.31,0.3,0.59,0.63,1.05,1.14c-1.07-0.03-1.91-0.01-2.78-0.35c-3.96-1.53-8.05-2.33-12.33-2.05c-2.64,0.17-5.28,0.29-7.79,1.27
			c-3.12,1.2-5.82,3.04-8.21,5.32c-0.7,0.67-1.29,1.47-1.93,2.21c-0.11-0.13-0.22-0.26-0.33-0.39
			C92.3,40.69,96.35,37.09,102.3,35.66z M90.01,51.86c-0.25-0.09-0.4-0.4-0.34-0.69c0.12-0.58-0.32-1.41,0.69-1.63
			c0.06-0.01,0.14-0.19,0.11-0.25c-0.39-1.13,0.54-1.69,1.1-2.31c4.88-5.3,10.78-8.26,18.17-7.97c3.18,0.12,6.32,0.4,9.31,1.42
			c2.5,0.85,4.77,2.19,6.63,4.18c0.77,0.82,1.4,1.58,1.4,2.87c-1.7-1.14-3.35-2.19-4.93-3.33c-2.31-1.67-4.87-2.75-7.72-2.75
			c-3.84,0-7.62,0.57-11.38,1.44c-2.52,0.58-4.85,1.49-7.05,2.78c-2.37,1.38-4.06,3.46-5.49,5.76
			C90.4,51.57,90.37,51.99,90.01,51.86z M113.24,116.83c0.41-0.11,0.64,0.06,0.88,0.32c0.67,0.74,1.23,1.48,0.98,2.62
			c-0.2,0.91,0.23,1.87-0.48,2.79c-0.97,1.27-2.04,2.24-3.66,2.52c-0.47,0.08-1.04,0.19-0.85,0.86c0.15,0.56,0.66,0.48,1.11,0.39
			c1.62-0.3,2.99-1.05,3.96-2.38c0.34,0.14,0.25,0.37,0.25,0.55c0,3.42-0.15,6.83-0.31,10.25c-0.06,1.29-0.72,2.02-1.54,2.73
			c-1.65,1.43-3.62,2.06-5.79,2.16c-2.48,0.11-4.93-0.05-7.32-0.82c-0.23-0.07-0.45-0.15-0.67-0.25c-1.2-0.53-1.83-1.27-1.82-2.77
			c0.01-3.35-0.67-6.66-0.69-10.02c0-0.33-0.11-0.67,0.09-1.03c1.41,0.46,2.82,0.91,4.24,1.37c0.45,0.15,0.99,0.4,1.22-0.22
			c0.22-0.6-0.32-0.82-0.77-0.98c-0.86-0.3-1.74-0.59-2.62-0.84c-2.87-0.82-2.86-2.24-2.59-4.47c0.19-1.51,1.32-2.55,2.58-3.37
			c0.49-0.32,0.76-0.23,0.65,0.42c-0.02,0.1-0.02,0.2-0.03,0.3c-0.25,2.96,0.51,4.11,3.74,5.68c1.82,0.88,4.74,0.51,6.21-0.92
			c0.63-0.61,1.48-0.89,1.96-1.77c0.42-0.77,0.75-1.48,0.83-2.34C112.84,117.31,112.77,116.96,113.24,116.83z M125.95,63.18
			c-1.91,2.13-4.34,3.42-7.23,3.68c-1.07,0.1-1.89,0.7-2.78,1.18c-0.18,0.1-0.28,0.28-0.31,0.5c-0.43,3.1-0.9,6.2-1.29,9.3
			c-0.6,4.77-0.71,9.58-1,14.38c-0.16,2.7-0.53,5.39-0.96,8.06c-0.53,3.26-0.4,6.55-0.68,9.82c-0.18,2.09-0.16,4.19-0.28,6.29
			c-0.06,1.01-0.75,1.77-1.2,2.62c-0.12,0.23-0.42,0.49-0.75,0.12c-0.44-0.5-0.86-0.32-1.18,0.11c-0.42,0.57-0.98,0.68-1.61,0.64
			c-1.35-0.08-2.73-0.05-3.8-1.11c-0.36-0.36-0.66-0.69-0.64-1.29c0.05-1.96,0.02-3.93,0.02-5.89c0.19-4.75-0.32-9.47-0.83-14.18
			c-0.22-2.05-0.39-4.11-0.37-6.18c0.04-4.71,0.03-9.41-0.54-14.1c-0.22-1.84-0.34-3.71,0.21-5.54c0.23-0.78-0.13-1.13-0.89-1.6
			c-1.81-1.1-3.6-2.29-5.09-3.82c-0.77-0.79-1.52-1.63-2.22-2.51c-1.21-1.52-1.57-3.28-1.78-5.1c-0.65-5.85,2.01-9.63,6.86-12.37
			c3.8-2.14,8.05-2.75,12.31-3.23c2.01-0.23,4.04-0.57,6.08-0.17c2.66,0.53,4.9,1.89,7.03,3.49c1.37,1.03,3,1.73,4.04,3.19
			c0.38,0.53,0.78,1.04,0.8,1.71c0.02,0.46,0.11,0.83,0.51,1.15c0.4,0.31,0.35,0.87,0.41,1.32
			C129.19,57.23,128.37,60.48,125.95,63.18z"/>
		<path class="st15" d="M232.3,58.26c-0.25-2.02-1.2-3.89-1.5-5.9c-0.5-3.37-1.91-6.34-3.86-9.06c-0.44-0.61-0.46-1.43-1.13-1.87
			c-0.9-0.61-1.75-1.27-2.56-2c-0.6-0.54-1.23-1-2.16-0.79c-0.36,0.08-0.79-0.13-1.19-0.22c-1.26-0.28-2.5-0.62-3.77-0.84
			c-4.6-0.79-9.25-0.83-13.9-0.84c-7.73-0.02-15.47-0.01-23.2,0c-0.17,0-0.37,0-0.49,0.09c-0.75,0.53-1.63,0.46-2.46,0.49
			c-5.73,0.26-11.43,0.58-17.06,1.88c-3.73,0.86-7.14,2.04-9.85,4.86c-0.6,0.62-1.08,1.26-1.48,2.02c-1.55,2.99-2.22,6.21-2.93,9.46
			c-1.29,5.88-1.74,11.86-2.11,17.83c-0.25,3.98-0.34,7.99-0.61,11.96c-0.61,9.23-1.04,18.46-1.14,27.7
			c-0.07,6.57-0.25,13.14-0.21,19.71c0.05,7.88-0.6,15.79,0.98,23.6c0.34,1.69,0.51,3.52,1.36,4.95c1.13,1.92,3.12,3.23,5.29,3.72
			c3.69,0.83,7.32,2.03,11.17,2.04c2.38,0.01,4.64,0.95,7.04,0.99c3.19,0.05,6.37,0.27,9.56,0.37c0.68,0.02,0.86,0.24,0.85,0.89
			c-0.01,2.74,0.04,5.49,0.06,8.23c0,0.34-0.03,0.68-0.08,1.01c-0.24,1.65,0.61,3.2,2.23,3.64c2.28,0.63,4.61,0.84,6.93,0.17
			c1.8-0.52,3.14-2.35,3.21-4.18c0.11-2.91,0.29-5.82,0.41-8.73c0.03-0.68,0.27-0.93,0.97-0.92c2.04,0.04,4.07,0.01,6.11,0.01
			c2.48,0.03,4.95-0.13,7.42-0.36c2.67-0.25,5.28-0.86,7.96-1.09c4.19-0.37,8.34-1.09,12.28-2.69c1.46-0.6,2.86-1.44,3.7-2.76
			c1.4-2.22,2.3-4.67,2.16-7.39c-0.07-1.32-0.07-2.64-0.07-3.96c-0.02-9.62-0.04-19.24-0.04-28.86c0-5.69-0.05-11.38,0.13-17.07
			c0.19-6.26,0.59-12.51,1.34-18.73c0.18-1.48,0.39-2.96,0.38-4.45c-0.01-2.72,0.27-5.41,0.43-8.11
			C232.81,68.13,232.91,63.19,232.3,58.26z M187.61,179.01c-0.07,0.66-0.65,1.13-1.23,1.37c-1.86,0.77-3.76,1.18-5.65,0.06
			c-0.46-0.27-1.02-0.03-1.48-0.51c-0.98-1.03-0.62-2.2-0.5-3.34c0.05-0.48,0.4-0.21,0.6-0.09c0.77,0.44,1.54,0.84,2.43,0.98
			c2.15,0.34,4.19,0.27,5.85-1.77C187.63,176.99,187.71,178.01,187.61,179.01z M187.75,169.04c-0.3,1.26-0.15,2.56-0.11,3.83
			c0.02,0.72-0.15,1.19-0.7,1.73c-0.92,0.9-1.79,1.73-3.17,1.76c-1.58,0.03-3-0.39-4.29-1.3c-0.51-0.36-0.81-0.79-0.8-1.43
			c0.04-1.49,0.08-2.97,0.09-4.46c0.01-0.56,0.24-0.76,0.8-0.75c1.29,0.03,2.57,0.01,3.86,0.01c0,0.03,0,0.07,0,0.1
			c1.25,0,2.5-0.01,3.75,0.01C187.49,168.54,187.9,168.41,187.75,169.04z M230.9,77.36c-0.24,8.43-1.6,16.77-1.76,25.21
			c-0.16,8.19-0.17,16.39-0.17,24.58c0,8.33-0.01,16.66-0.01,25c0,1.11-0.24,2.22,0.06,3.32c0.22,0.81-0.49,1.36-0.7,2.06
			c-0.69,2.25-1.82,4.04-4.34,4.92c-5.72,2-11.59,3.08-17.61,3.39c-3.56,0.18-7.11,0.52-10.67,0.4c-2.27-0.07-4.54-0.28-6.81-0.38
			c-5.01-0.23-10.04-0.29-15.04-0.68c-4.38-0.34-8.75-0.15-13.12-0.34c-1.15-0.05-2.31-0.17-3.44-0.38
			c-2.63-0.49-5.27-0.93-7.8-1.84c-3.34-1.19-5.96-4.97-5.85-8.52c0.12-4.01-0.34-7.98-0.66-11.96c-0.54-6.69-0.82-13.38-0.68-20.09
			c0.12-5.48,0-10.98,0.24-16.46c0.32-7.1,0.84-14.19,1.23-21.29c0.34-6.26,1.09-12.47,1.46-18.73c0.23-3.9,0.47-7.84,1.3-11.7
			c0.58-2.7,1.41-5.34,2.79-7.7c1.29-2.2,3.31-3.83,5.78-4.55c4.39-1.28,8.84-2.35,13.45-2.6c3.35-0.19,6.7-0.51,10.05-0.63
			c3.6-0.13,7.2-0.47,10.81-0.4c6.48,0.13,12.96,0.02,19.44,0.15c3.32,0.07,6.6,0.61,9.87,1.3c5.43,1.15,8.24,5.02,9.88,9.75
			c1.13,3.23,1.93,6.62,2.54,10.03c0.41,2.28,0.13,4.6,0.25,6.9C231.56,69.87,231.01,73.61,230.9,77.36z"/>
		<path class="st15" d="M185.97,184c-2.33,1.03-4.57,1.02-6.68-0.56c-0.13-0.1-0.29-0.19-0.44-0.24c-0.64-0.22-1.21,0.18-0.99,0.79
			c0.24,0.7,0.6,1.71,1.13,1.88c1.13,0.35,2.19,1.12,3.34,0.91c1.75,0.03,3.19-0.45,4.42-1.53c0.32-0.28,0.56-0.64,0.31-1.07
			C186.79,183.72,186.36,183.83,185.97,184z"/>
		<path class="st15" d="M185.46,192.25c-1.43,0.99-2.89,0.62-4.35,0.11c-0.41-0.14-0.8-0.39-1.25-0.38
			c-0.4,0.01-0.74,0.17-0.89,0.55c-0.15,0.37-0.17,0.8,0.19,1.01c1.04,0.61,2.02,1.38,3.39,1.43c1.07-0.11,2.13-0.56,3.2-0.95
			c0.37-0.14,0.53-0.51,0.71-0.83c0.18-0.32,0.21-0.65-0.08-0.93C186.09,191.99,185.76,192.04,185.46,192.25z"/>
		<path class="st15" d="M183.6,190.81c0.54-0.04,1.28,0.07,1.91-0.35c0.53-0.35,1.27-0.72,0.94-1.47c-0.36-0.82-1.14-0.37-1.69-0.17
			c-1.56,0.58-3.04,0.3-4.36-0.51c-0.83-0.51-1.32-0.24-1.69,0.33c-0.44,0.69,0.22,1.05,0.72,1.29
			C180.68,190.54,182.03,190.85,183.6,190.81z"/>
		<path class="st15" d="M108.86,159.13c-0.32-0.04-0.59,0.1-0.87,0.24c-1.27,0.62-2.54,0.91-3.85,0.08
			c-0.44-0.28-0.95-0.21-1.26,0.25c-0.32,0.49-0.09,0.93,0.33,1.23c0.92,0.65,1.92,1.12,3.07,1.15c1.22-0.12,2.18-0.74,3.14-1.38
			c0.34-0.23,0.67-0.52,0.53-1C109.78,159.18,109.29,159.19,108.86,159.13z"/>
		<path class="st15" d="M107.69,175.17c-1.03,0.74-2.24,0.88-3.27,0.29c-1.04-0.6-1.61-0.44-2.2,0.5c-0.34,0.54-0.27,0.93,0.27,1.14
			c0.87,0.35,1.75,0.75,3.08,0.69c0.89-0.03,1.86-0.47,2.99-1.49c0.39-0.35,0.86-0.73,0.46-1.26
			C108.59,174.47,108.11,174.87,107.69,175.17z"/>
		<path class="st15" d="M109.82,144.16c-0.31-0.16-0.58-0.02-0.84,0.18c-1.14,0.89-3.71,0.96-4.93,0.13
			c-0.36-0.24-0.7-0.5-1.08-0.11c-0.4,0.41-0.18,0.84,0.13,1.17c0.82,0.9,1.82,1.38,3.13,1.3c0.83,0.05,1.67-0.28,2.55-0.36
			c0.87-0.09,1.19-0.68,1.34-1.42C110.2,144.69,110.19,144.35,109.82,144.16z"/>
		<path class="st15" d="M109.77,149.26c-0.35-0.54-0.99-0.75-1.59-0.26c-0.49,0.4-1.03,0.46-1.62,0.46
			c-1.06,0.01-2.1-0.03-3.11-0.38c-0.52-0.18-0.96-0.02-1.14,0.53c-0.13,0.37,0.02,0.72,0.4,0.81c1.22,0.28,2.33,0.94,3.88,0.96
			c0.75-0.03,1.65-0.45,2.53-0.87C109.62,150.28,110.17,149.88,109.77,149.26z"/>
		<path class="st15" d="M184.94,196.3c-1.34,0.58-2.72,0.68-4.13,0.29c-0.48-0.14-0.94-0.39-1.42-0.53
			c-0.42-0.12-0.84-0.01-1.02,0.43c-0.2,0.47,0.1,0.75,0.47,0.99c1.15,0.74,2.43,1,3.94,1.07c0.96-0.06,2.06-0.2,2.91-1.06
			c0.3-0.3,0.54-0.66,0.25-1.08C185.67,196.02,185.31,196.13,184.94,196.3z"/>
		<path class="st15" d="M103,166.12c1.14,0.48,2.24,1.14,3.52,0.88c0.85,0.09,1.58-0.11,2.26-0.54c0.46-0.29,0.68-0.62,0.48-1.17
			c-0.2-0.56-0.58-0.8-1.17-0.72c-0.48,0.07-0.9,0.26-1.3,0.54c-0.75,0.53-1.52,0.46-2.29,0.06c-0.33-0.17-0.64-0.39-0.99-0.49
			c-0.39-0.12-0.76,0.03-0.91,0.44C102.46,165.52,102.54,165.92,103,166.12z"/>
		<path class="st15" d="M107.38,180.43c-1.21,1.17-2.62,0.81-4.01,0.58c-0.78-0.13-1.27,0.17-1.38,1.02
			c-0.1,0.77,0.45,0.9,1.03,0.92c0.47,0.02,0.95-0.03,1.42-0.05c0,0.02,0,0.04,0,0.06c0.61-0.06,1.22-0.09,1.82-0.18
			c0.88-0.12,1.6-0.53,2.12-1.26c0.25-0.35,0.39-0.75,0.03-1.1C108.09,180.12,107.65,180.16,107.38,180.43z"/>
		<path class="st15" d="M108.49,153.76c-1.5,1.19-3.04,0.86-4.59,0.16c-0.46-0.21-1-0.37-1.18,0.27c-0.15,0.54,0.05,1.17,0.66,1.31
			c1.05,0.23,2.05,0.76,3.24,0.59c1.16,0.33,1.9-0.5,2.7-1.17c0.32-0.28,0.56-0.65,0.26-1.07
			C109.28,153.43,108.82,153.5,108.49,153.76z"/>
		<path class="st15" d="M107.29,190.34c-0.92,0.32-1.86,0.28-2.8,0.14c-0.84-0.12-1.62-0.19-2.31,0.46c-0.2,0.18-0.46,0.28-0.44,0.6
			c0.01,0.35,0.23,0.55,0.53,0.67c0.7,0.29,1.44,0.35,1.97,0.32c1.42-0.02,2.53-0.44,3.56-1.02c0.35-0.2,0.77-0.56,0.49-1.07
			C108.04,190,107.62,190.23,107.29,190.34z"/>
		<path class="st15" d="M108.13,170.23c-1.45,0.79-2.88,0.88-4.35,0.06c-0.4-0.22-0.88-0.25-1.16,0.24
			c-0.24,0.42,0.03,0.74,0.28,1.09c0.82,1.15,1.98,0.72,3.08,0.69c0.97,0.01,1.91-0.2,2.79-0.7c0.45-0.26,0.78-0.62,0.51-1.15
			C109.03,169.94,108.54,170.01,108.13,170.23z"/>
		<path class="st15" d="M103.18,187.46c0.81-0.04,1.59,0.26,2.39,0.11c0.64-0.12,1.24-0.29,1.75-0.72c0.43-0.36,0.58-0.88,0.44-1.35
			c-0.14-0.48-0.69-0.29-1.07-0.29c-0.4-0.01-0.81,0.03-1.28,0.05c-0.73,0.1-1.54,0.2-2.34,0.31c-0.36,0.05-0.88,0.02-0.73,0.56
			C102.48,186.64,102.66,187.49,103.18,187.46z"/>
		<path class="st15" d="M106.84,195.09c-1.31,0.53-2.63,0.55-3.97,0.12c-0.35-0.11-0.77-0.3-0.92,0.25
			c-0.13,0.49,0.19,0.73,0.63,0.88c0.83,0.27,1.67,0.21,2.67,0.17c0.62-0.15,1.52,0.23,2.16-0.46c0.22-0.24,0.66-0.54,0.38-0.94
			C107.56,194.79,107.15,194.97,106.84,195.09z"/>
		<path class="st15" d="M179.27,199.57c-0.37-0.02-0.58,0.18-0.58,0.54c0,0.3,0.18,0.51,0.5,0.53c0.37,0.02,0.55-0.19,0.59-0.56
			C179.74,199.79,179.58,199.58,179.27,199.57z"/>
		<path class="st15" d="M106.37,49.45c-0.67,0.02-1.11,0.72-1.12,1.79c-0.01,0.9,0.5,1.57,1.21,1.61c0.65,0.04,1.04-0.66,1.05-1.89
			C107.53,50.09,107.03,49.42,106.37,49.45z"/>
		<path class="st15" d="M103.16,57.7c0.01-0.8-0.51-1.26-1.13-0.92c-0.39,0.21-0.79,0.35-1.18,0.53c-0.58,0.27-0.62,0.84-0.59,1.39
			c0.02,0.37,0.18,0.64,0.57,0.74C101.67,59.67,103.15,58.57,103.16,57.7z"/>
		<path class="st15" d="M94.29,56.31c-0.36-0.03-1.51,1.44-1.46,1.89c0.06,0.7,0.47,1.12,1.19,1.13c0.75,0.02,1.3-0.7,1.29-1.74
			C95.26,57.02,95.13,56.39,94.29,56.31z"/>
		<path class="st15" d="M112.5,63.33c-0.61-0.01-1.12,0.57-1.11,1.44c0.01,0.61,0.27,1.05,0.93,1.11c0.68,0.06,1.4-0.78,1.37-1.6
			C113.67,63.59,113.22,63.37,112.5,63.33z"/>
		<path class="st15" d="M114.87,56.73c-0.55-0.13-1.24,0.69-1.26,1.45c-0.01,0.56,0.08,1.11,0.79,1.19
			c0.67,0.07,1.42-0.68,1.46-1.55C115.83,57.32,115.49,56.87,114.87,56.73z"/>
		<path class="st15" d="M108.52,56.89c-0.65-0.02-1.16,0.4-1.28,1.08c-0.1,0.55,0.8,1.53,1.39,1.55c0.93,0.03,0.72-0.68,0.76-1.23
			C109.45,57.6,109.4,56.91,108.52,56.89z"/>
		<path class="st15" d="M103.7,63.52c-0.72,0.03-1.23,0.47-1.26,1.2c-0.03,0.65,0.38,1.1,1.05,1.12c0.72,0.02,1.2-0.37,1.31-1.09
			C104.72,64.04,104.46,63.49,103.7,63.52z"/>
		<path class="st15" d="M112.34,52.17c0.76-0.06,1.08-0.59,1.12-1.32c0.01-0.58-0.28-0.95-0.78-0.98c-0.56-0.04-1.14,0.7-1.11,1.44
			C111.58,51.81,111.81,52.21,112.34,52.17z"/>
		<path class="st15" d="M121.52,57.33c-0.68,0.01-1,0.55-1.02,1.17c-0.01,0.56,0.32,0.99,0.92,1.01c0.67,0.03,0.96-0.39,0.94-1.04
			C122.34,57.9,122.24,57.32,121.52,57.33z"/>
		<path class="st15" d="M118.47,50.52c-0.79,0.04-0.8,0.7-0.82,1.28c-0.02,0.55,0.23,0.95,0.83,0.9c0.73-0.07,0.72-0.68,0.77-1.17
			C119.25,50.95,119.07,50.48,118.47,50.52z"/>
		<path class="st15" d="M100.67,51.67c-0.07-0.43-0.29-0.76-0.78-0.75c-0.53,0.02-0.93,0.3-0.91,0.87c0.01,0.49,0.32,0.85,0.83,0.86
			C100.41,52.66,100.55,52.17,100.67,51.67z"/>
		<path class="st15" d="M206.68,108.95c-1-2.26-1.88-4.61-3.53-6.55c-1.39-1.63-2.64-3.38-4.96-3.77c-0.32-0.05-0.5-0.35-0.75-0.49
			c-1.74-0.97-3.53-1.94-5.52-2.13c-3.22-0.31-6.43,0.1-9.6,0.63c-1.7,0.28-3.44,0.54-5,1.3c-3.82,1.87-6.74,4.78-8.86,8.41
			c-1.36,2.33-2.15,4.92-2.03,7.65c0.19,4.31,1.11,8.5,2.52,12.58c0.32,0.93,0.66,1.86,1.34,2.6c1.56,1.7,3.15,3.39,5.38,4.21
			c0.9,0.33,1.53,1.15,2.49,1.34c0.31,0.19,0.63,0.35,0.98,0.45c0.16,0.05,0.32,0.07,0.48,0.08c-0.38,1.33-0.72,2.67-0.94,4.04
			c-0.17,1.08,0.06,1.46,1.14,1.53c0.68,0.05,1.36,0.03,2.03,0.08c0.7,0.06,1.15-0.26,1.5-0.83c0.59-0.95,0.75-2.02,0.89-3.1
			c0.1-0.83,0.4-1.22,1.32-0.91c0.78,0.27,1.61,0.2,2.42,0.1c1.04-0.14,2.02-0.52,3.03-0.79c3.94-1.03,7.32-2.94,10-6.05
			c0.96-1.11,1.68-2.38,2.51-3.56c2.44-3.46,3.55-7.31,3.7-11.04C207.07,112.49,207.4,110.6,206.68,108.95z M179.36,134
			c-0.07-0.01-0.15-0.02-0.22-0.03c-0.09-0.1-0.22-0.19-0.36-0.26c-1.38-0.69-2.84-1.26-4.12-2.1c-2.14-1.4-4-3.07-4.78-5.67
			c-0.74-2.49-1.42-4.99-1.91-7.56c-0.91-4.85-0.41-9.35,2.68-13.38c1.97-2.56,4.27-4.78,7.23-6.09c2.26-1,4.77-1.24,7.22-1.57
			c0.48-0.06,0.57,0.19,0.57,0.6c-0.02,0.98-0.05,1.97,0.01,2.94c0.03,0.61-0.2,0.85-0.78,0.9c-2.11,0.16-3.98,1.09-5.82,2.01
			c-3.29,1.65-6.07,3.76-6.49,7.81c-0.03,0.27-0.14,0.52-0.2,0.79c-0.67,2.97-1.31,5.88-0.09,8.95c1.37,3.45,4.01,5.58,6.91,7.55
			c0.29,0.19,0.64,0.22,0.98,0.18c0.9-0.09,0.98,0.29,0.81,1.1c-0.3,1.35-0.69,2.68-1.07,4.01
			C179.74,134.08,179.55,134.03,179.36,134z M183.26,137.91c-0.03,0.17-0.06,0.33-0.1,0.5c-0.38,1.56-1.96,2.31-3.45,1.66
			c-0.34-0.15-0.3-0.4-0.24-0.67c0.33-1.59,0.56-3.21,1.15-4.73c0.61-1.59,0.76-3.3,1.31-4.9c0.16-0.47-0.1-0.82-0.46-1.15
			c-0.92-0.83-2.02-1.39-3.15-1.81c-1.43-0.53-2.21-1.61-2.84-2.88c-1.33-2.7-2.18-5.49-2.03-8.56c0.13-2.61,0.75-4.91,2.2-7.2
			c2.08-3.29,5.26-4.4,8.65-5.12c3.34-0.71,6.69-0.55,9.8,1.18c2.72,1.51,4.76,3.54,5.88,6.56c0.51,1.38,0.76,2.7,0.88,4.54
			c0.14,1.49-0.22,3.27-1.3,4.9c-0.28,0.42-0.45,0.91-0.67,1.37c-0.1,0.21-0.15,0.52-0.32,0.62c-1.68,0.99-2.2,3-3.79,4.11
			c-2.14,1.49-4.4,2.48-7.01,2.63c-0.64,0.04-1.27,0.16-1.9,0.27c-0.36,0.06-0.46,0.34-0.54,0.65
			C184.71,132.56,183.72,135.17,183.26,137.91z M203.89,123.06c-2.6,5.04-6.18,9.16-11.85,10.9c-1.38,0.42-2.75,0.96-4.21,1.13
			c-0.17,0.02-0.33,0.06-0.5,0.08c-0.76,0.1-1.64,0.07-2.17-0.31c-0.7-0.5,0.17-1.24,0.22-1.9c0.14-1.91,0.97-2.7,3.1-2.98
			c3.43-0.44,6.7-1.68,8.99-4.63c0.42-0.54,1.03-1.08,1.8-1.18c0.46-0.06,0.49-0.36,0.45-0.64c-0.15-1.02,0.26-1.89,0.78-2.66
			c1.83-2.69,1.93-5.76,1.16-8.61c-0.75-2.77-1.99-5.45-4.57-7.34c-2.89-2.11-5.99-3.24-9.52-3.31c-0.57-0.01-0.79-0.2-0.77-0.77
			c0.03-0.88,0-1.76,0.02-2.64c0.01-0.56,0.23-1.06,0.86-1.04c1.39,0.04,2.76-0.45,4.15-0.07c1.85,0.5,3.68,1.03,5.27,2.18
			c0.19,0.14,0.39,0.32,0.61,0.35c2.28,0.35,3.42,2.11,4.75,3.69c1.49,1.77,2.23,3.91,3.18,5.94c0.65,1.36,0.36,2.93,0.44,5.14
			C206.37,117.04,205.38,120.17,203.89,123.06z"/>
		<path class="st15" d="M180.64,80.9c2.05,1.71,4.67,2.52,7.42,2.04c2.09-0.37,4.01-1.17,5.28-3.08c1.23-1.85,1.63-3.89,1.71-5.25
			c0.1-3.59-1.13-5.68-3.41-7.2c-1.8-1.19-3.74-1.7-5.95-1.63c-2.87,0.08-5.08,1.14-6.7,3.5c-1.13,1.65-1.09,3.55-1.41,5.41
			C177.07,77.62,178.84,79.4,180.64,80.9z M178.43,74.62c0.03-1.77,0.26-3.59,1.43-5.17c1.24-1.67,2.82-2.58,4.95-2.63
			c1-0.02,1.98-0.38,3.01-0.15c2.83,0.63,5.54,2.44,6.3,5.38c1.03,4.05-1.18,8.47-5.08,9.82c-2.07,0.72-4.12,0.36-6.12-0.54
			c-1.57-0.71-2.66-1.91-3.74-3.15C178.31,77.18,178.25,75.97,178.43,74.62z"/>
		<path class="st15" d="M186.07,79.35c0.85,0.03,1.77-0.24,2.56,0.34c0.09,0.07,0.33-0.02,0.48-0.08c1.65-0.69,2.65-1.93,3.06-3.66
			c0.43-1.79-0.17-3.36-0.92-4.97c-1.2-2.55-3.86-3.72-6.46-2.69c-0.47,0.19-0.94,0.39-1.43,0.53c-0.97,0.28-1.62,0.92-2.15,1.75
			c-0.67,1.05-0.85,2.2-0.86,3.57c-0.11,0.93,0.15,1.92,0.89,2.75C182.52,78.33,184.05,79.27,186.07,79.35z M185.75,69.32
			c3.23,0.03,5.94,3.61,4.88,6.66c-0.85,2.46-3.02,3.08-5.59,2.03c-0.71-0.29-1.35-0.77-2.01-1.18c-0.45-0.28-0.71-0.73-0.92-1.19
			C180.99,73.07,182.76,69.29,185.75,69.32z"/>
	</g>
</g>
</svg>
