<?xml version="1.0" encoding="utf-8"?>
<!-- Generator: Adobe Illustrator 23.0.2, SVG Export Plug-In . SVG Version: 6.00 Build 0)  -->
<svg version="1.1" xmlns="http://www.w3.org/2000/svg" xmlns:xlink="http://www.w3.org/1999/xlink" x="0px" y="0px"
	 viewBox="0 0 288 226.77" style="enable-background:new 0 0 288 226.77;" xml:space="preserve">
<style type="text/css">
	.st0{fill:#97E6FC;}
	.st1{fill:#FF3A5B;}
	.st2{fill:#50E3C2;}
	.st3{fill:#FF8438;}
	.st4{fill:#FFDD4C;}
	.st5{fill:#007EFF;}
	.st6{fill:#FFFFFF;}
	.st7{fill:#FFFFFF;stroke:#1D1D1B;stroke-width:0.9148;stroke-miterlimit:10;}
	.st8{fill:#575756;}
	.st9{fill:#C4F5FB;}
	.st10{fill:#FFFFFF;stroke:#1D1D1B;stroke-width:0.5;stroke-miterlimit:10;}
	.st11{fill:none;stroke:#FFFFFF;stroke-linecap:round;stroke-linejoin:round;stroke-miterlimit:10;}
	.st12{fill:none;stroke:#FFFFFF;stroke-width:0.876;stroke-linecap:round;stroke-linejoin:round;stroke-miterlimit:10;}
	.st13{fill:none;}
	.st14{fill:#925F36;}
	.st15{fill:#422918;}
	.st16{fill:#9C9B9B;}
	.st17{fill:#C6C6C5;}
	.st18{fill:#D9D9D9;}
	.st19{fill:#6F6F6E;}
	.st20{fill:#A0ECD2;}
	.st21{fill:#ECECEC;}
	.st22{fill:#B1B1B1;}
	.st23{fill:#E6E6E6;}
	.st24{fill:#FFDD00;}
	.st25{fill:#1D70B7;}
	.st26{fill:#CBF4FF;}
	.st27{fill:#FF5F70;}
</style>
<g id="colour">
	<path class="st0" d="M178.06,149.29c-0.88,0.21-1.06,1.37-1.06,2.27c0.03,5.46,0.05,10.94,0.66,16.36
		c0.09,0.83,0.28,1.78,1.01,2.18c0.37,0.2,0.8,0.21,1.22,0.23c2.49,0.07,4.97,0.13,7.46,0.2c4,0.1,8.01,0.21,11.99-0.14
		c1.62-0.14,3.23-0.36,4.85-0.4c1.58-0.04,3.16,0.09,4.74,0.07c1.48-0.02,2.95-0.17,4.43-0.32c2.42-0.25,4.83-0.5,7.25-0.75
		c0.6-0.06,1.24-0.14,1.73-0.49c0.98-0.72,0.93-2.17,0.8-3.38c-0.43-4.13-0.55-8.3-0.36-12.44c0.09-1.94,0.06-4.26-1.55-5.34
		c-0.94-0.62-2.14-0.61-3.26-0.58c-11.17,0.34-22.34,0.88-33.49,1.62c-2.01,0.13-4.06,0.28-5.95,0.99"/>
	<path class="st0" d="M166.46,148.47c-2.6,0.15-5.2,0.31-7.8,0.46c-3.91,0.23-7.83,0.46-11.75,0.44c-6.14-0.04-12.3-0.7-18.39,0.04
		c0.03,6.48,0.07,12.96,0.1,19.44c0,0.85,0.03,1.78,0.57,2.44c0.3,0.37,0.74,0.62,1.16,0.85c0.95,0.53,1.93,1.06,3,1.21
		c1.02,0.14,2.05-0.09,3.07-0.25c2.63-0.41,5.3-0.37,7.96-0.4c5.29-0.07,10.57-0.43,15.85-0.79c1.79-0.12,3.59-0.25,5.38-0.37
		c0.65-0.04,1.38-0.13,1.79-0.64c0.27-0.33,0.33-0.77,0.38-1.2c0.62-5.23,1.01-10.46,0.27-15.67c-0.17-1.18-0.33-2.36-0.5-3.54
		c-0.11-0.77-1.72-1.84-2.45-1.58"/>
	<path class="st0" d="M152.38,135.09c0.32,3.07,0.63,6.14,0.95,9.21c4.09,0.52,8.2,0.9,12.32,1.12c0.24,0.01,0.5,0.02,0.71-0.08
		c0.37-0.19,0.51-0.66,0.48-1.07s-0.17-0.82-0.2-1.23c-0.06-1.09,0.74-2.26,0.19-3.21c-0.17-0.3-0.44-0.51-0.71-0.72
		c-1.99-1.53-4.05-3.01-6.39-3.91s-5.02-1.14-7.33-0.19"/>
	<path class="st0" d="M113.67,124.33c9.61-0.92,19.27-1.21,28.92-0.86c0.15,2.04,0.34,4.12,1.16,6c0.82,1.87,2.39,3.54,4.4,3.93
		c0.33,0.07,0.71,0.11,0.93,0.37c0.17,0.2,0.21,0.47,0.24,0.72c0.25,1.93,0.5,3.86,0.75,5.78c0.17,1.28,0.29,2.71-0.52,3.71
		c-0.65,0.81-1.73,1.11-2.75,1.31c-4.66,0.92-9.46,0.77-14.21,0.61c-7.3-0.24-14.6-0.48-21.9-0.72c-0.51-0.02-1.08-0.07-1.4-0.46
		c-0.22-0.27-0.26-0.63-0.29-0.97c-0.27-2.75-0.54-5.51-0.81-8.26c2.79-0.9,6.02-2.27,6.61-5.15c0.42-2.06-0.62-4.61,0.88-6.08"/>
	<path class="st0" d="M108.64,149.9c-1.95,7.81,0.04,16.08-1.03,24.06c3.46,0.85,7.07-0.75,10.63-0.48c1.36,0.1,5.12,0.63,6.29-0.09
		c1.19-0.73-0.74-2.47-0.61-3.86c0.52-5.84-0.91-11.8,0.27-17.54c0.21-1.04,0.36-2.41-0.6-2.86c-0.28-0.13-0.59-0.14-0.9-0.15
		c-4.12-0.1-8.25,0-12.36,0.31c-0.78,0.06-1.73,0.26-1.93,1.01"/>
	<path class="st0" d="M86.8,150.88c0.26-0.27,0.67-0.31,1.04-0.33c4.83-0.28,9.67-0.39,14.51-0.33c0.05,1.71,0.1,3.42,0.15,5.13
		c0.04,1.43,0.08,2.85,0.07,4.28c-0.01,1.54-0.09,3.07-0.17,4.61c-0.16,3.12-0.31,6.24-0.47,9.36c-4.55,0.24-9.09,0.49-13.64,0.73
		c-0.72-6.61-1.02-13.27-0.89-19.91c0.02-1.16,0.1-2.43,0.88-3.3"/>
	<path class="st0" d="M75.04,152.06c1.71-1.22,3.94-1.68,5.99-1.22c0.48,7.3,0.41,14.63,0.34,21.95c0,0.36-0.03,0.77-0.32,0.98
		c-0.22,0.17-0.52,0.15-0.8,0.13c-1.06-0.08-2.22-0.2-2.99-0.95c-0.76-0.74-0.91-1.88-1.01-2.93c-0.57-5.94-0.76-11.92-0.55-17.88"
		/>
	<path class="st0" d="M81.29,136.5c0.19,2.61,0.18,5.23-0.04,7.83c-0.05,0.59-0.12,1.22-0.49,1.69c-0.64,0.82-1.86,0.82-2.91,0.76
		c-6.17-0.36-12.37-0.09-18.48,0.82c-1.33,0.2-2.99,0.28-3.68-0.87c-0.27-0.45-1.11-1.62-1.14-2.14c-0.38-6-0.36-12.02,0.06-18.01
		c0.02-0.34,0.06-0.7,0.28-0.96c0.24-0.28,1.44,0.27,1.81,0.22c1.9-0.25,3.83-0.33,5.75-0.24c0.77,0.04,1.62,0.15,2.1,0.75
		c0.37,0.48,0.39,1.13,0.4,1.73c0.02,1.81,0.05,3.62,0.07,5.43c0.01,0.55,0.05,1.18,0.49,1.51c0.29,0.22,0.67,0.24,1.03,0.26
		c2.77,0.13,5.57,0.25,8.3-0.21c0.78-0.13,1.56-0.31,2.34-0.25c1.51,0.11,2.81,1.06,4.01,1.97"/>
	<path class="st0" d="M98.82,133.35c0.38,3.46,0.47,6.95,0.27,10.42c-0.02,0.38-0.05,0.78-0.27,1.1c-0.27,0.4-0.76,0.57-1.22,0.7
		c-1.88,0.52-3.88,0.64-5.81,0.34c-0.98-0.15-1.99-0.4-2.94-0.12c-0.28,0.08-0.58,0.22-0.86,0.15c-0.55-0.13-0.66-0.85-0.66-1.42
		c-0.01-2.58-0.02-5.16-0.03-7.74c0-0.52,0-1.06,0.19-1.55c0.5-1.32,2.14-1.8,3.55-1.78s2.86,0.37,4.22-0.02
		c0.61-0.17,1.24-0.5,1.85-0.31c0.39,0.12,0.85,0.42,1.13,0.14"/>
	<path class="st0" d="M128.92,110.4c-1.23-4.54-1.65-9.29-1.24-13.97c13.24-0.83,26.5-1.35,39.76-1.57
		c0.77-0.01,1.65,0.02,2.16,0.59c0.37,0.42,0.45,1.01,0.51,1.57c0.32,2.97,0.65,5.94,0.97,8.91c0.07,0.65,0.1,1.4-0.38,1.85
		c-0.45,0.41-1.15,0.36-1.76,0.35c-4.58-0.04-7.93,4.16-12,6.26c-1.65,0.85-3.45,1.36-5.26,1.79c-6.4,1.52-13.03,2.09-19.6,1.69
		c-0.51-0.03-1.04-0.07-1.49-0.3c-1.93-0.98-1.03-3.97-1.93-5.93"/>
	<path class="st0" d="M111.52,97c3.68-0.21,7.36-0.42,11.04-0.63c0.24-0.01,0.51-0.02,0.69,0.14c0.17,0.15,0.21,0.4,0.24,0.62
		c0.84,6.47,1.39,12.98,1.62,19.51c0.02,0.42,0.02,0.87-0.23,1.2c-0.24,0.32-0.64,0.45-1.02,0.56c-2.85,0.8-5.81,1.19-8.77,1.15
		c-0.27-1.56-0.54-3.12-0.81-4.68c-0.17-0.97-0.39-2.03-1.16-2.63c-0.45-0.35-1.06-0.52-1.34-1.01c-0.18-0.32-0.18-0.72-0.18-1.09
		c0.06-3.46,0.12-6.91,0.18-10.37c0.01-0.67,0.19-1.54,0.85-1.62"/>
	<path class="st0" d="M100.74,97.25c0.18-0.14,0.49,0.09,0.41,0.3c-4.62-0.13-9.24-0.12-13.85,0.03c0.39,5.91,0.55,11.84,0.49,17.77
		c0-0.27-0.01-0.54-0.01-0.82c2.29-1.12,5-0.63,7.55-0.67c0.62-0.01,1.27-0.06,1.8-0.37c0.9-0.54,1.31-1.74,2.29-2.11
		c0.39-0.15,0.86-0.15,1.19-0.42c0.35-0.28,0.44-0.78,0.49-1.23c0.35-3.04,0.23-6.12,0.1-9.18c-0.02-0.45-0.04-0.91-0.06-1.36"/>
	<path class="st0" d="M82.46,97.3c-1.71,0.05-3.42,0.13-5.12,0.24c-0.35,0.02-0.71,0.05-1.01,0.23c-0.46,0.27-0.66,0.82-0.8,1.34
		c-0.5,1.87-0.53,3.83-0.57,5.77c-0.03,1.85-0.07,3.7-0.1,5.54c-0.02,1.4-0.05,2.82,0.3,4.18c1.74-0.12,3.48-0.25,5.22-0.37
		c0.19-0.01,0.38-0.03,0.55-0.12c0.31-0.17,0.41-0.56,0.48-0.91c0.31-1.62,0.35-3.28,0.4-4.94c0.06-2.39,0.13-4.78,0.19-7.18
		c0.03-1.3,0.05-2.67-0.58-3.81"/>
	<path class="st0" d="M87.56,71.36c2.52-0.05,5.03-0.1,7.55-0.15c0.38-0.01,0.78-0.01,1.12,0.15c0.8,0.37,0.97,1.41,1.04,2.29
		c0.37,4.96,0.75,9.93,1.12,14.89c0.1,1.27,0.13,2.71-0.78,3.6c-1.31,1.29-3.46,0.51-5.29,0.43c-1.4-0.06-2.82,0.35-4.18,0.02
		c-0.25-0.06-0.52-0.16-0.65-0.39c-0.11-0.18-0.11-0.4-0.11-0.6c0.03-3.4,0.05-6.8,0.08-10.2c0.02-3,0.05-6.01,0.34-9"/>
	<path class="st0" d="M113.74,70.34c10.19-0.4,20.81,1.04,31,0.64c0.76-0.03,3.54-0.08,4.23,0.24c1.41,0.65,0.79,1.74,1.32,3.74
		c0.86,3.21-0.13,6.8,0.41,10.07c0.32,1.92,0.48,4.26-1.07,5.43c-0.98,0.74-2.33,0.72-3.56,0.67c-10.31-0.36-20.65,0.17-30.86,1.58
		c-0.39,0.05-0.83,0.09-1.12-0.17c-0.22-0.2-1.52-0.34-1.56-0.63c-0.83-6.17,0.47-12.65,1.39-18.81"/>
	<g>
		<g>
			<path class="st21" d="M112.25,112.53c0.39-0.1,0.62,0.06,0.85,0.31c0.64,0.71,1.18,1.42,0.94,2.51
				c-0.19,0.87,0.22,1.79-0.46,2.68c-0.93,1.22-1.96,2.15-3.51,2.42c-0.45,0.08-0.99,0.18-0.82,0.83c0.15,0.54,0.64,0.46,1.06,0.38
				c1.56-0.29,2.86-1.01,3.79-2.29c0.32,0.13,0.24,0.36,0.24,0.53c0,3.28-0.14,6.55-0.3,9.83c-0.06,1.24-0.69,1.93-1.47,2.61
				c-1.58,1.37-3.47,1.98-5.55,2.07c-2.38,0.11-4.73-0.04-7.01-0.79c-0.22-0.07-0.43-0.15-0.64-0.24c-1.15-0.51-1.75-1.22-1.75-2.66
				c0.01-3.21-0.64-6.39-0.66-9.61c0-0.31-0.11-0.64,0.08-0.99c1.35,0.44,2.71,0.88,4.06,1.32c0.43,0.14,0.95,0.38,1.17-0.21
				c0.22-0.58-0.31-0.79-0.74-0.94c-0.83-0.29-1.66-0.56-2.51-0.8c-2.75-0.78-2.75-2.15-2.48-4.28c0.18-1.45,1.27-2.44,2.48-3.23
				c0.47-0.31,0.73-0.22,0.63,0.4c-0.02,0.1-0.02,0.19-0.03,0.29c-0.24,2.84,0.49,3.94,3.59,5.44c1.75,0.85,4.54,0.48,5.96-0.88
				c0.6-0.58,1.42-0.85,1.88-1.7c0.4-0.74,0.72-1.42,0.79-2.24C111.86,112.99,111.79,112.65,112.25,112.53z"/>
			<path class="st21" d="M124.42,61.1c-1.83,2.04-4.16,3.28-6.93,3.53c-1.03,0.09-1.81,0.67-2.66,1.13
				c-0.17,0.09-0.27,0.27-0.3,0.48c-0.41,2.97-0.86,5.94-1.24,8.92c-0.58,4.58-0.68,9.19-0.96,13.79c-0.16,2.59-0.51,5.17-0.92,7.73
				c-0.51,3.12-0.38,6.28-0.65,9.42c-0.17,2-0.16,4.02-0.27,6.03c-0.05,0.97-0.72,1.7-1.15,2.51c-0.12,0.22-0.41,0.47-0.72,0.12
				c-0.42-0.48-0.83-0.31-1.13,0.11c-0.4,0.55-0.94,0.65-1.55,0.62c-1.29-0.08-2.62-0.05-3.64-1.07c-0.35-0.35-0.63-0.66-0.62-1.24
				c0.05-1.88,0.02-3.77,0.02-5.65c0.18-4.56-0.3-9.08-0.79-13.59c-0.21-1.97-0.37-3.94-0.36-5.93c0.04-4.51,0.03-9.02-0.52-13.52
				c-0.21-1.76-0.32-3.55,0.2-5.31c0.22-0.74-0.12-1.09-0.85-1.53c-1.73-1.06-3.45-2.2-4.88-3.66c-0.74-0.76-1.46-1.56-2.12-2.4
				c-1.16-1.46-1.51-3.14-1.7-4.89c-0.63-5.6,1.93-9.23,6.58-11.86c3.64-2.05,7.72-2.64,11.8-3.1c1.93-0.22,3.87-0.55,5.82-0.16
				c2.55,0.51,4.69,1.81,6.74,3.34c1.32,0.98,2.87,1.66,3.87,3.06c0.36,0.51,0.75,0.99,0.77,1.64c0.02,0.44,0.1,0.79,0.49,1.1
				c0.38,0.3,0.34,0.83,0.39,1.27C127.54,55.4,126.75,58.51,124.42,61.1z"/>
		</g>
		<path class="st22" d="M101.66,34.63c3.79-0.91,7.65-1.15,11.52-0.6c3.13,0.44,5.72,2.01,7.99,4.14c0.3,0.28,0.56,0.61,1.01,1.09
			c-1.03-0.03-1.83-0.01-2.67-0.34c-3.8-1.47-7.72-2.24-11.82-1.97c-2.53,0.17-5.06,0.28-7.47,1.21c-2.99,1.15-5.58,2.91-7.87,5.1
			c-0.68,0.65-1.24,1.41-1.85,2.12c-0.11-0.12-0.21-0.25-0.32-0.37C92.08,39.45,95.95,36,101.66,34.63z"/>
	</g>
	<path class="st23" d="M145.13,131.03c-1-2.04-2.02-4.15-2.17-6.41c-0.15-2.27,0.8-4.76,2.84-5.77c1.23-0.61,2.66-0.6,4.02-0.79
		c8.64-1.24,15.22-10.88,23.85-9.58c7.04,1.06,11.81,9.23,18.94,9.17c1.14-0.01,2.44-0.18,3.25,0.62c0.6,0.6,0.69,1.53,0.73,2.38
		c0.27,4.93-0.08,11-4.51,13.2c-4.03,2-9.41-0.52-13.14,1.98c-2.19,1.47-3.09,4.28-3.21,6.91c-0.12,2.63,0.37,5.27,0.26,7.9
		c-1.75,0.63-3.65,0.86-5.51,0.68c-0.93-0.09-1.89-0.31-2.58-0.93c-2.01-1.8-0.41-5.07-0.48-7.77c-0.1-4.43-4.94-7.19-9.3-7.95
		c-4.36-0.76-9.12-0.52-12.85-2.91"/>
	<path class="st0" d="M129.89,50.83c-0.91-1.33-0.54-4.38,0.8-5.26c1.34-0.88,3.35-0.91,4.95-0.99c11.81-0.62,23.72-0.22,35.52-0.83
		c0.62-0.03,1.27-0.06,1.83,0.23c1.01,0.53,1.26,1.83,1.39,2.97c0.47,4.12,0.95,8.25,1.42,12.37c0.12,1.03,0.23,2.11-0.1,3.09
		c-0.93,2.76-4.44,3.84-7.36,3.86c-11.18,0.11-22.47-0.34-33.65-0.22c-0.84,0.01-1.72,0.01-2.47-0.37
		c-1.62-0.81-1.98-2.93-2.13-4.73c-0.16-1.87-0.32-3.73-0.48-5.6"/>
	<path class="st0" d="M153.53,76.15c-0.63-1.28-0.88-2.74-0.74-4.16c0.02-0.21,0.06-0.43,0.2-0.58c0.17-0.18,0.43-0.21,0.68-0.23
		c13.07-1.16,26.24-0.17,39.34-0.95c0.58-0.03,1.26-0.03,1.61,0.43c0.15,0.2,0.21,0.45,0.26,0.69c1.07,4.83,1.57,9.78,1.48,14.72
		c-0.01,0.81-0.05,1.65-0.45,2.36c-0.86,1.55-2.94,1.81-4.71,1.88c-9.41,0.36-18.82,0.49-28.24,0.4c-2.09-0.02-4.19-0.05-6.27-0.29
		c-0.68-0.08-1.45-0.24-1.78-0.83c-0.13-0.23-0.18-0.49-0.22-0.75c-0.82-4.91-1.38-9.87-1.7-14.83"/>
	<path class="st0" d="M175.52,108.54c-0.37-4.04-0.73-8.08-1.1-12.12c-0.02-0.25-0.04-0.52,0.09-0.74c0.2-0.32,0.64-0.36,1.02-0.37
		c12.95-0.26,25.89-0.52,38.84-0.78c0.59-0.01,1.24,0,1.69,0.38c0.49,0.41,0.59,1.12,0.62,1.76c0.14,2.69-0.16,5.38-0.46,8.05
		c-0.34,2.96-0.67,5.93-1.01,8.89c-0.1,0.88-0.25,1.85-0.94,2.4c-0.49,0.38-1.14,0.47-1.75,0.53c-8.01,0.82-16.12,0.65-24.09-0.49
		c-1.15-0.17-2.34-0.37-3.28-1.04c-0.79-0.56-1.32-1.4-1.93-2.15c-1.84-2.26-4.53-3.81-7.4-4.29"/>
	<path class="st0" d="M53.2,82.78c0.24-3.28,0.48-6.56,0.72-9.84c0.02-0.25,0.04-0.51,0.15-0.73c0.34-0.72,1.32-0.78,2.11-0.75
		c8.62,0.35,17.25,0.26,25.86-0.27c1.13,6.72,1.4,13.58,0.79,20.36c-0.03,0.36-0.08,0.75-0.34,1c-0.28,0.27-0.7,0.3-1.09,0.31
		c-2.76,0.08-5.51,0.15-8.27,0.23c-5.49,0.15-10.99,0.31-16.48,0.46c-0.6,0.02-1.23,0.02-1.75-0.28c-0.89-0.51-1.08-1.69-1.17-2.71
		c-0.29-3.39-0.43-6.8-0.41-10.21"/>
	<path class="st0" d="M196.86,120.61c1.06,0.02,2.12,0.04,3.19,0.07c0.45,0.01,0.92,0.02,1.3,0.25c0.63,0.37,0.83,1.18,0.96,1.9
		c0.95,5.44,1.07,11.03,0.34,16.51c-0.05,0.39-0.11,0.78-0.28,1.13c-0.19,0.4-0.51,0.72-0.86,0.99c-1.74,1.3-4.12,1.2-6.29,1.24
		c-5.61,0.12-11.12,1.63-16.72,1.73c-0.63,0.01-1.38-0.05-1.73-0.57c-0.16-0.24-0.21-0.55-0.25-0.84c-0.21-1.45-0.4-3.05,0.39-4.29
		c0.42-0.65,1.06-1.12,1.69-1.58c1.6-1.15,3.27-2.32,5.2-2.76c2.73-0.62,5.79,0.27,8.25-1.06c1.34-0.72,2.3-2.02,2.89-3.42
		c0.59-1.4,0.86-2.92,1.11-4.42c0.25-1.49,0.49-3,0.39-4.5c1.26-0.37,2.61-0.39,3.88-0.06"/>
	<path class="st1" d="M180.66,120.2c-0.2,1.71-0.4,3.43-0.6,5.14c-0.07,0.6-0.12,1.26,0.25,1.73c0.48,0.62,1.5,0.56,2.11,0.07
		c0.61-0.49,0.9-1.27,1.09-2.03c0.18-0.73,0.3-1.48,0.36-2.23c0.05-0.78,0.03-1.6-0.31-2.31s-1.08-1.27-1.86-1.2
		c-0.78,0.07-1.45,0.94-1.15,1.67"/>
</g>
<g id="line">
	<g id="VaVZcl_1_">
		<g>
			<path d="M53.95,144.29c-0.63-1.71-0.49-3.54-0.81-5.3c-0.46-2.54-0.02-5.09,0.05-7.63c0.04-1.59,0.32-3.25,0.66-4.85
				c0.32-1.54,0.34-1.54,1.88-1.61c2.35-0.1,4.7,0.12,7.04-0.06c0.28-0.02,0.49,0.14,0.85,0.33c0-1.33,0.14-2.58-0.03-3.79
				c-0.21-1.53,0.21-2.99,0.3-4.48c0.05-0.78,1.01-1.52,1.91-1.63c1.78-0.22,3.56-0.45,5.37-0.24c1.13,0.13,2.26-0.14,3.36-0.38
				c0.75-0.16,1.48-0.25,2.23-0.23c1,0.03,1.89-0.5,2.87-0.51c0.59-0.01,1.24-0.27,1.58,0.48c0.29-0.16,0.21-0.42,0.22-0.64
				c0.17-3.71,0.22-7.42,0.22-11.14c0-2.41,0.04-4.82,0.11-7.22c0.02-0.72-0.24-0.89-0.89-0.81c-2.32,0.28-4.68,0.22-6.94-0.09
				c-2.32-0.32-4.61-0.44-6.88-0.19c-3.59,0.39-7.18,0.13-10.77,0.31c-0.23,0.01-0.46,0.02-0.7,0.03c-0.48,0.02-1.11,0.36-1.4-0.05
				c-0.38-0.54-0.95-1.02-1.03-1.76c-0.34-3.38-0.78-6.77-0.36-10.15c0.29-2.35,0.46-4.72,0.68-7.07c0.12-1.22-0.09-2.48-0.19-3.72
				c-0.06-0.73,0.15-1.09,0.96-1.22c1.51-0.24,2.98-0.16,4.49,0c1.58,0.17,3.19,0.07,4.78,0.09c2.29,0.02,4.57,0.03,6.86,0.22
				c1.89,0.16,3.82,0.13,5.71-0.2c0.61-0.11,1.22,0.04,1.81,0.18c1.09,0.25,2.19,0.19,3.29,0.11c0.27-0.02,0.47-0.07,0.45-0.38
				c-0.1-2.03,0.82-4.02,0.37-6.03c-0.57-2.6-0.14-5.21-0.27-7.8c-0.1-1.96-0.23-3.93-0.39-5.89c-0.03-0.34-0.02-0.59,0.34-0.67
				c0.34-0.07,0.55,0.13,0.64,0.44c0.05,0.16,0.05,0.34,0.06,0.52c0.16,3.56,0.42,7.12,0.27,10.69c-0.06,1.54,0.52,3.02,0.46,4.57
				c-0.05,1.24,0.36,2.6,0.07,3.68c-0.29,1.09-0.5,2.13-0.43,3.2c0.41,6.76,0.19,13.52,0.1,20.28c-0.1,7.31,0.03,14.62-0.4,21.92
				c-0.02,0.42,0.11,0.59,0.48,0.67c1,0.19,2.01,0.25,3.03,0.08c0.63-0.11,0.9-0.4,0.9-1.11c0.01-3.14-0.35-6.26-0.39-9.39
				c-0.03-2.81-0.2-5.62-0.22-8.44c-0.01-1.59,0.1-3.19,0.21-4.78c0.43-6.26,0.39-12.53,0.33-18.79c-0.02-2.12,0.22-4.22,0.06-6.35
				c-0.39-5.32-0.73-10.64-1.04-15.96c-0.11-1.85-0.08-3.71-0.11-5.57c-0.01-0.38,0.07-0.75,0.5-0.78c0.48-0.03,0.52,0.38,0.5,0.74
				c-0.19,3.69,0.09,7.37,0.38,11.04c0.29,3.64,0.46,7.29,0.72,10.93c0.04,0.58,0.09,1.16,0.08,1.74c-0.01,0.46,0.17,0.6,0.61,0.6
				c1.94,0,3.88-0.02,5.8,0.43c0.76,0.18,1.52-0.33,2.32-0.14c0.48,0.11,0.75,0.25,0.84,0.8c0.31,1.97,0.41,3.96,0.56,5.95
				c0.29,3.73,0.35,7.47,0.59,11.2c0.08,1.27,0.26,2.53-0.33,3.83c-0.56,1.25-0.48,1.4-1.9,1.42c-1.53,0.02-3.06-0.05-4.59,0.26
				c-1.08,0.22-2.19,0.14-3.29-0.07c-0.69-0.14-1.14,0.06-1.03,0.89c0.02,0.11,0,0.23-0.01,0.35c-0.05,1.69-0.06,1.67,1.6,1.48
				c2.4-0.27,4.81-0.02,7.22-0.15c1.1-0.06,2.2-0.1,3.3-0.11c0.44-0.01,0.62-0.13,0.6-0.6c-0.27-6.29-0.19-12.59-0.52-18.88
				c-0.07-1.32-0.21-2.64,0.27-3.95c0.41-1.11-0.18-2.54-1.41-3.3c-1.15-0.72-2.35-1.41-3.28-2.47c-0.53-0.6-0.86-1.3-1.26-1.96
				c-2.58-4.29-4.06-8.88-3.5-13.97c0.09-0.83,0.09-1.68,0.11-2.52c0.1-3.81,1.41-7.15,3.84-10.1c2.28-2.76,5.14-4.34,8.63-5.18
				c3.25-0.78,6.49-0.94,9.73-0.47c1.75,0.25,3.45,0.9,4.93,2.08c0.99,0.79,2.02,1.51,2.96,2.37c1.16,1.06,2.04,2.25,2.54,3.72
				c0.87,2.54,2.09,4.52,2.54,7.24c0.12,0.73,0.24,1.47,0.36,2.2c0.19,1.18,0.39,2.37,0.42,3.57c0.11,3.43-1.16,7.18-3.46,9.75
				c-1.35,1.5-2.72,2.87-4.54,3.77c-1.35,0.66-1.92,1.88-3.47,2.03c0.3,0.59,0.75,0.54,1.41,0.56c3.09,0.1,6.15,0.66,9.27,0.46
				c4.17-0.26,8.35,0.26,12.53,0c2.29-0.14,4.58-0.12,6.87-0.14c1.25-0.01,2.48,0.2,3.71,0.41c1.01,0.17,1.66,1.02,1.74,2.08
				c0.21,2.84,0.16,5.68,0.33,8.52c0.12,2,0.03,4,0.27,5.99c0.13,1.09-0.02,2.19-0.23,3.28c-0.15,0.81-0.58,1.2-1.31,1.27
				c-3.03,0.3-6.07,0.45-9.12,0.38c-3.48-0.08-6.97-0.4-10.43,0.05c-2.59,0.34-5.19,0.46-7.78,0.51c-2.92,0.05-5.85,0.33-8.78,0.07
				c-0.61-0.05-0.8,0.12-0.88,0.7c-0.25,1.77-0.27,1.73,1.48,1.79c2.62,0.08,9.06-1.65,10.11,1.82c0.48,1.58-0.09,3.47-0.05,5.1
				c0.05,2.1,0.13,4.38,0.41,6.46c0.2,1.46,0.43,2.91,0.82,4.35c0.55,2.05,0.28,4.07-0.64,5.98c-0.18,0.37-0.55,0.46-0.94,0.52
				c-2.76,0.42-5.54,0.45-8.33,0.5c-0.55,0.01-0.76,0.15-0.76,0.73c0.02,3.42-0.17,6.84-0.36,10.26c-0.03,0.62-0.41,1.02-0.75,1.52
				c-1.11,1.61-2.86,2.09-4.41,2.92c-0.34,0.18-0.78,0.25-1.18,0.26c-2.63,0.04-5.27,0.3-7.9-0.11c-0.57-0.09-0.93,0.33-0.75,0.91
				c0.95,3.04,0.23,6.1,0.12,9.14c-0.01,0.38-0.2,0.69-0.56,0.81c-0.59,0.21-1.21,0.53-1.81,0.52c-2.7-0.02-5.39,0.29-8.08,0.04
				c-0.17-0.02-0.35,0-0.52-0.04c-0.98-0.19-0.97-0.2-0.99,0.87c-0.08,6.01,0.24,12.01,0.38,18.01c0.05,2.08-0.49,4.14-0.11,6.23
				c0.17,0.94,0.37,1.43,1.33,1.43c1.06,0,2.11,0.3,3.2-0.3c0.64-0.35,1.58-0.18,2.39-0.2c1.54-0.04,3.07-0.05,4.61-0.07
				c0.38-0.01,0.71,0.09,0.72,0.56c0.02,0.49-0.28,0.64-0.71,0.69c-3.09,0.31-6.19,0.38-9.29,0.5c-0.29,0.01-0.58,0.01-0.87-0.02
				c-1.36-0.12-1.33-0.12-1.35,1.2c-0.03,1.95,0.71,3.83,0.5,5.79c-0.05,0.49-0.05,0.98-0.18,1.46c-0.07,0.25-0.17,0.45-0.45,0.44
				c-0.35-0.01-0.4-0.29-0.4-0.56c0-0.38,0-0.76,0.04-1.13c0.19-1.84-0.37-3.63-0.42-5.44c-0.16-5.94-0.24-11.89-0.43-17.84
				c-0.1-3.16-0.09-6.32-0.1-9.49c-0.01-3.91,0.01-7.82,0.01-11.74c0-0.9-0.24-1.07-0.99-0.58c-0.88,0.57-1.83,0.73-2.81,0.56
				c-0.58-0.1-0.67,0.07-0.69,0.59c-0.21,4.9-0.1,9.8-0.14,14.71c-0.03,3.77-0.09,7.55,0.02,11.32c0.1,3.6-0.05,7.2,0.16,10.79
				c0.19,3.16,0.3,6.31,0.38,9.47c0.01,0.32,0.03,0.64,0.03,0.96c0,0.32-0.09,0.61-0.46,0.61c-0.35,0-0.47-0.29-0.49-0.61
				c-0.02-0.35-0.02-0.7-0.02-1.04c-0.02-2.87-0.16-5.74-0.33-8.61c-0.04-0.64-0.11-0.94-0.89-0.73c-0.79,0.21-1.62,0.19-2.14-0.68
				c-0.09-0.15-0.32-0.25-0.51-0.32c-1.17-0.5-1.51-1.45-1.59-2.63c-0.16-2.26-0.29-4.51-0.48-6.76c-0.21-2.46-0.29-4.91-0.34-7.38
				c-0.02-0.91-0.31-1.82-0.43-2.73c-0.15-1.14-0.33-2.31,0.64-3.24c0.14-0.14,0.3-0.29,0.48-0.36c1.26-0.43,2.55-0.5,3.85-0.23
				c0.35,0.07,0.72,0.24,0.6,0.69c-0.11,0.43-0.48,0.32-0.79,0.23c-0.92-0.28-1.85-0.05-2.76,0.03c-0.83,0.07-0.8,0.8-0.85,1.39
				c-0.11,1.33,0.02,2.63,0.17,3.96c0.19,1.67,0.03,3.37,0.2,5.04c0.26,2.56,0.19,5.15,0.61,7.7c0.06,0.34,0.08,0.7,0.04,1.04
				c-0.11,1.01,0.27,1.71,1.18,2.19c0.53,0.28,1.07,0.52,1.58,0.85c0.68,0.44,1.34,0.01,1.28-0.8c-0.06-0.73,0.33-1.57-0.49-2.16
				c-0.12-0.09-0.08-0.44-0.07-0.67c0.45-7.16,0.29-14.33,0.23-21.49c-0.01-0.73-0.32-0.82-0.89-0.75
				c-4.28,0.52-8.58,0.4-12.87,0.29c-2.73-0.07-5.45-0.07-8.17,0.08c-0.98,0.05-1.96,0.24-2.94,0.01c-0.35-0.08-0.69-0.18-0.79-0.58
				c-0.3-1.2-0.98-2.3-1.07-3.56c0.12,0.13,0.08,0.4,0.37,0.42c0.07-1.1-0.04-2.17-0.35-3.23C53.95,142.4,53.95,143.35,53.95,144.29
				z M102.47,107.31c0,2.1,0.04,3.93-0.02,5.77c-0.04,1.67,1.26,2.11,2.68,2.17c0.52,0.02,4.09-0.49,4.18-0.64
				c1.55-2.58,1.1-5.77,1.22-8.67c0.11-2.49,0.09-5,0.4-7.47c0.8-6.28,1.17-12.58,1.48-18.9c0.19-3.91,0.81-7.78,1.29-11.66
				c0.05-0.44,0.19-0.82,0.69-1.01c1.7-0.66,3.19-1.72,4.73-2.67c1.24-0.76,2.43-1.64,3.32-2.71c2.4-2.88,3.18-6.27,2.64-10
				c-0.09-0.64-0.72-0.89-0.72-1.51c0-1.33-0.86-2.18-1.67-3.1c-0.88-0.99-2.09-1.5-3.08-2.34c-0.71-0.6-1.36-1.32-2.25-1.73
				c-2.01-0.93-4.06-1.39-6.32-1.19c-2.96,0.26-5.9,0.61-8.73,1.48c-2.76,0.84-5.27,2.26-7.11,4.55c-0.92,1.15-1.92,2.37-2.21,3.88
				c-0.8,4.13-0.75,8.07,2.22,11.55c1.48,1.73,3.18,3.16,5,4.45c0.73,0.52,1.14,0.91,0.91,1.75c-0.44,1.66-0.36,3.35-0.18,5.01
				c0.49,4.57,0.51,9.15,0.48,13.73c-0.02,1.92,0.12,3.83,0.3,5.73C102.19,98.37,102.63,102.96,102.47,107.31z M150.23,89.82
				c0.19-1.63-0.05-3.16-0.1-4.69c-0.14-3.97-0.26-7.93-0.38-11.9c-0.02-0.71-0.35-1.04-1.04-1.15c-1.17-0.19-2.35-0.35-3.54-0.36
				c-3.08-0.04-6.15,0.11-9.22,0.19c-3.57,0.09-7.14-0.37-10.69-0.1c-2.92,0.22-5.77-0.43-8.66-0.41c-0.23,0-0.44-0.05-0.66-0.17
				c-0.65-0.35-0.95-0.16-1.1,0.6c-1.25,6-1.19,12.11-1.7,18.18c-0.02,0.23-0.09,0.56,0.17,0.62c0.74,0.15,1.27,0.8,2.07,0.8
				c2.95,0.01,5.9,0.24,8.86,0.08c4.33-0.23,8.67-0.41,13-0.58c3.04-0.12,6.09-0.22,9.11-0.58c0.9-0.11,1.91,0.17,2.7-0.42
				C149.46,89.62,149.77,89.41,150.23,89.82z M81.65,92.43c0.26-0.24,0.14-0.55,0.14-0.82c0.03-2.52,0.02-5.05,0.06-7.57
				c0.05-3.8-0.01-7.6-0.2-11.4c-0.02-0.33-0.06-0.61-0.48-0.51c-1.16,0.29-2.31-0.04-3.46-0.02c-4.38,0.08-8.75-0.24-13.13-0.2
				c-2.9,0.02-5.79-0.18-8.68-0.31c-1.61-0.07-1.62,0.05-1.6,1.63c0.02,1.18,0.28,2.35,0.13,3.55c-0.31,2.52-0.56,5.05-0.8,7.58
				c-0.24,2.62,0.37,5.19,0.44,7.79c0.03,0.94,0.48,1.22,1.29,1.19c1.45-0.05,2.9-0.07,4.34-0.19c2.62-0.22,5.25-0.38,7.87-0.55
				c4.28-0.27,8.58-0.2,12.87-0.26c0.42-0.01,0.72-0.04,0.69-0.56C81.49,91.95,81.31,92.36,81.65,92.43z M67.52,146.15
				c0-0.08,0-0.15,0-0.23c2.35,0,4.7,0.02,7.04-0.01c1.48-0.02,2.96-0.1,4.43-0.16c1.39-0.06,1.65-0.33,1.65-1.69
				c0-2.15-0.02-4.29,0.01-6.44c0.01-0.58-0.12-0.89-0.74-1.03c-0.78-0.18-1.58-0.38-2.07-1.14c-0.12-0.19-0.39-0.33-0.62-0.22
				c-1.13,0.58-2.37,0.6-3.59,0.72c-1.99,0.2-3.97,0.49-5.96,0.66c-1.15,0.1-2.32,0.02-3.46-0.24c-0.28-0.07-0.73-0.16-0.63-0.46
				c0.25-0.78-0.13-1.48-0.1-2.23c0.08-2.2,0.07-4.41,0.09-6.61c0-0.24,0.12-0.51-0.23-0.66c-0.61-0.28-1.19-0.51-1.88-0.21
				c-0.48,0.21-1.02,0.22-1.54,0.12c-1.38-0.25-2.78-0.15-4.17-0.17c-0.18,0-0.53-0.09-0.48,0.19c0.2,1.21-0.81,2.15-0.64,3.39
				c0.19,1.4,0.14,2.84,0.2,4.26c0.17,3.91,0.35,7.82,0.5,11.73c0.03,0.67,0.2,0.93,0.96,0.89
				C60.04,146.42,63.78,146.3,67.52,146.15z M76.04,116.92c0.85,0.02,0.76,0.63,0.78,1.19c0.02,0.46,0,0.93,0.05,1.39
				c0.44,4.24,0.15,8.53,0.75,12.76c0.09,0.66-0.28,1.56,0.94,1.53c0.06,0,0.13,0.17,0.19,0.26c0.29,0.42,0.71,0.58,1.18,0.64
				c0.75,0.1,1.49,0.28,2.23,0.3c1.62,0.03,3.33,0.31,4.54-1.24c0.08-0.1,0.25-0.15,0.39-0.19c1.03-0.24,2.01-0.62,3.12-0.55
				c1.5,0.1,3.02,0.05,4.52,0.05c1.82,0,1.79,0,1.81-1.82c0.06-4.5-0.05-8.99-0.36-13.48c-0.05-0.72-0.27-0.86-0.93-0.83
				c-1.54,0.06-3.07,0.05-4.61,0.03c-1.49-0.02-2.87,0.85-4.4,0.46c-0.05-0.01-0.12,0.01-0.17,0.03c-1.4,0.6-2.71,0.07-4.02-0.35
				c-0.5-0.16-1-0.45-1.19-0.96c-0.33-0.89-0.97-0.64-1.46-0.37c-0.52,0.29-1.07,0.45-1.57,0.32
				C77.02,115.88,76.52,116.18,76.04,116.92z M113.68,119.3c-0.31,0.33-0.48,0.52-0.65,0.71c-0.86,0.89-1.84,1.57-3.13,1.69
				c-0.34,0.03-0.67-0.03-0.74-0.43c-0.06-0.37,0.03-0.7,0.48-0.79c0.26-0.05,0.52-0.1,0.76-0.19c0.73-0.27,1.37-0.59,1.91-1.24
				c0.92-1.1,1.18-2.25,1.17-3.65c0-1.03-0.2-1.81-0.9-2.49c-0.15-0.15-0.21-0.51-0.59-0.35c-0.32,0.14-0.52,0.3-0.51,0.69
				c0.01,0.32-0.07,0.63-0.1,0.95c-0.08,0.88-0.71,1.51-1.15,2.18c-0.27,0.4-1,0.63-1.38,1.09c-0.35,0.44-0.79,0.67-1.29,0.81
				c-3.18,0.85-4.57-0.4-6.63-2.55c-0.41-0.43-0.48-0.97-0.45-1.54c0.04-0.61,0.06-1.22,0.13-1.82c0.08-0.66-0.23-0.66-0.61-0.35
				c-1.05,0.85-1.91,1.85-2.2,3.22c-0.5,2.39,0.34,3.77,2.68,4.45c0.58,0.17,1.16,0.37,1.74,0.56c0.5,0.17,0.98,0.44,0.72,1.05
				c-0.24,0.57-0.72,0.26-1.13,0.15c-1.21-0.35-2.3-1.04-3.61-1.32c0,0.28,0,0.5,0,0.73c-0.01,3.66,0.66,7.28,0.66,10.94
				c0,0.36,0.12,0.7,0.42,0.91c1.02,0.72,2.16,1.27,3.37,1.49c1.53,0.28,3.09,0.37,4.66,0.28c2.52-0.14,4.33-1.52,5.96-3.26
				c0.08-0.09,0.07-0.27,0.08-0.42c0.09-1.62,0.21-3.24,0.25-4.86C113.68,123.79,113.83,121.65,113.68,119.3z M117.23,118.33
				c2.25-0.11,4.39-0.1,6.64-0.88c0.19-0.06,0.38-0.14,0.5-0.3c0.33-0.48,0.43-2.92,0.22-3.52c-0.42-1.25-0.6-2.54-0.77-3.83
				c-0.36-2.67-0.12-5.39-0.6-8.06c-0.05-0.31-0.03-0.65,0.06-0.95c0.28-1,0.13-2.02,0.17-3.03c0.02-0.57-0.28-0.88-0.77-1
				c-0.7-0.16-1.41-0.28-2.15-0.25c-2.43,0.11-4.84,0.53-7.27,0.51c-0.46,0-0.67,0.11-0.7,0.62c-0.13,1.94-0.33,3.87-0.48,5.81
				c-0.18,2.26-0.35,4.51-0.49,6.77c-0.02,0.3-0.29,0.8,0.37,0.86c0.91,0.08,1.4,0.74,1.87,1.41c1.06,1.52,1.15,3.24,1.01,5.01
				c-0.05,0.64,0.11,0.99,0.84,0.92C116.2,118.38,116.72,118.35,117.23,118.33z M100.33,97.3c-0.47,0.27-0.65,0.61-1.11,0.58
				c-1.51-0.1-3.02,0.02-4.51,0.21c-1.46,0.18-2.88-0.54-4.37-0.07c-0.59,0.18-1.31-0.05-1.98-0.09c-0.67-0.04-0.99,0.18-0.96,0.94
				c0.1,2.17,0.12,4.34,0.2,6.52c0.11,3.24,0.25,6.48,0.36,9.73c0.03,0.75,0.32,1.21,1.11,0.96c1.81-0.59,3.66-0.3,5.5-0.35
				c0.35-0.01,0.69-0.07,1.04-0.06c0.39,0.01,0.62-0.13,0.61-0.54c-0.02-0.52-0.42-0.28-0.65-0.28c-1.68,0.01-3.36,0.04-5.04,0.06
				c-0.53,0.01-1.04-0.05-1.51-0.34c-0.37-0.23-0.53-0.58-0.38-0.96c0.17-0.43,0.55-0.32,0.9-0.2c0.22,0.08,0.44,0.2,0.66,0.2
				c2.11,0.01,4.23,0.14,6.34-0.18c0.63-0.1,1.04-0.36,1.36-0.9c0.53-0.88,1.32-1.53,2.24-1.96c0.48-0.22,0.64-0.47,0.62-0.97
				c-0.05-1.74-0.03-3.48-0.09-5.22C100.58,102.07,100.45,99.76,100.33,97.3z M87.69,92.74c0.22-0.63,0.69-0.65,1.17-0.63
				c2.46,0.1,4.89-0.57,7.37-0.17c0.88,0.14,1.6-0.28,1.5-1.49c-0.13-1.62-0.08-3.25-0.21-4.86c-0.19-2.48-0.08-4.98-0.44-7.46
				c-0.26-1.82,0.03-3.69-0.37-5.54c-0.22-1.02-0.16-1.15-1.22-0.91c-0.63,0.14-1.27,0.17-1.89,0c-1.69-0.44-3.41-0.22-5.11-0.3
				c-0.36-0.02-0.47,0.11-0.48,0.51c-0.02,1.53-0.04,3.06,0.23,4.56c0.17,0.97-0.33,1.78-0.31,2.69c0.06,2.23,0.04,4.46-0.07,6.7
				C87.76,88.12,87.76,90.41,87.69,92.74z M75.11,115.98c-0.74-0.05-1.36,0.11-1.97,0.25c-0.75,0.18-1.5,0.22-2.25,0.12
				c-1.4-0.19-2.77-0.13-4.15,0.15c-1.93,0.4-1.91-0.01-1.7,2.32c0.05,0.52,0.19,0.67,0.73,0.65c1.79-0.08,3.59-0.09,5.39-0.15
				c0.75-0.03,1.16,0.28,1.2,1.04c0.04,0.72,0.1,1.45,0.11,2.17c0.03,1.71-0.31,2.04-2,2.04c-1.66,0-3.29,0.18-4.9,0.62
				c-0.53,0.15-0.71,0.41-0.59,0.94c0.3,1.26,0.24,2.54,0.21,3.81c-0.02,0.91,0.12,1.1,0.97,0.79c1.29-0.47,2.65-0.13,3.95-0.44
				c0.94-0.22,1.38,0.42,1.66,1.16c0.33,0.86,0.04,1.69-0.58,2.18c-1.05,0.84-2.36,0.78-3.56,1.17c0.43,0.05,0.86,0.05,1.3,0.05
				c2.15,0.02,4.28-0.26,6.42-0.42c0.98-0.08,1.12-0.59,1.18-1.28c0.05-0.55,0.05-1.11-0.04-1.65c-0.26-1.58-0.31-3.17-0.36-4.77
				c-0.1-3.01-0.14-6.03-0.46-9.03c-0.02-0.17,0.15-0.44-0.18-0.49C74.59,117.09,74.87,116.56,75.11,115.98z M87.65,141.89
				c-0.01,0-0.01,0-0.02,0c0,1.07,0,2.15,0,3.22c0,0.37-0.02,0.57,0.56,0.67c0.92,0.16,1.83,0.15,2.74,0.28
				c2.17,0.3,4.33,0.07,6.49-0.11c0.78-0.06,1.15-0.67,1.14-1.4c-0.03-2.34-0.12-4.68-0.19-7.01c-0.01-0.23,0.13-0.55-0.22-0.67
				c-0.71-0.25-0.58-0.55-0.13-0.98c0.21-0.21,0.51-0.56,0.27-0.89c-0.23-0.3-0.5-0.53-1.02-0.45c-1.13,0.18-2.24,0.53-3.43,0.44
				c-1.3-0.1-2.61-0.08-3.91-0.09c-0.55-0.01-1.09,0.01-1.63,0.19c-0.81,0.27-0.96,0.74-0.57,1.45c0.3,0.54,0.37,1.07,0.02,1.64
				c-0.12,0.2-0.09,0.5-0.09,0.76C87.64,139.92,87.65,140.91,87.65,141.89z M92.35,45.34c1.31-1.29,2.5-2.67,3.92-3.86
				c1.92-1.62,3.98-3,6.37-3.65c3.21-0.88,6.53-0.93,9.83-0.5c1.14,0.15,2.29,0.35,3.38,0.77c1.07,0.42,2.14,0.85,3.24,1.18
				c0.49,0.15,1.04,0.17,1.85,0c-0.85-0.42-1.02-1.13-1.53-1.55c-2.24-1.85-4.54-3.49-7.63-3.66c-3.4-0.19-6.73-0.07-10.02,0.96
				c-2.58,0.81-4.64,2.27-6.39,4.24C93.82,41.02,92.87,43.06,92.35,45.34z M123.77,46.15c-0.18-1.13-0.52-1.88-1.17-2.68
				c-0.75-0.91-1.6-1.73-2.5-2.32c-1.44-0.94-2.91-1.9-4.71-2.26c-3.33-0.67-6.62-1.26-10.05-0.63c-2.95,0.55-5.63,1.41-7.96,3.46
				c-1.41,1.24-2.82,2.46-4.03,3.89c-0.54,0.63-1.24,1.24-0.96,2.25c0.03,0.1-0.07,0.32-0.17,0.36c-0.94,0.39-0.39,1.18-0.48,1.79
				c-0.02,0.14,0.12,0.35,0.32,0.36c0.22,0.01,0.26-0.21,0.33-0.36c1.64-3.42,4.29-5.78,7.69-7.37c1.5-0.71,3.15-0.91,4.72-1.37
				c2.67-0.8,5.49-0.97,8.27-0.92c2.6,0.05,4.8,1.19,6.76,2.9C121.02,44.26,122.35,45.11,123.77,46.15z M69.34,120.43
				c0-0.01,0-0.02,0-0.03c-1.21,0.06-2.43,0.1-3.64,0.19c-0.52,0.04-0.96,0.24-0.97,0.89c0,0.69-0.01,1.39-0.01,2.08
				c0,0.28,0.02,0.56,0.42,0.44c1.88-0.55,3.8-0.73,5.75-0.71c0.32,0,0.48-0.17,0.47-0.49c-0.02-0.75,0.21-1.62-0.2-2.2
				c-0.31-0.44-1.14-0.09-1.74-0.16C69.39,120.43,69.37,120.43,69.34,120.43z M64.67,132.97c-0.21,0.77,0.11,0.93,0.81,0.7
				c0.64-0.21,1.3-0.24,1.98-0.26c0.96-0.02,1.88-0.31,2.8-0.56c0.46-0.13,0.56-0.46,0.48-0.88c-0.08-0.44-0.43-0.44-0.75-0.38
				c-1.46,0.28-2.95,0.12-4.42,0.32C64.86,132,64.48,132.18,64.67,132.97z"/>
			<path d="M144.24,118.66c-1.64-0.11-3.04,0.21-4.43,0.43c-2.68,0.42-5.51,0.28-8.22,0.4c-0.3,0.01-0.61,0.02-0.89-0.09
				c-1.99-0.79-2.41-4.18-2.51-5.93c-0.19-3.27-0.35-6.54-0.44-9.82c-0.05-1.77-0.48-3.54-0.52-5.34c-0.05-2.33,1.11-2.91,3.11-2.76
				c2.31,0.17,4.57-0.12,6.85-0.34c0.87-0.08,1.73-0.16,2.6-0.17c4.56-0.04,9.11,0.04,13.66-0.15c3.69-0.15,7.37-0.07,11.05-0.14
				c1.57-0.03,3.12,0.24,4.69,0.23c0.4,0,0.75,0.12,0.88,0.57c0.04,0.15,0.05,0.27,0.3,0.32c0.51,0.11,0.67,0.52,0.66,1.03
				c-0.04,2.47,0.18,4.92,0.34,7.38c0.02,0.31,0.16,0.61,0.23,0.92c0.12,0.53,0.13,1.04-0.25,1.48c-0.2,0.23-0.46,0.39-0.77,0.2
				c-0.28-0.18-0.22-0.45-0.06-0.68c0.14-0.21,0.19-0.44,0.14-0.67c-0.57-2.74-0.4-5.54-0.69-8.3c-0.08-0.77-0.87-0.97-1.41-1.07
				c-4.62-0.83-9.31-0.67-13.93-0.3c-4.67,0.37-9.32,0.16-13.97,0.26c-1.72,0.04-3.41,0.22-5.11,0.39
				c-1.82,0.18-3.64,0.27-5.47,0.15c-0.37-0.02-0.74,0.13-1.11,0.16c-0.6,0.05-0.77,0.4-0.78,0.94c-0.01,1.57,0.03,3.12,0.39,4.66
				c0.32,1.36,0.24,2.77,0.22,4.16c-0.03,2.05-0.54,8.87,1.56,10.12c0.46,0.27,1,0.33,1.53,0.38c2.88,0.27,5.68,0.54,8.51,0.54
				c1.2-0.3,2.41-0.3,3.6-0.26c1.36,0.05,2.66,0.03,3.91-0.57c0.43-0.21,0.89-0.28,1.35-0.33c3.33-0.35,6.32-1.69,9-3.54
				c1.91-1.32,3.78-2.68,5.79-3.84c0.12-0.07,0.26-0.12,0.4-0.18c1.83-0.76,3.8-1.02,5.72-1.39c2.91-0.55,5.49,0.71,8.06,1.86
				c1.42,0.64,2.61,1.6,3.7,2.66c0.74,0.73,1.47,1.45,2.28,2.11c0.42,0.34,0.88,0.55,1.34,0.76c1.39,0.63,2.84,1.11,4.37,1.31
				c1.34,0.17,2.69,0.37,4.03,0.52c1.22,0.14,2.52,0.1,3.78,0.03c2.49-0.15,4.94-0.61,7.43-0.72c1.83-0.08,3.66,0.03,5.48,0.08
				c1.41,0.04,2.72-0.37,4.08-0.54c0.58-0.08,0.84-0.5,0.91-1.17c0.22-2.18-0.13-4.35,0.07-6.52c0.15-1.64,0.41-3.27,0.64-4.91
				c0.32-2.29,1.39-8.91-2.69-7.36c-1.72,0.65-3.54,0.08-5.41,0.09c-2.7,0-5.4,0.02-8.1,0.03c-5.04,0.02-10.08,0.06-15.12,0.16
				c-3.18,0.06-6.37,0.21-9.55,0.19c-0.65-0.01-0.63,0.35-0.59,0.78c0.2,2.25,0.4,4.51,0.6,6.76c0.06,0.72,0.14,1.44,0.2,2.16
				c0.03,0.33,0.01,0.71-0.39,0.76c-0.47,0.06-0.54-0.33-0.57-0.7c-0.3-3.45-0.35-6.88-1.42-10.1c-0.2-0.61,0.15-1.5,0.78-1.39
				c0.16,0.03,0.31,0.12,0.45,0.2c2.04,1.17,5.89,0.35,8.16,0.34c3.39-0.01,6.78,0.02,10.17-0.02c5.37-0.07,10.74-0.05,16.1-0.17
				c1.65-0.04,3.3-0.11,4.95-0.13c0.29,0,0.54-0.1,0.81-0.23c1.24-0.59,2.39,0.22,2.5,1.56c0.18,2.26,0.38,4.51,0.14,6.77
				c-0.19,1.81-0.65,3.59-0.7,5.42c-0.09,2.91,0.43,6.16-0.63,8.96c-0.64,1.69-7.78,1.03-9.35,1.02c-3.13-0.01-6.27-0.01-9.4,0.01
				c-0.25,0-0.83-0.19-0.72,0.24c0.14,0.51-0.12,1.25,0.68,1.52c1.58,0.54,3.17,0.79,4.85,0.52c0.73-0.12,1.36,0.66,1.48,1.83
				c0.18,1.84,0.45,3.69,0.39,5.55c-0.05,1.53-0.15,3.05,0.25,4.58c0.59,2.3,0.03,5.38-0.08,7.72c-0.04,0.78-0.09,1.58-0.39,2.31
				c-1.16,2.72-6.04,1.97-8.36,2.11c-5.76,0.33-11.53,0.57-17.31,0.39c-0.77-0.02-0.99,0.25-1.04,0.98
				c-0.19,2.66-0.21,2.67,2.41,2.66c1.38,0,2.73-0.35,4.11-0.44c0.67-0.05,1.09,0.38,1.71,0.35c4.98-0.26,9.97-0.45,14.95-0.66
				c3.3-0.14,6.61-0.3,9.91-0.42c2.14-0.08,4.26-0.39,6.39-0.49c1.04-0.05,2.07-0.5,3.14-0.61c0.82-0.08,2.02,0.66,2.52,1.28
				c0.94,1.17,0.94,2.5,0.95,3.86c0.03,4.78,0.23,9.55,0.56,14.32c0.07,1.02-0.02,2.03-0.08,3.04c-0.04,0.65-1.28,1.7-2.18,1.79
				c-1.87,0.18-3.74,0.4-5.62,0.6c-3.55,0.37-7.12,0.54-10.69,0.48c-2.81-0.05-5.63-0.07-8.44-0.06c-6.02,0.03-12.1,0.67-18.1-0.05
				c-0.89-0.11-1.36-0.56-1.39-1.46c0-0.14-0.02-0.29-0.03-0.43c-0.07-4.49-0.14-8.98-0.22-13.48c-0.03-1.68-0.07-3.36-0.1-5.05
				c-0.01-0.32,0.01-0.7-0.32-0.84c-0.42-0.19-0.41,0.31-0.56,0.49c-1.03,1.27-3.94,2.02-5.52,1.45c-0.48-0.18-1.02-0.2-1.53-0.3
				c-1.76-0.32-2.79-1.76-2.53-3.55c0.04-0.29,0.08-0.57,0.09-0.86c0.03-1.83-0.13-2.01-2.01-2.03c-2.73-0.02-5.46-0.02-8.18-0.02
				c-0.06,0-0.12,0-0.17,0c-3.53-0.14-3.06-0.26-3.62-3.53c-0.34-1.99-0.45-4.03-0.45-6.05c0-0.22-0.08-0.36-0.29-0.33
				c-0.73,0.09-1.34-0.54-2.07-0.32c-0.04,0.01-0.05,0.22-0.03,0.33c0.2,1.07,0.03,2.2,0.48,3.25c0.53,1.26,0.67,4.57,0.02,5.72
				c-0.29,0.52-0.81,0.89-1.34,1.16c-3.78,1.96-9.6,1.01-13.7,0.9c-5.1-0.13-10.19-0.36-15.29-0.36c-2.23,0-4.52-0.24-6.71,0.29
				c-1.31,0.32-2.3-0.62-3.51-0.5c-0.45,0.04-0.36-0.59-0.56-0.89c-0.19-0.3-0.26-0.5-0.69-0.27c-0.6,0.33-1.27,0.54-1.91,0.81
				c-0.28,0.12-0.55,0.09-0.84-0.01c-0.79-0.28-1.58-0.56-2.38-0.8c-0.5-0.15-0.78-0.37-0.62-0.93c0.15-0.56,0.55-0.64,1.02-0.48
				c0.87,0.29,1.76,0.31,2.67,0.31c0.48,0,0.9-0.09,1.31-0.37c0.64-0.44,1.19-0.24,1.5,0.48c0.38,0.89,1.77,1.34,2.62,0.88
				c0.35-0.19,0.71-0.39,1.15-0.17c0.19,0.1,0.45,0.09,0.68,0.09c11.11-0.16,22.23-0.33,33.34-0.5c1.44-0.02,2.22-0.98,2.28-2.43
				c0.09-2.19-0.68-4.29-0.52-6.48c0.02-0.21,0-0.43-0.23-0.52c-0.81-0.32-1.4-1-2.25-1.26c-2.06-0.64-3.12-2.05-3.13-4.24
				c-0.01-1.56-0.51-3.09-0.37-4.67c0.05-0.57-0.35-0.55-0.74-0.58c-2-0.15-4-0.02-6,0.02c-2.06,0.04-4.12,0.08-6.18,0.03
				c-2.75-0.07-5.47,0.12-8.18,0.59c-1.52,0.27-3.07,0.12-4.61,0.15c-0.32,0.01-0.64-0.06-0.94,0.09c-0.33,0.16-0.66,0.2-0.76-0.23
				c-0.09-0.39,0.04-0.76,0.48-0.89c0.14-0.04,0.29-0.06,0.43-0.05c4.3,0.24,8.54-0.7,12.85-0.58c4.32,0.12,8.64-0.07,12.97-0.08
				c0.61,0,0.82-0.13,0.95-0.76C143.09,121.03,143.32,119.79,144.24,118.66z M222.14,154.21c0-1.16,0.02-2.32-0.01-3.48
				c-0.02-0.9-0.11-1.77-0.82-2.48c-1.13-1.13-1.73-1.18-2.92-0.17c-0.18,0.15-0.38,0.16-0.57,0.08c-0.51-0.21-1.03-0.14-1.55-0.12
				c-1.54,0.05-3.08,0.08-4.61,0.19c-4.74,0.32-9.49,0.35-14.22,0.76c-4.79,0.41-9.62,0.44-14.43,0.63
				c-0.56,0.02-1.07-0.44-1.68-0.18c-0.54,0.23-1.14,0.23-1.72,0.18c-1.34-0.11-1.9,0.4-1.87,1.87c0.14,5.71,0.22,11.42,0.31,17.13
				c0.02,1.39,0.71,2.03,2.09,1.97c0.51-0.02,0.92-0.35,1.39-0.42c2.32-0.32,4.49-0.25,6.83-0.17c0.19,0.01,0.39,0.01,0.58,0.02
				c4.09,0.14,8.08-0.1,12.18-0.28c6.46-0.27,12.93-0.56,19.39-0.81c2.1-0.08,2.24-0.12,2.18-2.22c-0.07-2.43-0.19-4.87-0.38-7.3
				C222.18,157.68,222.17,155.95,222.14,154.21z M143.69,124.65c-0.02,2.11,0.39,3.89,0.73,5.68c0.05,0.27,0.11,0.58,0.37,0.76
				c1.13,0.79,2.28,1.47,3.64,1.85c2.04,0.56,4.14,0.63,6.2,0.63c1.82-0.01,3.39,0.54,4.94,1.29c0.59,0.29,1.22,0.46,1.8,0.83
				c1.23,0.78,2.6,1.37,3.95,1.88c2.75,1.04,5.68,1.02,8.58,0.9c0.55-0.02,1.09-0.08,1.6-0.35c1.64-0.84,3.26-1.67,4.81-2.69
				c2.55-1.68,5.5-2.2,8.51-2.16c1.02,0.01,1.94-0.14,2.87-0.44c1.11-0.35,1.77-1.19,2.3-2.19c1.06-2,1.15-4.23,1.57-6.38
				c0.27-1.35,0.33-2.7,0.17-4.06c-0.19-1.55-0.24-1.38-1.65-1.95c-1.69-0.68-3.45-0.66-5.17-0.9c-2.3-0.32-4.19-1.29-5.98-2.63
				c-0.2-0.15-0.37-0.35-0.55-0.54c-1.77-1.82-3.6-3.58-6.11-4.38c-0.85-0.27-1.72-0.49-2.54-0.84c-0.76-0.33-1.51-0.34-2.3-0.33
				c-2.17,0.04-4.2,0.72-6.25,1.33c-0.41,0.12-0.83,0.29-1.19,0.52c-1.22,0.79-2.52,1.44-3.68,2.38c-1.33,1.08-2.86,1.91-4.38,2.75
				c-1.56,0.87-3.2,1.3-4.88,1.66c-1.67,0.36-3.31,0.81-4.86,1.49c-0.77,0.34-1.56,0.97-1.81,1.87
				C144,122.03,143.55,123.43,143.69,124.65z M193.57,142.94c1.58-0.19,4.19-0.26,6.77-0.82c1.09-0.23,1.55-0.6,1.89-1.59
				c0.25-0.75,0.43-1.45,0.42-2.26c-0.03-2.26,0.02-4.52,0.1-6.78c0.02-0.53,0.04-1.04-0.15-1.53c-0.5-1.31-0.52-2.67-0.34-4.03
				c0.14-1.07,0.13-2.14,0.08-3.21c-0.04-0.73-0.32-1.04-1.07-1.01c-1.16,0.05-2.32,0.11-3.44-0.31c-0.64-0.24-0.91,0.03-0.83,0.7
				c0.05,0.43,0.04,0.87,0.07,1.3c0.28,4.13-0.6,7.8-4.12,10.43c-0.11,0.08-0.21,0.22-0.25,0.35c-0.2,0.54-0.67,0.66-1.15,0.81
				c-1.85,0.59-3.75,0.25-5.62,0.32c-0.58,0.02-1.19-0.02-1.71,0.22c-1.47,0.7-3.09,1.07-4.42,2.11c-1.52,1.19-3.04,2.3-2.68,4.57
				c0.04,0.23,0.01,0.47-0.02,0.69c-0.08,0.51,0.16,0.6,0.63,0.65c2.09,0.24,4.16-0.14,6.25-0.05
				C186.85,143.64,189.69,143,193.57,142.94z M162.43,144.26c0,0.02,0,0.04,0,0.06c1.07,0,2.14-0.02,3.22,0.01
				c0.53,0.02,0.72-0.17,0.69-0.7c-0.03-0.75,0-1.51,0-2.26c0-1.42,0-1.42-1.28-1.93c-0.13-0.05-0.29-0.09-0.39-0.19
				c-0.98-1.01-2.33-1.51-3.53-2.09c-2.31-1.13-4.81-1.92-7.49-1.66c-0.37,0.04-0.53,0.16-0.51,0.52c0.11,2.05,0.2,4.1,0.33,6.15
				c0.05,0.81,0.44,1.59,1.21,1.75c1.32,0.28,2.64,0.67,4.03,0.56C159.94,144.38,161.19,144.33,162.43,144.26z M175.25,139.73
				c-2.28,0.53-4.55,0.53-6.8,0.03c-0.56-0.12-0.58,0.14-0.59,0.52c-0.01,1.16-0.02,2.31-0.03,3.47c0,0.3,0.02,0.7,0.27,0.78
				c0.78,0.23,1.26,0.74,1.85,1.28c1.07,0.96,3.32,0.45,4.29-0.63c0.29-0.32,0.6-0.62,0.93-0.9c0.19-0.16,0.34-0.31,0.32-0.57
				C175.39,142.39,175.6,141.05,175.25,139.73z M175.49,145.74c-2.22,2.12-3.27,1.9-4.9,1.63c-0.8-0.13-1.46-0.65-2.18-1.01
				c-0.18-0.09-0.5-0.36-0.52,0.06c-0.05,0.98-0.39,1.95,0.22,2.95c0.43,0.7,1.14,0.45,1.63,0.81c1.78,1.32,3.72,0.4,5.04-0.42
				c0.32-0.2,0.69-0.49,0.71-0.94C175.51,147.85,175.49,146.87,175.49,145.74z M137.68,145.21c2.88,0.27,5.76,0.44,8.62,0
				C143.43,145.21,140.55,145.21,137.68,145.21z"/>
			<path d="M128.53,149.79c0.45,0.53,0.37,1.06,0.36,1.58c-0.07,5.98-0.11,11.95-0.23,17.93c-0.02,0.83,0.84,1.24,0.68,2.04
				c0,0.01,0.31,0.09,0.48,0.11c2.33,0.23,4.66,0.5,7.02,0.3c0.9-0.08,1.79,0.1,2.68,0.12c2.08,0.04,4.16-0.25,6.24-0.34
				c5.09-0.22,10.12-1.22,15.25-1.02c2.14,0.09,4.3-0.33,6.45-0.51c0.55-0.05,0.45-0.4,0.4-0.75c-0.05-0.31-0.13-0.67,0.25-0.84
				c0.34-0.15,0.61,0.08,0.85,0.29c1.2,1.02,2.54,1.14,3.98,0.66c0.31-0.1,0.61-0.29,0.88,0.01c0.25,0.28,0.1,0.54-0.11,0.77
				c-0.33,0.35,0.15,1.03-0.55,1.24c-1.17,0.35-2.35,0.37-3.52,0.11c-0.43-0.1-0.68-0.17-0.95,0.29c-0.21,0.35-0.68,0.49-1.13,0.55
				c-1.67,0.22-3.37,0.27-5.03,0.25c-4.61-0.05-9.11,0.63-13.68,1.08c-4.64,0.46-9.31,0.16-13.96,0.33
				c-0.64,0.02-1.28-0.04-1.91-0.03c-1.23,0.02-2.4-0.29-3.53-0.72c-1.06-0.4-1.69-1.4-1.68-2.56c0.07-6.12,0.14-12.24,0.21-18.36
				c0.01-0.5,0.01-0.97-0.42-1.35c-0.39-0.34-0.27-0.72,0.12-1.11c-0.29-0.02-0.53-0.01-0.76-0.07c-0.33-0.09-0.46-0.32-0.39-0.67
				c0.06-0.33,0.22-0.5,0.58-0.5c12.47,0.1,24.94-0.24,37.41-0.28c0.2,0,0.41,0,0.61,0.01c0.33,0.02,0.56,0.17,0.56,0.53
				c0,0.35-0.21,0.53-0.55,0.55c-0.26,0.02-0.52,0.02-0.78,0.02c-11.75,0.12-23.5,0.24-35.24,0.36
				C128.98,149.79,128.83,149.79,128.53,149.79z"/>
			<path d="M158.34,67.59c-1.8,0-3.6,0-5.4,0c-1.54,0-3.06-0.07-4.6-0.18c-3.56-0.26-7.13,0.08-10.69,0
				c-1.3-0.03-2.61-0.05-3.92,0.02c-0.95,0.05-1.82-0.29-2.72-0.44c-0.22-0.04-0.68-0.1-0.43-0.59c0.05-0.09-0.02-0.31-0.11-0.4
				c-0.91-0.96-0.9-2.05-0.82-3.32c0.24-3.56-0.1-7.13-0.19-10.69c-0.05-1.94,0.45-3.79,0.66-5.69c0.08-0.76,0.75-1.18,1.42-1.22
				c1.96-0.13,3.78-0.96,5.78-0.97c4-0.02,7.99-0.4,12-0.39c3.86,0.01,7.71-0.29,11.56-0.46c3.35-0.14,6.7-0.31,10.05-0.2
				c0.92,0.03,1.79,0.35,2.71,0.45c0.67,0.07,1.06,0.63,1.17,1.42c0.71,5.33,0.74,10.68,0.77,16.04c0,0.81,0.09,1.62,0.05,2.43
				c-0.12,2.66-1.45,3.65-3.9,3.8c-2.23,0.13-4.44,0.45-6.68,0.42C162.81,67.57,160.57,67.6,158.34,67.59
				C158.34,67.6,158.34,67.59,158.34,67.59z M130.61,57.18c0,1.99-0.01,4.11,0,6.22c0.01,1,0.53,1.82,1.29,1.91
				c1.81,0.21,3.63,0.5,5.44,0.51c3.71,0.03,7.41,0.21,11.12,0.07c3.39-0.13,6.78,0.06,10.18,0.06c4.73,0,9.44-0.46,14.17-0.48
				c1.32,0,1.68-0.37,1.82-1.7c0.06-0.55,0.03-1.1,0.03-1.65c0-4.06-0.04-8.11-0.32-12.17c-0.11-1.59-0.28-3.16-0.5-4.74
				c-0.09-0.6-0.34-0.82-0.95-0.87c-2.89-0.27-5.78-0.23-8.68-0.16c-6.51,0.16-13.02,0.24-19.52,0.74
				c-2.11,0.16-4.23,0.16-6.35,0.21c-2.15,0.05-4.23,0.65-6.37,0.79c-0.54,0.04-0.91,0.29-0.99,0.9c-0.12,0.92-0.28,1.83-0.41,2.75
				C130.23,52.07,130.5,54.56,130.61,57.18z"/>
			<path d="M175.39,91.63c-3.31-0.1-6.62,0.19-9.92-0.02c-3.07-0.2-6.14,0.2-9.21-0.14c-0.73-0.08-1.4-0.27-2.02-0.66
				c-0.32-0.2-0.48-0.44-0.51-0.84c-0.4-5.81-0.81-11.63-1.21-17.44c0-0.03,0-0.06-0.01-0.09c-0.18-1.58,0.08-1.85,1.73-1.89
				c12.06-0.3,24.13-0.59,36.19-0.91c1.32-0.04,2.63-0.31,3.97-0.31c0.78,0,1.1,0.32,1.16,1.05c0.28,3.47,0.57,6.93,0.86,10.4
				c0.24,2.82,0.48,5.64,0.73,8.47c0.02,0.24,0.04,0.49-0.09,0.69c-0.21,0.32-0.67,0.32-1.05,0.37c-1.01,0.12-1.82,0.91-2.79,1.15
				c-1.76,0.44-4.1,0.12-5.93,0.17C183.32,91.74,179.35,91.86,175.39,91.63z M174.1,89.98c0,0.08,0,0.15,0,0.23
				c5.74,0,11.48-0.01,17.23,0.01c1.03,0,2-0.13,2.96-0.55c1.21-0.53,1.82-1.35,1.72-2.61c-0.43-5.31-0.88-10.63-1.3-15.94
				c-0.04-0.51-0.24-0.63-0.7-0.62c-1.59,0.05-3.19,0.03-4.78,0.1c-8.08,0.32-16.16,0.27-24.23,0.79c-3.61,0.23-7.25,0.2-10.87,0.26
				c-0.57,0.01-0.74,0.17-0.7,0.75c0.42,5.32,0.8,10.64,1.21,15.95c0.07,0.93,0.54,1.34,1.46,1.36
				C162.09,89.79,168.09,89.89,174.1,89.98z"/>
			<path d="M107.9,149.65c-0.94,0.73-1.93,0.5-2.9,0.37c-0.51-0.07-1.01-0.24-1.51-0.38c-0.44-0.12-0.84-0.93-0.64-1.35
				c0.27-0.57,0.69-0.34,1.11-0.17c1.31,0.54,2.61,0.88,3.82-0.23c0.06-0.06,0.16-0.08,0.24-0.1c0.37-0.06,0.75-0.56,1.1-0.12
				c0.34,0.43-0.13,0.72-0.35,1.04c-0.09,0.14-0.14,0.31-0.25,0.59c1.35-0.36,2.66-0.14,3.93-0.46c0.52-0.13,1.1-0.1,1.64-0.07
				c1.36,0.06,2.72,0.04,4.09,0.01c0.82-0.01,1.63-0.17,2.45,0.24c0.4,0.2,0.97,0.14,1.49-0.15c1.34-0.74,2.12-0.26,2.08,1.27
				c-0.05,2.23-0.11,4.45-0.08,6.68c0.04,3.08,0.33,6.12,0.66,9.18c0.21,1.98,0.34,3.98,0.54,5.97c0.22,2.16,0.08,2.46-2.1,2.51
				c-3.16,0.08-6.29,0.51-9.44,0.71c-1.51,0.1-3.01-0.2-4.52-0.16c-0.79,0.02-1.59,0.31-2.27-0.37c-0.24-0.23-0.32,0.13-0.44,0.25
				c-1.02,1.04-3.59,1.59-4.98,1.06c-0.49-0.19-0.59-0.56-0.42-0.98c0.19-0.46,0.35-1.1,1.08-0.8c0.53,0.22,1.08,0.15,1.62,0.25
				c1.13,0.2,1.9-0.4,2.56-1.13c0.35-0.39,0.65-0.42,1.06-0.32c1.91,0.47,3.85,0.38,5.79,0.35c2.84-0.05,5.68-0.01,8.52,0
				c0.23,0,0.46,0,0.7,0c1.73-0.04,2.01-0.35,1.84-2.06c-0.35-3.57-0.82-7.13-1.02-10.71c-0.17-3-0.34-6.02-0.02-9.03
				c0.01-0.09,0.01-0.17,0.02-0.26c0.07-1.46,0.07-1.36-1.38-1.32c-2.61,0.06-5.21-0.05-7.82-0.05c-1.56,0-3.13-0.03-4.68,0.21
				c-0.09,0.01-0.2-0.01-0.25,0.04C108.37,150.97,108.16,150.27,107.9,149.65z"/>
			<path d="M74.84,108.63c-0.26-2.4-0.24-5.32-0.16-8.25c0.07-2.7,0.83-3.5,3.53-3.52c0.78-0.01,1.57-0.01,2.35,0.02
				c0.48,0.02,0.89,0.21,0.83,0.78c-0.05,0.58-0.5,0.39-0.87,0.39c-1.19-0.02-2.37-0.09-3.56,0.08c-0.77,0.11-1.17,0.43-1.25,1.26
				c-0.21,2.29-0.21,4.57-0.08,6.86c0.1,1.79,0.22,3.58,0.13,5.38c-0.02,0.46-0.06,0.93,0.09,1.38c0.1,0.31,0.08,0.61-0.29,0.7
				c-0.36,0.09-0.53-0.2-0.61-0.48c-0.08-0.27-0.1-0.57-0.1-0.86C74.83,111.3,74.84,110.22,74.84,108.63z"/>
			<path d="M97.54,150.9c-2.22,0-4.45,0-6.67,0c-0.73,0-1.44,0.11-2.11,0.44c-0.29,0.14-0.58,0.37-0.84,0.02
				c-0.26-0.35,0.05-0.61,0.26-0.82c0.63-0.65,1.5-0.74,2.32-0.74c1.56,0.01,3.11-0.02,4.68,0.1c1.9,0.14,3.82-0.06,5.73-0.12
				c0.58-0.02,1.16-0.04,1.73-0.09c0.38-0.03,0.75-0.04,0.75,0.46c0,0.44-0.28,0.66-0.73,0.68c-1.01,0.04-2.02,0.11-3.03,0.15
				c-0.69,0.02-1.39,0-2.09,0C97.54,150.95,97.54,150.92,97.54,150.9z"/>
			<path d="M170.93,156.2c-1,0.26-1.92-0.52-2.85-0.97c-0.4-0.2-0.93-0.97-0.98-1.7c-0.05-0.69,0.36-0.99,0.98-0.68
				c0.44,0.22,0.86,0.49,1.26,0.77c1.09,0.79,3.38,0.81,4.45,0.03c0.35-0.26,0.81-0.53,1.15-0.07c0.3,0.39,0.11,0.82-0.24,1.16
				C173.63,155.8,172.68,156.19,170.93,156.2z"/>
			<path d="M170.97,164.11c-1.08-0.13-1.91-0.94-2.83-1.54c-0.3-0.19-0.23-0.71,0-1.04c0.27-0.39,0.68-0.42,1.09-0.28
				c0.68,0.24,1.33,0.54,2.06,0.63c0.8,0.11,1.55,0.06,2.24-0.42c0.28-0.19,0.57-0.32,0.87-0.05c0.28,0.25,0.22,0.59,0.1,0.89
				c-0.1,0.24-0.23,0.55-0.42,0.63C173.09,163.35,172.19,164.03,170.97,164.11z"/>
			<path d="M171.91,160.01c-1.24,0.02-2.43-0.23-3.53-0.8c-0.86-0.45-0.87-1.22-0.09-1.67c0.29-0.16,0.53-0.16,0.8,0.02
				c1.26,0.8,2.59,1.07,4.04,0.51c0.42-0.16,1.03-0.45,1.31,0.16c0.28,0.59-0.13,1.02-0.62,1.37
				C173.24,160.03,172.58,159.98,171.91,160.01z"/>
			<path d="M105.65,156.18c-1.32,0.03-2.13-0.68-2.91-1.41c-0.37-0.34-0.31-0.84,0.01-1.17c0.35-0.37,0.79-0.27,1.16,0.05
				c0.73,0.63,2.1,0.73,2.85,0.15c0.26-0.2,0.51-0.39,0.84-0.39c0.43,0,0.87,0.01,1.05,0.55c0.17,0.5-0.11,0.78-0.47,1
				C107.34,155.48,106.61,156.25,105.65,156.18z"/>
			<path d="M104.18,171.19c-0.94,0.03-1.68-0.3-2.35-0.66c-0.45-0.24-0.79-0.74-0.19-1.24c0.14-0.12,0.23-0.24,0.29-0.41
				c0.24-0.75,0.72-0.57,1.13-0.22c1.06,0.88,2.19,0.88,3.29-0.04c0.29-0.24,0.63-0.4,0.93-0.11c0.3,0.3,0.28,0.69,0.01,1.02
				C106.45,170.55,105.43,171.23,104.18,171.19z"/>
			<path d="M105.8,141.3c-1.08,0.11-1.91-0.37-2.57-1.23c-0.32-0.41-0.48-0.88-0.1-1.25c0.41-0.4,0.66,0.02,0.96,0.33
				c0.43,0.46,1.08,0.39,1.64,0.4c0.94,0.02,1.96,0.37,2.62-0.77c0.19-0.34,0.69-0.26,0.84,0.26c0.23,0.78-0.41,1.83-1.21,1.96
				C107.27,141.11,106.57,141.34,105.8,141.3z"/>
			<path d="M171.14,167.47c-1.18,0.12-2.2-0.47-3.21-1.08c-0.43-0.26-0.53-0.62-0.34-1.03c0.19-0.42,0.59-0.46,0.97-0.32
				c0.71,0.27,1.33,0.68,2.13,0.79c0.89,0.13,1.62-0.14,2.35-0.51c0.32-0.16,0.64-0.41,0.93-0.07c0.3,0.35,0.23,0.75-0.08,1.1
				C173.17,167.14,172.3,167.58,171.14,167.47z"/>
			<path d="M170.77,183.91c-0.79,0.13-1.53-0.22-2.23-0.71c-0.33-0.23-0.51-0.52-0.37-0.96c0.15-0.46,0.46-0.49,0.88-0.48
				c1.24,0.05,2.47,0.19,3.7-0.09c0.3-0.07,0.5,0.05,0.59,0.36c0.11,0.4,0.37,0.78-0.07,1.19
				C172.58,183.86,171.74,183.93,170.77,183.91z"/>
			<path d="M105.35,160.96c-1.06,0.31-1.9-0.62-2.88-1.11c-0.49-0.25-0.36-0.78-0.11-1.15c0.25-0.38,0.72-0.35,1-0.05
				c0.99,1.06,1.94,1.03,3.01,0.1c0.33-0.29,0.94-0.4,1.26,0.05c0.29,0.42,0.6,0.91,0.07,1.49
				C107.08,160.94,106.35,160.99,105.35,160.96z"/>
			<path d="M103.72,180.59c-0.59,0.14-1.14-0.12-1.71-0.16c-0.54-0.04-0.58-0.88-0.72-1.4c-0.12-0.41,0.25-0.53,0.65-0.58
				c1.01-0.13,2.02-0.15,3.04-0.16c0.35-0.01,0.85-0.16,0.99,0.31c0.13,0.45-0.04,0.91-0.4,1.26
				C105.04,180.35,104.48,180.72,103.72,180.59z"/>
			<path d="M102.9,185.16c-0.64,0.01-1.28-0.05-1.86-0.34c-0.6-0.3-0.49-0.62-0.08-1.1c0.68-0.8,1.43-0.56,2.23-0.44
				c0.74,0.11,1.49,0.17,2.23-0.08c0.29-0.1,0.65-0.24,0.83,0.16c0.19,0.43-0.07,0.78-0.39,0.96
				C104.96,184.87,103.96,185.16,102.9,185.16z"/>
			<path d="M104.83,165.97c-0.34,0.02-0.69,0.02-1.03,0.07c-0.7,0.09-1.78-0.78-1.82-1.5c-0.02-0.42,0.21-0.66,0.63-0.64
				c0.22,0.01,0.47,0.08,0.66,0.2c1.09,0.69,2.19,0.6,3.31,0.1c0.4-0.18,0.86-0.4,1.15,0.11c0.29,0.5-0.14,0.74-0.47,1.05
				C106.55,166.02,105.68,165.93,104.83,165.97z"/>
			<path d="M169.95,179.84c-0.51,0.15-1.05-0.03-1.58-0.39c-0.37-0.26-0.47-0.6-0.31-0.98c0.16-0.39,0.51-0.41,0.88-0.3
				c1.11,0.34,2.24,0.12,3.36,0.11c0.3,0,0.53-0.21,0.74-0.41c0.18-0.17,0.39-0.26,0.63-0.1c0.25,0.17,0.26,0.41,0.2,0.69
				c-0.14,0.63-0.61,0.92-1.14,1.06C171.87,179.76,170.99,179.96,169.95,179.84z"/>
			<path d="M170.74,176.06c-0.79-0.3-2.01-0.04-2.75-1.07c-0.18-0.25-0.44-0.52-0.17-0.84c0.26-0.31,0.54-0.13,0.85-0.01
				c1.26,0.48,2.53,0.73,3.79-0.05c0.3-0.19,0.61-0.21,0.85,0.1c0.23,0.3,0.03,0.52-0.15,0.76
				C172.6,175.67,171.9,176.11,170.74,176.06z"/>
			<path d="M171.11,187.91c-0.86,0.1-1.6-0.15-2.32-0.47c-0.49-0.22-0.75-0.63-0.59-1.11c0.19-0.6,0.68-0.31,1.1-0.22
				c1.14,0.24,2.25,0.81,3.45,0.22c0.26-0.13,0.54-0.04,0.64,0.26c0.12,0.34,0.01,0.63-0.29,0.84
				C172.48,187.85,171.82,188.1,171.11,187.91z"/>
			<path d="M100.61,188.08c0.04-0.43,0.3-0.51,0.66-0.37c1.24,0.48,2.47,0.5,3.72,0.04c0.22-0.08,0.49-0.13,0.65,0.07
				c0.19,0.24-0.1,0.4-0.17,0.6c-0.12,0.36-0.33,0.64-0.71,0.66c-1.15,0.05-2.3,0.15-3.44-0.13
				C100.86,188.84,100.65,188.54,100.61,188.08z"/>
			<path d="M106.96,49.74c-0.03,0.11-0.13,0.41-0.18,0.72c-0.06,0.36-0.12,0.71-0.57,0.74c-0.44,0.03-0.78-0.19-1-0.56
				c-0.23-0.39-0.21-0.83-0.16-1.26c0.08-0.65,0.27-1.28,1.01-1.41C106.5,47.89,106.99,48.81,106.96,49.74z"/>
			<path d="M100.75,56.59c0.02-0.72,1.19-1.69,1.91-1.58c0.25,0.04,0.44,0.17,0.51,0.41c0.14,0.49,0.14,1.03-0.21,1.4
				c-0.34,0.37-0.82,0.64-1.35,0.73C101,57.65,100.73,57.33,100.75,56.59z"/>
			<path d="M97.79,56.16c-0.01,0.17-0.02,0.59-0.31,0.91c-0.41,0.44-0.9,0.55-1.39,0.17c-0.46-0.36-0.57-0.86-0.26-1.38
				c0.12-0.2,0.29-0.36,0.44-0.54c0.25-0.29,0.24-1.01,0.83-0.77C97.61,54.77,97.83,55.34,97.79,56.16z"/>
			<path d="M112.25,62.16c-0.02,0.95-0.53,1.64-1.14,1.61c-0.69-0.03-0.83-0.52-0.83-1.09c0-0.72,0.55-1.47,1.05-1.36
				C111.78,61.43,112.31,61.6,112.25,62.16z"/>
			<path d="M114.1,56.14c-0.01,0.72-0.59,1.38-1.2,1.35c-0.67-0.04-0.73-0.56-0.73-1.07c0-0.71,0.53-1.4,1.04-1.39
				C113.65,55.04,114.11,55.61,114.1,56.14z"/>
			<path d="M108.55,56.56c-0.02,0.47,0.15,1.07-0.65,1.04c-0.53-0.02-1.25-0.87-1.19-1.42c0.07-0.64,0.52-0.96,1.11-1.01
				C108.38,55.13,108.6,55.59,108.55,56.56z"/>
			<path d="M103.74,62.6c0.01-0.52,0.58-1.08,1.13-1.05c0.65,0.04,0.89,0.49,0.89,1.06c0,0.67-0.37,1.1-1.06,1.11
				C104.01,63.74,103.8,63.23,103.74,62.6z"/>
			<path d="M112.05,49.3c-0.02,0.66-0.17,1.25-0.94,1.32c-0.51,0.04-0.71-0.35-0.68-0.81c0.05-0.58,0.13-1.22,0.85-1.32
				C111.79,48.42,112.06,48.77,112.05,49.3z"/>
			<path d="M119.67,56.85c0.02,0.33-0.15,0.77-0.79,0.76c-0.55-0.01-0.81-0.42-0.81-0.94c0-0.57,0.24-1.08,0.86-1.1
				C119.58,55.54,119.65,56.09,119.67,56.85z"/>
			<path d="M117,50.04c-0.04,0.41,0,0.99-0.69,1.03c-0.57,0.03-0.72-0.39-0.68-0.88c0.04-0.51-0.01-1.14,0.73-1.16
				C116.93,49.02,117.01,49.5,117,50.04z"/>
			<path d="M101.1,50.19c-0.07,0.38-0.17,0.84-0.72,0.84c-0.47,0-0.73-0.35-0.71-0.81c0.02-0.48,0.25-0.84,0.78-0.85
				C100.93,49.37,101.07,49.71,101.1,50.19z"/>
			<path d="M184.41,123.74c0.05,3.51-1.45,6.2-4.28,8.24c-0.97,0.7-1.87,1.51-2.78,2.3c-2.06,1.79-4.5,2.55-7.25,1.99
				c-1.59-0.32-3.07-0.93-4.56-1.55c-0.08-0.03-0.18-0.06-0.23-0.12c-0.69-0.94-1.91-1-2.79-1.64c-0.91-0.65-1.88-1.22-2.89-1.73
				c-0.93-0.47-1.44-1.47-2.06-2.28c-0.43-0.57-0.8-0.82-1.49-0.6c-1.1,0.35-2.18,0.45-3.31-0.01c-1.24-0.51-2.65-2.48-2.26-4
				c0.42-1.65,2.18-2.99,3.88-2.77c1.25,0.17,1.24,0.16,1.64-0.98c0.26-0.74,0.69-1.41,1.19-2c2.02-2.4,4.51-4.25,7.41-5.37
				c1.45-0.56,2.97-1.22,4.63-1.09c1.14,0.09,2.33-0.3,3.42,0.18c1.74,0.76,3.71,0.86,5.34,2.06c1.06,0.78,2.17,1.51,3.26,2.25
				c2.16,1.48,2.9,3.63,3.12,6.07C184.44,123.05,184.41,123.4,184.41,123.74z M161.33,122.52c0.91,0.13,1.41,0.49,1.65,1.17
				c0.33,0.91,0.1,1.87-0.67,2.5c-0.75,0.62-0.35,1.29-0.14,1.97c0.21,0.68,0.65,0.52,1.17,0.4c1.51-0.33,2.64,0.59,2.58,2.06
				c-0.01,0.29-0.02,0.65-0.39,0.68c-0.48,0.03-0.31-0.37-0.32-0.63c-0.04-1.15-0.57-1.44-1.73-1.1c-0.49,0.15-0.44,0.23-0.3,0.67
				c0.46,1.43,1.74,2,2.85,2.58c1.96,1.01,4.15,1.38,6.37,1.38c1.5,0,2.8-0.74,3.9-1.67c1.96-1.64,2.63-4.01,3.1-6.39
				c0.3-1.53,0.34-3.12,0.25-4.68c-0.09-1.35-0.18-2.73-1.26-3.77c-0.53-0.52-1.05-1.07-1.51-1.64c-0.87-1.07-2.17-1.58-3.32-2.02
				c-1.34-0.5-2.89-0.65-4.41-0.61c-3.05,0.08-5.08,1.61-6.44,4.21c-0.35,0.67-0.8,1.34-0.69,2.11c0.09,0.65-0.09,1.19-0.33,1.75
				C161.56,121.82,161.32,122.12,161.33,122.52z M159.97,124.66c0-0.17-0.01-0.29,0-0.4c0.08-0.66-0.09-0.91-0.8-0.63
				c-0.63,0.25-1.35,0.23-1.94-0.09c-0.65-0.36-1.39-0.33-2.06-0.54c-1.81-0.54-3.08,0.59-3.18,2.48c-0.03,0.61,0.21,0.9,0.74,1.08
				c2.32,0.79,4.49,0.22,6.61-0.72C159.85,125.61,160.25,125.27,159.97,124.66z M162.32,115.6c-0.31,0.35-0.68,0.57-1.06,0.76
				c-1.39,0.68-2.32,1.85-3.3,2.97c-0.54,0.62-0.99,1.27-1.17,2.09c-0.04,0.2-0.17,0.45,0.03,0.56c0.6,0.34,1.13,1.01,1.93,0.64
				c0.67-0.31,1.46-0.46,1.63-1.43c0.22-1.22,0.63-2.39,1.04-3.57C161.67,116.92,162.33,116.43,162.32,115.6z M182.64,123.32
				c0.02,0,0.04,0,0.07,0c-0.06-0.81-0.09-1.62-0.18-2.42c-0.11-0.92-0.85-0.4-1.31-0.51c-0.48-0.11-0.47,0.26-0.45,0.6
				c0.07,1.71-0.02,3.41-0.21,5.11c-0.13,1.11,0.05,1.23,1.18,0.97c0.74-0.17,0.84-0.77,0.89-1.33
				C182.69,124.94,182.64,124.13,182.64,123.32z M162.07,131.24c-0.22-0.4-0.41-0.82-0.65-1.2c-0.25-0.4-0.38-0.84-0.54-1.27
				c-0.37-1.02-0.82-1.28-1.93-1.09c-0.29,0.05-0.72,0-0.82,0.31c-0.09,0.29,0.31,0.44,0.5,0.65c0.1,0.11,0.22,0.2,0.28,0.33
				C159.54,130.25,160.84,130.67,162.07,131.24z M178.52,116.07c0.78,0.67,1.48,1.43,1.71,2.42c0.22,0.9,0.72,1.08,1.49,0.96
				c0.21-0.03,0.5,0.09,0.6-0.2c0.08-0.25-0.13-0.44-0.29-0.59C180.97,117.68,179.91,116.66,178.52,116.07z M182.24,128.2
				c-0.6-0.06-1.14,0.04-1.68,0.13c-0.2,0.03-0.43,0.02-0.47,0.28c-0.11,0.77-0.34,1.52-0.32,2.57
				C180.62,130.03,181.82,129.53,182.24,128.2z M161.34,123.11c-0.19,1.12-0.14,1.83,0.17,2.58c0.55-0.26,0.99-0.57,0.91-1.29
				C162.35,123.7,161.99,123.31,161.34,123.11z"/>
			<path d="M178.52,126.44c-0.98,0.02-1.57-0.45-1.76-1.42c-0.26-1.27,0.18-2.44,1.08-2.73c0.31-0.1,0.79-0.3,0.94,0.25
				c0.15,0.56-0.35,0.5-0.65,0.56c-0.91,0.17-0.65,0.88-0.69,1.44c-0.04,0.58,0.22,0.94,0.83,0.99c0.11,0.01,0.23,0.02,0.35,0.02
				c0.37-0.01,0.54,0.24,0.52,0.55C179.1,126.46,178.78,126.44,178.52,126.44z"/>
			<path d="M171.29,116.52c-0.72-0.08-1.24-0.12-1.75-0.19c-0.54-0.07-0.96-0.35-1.24-0.83c-0.17-0.29-0.3-0.63,0.04-0.84
				c0.34-0.21,0.39,0.18,0.54,0.37c0.52,0.64,2.39,0.78,3.01,0.24c0.17-0.15,0.3-0.42,0.56-0.2c0.22,0.18,0.09,0.42,0,0.63
				C172.22,116.27,171.78,116.54,171.29,116.52z"/>
			<path d="M177.3,119.32c-1.31,0.01-2.5-1.18-2.32-2.31c0.05-0.29,0.12-0.59,0.45-0.67c0.12-0.03,0.31,0.01,0.4,0.09
				c0.26,0.24,0.03,0.43-0.07,0.67c-0.28,0.65,0.2,0.96,0.68,1.2c0.45,0.23,0.96,0.2,1.44,0.07c0.23-0.06,0.46-0.37,0.65,0
				c0.14,0.28-0.13,0.44-0.28,0.65C177.98,119.37,177.64,119.3,177.3,119.32z"/>
			<path d="M169.97,131.29c1.38-0.02,2.24,0.47,2.5,1.22c0.07,0.19,0.19,0.39-0.01,0.55c-0.26,0.2-0.42-0.02-0.57-0.19
				c-0.4-0.45-0.75-0.93-1.47-0.91c-0.74,0.01-1.35,0.2-1.77,0.84c-0.13,0.21-0.23,0.55-0.56,0.36c-0.35-0.19-0.18-0.52-0.06-0.77
				C168.5,131.49,169.37,131.32,169.97,131.29z"/>
			<path d="M175.31,130.91c-0.02-1.6,0.87-2.65,2.19-2.75c0.23-0.02,0.5-0.07,0.56,0.24c0.04,0.23-0.16,0.35-0.36,0.42
				c-1.26,0.43-2.02,1.16-1.61,2.62c0.06,0.22,0.06,0.5-0.25,0.54c-0.25,0.03-0.33-0.2-0.38-0.4
				C175.38,131.31,175.33,131.03,175.31,130.91z"/>
			<path d="M164.86,117.12c-0.03-0.32-0.28-0.79,0.29-0.79c0.47,0,0.39,0.5,0.4,0.82c0.04,1.26-0.62,2.37-1.55,2.62
				c-0.28,0.08-0.57,0.12-0.84-0.03c-0.23-0.12-0.31-0.33-0.27-0.58c0.04-0.25,0.21-0.28,0.44-0.28
				C164.47,118.86,164.93,118.31,164.86,117.12z"/>
		</g>
	</g>
</g>
</svg>
