<?xml version="1.0" encoding="utf-8"?>
<!-- Generator: Adobe Illustrator 23.0.2, SVG Export Plug-In . SVG Version: 6.00 Build 0)  -->
<svg version="1.1" id="line" xmlns="http://www.w3.org/2000/svg" xmlns:xlink="http://www.w3.org/1999/xlink" x="0px" y="0px"
	 viewBox="0 0 288 226.77" style="enable-background:new 0 0 288 226.77;" xml:space="preserve">
<style type="text/css">
	.st0{fill:#FF3A5B;}
	.st1{fill:#50E3C2;}
	.st2{fill:#FF8438;}
	.st3{fill:#FFDD4C;}
	.st4{fill:#FFFFFF;}
	.st5{fill:#925F36;}
	.st6{fill:#422918;}
	.st7{fill:#007EFF;}
	.st8{fill:#9C9B9B;}
	.st9{fill:#C6C6C5;}
	.st10{fill:#D9D9D9;}
	.st11{fill:#6F6F6E;}
	.st12{fill:#ECECEC;}
	.st13{fill:#97E6FC;}
	.st14{fill:#B1B1B1;}
	.st15{fill:#1D1D1B;}
	.st16{fill:#FFFFFF;stroke:#1D1D1B;stroke-width:0.5;stroke-miterlimit:10;}
	.st17{fill:none;stroke:#FFFFFF;stroke-linecap:round;stroke-linejoin:round;stroke-miterlimit:10;}
	.st18{fill:#A0ECD2;}
	.st19{fill:#C4F5FB;}
	.st20{fill:none;stroke:#FFFFFF;stroke-width:0.876;stroke-linecap:round;stroke-linejoin:round;stroke-miterlimit:10;}
	.st21{fill:none;}
	.st22{fill:#575756;}
	.st23{fill:#FFFFFF;stroke:#1D1D1B;stroke-width:0.9148;stroke-miterlimit:10;}
	.st24{fill:#9B5416;}
	.st25{fill:#868686;}
</style>
<g>
	<g>
		<path class="st23" d="M162.7,173.47c-0.45,0.05-0.63,0.3-0.83,0.51c-1.09,1.16-2.41,1.99-3.77,2.8c-3.59,2.14-7.54,3.28-11.5,4.46
			c-2.75,0.82-5.6,1.09-8.39,1.67c-5.77,1.21-11.59,2.01-17.53,1.75c-2.96-0.13-5.9-0.63-8.85-0.64c-4.78-0.02-9.32-1.29-13.94-2.22
			c-2.87-0.58-5.62-1.55-8.3-2.75c-2.06-0.93-4.25-1.58-6.01-3.09c-0.18-0.16-0.39-0.41-0.66-0.3c-0.33,0.13-0.29,0.48-0.26,0.77
			c0.13,1.38,0.27,2.77,0.4,4.15c0.12,1.2,0.53,2.47,0.28,3.58c-0.27,1.22,0.36,1.45,1.09,1.82c0.46,0.23,0.92,0.44,1.38,0.66
			c3.1,1.52,6.31,2.77,9.7,3.38c4.57,0.81,9.16,1.52,13.75,2.14c5.74,0.77,11.51,0.79,17.28,0.46c1.79-0.1,3.56-0.43,5.36-0.36
			c2.4,0.09,4.77-0.37,7.03-1c3.2-0.89,6.38-1.87,9.52-2.96c2.54-0.88,5.21-1.45,7.43-3.13c1.34-1.01,2.71-1.99,4.26-2.68
			c1.11-0.5,2.06-1.24,3.07-1.9c0.3-0.19,0.52-0.38,0.46-0.78C163.37,177.7,163.04,175.58,162.7,173.47z"/>
		<rect x="88.98" y="127.35" class="st13" width="57.1" height="45.02"/>
		<path class="st3" d="M183.69,77.12c-0.17-1.93-0.46-3.85-0.64-5.78c-0.44-4.89-2.17-9.3-4.77-13.4c-0.64-1.01-1.61-1.8-2.3-2.78
			c-2.88-4.12-7.2-6.03-11.66-7.79c-0.91-0.36-1.89,0.01-2.77-0.46c-1.66-0.89-3.46-1.38-5.3-1.73c-2.91-0.54-5.85-0.95-8.73-1.65
			c-6.4-1.56-12.92-2.15-19.47-2.32c-9.13-0.23-18.19,0.62-27.24,1.84c-8.46,1.13-16.55,3.41-24.06,7.48
			c-1.96,1.06-4.05,1.52-6.11,2.18c-5.5,1.76-11.43,1.79-16.75,4.28c-1.19,0.56-1.4,0.79-0.53,1.79c0.94,1.07,2.01,2.03,2.91,3.13
			c3.66,4.45,6.67,9.34,9.35,14.42c2.19,4.15,3.65,8.61,5.19,13.03c1.39,3.97,2.68,7.97,3.2,12.16c0.55,4.43,1.08,8.86,1.61,13.29
			c0.43,3.6,0.8,7.21,0.59,10.83c-0.21,3.47-0.23,6.94-0.02,10.4c0.46,7.42,1.56,14.77,2.35,22.15c0.43,4.03,1.12,8.05,1.45,12.09
			c0.29,3.61,0.43,7.23,0.97,10.81c0.08,0.54,0,1.05-0.1,1.6c-0.18,1-0.18,2.06,0.41,3c0.77,1.23,2.04,1.73,3.28,2.27
			c3.15,1.36,6.2,2.91,9.57,3.76c1.53,0.39,3.12,0.35,4.61,0.87c5.75,2.02,11.81,1.93,17.75,2.52c4.54,0.45,9.12-0.17,13.67-0.69
			c3.23-0.37,6.4-1.12,9.67-1.28c2.12-0.11,4.29-0.36,6.31-1.28c3.38-1.55,6.85-2.83,10.04-4.85c3.64-2.3,7.49-4.25,10.82-7.03
			c1.54-1.28,2.92-2.6,2.17-4.91c-0.19-0.58-0.13-1.23-0.23-1.85c-0.08-0.5,0.08-0.79,0.51-1.07c0.11-0.07,0.23-0.14,0.35-0.21
			c-0.38-0.5-0.71-1.04-0.99-1.61c-0.79,0.53-1.57,1.09-2.32,1.69c-0.35,0.28-0.67,0.58-1.13,0.13c-0.41-0.4-0.42-0.8-0.19-1.29
			c0.21-0.46,0.56-0.75,0.98-1c0.68-0.41,1.36-0.82,2.04-1.24c-0.19-0.76-0.28-1.55-0.26-2.34c-0.66-4.04-0.63-8.09-0.38-12.16
			c0.34-5.63,1.27-11.2,2.17-16.75c0.72-4.47,1.31-8.97,2.41-13.38c2.73-10.98,6.58-21.62,9.7-32.48
			C183.2,86.77,184.13,82.05,183.69,77.12z M130.33,160.53c-0.28,1.15-1.06,2.11-1.77,3.07c-0.09,0.11-0.26,0.19-0.3,0.31
			c-0.68,2.44-2.79,3.02-4.81,3.49c-3.65,0.85-7.33,0.71-10.95-0.35c-0.94-0.28-1.94-0.29-2.86-0.73c-3.06-1.44-4.54-3.9-4.84-7.21
			c-0.47-5.21-0.55-10.44-0.75-17.96c-0.24-6.47,0.48-15.16,1.57-23.85c0.68-5.44,1.4-10.88,2.26-16.3c0.53-3.34,1.49-6.55,2.96-9.6
			c0.96-2,2.67-2.73,4.71-2.86c2.06-0.13,3.36,0.96,4.36,2.72c2.4,4.24,3.19,8.88,3.86,13.61c1.11,7.89,1.99,15.8,3.84,23.58
			c1.17,4.9,1.6,9.96,2.29,14.96c0.53,3.87,1.08,7.75,1.02,11.68C130.9,156.92,130.76,158.76,130.33,160.53z M166.97,90.25
			c-0.05,0.17-0.17,0.41-0.1,0.52c0.69,1.05,0.07,1.99-0.28,2.9c-1.97,5.19-3.89,10.41-6.2,15.47c-1,2.19-2.11,4.35-3.33,6.42
			c-0.73,1.24-1.71,2.35-2.43,3.61c-0.26,0.46-0.73,0.53-1.14,0.53c-0.47,0-0.42-0.54-0.49-0.85c-0.72-3.59-1.16-7.21-1.57-10.84
			c-0.55-4.78-0.42-9.57-0.44-14.35c-0.03-7.37-0.1-14.77,1.49-22.06c0.61-2.79,1.97-4.58,4.71-5.47c1.46-0.47,2.84-1.18,4.37-0.99
			c2.64-0.34,4.18,1.19,5.43,3.09c1.39,2.11,1.59,4.56,2.02,6.99C169.91,80.47,168.29,85.33,166.97,90.25z"/>
		<path d="M73.72,57.72c1.44-0.22,2.88-0.2,4.34-0.08c2,0.16,4.03,0.03,6.03,0.17c8.55,0.62,17.12,0.6,25.67,0.6
			c8.63,0,17.25,0.07,25.88-0.02c7.41-0.07,14.76-0.61,22.02-2.12c1.85-0.38,3.71-0.92,5.3-2.01c1.35-0.92,1.45-2.05,0.46-3.36
			c-0.19-0.24-0.37-0.47-0.29-0.79c0.14-0.53-0.22-0.71-0.59-0.9c-1.95-1.05-3.99-1.8-6.17-2.21c-2.87-0.55-5.78-0.96-8.62-1.62
			c-7.32-1.7-14.73-2.26-22.21-2.31c-8.04-0.05-16,0.8-23.95,1.82c-7.75,1-15.2,3.02-22.21,6.52c-1.37,0.69-2.77,1.32-3.97,2.32
			c-0.53,0.44-0.98,0.95-1.02,1.63c-0.06,0.85-0.32,1.62-0.66,2.37c-0.84-0.36-1.11-0.96-0.83-1.83c0.09-0.27,0.02-0.6,0.12-0.86
			c0.3-0.81,0.04-0.92-0.73-0.74c-3.06,0.71-6.06,1.63-9.17,2.14c-1.22,0.2-2.48,0.32-3.63,0.86
			C64.24,57.53,68.98,57.84,73.72,57.72z"/>
		<path d="M164.4,169.81c0.7-0.51,0.97-1.08,1.53-1.32c1.2-0.53,1.49-1.43,1.26-2.68c-0.69-3.77-0.54-7.58-0.32-11.38
			c0.3-5.34,1.25-10.6,1.99-15.88c1.17-8.3,2.84-16.49,5.31-24.52c2.42-7.86,5.03-15.66,7.29-23.57c1.21-4.25,1.94-8.53,1.56-12.99
			c-0.19-2.15-0.51-4.28-0.72-6.43c-0.42-4.23-1.95-8.1-4.19-11.65c-1.38-2.18-3.22-4.06-4.98-5.96c-0.27-0.29-0.65-0.46-0.97-0.71
			c-1.88-1.44-4.01-2.38-6.18-3.26c-0.21-0.09-0.45-0.39-0.66-0.08c-0.16,0.22-0.33,0.49-0.11,0.8c1.06,1.54,0.51,2.98-0.33,4.43
			c0.17,0.06,0.29,0.15,0.43,0.16c2.75,0.2,4.98,1.65,7.14,3.14c2.93,2.02,4.7,4.88,5.92,8.21c1.35,3.68,2.15,7.35,1.4,11.26
			c-0.21,1.11-0.5,2.24-0.49,3.36c0.02,4.05-0.98,7.98-1.41,11.97c-0.25,2.26-0.71,4.49-1.54,6.61c-1.04,2.66-1.89,5.38-2.75,8.1
			c-1.85,5.89-3.8,11.76-5.62,17.66c-1.92,6.21-3.17,12.55-3.55,19.04c-0.42,7.23-0.39,14.47-0.31,21.71
			C164.1,167.09,164.28,168.35,164.4,169.81z"/>
		<path class="st4" d="M162.7,173.47c-0.45,0.05-0.63,0.3-0.83,0.51c-1.09,1.16-2.41,1.99-3.77,2.8c-3.59,2.14-7.54,3.28-11.5,4.46
			c-2.75,0.82-5.6,1.09-8.39,1.67c-5.77,1.21-11.59,2.01-17.53,1.75c-2.96-0.13-5.9-0.63-8.85-0.64c-4.78-0.02-9.32-1.29-13.94-2.22
			c-2.87-0.58-5.62-1.55-8.3-2.75c-2.06-0.93-4.25-1.58-6.01-3.09c-0.18-0.16-0.39-0.41-0.66-0.3c-0.33,0.13-0.29,0.48-0.26,0.77
			c0.13,1.38,0.27,2.77,0.4,4.15c0.12,1.2,0.53,2.47,0.28,3.58c-0.27,1.22,0.36,1.45,1.09,1.82c0.46,0.23,0.92,0.44,1.38,0.66
			c3.1,1.52,6.31,2.77,9.7,3.38c4.57,0.81,9.16,1.52,13.75,2.14c5.74,0.77,11.51,0.79,17.28,0.46c1.79-0.1,3.56-0.43,5.36-0.36
			c2.4,0.09,4.77-0.37,7.03-1c3.2-0.89,6.38-1.87,9.52-2.96c2.54-0.88,5.21-1.45,7.43-3.13c1.34-1.01,2.71-1.99,4.26-2.68
			c1.11-0.5,2.06-1.24,3.07-1.9c0.3-0.19,0.52-0.38,0.46-0.78C163.37,177.7,163.04,175.58,162.7,173.47z"/>
		<path class="st4" d="M82.94,58.25c1.08,13.88,1.43,27.83,1.04,41.75c0.74,0.04,1.48,0.08,2.22,0.11
			c0.02-13.26-0.41-26.52-1.27-39.75c-0.06-0.85-0.67-2.03-1.4-1.58"/>
		<path class="st4" d="M84.96,103.94c-0.23-0.24-0.66-0.1-0.84,0.18s-0.17,0.63-0.16,0.96c0.06,1.6,0.12,3.19,0.18,4.79
			c0.03,0.8,0.34,1.87,1.14,1.81c0.63-0.05,0.91-0.79,1.05-1.4c0.29-1.3,0.56-2.63,0.38-3.95c-0.18-1.32-0.87-2.64-2.06-3.23"/>
		<path class="st4" d="M75.19,55.95c4.41-5.28,11.37-7.63,18.09-9.13c7.18-1.6,14.51-2.5,21.85-2.69c1.11-0.03-1.54,0.5-0.74,1.27
			c-6.97,1.5-10.27,1.1-17.33,2.06c-7.06,0.97-14.26,2.94-19.68,7.57c-0.71,0.61-1.98,1.16-2.38,0.32"/>
		<path class="st4" d="M165.88,50.41c-0.25-0.31-0.54-0.64-0.93-0.7s-0.85,0.34-0.67,0.69c0.07,0.14,0.2,0.22,0.33,0.3
			c1.52,0.92,3.24,1.41,4.85,2.17c2.48,1.17,4.65,2.97,6.26,5.18c0.23-0.74-0.32-1.47-0.86-2.03c-2.56-2.65-5.68-4.76-9.11-6.13"/>
	</g>
	<g id="fqUje8_1_">
		<g>
			<path d="M288.74,174.58c-1.88-1.45-3.81-2.52-5.87-3.37c-3.17-1.31-6.44-2.02-9.91-2.3c-4.94-0.39-9.57,0.46-14.22,1.96
				c-2.81,0.91-5.56,2.05-8.45,2.73c-0.98,0.23-1.85,0.92-2.79,1.33c-3.25,1.42-6.48,2.88-9.78,4.19c-2.86,1.14-5.62,2.49-8.36,3.85
				c-2.57,1.27-5.31,2.07-7.93,3.2c-3.94,1.7-7.98,3.15-11.98,4.7c-1.43,0.55-2.94,0.8-4.47,0.87c-2.67,0.12-5.36,0.32-8.02,0.16
				c-2.4-0.14-4.68-1.02-6.92-1.86c-1.36-0.51-2.56-1.25-3.41-2.51c-1.03-1.53-1.04-3.12-0.27-4.66c0.88-1.74,2.18-3.19,4.02-4.09
				c5.69-2.79,11.53-5.19,17.69-6.82c2.73-0.72,5.38-1.68,7.38-3.81c1.2-1.28,1.65-2.73,0.97-4.4c-0.69-1.7-1.83-3.06-3.44-4.02
				c-3.28-1.96-6.95-2.47-10.68-2.65c-5.21-0.26-10.15,1.18-15.12,2.41c-5.7,1.41-10.71,4.23-15.65,7.21
				c-1.52,0.92-3.04,1.82-4.56,2.72c-0.42,0.25-0.81,0.51-1.04,0.95c-0.25,0.49-0.34,0.93,0.14,1.38c0.53,0.5,0.87,0.1,1.24-0.19
				c2.42-1.88,5.02-3.43,7.91-4.59c6.26-2.5,12.52-4.94,19.23-6.06c3.71-0.62,7.47-0.77,11.22-0.87c2.53-0.06,4.65,1.18,6.39,2.93
				c1.36,1.37,1.41,4.41-0.86,5.63c-2.57,1.39-5.27,2.32-8.04,3.17c-5.65,1.73-11.08,3.97-16.44,6.41
				c-4.69,2.13-6.55,8.92-2.09,13.46c2.03,2.07,4.52,2.94,7.3,3.36c0.99,0.15,1.97,0.34,2.96,0.5c5.29,0.8,10.33-0.57,15.39-1.72
				c1.16-0.26,2.3-0.64,3.48-0.72c2.33-0.15,4.42-0.91,6.34-2.16c1.24-0.81,2.58-1.46,4-1.89c2.01-0.59,3.76-1.72,5.64-2.58
				c4.1-1.88,8.13-3.89,12.23-5.77c2.64-1.21,5.26-2.53,7.8-3.95c5.8-3.24,12.06-4.65,18.67-4.79c2.94-0.06,5.88-0.13,8.81-0.02
				c4.07,0.15,7.62,1.5,10.18,4.8c0.55,0.71,1.03,1.43,0.98,2.36c-0.02,0.4-0.14,0.74-0.6,0.79c-0.46,0.05-0.67-0.24-0.77-0.63
				c-0.55-2.19-2.21-3.51-4.07-4.5c-1.86-1-3.96-1.44-6.12-1.45c-3.75-0.02-7.51-0.07-11.26,0.21c-5.07,0.38-9.82,1.71-14.35,4.03
				c-5.48,2.82-11,5.56-16.63,8.1c-2.19,0.99-4.31,2.12-6.47,3.19c-0.6,0.29-1.18,0.65-1.81,0.85c-2.63,0.84-5.06,2.09-7.42,3.48
				c-0.87,0.51-1.81,0.89-2.82,0.98c-3.68,0.34-7.18,1.56-10.79,2.2c-4.27,0.76-8.5,1.17-12.82,0.21c-1.85-0.41-3.7-0.72-5.46-1.45
				c-3.67-1.52-6.62-5.82-6.41-9.68c0.2-3.62,1.69-6.56,5.2-8.29c5.92-2.92,12.08-5.25,18.42-7.12c2.14-0.63,4.22-1.38,6.12-2.58
				c1.39-0.88,1.62-2.66,0.38-3.74c-1.92-1.68-4.09-2.48-6.74-2.22c-3.69,0.36-7.41,0.42-11.07,1.16
				c-8.19,1.64-15.73,4.74-22.74,9.16c-0.45,0.28-0.59,0.58-0.51,1.07c0.1,0.61,0.04,1.26,0.24,1.83c0.75,2.24-0.6,3.55-2.13,4.8
				c-3.38,2.76-7.28,4.72-10.99,6.99c-3.31,2.04-6.89,3.36-10.41,4.9c-2.02,0.89-4.19,1.13-6.31,1.23
				c-3.33,0.16-6.54,0.91-9.83,1.27c-4.58,0.51-9.19,1.12-13.77,0.68c-6.07-0.58-12.27-0.5-18.15-2.51
				c-1.51-0.52-3.13-0.48-4.69-0.87c-3.38-0.83-6.45-2.36-9.62-3.69c-1.26-0.53-2.54-1.02-3.38-2.2c-0.66-0.93-0.57-1.99-0.49-2.98
				c0.05-0.55,0.22-1.1,0.13-1.68c-0.56-3.56-0.69-7.15-0.99-10.73c-0.33-4.01-1.03-7.99-1.47-11.99
				c-0.81-7.32-1.93-14.62-2.39-21.97c-0.22-3.44-0.19-6.88,0.02-10.32c0.22-3.56-0.16-7.11-0.58-10.64
				c-0.54-4.43-1.08-8.86-1.65-13.29c-0.53-4.16-1.84-8.13-3.26-12.07c-1.56-4.35-3.03-8.74-5.23-12.83
				c-2.73-5.08-5.82-9.95-9.56-14.4c-0.89-1.06-1.96-1.98-2.89-3.02c-0.95-1.06-0.76-1.27,0.5-1.84c5.41-2.45,11.43-2.52,17.02-4.25
				c2.06-0.64,4.14-1.09,6.1-2.12c7.67-4.05,15.92-6.33,24.55-7.46c9.19-1.2,18.4-2.05,27.67-1.82c6.66,0.17,13.27,0.76,19.78,2.3
				c2.95,0.7,5.98,1.11,8.98,1.66c1.8,0.33,3.56,0.79,5.17,1.65c0.93,0.5,1.96,0.13,2.92,0.5c4.52,1.75,8.91,3.65,11.83,7.74
				c0.7,0.98,1.69,1.76,2.34,2.76c2.63,4.07,4.39,8.45,4.83,13.29c0.17,1.88,0.46,3.74,0.64,5.62c0.46,4.94-0.49,9.65-1.88,14.37
				c-3.17,10.77-7.08,21.33-9.85,32.22c-1.1,4.31-1.69,8.7-2.41,13.06c-0.91,5.48-1.84,10.96-2.21,16.51
				c-0.27,4.06-0.34,8.12,0.32,12.16c0.11,0.68,0.26,0.81,0.86,0.42c2.19-1.45,4.51-2.64,6.84-3.86c4.26-2.23,8.73-3.82,13.42-4.9
				c3.22-0.74,6.44-1.54,9.75-1.68c4.95-0.2,9.8,0.29,14.2,2.83c1.8,1.04,3.01,2.55,3.9,4.36c1.08,2.2,0.37,4.66-1.21,6.32
				c-1.61,1.68-3.63,2.66-5.77,3.37c-4.57,1.52-9.27,2.64-13.66,4.67c-2.31,1.07-4.71,1.98-6.89,3.32c-1.18,0.73-1.91,1.85-2.51,3
				c-0.84,1.59-0.04,3.64,1.68,4.55c1.31,0.69,2.62,1.39,4.16,1.47c0.15,0.01,0.3,0.03,0.44,0.08c4.2,1.61,8.49,0.73,12.76,0.46
				c1.51-0.1,2.88-0.73,4.24-1.29c2.98-1.21,6.06-2.19,8.98-3.54c2.72-1.25,5.66-1.98,8.35-3.33c3.73-1.87,7.59-3.49,11.41-5.18
				c3-1.33,6.16-2.34,9-4.02c0.84-0.5,1.81-0.64,2.72-0.94c3.27-1.09,6.55-2.12,9.84-3.14c6.39-1.98,12.73-1.61,19.09,0.11
				c2.64,0.71,5.07,1.87,7.38,3.28C288.88,172.86,288.87,172.88,288.74,174.58z M72.56,57.78c1.47-0.21,2.92-0.2,4.41-0.08
				c2.03,0.16,4.09,0.03,6.13,0.17c8.68,0.61,17.39,0.6,26.07,0.59c8.76,0,17.53,0.07,26.29-0.01c7.53-0.07,14.99-0.61,22.37-2.1
				c1.88-0.38,3.77-0.92,5.38-1.99c1.37-0.91,1.47-2.04,0.46-3.33c-0.19-0.24-0.37-0.47-0.29-0.78c0.14-0.53-0.23-0.7-0.6-0.9
				c-1.98-1.04-4.05-1.78-6.27-2.19c-2.92-0.54-5.87-0.95-8.76-1.61c-7.44-1.69-14.96-2.24-22.57-2.29
				c-8.17-0.05-16.25,0.79-24.33,1.81c-7.88,0.99-15.44,2.99-22.56,6.47c-1.4,0.68-2.82,1.31-4.03,2.3
				c-0.54,0.44-0.99,0.94-1.04,1.61c-0.06,0.85-0.32,1.61-0.67,2.35c-0.85-0.36-1.13-0.95-0.84-1.82c0.09-0.27,0.02-0.59,0.12-0.86
				c0.3-0.8,0.04-0.91-0.74-0.73c-3.1,0.71-6.16,1.62-9.31,2.12c-1.24,0.2-2.52,0.31-3.69,0.86C62.92,57.58,67.74,57.9,72.56,57.78z
				 M69.52,79.2c0.03-0.26,0.07-0.43,0.07-0.6c0.13-4.28,0.26-8.56,0.36-12.84c0.03-1.42,0.35-2.81,0.52-4.21
				c0.06-0.44,0.21-0.91,0.8-0.86c0.6,0.05,0.61,0.54,0.62,0.99c0.03,1.34,0.03,2.69,0.09,4.03c0.33,7.91,1.46,15.74,2.43,23.59
				c0.87,7.02,2.03,14,2.62,21.06c0.39,4.73,1.53,9.4,1.21,14.18c-0.23,3.42,0,6.82,0.35,10.21c0.68,6.68,1.38,13.36,2.01,20.04
				c0.55,5.78,0.85,11.58,1.18,17.38c0.02,0.31-0.1,0.65,0.25,0.9c1.11,0.78,2.13,1.78,3.35,2.33c3.67,1.63,7.33,3.31,11.31,4.23
				c1.95,0.45,3.94,0.71,5.88,1.22c2.85,0.75,5.75,1.16,8.7,1.14c1.01-0.01,2,0.11,3,0.22c4.66,0.52,9.32,0.7,14.01,0.28
				c5.2-0.46,10.26-1.64,15.38-2.5c2.33-0.39,4.66-0.97,6.89-1.76c4.25-1.51,8.48-3.13,11.76-6.41c0.52-0.52,0.8-0.94,0.73-1.67
				c-0.36-3.87-0.58-7.74-0.42-11.63c0.11-2.61,0.17-5.23,0.1-7.84c-0.14-4.81,0.44-9.57,1.11-14.31
				c0.86-6.06,2.79-11.87,4.67-17.68c2.14-6.6,4.19-13.24,6.66-19.74c1.62-4.24,1.64-8.76,2.54-13.13c0.47-2.29,0.12-4.65,0.6-6.93
				c0.74-3.51,0.67-6.89-0.46-10.39c-1.52-4.7-4.06-8.39-8.63-10.68c-2.56-1.28-5.19-1.82-7.96-1.03c-1.53,0.44-3.05,0.88-4.62,1.18
				c-6.59,1.26-13.24,1.78-19.94,1.83c-2.71,0.02-5.42-0.27-8.13,0.02c-3.04,0.32-6.09-0.09-9.13-0.1
				c-4.05-0.01-8.1,0.24-12.15,0.13c-8.62-0.24-17.24-0.06-25.85-0.66c-3.12-0.22-6.23,0.06-9.35,0.14
				c-4.83,0.13-9.66-0.24-14.48-0.38c-0.54-0.01-1.08,0-1.55,0C60.82,65.52,65.12,72.31,69.52,79.2z M131.64,191.61
				c2.55,0.12,5.05-0.41,7.48-0.98c3.35-0.79,6.63-1.9,9.88-3.02c1.78-0.61,3.75-0.82,5.34-1.84c3.07-1.97,6.28-3.72,9.37-5.65
				c0.54-0.34,0.66-0.68,0.56-1.24c-0.3-1.68-0.57-3.36-0.85-5.05c-0.05-0.28,0.07-0.68-0.22-0.8c-0.37-0.15-0.57,0.26-0.78,0.47
				c-1.91,1.9-4.24,3.21-6.69,4.23c-4.83,2-9.86,3.35-15.05,4.21c-4.69,0.77-9.34,1.7-14.09,2.06c-6.04,0.47-12.01-0.57-18.02-0.74
				c-2.66-0.08-5.17-0.98-7.77-1.36c-4.71-0.7-9.14-2.22-13.46-4.07c-1.48-0.64-3.07-1.14-4.27-2.3c-0.21-0.2-0.49-0.57-0.84-0.37
				c-0.37,0.21-0.23,0.65-0.2,1c0.22,2.09,0.77,4.21,0.58,6.27c-0.2,2.16,0.86,2.86,2.54,3.6c3.19,1.41,6.42,2.73,9.86,3.33
				c4.64,0.81,9.3,1.5,13.97,2.13c5.87,0.79,11.77,0.78,17.67,0.46C128.31,191.86,129.96,191.52,131.64,191.61z M164.75,55.11
				c3.02,0.06,5.31,1.52,7.57,2.97c3.45,2.22,5.33,5.53,6.59,9.28c0.9,2.68,1.7,5.36,1.3,8.2c-0.42,3.02-0.6,6.06-1,9.07
				c-0.82,6.2-1.68,12.38-4.02,18.34c-2.61,6.66-4.47,13.6-6.74,20.39c-2.38,7.15-3.85,14.48-4.22,21.97
				c-0.32,6.34-0.22,12.69-0.23,19.04c0,1.56,0.24,3.13,0.38,4.85c0.63-0.53,1.01-1,1.52-1.25c1.23-0.6,1.55-1.47,1.31-2.77
				c-0.7-3.67-0.54-7.37-0.34-11.07c0.32-5.77,1.31-11.47,2.24-17.16c0.69-4.22,1.26-8.47,2.29-12.64
				c2.76-11.12,6.58-21.92,10.04-32.83c2.53-7.95,2.18-15.75,0.44-23.63c-0.96-4.37-3.07-8.29-6.32-11.55
				c-1.16-1.16-2.13-2.47-3.54-3.42c-1.92-1.3-4-2.2-6.11-3.1c-0.19-0.08-0.4-0.32-0.59-0.09c-0.17,0.21-0.39,0.48-0.17,0.79
				C166.24,52.06,165.76,53.49,164.75,55.11z M70.96,71.41c-0.15,0.01-0.3,0.02-0.45,0.02c0,1.73,0.13,3.48-0.03,5.2
				c-0.31,3.29,0.36,6.39,1.6,9.41c0.06,0.14,0.13,0.35,0.52,0.29C72.1,81.35,71.16,76.42,70.96,71.41z M165.68,178.53
				c0.44-0.04,0.92-0.33,0.88-0.49c-0.37-1.36,1.23-1.55,1.51-2.51c0.06-0.2,0.29-0.35,0.35-0.55c0.18-0.57,0.2-1.28-0.18-1.65
				c-0.33-0.31-0.7,0.32-1.04,0.55c-0.8,0.53-1.58,0.53-2.38-0.31C165.12,175.34,165.4,176.94,165.68,178.53z"/>
			<path d="M171.65,77.63c0.33,3.62-0.76,7.02-1.48,10.5c-1.59,7.65-4.84,14.7-8.09,21.72c-1.86,4.01-3.4,8.1-4.9,12.23
				c-0.31,0.85-0.7,1.66-1.22,2.43c-1.41,2.07-4.89,1.91-6.1-0.43c-0.95-1.82-1.31-3.75-1.77-5.69c-1.46-6.24-1.72-12.57-1.56-18.92
				c0.16-6.2,0.08-12.41,0.83-18.57c0.5-4.1,1.79-7.99,3.58-11.73c1.04-2.18,2.98-3.39,5.13-4.2c2.31-0.87,4.72-1.41,7.26-1.51
				c2.21-0.09,3.83,0.78,5.13,2.29c2.21,2.56,3.11,5.64,3.2,8.96C171.67,75.67,171.65,76.65,171.65,77.63z M151.31,92.25
				c0,0.25-0.01,0.51,0,0.76c0.26,5.36-0.04,10.74,0.61,16.08c0.39,3.24,0.78,6.49,1.52,9.68c0.07,0.32,0.02,0.85,0.49,0.85
				c0.41,0,0.89-0.07,1.16-0.52c0.73-1.26,1.72-2.35,2.47-3.58c1.24-2.06,2.36-4.2,3.38-6.37c2.35-5.01,4.3-10.19,6.3-15.34
				c0.35-0.9,0.99-1.83,0.28-2.87c-0.07-0.1,0.05-0.34,0.1-0.52c1.29-4.85,3-9.62,2.07-14.81c-0.43-2.44-0.63-4.91-2.05-7.04
				c-0.97-1.45-2.13-2.8-4-3.06c-3.18-0.44-5.99,0.71-8.61,2.32c-0.87,0.53-1.35,1.4-1.64,2.39c-0.79,2.7-1.26,5.46-1.54,8.23
				C151.39,83.03,151.43,87.64,151.31,92.25z M157.06,119.26c-0.28,0.31-0.56,0.62-0.85,0.93c-0.3,0.32-0.6,0.65-0.94,0.92
				c-1.07,0.85-2.57,0.63-3.28-0.51c-0.28-0.46-0.51-0.97-0.65-1.49c-1.95-7.09-2.06-14.34-1.9-21.59
				c0.08-3.44,0.42-6.87,0.44-10.32c0.02-3.99,0.14-7.97,0.83-11.92c0.32-1.84,0.7-3.67,1.06-5.52c-1.24,2.36-2.18,4.82-2.82,7.39
				c-1.03,4.12-1.19,8.33-1.29,12.52c-0.24,9.59-0.95,19.21,1.32,28.7c0.44,1.84,0.66,3.71,1.73,5.35c1.18,1.8,3.11,1.97,4.48,0.28
				C156.29,122.64,156.6,120.94,157.06,119.26z"/>
			<path d="M98.77,153.55c0.31-6.05,0.16-12.12,0.48-18.16c0.28-5.39,0.49-10.79,1.42-16.13c0.51-2.92,0.52-5.93,1.08-8.84
				c0.73-3.84,1.48-7.7,2.61-11.46c1.03-3.44,2.12-6.86,3.51-10.17c0.61-1.45,1.81-2.57,3.26-3.15c1.95-0.78,4.01-1.32,6.18-0.97
				c2.64,0.42,4.22,2.27,5.8,4.11c0.3,0.36,0.48,0.8,1.01,0.94c0.23,0.06,0.45,0.23,0.51,0.53c0.75,3.87,1.99,7.63,2.8,11.49
				c1.38,6.6,2.6,13.24,3.82,19.87c0.96,5.2,1.88,10.41,2.7,15.64c0.55,3.56,1.28,7.12,2,10.66c0.62,3.05,0.6,6.2,0.36,9.32
				c-0.05,0.67-0.3,1.36,0.17,2c0.06,0.07,0.05,0.21,0.04,0.31c-0.45,3.67-1.93,6.85-4.82,9.3c-2.83,2.4-6.11,3.75-9.88,4.04
				c-4.81,0.37-9.37-0.88-13.89-2.13c-2.27-0.63-4.28-2.01-6.04-3.61c-1.89-1.72-2.29-4.09-2.63-6.42
				C98.94,158.34,98.62,155.96,98.77,153.55z M135.61,154.43c-0.14-2.06-0.13-4.15-0.46-6.18c-0.62-3.75-1.61-7.44-2.13-11.2
				c-0.73-5.36-1.74-10.67-2.77-15.97c-1.5-7.76-2.64-15.59-4.75-23.23c-0.19-0.7-0.36-1.4-0.5-2.11c-0.67-3.38-2.08-6.31-4.76-8.74
				c-2.62-2.38-6.68-1.57-9.25-0.27c-1.68,0.85-2.09,2.64-2.89,4.11c-1.35,2.49-1.82,5.28-2.73,7.93
				c-1.29,3.76-1.93,7.68-2.71,11.55c-0.59,2.91-0.64,5.91-1.1,8.85c-0.98,6.25-1.27,12.55-1.5,18.86
				c-0.11,3.01-0.07,6.02-0.18,9.03c-0.16,4.49-0.42,8.98,0.21,13.47c0.39,2.78,1.37,5.24,3.63,6.94c2.36,1.78,5.06,3,8.09,3.42
				c3.33,0.46,6.54,1.46,10.01,1.14c5.63-0.52,9.59-3.37,12.58-7.79c0.69-1.02,0.81-2.24,0.6-3.47c-0.03-0.21-0.1-0.44-0.05-0.63
				C135.49,158.27,135.55,156.36,135.61,154.43z"/>
			<path d="M132.4,153.39c0.27,2.56-0.06,5.55-0.81,8.34c-0.6,2.22-2.05,4.33-4.42,5.51c-1.99,0.99-4.11,1.56-6.3,1.7
				c-2.89,0.18-5.78-0.02-8.62-0.74c-1.8-0.46-3.58-0.89-5.26-1.7c-1.37-0.66-2.58-1.75-2.96-2.93c-0.42-1.31-0.8-2.75-0.9-4.2
				c-0.75-10.43-1.25-20.87-0.38-31.32c0.78-9.41,2-18.77,3.61-28.07c0.56-3.22,1.55-6.34,3.1-9.28c1.38-2.6,3.85-3.46,6.5-3.46
				c2.33-0.01,3.95,1.5,5.11,3.52c2.5,4.34,3.37,9.08,4.06,13.92c1.12,7.79,2.01,15.61,3.88,23.3c1.22,5.01,1.67,10.17,2.39,15.28
				C131.87,146.48,132.31,149.72,132.4,153.39z M103.78,143.2c0.14,5.15,0.23,10.3,0.68,15.44c0.29,3.33,1.79,5.8,4.95,7.24
				c0.93,0.43,1.95,0.44,2.91,0.72c3.72,1.05,7.46,1.1,11.24,0.36c1.62-0.32,2.9-1.21,4.2-2.15c0.62-0.45,0.32-1.11,0.75-1.61
				c0.9-1.03,1.76-2.12,2.01-3.52c0.44-2.51,0.6-5.04,0.44-7.59c-0.18-3.01-0.55-6-0.99-8.97c-0.71-4.92-1.19-9.9-2.33-14.73
				c-1.84-7.8-2.78-15.72-3.92-23.61c-0.67-4.65-1.49-9.23-3.91-13.39c-0.99-1.7-2.28-2.77-4.33-2.67c-2.03,0.1-3.79,0.74-4.77,2.66
				c-1.58,3.07-2.56,6.34-3.11,9.72c-0.87,5.37-1.6,10.77-2.3,16.17C104.19,125.88,103.47,134.51,103.78,143.2z"/>
			<path d="M115.27,158.59c-0.63,0-1.15,0.02-1.66-0.01c-0.42-0.02-0.86-0.12-0.92-0.61c-0.08-0.54,0.37-0.94,0.78-0.87
				c2.17,0.38,4.25-0.1,6.34-0.51c0.37-0.07,0.74,0.17,0.76,0.62c0.02,0.39-0.25,0.59-0.61,0.66
				C118.37,158.2,116.84,158.89,115.27,158.59z"/>
			<path d="M115.24,142.47c-0.4,0-0.91,0.01-1.43,0c-0.4-0.01-0.75-0.14-0.77-0.61c-0.02-0.44,0.27-0.65,0.65-0.76
				c0.17-0.05,0.37-0.07,0.55-0.04c1.64,0.25,3.24,0.04,4.84-0.37c0.35-0.09,0.74-0.06,1.1-0.03c0.31,0.03,0.55,0.24,0.57,0.57
				c0.03,0.38-0.19,0.66-0.56,0.69C118.58,142.08,117.03,142.79,115.24,142.47z"/>
			<path d="M115.35,127.52c-0.81-0.06-1.63-0.1-2.44-0.18c-0.4-0.04-0.74-0.22-0.74-0.66c0-0.51,0.39-0.71,0.83-0.67
				c1.93,0.19,3.84,0.1,5.75-0.29c0.37-0.08,0.78,0.03,0.89,0.47c0.13,0.51-0.24,0.72-0.66,0.84
				C117.8,127.35,116.58,127.46,115.35,127.52z"/>
			<path d="M114.92,98.51c0.92-0.06,1.85-0.11,2.77-0.18c0.46-0.04,0.96-0.09,1.05,0.49c0.09,0.55-0.35,0.8-0.81,0.84
				c-1.77,0.16-3.54,0.35-5.32,0.07c-0.41-0.06-0.72-0.23-0.69-0.69c0.03-0.46,0.39-0.6,0.78-0.62c0.74-0.03,1.48-0.01,2.22-0.01
				C114.92,98.46,114.92,98.48,114.92,98.51z"/>
			<path d="M113.76,113.45c-0.57-0.11-1.3-0.24-2.01-0.4c-0.36-0.08-0.57-0.33-0.52-0.71c0.06-0.4,0.38-0.61,0.71-0.53
				c1.77,0.42,3.52-0.06,5.28-0.05c0.39,0,0.75,0.13,0.79,0.59c0.04,0.53-0.35,0.67-0.78,0.72
				C116.13,113.19,115.03,113.31,113.76,113.45z"/>
		</g>
	</g>
</g>
</svg>
