<?xml version="1.0" encoding="utf-8"?>
<!-- Generator: Adobe Illustrator 23.0.2, SVG Export Plug-In . SVG Version: 6.00 Build 0)  -->
<svg version="1.1" id="line" xmlns="http://www.w3.org/2000/svg" xmlns:xlink="http://www.w3.org/1999/xlink" x="0px" y="0px"
	 viewBox="0 0 288 226.77" style="enable-background:new 0 0 288 226.77;" xml:space="preserve">
<style type="text/css">
	.st0{fill:#FF3A5B;}
	.st1{fill:#50E3C2;}
	.st2{fill:#FF8438;}
	.st3{fill:#FFDD4C;}
	.st4{fill:#FFFFFF;}
	.st5{fill:#925F36;}
	.st6{fill:#422918;}
	.st7{fill:#007EFF;}
	.st8{fill:#9C9B9B;}
	.st9{fill:#C6C6C5;}
	.st10{fill:#D9D9D9;}
	.st11{fill:#6F6F6E;}
	.st12{fill:#ECECEC;}
	.st13{fill:#97E6FC;}
	.st14{fill:#B1B1B1;}
	.st15{fill:#1D1D1B;}
	.st16{fill:#FFFFFF;stroke:#1D1D1B;stroke-width:0.5;stroke-miterlimit:10;}
	.st17{fill:none;stroke:#FFFFFF;stroke-linecap:round;stroke-linejoin:round;stroke-miterlimit:10;}
	.st18{fill:#A0ECD2;}
	.st19{fill:#C4F5FB;}
	.st20{fill:none;stroke:#FFFFFF;stroke-width:0.876;stroke-linecap:round;stroke-linejoin:round;stroke-miterlimit:10;}
	.st21{fill:none;}
	.st22{fill:#575756;}
	.st23{fill:#FFFFFF;stroke:#1D1D1B;stroke-width:0.9148;stroke-miterlimit:10;}
	.st24{fill:#9B5416;}
	.st25{fill:#868686;}
</style>
<g>
	<g>
		<path class="st19" d="M163.51,37.64c-9.08-2.56-18.89-2.52-27.94,0.13c-0.85,0.25-1.72,0.53-2.37,1.12
			c-1.41,1.27-1.36,3.45-2.16,5.16c-1.71,3.66-6.61,4.31-10.7,4.44c-8.17,0.27-16.34,0.54-24.5,0.8c-5.19,0.17-10.53,0.37-15.3,2.42
			c-1.23,0.53-2.42,1.18-3.71,1.57c-2.26,0.67-4.67,0.49-7.02,0.41c-6.44-0.23-12.9,0.34-19.2,1.69c-1.84,0.39-4.17,2.12-2.98,3.56
			c0.34,0.42,0.89,0.6,1.42,0.76c3.1,0.97,6.21,1.95,9.31,2.92c-0.97,1.3-0.39,3.25,0.82,4.34s2.56,6.54,4.15,6.9
			c14.05,3.16,17.17,0.88,33.69,7.27c0.43,0.17,0.81,0.51,0.95,0.95c0.22,0.68-0.35,1.34-0.87,1.84c-2.91,2.75,1.98,4.93-1.15,7.43
			c2.09,0.06,2.61,3.3,1.11,4.73c-1.5,1.44-3.83,1.5-5.91,1.48c-3.62-0.04-7.24-0.08-10.86-0.12c0.34,3.32-2.82,6.15-6.12,6.89
			c-3.3,0.75-6.73,0.02-10.1-0.31c-3.37-0.34-7.08-0.19-9.69,1.94c-1.17,0.96-2.07,2.6-1.39,3.94c0.31,0.61,0.88,1.03,1.46,1.41
			c3.57,2.31,7.84,3.3,11.73,5.05c3.89,1.75,7.69,4.68,8.48,8.83c0.19,1.01,0.21,2.09,0.71,3c1.12,2.04,3.95,2.21,6.3,2.27
			c7.85,0.19,15.65,2.02,22.75,5.31c0.86,0.4,1.74,0.85,2.26,1.63c0.86,1.3,0.45,3.08,1.15,4.47c1.77,3.53,5.26-10.1,13.85-6.36
			c0.96,0.42,5.72,11.67-1.04,12.62c-3.08,0.43,5.81,1.89,8.91,1.43c9.85-1.48,19.76-2.52,29.7-3.1c22.08-1.3,42.83-5.13,62.61-14.9
			c2.73-1.35,4.56,0.32,3.3-2.42c-0.63-1.38,1.46-1.94,0.05-2.54c-8.5-3.65-17-7.29-25.51-10.94c1.92-3.59,6.41-4.82,10.39-5.87
			c6.93-1.82,13.73-4.13,20.34-6.9c2.33-0.98,4.72-2.08,6.29-4.05c2.81-3.52,2.21-8.86,5-12.39c2.05-2.59,5.83-4.1,6.43-7.34
			c0.63-3.4-2.83-6.24-6.21-7.15c-3.37-0.91-7.07-0.77-10.18-2.36c-3.97-2.02-6.12-6.39-9.69-9.04c-3.89-2.89-9.02-3.44-13.88-3.67
			c-10.98-0.53-21.98,0.07-32.98,0.25c-0.77,0.01-1.65-0.03-2.13-0.61c-0.75-0.91,0.11-2.31,1.18-2.83
			c1.07-0.52,2.34-0.61,3.29-1.32c2.35-1.75,1.63-6.3,4.43-7.19c0.67-0.21,1.42-0.14,2.06-0.41c1.87-0.78,1.31-3.86-0.49-4.78
			c-1.8-0.92-3.98-0.39-5.93,0.16"/>
		<path class="st7" d="M223.79,136.13c-0.82-2.3-3.76-2.56-5.93-3.67c-9.45-4.87-23.54-0.91-35.88-1.41
			c-5.63-0.23-11.26,0.45-16.89,0.67c-1.18,0.05-2.42-1.27-3.57-1.05c-1.31,0.25-2.5,2.1-3.77,2.49
			c-5.21,1.61-10.76,1.81-16.21,1.68c-7.47-0.18-14.92-0.96-22.25-2.35c-1.26-0.24-2.57-0.49-3.83-0.21
			c-1.25,0.28-2.32,1.07-3.41,1.75c-8.89,5.55-20.36,4.42-30.52,1.85c-2.03-0.51-4.05-1.08-6.13-1.29
			c-7.01-0.71-13.82,2.65-19.49,6.83c-1.1,0.81-2.23,1.74-2.65,3.04c-0.29,0.91-0.21,1.94-0.64,2.79c-0.78,1.57-2.81,1.9-4.41,2.61
			c-1.6,0.71-2.97,2.96-1.6,4.06l1.96,0.85c2.48-1.89,6.17-4.09,6.61-1c0.44,0.74,0.76,1.4,1.1,2.2c0.49-1.21,2.2-3.25,2.73-4.3
			c0.86-0.43,1.35,0.07,1.71,0.7c0.4,0.38,0.68,0.25,1.23-0.33c0.96-1.01,1.28-2.38,2.1-3.46c0.82-1.08,1.75-2.07,2.82-2.92
			c0.56-0.45,1.24-0.66,1.98-0.63c0.6,0.03,0.93,0.23,0.64,0.89c-0.06,0.14-0.15,0.29-0.22,0.45c1.52-0.37,2.97-1.01,4.55-1.44
			c1.44-0.61,3.02-0.77,4.75-0.54c0.53,0.07,0.89,0.33,1.04,0.84c0.18,0.59-0.32,0.73-0.66,0.99c-0.56,0.43-1.12,0.86-1.67,1.3
			c-0.54,0.87-1.07,1.72-1.56,2.55c5.33,0.76,11.04,2.73,12.24,7.07c4.33-0.67,8.67-1.33,13.01-1.91c0.07-0.71,0.19-1.43,0.35-2.14
			c0.05-2.61,1.1-5.21,3.54-7.31c1.28-1.53,2.85-2.77,4.67-3.53c0.02-0.04,2.19-1.21,2.21-1.25c-0.52,0.24-1.26,0.6-2.07,1.01
			c1.26-2.19,2.46-4.59,4.52-2.37c1.39-1.02,2.45-2.26,2.8-3.97c0.13,0.08,0.25,0.17,0.38,0.25c0.21-0.42,0.42-0.83,0.62-1.25
			c1.69,1.69,2.1,5.85,2.34,8.09c0.52,1.26,1.69,0.74,2.61,2.02c3.27,1.99,5.89,4.69,6.1,8.26c25.24-0.92,50.66-0.09,75.2-5.78
			c4.17-0.97,8.3-2.12,12.4-3.37c1.89-0.58,3.84-1.2,5.34-2.49C223.5,140.13,224.45,138,223.79,136.13z M105.69,144.22
			c0.54-0.35,1.11-0.68,1.71-0.99C106.76,143.58,106.17,143.92,105.69,144.22z"/>
		<circle class="st16" cx="147.66" cy="87.97" r="7.93"/>
		<path class="st7" d="M100.98,155.25c0.17-0.02,0.33-0.05,0.5-0.07c-0.12-0.68-0.16-1.38-0.15-2.07
			C101.17,153.82,101.05,154.54,100.98,155.25z"/>
		<path class="st7" d="M101.33,153.11c0.6-2.65,1.81-5.24,3.54-7.31C102.43,147.9,101.38,150.5,101.33,153.11z"/>
		<path class="st7" d="M122.96,144.8c0.72,0.99,1.66,1.97,3.04,2.89c0.78,0.78,2.14,3.35,2.26,5.4c0.26-0.01,0.53-0.02,0.79-0.03
			C128.85,149.49,126.22,146.78,122.96,144.8z"/>
		<path class="st7" d="M120.99,140.96c-0.24-2.25-1.29-4.58-2.99-6.27c-0.21,0.42-0.42,0.83-0.62,1.25
			C119.44,137.32,120.21,139.08,120.99,140.96z"/>
		<path class="st7" d="M109.61,142.16c1.63-0.76,3.26-1.53,4.59-2.5C112.1,137.39,110.9,139.94,109.61,142.16z"/>
		<path class="st7" d="M117.38,135.93c-0.12-0.08-0.24-0.17-0.38-0.25c-0.34,1.72-1.4,2.96-2.8,3.97c0.25,0.27,0.52,0.61,0.8,1.03
			C115.79,139.1,116.58,137.52,117.38,135.93z"/>
		<path class="st7" d="M120.85,143.66c0.72,0.35,1.43,0.73,2.11,1.14c-0.93-1.28-1.45-2.59-1.97-3.84
			C121.09,141.89,121.04,142.81,120.85,143.66z"/>
		<path class="st13" d="M226.13,144.01c-0.24-2.18-0.72-4.65-2.62-5.75c-1.38-0.8-3.14-0.6-4.6-1.24c-1.65-0.72-2.99-1.73-4.77-1.95
			c-1.07-0.13-2.01,0.5-3.08,0.66s-2.09-1.76-3.19-2.42c-5.08,6.77-13.43,11.19-21.8,9.91c-5.71-0.87-11.93-3.18-17.28-3.85
			c-1.76-0.22-4.93,1.78-7.6,2.64c-7.66,2.48-10.6,1.25-18.61,2.09c-2.71,0.28-10.02,3.08-13.45,2.17
			c-4.32-1.15-9.09-1.2-13.32,0.24c-1.42,0.48-2.79,1.24-4.29,1.21s-3.1-1.35-2.71-2.79c-1.32,0.77-3.24,0.26-3.99-1.08
			c-7.93,0.43-15.81,1.95-23.33,4.51c-2.32,0.79-4.6,1.68-6.8,2.74l-0.63-0.09c-0.51,1.21-1.05,2.47-1.14,3.67
			c0.11,0.54,0.32,1.06,0.66,1.54c0.34,0.47,0.65,0.68,0.98,0.61c0.33-0.43,0.71-0.79,1.13-1.09c0.2-0.29,0.39-0.59,0.57-0.89
			c0.2-0.33,0.41-0.63,0.72-0.87c0.58-0.43,1.01-0.32,1.07,0.38c0.01,0.14,0.03,0.27,0.05,0.4c0.3-0.05,0.61-0.08,0.91-0.08
			c0,0.34,0.03,0.7,0.08,1.07c0.17,0.01,0.35,0,0.57-0.05c0.28-0.06,0.37,0.13,0.43,0.45c0.23,1.09,0.29,2.2,0.43,3.3
			c0.16,0.14,0.32,0.23,0.49,0.23c3.67,2.93,7.86,6.41,9.85,10.02c8.12-2.42,16.12-5.37,24.5-6.49c25.51-3.41,50.47,10.44,76.2,9.9
			c1.19-0.03,2.39-0.1,3.57-0.28c3.65-3.83,6.44-8.37,3.87-14.15c-1-2-5.34-1.81-4.68-4.02c1-1,2.96,0.89,3.96-0.11
			c0,0-2.65-2.75-1.65-2.75c1.65-0.58,5.06,2.75,5.39,1.54c1.13-4.15,6.84,6.04,7.38,9.8c0.91-3.65,0.23-4.66-1.43-9.69
			c-0.12-0.35,0.76-0.42,1.03-0.77c0.1,0.38,0.24,0.76,0.4,1.13c3.4,0.61,4.74,3.49,5.26,6.49c1.71,1.61,2.34,5.49,4.89,4.76
			c1.73-4.63,4.92-8.92,6.51-13.78c0.19-0.59,0.35-1.2,0.49-1.81C226.5,147.65,226.33,145.81,226.13,144.01z"/>
		<path class="st13" d="M220.46,164.69c1.33-4.49,4.6-8.68,5.6-13.4c-1.59,4.86-4.78,9.15-6.51,13.78c0.04,0.05,0.09,0.09,0.13,0.14
			C219.94,165.05,220.2,164.87,220.46,164.69z"/>
		<path class="st7" d="M190,177.69c-2.21-3.68,3.66-2.54,6.13-6.9c-0.25-0.2,0.15-0.82-0.15-0.92c-1.17-0.37-3.21,0.17-4.4,0.44
			c-4.36,0.99-7.59-1.02-12-1.76c-12.44-2.09-21.8-6.78-32.29-10.23c-10.49-3.45-21.73-5.68-32.57-3.58
			c-10.71,2.07-20.66,8.28-31.57,8.06c-0.55-0.01-1.13-0.03-1.65,0.11c-0.08,0.43-0.28,0.88-0.55,1.27
			c-0.5,0.71-1.11,0.45-1.73,0.31c-0.38-0.09-0.75-0.2-1.13-0.25c-0.75-0.1-1.26,0.05-1.49,0.92c-0.36,1.35-1.35,1.54-2.34,0.56
			c-0.26-0.25-0.52-0.49-0.79-0.74c-0.53-0.37-1.08-0.76-1.64-0.9c-0.12-0.03-0.24-0.03-0.36-0.04c-0.04,0.02-0.08,0.03-0.12,0.05
			c-0.45,0.27-0.92,0.43-1.47,0.37c-0.72-0.07-1.31-0.3-1.51-1.07c-0.08-0.3-0.22-0.59-0.33-0.88c-0.07-0.17-0.13-0.31-0.2-0.44
			c-0.04-0.04-0.08-0.09-0.12-0.12c-0.31-0.23-0.64-0.36-0.98-0.46c-0.2,0.06-0.42,0.15-0.7,0.29c-0.28,0.14-0.55,0.17-0.84,0.16
			c-2.23-0.15-4.36,1.4-4.02,4.02c0.04,0.28,0,0.56,0,0.84c0,0-0.01,0-0.01,0c0,0.66,0.05,1.32-0.01,1.97
			c-0.08,0.92-0.67,1.27-1.55,0.93c-0.82-0.32-1.36-0.91-1.71-1.69c-0.23-0.27-0.42-0.57-0.55-0.87c-0.53-1.22-0.65-2.66-1.52-3.66
			c-0.38-0.43-0.98-0.65-1.56-0.66c-0.18,0.26-0.36,0.52-0.54,0.78c-0.12,0.17-0.17,0.43-0.48,0.37c-0.24-0.05-0.26-0.26-0.31-0.43
			c-0.01-0.04-0.03-0.09-0.04-0.13c-0.09,0.14-0.16,0.3-0.18,0.5c0.07-1.02-1.2-1.18-2.16-0.72c-0.09,0.16-0.16,0.33-0.22,0.5
			c-0.47,1.26-0.86,2.55-1.34,3.81c-0.17,0.44-0.32,1.11-0.91,1.08c-0.63-0.02-0.7-0.65-0.83-1.13c-0.41-0.24-0.76-0.6-0.95-1.03
			l-1.13,1.95c1.51,4.46,3.44,8.77,5.76,12.87c1.36,2.39,2.91,4.78,5.2,6.31c2.77,1.84,6.27,2.18,9.59,2.03
			c8.67-0.41,17.19-3.81,25.82-2.8c3.4,0.4,6.68,1.48,10.04,2.11c15.38,2.85,31.08-3.94,46.66-2.55
			c10.34,0.92,20.23,5.42,30.61,5.29c4.39-0.06,8.95-1.05,12.29-3.89c2.58-2.19,4.19-5.68,3.92-8.97
			C192.89,179.18,190.97,179.14,190,177.69z"/>
		<polyline class="st4" points="140.5,181.11 144.23,100.78 150.34,101.93 153.31,182.19 140.5,181.11 140.5,181.11 		"/>
		<path class="st4" d="M144.92,107.29c0.02,0.15-0.22,0.22-0.33,0.12c-0.11-0.1-0.13-0.27-0.14-0.42c-0.3-5.3-0.18-10.62,0.37-15.9
			c0.11-1.07,0.25-2.17,0.81-3.09c0.55-0.92,1.63-1.61,2.68-1.38c1.35,0.3,1.97,1.85,2.25,3.21c0.74,3.6,0.66,7.32,0.43,11
			c-0.05,0.86-0.12,1.74-0.39,2.55c-0.43,1.28-1.41,2.37-2.63,2.94c-0.92,0.43-2.04,0.57-2.92,0.08c-0.57-0.31-0.99-0.86-1.15-1.49"
			/>
		<path class="st4" d="M150.05,81.81c-0.68-1.2,0.26-2.61,0.89-3.84c1.11-2.18,1.24-4.83,0.36-7.1c-0.37-0.96-0.93-1.93-0.73-2.94
			c0.11-0.55,0.43-1.03,0.75-1.49c7.04-10.27,14.08-20.55,21.12-30.82c2.2-3.21,4.59-6.58,8.17-8.13c0.47-0.2,0.99-0.38,1.5-0.26
			c1.57,0.36,1.33,2.66,0.68,4.13c-3.31,7.46-7.42,14.54-11.53,21.59c-5.18,8.9-10.37,17.8-15.55,26.7c-0.6,1.04-1.26,2.12-2.31,2.7
			s-2.62,0.4-3.15-0.67"/>
		<path class="st4" d="M81.81,82.94c18.6-0.58,37.22-0.31,55.79,0.81c1.15,0.07,2.52,0.3,2.96,1.36c0.58,1.4-1.1,2.77-2.62,2.91
			c-1.51,0.14-3.11-0.32-4.53,0.23c-1.7,0.66-2.58,2.53-4.05,3.6c-1.85,1.36-4.35,1.29-6.65,1.15c-12.39-0.71-24.79-1.42-37.18-2.13
			c-1.79-0.1-3.64-0.22-5.25-1.01c-1.61-0.79-2.94-2.44-2.78-4.23c0.16-1.79,2.29-3.27,3.85-2.38"/>
		<path class="st4" d="M152.88,92.62c-0.83-0.27-1.66,0.64-1.66,1.51c0,0.87,0.53,1.64,1.05,2.35
			c10.39,14.31,20.77,28.61,31.16,42.92c1.18,1.63,2.41,3.3,4.13,4.35c0.5,0.3,1.08,0.55,1.64,0.42c1.45-0.34,1.29-2.45,0.76-3.83
			c-5.85-15.2-15.32-28.69-24.89-41.86c-0.39-0.54-0.83-1.11-1.47-1.28c-0.64-0.18-1.31,0.1-1.97,0.18
			c-3.66,0.49-5.77-4.35-9.28-5.5c-0.1,0.6-0.21,1.2-0.31,1.81"/>
		<g>
			<path class="st17" d="M131.69,78.51c1.43-4.8,5.54-8.7,10.4-9.89"/>
			<path class="st17" d="M126.98,77.57c3.1-7.92,11.04-13.7,19.52-14.23"/>
			<path class="st17" d="M121.26,76.86c1.76-5.81,5.85-10.81,10.99-14.05c5.13-3.25,11.25-4.8,17.32-4.83"/>
			<path class="st17" d="M114.14,73.66c2.75-7.69,8.28-14.35,15.32-18.48c7.04-4.13,15.56-5.7,23.61-4.35"/>
			<path class="st17" d="M105.72,72.04c3.84-9.49,11.02-17.58,19.99-22.51c8.97-4.93,19.65-6.67,29.71-4.83"/>
		</g>
		<g>
			<path class="st17" d="M167.45,91.5c-0.1,0.24-0.21,0.49-0.31,0.73c0.9-2.79,1.8-5.65,1.68-8.58c-0.12-2.93-1.47-5.98-4.06-7.35
				c0.2-0.19,0.41-0.39,0.61-0.58"/>
			<path class="st17" d="M171.68,94.11c2.72-6.62,1.7-14.63-2.59-20.35"/>
			<path class="st17" d="M177.25,98.47c3.56-9.76,1.92-21.26-4.24-29.62c-0.58-0.79-1.22-1.82-0.73-2.67"/>
			<path class="st17" d="M183.62,104.54c5.81-15.24,1.98-33.7-9.41-45.37"/>
			<path class="st17" d="M192.14,108.42c2.25-7.96,3.76-16.22,3.21-24.48s-3.31-16.52-8.77-22.73c-2.56-2.9-5.63-5.3-8.36-8.05"/>
		</g>
		<g>
			<path class="st20" d="M137.25,107.13c-4.35,0.05-8.63-2.38-10.85-6.16"/>
			<path class="st20" d="M137.66,111.34c-7.37-0.53-14.18-5.7-16.75-12.71"/>
			<path class="st20" d="M138.51,116.35c-5.28,0.04-10.46-2.09-14.46-5.56c-3.99-3.47-6.83-8.22-8.38-13.33"/>
			<path class="st20" d="M137.64,123.19c-7.09-0.3-14.02-3.2-19.24-8.05c-5.21-4.85-8.66-11.61-9.57-18.75"/>
			<path class="st20" d="M138.41,130.72c-8.86-0.74-17.4-4.67-23.76-10.93s-10.5-14.81-11.5-23.78"/>
		</g>
		<g>
			<path class="st21" d="M203.15,171.29c-0.02-0.45-0.08-0.77-0.16-0.99C202.94,170.64,203,170.98,203.15,171.29z"/>
			<path class="st21" d="M235.96,179.48c-0.6,0.78-1.29,1.61-1.94,2.37C234.87,181.72,235.44,180.67,235.96,179.48z"/>
			<path class="st21" d="M202.85,170.03c-0.28-0.34-0.66-0.08-0.82,0.07C202.29,170.15,202.57,170.14,202.85,170.03z"/>
			<path class="st21" d="M244.52,176.25c0,0,0.01-0.01,0.03-0.03C244.54,176.23,244.54,176.24,244.52,176.25z"/>
			<path class="st21" d="M232.23,165.02c-0.53-0.79-1.19-0.76-1.84-0.37c0.66,0.11,1.39,0.44,2.17,0.87
				C232.47,165.37,232.36,165.22,232.23,165.02z"/>
			<path class="st21" d="M232.56,165.51c-0.17-0.25-0.33-0.49-0.33-0.49C232.36,165.22,232.47,165.37,232.56,165.51L232.56,165.51z"
				/>
			<path class="st21" d="M232.81,165.65c-0.08-0.75-0.58-0.63-0.58-0.63s0.16,0.24,0.33,0.49
				C232.64,165.56,232.73,165.6,232.81,165.65z"/>
			<path class="st21" d="M191.99,176.88c0.72-0.22,1.39-0.63,2.03-1.17C193.3,176.14,192.6,176.54,191.99,176.88z"/>
			<path class="st21" d="M246.22,174.47c0.19-0.2,0.33-0.34,0.36-0.37C246.54,174.13,246.43,174.25,246.22,174.47z"/>
			<path class="st21" d="M244.56,176.21c0.02-0.02,0.03-0.03,0.05-0.05C244.58,176.19,244.57,176.2,244.56,176.21z"/>
			<path class="st21" d="M245.35,175.38c0.08-0.08,0.16-0.16,0.24-0.25C245.52,175.21,245.43,175.29,245.35,175.38z"/>
			<path class="st21" d="M244.6,176.16c0.1-0.1,0.28-0.3,0.51-0.53C244.95,175.8,244.79,175.97,244.6,176.16z"/>
			<path class="st21" d="M245.59,175.13c0.27-0.28,0.48-0.5,0.63-0.66C246.04,174.66,245.81,174.9,245.59,175.13z"/>
			<path class="st21" d="M245.11,175.63c0.08-0.09,0.17-0.17,0.24-0.25C245.27,175.47,245.19,175.55,245.11,175.63z"/>
			<path class="st21" d="M246.57,174.1C246.58,174.09,246.58,174.09,246.57,174.1L246.57,174.1z"/>
			<path class="st13" d="M227.82,171.14c0.22-0.25,0.44-0.5,0.6-0.69C228.29,170.61,228.08,170.84,227.82,171.14z"/>
			<path class="st13" d="M228.42,170.46c0.11-0.13,0.18-0.2,0.21-0.24C228.59,170.26,228.52,170.34,228.42,170.46z"/>
			<path class="st13" d="M232.62,165.59c0.08,0.13,0.15,0.23,0.2,0.3c0-0.09,0-0.17-0.01-0.25c-0.08-0.05-0.17-0.09-0.25-0.14
				C232.58,165.54,232.6,165.57,232.62,165.59z"/>
			<path class="st13" d="M234.58,177.5c-0.01,0.02-0.01,0.04-0.02,0.05C234.56,177.53,234.57,177.52,234.58,177.5z"/>
			<path class="st13" d="M234.54,177.59C234.52,177.62,234.52,177.62,234.54,177.59L234.54,177.59z"/>
			<path class="st13" d="M234.91,176.65c-0.05,0.12-0.09,0.23-0.14,0.34C234.82,176.89,234.86,176.78,234.91,176.65z"/>
			<path class="st13" d="M228.63,170.21C228.67,170.17,228.67,170.17,228.63,170.21L228.63,170.21z"/>
			<path class="st13" d="M234.78,176.99c-0.02,0.04-0.03,0.08-0.05,0.12C234.74,177.08,234.76,177.04,234.78,176.99z"/>
			<path class="st13" d="M234.73,177.12c-0.05,0.12-0.09,0.23-0.13,0.32C234.63,177.36,234.67,177.25,234.73,177.12z"/>
			<path class="st13" d="M234.56,177.55c-0.01,0.02-0.01,0.03-0.02,0.04C234.54,177.58,234.55,177.56,234.56,177.55z"/>
			<path class="st13" d="M234.6,177.43c-0.01,0.02-0.02,0.04-0.02,0.06C234.58,177.48,234.59,177.46,234.6,177.43z"/>
			<path class="st13" d="M209.89,169.83c0.07,0.04,0.12,0.08,0.18,0.12C209.99,169.9,209.93,169.86,209.89,169.83z"/>
			<path class="st13" d="M235.08,176.22c-0.06,0.16-0.12,0.31-0.17,0.43C234.97,176.51,235.03,176.37,235.08,176.22z"/>
			<path class="st13" d="M209.84,169.8c0,0,0.02,0.01,0.05,0.03C209.87,169.82,209.86,169.81,209.84,169.8z"/>
			<path class="st13" d="M209.5,177.28C209.4,177.4,209.33,177.48,209.5,177.28L209.5,177.28z"/>
			<path class="st13" d="M227.82,171.14c-0.35,0.4-0.71,0.81-0.84,0.96v0C227.32,171.71,227.59,171.4,227.82,171.14z"/>
			<path class="st13" d="M210.64,170.33c0.04,0.03,0.07,0.05,0.09,0.06C210.71,170.38,210.68,170.36,210.64,170.33z"/>
			<path class="st13" d="M210.15,170c0.06,0.04,0.11,0.07,0.16,0.1C210.25,170.07,210.2,170.04,210.15,170z"/>
			<path class="st13" d="M210.31,170.11c0.13,0.08,0.25,0.16,0.34,0.22C210.57,170.28,210.46,170.21,210.31,170.11z"/>
			<path class="st13" d="M210.07,169.95c0.03,0.02,0.05,0.03,0.08,0.05C210.13,169.99,210.1,169.97,210.07,169.95z"/>
			<path class="st13" d="M209.56,177.22c-0.02,0.02-0.04,0.05-0.06,0.06C209.52,177.26,209.54,177.24,209.56,177.22z"/>
			<path class="st13" d="M210.65,181.32c0.1,0.02,0.18,0.03,0.23,0.04C210.83,181.36,210.75,181.34,210.65,181.32z"/>
			<path class="st13" d="M210.6,181.31c0.02,0,0.03,0.01,0.05,0.01C210.63,181.32,210.62,181.32,210.6,181.31z"/>
			<path class="st13" d="M210.88,181.37C210.96,181.38,210.98,181.38,210.88,181.37L210.88,181.37z"/>
			<path class="st13" d="M209.74,177.02c0,0-0.09,0.1-0.18,0.2C209.61,177.16,209.66,177.11,209.74,177.02z"/>
			<path class="st13" d="M210.6,181.31c-0.15-0.03-0.32-0.06-0.47-0.09c0,0,0,0,0,0C210.33,181.26,210.48,181.29,210.6,181.31z"/>
			<path class="st13" d="M232.31,183.91c0.21-0.16,0.35-0.27,0.46-0.36C232.64,183.66,232.47,183.79,232.31,183.91z"/>
			<path class="st13" d="M210.73,170.39C210.78,170.42,210.78,170.42,210.73,170.39L210.73,170.39z"/>
			<path class="st13" d="M232.21,183.99c0.03-0.03,0.07-0.05,0.1-0.08C232.28,183.94,232.24,183.97,232.21,183.99z"/>
			<path class="st13" d="M231.96,184.19c0.09-0.07,0.17-0.13,0.25-0.2C232.1,184.08,232.01,184.15,231.96,184.19z"/>
			<path class="st13" d="M232.48,167.58c-0.02,0.07-0.04,0.14-0.06,0.21C232.44,167.73,232.46,167.66,232.48,167.58z"/>
			<path class="st13" d="M231.9,184.23c0,0,0.02-0.02,0.06-0.04C231.94,184.2,231.92,184.21,231.9,184.23z"/>
			<path class="st13" d="M232.87,183.48C233.07,183.33,233.03,183.36,232.87,183.48L232.87,183.48z"/>
			<path class="st13" d="M232.78,183.56c0.03-0.03,0.07-0.05,0.09-0.07C232.84,183.5,232.81,183.53,232.78,183.56z"/>
			<path class="st13" d="M239.3,178.94c-0.01,0.04-0.01,0.08-0.02,0.1C239.28,179.02,239.29,178.99,239.3,178.94z"/>
			<path class="st13" d="M239.48,177.99c0,0-0.02,0.12-0.05,0.28C239.44,178.18,239.46,178.09,239.48,177.99z"/>
			<path class="st13" d="M239.28,179.04C239.28,179.08,239.28,179.07,239.28,179.04L239.28,179.04z"/>
			<path class="st13" d="M203.09,169.92c-0.08,0.05-0.16,0.09-0.25,0.12c0.05,0.07,0.1,0.15,0.14,0.27
				C203.01,170.17,203.03,170.04,203.09,169.92z"/>
			<path class="st13" d="M239.43,178.27c-0.02,0.12-0.04,0.23-0.06,0.32C239.39,178.48,239.41,178.37,239.43,178.27z"/>
			<path class="st13" d="M239.34,178.74c-0.02,0.09-0.03,0.15-0.04,0.2C239.31,178.89,239.32,178.82,239.34,178.74z"/>
			<path class="st13" d="M232.42,167.8C232.14,168.78,232.28,168.28,232.42,167.8L232.42,167.8z"/>
			<path class="st13" d="M235.53,175.1c-0.03,0.07-0.05,0.13-0.08,0.2C235.48,175.22,235.51,175.16,235.53,175.1z"/>
			<path class="st13" d="M235.6,174.93c-0.01,0.02-0.02,0.04-0.03,0.07C235.59,174.95,235.6,174.93,235.6,174.93z"/>
			<path class="st13" d="M232.53,167.41C232.53,167.41,232.53,167.41,232.53,167.41c0-0.01,0.01-0.02,0.01-0.03
				C232.54,167.39,232.53,167.4,232.53,167.41z"/>
			<path class="st13" d="M235.57,174.99c-0.01,0.03-0.03,0.06-0.04,0.11C235.55,175.06,235.56,175.03,235.57,174.99z"/>
			<path class="st13" d="M232.57,167.26c0,0-0.06,0.06-0.04,0.15c0-0.01,0.01-0.02,0.01-0.03
				C232.56,167.31,232.57,167.26,232.57,167.26z"/>
			<path class="st13" d="M232.48,167.58c0.02-0.06,0.03-0.12,0.05-0.17c0,0,0,0,0,0C232.51,167.47,232.5,167.53,232.48,167.58z"/>
			<path class="st13" d="M235.45,175.3c0,0,0,0.01,0,0.01C235.45,175.3,235.45,175.3,235.45,175.3z"/>
			<path class="st13" d="M235.3,175.69c-0.07,0.17-0.14,0.35-0.21,0.53C235.15,176.06,235.22,175.88,235.3,175.69z"/>
			<path class="st13" d="M235.45,175.31c-0.05,0.14-0.1,0.26-0.15,0.38C235.35,175.55,235.4,175.42,235.45,175.31z"/>
			<path class="st13" d="M232.62,165.59c0.07,0.11,0.14,0.22,0.2,0.3v0C232.77,165.82,232.7,165.72,232.62,165.59z"/>
			<path class="st13" d="M232.56,165.51c0.02,0.03,0.04,0.05,0.05,0.08C232.6,165.57,232.58,165.54,232.56,165.51L232.56,165.51z"/>
			<path class="st13" d="M232.82,165.9L232.82,165.9c0.03,0.04,0.05,0.07,0.07,0.1C232.87,165.97,232.85,165.94,232.82,165.9z"/>
			<path class="st13" d="M232.89,166c0.01,0.02,0.03,0.04,0.03,0.05C232.91,166.04,232.9,166.02,232.89,166z"/>
			<path class="st13" d="M232.92,166.05C232.95,166.1,232.96,166.1,232.92,166.05L232.92,166.05z"/>
			<path class="st13" d="M232.57,167.26c0,0-0.01,0.05-0.03,0.12C232.55,167.34,232.56,167.31,232.57,167.26z"/>
			<path class="st13" d="M239.37,178.59c-0.01,0.05-0.02,0.1-0.03,0.15C239.35,178.7,239.36,178.65,239.37,178.59z"/>
			<path class="st13" d="M226.91,172.17c0,0,0.02-0.02,0.05-0.06C226.94,172.14,226.93,172.15,226.91,172.17z"/>
			<path class="st13" d="M226.91,172.17c0,0,0.02-0.02,0.06-0.07c0,0-0.01,0.01-0.01,0.01
				C226.93,172.15,226.91,172.17,226.91,172.17z"/>
			<path class="st13" d="M222.56,174.07C222.72,174.24,222.77,174.3,222.56,174.07L222.56,174.07z"/>
			<path class="st13" d="M222.49,173.99c0.03,0.03,0.05,0.05,0.07,0.08C222.54,174.05,222.51,174.02,222.49,173.99z"/>
			<path class="st13" d="M226.97,172.1L226.97,172.1c0,0-0.01,0.01-0.01,0.01C226.96,172.11,226.97,172.11,226.97,172.1z"/>
			<path class="st13" d="M203.16,171.76c0,0,0,0.02,0,0.04C203.16,171.79,203.16,171.77,203.16,171.76z"/>
			<path class="st13" d="M217.14,174.49c0-0.02-0.01-0.04-0.01-0.06C217.13,174.45,217.14,174.47,217.14,174.49z"/>
			<path class="st13" d="M217.13,174.44C217.13,174.41,217.13,174.42,217.13,174.44L217.13,174.44z"/>
			<path class="st13" d="M222.33,173.82c0.06,0.06,0.11,0.12,0.16,0.17C222.44,173.94,222.39,173.89,222.33,173.82z"/>
			<path class="st13" d="M203.16,171.8c0,0.05,0,0.09,0,0.14C203.16,171.88,203.16,171.83,203.16,171.8z"/>
			<path class="st13" d="M221.63,173.05c0,0,0.03,0.03,0.08,0.09C221.68,173.11,221.66,173.09,221.63,173.05z"/>
			<path class="st13" d="M221.99,173.45c0.13,0.15,0.25,0.27,0.34,0.37C222.22,173.7,222.1,173.57,221.99,173.45z"/>
			<path class="st13" d="M221.7,173.14c0.01,0.02,0.03,0.03,0.04,0.04C221.73,173.17,221.72,173.15,221.7,173.14z"/>
			<path class="st13" d="M221.74,173.18c0.07,0.07,0.15,0.16,0.25,0.27C221.92,173.37,221.83,173.28,221.74,173.18z"/>
			<path class="st13" d="M190.19,177.89c0.02,0,0.03,0,0.05-0.01C190.21,177.88,190.19,177.89,190.19,177.89z"/>
			<path class="st13" d="M190.62,177.84c0.2-0.02,0.31-0.04,0.35-0.04C190.92,177.8,190.78,177.82,190.62,177.84z"/>
			<path class="st13" d="M190.97,177.8C191,177.79,191,177.79,190.97,177.8L190.97,177.8z"/>
			<path class="st13" d="M190.24,177.88c0.07-0.01,0.23-0.03,0.38-0.04C190.52,177.85,190.39,177.86,190.24,177.88z"/>
			<path class="st13" d="M239.48,177.99c-0.02,0.11-0.04,0.19-0.05,0.28c-0.02,0.1-0.04,0.21-0.06,0.32
				c-0.01,0.05-0.02,0.1-0.03,0.15c-0.01,0.08-0.03,0.15-0.04,0.2c-0.01,0.05-0.01,0.08-0.02,0.1c-0.01,0.03-0.01,0.03,0,0
				c0-0.02,0.01-0.05,0.02-0.1c0.01-0.05,0.02-0.12,0.04-0.2c0.01-0.05,0.02-0.1,0.03-0.15c0.02-0.09,0.04-0.2,0.06-0.32
				C239.46,178.11,239.48,177.99,239.48,177.99c0.46-2.44-1.23-2.51-2.11-0.62c-0.24,0.52-0.78,1.29-1.41,2.11
				c-0.52,1.19-1.08,2.24-1.94,2.37c-1.14,1.33-2.11,2.39-2.11,2.39c0.02-0.02,0.04-0.03,0.06-0.04c0.05-0.04,0.14-0.11,0.25-0.2
				c0.03-0.02,0.07-0.06,0.1-0.08c0.16-0.12,0.33-0.25,0.46-0.36c0.04-0.03,0.07-0.05,0.09-0.07c0.16-0.12,0.2-0.16,0,0
				c-0.03,0.02-0.06,0.05-0.09,0.07c-0.11,0.08-0.25,0.2-0.46,0.36c-0.04,0.03-0.07,0.05-0.1,0.08c-0.08,0.06-0.16,0.12-0.25,0.2
				c-0.03,0.03-0.06,0.04-0.06,0.04c-2.49,1.93-1.66-0.74-1.66-0.74l5.36-8.57c2.42-6.05,0.56-6.83-1.47-7
				c-1.3-0.11-1.57-0.35-1.6-0.51c-0.01,0.05-0.03,0.11-0.05,0.17c-0.02,0.08-0.04,0.15-0.06,0.21c-0.14,0.49-0.28,0.98,0,0
				c0.02-0.07,0.04-0.14,0.06-0.21c0.01-0.05,0.03-0.11,0.05-0.17c-0.02-0.09,0.04-0.15,0.04-0.15c0.17-0.6,0.24-1.04,0.24-1.36
				c-0.06-0.09-0.13-0.19-0.2-0.3c-0.02-0.03-0.04-0.05-0.05-0.08c-0.77-0.42-1.51-0.76-2.17-0.87c-1.33,0.8-2.6,3.12-2.6,3.12
				c0,3.06-0.62,4.08-0.82,4.33c0.14-0.15,0.49-0.56,0.84-0.96c0.27-0.3,0.47-0.53,0.6-0.69c0.1-0.11,0.17-0.2,0.21-0.24
				c0.04-0.04,0.04-0.04,0,0c-0.03,0.04-0.1,0.11-0.21,0.24c-0.16,0.18-0.38,0.43-0.6,0.69c-0.23,0.26-0.5,0.57-0.84,0.96
				c-0.04,0.05-0.06,0.07-0.06,0.07c-3.96,4.51-5.28,0.88-5.28,0.88c-2.42-2.64-4.4,2.01-4.4,2.01c0.23,1.46-0.34,4.7-2.43,3.71
				s-2.76,0.17-2.76,0.17c-0.95,1.78-1.57,2.22-1.91,2.29c0.15,0.03,0.32,0.06,0.47,0.09c0.02,0,0.03,0.01,0.05,0.01
				c0.1,0.02,0.18,0.03,0.23,0.04c0.09,0.02,0.08,0.01,0,0c-0.05-0.01-0.13-0.02-0.23-0.04c-0.02,0-0.03-0.01-0.05-0.01
				c-0.12-0.02-0.27-0.05-0.47-0.09c-0.22,0.04-0.32-0.06-0.32-0.06c-2.57-0.47-0.07-4.15-0.07-4.15c-0.08,0.09-0.13,0.15-0.18,0.2
				c-0.02,0.02-0.04,0.04-0.06,0.06c-0.17,0.19-0.11,0.12,0,0c0.02-0.02,0.04-0.04,0.06-0.06c0.09-0.1,0.18-0.2,0.18-0.2
				c0.77-0.88,1.93-2.1,1.93-2.1c2.04-4.85,0.71-5.61,0.05-5.61c-0.66,0-1.88,0.49-1.88,0.49c0.02,0.01,0.03,0.02,0.05,0.03
				c0.04,0.03,0.1,0.07,0.18,0.12c0.02,0.02,0.05,0.04,0.08,0.05c0.05,0.03,0.1,0.07,0.16,0.1c0.15,0.1,0.27,0.18,0.34,0.22
				c0.04,0.03,0.07,0.04,0.09,0.06c0.05,0.03,0.04,0.03,0,0c-0.02-0.01-0.05-0.03-0.09-0.06c-0.09-0.06-0.21-0.14-0.34-0.22
				c-0.05-0.03-0.1-0.06-0.16-0.1c-0.03-0.02-0.05-0.03-0.08-0.05c-0.06-0.04-0.12-0.08-0.18-0.12c-0.03-0.02-0.05-0.03-0.05-0.03
				c-2.1-1.38-3.08,1.6-3.08,1.6s0.01-0.02,0.03-0.05c0.04-0.06,0.07-0.11,0.11-0.17c0.04-0.06,0.08-0.12,0.13-0.2
				c0.2-0.31,0.34-0.53,0.45-0.7c0.07-0.11,0.13-0.21,0.18-0.28c0.1-0.16,0.09-0.13,0,0c-0.04,0.06-0.1,0.15-0.18,0.28
				c-0.14,0.22-0.31,0.48-0.45,0.7c-0.04,0.06-0.08,0.13-0.13,0.2c-0.05,0.07-0.09,0.13-0.11,0.17c-0.01,0.02-0.02,0.03-0.03,0.05
				c-2.2,3.41-3.61,0.35-3.61,0.35c0,0.02,0,0.03,0,0.04c0,0.03,0,0.08,0,0.14c0,0.07,0,0.14,0,0.2c0,0.02,0,0.05,0,0.07
				c0,0.19,0,0.34,0,0.46c0,0.03,0,0.06,0,0.1c0,0.1,0,0.17,0,0.22c0,0.01,0,0.01,0,0.02c0,0.09,0,0.08,0,0c0,0,0-0.02,0-0.02
				c0-0.05,0-0.13,0-0.22c0-0.03,0-0.06,0-0.1c0-0.14,0-0.31,0-0.46c0-0.02,0-0.05,0-0.07c0-0.07,0-0.14,0-0.2c0-0.05,0-0.09,0-0.14
				c0-0.03,0-0.04,0-0.04c0-0.17,0-0.32-0.01-0.46c-0.15-0.31-0.21-0.65-0.16-0.99c-0.04-0.12-0.09-0.2-0.14-0.27
				c-0.28,0.11-0.55,0.11-0.82,0.07c-0.05,0.04-0.08,0.08-0.08,0.08s-2.78,1.88-4.04,3.03c-0.58,0.52-2.25,1.55-3.89,2.51
				c-0.64,0.53-1.31,0.94-2.03,1.17c-1.04,0.59-1.8,1-1.8,1s0.02,0,0.05-0.01c0.16-0.02,0.28-0.03,0.38-0.04
				c0.15-0.02,0.3-0.03,0.35-0.04c0.03,0,0.03,0,0,0c-0.04,0-0.15,0.02-0.35,0.04c-0.15,0.02-0.31,0.04-0.38,0.04
				c-0.02,0-0.03,0-0.05,0.01c-0.65,0.07-1.16-0.36-1.56-0.94c-4.59,1.8-9.31,3.26-14.02,4.25c-7.95,1.67-16.22,1.4-24.27,0.34
				c-4.8-0.63-9.62-2.23-14.38-1.32c-5.94,1.13-10.8,6.02-16.83,6.44c-7.39,0.51-13.47-5.75-20.69-7.43
				c-15.86-3.69-30.4,15.26-46.31,11.78l-2.66-3.19c0.22,4.35,5.5,6.26,9.78,7.09c17,3.27,34.21,6.56,51.49,5.57
				c7.05-0.41,14.06-1.52,21.13-1.54c19.65-0.05,39.69,8.32,58.45,2.48c3.45-1.07,6.75-2.61,10.29-3.36
				c5.05-1.07,10.28-0.47,15.43-0.71c5.15-0.23,11.67,0.96,15.04-2.94c1.58-1.83,4.7-4.53,5.94-6.61c1.92-3.21,4.45-8.93,7.49-11.12
				c-0.04-0.1-0.1-0.19-0.16-0.28C239.9,181,239.48,177.99,239.48,177.99z"/>
			<path class="st13" d="M203.16,171.94c0,0.06,0,0.12,0,0.2C203.16,172.07,203.16,172.01,203.16,171.94z"/>
			<path class="st13" d="M217.18,174.76c-0.02-0.13-0.03-0.21-0.04-0.27C217.15,174.56,217.16,174.66,217.18,174.76z"/>
			<path class="st13" d="M203.15,172.21c0,0.15,0,0.31,0,0.46C203.15,172.55,203.15,172.4,203.15,172.21z"/>
			<path class="st13" d="M203.15,172.14c0,0.02,0,0.05,0,0.07C203.15,172.18,203.15,172.16,203.15,172.14z"/>
			<path class="st13" d="M203.15,172.67c0,0.04,0,0.07,0,0.1C203.15,172.73,203.15,172.7,203.15,172.67z"/>
			<path class="st13" d="M203.15,172.76c0,0.09,0,0.16,0,0.22C203.15,172.93,203.15,172.86,203.15,172.76z"/>
			<path class="st13" d="M203.15,173C203.15,173.08,203.15,173.09,203.15,173L203.15,173z"/>
			<path class="st13" d="M194.02,175.72c1.64-0.96,3.31-1.99,3.89-2.51c1.26-1.14,4.04-3.03,4.04-3.03s0.03-0.03,0.08-0.08"/>
			<path class="st13" d="M203.15,172.98c0,0.01,0,0.02,0,0.02C203.15,172.99,203.15,172.99,203.15,172.98z"/>
			<path class="st13" d="M206.91,171.18c0.04-0.07,0.09-0.14,0.13-0.2C206.99,171.05,206.95,171.12,206.91,171.18z"/>
			<path class="st13" d="M211.47,175.39c-0.09,0.21-0.2,0.47-0.3,0.71C211.26,175.9,211.35,175.67,211.47,175.39z"/>
			<path class="st13" d="M211.52,175.29c-0.01,0.03-0.03,0.07-0.04,0.1C211.49,175.35,211.5,175.32,211.52,175.29z"/>
			<path class="st13" d="M211.61,175.07c-0.02,0.04-0.03,0.07-0.04,0.11C211.58,175.13,211.59,175.1,211.61,175.07z"/>
			<path class="st13" d="M211.56,175.17c-0.02,0.04-0.03,0.07-0.05,0.11C211.53,175.25,211.55,175.21,211.56,175.17z"/>
			<path class="st13" d="M211.17,176.1c-0.03,0.07-0.06,0.13-0.08,0.19C211.12,176.23,211.14,176.17,211.17,176.1z"/>
			<path class="st13" d="M211.04,176.41c-0.07,0.16-0.12,0.28-0.16,0.38C210.93,176.68,210.98,176.56,211.04,176.41z"/>
			<path class="st13" d="M211.09,176.29c-0.02,0.04-0.03,0.08-0.05,0.12C211.06,176.37,211.07,176.34,211.09,176.29z"/>
			<path class="st13" d="M206.76,171.4c0.01-0.02,0.02-0.03,0.03-0.05C206.78,171.38,206.76,171.4,206.76,171.4z"/>
			<path class="st13" d="M210.88,176.79c-0.03,0.06-0.05,0.12-0.07,0.16C210.83,176.91,210.85,176.86,210.88,176.79z"/>
			<path class="st13" d="M207.04,170.98c0.14-0.22,0.31-0.49,0.45-0.7C207.38,170.45,207.23,170.67,207.04,170.98z"/>
			<path class="st13" d="M206.8,171.35c0.02-0.04,0.06-0.1,0.11-0.17C206.87,171.24,206.84,171.29,206.8,171.35z"/>
			<path class="st13" d="M211.64,174.98c-0.01,0.02-0.02,0.05-0.04,0.08C211.62,175.04,211.63,175.01,211.64,174.98z"/>
			<path class="st13" d="M207.49,170.28c0.08-0.12,0.14-0.22,0.18-0.28C207.62,170.07,207.56,170.17,207.49,170.28z"/>
			<path class="st13" d="M211.67,174.92c-0.01,0.02-0.02,0.04-0.03,0.07C211.66,174.94,211.67,174.92,211.67,174.92z"/>
			<path class="st13" d="M207.67,170C207.75,169.87,207.77,169.84,207.67,170L207.67,170z"/>
			<path class="st13" d="M217.18,174.79c0-0.01,0-0.02,0-0.03C217.18,174.77,217.18,174.78,217.18,174.79z"/>
			<path class="st13" d="M212.49,178.09c0.05-0.09,0.1-0.18,0.14-0.26C212.59,177.9,212.55,177.98,212.49,178.09z"/>
			<path class="st13" d="M210.81,176.95c0,0.01-0.01,0.01-0.01,0.02C210.81,176.96,210.81,176.96,210.81,176.95z"/>
			<path class="st13" d="M212.63,177.84C212.78,177.56,212.74,177.63,212.63,177.84L212.63,177.84z"/>
			<path class="st13" d="M217.23,175.07c0-0.02,0-0.03-0.01-0.05C217.22,175.05,217.23,175.07,217.23,175.07z"/>
			<path class="st13" d="M217.2,174.92c-0.01-0.05-0.01-0.09-0.02-0.13C217.19,174.84,217.2,174.88,217.2,174.92z"/>
			<path class="st13" d="M217.22,175.02c0-0.03-0.01-0.06-0.02-0.1C217.21,174.96,217.21,174.99,217.22,175.02z"/>
			<path class="st13" d="M212.24,178.57c0.04-0.08,0.08-0.16,0.13-0.24C212.33,178.4,212.29,178.48,212.24,178.57z"/>
			<path class="st13" d="M212.37,178.33c0.05-0.09,0.09-0.17,0.13-0.24C212.45,178.17,212.41,178.25,212.37,178.33z"/>
			<path class="st13" d="M209.81,181.17c0,0,0.02,0,0.04,0.01C209.83,181.17,209.82,181.17,209.81,181.17z"/>
			<path class="st13" d="M210.77,177.05C210.76,177.08,210.76,177.08,210.77,177.05L210.77,177.05z"/>
			<path class="st13" d="M210.81,176.97c-0.01,0.03-0.03,0.06-0.03,0.08C210.78,177.03,210.79,177.01,210.81,176.97z"/>
			<path class="st13" d="M212.04,178.94c0,0,0.03-0.05,0.07-0.12C212.08,178.86,212.07,178.9,212.04,178.94z"/>
			<path class="st13" d="M212.11,178.82c0.05-0.09,0.09-0.18,0.13-0.25C212.19,178.67,212.14,178.75,212.11,178.82z"/>
			<path class="st13" d="M210.13,181.23C210.13,181.23,210.13,181.23,210.13,181.23c-0.12-0.02-0.23-0.04-0.28-0.05
				C209.95,181.2,210.04,181.21,210.13,181.23z"/>
			<path class="st13" d="M209.81,181.17c0,0,0.1,0.1,0.32,0.06c-0.09-0.02-0.18-0.03-0.28-0.05
				C209.83,181.17,209.81,181.17,209.81,181.17z"/>
		</g>
	</g>
	<g id="IQrcUp_1_">
		<g>
			<path d="M232.34,137.29c-0.25,0.3-0.11,0.51,0,0.68c1.63,2.58,1.8,5.5,2.03,8.4c0.1,1.28,0.1,2.56,0.16,3.84
				c0.01,0.25,0.04,0.5,0.09,0.74c0.07,0.29,0.09,0.69,0.51,0.69c0.35,0,0.44-0.34,0.51-0.61c0.3-1.06,0.45-2.15,0.55-3.24
				c0.06-0.58-0.05-1.39,0.74-1.39c0.63,0,0.86,0.73,0.94,1.35c0.02,0.21-0.04,0.44,0.18,0.62c0.33-0.04,0.31-0.34,0.41-0.55
				c0.17-0.34,0.26-0.78,0.76-0.72c0.48,0.06,0.51,0.49,0.56,0.87c0.12,0.91,0.43,1.77,0.85,2.58c0.31,0.61,0.66,1.37,1.51,1.24
				c0.89-0.13,1.05-1.01,1.09-1.69c0.17-2.66,0.24-5.32-0.95-7.83c-0.2-0.43-0.32-0.87-0.32-1.36c0-0.8,0.38-0.87,0.96-0.52
				c1.01,0.61,1.56,1.65,1.96,2.62c2.22,5.35,3.44,10.93,3.41,16.72c-0.02,3.42-0.78,6.76-1.35,10.12
				c-0.64,3.74-2.06,7.09-4.26,10.24c-2.55,3.67-5.1,7.34-7.75,10.93c-0.54,0.73-1.26,1.33-1.91,1.99
				c-0.62,0.63-1.25,1.25-1.89,1.86c-0.2,0.19-0.46,0.44-0.75,0.17c-0.25-0.23-0.02-0.45,0.15-0.64c0.18-0.22,0.32-0.47,0.54-0.65
				c3.33-2.72,5.54-6.29,7.9-9.75c0.94-1.38,1.9-2.76,2.91-4.07c2.99-3.88,4.07-8.36,4.83-12.99c0.48-2.94,0.83-5.88,0.84-8.86
				c0.01-1.96-0.33-3.88-0.81-5.75c-0.49-1.92-0.49-3.96-1.47-5.77c-0.83-1.54-1.61-3.11-2.25-4.74c-0.05-0.13-0.23-0.21-0.5-0.25
				c0.23,0.71,0.45,1.42,0.7,2.12c0.77,2.17,0.47,4.39,0.42,6.61c0,0.15-0.07,0.31-0.12,0.45c-0.24,0.65-0.45,1.37-1.3,1.47
				c-0.86,0.09-1.35-0.47-1.75-1.12c-0.56-0.9-0.85-1.88-1.08-2.89c-0.05-0.2,0.02-0.45-0.25-0.58c-0.36,0.23-0.34,0.66-0.56,0.96
				c-0.15,0.21-0.26,0.46-0.58,0.41c-0.3-0.05-0.4-0.31-0.45-0.55c-0.06-0.31-0.08-0.62-0.13-0.93c-0.05-0.25-0.14-0.53-0.45-0.53
				c-0.37,0-0.3,0.33-0.33,0.57c-0.11,0.87-0.22,1.74-0.33,2.61c-0.03,0.25-0.09,0.5-0.17,0.73c-0.18,0.53-0.32,1.22-1.02,1.2
				c-0.77-0.03-0.88-0.75-0.92-1.34c-0.1-1.34-0.19-2.69-0.21-4.03c-0.04-2.43-0.29-4.87-1.22-7.09c-0.93-2.2-1.87-4.43-3.52-6.31
				c-1.07-1.22-2.12-2.42-3.47-3.33c-0.26-0.18-0.56-0.58-0.91-0.26c-0.28,0.26-0.11,0.66,0.03,0.97c0.21,0.49,0.57,0.92,0.55,1.48
				c-0.01,0.39,0.14,0.89-0.35,1.08c-0.51,0.2-0.96-0.08-1.26-0.47c-0.43-0.55-0.91-0.96-1.66-0.99c-0.5-0.02-0.77,0.04-0.57,0.68
				c0.2,0.65,0.64,1.15,0.91,1.75c0.49,1.09,1.02,2.16,1.51,3.25c1.72,3.82,2.75,9.17,2.12,13.37c-0.39,2.56-1.28,4.89-2.33,7.2
				c-0.42,0.91-0.87,1.81-1.16,2.78c-0.44,1.48-1.53,2.61-2.52,3.71c-1.33,1.48-3.37,0.82-4.04-1.08c-0.85-2.42-1.72-4.84-3.17-7
				c-0.44-0.66-1.08-1.15-1.65-1.7c-0.19-0.19-0.53-0.25-0.51-0.62c0.01-0.2-0.11-0.3-0.28-0.14c-0.56,0.51-0.92,0.12-1.3-0.25
				c-0.24-0.23-0.56-0.44-0.86-0.25c-0.38,0.24-0.06,0.57,0.05,0.83c0.47,1.1,0.98,2.18,1.45,3.27c0.72,1.67,0.63,3.36,0.14,5.06
				c-0.07,0.23-0.2,0.47-0.37,0.64c-0.16,0.17-0.41,0.16-0.63,0.06c-0.15-0.07-0.18-0.19-0.19-0.37c-0.19-3.46-1.71-6.34-4.16-8.79
				c-0.51-0.51-0.74-1.25-1.43-1.61c-0.19-0.1-0.35-0.36-0.58-0.18c-0.25,0.18-0.04,0.39,0.05,0.58c0.08,0.17,0.16,0.34,0.22,0.52
				c0.07,0.2,0.19,0.43-0.02,0.61c-0.23,0.19-0.5,0.12-0.73,0c-0.37-0.2-0.76-0.38-1.05-0.66c-0.9-0.88-2.13-0.95-3.24-1.32
				c-0.37-0.12-0.92-0.14-1.16,0.24c-0.19,0.3,0.31,0.49,0.41,0.77c0.19,0.55,0.74,0.76,1.11,1.14c0.18,0.18,0.58,0.32,0.39,0.65
				c-0.18,0.31-0.54,0.11-0.79,0.04c-0.56-0.15-1.1-0.36-1.65-0.52c-0.27-0.08-0.57-0.12-0.85-0.12c-0.22,0-0.48,0.04-0.56,0.28
				c-0.1,0.3,0.12,0.48,0.36,0.58c0.44,0.19,0.89,0.37,1.35,0.5c0.87,0.25,1.44,0.72,1.97,1.5c1.34,1.98,1.78,4.1,1.76,6.41
				c-0.02,1.93-0.84,3.56-1.69,5.21c-0.87,1.71-2.43,2.86-3.65,4.28c-1.39,1.63-3.46,2.21-5.26,3.21c-0.47,0.26-0.67,0.39-0.44,0.94
				c0.22,0.54,0.52,0.78,1.09,0.62c0.28-0.07,0.58-0.17,0.79-0.34c1.69-1.32,3.87-1.93,5.4-3.41c1.53-1.49,3.45-2.48,4.97-3.96
				c0.36-0.35,0.87-0.61,1.41-0.47c0.59,0.15,0.39,0.71,0.48,1.11c0.07,0.34,0.13,0.68,0.2,1.01c0.25,1.14,1.07,1.47,2.07,0.82
				c0.73-0.47,1.15-1.13,1.41-1.95c0.45-1.46,1.8-1.93,3.12-1.12c0.41,0.25,0.66,0,0.97-0.13c1.03-0.43,1.59-0.09,1.7,1
				c0.15,1.6-0.29,3.1-0.79,4.59c-0.12,0.36-0.35,0.68-0.69,0.88c-1.2,0.69-1.79,1.86-2.41,2.98c-0.54,0.96,0.02,2.12,0.99,2.26
				c0.52,0.08,0.91-0.04,1.21-0.53c0.34-0.56,0.75-1.08,1.02-1.69c0.35-0.78,1.34-1.07,2.01-0.64c1.15,0.73,2.47,0.26,2.95-1.01
				c0.28-0.73,0.21-1.48,0.23-2.23c0.03-1.34,0.95-2.55,2.27-2.95c0.87-0.26,2.5,0.59,2.87,1.62c0.28,0.78,0.71,0.89,1.39,0.6
				c2.61-1.12,3.84-2.04,3.88-4.94c0.02-1.25,0.24-2.48,1.02-3.56c0.47-0.65,1.07-1.06,1.82-1.33c1.46-0.51,2.6,0.28,2.56,1.79
				c-0.01,0.28-0.01,0.58-0.1,0.83c-0.22,0.58,0.08,0.67,0.56,0.6c0.71-0.11,1.36-0.11,2.06,0.21c0.74,0.34,1.09,0.83,1.16,1.57
				c0.18,1.91-0.05,3.7-1.1,5.41c-1.77,2.87-3.42,5.8-5.11,8.7c-0.17,0.29-0.5,0.69-0.25,0.91c0.36,0.32,0.81,0,1.12-0.26
				c2.39-1.98,4.13-4.52,6.01-6.92c0.42-0.54,0.86-1.01,1.48-1.28c0.63-0.27,0.94-0.01,0.89,0.62c-0.04,0.43-0.15,0.86-0.26,1.29
				c-0.2,0.77,0.19,1,0.88,0.86c0.75-0.15,1.47-0.41,2.02-1.36c-0.31,1.18-2.03,1.98-2.85,1.6c-0.37-0.17-0.41-0.47-0.36-0.79
				c0.06-0.43,0.16-0.86,0.23-1.29c0.04-0.24,0.15-0.54-0.12-0.69c-0.25-0.13-0.48,0.09-0.7,0.2c-0.49,0.24-0.68,0.73-1,1.11
				c-1.87,2.21-3.46,4.66-5.68,6.6c-0.14,0.12-0.29,0.26-0.46,0.34c-0.48,0.24-1.06,0.67-1.5,0.25c-0.41-0.39,0.05-0.9,0.3-1.33
				c1.81-3.09,3.61-6.19,5.43-9.29c0.86-1.46,0.93-3.04,0.76-4.64c-0.12-1.09-1.09-1.74-2.3-1.64c-0.29,0.02-0.57,0.1-0.86,0.14
				c-0.65,0.08-0.88-0.14-0.7-0.81c0.21-0.77,0.5-1.59-0.34-2.24c-0.82-0.64-2.18-0.37-3.06,0.62c-0.72,0.81-1.05,1.78-1.2,2.81
				c-0.07,0.53-0.16,1.06-0.14,1.59c0.08,2.5-2.1,4.02-4.19,4.62c-0.68,0.19-1.23,0.09-1.53-0.69c-0.35-0.93-1.62-1.72-2.37-1.6
				c-1.03,0.16-2.18,1.48-2.23,2.53c-0.03,0.75,0.07,1.49-0.16,2.24c-0.49,1.63-1.93,2.22-3.47,1.43c-0.67-0.35-1.24-0.13-1.61,0.53
				c-0.24,0.44-0.47,0.89-0.74,1.31c-0.66,1.06-1.38,1.31-2.38,0.87c-0.62-0.28-1.06-1.53-0.66-2.32c0.58-1.14,1.15-2.32,2.31-3.05
				c0.39-0.25,0.73-0.54,0.87-0.97c0.45-1.34,0.88-2.68,0.81-4.12c-0.06-1.21-0.45-1.46-1.57-0.97c-0.38,0.16-0.68,0.25-1.07-0.03
				c-0.95-0.69-2.08-0.36-2.54,0.74c-0.34,0.81-0.61,1.63-1.39,2.2c-1.28,0.93-2.43,0.54-2.75-0.99c-0.08-0.37-0.16-0.74-0.19-1.11
				c-0.07-0.75-0.52-0.9-1.02-0.47c-1.27,1.12-2.85,1.84-4.04,3.03c-1.34,1.34-2.92,2.33-4.6,3.19c-0.99,0.5-1.75,1.36-2.84,1.72
				c-0.64,0.21-1.23,0.18-1.48-0.43c-0.38-0.94-1.13-0.75-1.71-0.52c-2.71,1.09-5.52,1.86-8.34,2.6c-1.36,0.36-2.68,0.85-4.02,1.23
				c-5.64,1.58-11.4,2.26-17.29,1.88c-1.37-0.09-2.75-0.19-4.14-0.02c-0.53,0.06-1.1-0.24-1.66-0.34c-3.74-0.67-7.55-0.87-11.31-1.4
				c-1.31-0.18-2.77-0.14-3.9,0.42c-1.69,0.83-3.5,1.43-5.03,2.64c-1.44,1.13-3.18,1.88-4.77,2.85c-3.12,1.91-6.51,1.95-10.05,1.63
				c-3.12-0.29-5.83-1.56-8.53-2.88c-1.25-0.61-2.1-1.79-3.31-2.53c-1.32-0.81-2.45-1.93-3.7-2.8c-1.68-1.17-3.68-1.94-5.91-1.57
				c-2.04,0.33-4.11,0.56-6.04,1.28c-3.09,1.16-6.17,2.35-9.18,3.7c-3.49,1.56-6.86,3.39-10.46,4.72c-2.01,0.74-4.21,1.06-6.14,1.95
				c-2.38,1.11-4.82,0.9-7.27,0.89c-2.25-0.01-4.27-0.72-5.95-2.23c-0.14-0.13-0.32-0.2-0.48-0.3c-0.15-0.09-0.4-0.08-0.37-0.4
				c0.5-0.16,0.85,0.17,1.17,0.42c1.65,1.29,3.57,1.51,5.61,1.66c4.66,0.33,8.99-1.01,13.14-2.65c2.62-1.04,5.46-1.83,7.76-3.46
				c1.55-1.1,3.21-1.85,4.88-2.67c3.91-1.93,8.1-3.07,12.41-3.63c3.2-0.42,6.37,0.11,8.96,2.12c2.24,1.74,4.67,3.16,7.02,4.71
				c1.55,1.02,3.39,1.16,5.19,1.29c2.82,0.2,5.6-0.19,8.32-0.89c1.83-0.47,3.19-1.83,4.91-2.53c0.94-0.38,1.79-0.93,2.78-1.23
				c2.53-0.77,4.96-1.92,7.69-1.94c0.53,0,0.58-0.35,0.64-0.75c0.33-2.18,0.22-4.37,0.32-6.56c0.23-4.72,0.27-9.44,0.41-14.17
				c0.02-0.61-0.34-0.64-0.78-0.7c-0.49-0.07-1.12,0.13-1.17-0.72c-0.02-0.27-0.52-0.32-0.82-0.41c-3.22-0.96-6.49-1.62-9.87-1.73
				c-6.32-0.21-12.57,0.31-18.69,1.89c-2.06,0.53-4.04,1.4-6.02,2.2c-2.43,0.98-4.76,2.19-7.12,3.31c-1.54,0.73-3.15,1.17-4.73,1.72
				c-2.38,0.83-4.83,0.86-7.2-0.3c-0.8-0.39-1.7-0.57-2.46-1.18c-0.08,0.18-0.13,0.28-0.17,0.39c-0.78,2.28-0.88,2.33-3.32,1.79
				c-0.82-0.18-1.44-0.23-1.73,0.85c-0.35,1.31-1.63,1.52-2.62,0.55c-0.14-0.13-0.24-0.3-0.39-0.41c-0.92-0.66-1.5-1.86-3.13-0.98
				c-1.14,0.61-2.18-0.16-2.64-1.41c-0.12-0.32-0.22-0.65-0.37-0.96c-0.27-0.55-0.69-0.77-1.23-0.35c-0.42,0.33-0.88,0.34-1.36,0.34
				c-2.32,0.01-3.56,1.22-3.57,3.48c-0.01,0.97,0.03,1.94-0.02,2.91c-0.08,1.42-0.94,1.87-2.23,1.2c-0.83-0.44-1.35-1.11-1.69-1.97
				c-0.64-1.61-0.88-3.32-1.37-4.96c-0.09-0.32-0.03-0.77-0.46-0.85c-0.48-0.09-0.75,0.27-0.98,0.63c-0.25,0.4-0.47,0.82-0.73,1.21
				c-0.18,0.28-0.45,0.47-0.81,0.4c-0.32-0.07-0.43-0.31-0.51-0.61c-0.13-0.45-0.03-1.17-0.7-1.18c-0.73-0.01-1.09,0.63-1.32,1.21
				c-0.45,1.17-0.79,2.38-1.25,3.55c-0.26,0.66-0.38,1.65-1.36,1.59c-0.96-0.06-0.92-1.05-1.16-1.74c-0.06-0.16,0.04-0.38-0.29-0.5
				c-0.34,2.95,0.1,5.78,0.9,8.59c0.83,2.89,3.28,4.72,4.89,7.1c-0.56-0.14-0.87-0.56-1.13-0.93c-0.63-0.88-1.62-1.33-2.34-2.09
				c-1.81-1.89-2.53-4.28-2.98-6.71c-0.6-3.16-0.66-6.3,0.48-9.44c1.07-2.96,2.31-5.82,4.12-8.48c-2.35-0.44-4.78,0.34-7.1-0.61
				c0.29-0.33,0.59-0.24,0.84-0.16c2.28,0.69,4.53-0.11,6.8-0.09c0.34,0,0.34-0.32,0.48-0.51c0.73-0.98,1.63-1.66,2.96-1.67
				c1.16-0.01,1.55,0.66,1.13,1.71c-0.28,0.7-0.16,1.52,0.4,2.12c0.36,0.39,0.83,0.31,1.12-0.17c0.39-0.65,0.63-1.36,0.86-2.08
				c0.27-0.88,0.61-1.76,1.76-1.87c0.39-0.04,0.76-0.04,0.95,0.43c0.28,0.69,0.62,0.41,0.98,0.02c0.89-0.98,1.19-2.28,1.98-3.31
				c0.86-1.13,1.77-2.22,2.94-3.07c0.76-0.55,1.61-0.8,2.55-0.67c0.75,0.11,1.11,0.49,0.78,1.25c-0.06,0.14-0.14,0.28-0.19,0.43
				c-0.08,0.23-0.23,0.51,0.05,0.67c0.26,0.15,0.51-0.02,0.67-0.23c0.83-1.06,2.05-1.58,3.19-2.22c1.65-0.94,3.43-0.67,5.19-0.53
				c0.72,0.06,1.06,0.62,1.22,1.29c0.21,0.87-0.41,1.34-0.94,1.78c-0.85,0.7-1.91,1.14-2.76,1.98c0.38,0.22,0.73,0.14,1.05,0.07
				c2.78-0.57,5.58-1.14,8.16-2.3c2.12-0.95,4.31-1.59,6.58-2.05c1.16-0.24,2.31-0.2,3.47-0.2c3.46,0,6.92-0.19,10.24-1.16
				c1.69-0.49,3.48-0.9,4.87-2.13c0.7-0.62,1.31-1.29,1.61-2.18c0.2-0.58,0.57-0.92,1.19-0.91c0.6,0.01,0.76,0.49,0.94,0.94
				c0.12,0.28,0.14,0.61,0.52,0.88c0.98-1.41,1.91-2.79,1.92-4.58c0-0.31-0.3-0.73,0.2-0.9c0.41-0.14,0.83-0.06,1.18,0.22
				c0.58,0.48,0.94,1.09,1.19,1.78c0.73,2.05,1.27,4.13,1.06,6.44c1.19-0.53,1.88-0.27,2.47,0.76c0.54,0.95,1.73,1.23,2.74,1.44
				c2.33,0.48,4.66,0.93,7.08,0.88c1.64-0.04,3.2-0.34,4.74-0.81c1.2-0.36,2.44-0.56,3.6-1.07c0.55-0.24,0.79-0.52,0.83-1.09
				c0.6-8.55,1.46-17.08,1.58-25.67c0.12-8.07,0.68-16.13,0.79-24.2c0.01-0.82-0.06-1.7,0.6-2.39c0.28-0.29-0.06-0.46-0.21-0.6
				c-1.85-1.84-1.08-3.74-0.26-5.27c0.5-0.93,2.29-1.54,3.36-1.3c1.2,0.27,2.23,0.61,3.09,1.67c1.09,1.34,1.07,2.71,0.75,4.16
				c-0.37,1.69-2.31,2.66-4.31,2.21c-0.58-0.13-1.15-0.36-1.8-0.58c0.01,2.55-0.22,5.04-0.35,7.53c-0.34,6.31-0.66,12.62-0.76,18.94
				c-0.11,6.8-0.78,13.56-1.17,20.33c-0.51,8.87-1.08,17.74-1.05,26.63c0.01,4.42-0.36,8.82-0.53,13.22
				c-0.02,0.38-0.1,0.69-0.51,0.93c-0.6,0.36-0.52,0.77,0.13,1.12c1.12,0.61,2.38,0.45,3.58,0.65c2.43,0.4,4.88,0.7,7.32,1.1
				c0.67,0.11,0.8,0.02,0.76-0.66c-0.26-5.09-0.55-10.19-0.68-15.28c-0.16-6.41-0.09-12.83-0.26-19.24
				c-0.24-9.01-0.08-18.02-0.36-27.03c-0.16-5.06-0.78-10.1-1.23-15.14c-0.32-3.64-0.22-7.31-0.29-10.97
				c-0.01-0.41,0.08-0.82,0.67-0.5c0.49,0.27,0.53-0.2,0.7-0.4c0.91-1.1,1.83-1.15,2.86-0.14c0.88,0.87,1.79,1.71,2.66,2.59
				c1.66,1.67,3.76,2.36,6.05,2.12c1.68-0.17,2.65,0.63,3.48,1.73c1.57,2.09,3.11,4.21,4.54,6.39c3,4.58,6.2,9.05,8.78,13.87
				c2.27,4.24,4.7,8.39,6.91,12.66c1.48,2.86,3.35,5.56,4.23,8.7c0.04,0.15,0.16,0.3,0.14,0.45c-0.18,1.4,0.8,1.28,1.7,1.23
				c2.73-0.17,5.28-0.86,7.59-2.35c0.75-0.48,1.6-0.8,2.39-1.23c1.91-1.04,3.19-2.57,3.82-4.61c0.18-0.58,1.15-0.78,1.88-0.39
				c0.76,0.42,1.5,0.95,1.96,1.64c0.51,0.76,1.09,0.55,1.61,0.29c1.09-0.55,2.08-0.46,3.13,0.06c2.23,1.11,4.49,2.15,6.96,2.66
				c0.25,0.05,0.5,0.07,0.76,0.1c0.1-0.41-0.18-0.6-0.37-0.84c-1.23-1.54-1.91-3.22-1.47-5.22c0.09-0.39,0.23-0.52,0.61-0.56
				c0.81-0.08,1.55,0.06,2.14,0.64c0.32,0.32,0.7,0.54,1.1,0.77c0.39-0.53,0.19-1.02-0.09-1.49c-0.28-0.47-0.47-0.97-0.41-1.52
				c0.03-0.31,0.03-0.65,0.42-0.77c0.33-0.1,0.64,0,0.91,0.2c2.56,1.99,4.66,4.37,6.14,7.22c0.24,0.46,0.66,0.58,1.06,0.74
				 M209.53,161.84c0.47-1.38,0.48-2.71-0.09-4.01c-0.56-1.26-1.12-2.53-1.66-3.8c-0.15-0.35-0.25-0.77,0.12-1.03
				c0.33-0.24,0.8-0.23,1.1,0c0.5,0.39,0.84,1.14,1.62,0.37c0.04-0.04,0.38,0.17,0.56,0.3c2.34,1.65,3.63,3.99,4.55,6.57
				c0.4,1.12,0.73,2.28,1.27,3.33c0.28,0.54,0.64,1.34,1.37,1.37c0.87,0.03,1.45-0.57,1.75-1.38c0.05-0.14,0.15-0.28,0.23-0.41
				c1.44-2.26,2.67-4.62,3.64-7.12c1.21-3.12,1.93-6.29,1.42-9.64c-0.37-2.42-1.11-4.75-1.83-7.08c-0.11-0.37-0.33-0.48-0.69-0.52
				c-1.48-0.18-2.85-0.73-4.24-1.24c-1.44-0.53-2.74-1.31-4.12-1.96c-0.66-0.31-1.31-0.37-1.95-0.1c-1.67,0.72-1.69,0.72-2.98-0.53
				c-0.36-0.35-0.76-0.68-1.12-1.03c-0.39-0.37-0.88-0.33-1.36-0.36c-0.39-0.03-0.51,0.35-0.36,0.46c0.71,0.55,0.15,1.05-0.08,1.44
				c-0.7,1.16-1.54,2.22-2.75,2.95c-2,1.21-4.18,2.06-6.3,3.01c-1.71,0.77-3.53,1.17-5.45,0.92c-0.68-0.09-1.08,0.03-1.28,0.84
				c-0.46,1.87-1.66,2.31-3.41,1.39c-0.23-0.12-0.51-0.19-0.67-0.37c-0.98-1.11-2.44-0.98-3.67-1.18c-1.68-0.28-3.31-0.61-4.75-1.46
				c-1.18-0.69-2.36-0.85-3.68-0.83c-1.93,0.03-3.85-0.04-5.56-1.13c-0.32-0.21-0.82-0.16-1.2,0.09c-0.82,0.52-1.73,0.84-2.66,1.06
				c-2.17,0.51-4.21,1.4-6.28,2.16c-1.75,0.64-3.37,1.52-5.32,1.33c-0.52-0.05-0.56,0.29-0.55,0.67c0.1,4.75,0.2,9.51,0.3,14.26
				c0,0.18,0,0.47,0.11,0.53c0.79,0.41,1.27,1.19,2.07,1.61c2.38,1.26,4.97,2,7.44,3.05c3.25,1.37,6.8,1.81,10.15,2.95
				c3.37,1.15,6.96,1.5,10.48,2.07c1.3,0.21,2.59,0.44,3.92,0.52c2.67,0.15,5.31,0.35,7.98-0.2c0.81-0.17,1.36-0.42,1.77-1.08
				c1.39-2.28,2.13-4.69,1.58-7.34c-0.45-2.17-1.2-4.15-3.72-4.87c-1.13-0.32-1.27-0.57-0.86-1.78c0.26-0.77,0.99-0.66,1.63-0.48
				c0.66,0.18,1.31,0.39,1.96,0.59c-0.6-0.68-1.18-1.29-1.61-2.03c-0.42-0.74-0.19-1.2,0.67-1.32c0.32-0.04,0.67-0.09,0.96,0
				c1.18,0.4,2.48,0.44,3.57,1.12c0.16,0.1,0.33,0.39,0.61,0.04c0.65-0.8,1.47-0.82,2.11-0.05c0.62,0.75,1.36,1.41,1.93,2.18
				c1.31,1.81,2.53,3.7,3.02,5.91C209.3,161.02,209.42,161.43,209.53,161.84z M113.1,138.54c0.19,0.61,0.67,1.23,0.15,1.69
				c-0.82,0.73-1.68,1.46-2.69,1.96c-2.7,1.32-5.58,2.04-8.55,2.48c-2.74,0.41-5.52,0.36-8.28,0.64c-1.88,0.19-3.84,0.11-5.58,0.95
				c-1.59,0.76-3.29,1.23-4.93,1.86c-0.39,0.15-0.8,0.27-1.15,0.49c-1.92,1.21-4.13,1.24-6.28,1.45c-0.49,0.05-0.79,0.15-0.98,0.56
				c-0.6,1.33-1.1,2.69-1.17,4.16c-0.02,0.4,0.2,0.71,0.32,1.06c0.22,0.63,0.51,0.47,0.78,0.1c0.44-0.61,0.76-1.33,1.27-1.87
				c0.42-0.45,0.74-1.29,1.54-1.07c0.63,0.18,0.69,0.92,0.76,1.5c0.06,0.54,0.28,0.74,0.88,0.69c1.1-0.09,1.66,0.46,1.71,1.5
				c0.04,0.72,0.05,1.44,0.16,2.15c0.25,1.65,1.45,3.47,3.78,3.45c0.64-0.01,1.29,0.06,1.93,0.02c4.15-0.25,8.1-1.25,11.91-2.86
				c2.67-1.13,5.36-2.28,8.14-3.12c3.78-1.15,7.72-1.72,11.63-2.31c3.48-0.53,6.99-0.17,10.49-0.08c2.17,0.05,4.27,0.52,6.36,1.1
				c1.55,0.43,3.07,0.94,4.61,1.41c0.47,0.14,0.75,0.2,0.79-0.46c0.25-3.59,0.53-7.17,0.83-10.76c0.05-0.54-0.13-0.58-0.58-0.45
				c-0.99,0.29-1.97,0.6-2.97,0.83c-2.41,0.56-4.74,1.67-7.34,1.08c-0.56-0.13-1.11-0.28-1.68-0.35c-1.44-0.2-2.87-0.4-4.27-0.79
				c-1.18-0.32-2.26-0.72-2.83-1.91c-0.18-0.37-0.45-0.61-0.98-0.27c-0.86,0.55-0.99,0.46-0.92-0.6c0.14-2.24-0.4-4.35-1.18-6.42
				c-0.2-0.53-0.51-1.01-0.99-1.36c-0.16-0.11-0.35-0.21-0.53-0.09c-0.19,0.13-0.17,0.36-0.08,0.51c0.25,0.39,0.16,0.79,0.04,1.18
				c-0.36,1.21-1.08,2.26-1.62,3.39c-0.17,0.36-0.6,0.6-1.06,0.55c-0.52-0.06-0.44-0.53-0.56-0.87
				C113.85,139.21,113.9,138.62,113.1,138.54z M153.45,168.65c0.04,4.13,0.42,8.25,0.49,12.37c0.01,0.59,0.23,0.77,0.78,0.77
				c1.1,0,2.2-0.03,3.29,0.05c4.79,0.36,9.49-0.13,14.11-1.33c4.99-1.3,9.97-2.65,14.84-4.34c3.33-1.15,6.34-2.69,8.61-5.4
				c0.16-0.19,0.46-0.36,0.24-0.62c-0.19-0.22-0.53-0.1-0.71,0.05c-0.82,0.69-1.83,0.73-2.81,0.73c-3.02,0.01-6.02,0-9.01-0.7
				c-5.28-1.23-10.56-2.43-15.78-3.89c-3.5-0.98-6.85-2.32-10.24-3.58c-1.15-0.43-2.23-0.98-3.15-1.8
				c-0.15-0.13-0.28-0.42-0.55-0.25c-0.22,0.13-0.12,0.4-0.12,0.61C153.45,163.77,153.45,166.21,153.45,168.65z M190.35,141.62
				c-0.2-1.64-0.89-3.13-1.63-4.57c-1.27-2.49-2.67-4.91-4.01-7.37c-2.01-3.7-3.97-7.42-6.02-11.1c-1.96-3.51-4.26-6.83-6.45-10.21
				c-2.14-3.3-4.41-6.52-6.77-9.68c-0.56-0.75-1.26-1.31-2.37-1.15c-0.69,0.1-1.42,0.04-2.12-0.05c-1.77-0.22-3.38-0.9-4.65-2.11
				c-0.81-0.78-1.57-1.64-2.37-2.44c-0.41-0.41-0.89-0.71-1.45-0.31c-0.63,0.46-1.19,1.03-0.88,1.9c0.17,0.46,0.42,0.91,0.71,1.32
				c1.59,2.27,3.2,4.53,4.81,6.78c2.58,3.61,5.18,7.22,7.76,10.84c1.46,2.05,2.91,4.11,4.38,6.16c3.33,4.66,6.67,9.33,10,13.99
				c1.26,1.77,2.68,3.45,3.75,5.32c1.04,1.82,2.42,3.28,4.04,4.55c0.5,0.4,1.1,0.76,1.84,0.75c0.43-0.01,0.83-0.11,0.91-0.53
				C189.99,143.02,190.36,142.37,190.35,141.62z M151.25,96.68c0.3,3.33,0.1,6.66,0.37,9.95c0.3,3.68,0.34,7.37,0.69,11.05
				c0.3,3.2,0.17,6.44,0.25,9.66c0.05,2.06,0.12,4.13,0.21,6.19c0.01,0.32-0.11,0.89,0.53,0.76c1.48-0.29,3.05-0.39,4.3-1.31
				c1.03-0.75,2.15-1.35,3.26-1.98c0.46-0.26,0.92-0.37,1.47-0.13c2.14,0.94,4.5,1.02,6.76,1.53c0.58,0.13,1.22,0.1,1.82-0.08
				c1.11-0.32,2.23-0.29,3.34,0c0.75,0.19,1.51,0.3,2.29,0.27c0.56-0.02,0.59-0.22,0.3-0.62c-0.7-0.97-1.42-1.92-2.11-2.91
				c-2.53-3.61-5.15-7.16-7.73-10.74c-1.53-2.12-3.04-4.25-4.58-6.37c-2.98-4.11-5.97-8.21-8.97-12.31
				c-0.28-0.38-0.54-0.76-0.74-1.19C152.39,97.77,151.93,97.18,151.25,96.68z M60.98,166.64c0,0,0.01,0,0.01,0
				c0-0.28,0.03-0.57,0-0.84c-0.35-2.62,1.79-4.16,4.02-4.02c0.29,0.02,0.56-0.02,0.84-0.16c1.18-0.6,1.53-0.47,2,0.72
				c0.12,0.29,0.25,0.58,0.33,0.88c0.2,0.77,0.79,1,1.51,1.07c0.54,0.06,1.01-0.1,1.47-0.37c0.42-0.25,0.84-0.29,1.23,0.08
				c0.55,0.52,1.14,1.01,1.68,1.54c0.99,0.98,1.98,0.8,2.34-0.56c0.23-0.86,0.74-1.02,1.49-0.92c0.38,0.05,0.75,0.16,1.13,0.25
				c0.62,0.14,1.23,0.4,1.73-0.31c0.61-0.87,0.83-1.99,0.33-2.62c-0.46-0.58-0.65-1.22-0.74-1.9c-0.15-1.17-0.21-2.34-0.45-3.5
				c-0.07-0.32-0.15-0.51-0.43-0.45c-1.19,0.27-1.54-0.32-1.62-1.34c-0.06-0.71-0.49-0.81-1.07-0.38c-0.32,0.23-0.52,0.54-0.72,0.87
				c-0.31,0.51-0.63,1.03-1.01,1.49c-0.61,0.73-1.11,0.68-1.68-0.11c-1.05-1.48-0.96-3.31,0.08-4.91c1.37-2.1,3.36-3.55,5.31-5.06
				c0.34-0.27,0.84-0.4,0.66-0.99c-0.16-0.52-0.52-0.78-1.04-0.84c-2.89-0.38-5.41,0.3-7.45,2.42c-0.44,0.45-0.99,0.98-1.68,0.54
				c-0.62-0.39-0.16-0.96,0.04-1.43c0.29-0.66-0.04-0.86-0.64-0.89c-0.74-0.04-1.42,0.18-1.98,0.63c-1.07,0.85-2,1.83-2.82,2.92
				c-0.82,1.09-1.15,2.45-2.1,3.46c-0.69,0.73-0.95,0.75-1.56-0.05c-0.42-0.55-0.83-0.39-1.23-0.08c-0.44,0.34-0.66,0.85-0.78,1.38
				c-0.15,0.65-0.41,1.25-0.71,1.84c-0.25,0.48-0.51,0.97-1.21,0.89c-0.72-0.08-1.03-0.56-1.21-1.18c-0.19-0.65-0.16-1.31-0.13-1.96
				c0.03-0.71-0.31-0.87-0.95-0.76c-0.82,0.15-1.35,0.68-1.83,1.28c-0.71,0.88-1.13,1.93-1.71,2.87c-1.39,2.27-2.22,4.74-3.15,7.17
				c-0.47,1.25-0.66,2.55-0.26,3.86c0.15,0.49,0.19,1.19,0.85,1.22c0.59,0.02,0.75-0.64,0.91-1.08c0.48-1.26,0.87-2.55,1.34-3.81
				c0.27-0.73,0.72-1.44,1.56-1.5c0.87-0.07,0.85,0.77,1.04,1.35c0.06,0.17,0.07,0.38,0.31,0.43c0.31,0.06,0.36-0.19,0.48-0.37
				c0.3-0.44,0.6-0.89,0.92-1.32c0.28-0.38,0.65-0.64,1.15-0.55c0.48,0.09,0.45,0.54,0.56,0.89c0.56,1.76,0.76,3.61,1.5,5.32
				c0.35,0.82,0.91,1.45,1.76,1.77c0.88,0.34,1.47-0.01,1.55-0.93C61.02,167.96,60.98,167.3,60.98,166.64z M184.5,142.48
				c-0.43-0.46-0.78-0.9-1.11-1.36c-1.78-2.48-3.58-4.94-5.36-7.43c-0.36-0.51-0.74-0.78-1.42-0.69c-0.56,0.07-1.18,0.15-1.72-0.11
				c-1.18-0.58-2.4-0.62-3.65-0.36c-0.77,0.16-1.56,0.27-2.3,0.1c-2-0.45-4.12-0.44-6.02-1.28c-1.01-0.44-1.84-0.29-2.68,0.3
				c-2.05,1.42-4.19,2.66-6.78,2.91c-0.57,0.06-0.58,0.47-0.56,0.91c0.08,2.37,0.16,4.75,0.23,7.12c0.03,1.27,0.12,1.43,1.38,1
				c1.9-0.65,3.86-1.12,5.77-1.75c2.18-0.72,4.42-1.27,6.49-2.31c0.99-0.5,2.04-0.72,3.25-0.28c1.55,0.56,3.12,1.18,4.85,1.03
				c0.51-0.04,1.03-0.01,1.54-0.01c1.53,0.01,2.63,1.08,4,1.51C181.74,142.21,183.07,142.55,184.5,142.48z M144.48,87.53
				c-0.03,1.53,1.73,3.01,3.56,3.02c1.2,0,2.51-1.4,2.56-2.74c0.05-1.39-1.75-3.26-3.15-3.28C145.9,84.51,144.51,85.92,144.48,87.53
				z M112.61,186.49c-1.77-0.76-3.47-1.61-5.05-2.66C108.84,185.42,110.76,185.91,112.61,186.49z M224.8,141.34
				c-0.07-0.76-0.22-1.5-0.75-2.36C224.09,139.99,224.39,140.68,224.8,141.34z"/>
			<path d="M124.95,94.15c-5-0.11-9.95-0.77-14.91-1.36c-2.49-0.29-5.01-0.38-7.5-0.73c-6.53-0.9-13.12-1.18-19.67-1.87
				c-1.02-0.11-2.03-0.35-3.05-0.49c-1.89-0.27-3.07-1.52-4.01-2.94c-0.96-1.44,0.1-3.62,1.78-4.14c1.34-0.42,2.71-0.53,4.09-0.53
				c9.67-0.01,19.32,0.61,28.99,0.67c4.22,0.03,8.45,0,12.67,0.11c5.06,0.13,10.11,0.37,15.16,0.58c0.74,0.03,1.59,0.04,1.86,0.89
				c0.34,1.08,0.88,2.19,0.18,3.34c-0.27,0.44-0.72,0.5-1.18,0.51c-1,0.03-2,0.03-3,0.08c-2.65,0.13-4.59,1.29-5.88,3.59
				c-0.82,1.47-2.24,2.22-3.99,2.28C125.98,94.16,125.46,94.15,124.95,94.15z M84.86,82.84c-1.56,0-2.63-0.02-3.69,0.01
				c-1,0.03-2.01,0.02-2.96,0.37c-0.67,0.25-1.42,0.58-1.52,1.31c-0.2,1.49,0.2,2.11,1.33,2.67c1.75,0.87,3.72,1,5.58,1.36
				c3.21,0.64,6.51,0.82,9.78,1.19c6.97,0.77,13.97,1.23,20.91,2.22c3.72,0.54,7.49,0.81,11.27,0.85c2.22,0.02,3.92-0.44,5.12-2.52
				c1.05-1.81,2.91-2.77,5.15-2.78c1.06,0,2.13-0.01,3.19-0.02c0.32,0,0.68,0.03,0.87-0.29c0.49-0.85-0.01-1.65-0.2-2.45
				c-0.14-0.58-0.71-0.54-1.2-0.56c-3.09-0.13-6.18-0.24-9.28-0.39c-7.09-0.35-14.18-0.27-21.27-0.38
				C100.09,83.3,92.23,83.03,84.86,82.84z"/>
			<path d="M151.65,83.61c-1.21,0.19-1.9-0.7-2.64-1.48c-0.29-0.3-0.07-0.63,0.16-0.93c1.6-2.11,2.37-4.48,2.4-7.09
				c0.01-1.1-0.33-2.13-0.87-3.04c-0.97-1.61-0.74-3.13,0.12-4.62c0.53-0.92,1.14-1.82,1.81-2.65c1.6-1.96,2.91-4.11,4.3-6.21
				c1.22-1.84,2.58-3.58,3.85-5.38c1.94-2.75,3.88-5.51,5.64-8.38c0.69-1.13,1.49-2.19,2.25-3.27c1.43-2.01,2.6-4.17,3.95-6.22
				c0.92-1.39,1.86-2.76,2.86-4.1c1.15-1.55,2.7-2.74,4.22-3.94c0.31-0.25,0.74-0.39,1.14-0.5c1.01-0.28,2-0.32,2.78,0.51
				c0.77,0.82,0.83,1.82,0.53,2.81c-0.59,1.95-1.44,3.81-2.4,5.61c-1.76,3.3-3.5,6.61-5.35,9.86c-1.03,1.8-2.2,3.52-3.22,5.33
				c-2.68,4.8-5.19,9.69-8.22,14.31c-1.07,1.63-2.1,3.28-3.11,4.94c-2.56,4.19-5.04,8.42-7.34,12.74
				C153.88,83.1,153.08,83.72,151.65,83.61z M152.34,74.33c-0.06,2.3-0.71,4.43-1.89,6.43c-0.13,0.22-0.45,0.42-0.22,0.74
				c0.51,0.71,1.31,0.88,2.11,0.97c0.62,0.07,0.95-0.35,1.22-0.87c0.7-1.37,1.41-2.74,2.19-4.07c2.08-3.52,4.22-7,6.29-10.52
				c1.85-3.15,3.62-6.33,5.44-9.49c2.69-4.69,5.38-9.38,8.08-14.06c1.76-3.05,3.58-6.07,5.29-9.15c0.93-1.67,1.95-3.3,2.5-5.16
				c0.29-0.98,0.1-2.04-0.55-2.49c-0.6-0.42-1.82-0.33-2.55,0.22c-2.14,1.62-4.05,3.45-5.51,5.69c-2.6,3.98-5.13,7.99-7.75,11.95
				c-2.29,3.46-4.53,6.97-7.07,10.27c-2.39,3.11-4.18,6.6-6.76,9.57c-0.64,0.73-1.16,1.58-1.65,2.42c-0.78,1.32-0.98,2.64-0.09,4.07
				C152.07,71.87,152.37,73.08,152.34,74.33z"/>
			<path d="M47.2,140.52c0.38-0.48,0.9-0.53,1.3-0.28c1.94,1.23,4.02,0.88,6.09,0.58c4.1-0.59,7.62-2.46,11-4.67
				c1.01-0.66,2.06-1.29,3.21-1.72c0.82-0.31,1.67-0.27,2.45,0.06c1.7,0.73,3.45,0.65,5.21,0.4c0.81-0.11,1.55-0.02,2.35,0.26
				c2.33,0.82,4.64,1.65,7.21,1.77c3.8,0.17,7.59,0.28,11.39,0.4c3.85,0.12,7.48-0.51,11-1.9c2.13-0.84,4.28-1.65,6.25-2.87
				c1.55-0.96,3.29-0.6,4.85,0.04c1.71,0.71,3.53,1.2,5.29,1.21c3.28,0.02,6.48,0.29,9.66,1.03c2.28,0.53,4.47-0.09,6.66-0.62
				c0.29-0.07,0.6-0.29,0.87,0.1c-2.18,0.37-4.26,1.17-6.53,0.92c-1.8-0.19-3.53-0.71-5.31-0.99c-0.54-0.09-1.08-0.2-1.63-0.15
				c-2.66,0.23-5.27-0.12-7.85-0.75c-0.59-0.14-1.14-0.4-1.7-0.6c-1.43-0.5-2.81-0.69-4.31,0.19c-2,1.18-4.21,2.03-6.41,2.83
				c-0.86,0.31-1.71,0.67-2.6,0.93c-2.33,0.69-4.72,0.91-7.16,0.8c-1.51-0.07-3.03-0.02-4.55,0.02c-3.72,0.11-7.4-0.36-11.09-0.7
				c-1.47-0.13-2.89-0.93-4.31-1.48c-0.56-0.22-1.1-0.37-1.68-0.26c-2.03,0.36-4.03,0.38-5.98-0.41c-0.97-0.39-1.89-0.12-2.78,0.34
				c-1.08,0.55-2.06,1.25-3.06,1.92c-1.83,1.23-3.86,2.15-5.88,2.99c-2.69,1.12-5.62,1.57-8.6,1.37c-0.56-0.04-1.07-0.22-1.54-0.51
				C48.47,140.46,47.89,140.23,47.2,140.52z"/>
			<path d="M238.77,164.31c0.74,0.47,1,1.11,1.02,1.91c0.05,2.04-0.02,4.06-0.82,6c-0.09,0.22-0.27,0.51-0.03,0.7
				c0.29,0.23,0.54-0.06,0.76-0.22c0.25-0.19,0.52-0.4,0.67-0.66c0.85-1.45,1.3-3.05,1.68-4.65c0.11-0.45,0.02-0.92-0.61-0.96
				c-0.53-0.04-0.56-0.29-0.39-0.69c0.26-0.61,0.52-1.22,1.1-1.62c0.63-0.44,0.5-0.78-0.11-1.11c-1.45-0.77-2.26-0.42-2.46,1.1
				c-0.33-0.78,0.14-1.7,0.96-1.77c0.81-0.07,1.54,0.26,2.12,0.76c0.39,0.33,0.31,0.82-0.16,1.11c-0.4,0.25-0.64,0.6-0.87,0.98
				c-0.3,0.48-0.55,0.9,0.3,1.09c0.34,0.08,0.41,0.37,0.38,0.67c-0.18,1.99-0.83,3.83-1.91,5.52c-0.1,0.15-0.27,0.27-0.42,0.38
				c-0.39,0.27-0.81,0.68-1.29,0.37c-0.45-0.29-0.09-0.77,0.03-1.11c0.56-1.52,0.85-3.07,0.77-4.69
				C239.42,166.35,239.7,165.22,238.77,164.31z"/>
			<path d="M219.2,132.21c-2.46,0.28-5.35-0.63-7.75-1.2c-0.47-0.11-0.96-0.15-1.41-0.32c-2.13-0.78-4.23-0.41-6.36-0.02
				c-3.42,0.62-6.86,0.96-10.37,0.72c-1.83-0.13-3.71-0.36-5.51,0.33c-0.09,0.03-0.19,0.05-0.23-0.06
				c-0.05-0.17-0.02-0.33,0.18-0.36c0.41-0.07,0.83-0.16,1.24-0.17c1.83-0.04,3.67-0.06,5.5,0.05c3.04,0.18,6.05-0.17,9.02-0.76
				c2.24-0.44,4.4-0.67,6.65,0C212.95,131.26,216.31,132.31,219.2,132.21z"/>
			<path d="M224.94,165.93c-0.19-0.98-0.39-1.93-0.21-2.87c0.22-1.15,2.5-2.1,3.57-1.54c0.38,0.2,0.24,0.48,0.09,0.71
				c-0.58,0.84-0.91,1.88-2.27,2.02C225.27,164.32,225.18,165.23,224.94,165.93z M225.09,164.48c0.42-0.25,0.73-0.56,1.17-0.58
				c0.67-0.03,1.03-0.46,1.32-0.94c0.21-0.34,0.69-0.67,0.54-1.04c-0.19-0.45-0.55,0.12-0.9,0.06
				C225.48,161.69,224.61,162.69,225.09,164.48z"/>
			<path d="M203.31,165.74c0.22,0.11,0.19,0.24,0.19,0.36c-0.02,0.41,0.15,0.91,0.46,0.93c0.38,0.02,0.82-0.27,1.16-0.52
				c0.32-0.24,0.25-0.64,0.06-0.94c-0.31-0.5-0.68-0.98-1.04-1.45c-0.16-0.21-0.4-0.33-0.68-0.22c-0.26,0.1-0.43,0.28-0.43,0.56
				c-0.01,0.4,0,0.81-0.11,1.21c-0.23-0.55-0.31-1.12-0.03-1.67c0.38-0.75,0.88-0.79,1.43-0.13c0.36,0.44,0.71,0.88,1.02,1.36
				c0.3,0.47,0.4,0.99,0.03,1.48c-0.39,0.52-0.94,0.76-1.59,0.62C203.32,167.24,203.17,166.66,203.31,165.74z"/>
			<path d="M215.17,171.83c0.02,0.38,0.03,0.77,0.06,1.15c0.01,0.19,0.02,0.41,0.23,0.48c0.21,0.07,0.36-0.11,0.45-0.27
				c0.38-0.64,0.95-1.2,0.93-2.01c-0.01-0.31-0.01-0.7-0.45-0.7c-0.39,0-0.36,0.35-0.38,0.64c-0.03,0.41,0.11,0.85-0.33,1.32
				c0.04-0.69,0.05-1.24,0.1-1.78c0.03-0.32,0.15-0.62,0.54-0.67c0.46-0.06,0.6,0.26,0.72,0.6c0.15,0.43,0.16,0.86-0.03,1.27
				c-0.14,0.31-0.27,0.66-0.5,0.9c-0.4,0.42-0.5,1.52-1.18,1.16C214.69,173.59,214.86,172.58,215.17,171.83z"/>
			<path d="M233.97,162.25c0.09-0.55,0.24-1.46,0.96-1.6c0.47-0.09,0.65,0.9,0.96,1.41c0.06,0.1,0.08,0.24,0.08,0.36
				c0.01,0.6,0.03,1.24-0.78,1.36C234.49,163.88,233.95,163.23,233.97,162.25z M235.72,162.55c-0.07-0.51-0.29-1.29-0.81-1.36
				c-0.54-0.08-0.62,0.73-0.7,1.23c-0.09,0.58,0.28,0.87,0.83,0.93C235.55,163.41,235.72,163.09,235.72,162.55z"/>
			<path d="M223.25,169.48c0.86-0.22,1.31,0.23,1.74,0.59c0.27,0.23,0.2,0.63-0.04,0.93c-0.22,0.27-0.53,0.34-0.86,0.25
				c-0.41-0.11-0.39-0.44-0.36-0.75C223.77,170.11,223.78,169.75,223.25,169.48z M224.42,170.99c0.29-0.07,0.44-0.24,0.4-0.54
				c-0.03-0.3-0.24-0.47-0.51-0.45c-0.38,0.03-0.25,0.37-0.28,0.59C223.98,170.86,224.13,171,224.42,170.99z"/>
			<path d="M113.56,144.78c-0.46-0.04-1.01-0.12-0.87-0.78c0.11-0.55-0.06-1.39,0.88-1.42c0.64-0.02,1.22,0.2,1.25,1
				C114.83,144.24,114.32,144.76,113.56,144.78z M113.73,144.47c0.36-0.01,0.78-0.24,0.8-0.78c0.01-0.37-0.25-0.79-0.67-0.74
				c-0.51,0.06-0.85,0.45-0.9,1C112.92,144.37,113.19,144.46,113.73,144.47z"/>
			<path d="M70.45,157.03c0.28,0.7-0.23,1.11-0.6,1.56c-0.39,0.47-0.1,1.77,0.46,1.99c0.47,0.19,0.64-0.19,0.93-0.61
				c0.03,0.86-0.41,1.03-0.97,0.92c-0.7-0.15-1.25-1.85-0.76-2.35c0.55-0.56,0.94-1.07,0.28-1.81c-0.22-0.24-0.33-0.61-0.27-0.97
				c0.06-0.33,0.3-0.46,0.59-0.55c0.22-0.07,0.44,0.02,0.47,0.21c0.21,1.29,0.64,2.58,0.14,3.91c0-0.37,0.02-0.74-0.01-1.11
				c-0.03-0.4-0.06-0.81-0.28-1.17c0.2-0.39,0.01-0.78-0.01-1.17c-0.01-0.19-0.11-0.37-0.35-0.32c-0.21,0.05-0.3,0.24-0.26,0.43
				C69.9,156.41,70.04,156.8,70.45,157.03z"/>
			<path d="M74.36,160.87c-0.09-0.89,0.24-1.59,0.91-2.14c0.4-0.33,0.9-0.28,1.25,0.03c0.38,0.35,0.07,0.69-0.25,0.93
				c-0.34,0.25-0.3,0.59-0.31,0.94c-0.01,0.61-0.16,1.19-0.55,1.67c-0.45,0.56-0.97,0.47-1.23-0.19c-0.08-0.2-0.2-0.44-0.15-0.63
				c0.07-0.26-0.66-0.42-0.13-0.6c0.37-0.13,0.32,0.37,0.41,0.6c0.11,0.31,0.03,0.79,0.49,0.81c0.46,0.02,0.58-0.43,0.72-0.77
				c0.16-0.38,0.21-0.78,0.19-1.2c-0.01-0.28,0-0.55,0.27-0.76c0.19-0.15,0.61-0.33,0.24-0.63c-0.26-0.22-0.62-0.12-0.88,0.12
				c-0.4,0.36-0.59,0.81-0.66,1.32C74.63,160.54,74.61,160.75,74.36,160.87z"/>
			<path d="M59.08,160.07c-0.01,0.65,0.08,1.32-0.36,1.89c-0.46,0.6-0.83,0.59-1.27-0.02c-0.73-1.02-0.79-2.73-0.15-3.73
				c0.17-0.26,0.42-0.34,0.65-0.22c0.47,0.24,1.01,0.47,1.11,1.05C59.13,159.37,59.08,159.73,59.08,160.07z M58.83,160
				c0.1-0.52,0.03-1.17-0.69-1.6c-0.23-0.14-0.54-0.31-0.6,0.06c-0.12,0.76-0.62,1.48-0.37,2.27c0.16,0.52,0.33,1.32,0.91,1.28
				c0.69-0.04,0.69-0.85,0.74-1.43C58.84,160.45,58.83,160.32,58.83,160z"/>
			<path d="M66.26,157.9c0.06-0.13,0.17-0.27,0.17-0.4c0.01-0.37,0.22-0.94-0.31-1.02c-0.5-0.08,0.01,0.58-0.4,0.8
				c-0.09-0.44-0.33-0.85,0.18-1.14c0.24-0.14,0.53-0.06,0.65,0.21C66.79,156.92,67.01,157.51,66.26,157.9z"/>
			<path d="M52.28,159.29c0.36,0.33,0.06,0.74,0.47,0.93c0.44-0.14,0.14-0.56,0.22-0.93c0.46,0.39,0.31,0.78,0.18,1.13
				c-0.09,0.23-0.38,0.26-0.58,0.15C52.04,160.29,52.28,159.83,52.28,159.29z"/>
			<path d="M147.76,89.28c-1.17,0-1.91-0.81-1.9-2.1c0-1.04,0.49-1.55,1.48-1.55c1.12,0,2.17,0.9,2.1,1.89
				C149.37,88.44,148.86,89.4,147.76,89.28z M146.58,87.08c-0.02,0.67,0.51,1.25,1.1,1.29c0.59,0.03,0.91-0.29,0.99-0.81
				c0.08-0.53-0.61-1.17-1.24-1.2C146.85,86.34,146.6,86.64,146.58,87.08z"/>
		</g>
	</g>
</g>
</svg>
