<?xml version="1.0" encoding="utf-8"?>
<!-- Generator: Adobe Illustrator 23.0.2, SVG Export Plug-In . SVG Version: 6.00 Build 0)  -->
<svg version="1.1" id="line" xmlns="http://www.w3.org/2000/svg" xmlns:xlink="http://www.w3.org/1999/xlink" x="0px" y="0px"
	 viewBox="0 0 288 226.77" style="enable-background:new 0 0 288 226.77;" xml:space="preserve">
<style type="text/css">
	.st0{fill:#FF3A5B;}
	.st1{fill:#50E3C2;}
	.st2{fill:#FF8438;}
	.st3{fill:#FFDD4C;}
	.st4{fill:#FFFFFF;}
	.st5{fill:#925F36;}
	.st6{fill:#422918;}
	.st7{fill:#007EFF;}
	.st8{fill:#9C9B9B;}
	.st9{fill:#C6C6C5;}
	.st10{fill:#D9D9D9;}
	.st11{fill:#6F6F6E;}
	.st12{fill:#ECECEC;}
	.st13{fill:#97E6FC;}
	.st14{fill:#B1B1B1;}
	.st15{fill:#1D1D1B;}
	.st16{fill:#FFFFFF;stroke:#1D1D1B;stroke-width:0.5;stroke-miterlimit:10;}
	.st17{fill:none;stroke:#FFFFFF;stroke-linecap:round;stroke-linejoin:round;stroke-miterlimit:10;}
	.st18{fill:#A0ECD2;}
	.st19{fill:#C4F5FB;}
	.st20{fill:none;stroke:#FFFFFF;stroke-width:0.876;stroke-linecap:round;stroke-linejoin:round;stroke-miterlimit:10;}
	.st21{fill:none;}
	.st22{fill:#575756;}
	.st23{fill:#FFFFFF;stroke:#1D1D1B;stroke-width:0.9148;stroke-miterlimit:10;}
	.st24{fill:#9B5416;}
	.st25{fill:#868686;}
</style>
<g>
	<g>
		<path class="st13" d="M115.31,37.64c9.08-2.56,18.89-2.52,27.94,0.13c0.85,0.25,1.72,0.53,2.37,1.12
			c1.41,1.27,1.36,3.45,2.16,5.16c1.71,3.66,6.61,4.31,10.7,4.44c8.17,0.27,16.34,0.54,24.5,0.8c5.19,0.17,10.53,0.37,15.3,2.42
			c1.23,0.53,2.42,1.18,3.71,1.57c2.26,0.67,4.67,0.49,7.02,0.41c6.44-0.23,12.9,0.34,19.2,1.69c1.84,0.39,4.17,2.12,2.98,3.56
			c-0.34,0.42-0.89,0.6-1.42,0.76c-3.1,0.97-6.21,1.95-9.31,2.92c0.97,1.3,0.39,3.25-0.82,4.34s-2.56,6.54-4.15,6.9
			c-14.05,3.16-17.17,0.88-33.69,7.27c-0.43,0.17-0.81,0.51-0.95,0.95c-0.22,0.68,0.35,1.34,0.87,1.84
			c2.91,2.75-1.98,4.93,1.15,7.43c-2.09,0.06-2.61,3.3-1.11,4.73c1.5,1.44,3.83,1.5,5.91,1.48c3.62-0.04,7.24-0.08,10.86-0.12
			c-0.34,3.32,2.82,6.15,6.12,6.89c3.3,0.75,6.73,0.02,10.1-0.31c3.37-0.34,7.08-0.19,9.69,1.94c1.17,0.96,2.07,2.6,1.39,3.94
			c-0.31,0.61-0.88,1.03-1.46,1.41c-3.57,2.31-7.84,3.3-11.73,5.05c-3.89,1.75-7.69,4.68-8.48,8.83c-0.19,1.01-0.21,2.09-0.71,3
			c-1.12,2.04-3.95,2.21-6.3,2.27c-7.85,0.19-15.65,2.02-22.75,5.31c-0.86,0.4-1.74,0.85-2.26,1.63c-0.86,1.3-0.45,3.08-1.15,4.47
			c-1.77,3.53-7.86,1.22-10.83,3.85c-0.78,0.69-1.25,1.66-1.98,2.41c-2.17,2.24-5.81,1.89-8.91,1.43c-9.85-1.48-19.76-2.52-29.7-3.1
			c-22.08-1.3-45.22-0.6-65-10.38c-2.73-1.35-5.79-4.05-4.53-6.79c0.63-1.38,2.16-2.09,3.57-2.7c8.5-3.65,17-7.29,25.51-10.94
			c-1.92-3.59-6.41-4.82-10.39-5.87c-6.93-1.82-13.73-4.13-20.34-6.9c-2.33-0.98-4.72-2.08-6.29-4.05c-2.81-3.52-2.21-8.86-5-12.39
			c-2.05-2.59-5.83-4.1-6.43-7.34c-0.63-3.4,2.83-6.24,6.21-7.15c3.37-0.91,7.07-0.77,10.18-2.36c3.97-2.02,6.12-6.39,9.69-9.04
			c3.89-2.89,9.02-3.44,13.88-3.67c10.98-0.53,21.98,0.07,32.98,0.25c0.77,0.01,1.65-0.03,2.13-0.61c0.75-0.91-0.11-2.31-1.18-2.83
			c-1.07-0.52-2.34-0.61-3.29-1.32c-2.35-1.75-1.63-6.3-4.43-7.19c-0.67-0.21-1.42-0.14-2.06-0.41c-1.87-0.78-1.31-3.86,0.49-4.78
			c1.8-0.92,3.98-0.39,5.93,0.16"/>
		<path class="st4" d="M100.42,88.92c-1.06-0.02-2.16,0.01-3.21-0.28c-0.37-0.1-0.53,0.03-0.74,0.23c-2.25,2.06-4.95,2.69-8.14,1.79
			c-0.29-0.08-0.55-0.13-0.85-0.02c-1.63,0.59-3.23,0.38-4.79-0.2c-0.42-0.16-0.64-0.14-0.96,0.15c-1.98,1.86-6.25,2.39-8.89,1.13
			c-1.24-0.59-2.44-1.21-3.01-2.38c-0.16-0.33-0.39-0.33-0.76-0.21c-1.35,0.42-3.32-0.11-4.1-1.15c-0.48-0.64-0.9-0.8-1.82-0.48
			c-3.24,1.14-6.19,0.33-8.68-1.43c-2.57-1.82-2.93-3.76-1.63-6.38c0.35-0.7,0.98-1.21,1.76-1.59c0.29-0.14,0.63-0.21,0.93-0.07
			c0.41,0.2,0.5,0.03,0.58-0.26c0.08-0.28,0.18-0.57,0.31-0.84c0.96-2.11,2.65-2.9,5.33-2.51c0.23,0.03,0.46,0.07,0.69,0.11
			c0.72,0.15,1.17-0.02,1.59-0.59c1.12-1.53,2.42-2.93,4.8-3.14c1.93-0.17,3.78,0.11,5.44,0.96c1.01,0.51,1.74,0.52,2.74-0.13
			c2.18-1.43,5.66-1.41,8.08-0.13c0.4,0.21,0.85,0.39,1.16,0.67c0.65,0.59,1.14,0.34,1.76-0.05c2.84-1.8,7.6-1.81,10.48-0.04
			c0.35,0.22,0.61,0.25,1.03,0.11c1.05-0.35,2.2-0.38,3.19,0.02c1.48,0.59,2.93,1.29,3.61,2.65c0.15,0.31,0.39,0.34,0.69,0.29
			c2.48-0.48,4.41,0.51,6.27,1.63c0.85,0.51,1.04,1.39,1.2,2.14c0.25,1.24,0.3,2.5-0.58,3.68c-0.66,0.88-1.58,1.36-2.69,1.65
			c-0.39,0.1-0.61,0.2-0.68,0.53c-0.16,0.68-0.68,1.16-1.27,1.63C106.79,88.37,103.65,88.71,100.42,88.92z"/>
		<circle class="st16" cx="146.8" cy="80.91" r="9.14"/>
		<path class="st17" d="M132.19,75.53c0.11-0.24,0.22-0.48,0.33-0.72c-0.98,2.76-1.97,5.6-1.93,8.53c0.04,2.93,1.29,6.02,3.85,7.46
			c-0.21,0.19-0.42,0.38-0.63,0.56"/>
		<path class="st17" d="M128.03,72.8c-2.92,6.53-2.13,14.57,1.99,20.42"/>
		<path class="st17" d="M122.6,68.27c-3.85,9.65-2.54,21.19,3.37,29.74c0.56,0.81,1.17,1.85,0.65,2.69"/>
		<path class="st17" d="M116.41,62.02c-6.26,15.06-2.97,33.63,8.07,45.63"/>
		<path class="st17" d="M161.34,80.11c1.24,4.85-0.26,10.31-3.82,13.84"/>
		<path class="st17" d="M165.86,78.48c1.43,8.38-2.4,17.43-9.4,22.25"/>
		<path class="st17" d="M171.12,76.15c1.48,5.89,0.55,12.28-2.18,17.7c-2.73,5.43-7.17,9.91-12.36,13.07"/>
		<path class="st17" d="M178.87,75.22c1.6,8.01,0.3,16.56-3.61,23.74c-3.91,7.17-10.39,12.9-17.99,15.9"/>
		<path class="st17" d="M186.92,72.27c1.6,10.11-0.39,20.74-5.53,29.59s-13.4,15.84-22.98,19.45"/>
		<path class="st17" d="M108.01,57.89c-2.48,7.89-4.24,16.11-3.93,24.37s2.82,16.61,8.09,22.98c2.47,2.98,5.48,5.46,8.12,8.29"/>
		<path class="st4" d="M93.63,123.55c0.12-1.39,0.96-2.66,2.1-3.18c1.14-0.52,2.52-0.27,3.45,0.64c0.25,0.24,0.49,0.53,0.81,0.58
			c0.41,0.06,0.77-0.3,1.13-0.54c1.12-0.74,2.75-0.13,3.27,1.22c0.77-0.62,1.86-0.66,2.66-0.09c0.8,0.57,1.24,1.71,1.09,2.77
			c1.13,0.15,2.22,0.66,3.12,1.44c0.33,0.56-0.21,1.26-0.72,1.6c-1.4,0.91-3.09,1.26-4.68,0.96c-0.43-0.08-0.88-0.21-1.3-0.11
			c-0.31,0.08-0.59,0.27-0.88,0.43c-2,1.15-4.37,0.87-6.59,0.56c-2.29-0.31-4.58-0.63-6.86-0.94c-0.31-0.04-0.63-0.09-0.9-0.26
			c-0.78-0.51-0.66-2.1,0.19-2.44c0.34-0.14,0.71-0.09,1.07-0.14c0.98-0.14,1.83-1.1,1.96-2.22"/>
		<g>
			<path class="st17" d="M140.19,60.96c4.55-2.1,10.19-1.6,14.3,1.26"/>
			<path class="st17" d="M137.78,56.81c7.99-2.91,17.58-0.79,23.58,5.23"/>
			<path class="st17" d="M134.53,52.06c5.53-2.52,11.98-2.76,17.81-1.05c5.83,1.7,11.04,5.26,15.08,9.8"/>
			<path class="st17" d="M132.22,44.6c7.59-3.02,16.24-3.28,24-0.73c7.76,2.55,14.56,7.9,18.88,14.83"/>
			<path class="st17" d="M127.87,37.21c9.65-3.4,20.47-3.36,30.1,0.1s18,10.33,23.27,19.09"/>
		</g>
		<path class="st18" d="M109.68,147.09c25.75-5.15,52.55-3.18,78.28-8.41c7.23-1.47,14.35-3.5,21.64-4.67
			c12.39-1.99,25.19-1.42,37.35,1.65c-4.25,1.23-8.5,2.47-12.75,3.7c-1.41,0.41-3.11,1.15-3.18,2.6c-0.05,1,0.72,1.82,1.44,2.52
			c1.89,1.84,3.78,3.67,5.68,5.51c-7.12,3.91-15.4,5.74-23.53,5.19c-2.3-0.15-5.64,0.51-5.25,2.75c0.55,3.09-1.71,6.13-4.54,7.56
			c-2.83,1.43-6.11,1.62-9.29,1.78c-25.49,1.28-52.36,2.29-75.07-9.21c-5.17-2.62-10.13-5.96-13.42-10.68
			c-0.3-0.44-0.88-0.84-1.34-0.57s0.2,1.17,0.45,0.7"/>
		<path class="st1" d="M32.49,139.07c27.56-5.06,55.69,2.6,82.79,9.67c26.15,6.83,52.43,13.18,78.82,19.05
			c9.14,2.03,18.37,4.02,27.74,4.3c12.43,0.37,25.04-2.25,37.22,0.25c2.16,0.44,4.87,2.28,3.74,4.15c-0.85,1.42-2.98,1.04-4.65,1.19
			c-2.21,0.19-4.22,1.77-4.93,3.84c-0.24,0.71-0.36,1.52-0.9,2.05c-0.47,0.46-1.15,0.62-1.79,0.76c-6.19,1.34-12.38,2.68-18.56,4.02
			c2.38,1.52,4.76,3.04,7.13,4.56c-2.4,0.47-4.79,2.45-7.21,2.75c-26.49,3.31-54.36-5.49-82.39-4.71
			c-5.04,0.14-9.84-1.02-14.88-0.75c-8,0.42-17.37,0.33-25.36,0.75c-9.07,0.48-17.97-4.98-27.03-4.27
			c-4.9,0.38-9.88,0.83-14.71-0.05c-7.13-1.3-13.65-5.59-17.61-11.58c-0.83-1.26-1.58-2.62-2.74-3.6c-1.65-1.39-3.91-1.81-5.87-2.74
			c-6.01-2.85-8.57-10.63-6.55-16.91c2.02-6.27,7.75-10.9,14.06-13.02"/>
		<path class="st4" d="M191.73,117.86c2.07-0.16,4.19-0.19,6.15-1.18c0.89-0.45,1.14-1.21,0.86-2.14c-0.26-0.85-1.22-1.51-2.02-1.31
			c-0.43,0.11-0.63-0.02-0.82-0.4c-0.86-1.69-2.33-2.18-4-2.23c-1.01-0.03-1.96,0.25-2.92,0.55c-0.72,0.23-1.22,0.59-1.41,1.4
			c-0.16,0.71-0.42,0.71-0.95,0.24c-1.06-0.95-3.61-0.6-4.33,0.61c-0.39,0.65-0.52,0.46-0.9,0.02c-0.74-0.85-1.68-1.58-2.79-1.19
			c-0.68,0.24-0.92,0.03-1.27-0.43c-0.55-0.71-1.22-1.25-2.14-1.22c-1.49,0.05-2.89,0.46-4.12,1.38c-0.63,0.47-1.17,1.05-0.98,1.98
			c0.17,0.83-0.03,1.17-0.91,1.21c-1.22,0.05-1.81,0.99-1.58,2.27c0.29,1.65,0.96,2.2,2.54,1.95c0.83-0.13,1.62-0.52,2.45-0.59
			c3.53-0.32,7.09-0.05,10.6-0.65c0.12-0.02,0.25,0,0.37,0.04c1.72,0.52,3.38,0.25,4.99-0.5c0.33-0.15,0.66-0.14,1-0.09
			C190.26,117.69,190.97,117.76,191.73,117.86z"/>
		<path class="st4" d="M143.3,87.17c-0.87,1.01-1.41,1.91-1.88,2.86c-1.84,3.66-3.73,7.28-5,11.22c-1.28,3.99-3.06,7.83-4.65,11.73
			c-3.46,8.48-6.66,17.07-10.33,25.47c-0.66,1.52-0.73,3.12-0.58,4.73c0.06,0.64,0.31,1.41,1.18,1.25c0.79-0.14,1.59-0.31,2.25-0.93
			c1.27-1.2,2.2-2.62,3.03-4.11c2.63-4.73,5.21-9.48,7.83-14.22c3.19-5.76,5.98-11.69,8.11-17.92c0.44-1.3,1.24-2.48,1.79-3.76
			c0.9-2.05,0.5-4.05-0.65-5.65c-1.16-1.62-1.22-3.25-1.19-5.02C143.24,91.03,143.54,89.24,143.3,87.17z"/>
		<path class="st4" d="M101.19,27.54c-1.29-0.06-2.4,1.25-2.15,2.24c0.2,0.8,0.52,1.55,1,2.24c1.56,2.26,3.22,4.45,4.96,6.57
			c4.9,5.98,9.8,11.95,14.75,17.89c2.92,3.51,5.72,7.13,9.01,10.33c1.45,1.41,2.97,2.03,4.96,1.34c1.47-0.51,2.78-0.09,4,0.8
			c1.12,0.82,2.09,1.79,3.09,2.74c0.81,0.78,1.52,0.68,2.08-0.3c0.42-0.74,0.46-1.47-0.19-2.17c-4.49-4.84-8.89-9.77-13.61-14.39
			c-6.73-6.6-13.25-13.4-19.73-20.25c-1.98-2.1-4-4.17-6.2-6.05C102.5,27.98,101.79,27.58,101.19,27.54z"/>
		<path class="st4" d="M211.54,59.62c-0.01-0.82-0.26-1.24-0.72-1.56c-0.68-0.46-1.44-0.63-2.24-0.73
			c-2.37-0.27-4.69-0.06-7.02,0.41c-3.9,0.8-7.74,1.82-11.63,2.66c-7.75,1.66-15.56,2.98-23.32,4.59c-1.19,0.25-2.37,0.51-3.49,0.95
			c-1.3,0.51-2.33,1.25-2.78,2.68c-0.45,1.43-1.35,2.57-2.56,3.53c-1.24,0.99-2.63,1.63-4.11,2.13c-0.49,0.17-1.03,0.35-1.04,0.98
			c-0.02,1.17,1.21,2.14,2.33,1.77c5-1.64,10.14-2.77,15.2-4.19c10.79-3.04,21.57-6.11,32.34-9.19c2.59-0.74,5.24-1.31,7.67-2.53
			C210.91,60.73,211.48,60.25,211.54,59.62z"/>
		<path class="st4" d="M146.38,77.93c-0.96-0.31-2.02,0.37-2.46,1.27c-0.45,0.89-0.45,1.93-0.43,2.93
			c0.35,30.6-1.07,61.22-4.26,91.65c-0.39,3.74-0.79,7.62,0.49,11.16c3.43,1.12,7.18,1.27,10.69,0.44c0.6-0.14,1.24-0.34,1.61-0.83
			c0.36-0.47,0.39-1.1,0.4-1.69c0.74-31.77,0.04-63.57-2.09-95.28c-0.11-1.58-0.18-3.28,0.72-4.59c0.3-0.44,0.71-0.82,0.86-1.33
			c0.16-0.53,0.01-1.1-0.23-1.59c-0.74-1.5-2.43-2.49-4.12-2.41c-1.69,0.07-3.28,1.2-3.89,2.76"/>
		<path class="st18" d="M42.98,194.8c24.67-2.69,49.34-5.38,74.01-8.06c2.56-0.28,5.79-1.21,5.98-3.74
			c1.02,1.33,2.04,2.65,3.07,3.98c1.05-1.58,1.55-3.52,1.38-5.4c1.37,1.75,2.74,3.5,4.11,5.25c1.41-3.09,1.44-6.77,0.07-9.89
			c0.93,3.1,1.87,6.21,2.8,9.31c-0.64-3.64-0.42-7.42,0.64-10.96c1.6,3.75,3.2,7.51,4.8,11.26c0.42-1.29,0.84-2.58,1.26-3.87
			c0.54,1.06,1.08,2.11,1.62,3.17c0.25-3.26,1.33-6.45,3.1-9.21c0.75,3.56,1.49,7.13,2.24,10.69c0.56-0.94,1.12-1.89,1.68-2.83
			c0.45,0.82,0.9,1.64,1.36,2.46c3.06-2.26,4.63-6.33,3.87-10.02c0.71,2.87,1.76,5.66,3.12,8.3c0.86-0.5,1.72-1,2.58-1.5
			c0.43,0.99,0.85,1.98,1.28,2.97c1.11-1.14,2.23-2.28,3.34-3.42c0.03,0.98,0.06,1.96,0.08,2.95c1.22-0.5,2.43-1,3.65-1.5
			c5.03,1.83,10.2,3.27,15.46,4.3c14.91,2.9,30.24,2.45,45.4,3.39c11.56,0.72,23.08,2.26,34.42,4.6c-2.94,2.49-7.19,2.56-11.07,2.48
			c-28.35-0.55-56.57-2.87-84.7-4.68c-11.91-0.76-24.14,0-36.08,0c-28.7,0-57.4,0-86.1,0C45.23,194.8,44.1,194.8,42.98,194.8"/>
	</g>
	<g id="_x33_IeJL1_1_">
		<g>
			<path d="M139.43,187.19c-0.27-0.66-0.12-1.35-0.17-2.03c-0.04-0.49,0.26-1.13-0.64-1.23c-0.27-0.03-0.16-0.41-0.16-0.63
				c0-0.65,0.04-1.3,0.04-1.95c0.04-8.84,0.94-17.66,0.89-26.51c0-0.7-0.17-1.03-0.86-1.06c-2.69-0.1-5.33-0.62-7.98-1.05
				c-2.83-0.46-5.64-1.07-8.46-1.6c-1.2-0.23-2.35-0.58-3.39-1.23c-1.23-0.76-2.67-0.94-4.03-1.32c-3.26-0.91-6.52-1.86-9.86-2.47
				c-0.41-0.07-0.81-0.19-1.22,0.01c-0.16,0.08-0.41,0.11-0.47-0.05c-0.33-0.84-1.13-0.7-1.76-0.83c-3.92-0.83-7.84-1.74-11.79-2.38
				c-2.33-0.38-4.59-0.96-6.86-1.58c-3.01-0.82-6.16-0.85-9.25-1.23c-5.54-0.69-11.12-0.73-16.68-1.15
				c-3.41-0.26-6.86-0.07-10.28-0.1c-5.35-0.05-10.63,0.76-15.96,0.84c-0.58,0.01-1.2-0.03-1.68,0.4c-0.23,0.2-0.46,0.38-0.68,0.06
				c-0.23-0.33-0.16-0.68,0.21-0.87c0.27-0.14,0.59-0.2,0.89-0.26c1.16-0.24,2.34-0.21,3.52-0.25c3.98-0.11,7.95-0.49,11.91-0.83
				c2.77-0.24,5.53-0.5,8.28-0.31c6.14,0.43,12.3,0.59,18.45,1.01c3.25,0.22,6.48,0.52,9.68,1.06c2.24,0.38,4.36,1.35,6.63,1.66
				c6.18,0.84,12.19,2.49,18.27,3.8c1.32,0.29,2.62,0.21,3.98-0.16c1.55-0.41,3.19-0.59,4.83-0.64c1.32-0.04,2.62-0.12,3.91-0.46
				c0.8-0.22,1.15-0.76,1.14-1.48c-0.04-2.26,0.5-4.36,1.34-6.46c5.75-14.44,11.44-28.9,17.14-43.36c0.27-0.68,0.56-1.31,1.2-1.75
				c0.57-0.39,0.83-1,1.02-1.63c0.44-1.47,1.36-2.51,2.75-3.15c0.37-0.17,0.54-0.34,0.47-0.85c-0.21-1.61-0.22-1.79-1.2-3.35
				c-0.17-0.27-0.11-0.6-0.08-0.9c0.21-2.18,1.38-3.53,3.51-4.05c2.02-0.49,5.35,1.99,5.36,4.06c0,1.05-0.03,2.13-0.66,3.07
				c-0.18,0.28-0.2,0.56-0.18,0.88c0.21,3.51-0.01,7.04,0.65,10.52c0.03,0.17,0.03,0.34,0.02,0.51c-0.04,5.58,0.52,11.11,1.05,16.66
				c0.34,3.61,0.44,7.23,0.39,10.85c-0.07,5.68,0.19,11.35,0.27,17.02c0.02,1.35,0.05,1.42,1.37,1.24
				c5.21-0.71,10.47-0.96,15.69-1.59c4.47-0.54,8.93-1.09,13.39-1.64c4.78-0.59,9.45-1.8,14.17-2.67c6.5-1.19,12.91-2.82,19.5-3.51
				c2.48-0.26,4.98-0.25,7.47-0.29c6.18-0.1,12.3,0.66,18.43,1.12c4.26,0.32,8.51,0.27,12.77,0.27c0.21,0,0.42-0.04,0.62-0.02
				c0.18,0.01,0.34,0.11,0.37,0.3c0.04,0.25-0.12,0.38-0.35,0.42c-0.17,0.03-0.34,0.05-0.52,0.05c-5.57,0.01-11.13-0.03-16.71-0.54
				c-7.2-0.65-14.43-1.25-21.67-0.52c-4.93,0.5-9.78,1.46-14.62,2.5c-5.99,1.28-12,2.49-18.04,3.49c-4.74,0.78-9.55,1.13-14.32,1.79
				c-5.25,0.73-10.56,0.82-15.79,1.65c-0.75,0.12-1.72,1.16-1.7,1.89c0.07,3.49,0.16,6.97,0.19,10.46c0.01,0.65,0.15,0.89,0.87,1.04
				c1.24,0.25,2.45,0.71,3.62,1.16c3.12,1.19,6.37,1.84,9.56,2.75c5.15,1.47,10.33,2.8,15.55,4c5.69,1.31,11.36,2.69,17.1,3.79
				c3.25,0.62,6.4,1.75,9.66,2.32c3.5,0.62,7.08,0.79,10.61,1.28c4.22,0.58,8.47,0.85,12.68,1.5c2.6,0.4,5.25,0.18,7.87-0.14
				c1.65-0.2,3.32-0.13,4.98,0.02c0.28,0.03,0.63,0.04,0.62,0.4c-0.01,0.37-0.37,0.35-0.64,0.34c-2.74-0.12-5.46,0.12-8.19,0.35
				c-3.3,0.27-6.55-0.4-9.81-0.85c-2.26-0.31-4.6-0.79-6.8-0.62c-3.93,0.31-7.67-0.56-11.42-1.18c-5.41-0.91-10.7-2.51-16.08-3.63
				c-4.16-0.87-8.29-1.87-12.42-2.83c-3.72-0.87-7.49-1.63-11.12-2.88c-1.43-0.49-2.93-0.79-4.41-1.17c-3.58-0.91-7.2-1.7-10.8-2.51
				c-1.29-0.29-1.35-0.22-1.35,1.07c0.01,5.85,0.21,11.69,0.54,17.53c0.07,1.18-0.24,2.37,0.12,3.82c0.73-1.95,1.37-3.66,2.01-5.38
				c0.28-0.77,0.54-1.55,0.82-2.32c0.08-0.22,0.16-0.52,0.48-0.43c0.32,0.09,0.23,0.4,0.16,0.61c-0.74,2.17-0.69,4.45-0.98,6.68
				c-0.24,1.84-0.23,3.68-0.21,5.53c0,0.37,0,0.73-0.17,1.1c-0.55-3.39-0.02-6.76,0.16-10.16c-1.36,3.16-2.72,6.31-2.77,9.85
				c-0.49-0.9-0.32-1.82-0.16-2.73c0.07-0.4,0.39-0.87-0.43-0.92c-0.36-0.02-0.21-0.45-0.22-0.69c-0.19-3.1-0.27-6.22-0.58-9.31
				c-1.13-11.29-0.75-22.6-0.71-33.91c0.02-6.46-0.24-12.92-0.46-19.38c-0.15-4.51-0.3-9.02-0.56-13.52
				c-0.15-2.55-0.59-5.09-0.76-7.64c-0.17-2.73-0.17-5.46-0.25-8.19c-0.03-1.2-0.09-2.39-0.12-3.59c-0.01-0.5-0.07-0.74-0.71-0.58
				c-1.33,0.32-2.59-0.09-3.87-0.69c-0.03,0.79-0.11,1.4,0.38,2.09c0.67,0.94,0.29,2.03-0.02,3.06c-0.86,2.78-0.87,5.53,0.95,7.93
				c0.97,1.28,1.01,2.46,0.53,3.83c-0.25,0.71-0.42,1.46-0.78,2.12c-1.46,2.66-1.46,5.56-1.54,8.44c-0.13,4.61-0.61,9.2-1.07,13.79
				c-1.41,13.95-1.68,27.97-2.27,41.97c-0.16,3.86-0.37,7.72-0.62,11.57c-0.12,1.88,0.26,3.67,0.79,5.45
				c0.09,0.29,0.38,0.59,0.03,1.01c-0.42-0.48-0.48-1.06-0.66-1.59c-0.06-0.19-0.09-0.45-0.36-0.41c-0.27,0.04-0.23,0.29-0.25,0.49
				c-0.1,0.9,0.22,1.84-0.29,2.7L139.43,187.19z M143.14,86.97c-0.87,1.01-1.41,1.91-1.88,2.86c-1.84,3.66-3.73,7.28-5,11.22
				c-1.28,3.99-3.06,7.83-4.65,11.73c-3.46,8.48-6.66,17.07-10.33,25.47c-0.66,1.52-0.73,3.12-0.58,4.73
				c0.06,0.64,0.31,1.41,1.18,1.25c0.79-0.14,1.59-0.31,2.25-0.93c1.27-1.2,2.2-2.62,3.03-4.11c2.63-4.73,5.21-9.48,7.83-14.22
				c3.19-5.76,5.98-11.69,8.11-17.92c0.44-1.3,1.24-2.48,1.79-3.76c0.9-2.05,0.5-4.05-0.65-5.65c-1.16-1.62-1.22-3.25-1.19-5.02
				C143.09,90.82,143.38,89.03,143.14,86.97z M126.11,143.08c0.3,0,0.64-0.01,0.98,0c3.86,0.13,7.66-0.55,11.48-0.92
				c1.68-0.16,1.66-0.23,1.8-1.97c0.21-2.65,0.42-5.31,0.7-7.96c0.67-6.36,1.01-12.73,1.21-19.12c0.01-0.2,0.16-0.48-0.21-0.61
				C137.71,123.16,131.66,132.93,126.11,143.08z M110.59,146.05c-0.01,0.06-0.02,0.13-0.02,0.19c2.39,0.64,4.81,1.22,7.17,1.95
				c6.88,2.11,13.85,3.8,21.04,4.49c0.54,0.05,0.72,0,0.75-0.58c0.12-2.49,0.3-4.98,0.43-7.46c0.07-1.26,0.03-1.31-1.23-1.07
				c-2.28,0.43-4.58,0.64-6.91,0.58c-1.73-0.05-3.47-0.08-5.18,0.17c-1.08,0.16-2.23,0-3.18,0.87c-0.51,0.46-1.45,0.66-2.06,0.25
				c-1.15-0.79-2.22-0.68-3.38-0.16c-0.15,0.07-0.34,0.07-0.51,0.09C115.2,145.6,112.9,145.82,110.59,146.05z M143.59,81.31
				c0.04,1.12,0.88,1.81,1.97,2.32c1.09,0.51,2.15,0.96,3.28,0.04c1.56-1.28,1.72-2.92,0.38-4.45c-0.79-0.9-2.56-1.39-3.69-1.02
				C144.52,78.53,143.61,79.89,143.59,81.31z"/>
			<path d="M97.66,29.95c0.01-0.99,0.02-1.98,0.9-2.7c1.82-1.49,2.67-1.1,4.68,0.35c1.9,1.38,3.52,3.09,5.1,4.8
				c9.24,10,19.02,19.5,28.45,29.32c1.67,1.74,3.23,3.56,4.92,5.28c0.76,0.78,1.71,1.36,2.19,2.4c0.44,0.94,0,2.36-1.08,3.24
				c-0.86,0.7-1.67,0.49-2.43-0.16c-1.05-0.89-2.08-1.8-3.1-2.72c-1.12-1.01-2.39-1.38-3.82-0.81c-1.37,0.55-2.76,0.28-4.08-0.01
				c-0.67-0.15-1.24-0.91-1.79-1.45c-2.95-2.9-5.57-6.08-8.1-9.33c-3.12-4.01-6.54-7.79-9.76-11.72c-3.61-4.41-7.62-8.49-10.9-13.16
				C98.14,32.28,97.66,31.2,97.66,29.95z M101.03,27.33c-1.29-0.06-2.4,1.25-2.15,2.24c0.2,0.8,0.52,1.55,1,2.24
				c1.56,2.26,3.22,4.45,4.96,6.57c4.9,5.98,9.8,11.95,14.75,17.89c2.92,3.51,5.72,7.13,9.01,10.33c1.45,1.41,2.97,2.03,4.96,1.34
				c1.47-0.51,2.78-0.09,4,0.8c1.12,0.82,2.09,1.79,3.09,2.74c0.81,0.78,1.52,0.68,2.08-0.3c0.42-0.74,0.46-1.47-0.19-2.17
				c-4.49-4.84-8.89-9.77-13.61-14.39c-6.73-6.6-13.25-13.4-19.73-20.25c-1.98-2.1-4-4.17-6.2-6.05
				C102.35,27.77,101.64,27.38,101.03,27.33z"/>
			<path d="M151.15,75.02c-0.19-0.76,0.19-1.14,1.06-1.49c2.36-0.98,4.62-2.17,6.33-4.16c0.41-0.48,0.78-0.98,0.93-1.59
				c0.41-1.69,1.59-2.63,3.19-3.05c2.13-0.56,4.26-1.16,6.5-1.22c0.65-0.02,1.28-0.26,1.93-0.39c8.43-1.62,16.87-3.14,25.21-5.15
				c2.49-0.6,4.97-1.23,7.51-1.56c1.73-0.23,3.45-0.17,5.18,0.05c0.56,0.07,1.09,0.22,1.58,0.48c0.94,0.5,1.63,1.17,1.58,2.32
				c-0.05,1.08-0.7,1.74-1.6,2.22c-2.7,1.43-5.62,2.32-8.54,3.18c-6.33,1.88-12.71,3.6-19.02,5.55c-5.16,1.59-10.46,2.65-15.67,4.03
				c-4.28,1.13-8.54,2.34-12.78,3.62C152.82,78.38,150.75,77.08,151.15,75.02z M211.39,59.42c-0.01-0.82-0.26-1.24-0.72-1.56
				c-0.68-0.46-1.44-0.63-2.24-0.73c-2.37-0.27-4.69-0.06-7.02,0.41c-3.9,0.8-7.74,1.82-11.63,2.66
				c-7.75,1.66-15.56,2.98-23.32,4.59c-1.19,0.25-2.37,0.51-3.49,0.95c-1.3,0.51-2.33,1.25-2.78,2.68
				c-0.45,1.43-1.35,2.57-2.56,3.53c-1.24,0.99-2.63,1.63-4.11,2.13c-0.49,0.17-1.03,0.35-1.04,0.98c-0.02,1.17,1.21,2.14,2.33,1.77
				c5-1.64,10.14-2.77,15.2-4.19c10.79-3.04,21.57-6.11,32.34-9.19c2.59-0.74,5.24-1.31,7.67-2.53
				C210.76,60.53,211.33,60.04,211.39,59.42z"/>
			<path d="M123.92,183.64c0,0.54-0.03,1.08,0.01,1.62c0.08,1.02-0.48,1.47-1.4,1.67c-1.77,0.39-3.57,0.46-5.37,0.47
				c-5.69,0.02-11.32,0.6-16.98,1.13c-3.16,0.3-6.31,0.82-9.51,0.78c-2.11-0.03-4.19,0.53-6.26,0.86c-2.36,0.38-4.69,0.15-7.03,0.18
				c-2.81,0.05-5.55,0.69-8.33,1.02c-2.89,0.34-5.82,0.23-8.68,0.78c-4.73,0.92-9.53,0.49-14.29,0.83
				c-5.47,0.39-10.87,1.07-15.95,3.31c-0.16,0.07-0.31,0.14-0.47,0.22c-0.28,0.14-0.59,0.59-0.84,0.09c-0.25-0.5,0.23-0.77,0.61-0.9
				c1.87-0.63,3.64-1.49,5.57-1.97c5.14-1.26,10.37-1.66,15.64-1.68c3.47-0.01,6.91-0.3,10.34-0.8c2.08-0.3,4.21-0.34,6.31-0.56
				c3.26-0.35,6.53-0.68,9.74-1.41c0.86-0.2,1.79-0.13,2.69-0.14c3.75-0.07,7.42-0.84,11.14-1.2c4.82-0.48,9.67-0.75,14.46-1.41
				c5.78-0.79,11.59-0.86,17.4-0.98c0.6-0.01,0.79-0.2,0.76-0.77c-0.03-0.78-0.01-1.57,0-2.36c0-0.19-0.05-0.45,0.21-0.52
				c0.33-0.09,0.39,0.2,0.47,0.41c0.63,1.56,1.37,3.06,2.68,4.2c0.12,0.11,0.21,0.18,0.07,0.31c-0.23,0.21-0.47,0.12-0.63-0.09
				c-0.48-0.63-0.94-1.27-1.39-1.92c-0.27-0.39-0.48-0.82-0.72-1.23C124.09,183.61,124.01,183.63,123.92,183.64z"/>
			<path d="M169.96,185.26c-0.29,0.09-0.28,0.29-0.36,0.43c-0.41,0.82-1,0.87-1.53,0.12c-0.17-0.25-0.27-0.55-0.4-0.83
				c-0.13-0.27-0.14-0.6-0.47-0.8c-0.73,0.53-0.38,1.54-1.03,2.3c-0.14-1.15,0.15-2.03,0.7-2.8c0.33-0.46,0.66-0.19,0.85,0.21
				c0.23,0.5,0.41,1.02,0.63,1.52c0.1,0.22,0.25,0.44,0.54,0.41c0.25-0.02,0.27-0.27,0.36-0.45c0.48-1.06,0.57-1.07,1.24-0.15
				c0.12,0.17,0.21,0.41,0.46,0.3c1.6-0.71,3.02,0.41,4.55,0.48c0.58,0.03,1.19,0.23,1.81,0.26c7.62,0.35,15.26,0.43,22.83,1.65
				c3.13,0.5,6.35,0.38,9.46,1.15c0.47,0.12,0.96,0.14,1.24,0.63c0.2,0.34,0.59,0.31,0.93,0.37c9.37,1.64,18.78,3.01,28.26,3.96
				c6.06,0.6,12.08,1.53,18.12,2.29c2.2,0.28,4.4,0.49,6.6,0.73c0.24,0.03,0.48,0.04,0.72,0.09c0.25,0.05,0.49,0.18,0.44,0.47
				c-0.05,0.3-0.32,0.33-0.57,0.31c-0.76-0.07-1.51-0.15-2.27-0.23c-6.16-0.62-12.29-1.55-18.44-2.29
				c-5.05-0.61-10.1-1.18-15.16-1.74c-5.2-0.57-10.33-1.57-15.48-2.4c-3.31-0.53-6.58-1.49-9.91-1.72c-5-0.34-9.91-1.52-14.95-1.49
				c-0.9,0.01-1.81-0.27-2.69-0.17c-3.35,0.37-6.58-0.58-9.89-0.69c-1.65-0.06-3.16-0.75-4.75-1.06
				C171.1,185.96,170.22,186.25,169.96,185.26z"/>
			<path d="M132.11,177.25c0.69,3.05,1.11,6.16,2.12,9.19c-0.3-0.95-1.31-0.65-1.83-1.17c-0.3,0.5,0.14,1.32-0.63,1.5
				c-0.45,0.11-0.71-0.3-0.75-0.78c0.78,0.14,0.78,0.14,0.8-0.67c0-0.17-0.01-0.34,0-0.51c0.03-0.29-0.13-0.69,0.24-0.82
				c0.4-0.15,0.47,0.3,0.66,0.51c0.06,0.07,0.15,0.1,0.4,0.26c-0.11-1.22-0.29-2.27-0.58-3.3c-0.68-2.44-1.11-4.94-1.54-7.43
				c-0.06-0.33-0.08-0.68-0.09-1.02c-0.01-0.2,0.03-0.45,0.29-0.46c0.27-0.01,0.3,0.26,0.31,0.45c0.06,1.8,0.89,3.37,1.59,4.95
				c0.94,2.11,1.65,4.28,2.29,6.48c0.08,0.27,0.3,0.56-0.14,1.06C134.37,182.6,133.65,179.77,132.11,177.25z"/>
			<path d="M139.42,187.16c-0.59,0.56-0.67-0.04-0.77-0.37c-0.82-2.61-1.96-5.11-2.65-7.76c-0.12-0.45-0.19-0.93-0.54-1.36
				c-0.19,2.68,1.3,5.15,0.92,7.86c-0.2-0.07-0.3-0.09-0.31-0.12c-0.61-4.11-1.22-8.22-1.79-12.34c-0.07-0.52-0.42-1.42,0.22-1.51
				c0.49-0.07,0.28,0.9,0.36,1.41c0.51,3.29,1.7,6.4,2.76,9.53c0.53,1.58,0.97,3.21,1.81,4.68
				C139.43,187.19,139.42,187.16,139.42,187.16z"/>
			<path d="M143.1,178.15c0.39,2.33,0.79,4.67,1.18,7c1.27-3.51,0.28-7.2,0.96-10.82c0.55,0.32,0.25,0.62,0.25,0.88
				c0,0.31-0.04,0.61-0.04,0.92c-0.02,2.12-0.01,4.23-0.05,6.35c-0.02,1.27-0.4,2.49-0.65,3.73c-0.04,0.22-0.05,0.54-0.36,0.54
				c-0.31,0-0.34-0.31-0.37-0.54c-0.3-1.75-0.58-3.5-0.87-5.26c-0.15-0.92-0.3-1.83-0.45-2.75
				C142.82,178.19,142.96,178.17,143.1,178.15z"/>
			<path d="M156.78,185.78c0.33-1.66,0.15-3.39,0.66-5.02c0.09-0.28,0.11-0.73,0.48-0.69c0.43,0.05,0.21,0.49,0.23,0.76
				c0.14,1.45,0.27,2.89,0.41,4.34c0.09,0,0.17,0,0.26,0c0.19-0.64,0.38-1.29,0.57-1.93c0.07-0.22,0.1-0.53,0.41-0.5
				c0.24,0.02,0.23,0.3,0.24,0.5c0.06,0.79,0.2,1.56,0.61,2.25c0.1,0.17,0.13,0.34-0.07,0.42c-0.19,0.08-0.32-0.07-0.41-0.22
				c-0.22-0.38-0.17-0.87-0.53-1.22c-0.34,0.27-0.29,0.67-0.38,1.01c-0.09,0.36-0.34,0.56-0.65,0.56c-0.35,0.01-0.37-0.36-0.41-0.61
				c-0.15-1.01-0.28-2.02-0.46-3.31C157.24,183.49,157.68,184.81,156.78,185.78z"/>
			<path d="M130.59,187.15c-1.03,0.07-1.06,0.01-1.65-1.42c-0.28-0.68-0.25-1.46-0.71-2.17c-0.4,2.83-0.4,2.83-1.08,2.86
				c0.61-0.56,0.51-1.24,0.52-1.89c0-1.3,0.03-2.59-0.18-3.88c-0.05-0.32-0.27-0.9,0.23-0.95c0.47-0.05,0.36,0.56,0.44,0.9
				c0.38,1.52,0.71,3.06,1.11,4.58C129.46,185.91,129.61,186.7,130.59,187.15z"/>
			<path d="M145.87,176.11c0.84,3.6,0.76,7.24,0.53,10.88C146.13,183.37,146.26,179.72,145.87,176.11z"/>
			<path d="M152.2,185.8c-0.56-0.39-0.26-0.92-0.55-1.34c-0.2,0.67-0.38,1.29-0.57,1.9c-0.07,0.23-0.18,0.46-0.48,0.45
				c-0.09,0-0.21-0.07-0.25-0.15c-0.12-0.25-0.01-0.41,0.2-0.6c0.48-0.41,0.41-1.05,0.55-1.6c0.12-0.46,0.19-0.94,0.31-1.39
				c0.05-0.19,0.18-0.39,0.44-0.35c0.25,0.03,0.33,0.25,0.33,0.45C152.21,184.01,152.2,184.85,152.2,185.8z"/>
			<path d="M141.94,186.5c0.1-2.41,0.02-4.82-0.01-7.45C142.57,180.2,142.58,185.14,141.94,186.5z"/>
			<path d="M162.7,183c-0.18,0.68-0.33,1.27-0.5,1.84c-0.09,0.28-0.2,0.7-0.61,0.48c-0.45-0.25,0.08-0.4,0.14-0.61
				c0.23-0.82,0.42-1.65,0.65-2.47c0.08-0.28,0.08-0.7,0.47-0.7c0.43,0,0.37,0.43,0.39,0.71c0.06,0.77,0.25,1.52,0.52,2.42
				C162.91,184.31,163.15,183.52,162.7,183z"/>
			<path d="M146.85,187.41c0.3-0.95,0.6-1.89,0.9-2.84c0.1,0.03,0.21,0.07,0.31,0.1c-0.16,0.99-0.39,1.96-0.91,2.85
				C147.05,187.47,146.95,187.44,146.85,187.41z"/>
			<path d="M149.35,186.07c-0.85-0.45-1.16-1.48-0.81-2.63C148.92,184.35,148.86,185.29,149.35,186.07z"/>
			<path d="M147.11,82.83c-1.23,0-2.03-0.81-2.04-2.06c-0.01-1.18,0.53-1.75,1.65-1.73c1.14,0.02,2.19,0.96,2.22,2.01
				C148.97,82.03,148.14,82.83,147.11,82.83z M145.84,80.68c0.01,0.73,0.58,1.34,1.21,1.36c0.63,0.02,0.96-0.35,1.03-0.92
				c0.07-0.58-0.71-1.27-1.37-1.28C146.1,79.84,145.86,80.19,145.84,80.68z"/>
		</g>
	</g>
</g>
</svg>
