<?xml version="1.0" encoding="utf-8"?>
<!-- Generator: Adobe Illustrator 23.0.2, SVG Export Plug-In . SVG Version: 6.00 Build 0)  -->
<svg version="1.1" id="line" xmlns="http://www.w3.org/2000/svg" xmlns:xlink="http://www.w3.org/1999/xlink" x="0px" y="0px"
	 viewBox="0 0 288 226.77" style="enable-background:new 0 0 288 226.77;" xml:space="preserve">
<style type="text/css">
	.st0{fill:#FF3A5B;}
	.st1{fill:#50E3C2;}
	.st2{fill:#FF8438;}
	.st3{fill:#FFDD4C;}
	.st4{fill:#FFFFFF;}
	.st5{fill:#925F36;}
	.st6{fill:#422918;}
	.st7{fill:#007EFF;}
	.st8{fill:#9C9B9B;}
	.st9{fill:#C6C6C5;}
	.st10{fill:#D9D9D9;}
	.st11{fill:#6F6F6E;}
	.st12{fill:#ECECEC;}
	.st13{fill:#97E6FC;}
	.st14{fill:#B1B1B1;}
	.st15{fill:#1D1D1B;}
	.st16{fill:#FFFFFF;stroke:#1D1D1B;stroke-width:0.5;stroke-miterlimit:10;}
	.st17{fill:none;stroke:#FFFFFF;stroke-linecap:round;stroke-linejoin:round;stroke-miterlimit:10;}
	.st18{fill:#A0ECD2;}
	.st19{fill:#C4F5FB;}
	.st20{fill:none;stroke:#FFFFFF;stroke-width:0.876;stroke-linecap:round;stroke-linejoin:round;stroke-miterlimit:10;}
	.st21{fill:none;}
	.st22{fill:#575756;}
	.st23{fill:#FFFFFF;stroke:#1D1D1B;stroke-width:0.9148;stroke-miterlimit:10;}
	.st24{fill:#9B5416;}
	.st25{fill:#868686;}
</style>
<g>
	<g>
		<path class="st0" d="M266.9,132.32c-0.81-4.08-2.47-7.8-4.51-11.32c-0.55-0.94-0.99-1.91-1.26-2.99
			c-0.29-1.14-0.58-2.28-1.46-3.15c-2.61-2.55-5.67-4.31-8.85-5.85c-2.89-1.4-6.08-1.81-9.04-3c-0.96-0.39-1.96-0.59-2.98-0.74
			c-4.65-0.71-9.35-0.72-14.03-1.04c-6.92-0.47-13.21-2.87-18.92-6.9c-8.45-5.97-17.37-10.98-26.62-15.29
			c-4.89-2.28-10.01-3.92-15.06-5.78c-11.2-4.13-22.65-6.01-34.45-5.9c-8.24,0.07-16.47,0.43-24.66,1.4
			c-4.07,0.49-8.15,0.78-12.21,1.45c-9.06,1.49-17.87,4.49-27.07,5.19c-2.02,0.15-4.01,0.14-5.99-0.13
			c-2.08-0.29-2.11-0.34-2.32,1.86c-0.02,0.22-0.13,0.44-0.19,0.66c-0.29,1.2,0.09,1.96,1.22,2.28c1.32,0.37,2.63,0.77,4.1,1.2
			c-0.62,1.07-1.22,1.83-1.92,2.51c-2.27,2.22-4.68,4.31-6.77,6.72c-2.12,2.45-4.55,4.69-5.45,8.16c-1.17,4.49-2.39,8.91-0.62,13.58
			c1.03,2.73,1.52,5.5-0.48,8.15c-2.24,2.96-2.42,6.56-2.5,10.19c-0.05,2.54,0.38,5.04,0.27,7.58c-0.07,1.59-0.52,3.33,1.55,4.53
			c-1.94,0.19-3.31-0.22-4.7-0.33c-0.67-0.05-1.48-0.2-1.5,0.93c-0.02,1.7-0.02,3.4,0.07,5.1c0.06,1.11,1.14,2.09,2.16,2.11
			c2.39,0.03,4.78,0.14,7.16,0.04c4.42-0.19,8.86-0.22,13.26-0.8c0.46-0.06,0.83-0.03,1.15,0.1c-0.49-2.13-0.75-4.37-0.75-6.69
			c0-13.62,8.97-24.66,20.04-24.66s20.04,11.04,20.04,24.66c0,5.54-1.48,10.65-3.99,14.77c0.7-0.67,1.36-1.41,1.94-2.27
			c0.98-1.46,1.62-3.09,2.33-4.8c1.3,2.95,2.45,3.5,5.34,2.78c0.53-0.13,1.1-0.09,1.65-0.09c15.24,0.12,30.47,0.25,45.71,0.37
			c15.53,0.12,31.07,0.24,46.6,0.36c1.65,0.01,2.11-0.43,2.31-2.19c0.02-0.17-0.11-0.45,0.29-0.53c0.39,1.34,1.03,2.51,1.78,3.62
			c-1.56-3.45-2.44-7.36-2.44-11.5c0-13.9,9.82-23.41,22-23.41s22.08,9.51,22.08,23.41c0,4.86-1.21,9.39-3.29,13.24
			c0.76-1.15,1.47-2.36,2.13-3.63c0.43-0.82,0.79-1,1.57-0.85c1.51,0.28,3,0.55,4.56,0.49c2.81-0.1,5.26-1.45,7.86-2.28
			c3.57-1.13,4.08-3.08,4.64-7.02c0.32-2.21,0.15-4.51,0.38-6.74C267.34,137.32,267.38,134.79,266.9,132.32z M186.71,95.01
			c-1.49,0.06-2.07,0.72-2.12,2.31c-0.02,0.69,0.06,1.39-0.03,2.07c-0.08,0.62,0.52,1.48-0.04,1.77c-0.63,0.33-1.42,0.61-2.22,0.41
			c-0.36-0.09-0.74-0.13-1.23-0.22c0.58-1.13,1.14-2.15,1.64-3.19c0.31-0.65,0.69-1.46-0.08-1.96c-0.78-0.51-1.38,0.1-1.8,0.79
			c-0.63,1.04-1.29,2.07-1.8,3.17c-0.42,0.92-0.93,1.31-1.88,1.18c-5.51-0.77-11.09-0.33-16.6-1.13c-3.69,0.82-7.48,0.54-11.02-1.31
			c-1.51-0.04-3.02-0.16-4.5-0.46c-0.88-0.18-1.47-0.84-1.43-2.08c0.13-3.9-0.37-7.81-0.09-11.72c0.11-1.53,0.58-3.02,0.02-4.61
			c-0.32-0.9,0.49-1.19,1.26-1.24c2.71-0.18,5.35,0.33,7.99,0.87c4.54,0.93,8.88,2.53,13.23,4.17c4.54,1.71,9.24,2.96,13.65,5.08
			c3.66,1.76,7.31,3.53,10.71,6.1C189.15,95,187.93,94.96,186.71,95.01z M249.97,122.42c-3.35-1.17-6.11-3.4-8.82-5.69
			c-1.02-0.86-2.09-1.57-3.19-2.27c-0.48-0.3-1.06-0.55-0.87-1.32c0.18-0.71,0.73-1.04,1.35-1.06c1.36-0.05,2.73-0.02,4.57-0.02
			c3.78-0.22,7.89,0.62,11.98,1.86c2.44,0.74,3.75,2.48,4.5,4.8c1.28,4.01,1.51,3.98-2.54,4
			C254.62,122.75,252.28,123.23,249.97,122.42z M262.94,136.58c-0.7,1.08-1.58,2.18-3,2.36c-1.77,0.23-2.9-0.54-3.87-2.74
			c-0.29-0.66-0.46-1.39-0.79-2.03c-0.3-0.59-0.72-1.12-1.14-1.74c0.49-0.28,0.9-0.02,1.2,0.16c1.93,1.16,4.03,1.33,6.17,1.34
			C263.1,133.94,263.84,135.18,262.94,136.58z"/>
		<path class="st4" d="M56.17,101.14c-1.11-0.33-1.82,0.34-2.15,1.56c-0.49,1.81-0.63,3.7-0.87,5.56c-0.06,0.44-0.01,0.82,0.58,0.8
			c1.57-0.07,3.15-0.1,4.73-0.13c0.67-0.01,0.96-0.4,1.11-1.08c0.26-1.16,0.59-2.3,0.92-3.44c0.12-0.42,0.24-1.02,0.8-0.82
			c0.48,0.17,0.27,0.69,0.17,1.08c-0.28,1.06-0.57,2.12-0.85,3.18c-0.16,0.61-0.01,0.83,0.63,0.72c1.31-0.23,2.9-2.11,2.96-3.55
			c0.02-0.54-0.23-0.84-0.61-1.11C61.37,102.33,59.01,101.24,56.17,101.14z"/>
		<path class="st4" d="M53.44,101.19c-0.88-0.1-1.68-0.16-2.47-0.3c-1.15-0.2-1.63,0.39-1.76,1.55c-0.13,1.18-0.24,2.38-0.5,3.53
			c-0.7,3.04-0.45,3.41,2.39,3.28c0.64-0.03,0.95-0.16,1.05-0.97C52.42,105.93,52.57,103.54,53.44,101.19z"/>
		<g>
			<path class="st4" d="M106.67,109.05c0,0.04,0,0.08,0,0.13c-1.36,0-2.73-0.04-4.09,0.02c-0.47,0.02-1.29-0.25-1.2,0.73
				c0.06,0.7,0.24,1.44,1.22,1.42c1.49-0.03,2.98,0.08,4.47,0.09c1.19,0.01,2.38,0,3.58-0.04c1.1-0.04,0.95-1.01,1-1.73
				c0.06-0.83-0.61-0.59-1.02-0.6C109.31,109.03,107.99,109.05,106.67,109.05z"/>
			<path class="st4" d="M158.06,114.92c0-0.09,0-0.19,0-0.28c1.4,0,2.8,0.01,4.21,0c0.41,0,0.76-0.13,0.81-0.67
				c0.04-0.54-0.29-0.72-0.69-0.81c-0.29-0.06-0.59-0.12-0.88-0.14c-2.42-0.1-4.84-0.19-7.27-0.26c-0.53-0.02-1.14-0.15-1.1,0.84
				c0.04,0.82,0.26,1.33,1.1,1.32C155.51,114.91,156.79,114.92,158.06,114.92z"/>
		</g>
	</g>
	<g id="lpiLD2_1_">
		<g>
			<path d="M62.11,83.87c-1.47-0.43-2.78-0.83-4.1-1.2c-1.13-0.32-1.52-1.08-1.22-2.28c0.05-0.22,0.17-0.43,0.19-0.66
				c0.2-2.19,0.24-2.15,2.32-1.86c1.98,0.28,3.97,0.29,5.99,0.13c9.2-0.7,18.01-3.7,27.07-5.19c4.06-0.67,8.14-0.96,12.21-1.45
				c8.19-0.98,16.41-1.33,24.66-1.4c11.81-0.1,23.25,1.77,34.45,5.9c5.04,1.86,10.17,3.5,15.06,5.77
				c9.25,4.31,18.16,9.32,26.62,15.29c5.71,4.03,12,6.43,18.92,6.9c4.68,0.32,9.37,0.33,14.03,1.04c1.02,0.16,2.02,0.35,2.98,0.74
				c2.96,1.19,6.14,1.6,9.04,3c3.18,1.54,6.24,3.3,8.85,5.85c0.89,0.87,1.18,2.01,1.46,3.15c0.27,1.08,0.71,2.05,1.26,2.99
				c2.05,3.52,3.71,7.24,4.51,11.32c0.49,2.48,0.44,5.01,0.17,7.55c-0.24,2.23-0.07,4.52-0.38,6.74c-0.56,3.95-1.07,5.89-4.64,7.02
				c-2.6,0.83-5.05,2.18-7.86,2.28c-1.56,0.06-3.06-0.21-4.56-0.49c-0.78-0.14-1.14,0.03-1.57,0.85
				c-3.48,6.62-8.18,11.83-15.18,13.88c-2.88,0.85-5.95,0.47-8.89-0.16c-6.53-1.4-11.56-5.36-15.7-10.83
				c-1.06-1.4-1.99-2.87-2.5-4.62c-0.39,0.09-0.26,0.36-0.29,0.53c-0.21,1.76-0.67,2.21-2.31,2.19c-15.53-0.12-31.07-0.24-46.6-0.36
				c-15.24-0.12-30.47-0.25-45.71-0.37c-0.55,0-1.12-0.04-1.65,0.09c-2.89,0.72-4.04,0.16-5.34-2.78c-0.71,1.7-1.35,3.33-2.33,4.8
				c-1.96,2.92-4.76,4.56-7.59,6.16c-4.35,2.46-9.11,2.58-13.74,1.63c-2.99-0.61-5.85-2.06-8.47-4.03c-2.94-2.21-4.6-5.36-6.38-8.47
				c-0.59-1.03-1.17-1.34-2.24-1.2c-4.4,0.57-8.84,0.6-13.26,0.8c-2.38,0.1-4.78-0.01-7.16-0.04c-1.02-0.01-2.1-1-2.16-2.11
				c-0.09-1.7-0.09-3.4-0.07-5.1c0.01-1.13,0.83-0.98,1.5-0.93c1.39,0.11,2.76,0.52,4.7,0.33c-2.07-1.21-1.62-2.94-1.55-4.53
				c0.11-2.54-0.33-5.04-0.27-7.58c0.08-3.64,0.26-7.24,2.5-10.19c2.01-2.65,1.52-5.42,0.48-8.15c-1.77-4.68-0.55-9.09,0.62-13.58
				c0.9-3.47,3.34-5.71,5.45-8.16c2.09-2.41,4.5-4.5,6.77-6.72C60.88,85.7,61.49,84.94,62.11,83.87z M50.76,99.22
				c1.04,0.22,2.08,0.43,3.15,0.35c3.85-0.3,7.33,0.82,10.52,3.1c1.26,0.9,1.58,1.94,0.97,3.42c-0.88,2.15-2.02,3.91-4.53,4.05
				c-0.82,0.05-1.62,0.32-2.51,0.31c-2.55-0.03-5.11,0.24-7.66,0.32c-2.96,0.09-2.97,0.07-2.13,3.15c0.14,0.53,0.18,1.11,0.4,1.59
				c1.52,3.23,0.51,6.04-1.2,8.75c-0.05,0.08-0.08,0.16-0.13,0.24c-1.25,1.76-1.53,3.81-1.76,5.95c-0.44,4.01,0.33,7.99,0.08,11.99
				c-0.02,0.31-0.06,0.65,0.23,0.88c1.49,1.22,2.61,2.88,4.24,3.94c3.09,2,6.28,3.47,10.01,3.08c1.97-0.21,2.13-0.35,1.78-2.41
				c-0.11-0.67-0.13-1.37-0.09-2.06c0.11-2.02,0.21-4.04,0.41-6.05c0.67-6.71,3.72-11.97,8.96-15.48
				c6.47-4.33,13.45-4.03,20.41-1.45c2.4,0.89,4.81,2.1,6.54,4.19c2.01,2.42,3.77,5.04,4.75,8.22c1.28,4.19,2.31,8.38,1.48,12.83
				c-0.05,0.26-0.03,0.55,0.03,0.81c0.25,1.26,0.48,2.51,0.51,3.81c0.04,1.6,1.1,2.44,2.51,1.95c0.8-0.28,1.59-0.31,2.39-0.31
				c30.43,0.25,60.86,0.49,91.29,0.74c0.34,0,0.68,0.01,1.02,0c0.62-0.02,0.97-0.33,0.91-1.03c-0.32-3.59,0.63-7.02,0.99-10.53
				c1.03-10.05,10.84-20.27,19.91-21.06c3.23-0.28,6.47-0.71,9.68,0.17c4.02,1.1,6.96,3.85,9.68,7.1
				c5.46,6.55,7.23,13.99,5.14,22.51c-0.07,0.27-0.13,0.53-0.18,0.8c-0.08,0.49,0.07,0.75,0.58,0.83c1.81,0.29,3.58,0.59,5.46,0.41
				c2.45-0.25,4.52-1.66,6.83-2.21c2.65-0.63,3.34-2.87,3.7-5.16c0.48-3.07,0.26-6.23,0.59-9.34c0.59-5.5-1.66-10.22-3.7-14.97
				c-0.1-0.24-0.22-0.52-0.6-0.51c-0.07,1.33-0.87,1.53-1.94,1.53c-1.45-0.01-2.9,0.1-4.34,0.21c-3.1,0.24-5.97-0.35-8.73-2.03
				c-3.35-2.04-6.12-4.98-9.52-6.93c-1.03-0.59-0.99-2.35-0.06-3.23c0.72-0.68,1.58-0.84,2.51-0.83c4.29,0.03,8.58-0.11,13.08,1.1
				c-0.78-1.1-1.69-1.27-2.48-1.65c-2.87-1.35-5.99-1.79-8.92-2.95c-0.88-0.35-1.78-0.61-2.72-0.75c-4.7-0.69-9.44-0.73-14.16-1.04
				c-7.14-0.47-13.65-2.93-19.53-7.08c-8.17-5.77-16.77-10.62-25.67-14.87c-5.1-2.44-10.48-4.15-15.77-6.09
				c-10.96-4.03-22.15-5.9-33.7-5.8c-7.94,0.07-15.86,0.48-23.77,1.27c-7.53,0.75-15.03,1.66-22.41,3.44
				c-7.83,1.89-15.65,3.8-23.76,3.29c-0.13-0.01-0.26-0.02-0.38,0.01c-0.42,0.08-0.49,0.48-0.58,0.82
				c-0.12,0.46,0.26,0.53,0.53,0.59c1.5,0.34,2.95,0.82,4.48,1.09c2.53,0.44,4.08,2.04,3.38,4.97c-0.19,0.81-0.51,1.57-1.06,2.18
				c-0.83,0.92-1.7,1.81-2.57,2.69c-1.41,1.42-3.05,2.56-4.08,4.47c-0.38,0.69-1.49,1.29-2.78,1.05c-1.93-0.37-3.78,0.52-5.57,1.33
				C50.8,98.93,50.8,99.07,50.76,99.22z M97.36,142.91c0.08-0.8,0.06-1.61-0.15-2.43c-1.52-6.07-6.94-11.09-12.74-11.57
				c-3.41-0.28-6.71,0.33-9.23,3.11c-1.82,2.01-3.16,4.44-4.17,7.05c-0.48,1.23-0.87,2.55-0.75,3.89c0.64,7.42,3.8,12.05,9.96,14.61
				c3.74,1.55,7.46,1.3,10.59-1.27C94.86,153.02,97.7,148.8,97.36,142.91z M226.1,159.98c1.41,0.04,2.79-0.04,4.16-0.55
				c3.63-1.34,6.15-4.05,8.08-7.47c2.78-4.93,2.33-9.89-0.4-14.59c-1.75-3-4.6-4.51-7.71-5.54c-1.99-0.66-3.94-0.94-5.88-0.1
				c-2.04,0.88-3.91,2.06-5.64,3.59c-4.17,3.68-5.81,8.95-4.38,14.51C215.47,154.26,220.55,160.36,226.1,159.98z M243.08,112.01
				c-1.85,0-3.21-0.03-4.57,0.02c-0.62,0.02-1.18,0.35-1.35,1.06c-0.19,0.77,0.39,1.01,0.87,1.32c1.1,0.7,2.17,1.41,3.19,2.27
				c2.71,2.29,5.47,4.52,8.82,5.69c2.31,0.81,4.65,0.32,6.98,0.31c4.05-0.02,3.82,0,2.54-4c-0.74-2.32-2.05-4.06-4.5-4.8
				C250.97,112.63,246.86,111.79,243.08,112.01z M49.36,147.98c-0.71-0.59-1.35-1.27-2.31-1.27c-1.71,0-3.41,0-5.09-0.42
				c-0.55-0.14-0.81,0.1-0.79,0.7c0.02,0.49-0.11,1.08,0.63,1.08C44.3,148.09,46.8,148.49,49.36,147.98z M52.95,150.39
				c-0.71-0.77-1.37-1.01-2.03-1.03c-2.93-0.11-5.87,0.06-8.8-0.19c-0.32-0.03-0.76-0.02-0.76,0.5c-0.01,0.54,0.44,0.46,0.76,0.49
				C45.64,150.44,49.17,150.41,52.95,150.39z"/>
			<path d="M16.08,112.43c-1.72,0.19-3.25-0.18-4.32-1.76c-1.13-1.67-1.13-3.94-0.02-5.69c1.38-2.17,3.19-3.07,5.25-2.39
				c1.02,0.34,1.68,0.16,2.52-0.54c1.62-1.35,3.52-0.89,5.27-0.37c1.5,0.45,2.99,1.11,3.97,2.6c0.41,0.63,1.02,0.7,1.71,0.49
				c4.74-1.49,9.26,2.61,10.58,6.85c0.45,1.45-0.03,2.85-0.6,4.13c-0.37,0.83-0.21,1.27,0.31,1.9c3.53,4.25,2.42,10.68-2.3,13.33
				c-0.45,0.25-0.57,0.44-0.39,0.92c0.16,0.43,0.3,0.86,0.41,1.31c0.65,2.79-0.4,5.04-2.87,6.12c-0.59,0.26-1.21,0.44-1.91,0.69
				c0.57,1.02,1.09,2.07,0.82,3.32c-0.1,0.47,0.26,0.5,0.57,0.51c0.79,0.02,1.52,0.21,2.12,0.81c0.2,0.2,0.44,0.2,0.71,0.18
				c1.29-0.1,1.81,0.6,1.14,1.71c-0.46,0.76-0.83,1.57-1.29,2.31c-0.44,0.7-1.11,1.2-1.82,1.11c-1.04-0.13-1.84,0.25-2.74,0.66
				c-1.82,0.85-3.93-0.93-3.69-3.12c0.13-1.15,0.08-2.04-0.65-3c-0.71-0.94-0.37-2.11,0.11-3.14c0.68-1.48,0.64-1.58-1.02-1.72
				c-1.37-0.12-2.32-1.01-2.6-2.41c-0.32-1.65,0.14-2.54,1.65-3.24c0.29-0.14,1-0.15,0.53-0.72c-0.45-0.55,0.35-1.83-1-1.8
				c-3.01,0.07-3.79-0.54-4.91-3.79c-0.19-0.56-0.56-0.6-0.98-0.7c-2.62-0.61-3.62-3.05-2.26-5.56c0.52-0.96,1.23-1.76,2.03-2.46
				c0.18-0.16,0.6-0.38,0.44-0.56c-0.67-0.74-1.4-1.92-2.17-1.99C15.86,116.18,15.2,115.39,16.08,112.43z M29.05,134.29
				c-0.37,0.1-0.65,0.18-0.93,0.25c-1.43,0.35-2.23,1.37-1.93,2.7c0.29,1.28,1.15,1.63,2.36,1.39c0.71-0.14,1.24,0.55,1.68,1.07
				c0.43,0.52-0.01,1.02-0.28,1.49c-0.87,1.53-0.81,2.5,0.27,3.86c0.38,0.48,0.62,0.88,0.34,1.59c-0.44,1.09-0.4,2.16,0.61,2.95
				c1.02,0.79,1.93,0.44,2.78-0.34c0.35-0.32,0.72-0.83,1.21-0.41c0.84,0.71,1.34,0.12,1.83-0.47c0.59-0.71,0.75-1.76,1.58-2.29
				c0.09-0.06,0.13-0.35,0.09-0.5c-0.05-0.18-0.29-0.29-0.42-0.17c-0.73,0.77-1.08,0.02-1.53-0.4c-0.55-0.5-1.25-0.73-1.92-0.51
				c-1.19,0.41-1.25-0.23-1.07-1.17c0.18-0.97-0.05-1.79-0.57-2.59c-0.8-1.22-0.7-1.39,0.73-1.68c2.61-0.53,4.05-2.5,3.82-5.26
				c-0.07-0.84-0.36-1.6-0.64-2.38c-0.21-0.59-0.21-1.17,0.52-1.24c1.64-0.17,2.38-1.51,3.15-2.77c1.65-2.72,1.45-7.08-0.47-9
				c-0.97-0.97-1.6-1.65-0.56-3.16c1.17-1.68,0.19-3.41-0.51-5.06c-1.1-2.6-3.05-4.04-5.5-4.72c-1.1-0.31-2.47-0.5-3.35,0.29
				c-1.17,1.04-1.76,0.35-2.43-0.44c-1.19-1.4-2.65-2.33-4.28-2.92c-1.69-0.62-3.3-0.44-4.54,1.15c-0.36,0.47-0.74,0.5-1.25,0.32
				c-2.4-0.85-3.52-0.47-4.97,1.66c-0.96,1.41-1.23,3.01-0.51,4.54c0.71,1.49,2.07,1.75,3.55,1.49c0.52-0.09,1.23-0.22,1.52,0.35
				c0.28,0.54-0.3,0.98-0.59,1.42c-0.66,1-0.3,1.92,0.82,2.03c0.33,0.03,0.7,0,1.01-0.12c0.7-0.26,1.09-0.34,1.28,0.73
				c0.25,1.37,1.77,2.08,3.02,1.64c0.93-0.32,1.87-0.65,2.8-0.97c0.24-0.08,0.53-0.16,0.66,0.17c0.12,0.33-0.13,0.51-0.36,0.63
				c-0.81,0.42-1.61,1.12-2.44,1.15c-2.1,0.08-3.19,1.52-4.24,3.12c-0.56,0.86-1.29,1.77-0.56,2.87c0.69,1.04,1.59,1.83,2.91,1.49
				c0.57-0.15,0.59,0.11,0.65,0.62c0.38,3.21,2.21,4.75,4.77,3.71c0.58-0.24,0.83,0.04,0.85,0.59
				C28.07,132.18,28.5,133.22,29.05,134.29z"/>
			<path d="M121.82,96.94c-3.71,0-7.42,0.01-11.13-0.01c-1.37-0.01-2.32-0.5-3.29-1.83c-1.61-2.21-1.84-4.72-2.25-7.25
				c-0.27-1.67-0.46-3.36-0.65-5.05c-0.08-0.73-0.12-1.47-0.08-2.2c0.15-2.29,0.62-2.71,2.67-3.05c7.44-1.23,14.93-1.52,22.43-1.64
				c2.05-0.03,4.09,0.1,6.12,0.41c1.16,0.18,1.98,1.04,1.95,2.33c-0.15,5.24,0.02,10.49-0.59,15.7c-0.21,1.82-1.46,2.7-3.79,2.72
				c-3.8,0.03-7.59,0.01-11.39,0.01C121.82,97.05,121.82,96.99,121.82,96.94z"/>
			<path d="M142.25,85.29c0-2.16,0-4.32,0-6.48c0-0.84,0.2-1.19,1.18-1.27c7.79-0.61,14.97,1.97,22.16,4.61
				c2.7,0.99,5.41,1.95,8.14,2.86c5.77,1.93,11.16,4.76,16.45,7.87c4.64,2.72,9.23,5.53,13.61,8.73c0.86,0.62,1.23,1.44,0.95,2.47
				c-0.26,0.97-1.04,1.25-1.91,1.31c-1.37,0.09-2.72-0.2-4.08-0.35c-0.52-0.06-0.87-0.01-1.1,0.6c-0.61,1.6-1.89,2.19-3.35,2.36
				c-2.05,0.24-4.09-0.01-6.08-0.59c-1.15-0.33-1.83-1.36-2.23-2.5c-0.28-0.79-0.73-1.05-1.45-1.29c-2.63-0.86-5.35-0.35-8.01-0.72
				c-3.55-0.5-7.15-0.42-10.72-0.58c-4.56-0.2-9.05-1.17-13.6-1.47c-1.8-0.11-3.57-0.5-5.37-0.5c-1.47,0.01-2.72-0.61-3.99-1.24
				c-0.62-0.31-0.56-0.98-0.57-1.57C142.19,93.46,141.84,89.38,142.25,85.29z M190.54,95.14c-3.4-2.57-7.05-4.34-10.71-6.1
				c-4.41-2.12-9.1-3.37-13.65-5.08c-4.35-1.64-8.7-3.24-13.23-4.17c-2.64-0.54-5.28-1.05-7.99-0.87c-0.77,0.05-1.57,0.34-1.26,1.24
				c0.56,1.59,0.09,3.08-0.02,4.61c-0.28,3.91,0.22,7.81,0.09,11.72c-0.04,1.24,0.55,1.9,1.43,2.08c1.84,0.37,3.72,0.48,5.59,0.49
				c0.48,0,0.68-0.39,0.79-0.78c0.12-0.44-0.28-0.5-0.54-0.6c-0.56-0.21-1.04-0.6-1.68-0.63c-0.51-0.02-1.14-1.71-0.98-2.25
				c0.53-1.72,1.24-3.34,1.55-5.18c0.62-3.63,2.93-6.5,6.96-5.65c0.92,0.19,1.86,0.26,2.78,0.43c1.99,0.36,3.04,3.02,1.99,4.76
				c-0.38,0.63-0.77,1.5,0.06,2.2c0.81,0.68,0.57,1.2-0.19,1.67c-0.28,0.17-0.7,0.25-0.68,0.72c0.09,1.84-0.18,3.36-2.21,3.87
				c-0.33,0.08-1.06,0.7-0.9,1.55c0.19,1.01,0.93,0.85,1.59,0.97c5.95,1.11,12.01,0.5,17.98,1.34c0.95,0.13,1.46-0.26,1.88-1.18
				c0.5-1.11,1.17-2.14,1.8-3.17c0.42-0.69,1.02-1.3,1.8-0.79c0.77,0.5,0.39,1.3,0.08,1.96c-0.5,1.05-1.06,2.06-1.64,3.19
				c0.49,0.08,0.86,0.12,1.23,0.22c0.8,0.2,1.59-0.09,2.22-0.41c0.56-0.29-0.04-1.15,0.04-1.77c0.08-0.68,0-1.38,0.03-2.07
				c0.05-1.59,0.64-2.25,2.12-2.31C188.09,95.1,189.31,95.14,190.54,95.14z M158.13,88.22c-1.16,0.11-1.26,1.22-1.47,2.08
				c-0.18,0.72-0.33,1.3-1.07,1.52c-0.37,0.11-0.7,0.52-0.38,0.8c1.14,0.98,1.28,2.56,2.07,3.74c0.65,0.97,1.48-0.03,2.24,0.13
				c0.54,0.12,0.43-0.57,0.57-0.99c0.3-0.89-0.19-1.99,0.54-2.7c0.7-0.67,0.35-1.32-0.13-1.58c-1.15-0.61-0.88-1.07-0.04-1.65
				c0.22-0.15,0.42-0.35,0.33-0.67c-0.09-0.3-0.33-0.4-0.6-0.43C159.52,88.41,158.83,88.52,158.13,88.22z M197.38,99.18
				c0.15,1.39,0.7,2.48,0.7,3.69c0,0.23,0.08,0.47,0.33,0.52c1.46,0.31,2.93,0.54,4.42,0.51c0.18,0,0.43-0.18,0.51-0.35
				c0.14-0.29-0.07-0.53-0.3-0.68C201.2,101.67,199.6,100.04,197.38,99.18z M155.47,98c0.5-0.02,0.98,0.1,1.39-0.22
				c0.11-0.09,0.18-0.3,0.2-0.46c0.01-0.07-0.19-0.25-0.24-0.23c-1.2,0.57-2.09-1.16-3.31-0.5c-0.21,0.12-0.63-0.28-0.71,0.23
				c-0.07,0.43,0.08,0.84,0.56,0.91C154.07,97.85,154.79,97.92,155.47,98z M153.65,98.39c-0.43-0.06-0.9-0.14-0.92,0.54
				c-0.02,0.63,0.49,0.52,0.82,0.56c0.71,0.1,1.43,0.12,2.14,0.2c0.36,0.04,0.56-0.05,0.58-0.48c0.02-0.39-0.1-0.6-0.48-0.63
				C155.07,98.53,154.36,98.46,153.65,98.39z M154.37,92.17c0.29-0.63,0.87-0.73,0.92-1.31c0.03-0.32,0.06-0.65-0.25-0.83
				c-0.13-0.08-0.36-0.15-0.46-0.08c-0.26,0.18-0.09,0.48-0.1,0.73C154.48,91.08,154.43,91.47,154.37,92.17z"/>
			<path d="M93.45,96.77c-1.71,0-3.41-0.05-5.12,0.01c-2.01,0.07-3.52-0.82-4.68-2.54c-1.45-2.15-3.15-4.12-4.04-6.68
				c-0.3-0.87-0.9-1.56-1.53-2.19c-0.35-0.34-0.72-0.67-1-1.06c-0.9-1.23-0.59-2.26,0.79-2.64c3.8-1.04,7.72-1.46,11.56-2.26
				c3.01-0.63,6.03-1.24,9.04-1.83c2.32-0.46,2.97,0.01,2.84,2.55c-0.22,4.38,0.45,8.6,1.54,12.78c0.62,2.36-0.06,3.28-2.5,3.63
				C98.06,96.88,95.75,96.77,93.45,96.77z"/>
			<path d="M200.63,148.22c-1.91,0-3.82-0.01-5.73,0c-11.77,0.08-23.55,0.35-35.32,0.18c-9.59-0.14-19.19-0.41-28.78-1.11
				c-6.04-0.44-12.1-0.69-18.11-1.51c-1.49-0.2-2.78-0.95-4.33-1.27c0.5-0.7,0.98-0.43,1.36-0.25c2.56,1.19,5.32,1.3,8.02,1.55
				c12.63,1.15,25.3,1.59,37.96,1.97c6.69,0.2,13.4-0.07,20.1-0.01c7.81,0.07,15.61-0.38,23.42-0.1
				C199.69,147.69,200.22,147.5,200.63,148.22z"/>
			<path d="M225.14,111.88c1.74-0.15,3.41,0.35,5.11,0.46c0.36,0.02,0.88,0.05,0.84,0.61c-0.03,0.6-0.56,0.45-0.91,0.45
				c-2.04-0.03-4.03-0.62-6.11-0.39c-8.55,0.96-15.12,5.29-19.69,13.15c-1.06,1.83-2.21,3.61-3.32,5.41
				c-0.22,0.36-0.49,0.72-0.92,0.36c-0.32-0.26-0.32-0.62-0.08-0.97c1.88-2.9,3.62-5.92,5.67-8.67
				C210.69,115.62,217.3,112.35,225.14,111.88z"/>
			<path d="M143.35,130.16c-0.02-7.63-0.45-15.24-0.91-22.85c-0.07-1.14-0.25-2.28-0.38-3.42c-0.05-0.47-0.14-1.01,0.5-1.01
				c0.55-0.01,0.47,0.53,0.51,0.93c1.1,10.75,1.27,21.54,1.28,32.34c0,1.29,0,2.57-0.02,3.86c-0.01,0.43-0.09,0.91-0.61,0.84
				c-0.44-0.06-0.37-0.51-0.37-0.89C143.35,136.68,143.35,133.42,143.35,130.16z"/>
			<path d="M57.82,125.93c-0.43-0.92,0.11-1.38,0.43-1.85c4.73-7.12,11.36-10.81,19.21-12.14c7.4-1.26,14.32,0.45,20.79,4.44
				c1.31,0.81,2.39,1.94,3.41,3.1c1.81,2.05,4.07,3.65,5.45,6.15c0.29,0.53,0.34,0.51,0.48,1.42c-0.84-0.64-1.21-1.59-1.83-2.31
				c-4.06-4.76-8.31-9.06-14.35-10.99c-8.92-2.85-17.27-1.8-25.25,3.18C62.72,119.07,59.97,122.04,57.82,125.93z"/>
			<path d="M259.3,139.89c-2.42,0.44-3.15-1.56-4.01-3.18c-0.64-1.22-1.01-2.6-1.93-3.68c-0.53-0.61-0.42-1.48-0.09-2.06
				c0.39-0.67,1.02-0.08,1.46,0.17c2.62,1.43,5.42,1.8,8.29,1.75c1.11-0.02,1.47,0.47,1.25,1.59c-0.04,0.22-0.05,0.46-0.09,0.68
				c-0.15,0.78,0.35,1.72-0.38,2.33C262.43,138.61,261.36,140.45,259.3,139.89z M254.21,132.36c0.42,0.63,0.84,1.15,1.14,1.74
				c0.32,0.64,0.49,1.36,0.79,2.03c0.97,2.2,2.1,2.98,3.87,2.74c1.41-0.19,2.3-1.28,3-2.36c0.91-1.4,0.16-2.64-1.42-2.65
				c-2.14-0.01-4.24-0.18-6.17-1.34C255.11,132.34,254.7,132.08,254.21,132.36z"/>
			<path d="M207.6,112.25c1.02,0.07,2.04,0.15,3.06,0.21c0.52,0.03,1.09-0.02,1.22,0.7c0.13,0.74-0.07,1.44-0.74,1.74
				c-2.17,0.98-4.45,1.19-6.77,0.8c-0.57-0.09-1.02-0.45-1.43-0.87c-0.29-0.3-0.95-0.53-0.63-1.01c0.34-0.51,0.31-1.47,1.33-1.39
				c1.31,0.1,2.64,0.03,3.96,0.03C207.6,112.39,207.6,112.32,207.6,112.25z M203.4,113.57c1.33,1.61,5.16,1.58,7.38,0.05
				C208.28,113.23,205.94,113.41,203.4,113.57z"/>
			<path d="M106.89,108.5c1.36,0,2.72,0.05,4.08-0.02c1.08-0.05,1.45,0.35,1.26,1.53c-0.31,1.93-0.34,2.04-2.17,2.04
				c-2.55,0-5.1-0.06-7.65-0.11c-0.69-0.01-1.99-1.4-1.88-2.14c0.15-1.01,1-1.16,1.78-1.18c1.53-0.04,3.06-0.01,4.59-0.01
				C106.89,108.57,106.89,108.53,106.89,108.5z M106.69,109.08c0,0.04,0,0.08,0,0.13c-1.36,0-2.73-0.04-4.09,0.02
				c-0.47,0.02-1.29-0.25-1.2,0.73c0.06,0.7,0.24,1.44,1.22,1.42c1.49-0.03,2.98,0.08,4.47,0.09c1.19,0.01,2.38,0,3.58-0.04
				c1.1-0.04,0.95-1.01,1-1.73c0.06-0.83-0.61-0.59-1.02-0.6C109.33,109.06,108.01,109.08,106.69,109.08z"/>
			<path d="M157.45,112.17c1.7,0.15,3.41,0.14,5.09,0.43c0.68,0.11,1.21,0.34,1.14,1.3c-0.07,0.9-0.46,1.34-1.28,1.37
				c-2.77,0.09-5.53,0.21-8.3,0.27c-0.9,0.02-1.42-0.49-1.48-1.51c-0.02-0.31-0.04-0.66-0.17-0.93c-0.46-0.88,0.08-0.93,0.65-0.93
				C154.55,112.16,156,112.17,157.45,112.17z M158.08,114.94c0-0.09,0-0.19,0-0.28c1.4,0,2.8,0.01,4.21,0
				c0.41,0,0.76-0.13,0.81-0.67c0.04-0.54-0.29-0.72-0.69-0.81c-0.29-0.06-0.59-0.12-0.88-0.14c-2.42-0.1-4.84-0.19-7.27-0.26
				c-0.53-0.02-1.14-0.15-1.1,0.84c0.04,0.82,0.26,1.33,1.1,1.32C155.53,114.94,156.81,114.94,158.08,114.94z"/>
			<path d="M62.23,112.76c-2.48,1.28-4.17,3.49-5.95,5.57c-1.8,2.1-2.97,4.61-3.5,7.75C51.76,122.32,58.59,112.88,62.23,112.76z"/>
			<path d="M51.75,139.86c-0.3,0-0.6,0.01-0.89,0c-1.89-0.06-2.55-0.79-2.55-2.77c0-0.47,0.29-0.63,0.55-0.49
				c1.39,0.78,2.82,0.29,4.24,0.27c0.72-0.01,1.49-0.05,1.76,0.94c0.39,1.38-0.12,2.11-1.47,2.12c-0.55,0.01-1.1,0-1.66,0
				C51.75,139.91,51.75,139.88,51.75,139.86z M51.98,139.21c0,0.02,0,0.04,0,0.05c0.38,0.02,0.77,0.07,1.15,0.07
				c0.58,0,1.27,0.16,1.25-0.87c-0.02-0.91-0.57-1.02-1.22-0.99c-1.06,0.04-2.13,0.07-3.19,0.13c-0.34,0.02-0.87-0.16-0.79,0.54
				c0.06,0.48,0.09,1.06,0.76,1.07C50.61,139.21,51.29,139.21,51.98,139.21z"/>
			<path d="M90.82,152.42c0.04,1.21-0.81,1.62-1.6,2.07c-0.73,0.41-1.44,0.48-2.11-0.21c-1.2-1.23-1.65-2.74-1.55-4.47
				c0.04-0.74,0.5-1.21,1.03-1.65c0.83-0.68,0.96,0.34,1.4,0.61c0.79,0.47,1.43,1.15,2.06,1.83C90.53,151.1,90.8,151.7,90.82,152.42
				z M86.81,148.86c-0.36,0.04-0.53,0.4-0.66,0.8c-0.38,1.2,0.55,3.79,1.58,4.38c0.69,0.39,1.22-0.07,1.77-0.4
				c0.46-0.27,0.81-0.65,0.76-1.31C90.21,151.35,87.8,148.84,86.81,148.86z"/>
			<path d="M83.61,151.48c0.15,1.1-0.24,2.02-0.68,2.91c-0.54,1.1-1.41,1.44-2.47,1.05c-1.07-0.39-1.53-1.23-1.29-2.47
				c0.1-0.51,0.27-0.96,0.55-1.37c0.76-1.09,1.52-2.19,2.31-3.26c0.27-0.37,0.71-0.6,0.85,0.03
				C83.12,149.42,83.87,150.34,83.61,151.48z M83.06,151.56c0.05-0.75-0.06-1.42-0.42-2.03c-0.16-0.27-0.34-0.46-0.58-0.13
				c-0.77,1.09-1.82,1.97-2.26,3.31c-0.28,0.85-0.25,1.67,0.66,2.09c0.88,0.41,1.58,0.16,2.03-0.78
				C82.88,153.22,83.18,152.42,83.06,151.56z"/>
			<path d="M82.06,139.32c0.01,1.26-0.54,1.67-1.6,1.24c-1.81-0.74-2.76-2.36-3.58-4.08c-0.34-0.72-0.34-1.58,0.34-2.13
				c0.63-0.52,1.37-0.39,2.05-0.02C80.6,135.06,82.05,137.67,82.06,139.32z M81.51,139.14c-0.25-1.86-1.13-3.33-2.6-4.31
				c-0.91-0.61-1.71-0.06-1.65,0.97c0.08,1.3,2.22,3.75,3.43,4.05C81.35,140.02,81.58,139.86,81.51,139.14z"/>
			<path d="M85.5,139.92c0.46-1.17,0.83-2.38,1.77-3.17c0.13-0.11,0.24-0.26,0.34-0.41c0.63-0.87,0.89-1.82,0.26-2.79
				c-0.44-0.69-1.11-0.74-1.84-0.56c-1.1,0.26-1.34,1.11-1.41,2.16c-0.09,1.27,0.09,2.49,0.5,3.7c-1.39-1.37-1.15-3.06-0.91-4.72
				c0.15-1.03,0.88-1.52,1.78-1.73c1.69-0.4,3.1,0.9,2.73,2.72C88.3,137.18,86.41,138.19,85.5,139.92z"/>
			<path d="M73.99,141.27c1.7,0.24,3.09,0.45,4.39,1.06c1.08,0.5,1.19,1.03,0.24,1.68c-2.4,1.62-3.33,2.13-5.38,0.82
				c-0.74-0.47-1.05-1.09-0.72-1.95C72.84,142.03,73.12,141.06,73.99,141.27z M74.58,141.93c-0.88-0.05-1.26,0.25-1.53,1.05
				c-0.28,0.83,0.2,1.17,0.75,1.5c1.26,0.76,3.54,0.28,4.44-0.92c0.38-0.5,0.02-0.61-0.3-0.76
				C76.84,142.27,75.65,142.14,74.58,141.93z"/>
			<path d="M93.13,148.34c-2.34,0.14-3.28-1.67-4.6-2.72c-0.36-0.29-0.06-0.77,0.45-0.78c1.56-0.03,3.1-0.42,4.69-0.16
				c1.02,0.17,1.55,0.62,1.66,1.68c0.12,1.15-0.46,1.69-1.43,1.86C93.52,148.29,93.14,148.34,93.13,148.34z M89.63,145.57
				c1.34,2.02,2.79,2.65,4.43,2.01c0.52-0.2,0.77-0.54,0.72-1.12c-0.05-0.53-0.22-1.01-0.78-1.09
				C92.54,145.16,91.08,145,89.63,145.57z"/>
			<path d="M89.48,142.62c-0.36-0.3-1.03,0.34-1.19-0.27c-0.15-0.57-0.03-1.26,0.46-1.76c0.61-0.63,1.16-1.32,1.67-2.06
				c0.53-0.75,1.28-1.01,2.16-0.73c0.85,0.27,1.4,0.84,1.57,1.79c0.18,1.03-0.39,1.68-1.08,2.15
				C91.99,142.47,90.74,142.52,89.48,142.62z M89.89,142.01c0.92-0.12,1.92-0.16,2.78-0.72c0.5-0.33,1.02-0.75,0.94-1.52
				c-0.07-0.71-0.47-1.15-1.1-1.38c-0.7-0.25-1.3-0.06-1.71,0.55c-0.45,0.68-0.95,1.29-1.5,1.87c-0.21,0.22-0.46,0.52-0.36,0.84
				C89.08,142.1,89.51,141.95,89.89,142.01z"/>
			<path d="M78.49,146.8c0.85-0.04,1.04,0.2,0.67,0.88c-0.44,0.79-0.81,1.62-1.24,2.41c-0.36,0.66-0.94,1.06-1.59,1.33
				c-0.91,0.38-1.69,0.09-2.28-0.71c-0.57-0.77-0.23-1.5,0.21-2.14C75.37,146.95,77.1,147.08,78.49,146.8z M78.59,147.54
				c-1.36-0.13-2.43,0.15-3.35,0.81c-0.63,0.45-1.24,1.16-0.65,2.05c0.53,0.81,1.29,0.68,2.03,0.21
				C77.65,149.95,77.82,148.7,78.59,147.54z"/>
			<path d="M83.74,146.76c-1.14-0.04-2.15-1.34-2.09-2.67c0.07-1.31,1.01-2.58,1.91-2.56c1.28,0.03,2.45,1.25,2.41,2.52
				C85.93,145.51,84.87,146.8,83.74,146.76z M85.42,144.03c0.01-0.91-0.89-1.88-1.75-1.78c-1.02,0.12-1.41,0.93-1.46,1.93
				c-0.05,1,0.76,1.96,1.58,1.97C84.61,146.16,85.41,145.12,85.42,144.03z"/>
			<path d="M233.78,146.25c1.11-0.04,2.21-0.04,3.28,0.3c0.89,0.29,1.49,0.84,1.53,1.93c0.04,1.09-0.5,1.71-1.39,2.03
				c-1.33,0.47-2.61,0.43-3.71-0.62c-0.82-0.79-1.63-1.6-2.22-2.63c-0.4-0.69-0.32-1.01,0.47-1.01
				C232.43,146.25,233.1,146.25,233.78,146.25z M234.17,146.83c-0.55,0-1.1-0.01-1.65,0.01c-0.29,0.01-0.63-0.01-0.49,0.53
				c0.47,1.84,3.42,3.33,5.07,2.56c0.55-0.26,0.93-0.63,0.95-1.32c0.01-0.75-0.37-1.19-0.99-1.43
				C236.13,146.82,235.15,146.81,234.17,146.83z"/>
			<path d="M220.65,146.13c-1.75-0.1-3.31-0.1-3.99-2.07c-0.31-0.91-0.19-1.7,0.4-2.42c0.59-0.72,1.33-0.58,2-0.31
				c1.71,0.69,3.06,1.94,4.13,3.52c0.39,0.57,0.36,1.01-0.47,1.05C221.97,145.93,221.22,146.06,220.65,146.13z M220.38,145.56
				c0.47-0.05,0.93-0.09,1.4-0.14c0.88-0.1,0.84-0.4,0.31-1.08c-0.82-1.05-1.85-1.75-2.96-2.34c-0.53-0.28-1.14-0.52-1.66,0.06
				c-0.55,0.62-0.5,1.31-0.18,2.04C217.94,145.56,219.22,145.39,220.38,145.56z"/>
			<path d="M225.37,152.83c0.01,1.04-0.02,1.96-0.28,2.84c-0.32,1.1-1.06,1.66-2.12,1.56c-0.98-0.09-1.82-1.25-1.79-2.31
				c0.05-1.53,1.97-4.52,3.21-5.03c0.47-0.19,0.6,0.06,0.69,0.48C225.28,151.22,225.44,152.07,225.37,152.83z M224.87,153.15
				c-0.06-0.71-0.08-1.26-0.16-1.8c-0.05-0.32-0.15-0.62-0.6-0.42c-0.97,0.43-2.49,3.06-2.38,4.2c0.08,0.86,0.62,1.34,1.32,1.47
				c0.77,0.14,1.34-0.32,1.51-1.15C224.73,154.65,224.79,153.83,224.87,153.15z"/>
			<path d="M229.37,150.03c-0.92,1.27-0.79,2.55-0.65,3.82c0.11,1.02,0.69,1.71,1.6,1.9c0.66,0.14,1.46,0.11,1.86-0.59
				c0.5-0.88,0.26-1.81-0.33-2.55c-0.94-1.16-1.95-2.26-2.92-3.38c0.31-0.41,0.6-0.22,0.79,0c0.93,1.07,1.91,2.1,2.72,3.27
				c0.86,1.23,0.69,2.85-0.18,3.47c-1.09,0.78-2.69,0.48-3.56-0.66c-0.68-0.89-0.85-3.79-0.28-4.76
				C228.56,150.3,228.73,150.02,229.37,150.03z"/>
			<path d="M230.31,143.96c0.56-2.44,1.98-3.86,3.33-5.27c0.7-0.74,1.96-0.18,2.8,1.04c0.72,1.04,0.66,2.17-0.16,2.96
				c-0.42,0.41-0.93,0.66-1.5,0.69C233.36,143.43,231.92,143.38,230.31,143.96z M233.06,142.8c0.56,0,0.99,0.02,1.41-0.01
				c0.85-0.06,1.65-0.32,1.86-1.33c0.23-1.07-0.46-1.73-1.18-2.23c-0.86-0.6-1.41,0.05-1.91,0.72c-0.27,0.35-0.58,0.67-0.83,1.04
				c-0.38,0.53-1.21,1.01-0.93,1.66C231.78,143.37,232.62,142.62,233.06,142.8z"/>
			<path d="M230.46,134.03c1.48,0,2.3,1.69,1.57,3.48c-0.66,1.64-2,2.57-3.44,3.32c-0.43,0.22-0.6-0.03-0.69-0.47
				c-0.3-1.45-0.42-2.9-0.15-4.36C227.97,134.77,229.01,134.04,230.46,134.03z M231.67,136.05c-0.05-0.52-0.07-1.33-1-1.39
				c-1.03-0.07-2.03,0.15-2.35,1.39c-0.28,1.1-0.29,2.26,0,3.39c0.09,0.36,0.12,0.71,0.65,0.53
				C230.19,139.55,231.68,137.55,231.67,136.05z"/>
			<path d="M225.72,142.31c-1.53-0.78-3.12-1.41-4.41-2.6c-0.87-0.79-0.8-1.78-0.45-2.77c0.36-1.01,1.16-1.08,2.02-0.93
				c2.24,0.38,3.56,2.62,3,5.37c-0.45-0.73-0.42-1.47-0.55-2.14c-0.29-1.45-1-2.4-2.43-2.61c-0.6-0.09-1.25-0.21-1.54,0.56
				c-0.29,0.76-0.34,1.55,0.36,2.12c0.78,0.63,1.56,1.29,2.5,1.63C224.9,141.18,225.45,141.54,225.72,142.31z"/>
			<path d="M217.05,150.41c0.06-1.66,0.67-2.45,2.16-2.7c1.18-0.2,2.36-0.25,3.55-0.15c0.43,0.03,1.01,0.21,0.58,0.83
				c-1.1,1.57-2.2,3.16-4.05,3.81C217.75,152.74,216.99,152.12,217.05,150.41z M220.78,148.11c-0.62,0.1-1.4,0.15-2.13,0.38
				c-0.88,0.28-1.45,1.93-0.97,2.8c0.53,0.95,1.28,0.41,1.92,0.14c0.8-0.35,1.43-0.99,2-1.68c0.36-0.42,1.01-0.89,0.75-1.44
				C222.15,147.86,221.42,148.2,220.78,148.11z"/>
			<path d="M229.02,145.47c-0.01,1.56-0.6,2.28-1.71,2.3c-1.25,0.02-2.32-0.99-2.34-2.22c-0.02-1.14,1.65-2.69,2.84-2.38
				C228.9,143.47,228.86,144.7,229.02,145.47z M227.47,147.17c0.77-0.04,0.99-0.69,1.01-1.58c0.02-1.11-0.69-1.45-1.48-1.47
				c-0.78-0.01-1.38,0.5-1.45,1.42C225.49,146.41,226.39,147.2,227.47,147.17z"/>
			<path d="M250.75,118.95c-3.12,0.27-5.23-1.38-7.1-3.59c-0.67-0.8-0.35-1.22,0.48-1.38c1.45-0.27,2.88,0.17,4.32,0.23
				c1.1,0.04,2.19,0.32,3.28,0.52c0.82,0.15,2.1,2.92,1.74,3.72c-0.17,0.39-0.49,0.49-0.84,0.5
				C251.96,118.95,251.28,118.95,250.75,118.95z M245.33,115.09c1.14,2.17,4.73,3.63,6.67,2.86c0.24-0.1,0.4-0.24,0.31-0.48
				c-0.24-0.7-0.26-1.61-1.19-1.73C249.23,115.49,247.37,115.02,245.33,115.09z"/>
		</g>
	</g>
</g>
</svg>
