<?xml version="1.0" encoding="utf-8"?>
<!-- Generator: Adobe Illustrator 23.0.2, SVG Export Plug-In . SVG Version: 6.00 Build 0)  -->
<svg version="1.1" id="line" xmlns="http://www.w3.org/2000/svg" xmlns:xlink="http://www.w3.org/1999/xlink" x="0px" y="0px"
	 viewBox="0 0 288 226.77" style="enable-background:new 0 0 288 226.77;" xml:space="preserve">
<style type="text/css">
	.st0{fill:#FF3A5B;}
	.st1{fill:#50E3C2;}
	.st2{fill:#FF8438;}
	.st3{fill:#FFDD4C;}
	.st4{fill:#FFFFFF;}
	.st5{fill:#925F36;}
	.st6{fill:#422918;}
	.st7{fill:#007EFF;}
	.st8{fill:#9C9B9B;}
	.st9{fill:#C6C6C5;}
	.st10{fill:#D9D9D9;}
	.st11{fill:#6F6F6E;}
	.st12{fill:#ECECEC;}
	.st13{fill:#97E6FC;}
	.st14{fill:#B1B1B1;}
	.st15{fill:#1D1D1B;}
	.st16{fill:#FFFFFF;stroke:#1D1D1B;stroke-width:0.5;stroke-miterlimit:10;}
	.st17{fill:none;stroke:#FFFFFF;stroke-linecap:round;stroke-linejoin:round;stroke-miterlimit:10;}
	.st18{fill:#A0ECD2;}
	.st19{fill:#C4F5FB;}
	.st20{fill:none;stroke:#FFFFFF;stroke-width:0.876;stroke-linecap:round;stroke-linejoin:round;stroke-miterlimit:10;}
	.st21{fill:none;}
	.st22{fill:#575756;}
	.st23{fill:#FFFFFF;stroke:#1D1D1B;stroke-width:0.9148;stroke-miterlimit:10;}
	.st24{fill:#9B5416;}
	.st25{fill:#868686;}
</style>
<g>
	<g>
		<path class="st22" d="M16.22,101.43c-1.9-2.37-1.13-8.25,0.46-10.83c1.6-2.58,2.91-2.96,5.45-4.62
			c16.05-10.55,33.36-18.83,50.53-26.26c3.7-1.6,8.69-2.88,12.72-2.81c4.79,0.08,11.3,3.02,15.69,4.95
			c45.21,19.97,91.46,37.57,135.58,58.95c2.56,1.24,5.71,3.89,7.27,6.28c1.86,2.86,0.03,6.99-1.49,10.05
			c-1.52,3.06-4.03,5.49-6.49,7.85c-2.98,2.86-5.96,5.72-8.94,8.58c-0.85,0.82-2,1.71-3.1,1.28c-0.87-0.34-1.24-1.33-1.74-2.12
			c-1.85-2.95-6.72-3.28-8.95-0.59c-2.22,2.68-1,7.41,2.24,8.68c-6.14,4.28-12.28,8.56-18.42,12.84
			c-6.22,4.33-13.11,8.86-20.66,8.27c-4.94-0.38-9.22-3.28-13.7-5.4c-60.93-28.81-95.62-50.92-144.66-73.4"/>
		<path class="st1" d="M32.31,93.57c1.21-1.44,2.97-2.29,4.67-3.09c17.28-8.2,34.55-16.4,51.83-24.6c1.31-0.62,2.65-1.25,4.1-1.31
			c1.65-0.07,3.23,0.6,4.74,1.26c42.06,18.35,84.12,36.7,126.17,55.06c2.35,1.02,5.08,2.62,5.02,5.17
			c-0.04,1.96-1.77,3.42-3.34,4.59c-13.88,10.38-27.76,20.75-41.64,31.13c-2.83,2.12-5.05,5.38-8.59,5.39
			c-2.95,0.01-2.24-0.05-4.84-1.43c-44.26-23.45-91.52-50.16-136.8-70.61"/>
	</g>
	<g id="_x33_eIabN_1_">
		<g>
			<path d="M249.04,169.87c-6.9,0.46-13.39-1.19-19.69-3.86c-1.46-0.62-3.03-1-4.36-1.93c-0.42-0.29-0.88-0.37-1.38,0.13
				c-0.7,0.7-1.58,0.24-2.35,0c-0.45-0.14-0.88-0.41-1.23-0.73c-1.39-1.26-2.72-0.69-4,0.13c-3.9,2.5-7.93,4.8-11.91,7.16
				c-2.82,1.67-5.56,3.46-8.25,5.34c-2.72,1.9-5.49,3.68-8.63,4.88c-1.29,0.49-2.56,1.11-3.85,1.64c-2.82,1.15-5.85,1.66-8.68,0.73
				c-3.83-1.25-7.78-2.3-11.26-4.5c-1.28-0.81-2.69-1.42-4.05-2.08c-4.83-2.35-9.04-5.72-13.71-8.36c-4.57-2.59-9.2-4.99-14.15-6.76
				c-1.09-0.39-2.17-0.85-3.16-1.44c-2.4-1.42-5.08-2.12-7.65-3.11c-1.52-0.59-2.99-1.33-4.42-2.12
				c-5.04-2.77-10.16-5.36-15.49-7.58c-4.01-1.67-7.83-3.79-11.42-6.29c-0.42-0.3-0.87-0.56-1.32-0.82c-2.96-1.73-5.9-3.52-8.9-5.18
				c-2.03-1.12-4.1-2.15-6.14-3.25c-3.58-1.94-6.64-4.72-10.48-6.28c-3.99-1.62-7.91-3.43-11.81-5.26c-1.84-0.86-3.6-1.92-5.33-2.99
				c-4.47-2.76-9.24-4.86-14.11-6.82c-3.88-1.56-7.72-3.28-11.36-5.39c-1.14-0.66-2.39-1.11-3.45-1.93
				c-1.26-0.98-1.62-2.1-1.23-3.67c0.22-0.86,0.08-1.75,0.04-2.63c-0.08-1.6-0.12-3.2,0.03-4.8c0.12-1.38,0.67-2.54,1.97-3.22
				c0.11-0.05,0.23-0.11,0.3-0.2c2.88-3.69,7.2-5.22,11.09-7.37c7.03-3.89,14.01-7.89,21.22-11.41c8.22-4.01,16.17-8.59,24.87-11.59
				c3.28-1.13,6.62-1.83,10.02-2.35c1.39-0.21,2.65,0.3,4,0.65c5.64,1.44,10.91,3.87,16.35,5.83c6.01,2.17,11.89,4.69,17.7,7.31
				c33.26,15.03,66.81,29.41,100.16,44.24c3.47,1.54,6.91,3.17,10.44,4.55c2.39,0.93,4.65,2.02,6.86,3.34
				c3.02,1.8,3.98,4.62,4.32,7.73c0.26,2.43,0.55,4.97-0.87,7.25c-0.07,0.12-0.11,0.34-0.05,0.45c0.77,1.33-0.24,1.96-1.08,2.51
				c-2.96,1.96-5.35,4.56-7.88,6.98c-2.42,2.31-4.51,4.97-7.21,6.98c-0.7,0.52-0.61,0.9,0.08,1.33c0.44,0.27,0.86,0.58,1.25,0.92
				c0.55,0.49,0.9,1.22,0.57,1.83c-0.65,1.2,0.18,1.51,0.92,1.93c2.36,1.33,4.99,1.94,7.54,2.71c1.8,0.54,3.61,1.03,5.4,1.58
				c4.58,1.41,8.87,0.44,13.12-1.51c2.55-1.17,4.62-2.83,6.49-4.82c2.74-2.93,3.37-6.45,2.73-10.26c-0.25-1.49-0.81-2.93-1.14-4.41
				c-0.41-1.8-1.83-2.89-2.94-4.15c-3.11-3.54-5.68-7.5-8.71-11.11c-1.17-1.39-1.69-3.33-2.48-5.03c-1.12-2.39-1.56-4.97-1.72-7.56
				c-0.22-3.53,0.99-6.64,3.22-9.41c4.47-5.53,10.58-8.33,17.11-10.5c3.92-1.3,7.89-2.36,12.01-2.72c1.39-0.12,2.8-0.13,4.19-0.17
				c0.41-0.01,0.9-0.2,0.9,0.56c0,0.62-0.11,0.95-0.83,0.98c-2.2,0.08-4.39,0.06-6.58,0.43c-6.72,1.16-13.16,3.22-19.03,6.64
				c-3.78,2.2-7.01,5.15-8.72,9.41c-1.38,3.46-0.71,6.83,0.28,10.2c0.59,2.01,1.73,3.77,2.51,5.7c0.13,0.32,0.35,0.63,0.58,0.89
				c2.01,2.28,3.7,4.8,5.53,7.22c1.27,1.67,2.68,3.27,4.07,4.85c0.7,0.79,1.37,1.54,1.72,2.54c1.15,3.26,2.06,6.58,1.63,10.09
				c-0.3,2.39-1.24,4.55-2.84,6.37c-2.1,2.39-4.5,4.34-7.46,5.69c-3.93,1.79-7.99,2.98-12.2,1.97c-4.69-1.12-9.37-2.4-13.87-4.18
				c-1.13-0.45-2.13-1.12-3.1-1.82c-1.06-0.77-1.2,0.29-1.61,0.68c-0.46,0.44-0.84,1.02-0.14,1.64c0.91,0.8,1.96,1.32,3.08,1.8
				c4.88,2.09,9.91,3.56,15.2,4.11c8.4,0.88,15.63-1.53,21.61-7.55c1.87-1.88,3.57-3.87,4.84-6.21c1.51-2.78,1.16-5.51,0.04-8.3
				c-1.41-3.53-4.45-5.81-6.57-8.79c-3.32-4.69-6.9-9.22-9.12-14.59c-0.6-1.44-1.12-2.91-1.62-4.38c-0.63-1.87-0.48-3.68,0.44-5.46
				c1.4-2.71,3.35-4.94,5.57-7c4.95-4.58,10.82-7.15,17.41-8.22c2.61-0.42,5.21-0.86,7.82-1.22c0.45-0.06,1.23-0.54,1.34,0.57
				c0.1,1.01-0.57,0.82-1.13,0.91c-4.23,0.65-8.5,1.11-12.61,2.37c-7.01,2.15-12.63,6.22-16.6,12.47c-1.23,1.94-1.22,3.84-0.49,6.04
				c1.92,5.75,5.22,10.63,8.7,15.5c1.98,2.78,4.4,5.17,6.36,7.93c2.36,3.34,3.81,6.97,2.54,11.14c-0.8,2.62-2.53,4.71-4.29,6.72
				c-2.8,3.18-6.07,5.78-9.98,7.53c-1.18,0.52-2.54,0.66-3.45,1.77c-0.34,0.41-1.02,0.41-1.59,0.42
				C252.08,169.87,250.56,169.87,249.04,169.87z M239.5,126.65c0-0.4,0.08-0.82-0.01-1.2c-0.41-1.73-0.92-3.44-2.92-3.96
				c-1.25-0.33-2.39-0.89-3.56-1.4c-26.13-11.5-52.26-22.97-78.37-34.52c-10.89-4.82-21.81-9.58-32.66-14.47
				c-6.61-2.98-13.27-5.92-20.13-8.32c-4.51-1.58-8.82-3.81-13.6-4.59c-1.2-0.19-2.34-0.79-3.57-0.65
				c-5.34,0.61-10.42,2.27-15.22,4.55c-8.26,3.93-16.52,7.85-24.55,12.28c-6.54,3.61-13.14,7.11-19.75,10.61
				c-2.14,1.14-4.41,2.14-5.93,4.18c-0.4,0.54-0.96,1.07-0.67,1.81c0.45,1.1,0.96,2.15,1.8,3.07c2.18,2.41,5.13,3.72,7.87,5.12
				c44.11,22.55,88.28,44.96,132.46,67.36c2.82,1.43,5.55,3.02,8.64,3.98c2.45,0.76,4.79,1.97,7.34,2.5
				c1.54,0.32,3.08,0.82,4.68,0.19c4.33-1.71,8.6-3.52,12.14-6.63c2.38-2.09,4.93-3.96,7.45-5.84c8.8-6.57,17.73-12.99,26.56-19.53
				c3.19-2.36,6.21-4.93,8.81-7.94C237.98,131.36,239.56,129.38,239.5,126.65z M210.55,155.65c-0.38,0.21-0.52,0.28-0.65,0.37
				c-5.31,3.98-10.67,7.88-15.84,12.04c-4.71,3.79-10.07,6.3-16.03,7.48c-0.47,0.09-1.08,0.23-1.27-0.33
				c-0.31-0.88-1.03-0.9-1.72-1.04c-2.84-0.61-5.54-1.71-8.16-2.85c-4.14-1.79-8.09-4.01-12.11-6.07
				c-43.41-22.29-87.2-43.84-130.37-66.61c-1.62-0.85-3.34-1.56-4.57-3.02c-0.2-0.24-0.42-0.47-0.82-0.27
				c-0.63,0.32-0.93-0.04-1.2-0.57c-0.21-0.4-0.53-0.74-0.93-1.28c-0.26,1.68,0.09,3.11-0.02,4.52c-0.11,1.49,0.63,2.26,1.84,2.88
				c6.77,3.45,13.53,6.92,20.29,10.37c9.58,4.89,19.21,9.68,28.72,14.69c9.14,4.82,18.41,9.36,27.58,14.1
				c25.28,13.08,50.65,25.98,75.99,38.97c1.43,0.73,3.06,1.14,4.55,1.21c3.73,0.19,7.47-0.33,10.78-2.21
				c7.58-4.31,14.9-9.04,22.33-13.58c1.79-1.1,3.57-2.22,5.43-3.38C211.97,160.01,209.9,158.88,210.55,155.65z M241.08,124.31
				c-0.16,1.9,0.3,3.48-0.38,4.97c-0.93,2.06-2.14,3.92-3.72,5.55c-4.56,4.69-9.65,8.73-15.04,12.41c-0.72,0.49-1.41,1.02-2.17,1.58
				c0.9,0.78,1.95,1.12,2.78,1.82c2.65,2.24,2.68,2.21,5.18-0.27c0.11-0.11,0.23-0.23,0.35-0.33c4.51-3.71,8.51-7.98,12.96-11.77
				c0.3-0.25,0.5-0.61,0.74-0.93c1.89-2.58,1.7-5.52,1.27-8.42C242.82,127.4,242.26,125.87,241.08,124.31z M218.94,150.69
				c-0.48-0.02-0.96-0.01-1.44,0.32c-1.91,1.34-3.59,2.9-4.97,4.79c-0.66,0.9-0.37,1.9,0.67,2.3c0.74,0.28,1.54,0.45,2.25,0.79
				c0.68,0.32,1.09,0.14,1.53-0.41c1.05-1.32,2.28-2.42,3.87-3.12c0.83-0.36,1.51-1.02,2.36-1.39c0.56-0.24,0.56-0.59,0.05-0.95
				c-0.92-0.63-1.8-1.31-2.74-1.92C220.07,150.8,219.59,150.43,218.94,150.69z M224.09,161.4c0.36-1.08,1.13-1.88,1.83-2.74
				c0.52-0.65,1.92-0.56,1.73-1.46c-0.13-0.64-1.23-1.04-1.83-1.62c-0.55-0.54-1.19-0.59-1.76-0.27c-1.84,1.02-3.85,1.79-5.27,3.45
				c-0.19,0.23-0.6,0.39-0.46,0.76c0.11,0.3,0.5,0.16,0.75,0.26C220.7,160.4,222.5,160.46,224.09,161.4z M103.52,146.04
				c-3.69-1.89-7.38-3.77-11.07-5.66c-0.06,0.12-0.12,0.23-0.17,0.35C95.97,142.62,99.36,145.09,103.52,146.04z"/>
			<path d="M175.08,167.69c-1.67,0.29-3.13-0.35-4.57-1.1c-17.16-8.94-34.33-17.88-51.49-26.82c-26.7-13.91-53.4-27.83-80.11-41.73
				c-1.74-0.9-3.47-1.81-5.24-2.65c-1.29-0.61-2.42-1.57-2.53-3.23c-0.07-1.07,0.43-1.7,1.37-2.14c9.32-4.42,18.63-8.85,27.95-13.28
				c9.46-4.5,18.94-8.95,28.36-13.54c1.45-0.71,2.72-1.59,4.42-1.33c0.64,0.1,1.22,0.24,1.28,1c0.06,0.66,0.6,0.69,1.01,0.87
				c14.44,6.4,28.88,12.8,43.32,19.19c28.66,12.69,57.33,25.38,85.98,38.1c0.82,0.36,1.71,0.5,2.48,1.11
				c1.54,1.23,1.48,2.81,1.07,4.36c-0.32,1.22-1.12,2.27-2.15,3.11c-15.39,12.58-31.35,24.41-46.94,36.72
				C178.01,167.3,176.69,167.86,175.08,167.69z M174.94,166.78c0.87-0.03,1.72-0.07,2.59-0.59c2.42-1.44,4.53-3.27,6.72-5
				c13.8-10.84,27.91-21.28,41.47-32.43c2.75-2.26,2.47-5.27-0.7-6.67c-43.29-19.17-86.58-38.32-129.84-57.55
				c-2.11-0.94-3.85-0.83-5.81,0.1C70.79,73.53,52.19,82.37,33.6,91.21c-0.54,0.25-0.93,0.48-0.93,1.2c0,0.75,0.09,1.32,0.83,1.67
				c0.68,0.33,1.32,0.74,2,1.09c27.23,14.19,54.47,28.38,81.7,42.57c17.94,9.35,35.89,18.7,53.83,28.04
				C172.24,166.41,173.46,167.02,174.94,166.78z"/>
			<path d="M169.73,112.47c0.41,1.02-0.34,1.53-1.08,2.05c-8.01,5.53-15.94,11.17-24.13,16.45c-3.8,2.45-2.74,2.49-7.01,0.4
				c-17.23-8.43-34.44-16.9-51.66-25.35c-0.25-0.12-0.51-0.24-0.75-0.38c-0.39-0.22-0.76-0.49-0.69-1.02
				c0.06-0.45,0.42-0.64,0.78-0.84c2.89-1.6,5.78-3.22,8.5-5.11c0.62-0.43,0.64-0.71-0.01-1.06c-0.81-0.44-1.02-1.3-1.38-2.04
				c-0.23-0.48,0.06-0.88,0.41-1.15c1.93-1.52,3.86-2.92,6.22-3.92c2.12-0.9,3.19-0.36,4.44,1.08c0.55,0.63,1.25,0.83,2.13,0.29
				c3.03-1.87,6.36-3.18,9.32-5.17c1.51-1.02,3.2-1,4.75,0c2.09,1.35,4.46,2.12,6.66,3.24c7.71,3.96,15.92,6.86,23.53,11.04
				c3.33,1.83,7.02,2.89,10.46,4.49c3.04,1.41,6.04,2.89,8.79,4.86C169.85,110.94,169.83,111.58,169.73,112.47z M144.68,104
				c-0.06-0.41-0.38-0.43-0.61-0.55c-4.33-2.34-8.8-4.39-13.23-6.53c-0.46-0.22-0.73-0.15-1.16,0.14c-1.38,0.93-2.78,1.82-4.13,2.8
				c-2.98,2.15-6.09,4.12-9.16,6.16c-0.71,0.47-5.02,2.95-6.17,3.86c-0.41,0.33-0.6,0.66,0.05,0.97c4.55,2.11,8.65,5,12.96,7.51
				c0.51,0.3,0.81,0.27,1.35-0.1c2.77-1.9,5.14-4.34,8.07-6.01c4-2.29,7.8-4.86,11.4-7.74C144.26,104.32,144.48,104.15,144.68,104z
				 M140.62,126.74c0.37,0.07,0.51-0.22,0.69-0.41c0.95-0.98,2.05-1.78,3.23-2.46c5.05-2.92,14.73-10.39,14.7-10.24
				c-0.01,0.05,0.5-0.32,1.35-1.07c0.99-0.87-0.14-1.78-0.97-2.16c-3.49-1.59-7-3.12-10.51-4.67c-0.27-0.12-0.54-0.33-0.84,0.03
				c-1.26,1.5-2.99,2.37-4.61,3.37c-5.24,3.24-10.26,6.79-15.04,10.68c-1.08,0.88-1.07,0.92,0.24,1.53
				c3.77,1.74,7.55,3.47,11.32,5.2C140.34,126.61,140.49,126.68,140.62,126.74z"/>
		</g>
	</g>
</g>
</svg>
