<?xml version="1.0" encoding="utf-8"?>
<!-- Generator: Adobe Illustrator 23.0.2, SVG Export Plug-In . SVG Version: 6.00 Build 0)  -->
<svg version="1.1" id="line" xmlns="http://www.w3.org/2000/svg" xmlns:xlink="http://www.w3.org/1999/xlink" x="0px" y="0px"
	 viewBox="0 0 288 226.77" style="enable-background:new 0 0 288 226.77;" xml:space="preserve">
<style type="text/css">
	.st0{fill:#FF3A5B;}
	.st1{fill:#50E3C2;}
	.st2{fill:#FF8438;}
	.st3{fill:#FFDD4C;}
	.st4{fill:#FFFFFF;}
	.st5{fill:#925F36;}
	.st6{fill:#422918;}
	.st7{fill:#007EFF;}
	.st8{fill:#9C9B9B;}
	.st9{fill:#C6C6C5;}
	.st10{fill:#D9D9D9;}
	.st11{fill:#6F6F6E;}
	.st12{fill:#ECECEC;}
	.st13{fill:#97E6FC;}
	.st14{fill:#B1B1B1;}
	.st15{fill:#1D1D1B;}
	.st16{fill:#FFFFFF;stroke:#1D1D1B;stroke-width:0.5;stroke-miterlimit:10;}
	.st17{fill:none;stroke:#FFFFFF;stroke-linecap:round;stroke-linejoin:round;stroke-miterlimit:10;}
	.st18{fill:#A0ECD2;}
	.st19{fill:#C4F5FB;}
	.st20{fill:none;stroke:#FFFFFF;stroke-width:0.876;stroke-linecap:round;stroke-linejoin:round;stroke-miterlimit:10;}
	.st21{fill:none;}
	.st22{fill:#575756;}
	.st23{fill:#FFFFFF;stroke:#1D1D1B;stroke-width:0.9148;stroke-miterlimit:10;}
	.st24{fill:#9B5416;}
	.st25{fill:#868686;}
</style>
<g>
	<g>
		<path class="st2" d="M77.97,109.74c2.83-10.93,6-22.44,14.12-30.29c6.24-6.02,14.68-9.14,23-11.6c1.88-0.56,3.79-1.1,5.47-2.11
			c2.49-1.5,4.28-3.91,6.46-5.84c4.62-4.09,10.93-5.87,17.1-6.12c6.17-0.25,12.3,0.91,18.36,2.06c3.97,0.75,7.99,1.52,11.64,3.25
			c2.67,1.27,5.1,3.04,7.12,5.19c-3.29-0.01-7.45,0.59-8.35,3.76c2.2,1.55,4.4,3.09,6.59,4.64c1.38,0.97,2.85,1.98,4.53,2.12
			c3.78,0.32,6.35-3.53,8.72-6.49c0.42-0.52,0.91-1.06,1.57-1.18c0.7-0.13,1.4,0.27,1.9,0.78c2.06,2.13,1.31,5.68-0.04,8.31
			c-1.61,3.12-3.93,6.67-2.38,9.81c0.44-0.97,2.01-0.75,2.65,0.1s0.67,2,0.87,3.05s0.76,2.2,1.8,2.41c-3.09,0.21-5.5,2.85-6.85,5.64
			c-1.36,2.79-0.9,7.88-2.45,10.58c-3.61,6.31-12.23,7.07-19.14,9.34c-5.6,1.84-11.99,3.63-17.14,0.75
			c-4.06-2.27-5.43-5.67-9.85-7.12c-2.28-0.75-4.66-0.07-7.05,0.22c-8.9,1.07-19.12,1.28-27.08,5.39c-0.72,0.38-1.55-0.09-2.37-0.18
			c-0.61-0.07-1.14-0.42-1.67-0.72c-3.56-1.96-9.37-1.7-14.02,1.01c-1.7,0.99-1.97,3.35-3.74,4.18c-1.78,0.83-6.64-0.89-8.27-1.99
			c1.88-2.35,0.98-6.35-1.71-7.69c0.34,0.27,0.67,0.55,1.01,0.82"/>
		<path class="st2" d="M166.11,129.46c7.93,3.14,15.84,6.32,23.74,9.53c0.2,0.08,0.42,0.18,0.51,0.38c0.2,0.46-0.45,0.81-0.95,0.9
			c-2.28,0.38-4.59,0.58-6.9,0.6c-0.76,0.01-1.53,0-2.26-0.18c-0.77-0.18-1.48-0.54-2.18-0.89c-3.87-1.94-7.73-3.87-11.6-5.81
			c-0.8-0.4-1.63-0.83-2.16-1.55c-0.53-0.72-0.63-1.84,0.01-2.46c0.23-0.22,0.72-0.26,0.74,0.06"/>
		<path class="st2" d="M172.3,126.87c0.55-1.45,3.77-1.97,5.27-2.34c1.51-0.37,2.55-1.25,4.09-1.08c5.53,0.64,11.94,1.54,17.28,3.08
			c1.01,0.29,1.69,1.89,2.31,2.73c0.54,0.73,0.63,1.68,0.62,2.59c-0.02,1.71-0.47,3.6-1.91,4.52c-1.04,0.67-2.38,0.69-3.6,0.48
			c-3.89-0.66-7.59-1.7-11.3-3.06c-1.97-0.72-3.66-2.62-5.57-3.49c-1.91-0.87-3.76,1.03-4.23-1.02c0.02,0.37-1.23-1.25-1.21-0.88"/>
		<path class="st3" d="M68.19,130.15c2.52-7.5,11.84-11.88,19.23-9.04c4.48-5.13,12.07-7.29,18.58-5.28
			c0.78,0.24,1.67,0.69,1.74,1.5c0.05,0.59-0.37,1.1-0.59,1.65c-0.8,1.98,1.17,4.14,3.27,4.58c2.1,0.44,4.25-0.21,6.38-0.37
			c5.44-0.41,10.98,2.66,13.53,7.49c4.62-4.21,9.96-8.69,16.2-8.38c3.6,0.18,6.9,1.96,10.05,3.7c1.35,0.74,2.7,1.49,4.05,2.23
			c1.01,0.55,2.07,1.17,2.59,2.19c0.52,1.02,0.18,2.56-0.93,2.86c-0.7,0.19-1.42-0.17-2.06-0.51c-3.82-2.04-7.63-4.09-11.45-6.13
			c-0.88-0.47-1.83-0.95-2.82-0.8s-1.85,1.28-1.36,2.14c5.83,2.51,11.52,5.33,17.05,8.45c-6.8,3.29-13.7,3.84-20.6,0.79
			c0.08,2.04-1.91,4.28-3.74,5.17s-4.46,1.18-6.5,1.32c-4.76,0.32-10.49-0.52-13.93-3.83c-0.61-0.59-1.24-1.16-1.88-1.72
			c-1.36-1.17-3.25,2.17-8.41,2.24c-6.06,0.09-9.25-0.99-17.48-4.74c-2.81-1.28-6.18,0.64-9.25,0.28c-3.7-0.43-7.09-1.34-10.15-3.46
			"/>
		<path class="st1" d="M84.44,90.34c-3.04,0.08-6.05,0.99-8.62,2.6c-0.76-0.85-2.2-0.77-3.14-0.12c-0.95,0.65-1.52,1.7-2.05,2.71
			c-1.65-0.92-4.03,0.05-4.58,1.85c-1.65-0.99-3.45-2.01-5.37-1.82c-1.92,0.19-3.73,2.22-2.93,3.97c-1.25-0.81-2.33,1.4-3.74,1.88
			c-0.88,0.3-1.82-0.13-2.75-0.16c-3.06-0.1-4.45,3.74-4.92,6.77c-3.1,0.23-5.82,2.95-6.05,6.04s2.04,6.19,5.07,6.89
			c-0.62,1.03,0.42,2.42,1.61,2.61s2.35-0.4,3.42-0.98c0.99,1.24,2.82,1.72,4.29,1.14c-0.47,1.15-0.01,2.6,1.03,3.28
			c1.04,0.67,2.55,0.49,3.41-0.41c0.41,1.05,0.97,2.05,1.65,2.95c1.18,0.2,2.44-0.05,3.45-0.69c1.43,0.32,2.26,2.72,3.58,2.07
			c0.76-0.37,0.71-1.44,0.77-2.29c0.23-3.48,3.81-5.57,6.78-7.41c2.96-1.84,6.05-5.14,4.69-8.35c-1.16-0.62-2.49-0.94-3.81-0.91
			c2.03-6.78,4.56-13.41,7.55-19.82"/>
		<path class="st2" d="M159.53,120.19c5.04-2.5,10.48-4.18,16.06-4.94c4.43-0.61,8.98-0.65,13.22-2.06s8.26-4.62,9.03-9.02
			c-2.22,0.49-4.69-0.62-5.8-2.6s-0.77-4.67,0.8-6.31c0.89-0.93,2.09-1.51,3.27-2.05c6.3-2.86,12.91-5.04,19.67-6.52
			c1.08-0.24,2.25-0.45,3.27-0.01c1.61,0.69,2.21,2.79,1.76,4.49c-0.44,1.7-1.65,3.07-2.82,4.38c3.07,2.16,5,5.85,5.04,9.6
			c0.04,3.75-1.82,7.48-4.85,9.7c5.02-1.48,10.03-2.96,15.05-4.44c2.79-0.82,6.66-1.18,7.8,1.5c1.12,2.64-1.74,5.17-4.25,6.53
			c-7.78,4.22-16.11,7.42-24.71,9.48c-2.64,0.63-5.4,1.16-8.04,0.52c-2.04-0.49-3.85-1.65-5.8-2.44c-2.83-1.14-5.91-1.46-8.95-1.77
			c-4.14-0.43-8.34-0.85-12.44-0.13c-1.83,0.32-3.63,0.87-5.48,1.08c-4.68,0.55-9.57-1.14-12.91-4.47"/>
		<path class="st2" d="M145.58,110.55c-10.35,0.52-20.67,1.76-30.86,3.71c-1.72,0.33-3.49,0.7-4.94,1.67
			c-1.45,0.98-2.54,2.71-2.22,4.44c0.28,1.52,1.58,2.7,3.03,3.25c1.45,0.55,3.03,0.59,4.58,0.6c11.27,0.11,22.56-0.64,33.72-2.22
			c1.54-0.22,3.55-1.11,3.16-2.62c-0.12-0.47-0.48-0.84-0.82-1.19c-1.68-1.7-3.35-3.39-5.03-5.09c-0.65-0.66-1.77-1.32-2.37-0.61"/>
	</g>
	<g id="JOmeh5_1_">
		<g>
			<path d="M191.2,54.93c1.34-0.58,1.98-0.41,2.79,0.74c1.1,1.56,2.28,3.09,1.66,5.21c-0.13,0.44,0.12,0.5,0.49,0.48
				c0.94-0.05,1.89-0.05,2.83-0.07c0.55-0.01,0.99,0.19,1.09,0.78c0.15,0.96,0.43,0.68,0.98,0.23c2.59-2.09,4.68-2.58,7.17-0.4
				c0.3,0.26,0.6,0.53,0.65,0.91c0.2,1.5,0.38,2.96,0.23,4.52c-0.2,2.13-1.51,2.77-3.13,3.37c-1.96,0.72-3.44,2.15-4.89,3.6
				c-0.08,0.08-0.24,0.22-0.22,0.24c0.64,1.11-0.52,0.97-0.91,1.35c-1.46,1.42-2.55,3.11-3.63,4.82c-0.27,0.43-0.14,0.6,0.34,0.63
				c1.17,0.08,2.34,0.32,3.5,0.26c2.27-0.13,4.48,0.36,6.72,0.51c4.18,0.27,8.29,1.16,12.39,2.03c4.56,0.96,9.03,2.15,13.24,4.22
				c4.1,2.01,7.75,4.63,10.69,8.16c1.71,2.05,2.62,4.55,3.3,7.11c1.16,4.37,1.3,8.74-0.32,13.07c-0.31,0.83-0.73,1.59-1.18,2.34
				c-1.87,3.07-4.11,5.86-6.35,8.64c-1.97,2.45-4.8,3.8-7.47,5.3c-4.85,2.73-9.73,5.41-14.65,8.02c-2.74,1.45-5.39,3.08-8.28,4.21
				c-0.25,0.1-0.49,0.21-0.71,0.35c-0.18,0.11-0.21,0.31-0.12,0.5c0.1,0.21,0.22,0.45,0.5,0.28c0.6-0.37,0.95,0.05,1.4,0.36
				c1,0.69,2.03,1.3,3.31,1.32c0.36,0.01,0.75,0.15,1.07,0.33c1.74,1.01,3.84,1.14,5.52,2.29c0.12,0.08,0.36-0.02,0.54-0.05
				c1.33-0.19,2.65-0.1,3.92,0.31c4.64,1.51,9.33,2.88,13.88,4.62c4.83,1.85,9.52,4.09,14.17,6.39c3.93,1.95,8.06,3.48,11.9,5.63
				c1.95,1.09,3.96,2.06,5,4.29c1.1,2.36-0.5,5.92-3.04,6.51c-1.78,0.41-3.54,0.16-5.25-0.38c-7.15-2.23-14.07-5.08-20.94-8.06
				c-4.37-1.9-8.66-3.99-13.13-5.65c-0.62-0.23-1.17-0.37-1.84-0.21c-3.33,0.78-6.76,0.6-10.14,0.95
				c-8.79,0.92-17.66,0.75-26.44,1.78c-3.81,0.45-7.6,0.17-11.39-0.26c-0.36-0.04-0.48-0.32-0.7-0.52c-0.73-0.7-1.47-0.5-1.82,0.47
				c-0.95,2.63-2.55,3.82-5.31,3.97c-0.34,0.02-0.68,0.04-1.02,0.05c-3.08,0.03-3.14,0.76-3.87,2.99c-0.74,2.25-2.44,4.12-5.33,4.24
				c-7.62,0.31-15.2,1.1-22.75,2.24c-5.76,0.87-11.59,0.9-17.42,0.57c-2.75-0.15-5.51-0.24-8.27-0.33c-3.21-0.1-6.42-0.09-9.63-0.29
				c-4.07-0.25-8.12-0.65-12.04-1.9c-0.69-0.22-1.38-0.44-1.9-0.99c-0.35-0.37-0.86-0.74-0.31-1.34c0.05-0.06,0.14-0.15,0.13-0.18
				c-0.97-1.55,0.59-1.5,1.23-1.82c1.77-0.87,3.53-1.73,5.2-2.78c1.55-0.97,3.38-1.09,5.12-1.36c4.01-0.61,7.84-2.01,11.82-2.67
				c6.14-1.02,12.25-2.27,18.46-2.85c4.96-0.46,9.89-1.25,14.84-1.83c6.75-0.79,13.53-1.33,20.33-1.58
				c4.64-0.17,9.29-0.13,13.91-0.71c0.72-0.09,1.37-0.3,1.79-0.86c1.09-1.45,2.6-2.04,4.3-2.27c7.48-1.05,14.99-1.9,22.51-2.54
				c1.47-0.12,2.95-0.08,4.42-0.12c0.33-0.01,0.68,0.1,1.08-0.27c-1.76-0.7-3.38-1.58-5.22-1.9c-0.91-0.16-1.74,0.05-2.49,0.52
				c-0.75,0.47-1.53,0.54-2.38,0.58c-4.12,0.16-7.89-1.18-11.6-2.75c-1.14-0.48-2.11-0.73-3.46-0.3c-2.39,0.76-4.95,1-7.43,1.48
				c-7,1.36-14.12,1.29-21.19,1.89c-7.18,0.61-14.34,0.17-21.51,0.09c-3.19-0.03-6.39-0.56-9.57-0.93
				c-2.37-0.28-4.75-0.04-7.13-0.31c-3.42-0.39-6.87-0.47-10.31-0.73c-6.36-0.49-12.68-1.14-18.96-2.38
				c-8.1-1.59-15.98-3.95-23.86-6.32c-4.67-1.41-9.24-3.12-13.82-4.79c-1.51-0.55-3.1-1.22-4.14-2.29
				c-1.63-1.69-3.92-2.42-5.41-4.21c-1.09-1.31-2.23-2.59-3.2-3.99c-1.42-2.03-2.92-4.03-4.01-6.24c-2.57-5.2-2.19-10.31,0.7-15.39
				c3.18-5.58,8.34-8.42,13.79-11.02c7.32-3.5,15.03-5.75,22.88-7.6c3.68-0.86,7.27-2.16,11.03-2.54c1.81-0.19,3-1.05,4.23-2.21
				c2.07-1.95,3.76-4.37,6.19-5.87c4.73-2.92,9.25-6.29,14.51-8.21c3.22-1.18,6.49-2.3,9.85-3.03c1.19-0.26,2.09-0.74,2.88-1.78
				c2.56-3.38,5.82-5.98,9.5-8.04c2.92-1.64,6.18-1.91,9.4-2.32c6.24-0.8,12.36,0.23,18.47,1.26c1.59,0.27,3.18,0.73,4.68,1.32
				c2.41,0.96,4.87,0.95,7.36,0.76c0.86-0.07,1.72-0.28,2.52,0.28c0.25,0.17,0.56,0.13,0.86-0.03c1.42-0.76,2.96-1.1,4.55-1.25
				c0.8-0.08,1.23-0.66,1.72-1.2c2.21-2.45,4.82-3.76,8.18-2.99c1.09,0.25,1.85,0.94,2.48,1.81
				C191.72,53.77,191.05,54.27,191.2,54.93z M53.16,120.47c-0.09,0.25,0.12,0.81-0.52,0.49c-0.49-0.25-1.03-0.23-1.56-0.16
				c-0.77,0.11-1.18,0.63-1.33,1.37c-0.18,0.87,0.08,1.61,0.79,2.11c0.55,0.39,1.17,0.57,1.74-0.02c0.19-0.19,0.37-0.41,0.65-0.11
				c0.35,0.37,0.4,0.02,0.51-0.22c0.12-0.28,0.22-0.57,0.37-0.83c0.67-1.11,0.47-1.89-0.69-2.61c-0.03-0.34-0.57-0.41-0.44-0.87
				c0.63-0.1,0.88,0.63,1.42,0.71c0.87-2.16,1.1-2.29,2.83-1.64c0.07,0.98,1.13,1.61,0.74,2.77c0.48-0.18,0.8-0.32,1.12-0.42
				c2.06-0.62,3.61,0.55,3.72,2.72c0.07,1.36-0.45,2.38-1.56,3.09c-0.36,0.23-0.61,0.44-0.43,0.9c-0.35-0.23-0.69-0.46-1.05-0.68
				c-0.37-0.23-0.63-0.35-0.77,0.28c-0.24,1.09-0.95,1.72-2.09,1.71c-1.11-0.01-2.41-1.13-2.63-2.2c-0.3-1.5-0.42-1.59-2.05-1.59
				c-1.12,0-2.1-0.29-2.7-1.34c-0.25-0.43-0.44-0.54-0.83-0.11c-0.92,1.03-2.05,0.58-3.04,0.22c-1.03-0.38-1.27-1.36-1.11-2.39
				c0.1-0.64-0.09-0.73-0.7-0.75c-2.39-0.07-3.21-1.31-2.29-3.56c0.25-0.6,0.1-0.78-0.34-1.05c-0.77-0.49-1.17-1.24-1.02-2.14
				c0.15-0.83,0.78-1.31,1.58-1.43c0.49-0.08,0.49-0.24,0.4-0.67c-0.31-1.48,0.13-2.18,1.55-2.67c0.63-0.22,1.26-0.22,1.91-0.12
				c0.36,0.05,0.62,0.02,0.53-0.45c-0.25-1.27,0.53-1.89,1.47-2.42c0.23-0.13,0.58-0.09,0.41-0.61c-0.73-2.2,0.2-3.74,2.44-3.44
				c1.42,0.19,2.64-0.14,3.95-0.26c0.75-0.07,1.67,0.25,1.34-1.11c-0.03-0.13,0.15-0.34,0.27-0.48c0.9-1.03,3.58-1.03,3.86,0.2
				c0.37,1.63,1.52,1.81,2.55,2.45c0.96,0.6,2.27,0.39,2.69-0.71c0.17-0.44,0.86-0.9,0.41-1.41c-0.52-0.58-1.25-1-2.09-0.94
				c-0.81,0.06-1.42,0.48-1.75,1.26c-0.1,0.24,0.03,0.61-0.4,0.77c-0.37-1.05,0.25-1.6,0.9-2.12c0.22-0.18,0.43-0.35,0.19-0.65
				c-0.21-0.26-0.39-0.07-0.58,0.04c-0.33,0.21-0.61,0.55-1.25,0.51c0.69-0.94,2.34-1.48,1.04-2.87c-0.5-0.54-2.18-0.41-2.66,0.16
				c-0.88,1.05-0.04,1.73,0.82,2.47c-1.09,0.11-1.4-0.49-1.58-1.17c-0.2-0.76-0.07-1.49,0.71-1.86c1-0.48,2.05-0.64,3.02,0.02
				c0.44,0.3,0.77,0.29,1.24,0.1c1.37-0.53,2.7-0.43,3.83,0.57c1.13,0.99,2.84,1.11,4.05,0.21c0.59-0.43,0.7-0.97,0.4-1.61
				c-0.31-0.66-0.85-0.82-1.52-0.6c-0.81,0.27-1.73,1.6-1.69,2.42c-0.61-0.51-0.72-0.78-0.52-1.28c0.49-1.19,2.08-2.11,3.34-1.79
				c0.51,0.13,0.67-0.07,0.9-0.4c0.4-0.6,0.79-1.23,1.51-1.5c0.89-0.34,1.85,0.2,2.59,0.02c0.72-0.17,1.23-1.26,2.2-1.43
				c0.28-0.05,0.65,0.17,0.83-0.17c0.83-1.58,2.39-1.69,3.86-1.99c0.3-0.06,0.62-0.06,0.8-0.35c0.59-0.99,1.18-1.99,1.89-3.2
				c-0.73,0.12-1.16,0.2-1.6,0.27c-3.14,0.5-6.17,1.47-9.26,2.18c-9.08,2.11-17.97,4.74-26.34,8.99c-4.47,2.27-8.41,5.03-10.96,9.57
				c-2.8,4.99-2.95,9.91-0.11,14.88c0.66,1.16,1.49,2.21,2.17,3.36c2.93,4.93,7.29,8.16,12.41,10.29c8.13,3.39,16.45,6.3,24.9,8.76
				c4.16,1.21,8.43,2.08,12.65,3.06c6.13,1.42,12.32,2.32,18.63,2.15c1.66-0.04,3.33,0.05,4.98,0.16c5.5,0.38,10.99,0.93,16.5,1.18
				c9.59,0.44,19.19,0.4,28.78,0c2.91-0.12,5.83-0.05,8.72-0.32c4.29-0.39,8.58-0.71,12.87-1.04c1.66-0.13,3.29-0.41,5.06-0.98
				c-0.49-0.28-0.77-0.46-1.07-0.62c-3.54-1.99-7.23-3.65-10.92-5.33c-0.95-0.43-1.94-0.86-2.85-1.32c-1-0.5-1.94,0.02-2.83-0.35
				c-1.46-0.61-2.89-0.69-4.48-0.39c-2.96,0.57-6,0.58-8.99,1.08c-2.23,0.37-4.54,0.29-6.77-0.14c-1.93-0.37-3.78-1.44-5.81-0.33
				c-0.23,0.13-0.39,0.12-0.58,0.42c-0.97,1.52-2,3.05-3.97,3.37c-0.86,0.14-1.73,0.16-2.59,0.31c-2.4,0.41-4.76-0.13-7.13-0.19
				c-2.66-0.07-5.14-0.75-7.6-1.64c-1.37-0.5-2.49-1.41-3.44-2.54c-0.78-0.92-1.55-1.47-2.96-0.97c-1.33,0.47-2.64,1.05-4.07,1.33
				c-5.09,1.01-9.95,0.51-14.58-1.95c-0.23-0.12-0.51-0.3-0.74-0.26c-1.48,0.22-2.49-0.68-3.55-1.46c-0.7-0.52-1.4-0.73-2.31-0.47
				c-1.45,0.41-2.95,0.66-4.48,0.54c-2.49-0.19-4.98-0.29-7.44-0.72c-2.83-0.51-5.15-1.94-6.85-4.28c-0.36-0.49-0.46-0.64-1.06-0.3
				c-1.71,0.98-2.99,0.17-3.03-1.8c-0.01-0.35,0.23-0.72-0.02-1.12c-0.72,0.57-1.44,1.02-2,1.72c-0.67,0.82-1.63,0.67-2.53,0.48
				c-0.51-0.11-0.87-0.42-0.97-0.99c-0.16-0.98,0.37-1.95,1.36-2.5c0.66-0.76,1.82-0.7,2.69,0.23c0.42,0.45,0.83,0.65,1.22,0.17
				c0.51-0.62,0.24-1.47,0.38-2.2c0.1-0.52-0.58-0.26-0.89-0.41c-0.52-0.25-0.82-0.66-0.99-1.19c-0.34-1.06,0.26-2.54,1.36-3.06
				c0.67-0.32,0.93-0.62,0.87-1.43c-0.15-2.05,1.08-3.27,3.11-3.06c1.31,0.13,2.01-0.65,2.75-1.46c0.21-0.23,0.25-0.54,0.14-0.86
				c-0.26-0.76-1.53-1.27-2.54-1.05c-0.94,0.21-0.74,1.04-0.84,1.65c-0.12,0.75,0.72,0.82,1.26,1.28c-1.22,0.25-1.44-0.55-1.91-1.18
				c-0.79-1.07-0.88-1.36,0.16-2.11c0.56-0.41,0.59-0.79,0.34-1.34c-1.28,0.58-1.28,0.58-2.04,0.31c0.58-0.27,1.14-0.36,1.56-0.74
				c0.62-0.55,0.6-1.1,0.06-1.67c-0.77-0.8-2.38-0.78-3.22,0.03c-0.6,0.57-0.44,1.64,0.39,2.53c0.1,0.11,0.23,0.21,0.31,0.33
				c1.42,2.1,1.34,2.96-0.51,4.15c-0.06,0.04-0.13,0.08-0.2,0.11c-0.33,0.15-0.29,0.3-0.13,0.61c0.68,1.36,0.55,2.12-0.53,3.14
				c-0.35,0.33-0.8,1.04-1.28,0.5c-0.46-0.52,0.38-0.74,0.63-1.11c0.19-0.28,0.46-0.52,0.6-0.83c0.2-0.44,0.18-0.92-0.26-1.24
				c-0.69-0.5-1.45-0.7-2.24-0.29c-0.66,0.34-1.42,0.66-1.23,1.67c0.04,0.22,0.03,0.49-0.26,0.55c-0.12,0.03-0.38-0.03-0.4-0.11
				c-0.29-1.08-1.24-0.73-1.93-0.94c0.07-0.18,0.17-0.41,0.38-0.37c1.32,0.27,1.8-0.92,2.59-1.53c0.46-0.36,0.41-0.95,0.18-1.48
				c-0.16-0.36-0.45-0.51-0.83-0.44c-0.53,0.1-1.02,0.22-1.24,0.83c-0.88,2.4-1.95,2.73-4,1.26c-0.77,1.44-1.26,1.72-2.35,1.33
				c0.08-0.23,0.29-0.19,0.45-0.24c1.11-0.33,1.56-1.1,1.2-2.03c-0.32-0.8-1.29-1.21-2.07-0.86c-0.82,0.36-0.94,0.99-0.37,2.13
				c0.29,0.58,0.75,1.19,0.6,1.81c-0.25,1.03,0.19,1.25,1.04,1.24C52.72,120.37,52.94,120.43,53.16,120.47z M74.9,121.17
				c-0.57,0.18-1.09,0.5-1.71,0.57c-1.24,0.13-2.17-0.53-2.37-1.75c-0.05-0.3-0.13-0.65,0.26-0.76c0.32-0.09,0.43,0.22,0.56,0.45
				c0.84,1.49,2.41,1.53,3.24-0.02c0.37-0.69,0.75-1.6,0.28-2.37c-0.42-0.69-1.24-0.63-1.97-0.48c-0.35,0.07-0.67,0.22-0.7,0.63
				c-0.02,0.34,0.17,0.58,0.49,0.69c0.33,0.11,0.73,0.22,0.47,0.68c-0.2,0.36-0.58,0.27-0.92,0.14c-0.7-0.27-0.95-0.85-0.97-1.54
				c-0.02-0.76,0.45-1.19,1.11-1.41c0.71-0.24,1.46-0.37,2-0.98c0.37-0.43,0.46-0.87,0.19-1.36c-0.45-0.82-1.21-0.67-1.91-0.53
				c-0.46,0.1-1.1,0.24-0.97,0.89c0.32,1.59-0.63,2.4-1.72,3.17c-0.26,0.18-0.64,0.29-0.47,0.77c0.57,1.7-0.32,2.69-1.68,3.4
				c-0.36,0.19-0.4,0.33-0.3,0.68c0.23,0.8,0.04,1.54-0.54,2.11c-0.47,0.45-0.37,0.74,0.03,1.19c1.13,1.3,0.86,2.82-0.57,3.8
				c-0.26,0.18-0.57,0.19-0.82,0.34c-0.52,0.32-0.61,0.87-0.51,1.41c0.11,0.56,0.62,0.62,1.07,0.66c0.44,0.04,0.79-0.06,0.97-0.58
				c0.45-1.28,0.81-2.62,1.68-3.69c0.39-0.49,0.32-0.74-0.12-1.18c-0.7-0.72-0.82-1.72-0.68-2.68c0.11-0.73,0.76-1.01,1.41-1.15
				c0.89-0.2,1.39,0.37,1.85,1.02c0.17,0.24,0.17,0.95,0.73,0.4c0.87-0.83,1.7-1.7,2.54-2.55c1.23-0.45,2.29-1.28,3.59-1.59
				c0.95-0.22,1.59-0.95,1.47-1.9c-0.13-1-1.08-1.11-1.94-1.14c-0.43-0.01-0.82,0.04-1.19,0.27c-0.23,0.15-0.5,0.32-0.44,0.61
				C76.71,119.01,75.8,120.08,74.9,121.17z M201.06,102.07c1.5-0.37,1.48-0.37,1.12-1.85c-0.14-0.59-0.44-1.18-0.2-2.15
				c0.27,1.06,0.49,1.81,0.64,2.58c0.14,0.73,0.45,0.89,1.17,0.68c3.25-0.91,6.36-2.18,9.44-3.54c1.08-0.47,2.29-0.91,2.99-1.8
				c0.61-0.79,1.49-1.24,2.04-2.16c0.45-0.75,1.25-1.34,1.72-2.23c0.45-0.86,0.49-1.58,0.08-2.37c-0.21-0.41-0.46-0.78-0.56-1.24
				c-0.22-1.01-0.79-1.29-1.82-1.14c-2.93,0.44-5.72,1.4-8.54,2.22c-2.21,0.64-4.35,1.53-6.48,2.43c-0.58,0.25-1.04,0.4-0.31,1.13
				c0.7,0.69,0.97,1.67,0.99,2.7c-0.37-0.68-0.6-1.43-0.97-2.11c-0.43-0.8-1.03-1.17-1.93-0.51c-1.01,0.74-2.06,1.42-3.13,2.07
				c-0.57,0.35-0.67,0.65-0.36,1.27c0.43,0.85,0.88,1.72,0.87,3.03c-0.46-1.14-0.8-2.01-1.16-2.88c-0.15-0.37-0.32-0.65-0.85-0.44
				c-2.06,0.82-2.93,2.57-2.27,4.74c0.26,0.85,0.48,1.69,0.44,2.58c-0.01,0.28-0.11,0.67,0.38,0.63c0.32-0.02,0.7,0.04,0.83-0.41
				c0.06-0.23-0.07-0.55,0.36-0.71c0.01,1.12,0.71,0.93,1.41,0.76c1.4-0.33,2.77-0.76,4.11-1.28L201.06,102.07z M219.1,111.29
				c-0.06-0.06-0.11-0.12-0.17-0.18c-0.21-0.29-0.42-0.57-0.62-0.86c0.5,0.18,0.83,0.53,1.21,0.8c0.2,0.15,0.38,0.62,0.72,0.29
				c0.29-0.28,0.12-0.63-0.1-0.93c-0.25-0.33-0.6-0.61-0.65-1.14c0.57,0.2,0.62,0.87,1.2,0.96c0.19-0.47,0.32-0.95,0.56-1.37
				c1.56-2.69,0.96-4.74-0.22-6.42c-0.49-0.69-0.69-1.42-0.78-2.22c-0.07-0.63-1.68-2.18-2.29-2.18c-0.28,0-0.55,0.1-0.65,0.38
				c-0.31,0.83-1.02,1.31-1.61,1.89c-1.06,1.05-1.66,2.38-2.57,3.78c1.78-0.1,3.14,0.45,4.4,1.3c-1.2-0.29-2.27-0.95-3.55-1.01
				c-1.01-0.05-1.52,0.39-1.74,1.34c1.52,0.23,1.52,0.23,1.98,0.86c-1.78-0.73-2.64-0.51-3.27,0.92c-0.6,1.36-1.14,2.74-1.7,4.12
				c-0.39,0.96-0.7,1.91-0.84,2.98c-0.21,1.57-1.64,2.58-2.77,3.39c-1.11,0.8-1.54,2.01-2.53,2.81c0.69-0.08,1.36-0.14,1.76-0.81
				c0.2-0.33,0.49-0.55,0.83-0.24c0.33,0.29,0.14,0.63-0.09,0.91c-0.57,0.7-1.41,1.11-2.1,1.59c-0.84,0.58-1.43,1.21-1.43,2.08
				c0.01,1.01,1.03,1.25,1.84,1.38c3.59,0.56,7.2,1.02,10.81,0.3c4.26-0.86,8.45-2,12.51-3.61c0.61-0.24,0.77-0.57,0.78-1.19
				c0.02-0.78-0.5-1.45-0.42-2.49c0.5,0.93,0.71,1.7,0.75,2.5c0.03,0.64,0.3,0.67,0.8,0.49c3.62-1.25,7.15-2.69,10.35-4.86
				c0.54-0.36,1-0.79,1.36-1.36c0.86-1.34,0.33-2.64-1.22-2.91c-0.16-0.03-0.27-0.12-0.27-0.17c0.16-0.58,1.05,0.08,0.95-0.73
				c-0.04-0.36-0.18-0.81-0.66-0.81c-1.4,0.02-2.77-0.38-4.18-0.14c-2.21,0.36-4.28,1.2-6.43,1.79c-4.12,1.13-8.18,2.45-12.29,3.62
				c-1.87,0.53-1.85,0.6-0.85,2.2c0.04,0.07,0.01,0.2,0.01,0.51c-0.41-0.54-0.7-0.93-1-1.31c-0.19-0.24-0.36-0.54-0.73-0.4
				c-1.45,0.56-3.04,0.67-4.42,1.42c-0.75,0.41-1.61,0.37-2.34,0.78c-0.16,0.09-0.39,0.01-0.48-0.18c-0.11-0.24-0.02-0.46,0.2-0.59
				c0.29-0.17,0.6-0.32,0.92-0.44c2.56-0.93,5.13-1.83,7.68-2.77c1.44-0.53,2.67-1.37,3.68-2.58
				C220.05,112.08,220.06,111.62,219.1,111.29z M101.36,114.21c2.06-0.03,4.1,0.01,5.74,1.55c0.19,0.18,0.85,0.12,0.47,0.65
				c-0.26,0.36-0.66,0.09-0.92-0.09c-1.94-1.31-4.12-1.3-6.33-1.35c-3.25-0.07-6.05,1.42-8.95,2.51c-0.89,0.33-1.51,1.35-2.17,2.14
				c-0.55,0.67-0.53,1.12,0.15,1.71c0.98,0.83,1.87,1.78,2.79,2.69c0.41,0.41,0.86,0.74,1.42,0.89c4.02,1.13,7.86,0.39,11.62-1.12
				c0.48-0.19,0.9-0.56,1.33-0.86c0.53-0.37,0.65-0.75,0.3-1.42c-0.76-1.45-0.31-3.35,1-4.3c1.9-1.39,3.91-2.57,6.26-3.04
				c4.15-0.83,8.34-1.39,12.48-2.31c5.46-1.21,10.98-2.14,16.55-2.65c0.37-0.03,0.72,0.03,0.8-0.54c0.54-3.63,1.46-7.18,2.2-10.77
				c1-4.87,3.9-8.43,7.46-11.57c0.47-0.42,1.08-0.72,1.66-0.96c1.47-0.61,2.87-1.36,4.24-2.18c2.34-1.42,4.78-2.66,7.45-3.3
				c5.19-1.23,10.15-3.25,15.36-4.38c0.38-0.08,1.1-0.18,1-0.52c-0.16-0.53-0.18-1.24-0.99-1.5c-4.36-1.42-8.41-3.61-12.63-5.38
				c-5.06-2.12-10.36-3.51-15.82-3.75c-6.98-0.3-13.98,0.24-20.96,0.61c-3.56,0.19-7.19,0.33-10.57,1.77
				c-1.55,0.66-3.19-0.2-4.75,0.37c-1.7,0.62-3.42,1.24-5.18,1.67c-1.89,0.47-3.63,1.23-5.34,2.13c-4.98,2.64-9.48,5.96-13.75,9.63
				c-2.6,2.23-5.12,4.58-6.93,7.51c-4.23,6.85-6.14,14.48-7.02,22.43c-0.08,0.71,0.15,1.19,0.71,1.67c1,0.85,1.31,2.19,0.71,2.95
				c-0.52,0.65-0.52,1.32-0.39,2.04c0.09,0.51,0.14,1.01-0.13,1.45c-0.44,0.7-0.23,0.9,0.53,0.91c2.05,0.04,4.08,0.19,5.99,1.05
				c0.27,0.12,0.46,0.1,0.7-0.13c0.97-0.95,1.99-1.87,2.96-2.82c0.94-0.92,1.99-1.67,3.25-2.03
				C96.19,114.84,98.7,114.1,101.36,114.21z M187.29,75.28c-0.37-0.27-0.65-0.05-0.9,0.2c-0.84,0.82-1.89,1.23-2.94,1.69
				c-2.99,1.3-6.16,2.04-9.22,3.12c-0.78,0.27-1.47,0.75-2.32,0.87c-2.66,0.37-5.22,1.22-7.83,1.81c-2.12,0.48-4.13,1.26-5.93,2.49
				c-2.58,1.76-4.98,3.72-6.63,6.46c-0.67,1.11-0.75,2.39-1.13,3.59c-1.34,4.17-3.11,8.2-4.29,12.43c-0.37,1.31-0.31,2.34,0.41,3.43
				c0.42,0.64,1.05,0.98,1.66,1.35c1.05,0.64,1.94,1.41,2.7,2.39c1.57,2.03,3.56,3.14,6.23,2.72c1.11-0.17,2.26-0.1,3.39-0.16
				c2.55-0.14,5.06-0.23,7.54-1.14c4.59-1.67,9.31-2.89,14.21-3.25c0.89-0.06,1.78-0.35,2.65-0.6c0.43-0.12,0.97-0.28,1.18-0.61
				c1.32-2.05,3.48-3.52,4.09-6.07c0.18-0.77,0.21-1.53,0.55-2.33c0.85-2.02,1.1-4.25,1.37-6.46c0.3-2.44-0.09-4.86,0.08-7.32
				c0.23-3.32,1.19-6.56,0.94-9.94c-0.15-2.04,0.52-4.08,1.19-6.04c0.12-0.35,0.4-0.7,0.15-1.08c-0.36-0.56-0.04-0.85,0.38-1.1
				c0.39-0.23,0.8-0.42,1.18-0.66c0.42-0.25,0.85-0.52,0.07-0.89c-0.29-0.14-0.49-0.4-0.39-0.74c0.11-0.34,0.4-0.46,0.73-0.39
				c1.09,0.25,0.7-0.34,0.46-0.83c-0.57-1.2-0.88-1.36-1.89-0.47c-0.95,0.84-1.32,2.18-2.52,2.94c-0.45,0.29-0.75,1.36-1.24,1.96
				C190.2,73.92,189.07,75.1,187.29,75.28z M218.34,96.91c1.33,1.74,2.52,0.82,3.7-0.19c0.06-0.05,0.13-0.07,0.2-0.1
				c0.35-0.12,0.73-0.32,1.07-0.04c0.33,0.28,0.34,0.69,0.22,1.06c-0.28,0.83-0.56,1.66-0.92,2.45c-0.41,0.89-0.11,2.71,0.62,3.36
				c1.3,1.15,1.53,2.14,0.75,3.72c-0.52,1.06-1.12,2.08-1.71,3.1c-0.74,1.26-1.5,2.5-2.38,3.97c3.39-0.96,6.59-1.62,9.6-2.78
				c3.52-1.36,7.07-1.84,10.77-1.47c0.71,0.07,1.81-0.02,1.97,0.95c0.26,1.55,0.41,3.12-0.19,4.71c-0.74,1.95-2.33,2.84-3.97,3.68
				c-3.31,1.67-6.68,3.23-9.97,4.93c-1.83,0.95-3.71,1.71-5.7,2.2c-4.57,1.12-9.2,1.74-13.88,2.08c-1.91,0.14-3.76,0.73-5.55,1.44
				c-0.42,0.17-0.67,0.36-0.68,0.98c-0.01,0.95-0.04,1.94-0.72,2.8c-0.57,0.72-0.4,2.03-1.7,2.18c0.14,1.14-0.9,0.78-1.4,1.11
				c-0.12,0.08-0.24,0.16-0.36,0.25c0.21,0.3,0.71,0.12,0.83,0.65c-1.2,0.01-2.37,0.23-3.56-0.15c0.82,0.5,1.67,0.9,2.52,1.31
				c2.32,1.11,4.79,1.96,6.82,3.59c0.91,0.73,1.47,0.7,2.52,0.16c3.67-1.88,7.4-3.65,11.11-5.44c5.08-2.45,10.07-5.07,15.09-7.64
				c1.69-0.87,3.24-2.01,4.48-3.47c1.72-2.03,3.34-4.14,4.97-6.25c1.67-2.15,2.62-4.62,3.07-7.3c0.57-3.4,0.03-6.7-0.97-9.94
				c-0.64-2.09-1.47-4.11-2.91-5.78c-3.91-4.53-8.87-7.53-14.4-9.42c-6.12-2.1-12.49-3.26-18.9-4.09
				c-3.83-0.49-7.69-0.45-11.54-0.52c-0.57-0.01-1.38-0.43-1.68,0.15c-0.29,0.56,0.31,1.19,0.62,1.75c1.11,2.02,3,3.41,4.21,5.37
				c0.45,0.73,1.1,0.79,2.05,0.38c5.04-2.19,10.24-3.9,15.69-4.76c0.75-0.12,1.39-0.02,1.75,0.7c0.48,0.95,0.95,1.91,1.29,2.91
				c0.23,0.68,0.15,1.41-0.11,2.13c-0.46,1.27-1.41,2.35-1.58,3.71C219.34,96.21,219.19,96.83,218.34,96.91z M176.04,163.58
				c0.04-0.39-0.56-0.4-0.44-0.74c0.48-1.32-0.6-1.04-1.15-1.06c-1.55-0.05-3.1-0.01-4.64,0.06c-4.37,0.2-8.78,0.16-13.1,0.73
				c-4.34,0.58-8.67,1.19-13.05,1.39c-2.22,0.1-4.45,0.21-6.66,0.47c-4.16,0.5-8.26,1.45-12.41,1.96c-5.69,0.7-11.4,1.09-17.01,2.48
				c-5.9,1.47-11.9,2.58-17.26,5.67c-0.58,0.33-1.64,0.39-1.54,1.28c0.11,0.97,1.17,1.02,1.94,1.3c0.04,0.01,0.07,0.01,0.11,0.02
				c7.57,1.74,15.31,1.88,22.98,1.71c6.48-0.14,12.98,0.11,19.46-0.49c2.18-0.2,4.37-0.19,6.55-0.42c4.61-0.5,9.18-1.35,13.81-1.72
				c2.17-0.18,4.35-0.49,6.47-1.07c1.25-0.34,2.08-1,2.17-2.42c0.03-0.53,0.21-1.05,0.35-1.56c0.43-1.55,1.16-2.12,2.73-2.27
				c1.47-0.14,2.93-0.24,4.41-0.27c1.36-0.03,2.41-0.85,2.71-2.16c0.31-1.37,0.86-2.43,2.42-2.59
				C175.28,163.82,175.66,163.67,176.04,163.58z M182.55,61.89c0.45-0.09,0.92-0.17,1.38-0.3c0.31-0.08,0.82,0.02,0.85-0.4
				c0.03-0.4-0.19-0.81-0.64-0.99c-0.21-0.08-0.39-0.22-0.6-0.3c-0.24-0.1-0.37-0.27-0.34-0.52c0.03-0.24,0.18-0.42,0.41-0.51
				c0.54-0.23,1.74,0.33,1.75,0.91c0.02,1.27,1.15,1.73,1.86,2.03c1.53,0.63,3.12,1.33,4.85,1.2c0.58-0.04,1.59,0.01,1.6-0.5
				c0.01-0.83,0.38-1.37,0.73-1.97c0.3-0.52,0.23-1.04,0.11-1.55c-0.27-1.17-1.25-1.94-1.77-2.97c-0.15-0.3-0.41-0.24-0.76-0.11
				c-1.18,0.46-2.07-0.27-1.96-1.51c0.05-0.56,0.12-1.15-0.36-1.61c-0.92-0.89-4.01-0.83-5.07-0.09c-2.54,1.78-4.68,4.25-7.96,4.77
				c-0.88,0.14-0.7,0.53-0.25,1.03c0.75,0.81,1.6,1.39,2.75,1.38c0.3,0,0.69-0.02,0.71,0.38c0.02,0.45-0.39,0.52-0.74,0.52
				c-1.38,0-2.56-0.55-3.33-1.66c-0.68-0.97-1.42-1.23-2.48-0.88c-0.32,0.1-0.67,0.09-1.01,0.11c-0.23,0.01-0.54-0.01-0.52-0.29
				c0.06-0.93-0.54-0.58-0.97-0.54c-2.35,0.23-4.67,0.12-6.94-0.64c-1.58-0.52-3.14-1.16-4.77-1.43
				c-6.33-1.07-12.66-2.22-19.12-1.25c-3.02,0.45-6.09,0.74-8.81,2.35c-3.19,1.89-6.05,4.17-8.43,7.04
				c-0.18,0.22-0.61,0.51-0.37,0.73c0.28,0.26,0.58,0.69,1.16,0.5c3.13-1.01,6.4-1.17,9.63-1.32c6.87-0.32,13.73-0.72,20.61-0.66
				c0.56,0.01,1.13,0.07,1.69,0.15c5.48,0.78,10.86,1.93,15.93,4.26c0.26,0.12,0.7,0.38,0.8,0.05c0.3-0.96,1.21-0.74,1.87-1.09
				c-0.23-0.28-0.68-0.43-0.45-0.86c0.16-0.31,0.5-0.33,0.79-0.34c1.13-0.03,2.27-0.1,3.4-0.02c1.25,0.08,2.18-0.52,3.02-1.31
				c0.34-0.32,0.77-0.87-0.26-0.88c-0.52,0-0.55-0.34-0.38-0.7c0.24-0.51,0.57-0.97,0.78-1.48c0.15-0.37,0.33-0.6,0.74-0.51
				c0.43,0.09,0.76,0.32,0.94,0.74C182.77,61.2,182.29,61.46,182.55,61.89z M223.58,151.81c-0.72-0.22-1.47-0.38-2.23-0.37
				c-0.29,0-0.64-0.06-0.62,0.43c0.06,1.73-0.94,3.08-1.61,4.55c-0.13,0.29-0.44,0.53-0.16,0.92c1.54,2.17,3.41,3.83,5.98,4.78
				c4.25,1.57,8.43,3.37,12.62,5.11c3.81,1.58,7.53,3.39,11.41,4.77c3.38,1.2,6.86,2.11,10.19,3.47c1.11,0.45,2.44,0.2,3.4,0.69
				c1.78,0.92,3.08,0.32,4.49-0.65c0.68-0.46,1.2-0.92,1.07-1.77c0.04-0.56-0.11-1.02-0.31-1.48c-0.88-1.98-2.69-2.81-4.4-3.78
				c-3.91-2.19-8.13-3.7-12.1-5.75 M218.27,152.03c-0.42-0.37-0.62-0.83-1.28-1.09c-2.78-1.08-5.65-1.94-8.22-3.51
				c-0.46-0.28-0.82-0.58-0.81,0.31c0,0.24-0.1,0.47-0.37,0.5c-0.35,0.04-0.41-0.22-0.5-0.5c-0.78-2.43-2.2-4.37-4.56-5.36
				c-5.56-2.35-10.55-6.02-16.62-7.2c-1.27-0.25-2.45-0.99-3.69-1.44c-3.26-1.18-5.91-3.7-9.39-4.41c-1.53-0.32-2.66-1.39-3.95-2.19
				c-2.79-1.72-6.01-2.62-9.03-3.91c-1.39-0.59-2.79-1.18-4.17-1.78c-1.28-0.56-2.91,0.04-4-1.19c-0.02-0.02-0.12,0.05-0.11,0.04
				c0.45,1.35,1.66,1.88,2.77,2.47c3.68,1.95,7.56,3.45,11.32,5.22c6.88,3.24,14.16,5.52,20.93,9.03c1.14,0.59,2.26,1.24,3.44,1.75
				c2.54,1.1,4.98,2.38,7.4,3.71c1.09,0.6,1.97,1.31,2.53,2.5c0.38,0.8,1.07,1.54,0.53,2.41c-0.54,0.87-1.55,0.49-2.3,0.34
				c-4.34-0.9-8.55-2.19-12.56-4.14c-3.47-1.68-6.95-3.34-10.45-4.96c-2.3-1.07-4.64-2.04-6.95-3.09c-3.34-1.52-6.6-3.19-10.05-4.47
				c-3.61-1.34-7.09-3.01-10.79-4.1c-0.39-0.12-0.93-0.52-1.2,0.09c-0.28,0.63,0.39,0.71,0.74,0.92c3.52,2.17,7.35,3.73,11.03,5.58
				c1.9,0.95,3.82,1.97,5.8,2.55c1.23,0.36,2.25,0.69,3.19,1.55c0.64,0.59,1.46,0.93,2.26,1.3c2.54,1.17,5.15,2.16,7.68,3.36
				c3.28,1.56,6.49,3.25,9.75,4.83c0.58,0.28,1.07,0.48,1.69,0.12c0.51-0.29,1.17-0.13,1.04,0.49c-0.2,0.91,0.36,0.91,0.85,1.1
				c0.85,0.33,1.68,0.68,2.54,0.97c3.83,1.28,7.67,2.37,11.63,0.5c0.19-0.09,0.45-0.04,0.67-0.02c2,0.18,3.94,0.58,5.78,1.45
				c2.36,1.12,4.77,2.13,7.15,3.18c0.19,0.08,0.37,0.37,0.56,0.06c0.28-0.46,0.49-0.96,0.48-1.51c0-0.37-0.29-0.38-0.57-0.39
				c-0.32-0.01-0.75,0.19-0.88-0.27C217.43,152.31,218.07,152.36,218.27,152.03z M127.11,114.49c2.17,1.96,2.82,4.29,2.38,6.95
				c-0.13,0.78,0.09,0.85,0.73,0.75c1.27-0.19,2.54-0.36,3.82-0.49c3.01-0.29,5.93-1.18,8.95-1.41c2.18-0.17,4.37-0.31,6.53-0.74
				c0.45-0.09,0.95-0.19,1.14-0.64c0.34-0.83-0.4-2.47-1.22-2.87c-1.86-0.92-3.57-2.01-4.62-3.91c-0.07-0.14-0.18-0.35-0.31-0.26
				c-0.59,0.39-1.17-0.08-1.75,0c-2.93,0.4-5.88,0.35-8.83,0.29c-4.25-0.09-8.31,0.96-12.38,1.99c-0.68,0.17-0.69,0.44-0.43,1.04
				c0.36,0.82,0.7,1.69,0.42,2.8c-0.26-0.98-0.46-1.82-0.7-2.65c-0.19-0.66-0.59-0.87-1.29-0.74c-2.98,0.55-5.92,1.21-8.79,2.19
				c-1.34,0.46-2.42,1.02-2.72,2.68c-0.25,1.4,0.43,2.96,1.87,3.07c2.96,0.22,5.8,1.59,8.92,0.52c1.99-0.68,4.29,0.02,6.37-0.75
				c0.16-0.06,0.41-0.06,0.55,0.03c0.84,0.51,1.7,0.11,2.54,0.06c0.49-0.03,0.69-0.28,0.8-0.78c0.46-2.09,0.2-4.01-1.14-5.73
				C127.64,115.52,127.23,115.21,127.11,114.49z M158.59,121.64c2.88,0.82,5.4,2.62,8.38,3.08c1.11,0.17,2.16,0.9,3.32,0.54
				c2.92-1.18,5.89-1.83,10.66-1.76c3.88-0.16,7.75-0.64,11.59-1.38c1.28-0.25,2.55-0.63,3.9-0.49c0.59,0.06,1.26-0.17,1.82-0.55
				c1.06-0.73,2.27-1,3.52-1.09c0.95-0.07,1.78-0.55,1.93-1.41c0.15-0.85,0.61-1.5,0.88-2.26c0.11-0.31,0.15-0.5,0.08-0.81
				c-0.27-1.25-2.01-2.59-3.5-2.47c-4.93,0.4-9.89,0.4-14.79,1.08c-2.65,0.36-5.36,0.49-7.92,1.35c-1.8,0.61-3.62,1.06-5.51,1.29
				c-0.9,0.11-1.78,0.34-2.68,0.48c-0.65,0.1-0.71,0.37-0.45,0.93c0.29,0.62,0.67,1.25,0.49,2.16c-0.62-0.69-0.67-1.49-0.99-2.15
				c-0.33-0.67-0.74-0.45-1.23-0.32c-0.63,0.17-0.46,0.53-0.32,0.96c0.24,0.75,0.76,1.44,0.5,2.32c-0.38-0.69-0.65-1.42-0.95-2.13
				c-0.11-0.27-0.19-0.75-0.52-0.65c-1.15,0.36-2.26,0.86-3.41,1.24c-0.52,0.18-0.37,0.52-0.38,0.87c0,0.15-0.17,0.23-0.34,0.22
				C161.25,120.61,159.98,121.3,158.59,121.64z M221.99,162.62c-0.16-0.15-0.23-0.24-0.33-0.29c-1.63-0.84-3.37-1.51-4.55-3.06
				c-0.08-0.11-0.28-0.24-0.38-0.21c-0.97,0.27-0.72-0.46-0.75-0.93c-0.12-1.71-1.75-3.07-3.48-3.04
				c-3.55,0.07-7.08,0.57-10.62,0.72c-6.11,0.25-12.07,1.36-17.99,2.77c-0.29,0.07-0.7,0.06-0.74,0.41
				c-0.09,0.85-0.78,0.96-1.34,1.22c-0.96,0.45-1.94,0.86-2.9,1.29c-1.57,0.71-1.6,0.83-1.53,2.77c0.03,0.67,0.27,0.91,0.93,1
				c1.48,0.2,2.94-0.02,4.41,0.01c5.64,0.14,11.21-0.9,16.83-1.06c2.38-0.07,4.76-0.16,7.13-0.27c4.68-0.23,9.32-0.91,14.01-1.04
				C221.11,162.9,221.53,162.89,221.99,162.62z M80.58,120.34c-1.69-0.11-3.05,0.34-4.26,1.16c-2.63,1.79-4.76,4.1-6.66,6.64
				c-0.58,0.77-0.56,1.61-0.12,2.48c0.48,0.95,1.41,1.47,2.06,2.25c1.09,1.31,2.55,1.96,4.18,2.34c2.15,0.51,4.35,0.37,6.52,0.63
				c0.78,0.09,1.59,0.43,2.35,0.1c1.78-0.76,3.7-0.94,5.54-1.47c1.84-0.53,2.6-1.43,2.8-3.38c0.34-3.31-2.12-7.62-5.05-9.08
				C85.54,120.83,83.02,120.38,80.58,120.34z M104.43,140.07c1.99-0.01,3.53,0.09,4.98-0.37c2-0.63,3.99-1.34,5.92-2.15
				c0.8-0.33,1.16-1.27,1.67-1.98c0.11-0.15,0.01-0.27-0.12-0.38c-1.33-1.15-1.96-2.98-3.66-3.79c-0.41-0.19-0.66-0.72-0.99-1.08
				c-0.75-0.8-1.37-1.72-2.27-2.37c-1.85-1.33-3.94-0.79-5.93-0.7c-1.07,0.05-2.26-0.06-3.21,0.55c-1.79,1.14-3.51,2.38-5.08,3.82
				c-0.41,0.38-0.74,0.83-0.94,1.4c-0.2,0.56-0.57,1.2-1.16,1.33c-0.85,0.19-1.19,0.85-1.67,1.41c-0.23,0.27-0.26,0.41,0,0.63
				c1.43,1.2,2.98,2.34,4.76,2.76C99.39,139.79,102.12,140.29,104.43,140.07z M195.88,136.8c3.74,0.32,5.64-2.92,5.88-5.9
				c0.05-0.58-0.19-0.72-0.69-0.77c-0.55-0.06-1.1-0.28-1.17-0.9c-0.12-1.1-0.92-1.24-1.72-1.36c-0.55-0.09-1.16,0.06-1.66-0.26
				c-1.35-0.87-2.87-1.03-4.41-1.25c-1.15-0.17-2.42,0.15-3.42-0.49c-0.62-0.4-1.21-0.58-1.87-0.59c-1.03-0.02-1.93-0.05-2.99-0.58
				c-1.5-0.75-3.41-0.8-5.1-0.23c-1.54,0.52-3.07,1.03-4.64,1.42c-0.38,0.1-0.92,0.04-0.94,0.62c-0.01,0.52-0.07,1.18,0.48,1.43
				c1.61,0.73,3.1,1.8,4.85,2.17c1.3,0.28,2.56,0.62,3.77,1.17c3.65,1.65,7.11,3.71,10.95,4.92
				C194.11,136.48,194.97,136.81,195.88,136.8z M193.41,112.4c0.41,0,0.84,0.03,1.27,0c2.29-0.18,4.59-0.38,6.88-0.58
				c0.83-0.07,1.61-0.11,2.43,0.28c0.59,0.28,1.1,1.22,1.78,0.77c0.55-0.36,0.8-1.17,1.18-1.79c0.06-0.1,0.1-0.21,0.14-0.31
				c0.5-1.35,1.29-2.54,2.26-3.54c0.99-1.03,0.96-2.57,1.97-3.54c0.65-0.62,0.93-1.47,1.33-2.24c0.21-0.4,0.11-1.2-0.3-1.17
				c-0.87,0.08-1.69-0.28-2.58-0.01c-1.2,0.36-2.07,1.42-3.35,1.54c-2.09,0.19-4.03,0.94-5.98,1.65c-0.6,0.22-1.51,0.2-1.01,1.34
				c0.12,0.27-0.29,0.5-0.47,0.74c-0.25,0.34-0.68,0.56-0.7,1.08c2.34-0.08,2.34-0.08,3.02,0.34c-3.67,0-3.67,0-3.98,0.86
				c0.76,0,1.51-0.01,2.27,0c1.19,0.03,1.38,0.1,2.19,0.87C197.5,106.89,195.19,109.03,193.41,112.4z M164.48,129.77
				c0.33,0.99,0.56,1.83,0.54,2.71c-0.01,0.48,0.27,0.67,0.63,0.84c1.58,0.72,3.15,1.49,4.75,2.17c3.48,1.48,6.93,3.03,10.3,4.74
				c4.46,2.26,8.98,4.36,13.79,5.73c1.44,0.41,2.91,0.83,4.42,0.93c0.27,0.02,0.65,0.17,0.8-0.2c0.13-0.32-0.13-0.57-0.3-0.81
				c-0.78-1.12-1.65-1.99-3.04-2.5c-2.15-0.79-4.12-2.1-6.24-2.98c-6.91-2.88-13.76-5.92-20.78-8.54
				C167.76,131.26,166.34,130.27,164.48,129.77z M185.08,74.52c1.71-1.1,3.28-1.58,4.49-2.83c0.76-0.78,1.75-1.32,2.25-2.39
				c0.09-0.19,0.42-0.29,0.66-0.39c0.21-0.09,0.51-0.09,0.52-0.36c0.06-1.4,0.81-2.7,0.58-4.15c-0.07-0.46-0.12-0.59-0.69-0.46
				c-1.02,0.23-2.19,0.5-3.13,0.05c-2.67-1.25-5.03-0.39-7.4,0.76c-0.15,0.08-0.29,0.24-0.37,0.4c-0.57,1.12-1.56,1.39-2.68,1.3
				c-2-0.16-3.46,0.91-5.08,2.09c3.36,1.66,6.64,3.01,10.03,4.08C185.05,72.86,185.79,73.1,185.08,74.52z M123.47,132.29
				c2.56,0.63,4.8,1.51,5.51,4.27c0.62,2.42,0.75,4.82-0.81,7.02c0.54,0.2,1,0.14,1.43,0.03c1.86-0.5,3.77-0.78,5.67-1.04
				c3.22-0.45,4.72-3.03,4.02-6.14c-0.05-0.22-0.03-0.68-0.39-0.53c-1.02,0.42-0.86-0.38-0.93-0.89c-0.05-0.39-0.08-0.77-0.38-1.04
				c-1.6-1.42-3.2-2.89-5.44-3.08c-1.61-0.14-3.24-0.17-4.86,0.09C125.99,131.19,124.72,131.46,123.47,132.29z M162.21,137.24
				c-0.15-0.37-0.44-0.41-0.65-0.55c-1.16-0.74-2.53-0.99-3.76-1.56c-3.37-1.56-6.73-3.13-9.94-4.99c-0.66-0.38-1.55-0.39-1.88-1.36
				c-0.17-0.49-0.68-0.48-1.04,0.07c-0.97,1.49-1.66,3.1-1.97,4.84c-0.61,3.41,0.51,4.95,3.94,5.49c2.42,0.38,4.81-0.04,7.21-0.36
				C156.84,138.47,159.5,137.82,162.21,137.24z M194.52,78.89c1.69-1.97,3.87-3.45,5.19-5.71c0.55-0.95,1.32-1.67,2.27-2.18
				c1-0.54,2.02-1.03,3.03-1.55c0.96-0.49,1.97-0.62,2.55-1.97c0.67-1.55,0.06-2.88,0.1-4.3c0-0.11-0.17-0.27-0.29-0.33
				c-0.96-0.46-1.95-0.93-3.02-0.87c-1.09,0.06-1.97,0.63-2.72,1.47c-1.06,1.2-2.1,0.98-2.67-0.52c-0.14-0.38-0.36-0.46-0.68-0.44
				c-0.87,0.05-1.73,0.1-2.6,0.19c-0.73,0.07-1.03,0.63-0.82,1.22c0.25,0.7,0.22,1.41,0.31,2.12c1.95-0.29,2.99,0.59,3.13,2.7
				c0.04,0.68,0.05,1.27,0.85,1.5c0.3,0.08,0.48,0.39,0.35,0.74c-0.1,0.28-0.34,0.41-0.63,0.37c-1.25-0.16-2.18,0.55-2.71,1.46
				C195.08,74.64,194.7,76.74,194.52,78.89z M125.84,143.81c0.57-0.32,1.44,0.28,1.64-0.39c0.22-0.77,0.68-1.44,0.82-2.22
				c0.79-4.33-0.8-7.87-5.59-7.87c-0.26,0-0.58-0.01-0.77,0.12c-1.79,1.25-3.53,2.57-4.97,4.24c-0.96,1.11-0.86,2.1,0.25,3.05
				C119.72,142.89,122.83,143.2,125.84,143.81z M132.41,129.39c0.19,0.26,0.48,0.19,0.73,0.2c2.29,0.06,3.97,1.17,5.07,3.13
				c0.61,1.09,1.55,1.98,1.92,3.22c0.05,0.17,0.11,0.4,0.37,0.29c0.16-0.07,0.28-0.17,0.34-0.4c0.42-1.51,0.83-3.04,1.34-4.52
				c0.62-1.82,1.06-3.77,2.77-4.99c0.55-0.39,1.38-0.68,1.53-1.3c0.29-1.2,1.23-1.45,2.08-1.88c0.96-0.48,2.05-0.55,3.13-0.89
				c-0.76-0.59-0.76-0.58-1.49-0.41c-3.12,0.73-6.24,1.48-9.46,1.65c-0.27,0.01-0.69-0.12-0.75,0.3c-0.09,0.65-0.61,0.69-1.03,0.91
				c-1.53,0.78-3.17,1.37-4.53,2.64c0.64,0.34,1.22,0.6,1.75,0.95c0.44,0.29,1.29,0.59,0.92,1.19c-0.41,0.66-0.9-0.14-1.29-0.39
				C133.97,127.93,133.68,127.95,132.41,129.39z M129.19,128.95c-0.52-0.31-0.78-0.75-1.13-1.14c-1.27-1.41-2.57-2.65-4.78-2.53
				c-2.78,0.16-4.67,2.15-7.06,3.06c-0.17,0.06-0.34,0.28-0.19,0.46c0.98,1.14,1.34,2.72,2.66,3.63c0.52,0.36,0.79,0.47,1.31-0.02
				c1.52-1.45,3.39-2.24,5.4-2.73C126.63,129.39,127.88,129.18,129.19,128.95z M163.85,132.55c-0.16-1.52-0.86-2.52-1.08-3.68
				c-0.02-0.13-0.27-0.25-0.44-0.32c-3.62-1.5-6.97-3.74-11.1-3.8c-1.12-0.02-2.14-0.09-3.13,0.49c-0.25,0.15-0.65,0.17-0.66,0.54
				c-0.01,0.4,0.42,0.33,0.67,0.45c1.93,0.98,4.12,1.17,6.06,2.18C157.2,130.01,160.59,130.78,163.85,132.55z M47.32,110.52
				c1.85-0.32,2.62-0.8,3.23-1.9c0.48-0.87-0.25-2.12-1.24-2.14c-1.99-0.05-3.1,1.44-2.53,3.4c0.44,1.53,0.17,2.15-1.25,2.91
				c-0.43,0.23-0.94,0.31-1.23,0.77c-0.51,0.8-1.17,0.72-1.84,0.26c-0.46-0.32-0.88-0.6-1.42-0.18c-0.32,0.25-0.54,0.54-0.45,0.97
				c0.13,0.65,0.64,1.39,1.1,1.29c1.22-0.27,2.03,0.39,2.92,1.06c0.05-0.68,0.03-1.22,0.15-1.73c0.36-1.61,1.77-2.55,2.95-1.99
				c0.26,0.12,0.66,0.25,0.54,0.62c-0.14,0.42-0.49-0.22-0.75,0.05c0.69,0.71,1.45,1.36,1.36,2.51c-0.04,0.52,0.45,0.41,0.75,0.46
				c0.5,0.08,0.42-0.29,0.41-0.59c-0.01-0.31,0-0.62,0.19-0.88c0.23-0.31,0.2-0.46-0.16-0.69c-1.31-0.82-1.66-1.88-1.07-3.02
				c0.53-1.02,1.8-1.41,3.07-0.72c1.06,0.58,1.72-0.02,2.45-0.52c0.61-0.41,0.76-1.04,0.49-1.72c-0.26-0.66-0.76-1.02-1.5-0.99
				c-1.14,0.04-2.22,0.83-2.62,1.96c-0.06,0.17-0.02,0.47-0.27,0.37c-0.65-0.27-0.95,0.33-1.41,0.51
				C48.63,110.8,48.09,111.08,47.32,110.52z M93.58,125.36c0.46,1.35,0.77,2.41,1.21,3.42c0.13,0.3-0.36,1.09,0.53,0.92
				c0.46-0.09,0.93,0.2,1.39-0.22c0.56-0.51,1.24-0.87,1.83-1.34c1.28-1,2.7-1.55,4.34-1.75c1.93-0.24,3.83-0.26,5.75-0.1
				c0.35,0.03,0.72,0.15,0.79-0.34c0.07-0.49,0.68-1.07,0.15-1.45c-0.51-0.36-0.86-0.84-1.33-1.22c-0.55-0.44-0.91-0.41-1.42,0.05
				c-1.01,0.9-2.22,1.44-3.53,1.73C100.15,125.77,97.02,126.53,93.58,125.36z M51.03,105.41c0.28-0.51,0.38-0.97,0.4-1.48
				c0.02-0.98-0.5-1.34-1.36-1.16c-0.82,0.17-1.56,0.55-1.91,1.42c-0.31,0.75-0.01,1.43,0.62,1.6c1.12,0.3,2.05,0.71,2.53,1.85
				c0.08,0.2,3.16-0.52,3.17-0.75c0.04-1.04,0.62-1.64,1.42-2.22c0.87-0.63,0.7-1.54-0.3-1.91c-0.95-0.36-1.93-0.29-2.86,0.13
				c-0.42,0.18-0.58,0.51-0.64,0.98c-0.14,1.16,0.53,1.71,1.62,2.07C52.5,106.71,52.12,104.77,51.03,105.41z M116.28,131.85
				c-0.31-0.77-0.57-1.52-0.88-2.25c-0.58-1.4-0.52-1.83,0.71-2.62c1.06-0.69,2.12-1.37,3.41-2.2c-3.26-0.09-6.28,0.6-9.18-0.56
				c-0.07,0.31-0.02,0.58,0.33,0.56c0.73-0.06,0.82,0.61,0.66,0.89c-0.91,1.58,0.1,2.25,1.21,2.94c0.35,0.22,0.6,0.58,0.91,0.85
				C114.38,130.27,115.08,131.34,116.28,131.85z M194.82,84.31c-0.36,0.14-0.34,0.35-0.41,0.52c-0.54,1.48-0.46,3.07-0.61,4.59
				c-0.11,1.06-0.54,2.16-0.19,3.26c0.08,0.27-0.02,0.8,0.57,0.55c1.67-0.72,3.33-1.46,4.82-2.11
				C197.65,88.72,195.51,87,194.82,84.31z M55.46,123.05c-0.98,0.04-1.09,0.84-1.4,1.41c-0.11,0.2-0.18,0.47,0.11,0.58
				c0.58,0.21,1.05,0.03,1.53-0.38c0.69-0.59,1.56-0.07,2.35-0.25c0.4-0.09,0.39,0.58,0.63,0.84c0.41,0.43,0.78,0.99,1.48,0.91
				c0.73-0.09,1.06-0.69,1.33-1.27c0.49-1.06-0.04-2.61-0.97-2.96c-1.14-0.44-2.22,0.12-2.54,1.35c-0.06,0.24-0.13,0.46-0.4,0.45
				c-0.26-0.01-0.38-0.22-0.42-0.47c-0.04-0.3-0.07-0.6-0.11-0.98c-0.74,0.33-1.49,0.13-2.49,0.1
				C55.02,122.71,55.24,122.88,55.46,123.05z M127.66,124.59c0.74,1.6,2.4,1.62,3.72,2.19c0.74,0.32,1.2-0.45,1.8-0.71
				c1.3-0.56,2.56-1.2,3.67-2.22C135.57,123.66,129.16,124.19,127.66,124.59z M72.37,100.21c0.06-0.52,0.49-0.51,0.75-0.7
				c0.37-0.28,0.6-0.59,0.43-1.07c-0.17-0.48-0.5-0.73-1.03-0.73c-1.12,0.01-1.93,1.04-1.54,2.07c0.12,0.32,0.24,0.51-0.05,0.77
				c-0.62,0.53-0.58,0.98,0.34,1.32c-0.82,0.09-1.51,0.16-2.07,0.67c-0.36,0.34-0.68,0.7-0.34,1.17c0.4,0.56,0.86,1.12,1.69,0.73
				c0.5-0.24,0.9-0.47,0.74-1.19c-0.24-1.09,0.34-2.06,1.34-2.52c0.5-0.22,1.02-0.27,1.55-0.26c0.35,0.01,0.42-0.25,0.48-0.52
				c0.05-0.24,0.05-0.45-0.17-0.62c-0.32-0.26-0.46,0.04-0.64,0.21C73.42,99.92,73.01,100.28,72.37,100.21z M60.54,108.47
				c-0.53-0.31-1.13-0.18-1.05-0.7c0.06-0.41,0.56-0.27,0.86-0.39c0.32-0.12,0.99,0.11,0.89-0.41c-0.21-1.09,0.35-1.71,1.03-2.33
				c0.15-0.14,0.21-0.33,0.12-0.52c-0.29-0.58-0.8-0.93-1.4-1.06c-0.88-0.2-1.64,0.1-2.26,0.74c-0.48,0.5-0.23,1,0.02,1.47
				c0.3,0.55,0.41,0.99,0.18,1.7C58.43,108.41,58.63,108.53,60.54,108.47z M54.74,111.33c0.12,0.14,0.19,0.2,0.24,0.28
				c0.52,0.83,1.51,1.1,2.17,0.58c0.57-0.45,0.47-1.01,0.13-1.52c-0.47-0.71-1.53-0.73-2.21-0.07c-0.47,0.46-1.03,0.76-1.61,1.03
				c-0.67,0.31-1.55,0.49-0.76,1.55c0.09,0.12,0.08,0.4,0.01,0.55c-0.48,0.98,0.26,1.18,0.91,1.62c0.21-1.18,0.51-2.18,1.79-2.41
				C54.99,112.44,54.32,112.16,54.74,111.33z M58.11,105.49c-0.27-1.59-0.27-1.59,0.93-2.89c0.8-0.87,0.64-1.66-0.41-2.16
				c-0.54-0.25-1.1-0.22-1.65-0.07c-1.14,0.32-1.39,1.07-0.53,1.89c0.45,0.43,0.47,0.84,0.5,1.38c0.03,0.68-0.45,1.09-0.77,1.67
				C56.85,105.38,57.43,105.43,58.11,105.49z M73.41,108.57c-1.51,0.02-1.84,0.53-1.35,1.68c0.16,0.38,0.46,0.72,0.45,1.16
				c-0.02,1.08,0.68,1.04,1.37,0.84c0.66-0.2,1.2-0.64,1.63-1.19c0.4-0.52,0.39-1.08-0.13-1.52
				C74.73,108.97,74.01,108.58,73.41,108.57z M74.1,97.97c0.23-0.24,0.21-0.46,0.1-0.6c-0.8-0.98,0.14-1.24,0.68-1.61
				c0.23-0.16,0.58-0.14,0.87-0.21c0.25-0.06,0.59-0.13,0.52-0.47c-0.16-0.75-0.71-1.24-1.32-1.61c-0.58-0.35-1.24-0.29-1.82,0.07
				c-0.6,0.37-0.7,0.98-0.54,1.61c0.14,0.56,0.37,1.1,0.59,1.73c-0.56-0.12-1.04-0.42-1.42,0.34C72.73,97.11,73.48,97.39,74.1,97.97
				z M46.62,123.86c1.11,0.02,1.89-0.66,1.78-1.73c-0.09-0.93-0.5-1.67-1.67-1.23c-0.17,0.06-0.25-0.11-0.36-0.21
				c-0.67-0.6-1.11-0.19-1.43,0.4C44.19,122.47,45.04,123.84,46.62,123.86z M63.62,108.66c0.87,0.01,1.65-0.61,1.67-1.33
				c0.03-1.08-0.92-2.17-1.96-2.24c-0.71-0.05-1.54,0.89-1.56,1.76C61.76,107.99,62.44,108.65,63.62,108.66z M69.53,106.38
				c-0.83,0.12-1.76,0.05-2.12,0.91c-0.36,0.87,0.14,1.64,0.72,2.27c0.66,0.73,1.08-0.36,1.66-0.3c0.1,0.01,0.22-0.05,0.32-0.1
				c0.61-0.35,1.45-0.61,1.21-1.54C71.1,106.73,70.32,106.46,69.53,106.38z M64.39,96.94c-1.64,0.02-2.34,0.78-1.91,1.95
				c0.34,0.92,1.21,0.63,1.84,0.82c0.81,0.24,2.4-0.69,2.34-1.34c-0.09-1.05-1.01-1.18-1.81-1.39
				C64.67,96.93,64.48,96.95,64.39,96.94z M66.79,100.88c-0.14-0.24-0.22-0.36-0.27-0.49c-0.1-0.23,0.01-0.63-0.34-0.63
				c-0.23,0-0.54,0.16-0.69,0.34c-0.27,0.35,0.15,0.53,0.31,0.74c0.77,1.01,3.72,0.88,4.39-0.17c0.14-0.22,0.11-0.42,0.02-0.64
				c-0.28-0.64-1.85-1.64-2.41-1.46c-1.02,0.33-0.87,1.19-0.81,1.99C67,100.61,66.92,100.67,66.79,100.88z M62.84,112.89
				c-0.82,0.04-1.47,0.38-1.76,1.01c-0.29,0.63,0.32,1,0.76,1.35c0.17,0.14,0.38,0.31,0.42,0.5c0.21,0.83,0.83,0.72,1.35,0.56
				c0.65-0.2,1.2-0.64,1.47-1.33c0.07-0.19-0.09-0.3-0.22-0.33c-0.62-0.13-0.74-0.67-0.99-1.14
				C63.65,113.08,63.27,112.84,62.84,112.89z M57.2,115.56c0.09-0.91-0.86-1.95-1.92-1.95c-0.82,0-0.97,0.73-1.06,1.38
				c-0.17,1.16,0.52,2.24,1.44,2.35C56.68,117.45,57.06,117.02,57.2,115.56z M77.15,112.9c-0.24,0-0.82-0.15-1.08,0.38
				c-0.28,0.58,0.2,0.99,0.53,1.39c0.24,0.29,0.51,0.56,0.78,0.82c0.49,0.46,1.16,0.61,1.66,0.25c0.57-0.42,0.98-1.12,1.02-1.86
				c0.02-0.44-0.38-1.04-0.8-0.93C78.58,113.13,78,112.78,77.15,112.9z M74.3,108.13c-0.46-1.05-1.13-1.79-1.08-2.81
				c0.02-0.46-0.31-0.23-0.55-0.24c-1.35-0.08-2.76,0.3-4.22-0.73c0.51,0.89,0.72,1.56,1.74,1.66c0.82,0.08,1.5,0.71,1.67,1.65
				c0.06,0.35,0.15,0.53,0.57,0.48C72.99,108.08,73.56,108.13,74.3,108.13z M46.7,117.54c0.94,0.06,1.53-0.35,1.64-1.32
				c0.08-0.75-1.15-2.25-1.9-2.34c-0.56-0.07-1.25,1.01-1.3,2.03C45.08,116.97,45.57,117.49,46.7,117.54z M42.8,111.83
				c0,0.91,0.55,1.68,0.9,1.36c0.76-0.69,1.89-0.69,2.53-1.54c0.32-0.42,0.62-0.94,0.1-1.28c-0.79-0.52-1.73-0.49-2.6-0.19
				C43.01,110.43,42.77,111.08,42.8,111.83z M56.55,105.91c-0.48,0.08-1.4-0.03-1.53,1.08c-0.1,0.93,1.16,2.26,2.06,2.25
				c0.48,0,1.28-1.24,1.28-2C58.37,106.19,57.78,105.83,56.55,105.91z M68.21,111.63c-0.06,0.49,0.05,0.92,0.84,0.81
				c0.57-0.08,1.12,0.11,1.64,0.34c0.79,0.35,1.14-0.12,1.31-0.77c0.2-0.74-0.88-2.05-1.7-2.13
				C69.24,109.78,68.26,110.54,68.21,111.63z M58.23,110.31c-0.03,1.24,0.54,1.93,1.56,2.01c0.92,0.08,1.4-0.44,1.61-1.27
				c0.24-0.98-0.61-1.2-1.15-1.61c-0.41-0.31-0.89-0.74-1.43-0.41C58.33,109.34,58.25,109.91,58.23,110.31z M81.53,90.35
				c-1.81,0.02-2.3,0.73-1.72,2.3c0.15,0.4,0.3,0.82,0.14,1.22c-0.17,0.43-0.08,0.6,0.35,0.73c0.43,0.14,0.61-0.02,0.76-0.4
				c0.36-0.92,0.72-1.85,1.14-2.74C82.65,90.52,82.23,90.31,81.53,90.35z M60.94,130.84c1.17,0,2.07-0.87,2.08-1.9
				c0-0.58-0.31-0.92-0.81-1.11c-0.45-0.16-0.82-0.22-0.7,0.5c0.04,0.2-0.19,0.11-0.34,0.08c-0.92-0.17-1.46,0.29-1.55,1.28
				C59.51,130.82,60.3,130.79,60.94,130.84z M65.94,119.57c0.09,0.61-0.02,1.36,0.93,1.38c0.81,0.02,2.29-1.32,2.25-2.07
				c-0.05-0.93-0.78-1.17-1.49-1.23C66.77,117.58,65.92,118.62,65.94,119.57z M73.69,100.99c-0.63,0.16-1.54,0.1-1.71,1.15
				c-0.11,0.68,0.99,1.92,1.65,1.94c0.66,0.02,1.76-0.91,1.77-1.49C75.41,101.76,74.66,101.01,73.69,100.99z M76.98,99.12
				c-1.07,0.03-1.88,0.57-1.89,1.25c-0.01,0.71,0.98,1.67,1.72,1.67c0.81,0,1.82-0.89,1.81-1.61C78.6,99.86,77.67,99.1,76.98,99.12z
				 M56.64,128.4c0.77-0.03,1.35-0.84,1.31-1.81c-0.03-0.7-0.9-1.64-1.48-1.6c-0.52,0.03-1.49,1.29-1.48,1.91
				C55.01,127.72,55.79,128.43,56.64,128.4z M79.21,94.94c-0.48,0.06-1.09,0.04-1.42,0.62c-0.31,0.55,0.2,0.81,0.44,1.17
				c0.37,0.55,0.33,1.08-0.16,1.54c-0.66,0.63,0.12,0.72,0.37,0.97c0.45,0.46,0.62,0.07,0.76-0.32c0.32-0.89,0.64-1.78,0.98-2.67
				C80.59,95.19,80.43,94.93,79.21,94.94z M45.03,117.59c-0.06,0.67-0.02,1.25-0.29,1.78c-0.22,0.46,0.1,0.73,0.46,0.63
				c1.84-0.52,3,0.39,3.91,1.86c0.34-0.27,0.49-0.6,0.55-1.04c-0.81-0.18-1.9-0.3-1.9-1.28c0-1.34-0.56-1.66-1.71-1.61
				C45.75,117.95,45.43,117.73,45.03,117.59z M66.06,121.7c-1.37-0.01-2.4,0.99-2.28,2.22c0.14,1.4,0.98,0.29,1.5,0.33
				c0.11,0.01,0.22,0.06,0.33,0.05c0.63-0.07,1.45-1.08,1.39-1.72C66.94,121.91,66.49,121.72,66.06,121.7z M50.91,114.37
				c0.5,0,1.02,0.01,1.26-0.54c0.24-0.54-0.04-0.96-0.41-1.32c-0.25-0.24-0.52-0.44-0.77-0.68c-0.24-0.24-0.28-0.76-0.82-0.58
				c-0.53,0.17-0.78,0.57-0.9,1.08C49,113.52,49.63,114.3,50.91,114.37z M43.14,119.47c0.95,0.22,1.34-0.27,1.36-1.16
				c0.02-0.76-0.89-1.81-1.54-1.71c-0.93,0.14-1.13,0.91-1.17,1.7C41.75,119.23,42.2,119.66,43.14,119.47z M65.13,127.21
				c0.01,0.85,0.22,1.51,1.12,1.44c0.99-0.09,1.24-0.88,1.28-1.73c0.04-0.75-0.75-1.66-1.37-1.53
				C65.14,125.59,65.21,126.51,65.13,127.21z M74.9,98.92c0.61-0.15,1.23-0.28,1.83-0.45c0.55-0.16,1.17-0.37,1.2-1.03
				c0.03-0.73-0.67-0.94-1.21-1.18c-0.7-0.3-1.24,0.16-1.75,0.52c-0.52,0.36-0.17,0.84,0.04,1.21
				C75.23,98.35,75.19,98.61,74.9,98.92z M54.77,120.36c-0.04,0.95,0.19,1.58,1.13,1.62c0.81,0.04,1.28-0.39,1.32-1.22
				c0.03-0.6-0.93-1.89-1.38-1.87C54.8,118.94,54.91,119.81,54.77,120.36z M68.82,124.08c0.17,0.67-0.01,1.66,1.06,1.93
				c0.33,0.09,1.5-1.38,1.46-1.82c-0.08-0.8-0.47-1.42-1.33-1.42C69.32,122.77,68.77,123.11,68.82,124.08z M49.65,120.23
				c0.83,0,1.33-0.39,1.34-1.04c0.01-0.58-1.32-1.67-2.08-1.63c-0.79,0.05-0.74,0.74-0.77,1.28
				C48.11,119.77,48.64,120.23,49.65,120.23z M79.5,93.61c-0.04-0.66-1.12-1.61-1.63-1.48c-0.71,0.18-1.4,0.58-1.35,1.41
				c0.03,0.47,0.22,1.34,0.9,1.16C78.16,94.5,79.14,94.45,79.5,93.61z M56.08,113.01c0.55,0.35,1.18,0.53,1.3,0.88
				c0.35,1.04,0.94,0.64,1.64,0.57c0.94-0.09,0.75-0.88,0.89-1.33c0.17-0.53-0.52-0.37-0.8-0.42c-0.47-0.07-0.72-0.95-1.33-0.39
				C57.34,112.74,56.81,112.95,56.08,113.01z M74.73,106.6c0.06,0.75,0.44,1.32,1.13,1.66c0.14,0.07,0.45,0.21,0.41-0.09
				c-0.07-0.59,0.58-0.83,0.55-1.4c-0.02-0.42,0.41-0.89-0.06-1.26c-0.38-0.3-0.86-0.28-1.29-0.12
				C74.96,105.58,74.78,106.04,74.73,106.6z M61.89,110.91c0.07,0.3-0.39,0.92,0.47,0.77c0.49-0.09,0.77-0.11,0.83-0.85
				c0.09-1.15-0.01-1.92-1.22-2.25c-0.18-0.05-0.3-0.33-0.46-0.49c-0.23-0.23-0.39-0.1-0.53,0.12c0.54,0.3-0.19,0.98,0.43,1.34
				C61.85,109.81,61.93,110.37,61.89,110.91z M65.51,103.15c0.23,0.5-0.01,1.23,0.72,1.41c0.37,0.09,1.79-1.1,1.75-1.45
				c-0.07-0.84-0.72-1.18-1.4-1.22C65.8,101.83,65.74,102.59,65.51,103.15z M66.5,107.72c0.08-0.04,0.19-0.05,0.2-0.1
				c0.21-0.93,0.91-1.35,1.71-1.67c0.13-0.05,0.24-0.22,0.16-0.38c-0.21-0.4-0.42-0.86-0.91-0.93c-0.47-0.07-1.06,0.12-1.14,0.54
				c-0.1,0.59-0.44,1.03-0.62,1.56C65.68,107.36,66.05,107.56,66.5,107.72z M192.55,110.6c0.6-1.36,2-2.07,2.71-3.52
				c-0.86,0.03-1.96-0.17-2.09,0.48C192.98,108.55,192.59,109.5,192.55,110.6z M222.12,99.97c0.56-0.25,0.32-0.73,0.53-1.06
				c0.23-0.34,0.42-0.73,0.51-1.13c0.09-0.36,0.28-0.89-0.41-0.94c-0.9-0.07-1.73,1.17-1.33,1.97
				C221.63,99.22,221.88,99.58,222.12,99.97z M65.67,105.84c-0.13-1.06-0.25-1.93-0.85-2.36c-0.23-0.16-1.06,0.55-1.82,0.97
				C64.08,104.75,64.81,105.18,65.67,105.84z M75.72,114.46c-0.35,0.47-0.67,0.9-1.01,1.36c0.32,0.2,0.63,0.34,0.87,0.57
				c0.53,0.5,0.94,0.07,1.26-0.22c0.48-0.44-0.19-0.59-0.35-0.85C76.3,115.01,76,114.76,75.72,114.46z M120.03,133.27
				c1.65-0.95,3.13-2.16,4.91-2.84C123.03,130.89,121.3,131.68,120.03,133.27z M75.7,103.81c0.65-0.62,2.31,0.51,2.09-1.53
				C77.01,102.73,75.66,102.09,75.7,103.81z M76.12,111.27c-0.46,0.37-0.86,0.7-1.26,1.02c-0.22,0.17-0.29,0.36-0.03,0.53
				c0.19,0.13,0.52,0.54,0.58,0.28C75.56,112.46,76.55,112.22,76.12,111.27z M134.12,130.31c1.1,0.46,1.9,1.39,3,1.82
				C136.35,131.14,135.41,130.42,134.12,130.31z M223.52,104.17c-0.34,0.9-0.28,1.63,0.35,2.32
				C224.24,105.65,224.21,104.91,223.52,104.17z M193.2,101.74c-0.36,1.56-0.36,1.56-0.12,2.14
				C193.61,103.04,193.63,102.69,193.2,101.74z M149.43,152.3c0-0.03-0.01-0.05-0.01-0.08c-1.35,0-2.7,0-4.06,0
				c0,0.03,0,0.05,0,0.08C146.72,152.3,148.07,152.3,149.43,152.3z M171.44,132.18c-0.79-0.7-1.68-1.14-2.74-1.13
				C169.62,131.43,170.53,131.8,171.44,132.18z"/>
			<path d="M219.1,111.29c0.08,0.36,0.3,0.83-0.08,1.04c-0.38,0.21-0.55-0.3-0.75-0.53c-0.94-1.1-2.12-1.78-3.49-2.17
				c1.59-0.1,2.78,0.98,4.16,1.48C218.99,111.17,219.05,111.23,219.1,111.29z"/>
			<path d="M212.78,120.39c0.91,1.26,1.61,2.61,1.28,4.28C213.9,123.16,213.49,121.74,212.78,120.39z"/>
			<path d="M128.7,121.68c-0.21-1.39-0.43-2.79-0.64-4.18C128.54,118.85,128.9,120.21,128.7,121.68z"/>
			<path d="M87.29,124.3c1.01-0.05,1.9,0.11,2.5,1.03c0.15,0.23,0.27,0.49,0.03,0.72c-0.26,0.25-0.52,0.08-0.67-0.13
				c-0.56-0.75-1.35-0.81-2.14-0.71c-4.57,0.57-6.72,2.55-7.37,7.7c-0.06,0.46,0,0.91,0.16,1.35c0.09,0.23,0.06,0.47-0.18,0.59
				c-0.31,0.16-0.49-0.04-0.63-0.29c-0.2-0.34-0.25-0.71-0.27-1.1c-0.13-2.81,1.02-5.18,2.84-7.12
				C83.06,124.76,85.26,124.63,87.29,124.3z"/>
			<path d="M216.97,90.9c0.07-0.64,0.32-1.24,0.71-1.76c0.19-0.25,0.47-0.42,0.78-0.18c0.26,0.2,0.23,0.5,0.06,0.72
				c-0.48,0.6-0.45,0.99,0.29,1.36c0.53,0.27,0.38,0.66-0.08,0.94c-0.4,0.25-0.79,0.19-1.18-0.02
				C217.14,91.74,216.98,91.37,216.97,90.9z"/>
			<path d="M201.07,102.06c-0.03-0.99-0.06-1.98-0.07-2.96c-0.02-0.89-0.15-1.69-1.5-1.85c0.99-0.31,1.51-0.01,1.63,0.66
				c0.24,1.37,0.48,2.77-0.07,4.15C201.06,102.07,201.07,102.06,201.07,102.06z"/>
			<path d="M201.33,68.79c-0.22,0.6-0.74,0.73-1.26,0.77c-0.35,0.03-0.59-0.23-0.53-0.58c0.11-0.59,0.59-0.75,1.1-0.78
				C201.03,68.16,201.27,68.37,201.33,68.79z"/>
			<path d="M137.97,125.93c0.42,0.07,0.88,0.03,0.92,0.55c0.03,0.34-0.26,0.45-0.55,0.4c-0.35-0.06-0.83-0.03-0.92-0.49
				C137.32,125.93,137.75,126,137.97,125.93z"/>
		</g>
	</g>
</g>
</svg>
