<?xml version="1.0" encoding="utf-8"?>
<!-- Generator: Adobe Illustrator 23.0.2, SVG Export Plug-In . SVG Version: 6.00 Build 0)  -->
<svg version="1.1" id="line" xmlns="http://www.w3.org/2000/svg" xmlns:xlink="http://www.w3.org/1999/xlink" x="0px" y="0px"
	 viewBox="0 0 288 226.77" style="enable-background:new 0 0 288 226.77;" xml:space="preserve">
<style type="text/css">
	.st0{fill:#FF3A5B;}
	.st1{fill:#50E3C2;}
	.st2{fill:#FF8438;}
	.st3{fill:#FFDD4C;}
	.st4{fill:#FFFFFF;}
	.st5{fill:#925F36;}
	.st6{fill:#422918;}
	.st7{fill:#007EFF;}
	.st8{fill:#9C9B9B;}
	.st9{fill:#C6C6C5;}
	.st10{fill:#D9D9D9;}
	.st11{fill:#6F6F6E;}
	.st12{fill:#ECECEC;}
	.st13{fill:#97E6FC;}
	.st14{fill:#B1B1B1;}
	.st15{fill:#1D1D1B;}
	.st16{fill:#FFFFFF;stroke:#1D1D1B;stroke-width:0.5;stroke-miterlimit:10;}
	.st17{fill:none;stroke:#FFFFFF;stroke-linecap:round;stroke-linejoin:round;stroke-miterlimit:10;}
	.st18{fill:#A0ECD2;}
	.st19{fill:#C4F5FB;}
	.st20{fill:none;stroke:#FFFFFF;stroke-width:0.876;stroke-linecap:round;stroke-linejoin:round;stroke-miterlimit:10;}
	.st21{fill:none;}
	.st22{fill:#575756;}
	.st23{fill:#FFFFFF;stroke:#1D1D1B;stroke-width:0.9148;stroke-miterlimit:10;}
	.st24{fill:#9B5416;}
	.st25{fill:#868686;}
</style>
<g>
	<g>
		<path class="st1" d="M191.94,46.96c-22.28-0.21-37.83,2.26-60.11,2.64c-6.19,0.11-15.13-0.77-21.32-0.66
			c-6.46,0.11-19.12,0.55-25.58,0.66c-13.56,0.23-25.42-1.22-38.97-0.99c-0.67,0.01,3.11,37.15,2.56,37.54
			c-0.86,0.61-0.95,1.82-0.97,2.87c-0.28,15.42-0.56,30.83-0.84,46.25c-0.02,1.12-0.03,2.29,0.5,3.27c1.08,2.03,3.8,2.36,6.1,2.44
			c20.15,0.68,40.33,1.36,60.45,0.17c16.4-0.97,32.91-3.19,49.18-0.94c2.01,0.28,4.82,0.08,5.1-1.93c0.15-1.08-0.62-2.05-1.35-2.85
			c-1.57-1.73-3.25-3.45-4.14-5.61c-0.89-2.16-0.81-4.92,0.87-6.54c1.06-1.02,2.54-1.44,3.97-1.8c5.43-1.37,10.94-2.42,16.5-3.17
			c1.25-0.17,2.53-0.32,3.76-0.06c3.33,0.69,5.59,4.14,8.94,4.76c0.59-9.81,1.18-19.63,1.78-29.44c0.24-3.97,0.17-45.56-3.02-47.93"
			/>
		<ellipse class="st4" cx="82.73" cy="124.7" rx="5.39" ry="5.81"/>
		<circle class="st4" cx="82.62" cy="124.74" r="5.45"/>
		<path class="st5" d="M122.35,79.16c1.28,0.15,2.55,0.31,3.83,0.47c0.41,0.05,0.83,0.11,1.16,0.34c0.28,0.19,0.47,0.49,0.66,0.77
			c0.97,1.51,1.95,3.02,2.92,4.53c0.26,0.4,0.52,0.8,0.64,1.26c0.28,1.01-0.15,2.06-0.33,3.09c-0.17,0.98-0.13,1.99,0.14,2.94
			c0.11-0.55,0.23-1.11,0.34-1.66c0.06-0.28,0.12-0.58,0.31-0.8s0.54-0.33,0.78-0.16c0.18,0.13,0.23,0.37,0.26,0.59
			c0.18,1.1,0.36,2.2,0.55,3.3c0.35-0.34,0.56-0.82,0.57-1.3c0.15,0.31,0.61,0.33,0.88,0.12c0.27-0.21,0.38-0.55,0.46-0.88
			c0.24-1,0.26-2.1-0.25-2.99c-0.31-0.54-0.79-0.96-1.15-1.48c-0.4-0.59-0.62-1.28-0.83-1.96c-0.75-2.41-1.51-4.82-2.26-7.23
			c-0.15-0.48-0.3-0.96-0.62-1.35c-0.56-0.68-1.49-0.91-2.35-1.07c-1.81-0.35-3.65-0.59-5.49-0.74c-0.61,1.35-0.94,2.83-0.96,4.31"
			/>
		<path class="st5" d="M99.15,63.89c-0.6,1.07-0.73,2.39-0.37,3.57c0.09,0.31,0.22,0.61,0.22,0.93c0,0.59-0.42,1.15-0.29,1.73
			c0.05,0.23,0.18,0.42,0.31,0.61c1,1.46,2.22,2.76,3.6,3.87c1.27,1.02,2.81,2.07,3.01,3.69c0.1-1.84,1.6-3.32,1.96-5.13
			c0.12-0.62,0.11-1.25,0.09-1.88c-0.06-2.63-0.26-5.56-2.2-7.33c-1.58-1.44-4.14-1.65-5.94-0.49"/>
		<path class="st6" d="M99.45,65.01c-0.41-1.22,0.16-2.62,1.14-3.45c0.98-0.83,2.3-1.17,3.59-1.23c0.59-0.03,1.19-0.01,1.75-0.18
			c0.46-0.14,0.87-0.39,1.33-0.53c1.47-0.44,3.01,0.39,4.27,1.28c1.35,0.96,2.61,2.04,3.78,3.21c1.06,1.07,2.39,2.32,3.83,1.9
			c-1.55,0.7-2.96,1.74-4.62,2.08c-2.25,0.47-4.74-0.54-6.02-2.45c-0.07,1.1-0.4,2.17-0.94,3.13c-0.09,0.15-0.18,0.3-0.3,0.43
			c-0.57,0.6-1.73,0.41-2.08-0.34c-0.3-0.63-0.25-1.66-0.95-1.73c-0.59-0.06-0.98,0.78-1.57,0.73c-0.16-0.01-0.3-0.09-0.44-0.17
			c-0.99-0.57-1.86-1.34-2.56-2.23"/>
		<path class="st5" d="M89.04,92.44c-0.19,0.08-0.32-0.2-0.31-0.41c0.03-1.35,1.1-2.49,2.31-3.1c1.21-0.61,2.57-0.83,3.86-1.25
			c1.64-0.53,3.16-1.37,4.57-2.35c1.09-0.76,2.3-1.64,3.61-1.42c1.16,0.19,2.06,1.36,1.95,2.53c-1.45,0.63-2.96,1.12-4.5,1.46
			c-1.11,0.25-2.28,0.44-3.18,1.13c-0.88,0.67-1.52,1.81-2.62,1.96c-0.84,0.11-1.76-0.43-2.51-0.02c-0.34,0.18-0.55,0.53-0.79,0.83
			c-0.23,0.31-0.53,0.61-0.91,0.66s-0.81-0.33-0.68-0.69c-0.21-0.04-0.38,0.19-0.44,0.4c-0.07,0.21-0.12,0.45-0.31,0.55
			c-0.19,0.1-0.48-0.18-0.3-0.31"/>
		<path class="st5" d="M106.55,99.38c-1.61,1.68-3.14,3.61-3.48,5.9c-0.19,1.25-0.01,2.53,0.14,3.79c0.53,4.56,0.64,9.16,0.32,13.74
			c-0.03,0.41-0.04,0.87,0.23,1.17c0.19,0.21,0.47,0.29,0.7,0.45c0.92,0.62,1.15,2.3,2.25,2.23c0.43-3.78,1.18-7.53,2.23-11.19
			c0.48-1.66,1.02-3.33,1.19-5.05c0.17-1.72-0.07-3.55-1.04-4.98c0.75-0.27,1.48-0.62,2.15-1.05c0.15-0.09,0.3-0.2,0.35-0.36
			c0.07-0.21-0.04-0.42-0.15-0.61c-1.14-1.9-2.76-3.52-4.66-4.67"/>
		<path class="st5" d="M125.43,111.58c-0.07-1.57,0.34-3.18,1.26-4.45s2.37-2.18,3.93-2.33c0.43-0.04,0.91-0.01,1.24,0.28
			c0.31,0.27,0.41,0.71,0.51,1.11c0.4,1.62,1.08,3.17,2.01,4.56c0.14,0.21,0.3,0.42,0.54,0.5c0.18,0.05,0.36,0.02,0.55-0.01
			c2.15-0.32,4.32,0.42,6.26,1.4c1.94,0.97,3.78,2.18,5.83,2.91c1.91,0.67,3.99,0.92,5.71,1.99c1.72,1.07,2.93,3.41,1.87,5.13
			c-7.26-2.88-15.15-3.78-22.57-6.2c-0.88-0.29-1.78-0.61-2.48-1.22c-0.57-0.5-0.97-1.16-1.5-1.69c-0.57-0.56-1.29-0.97-1.81-1.58
			c-0.52-0.61-0.78-1.57-0.29-2.2"/>
		<path class="st0" d="M103.79,84.09c-1.07-0.59-2.36-0.77-3.56-0.5c-0.25,0.06-0.52,0.13-0.75,0.02c-0.35-0.17-0.41-0.64-0.4-1.03
			c0.02-2.3,0.21-4.6,0.59-6.87c0.07-0.44,0.16-0.9,0.46-1.23c0.73-0.8,2.07-0.26,2.89,0.44c1.37,1.17,2.43,2.68,3.06,4.37
			c-0.2-1.11-0.26-2.54,0.75-3.04c0.35-0.17,0.76-0.19,1.11-0.35c1.3-0.62,1.04-2.87,2.34-3.49c0.31-0.15,0.67-0.17,1.01-0.19
			c4.06-0.18,8.15,0.54,11.9,2.1c-1.1,1.62-1.7,3.58-1.7,5.53c-1.77,0.2-3.58-0.04-5.24-0.67c0.51,1.13,1.95,1.61,2.48,2.73
			c0.52,1.12-0.05,2.55,0.56,3.63c0.28,0.5,0.77,0.84,1.21,1.2c1.74,1.39,3.06,3.3,3.77,5.41c-4.43,0.35-8.86,0.7-13.29,1.05
			c-0.26,0.02-0.54,0.03-0.75-0.12c-0.23-0.17-0.3-0.47-0.4-0.74c-0.35-0.88-1.21-1.42-1.94-2.02c-1.1-0.92-1.97-2.12-2.51-3.45
			c-0.5-1.23-0.83-2.72-2.01-3.33"/>
		<path class="st4" d="M109.13,79.02c0.77-0.22,1.56-0.4,2.35-0.55c0.14-0.03,0.29-0.05,0.42,0c0.2,0.08,0.3,0.3,0.38,0.5
			c0.1,0.25,0.2,0.5,0.29,0.76c0.05,0.13,0.1,0.27,0.09,0.41c-0.01,0.2-0.15,0.36-0.27,0.51c-0.42,0.49-0.83,0.99-1.25,1.48
			c-0.44-0.39-0.97-0.68-1.54-0.84c-0.2-0.05-0.4-0.09-0.57-0.21c-0.27-0.19-0.38-0.55-0.36-0.88c0.02-0.33,0.16-0.64,0.29-0.95"/>
		<path class="st4" d="M106.49,76.12c0.38-0.35,1.04-0.07,1.45-0.37c0.14-0.1,0.23-0.25,0.32-0.4c0.6-1.04,1.21-2.08,1.81-3.11
			c-0.39-0.08-0.76-0.26-1.07-0.51c-0.34,0.2-0.53,0.56-0.72,0.91c-0.66,1.26-1.33,2.52-1.99,3.78"/>
		<path class="st4" d="M106.68,99.44c0.68-1.57,1.57-3.05,2.64-4.38c0.43-0.54,0.9-1.06,1.52-1.37c0.55-0.27,1.18-0.35,1.79-0.42
			c3.53-0.39,7.07-0.66,10.62-0.81c0.3-0.01,0.62-0.02,0.86,0.15c0.26,0.17,0.38,0.49,0.48,0.78c1.55,4.17,4.72,7.51,7.8,10.72
			c-2.3,0.63-4.9,1.52-5.79,3.73c-0.4,0.99-0.38,2.11-0.77,3.11c-0.19,0.49-0.59,1.01-1.12,0.95c-0.31-0.03-0.56-0.26-0.79-0.48
			c-2.09-2.07-3.89-4.43-5.33-7c-0.2-0.35-0.43-0.75-0.82-0.86c-0.37-0.11-0.75,0.06-1.09,0.23c-0.73,0.36-1.46,0.71-2.18,1.07
			c-0.26,0.13-0.54,0.26-0.83,0.23c-0.74-0.06-1-0.97-1.35-1.62c-1.11-2.06-4.28-2.22-5.44-4.24"/>
		<path class="st0" d="M109.25,100.44c1.17-1.27,2.63-2.28,4.23-2.94c0.59-0.24,1.29-0.53,1.44-1.15c0.05-0.21,0.03-0.42,0.03-0.64
			c0-0.93,0.46-1.86,1.2-2.42c0.74-0.57,1.75-0.77,2.65-0.53c-1.09,0.77-2.28,1.71-2.42,3.03c-0.03,0.3-0.01,0.6-0.08,0.89
			c-0.18,0.75-0.93,1.22-1.67,1.47c-0.74,0.24-1.53,0.34-2.19,0.75c-0.63,0.39-1.08,1.02-1.47,1.65c-0.14,0.23-0.28,0.47-0.51,0.6
			c-0.3,0.17-0.7,0.1-0.93-0.16s-0.24-0.67-0.03-0.94"/>
		<path class="st7" d="M96.38,126.53c0.03-0.58,0.67-0.97,1.25-0.99c0.58-0.02,1.14,0.22,1.71,0.35c0.89,0.2,1.84,0.15,2.71-0.15
			c0.22-0.08,1.63-1.48,1.86-1.5c1.18-0.11,1.4,1.57,1.98,2.31c0.2,0.26,0.64,0.32,0.86,0.56c0.09,0.1,0.12,0.24,0.14,0.37
			c0.12,0.71,0.15,1.62-0.5,1.93c-0.26,0.13-0.57,0.11-0.86,0.06c-1.82-0.29-3.26-1.33-5.09-1.53c-0.54-0.06-1.36,0-1.9-0.08
			c-0.56-0.09-0.92-0.58-1.45-0.8c-0.3-0.12-0.67-0.35-0.61-0.67c0.01-0.06,0.03-0.13,0-0.17c-0.04-0.05-0.13,0.03-0.08,0.06"/>
		<path class="st7" d="M156.29,116.9c-0.54-0.06-1.03,0.4-1.19,0.92c-0.16,0.52-0.07,1.08,0.02,1.61c0.22,1.32,0.45,2.65,0.94,3.9
			c0.47,1.2,1.19,2.31,2.09,3.23c0.13,0.13,0.26,0.26,0.43,0.33c0.42,0.18,0.93-0.08,1.14-0.48c0.21-0.4,0.17-0.89,0.01-1.32
			c-0.15-0.43-0.41-0.81-0.63-1.2c-0.98-1.76-1.27-3.89-0.78-5.84c0.06-0.23,0.12-0.47,0.01-0.68c-0.11-0.2-0.34-0.29-0.56-0.36
			c-0.47-0.15-0.95-0.31-1.44-0.28s-1,0.29-1.18,0.75"/>
		<path class="st8" d="M184.07,130.04c4.1-1.35,8.02-3.26,11.62-5.65c-1.17-3.04-4.29-5-7.5-5.59c-3.2-0.59-6.5-0.04-9.69,0.63
			c-4.44,0.94-8.84,2.12-13.15,3.54c-0.54,0.18-1.1,0.37-1.53,0.75c-0.49,0.43-0.76,1.07-0.9,1.71c-0.67,3.03,1.18,5.99,2.93,8.54
			c5.56,8.09,11.13,16.19,16.69,24.28c0.73,1.06,1.46,2.13,2.15,3.22c0.88,1.4,1.73,2.98,1.51,4.61c2.58,0.78,4.36,3.07,5.96,5.24
			c4.36,5.91,8.73,11.81,13.09,17.72c0.89,1.21,1.82,2.45,3.14,3.16c1.21,0.66,2.64,0.8,4.02,0.88c4.79,0.27,9.63-0.13,14.31-1.18
			c4.76-1.07,9.69-3.05,12.32-7.15c0.98-1.52,1.58-3.48,0.84-5.14c-0.51-1.14-1.57-1.93-2.54-2.71c-4.8-3.89-8.49-9.14-10.52-14.98
			c-0.32-0.92-0.62-1.88-1.25-2.62c-0.53-0.61-1.24-1.01-1.93-1.42c-6.17-3.68-11.38-8.96-14.98-15.19
			c-0.82-1.42-1.6-2.93-2.87-3.97c-1.37-1.11-3.27-1.63-4.25-3.1c-0.19-0.28-0.35-0.61-0.65-0.77c-0.47-0.25-1.04,0.02-1.51,0.29
			c-3.15,1.77-6.71,3.25-10.27,2.68c-3.56-0.57-6.87-3.91-6.21-7.46"/>
		<path class="st9" d="M209.19,145.4c-4.04-1.78-8.81-2.21-12.85-0.44c-4.04,1.77-7.1,5.98-6.83,10.38
			c0.05,0.83,0.22,1.67,0.57,2.42c0.7,1.51,2.09,2.6,3.55,3.42c6.13,3.43,14.54,2.5,19.43-2.54c1.55-1.6,2.79-3.77,2.41-5.97
			c-0.31-1.78-1.61-3.21-2.85-4.52c-0.64-0.67-1.27-1.34-1.91-2.02c-0.36-0.38-0.73-0.77-1.21-0.98"/>
		<path class="st10" d="M205.02,175.42c-0.31-0.36-0.22-0.94,0.08-1.31c0.3-0.37,0.75-0.57,1.2-0.74c1.46-0.55,3-0.85,4.53-1.14
			c6.01-1.16,12.02-2.32,18.03-3.48c0.25,0.31,0.1,0.8-0.19,1.06c-0.3,0.26-0.71,0.35-1.09,0.43c-7.2,1.49-14.41,2.97-21.61,4.46"/>
		<path class="st0" d="M202.44,150.52c-1.24-0.07-2.21,0.42-3.04,1.23c-0.67,0.66-0.72,1.5-0.35,2.25c0.98,1.97,4.87,2.24,6.18,0.48
			c0.61-0.82,0.5-2.86-0.31-3.26C204.15,150.84,203.34,150.36,202.44,150.52z"/>
		<path class="st11" d="M203.32,139.35c0.21,0.44-0.12,0.6-0.45,0.74c-1.19,0.52-2.49,0.61-3.75,0.79
			c-0.81,0.12-1.02-0.73-1.21-1.28c-0.17-0.48,0.46-0.46,0.76-0.58c1.04-0.41,2.15-0.56,3.24-0.74
			C202.74,138.17,203.04,138.76,203.32,139.35z"/>
		<path class="st11" d="M222.48,161.56c-0.6,0.07-1.11,0.1-1.6,0.2c-1.42,0.28-1.46,0.43-0.64,1.63c0.25,0.36,0.51,0.51,0.93,0.39
			c0.75-0.21,1.5-0.41,2.23-0.66c0.32-0.11,0.85-0.13,0.77-0.64c-0.08-0.49-0.47-0.81-0.97-0.92
			C222.93,161.52,222.65,161.56,222.48,161.56z"/>
		<path class="st11" d="M173.87,124.28c-1.74,0.27-3.5,0.62-5.2,1.18c-0.22,0.07-0.49,0.13-0.41,0.46c0.08,0.32,0.32,0.4,0.63,0.35
			c1.76-0.3,3.51-0.69,5.2-1.26c0.21-0.07,0.52-0.11,0.46-0.43C174.48,124.23,174.16,124.27,173.87,124.28z"/>
		<path class="st11" d="M185.96,142.72c-1.16,0.11-2.12,0.53-3.09,0.93c-0.61,0.25-0.84,0.64-0.58,1.27
			c0.26,0.62,0.55,1.22,1.39,0.96c0.9-0.28,1.79-0.6,2.69-0.9c0.54-0.18,0.91-0.47,0.73-1.11
			C186.93,143.24,186.55,142.81,185.96,142.72z"/>
		<path class="st11" d="M193.6,140.57c-0.53,0.32-1.24,0.13-1.89,0.29c-0.36,0.09-0.71,0.21-1.07,0.32
			c-0.57,0.18-1.09,0.34-0.8,1.18c0.51,1.48,0.73,1.77,1.67,1.49c1.13-0.34,2.23-0.78,3.34-1.19c0.28-0.1,0.58-0.23,0.51-0.64
			C195.3,141.53,194.17,140.55,193.6,140.57z"/>
		<path class="st11" d="M184,139.55c1.12,0.09,1.14-0.31,0.84-0.94c-0.3-0.62-0.76-0.96-1.46-0.79c-1.05,0.25-2.09,0.55-3.13,0.83
			c-1.19,0.32-1.28,0.62-0.55,1.61c0.36,0.48,0.75,0.6,1.31,0.38C182.08,140.22,183.16,139.85,184,139.55z"/>
		<path class="st11" d="M175.66,135.29c1.44-0.1,2.69-0.37,3.9-0.84c0.59-0.23,1.24-0.39,0.98-1.22c-0.24-0.77-0.8-1.02-1.59-0.82
			c-1.15,0.29-2.3,0.56-3.45,0.8c-0.58,0.12-0.93,0.37-0.83,1.02C174.76,134.91,175.19,135.21,175.66,135.29z"/>
		<path class="st11" d="M200.83,169.53c0.69-0.15,1.39-0.28,2.07-0.44c0.34-0.08,0.84-0.11,0.71-0.64
			c-0.12-0.48-0.41-1.27-0.79-1.18c-1.11,0.27-2.29-0.03-3.35,0.52c-0.24,0.13-0.41,0.29-0.25,0.55
			C199.59,168.93,199.93,169.61,200.83,169.53z"/>
		<path class="st11" d="M213.67,165.53c0.88-0.12,1.62-0.18,2.34-0.33c0.49-0.1,1.23-0.08,1.05-0.9c-0.15-0.68-0.49-1.32-1.39-1.12
			c-0.92,0.2-1.83,0.45-2.75,0.7c-0.18,0.05-0.51,0.15-0.4,0.35C212.85,164.75,213.14,165.34,213.67,165.53z"/>
		<path class="st11" d="M208.67,165.05c-0.44,0.09-1.1,0.21-1.75,0.38c-1.28,0.33-1.33,0.53-0.57,1.56c0.22,0.3,0.45,0.36,0.77,0.28
			c0.72-0.17,1.44-0.33,2.16-0.52c0.4-0.11,0.81-0.24,0.64-0.82C209.77,165.41,209.56,164.98,208.67,165.05z"/>
		<path class="st11" d="M175,127.86c-0.92,0.03-1.87,0.39-2.81,0.78c-0.47,0.19-0.6,0.61-0.56,1.1c0.03,0.32,0.17,0.53,0.51,0.5
			c1.22-0.11,2.43-0.3,3.48-1c0.31-0.2,0.76-0.42,0.54-0.96C175.96,127.77,175.53,127.86,175,127.86z"/>
	</g>
	<g id="IPbjyQ_2_">
		<g>
			<path d="M263.79,183.09c-0.19-0.14-0.4-0.25-0.61-0.37c-1.69-0.93-3.58-1.06-5.43-1.2c-2.05-0.16-3.89-0.95-5.71-1.73
				c-1.25-0.54-2.36-0.71-3.39,0.22c-2.01,1.81-4.28,3.22-6.64,4.49c-0.34,0.18-0.7,0.42-1.22,0.23c0.61-1.51,0.96-3.04,0.81-4.67
				c-0.05-0.6-0.22-1.01-0.74-1.33c-2.24-1.39-4-3.34-5.91-5.11c-2.41-2.24-3.83-5.24-5.35-8.12c-1.12-2.13-2.46-4.18-2.95-6.57
				c-0.22-1.1-0.74-1.56-1.72-1.79c-2.1-0.48-3.98-1.45-5.47-2.97c-1.62-1.64-3.48-3.02-4.99-4.77c-0.24-0.28-0.49-0.56-0.87-0.67
				c-1.2-0.36-1.54-1.53-2.2-2.39c-0.18-0.23,0.24-0.55-0.15-0.89c-1.84-1.61-2.48-3.89-3.06-6.13c-0.15-0.6-0.29-0.99-0.85-1.2
				c-1.42-0.56-2.79-1.21-4.14-1.9c-0.68-0.35-1.28-0.75-1.75-1.36c-0.36-0.46-0.29-1.03-0.46-1.54c-0.13-0.37-0.29-0.74-0.76-0.66
				c-0.46,0.08-0.53,0.48-0.54,0.86c0,0.2,0.01,0.41,0.07,0.6c0.16,0.49-0.03,0.72-0.5,0.91c-0.81,0.34-1.57,0.8-2.38,1.15
				c-3.61,1.56-7.19,1.64-10.6-0.53c-1.43-0.91-2.55-2.16-2.43-4.07c0.03-0.44,0.15-0.67,0.64-0.73c2.16-0.23,3.99-1.26,5.71-2.49
				c0.67-0.48,1.35-0.89,2.11-1.21c1.71-0.73,3.49-1.36,5.08-2.29c1.88-1.11,3.68-1.49,5.79-0.71c3.27,1.21,6.52,2.55,9.98,3.15
				c6.06,1.06,12.02,2.44,17.86,4.39c2.82,0.94,5.43,2.28,8.11,3.52c3.02,1.4,5.56,3.37,7.82,5.75c0.27,0.29,0.53,0.77,0.98,0.39
				c0.48-0.4,0.11-0.81-0.18-1.14c-0.61-0.68-1.25-1.32-1.9-2c3.39,0.01,6.71,0.66,10.08,0.46c1.15-0.07,2.31-0.13,3.42-0.47
				c0.36-0.11,0.77-0.28,0.65-0.76c-0.12-0.5-0.54-0.42-0.92-0.31c-0.85,0.25-1.73,0.31-2.61,0.38c-2.35,0.2-4.68-0.23-7.01-0.19
				c-2.54,0.05-4.83-0.62-7.04-1.66c-1.35-0.63-2.7-1.28-4-2c-5.17-2.84-10.83-4.32-16.49-5.73c-5.49-1.36-11.18-1.9-16.45-4.13
				c-0.7-0.29-1.03-0.5-0.6-1.27c0.25-0.44,0.25-0.98,0.27-1.49c0.27-8.14,0.62-16.28,0.91-24.43c0.22-6.24,0.17-12.5,0.12-18.74
				c-0.07-8.72,0.6-17.45-0.28-26.16c-0.23-2.29-0.42-4.59-1.03-6.83c-0.16-0.6-0.44-1.05-1.07-1.23c-1.56-0.47-3.17-0.91-4.78-0.83
				c-3.03,0.15-6.04-0.13-9.06-0.16c-7.91-0.09-15.82,0.27-23.73,0.06c-2.2-0.06-4.4,0.33-6.6,0.36
				c-12.49,0.19-24.98,0.06-37.47,0.6c-6.04,0.26-12.09,0.18-18.13,0.28c-2.55,0.04-5.09,0.11-7.64,0.23
				c-9.06,0.43-18.13,0.34-27.19,0.04c-6.73-0.22-13.43-0.1-20.14,0.37c-0.94,0.07-1.88,0.29-2.81,0.44
				c-1.04,0.17-2.07,0.45-3.11,0.47c-1.75,0.03-3.67,1.7-3.75,3.46c-0.13,3.02-0.38,6.04-0.32,9.06c0.18,8.79-0.09,17.59,0.31,26.38
				c0.23,5.1-0.35,10.18-0.39,15.26c-0.05,6.45,0.13,12.9,0.2,19.35c0.06,5.62-0.1,11.24-0.22,16.85c-0.05,2.54,0,5.09,0.41,7.62
				c0.32,1.98,1.99,3.69,3.98,3.96c2.84,0.38,5.69,0.2,8.54,0.12c4.3-0.12,8.56-0.83,12.89-0.62c2.42,0.12,4.88-0.07,7.32-0.11
				c7.33-0.12,14.67,0.23,22-0.04c7.13-0.26,14.25-0.41,21.38-0.03c0.6,0.03,0.94,0.09,0.92,0.82c-0.05,2.48-0.06,4.96-0.04,7.44
				c0.01,1.01-0.36,1.34-1.39,1.26c-2.85-0.21-5.7-0.16-8.55-0.06c-6.69,0.24-13.37,0.27-20.06-0.03c-0.45-0.02-0.98-0.04-1.2,0.36
				c-0.38,0.71-1.05,1.04-1.62,1.51c-1.37,1.12-2.73,2.23-3.97,3.5c-1,1.04-1.47,2.09-0.7,3.44c0.1,0.17,0.03,0.33-0.03,0.48
				c-0.23,0.6,0.11,0.82,0.62,0.89c0.5,0.07,1.01,0.13,1.52,0.13c27.17-0.15,54.34-0.31,81.51-0.47c0.51,0,1.02-0.03,1.53-0.06
				c0.52-0.03,0.87-0.36,0.91-0.81c0.11-1.1,0.28-2.25-0.59-3.18c-0.1-0.11-0.34-0.17-0.1-0.37c0.54-0.46,0.13-0.76-0.17-1.08
				c-1.14-1.21-2.29-2.41-3.41-3.65c-0.45-0.5-1.01-0.5-1.58-0.53c-0.31-0.02-0.53,0.16-0.51,0.49c0.01,0.31,0.18,0.55,0.52,0.43
				c0.42-0.14,0.68,0.05,0.85,0.36c0.7,1.26,1.8,2.21,2.58,3.4c0.2,0.3,0.66,0.6,0.49,0.94c-0.2,0.4-0.73,0.19-1.11,0.19
				c-11.04,0.05-22.07,0.09-33.11,0.12c-2.12,0.01-4.24,0-6.36,0c1.32-0.24,2.64-0.21,3.96-0.26c0.55-0.02,1.29,0.47,1.61-0.11
				c0.37-0.68-0.63-0.92-0.83-1.47c-0.07-0.19-0.57-0.38-0.25-0.5c0.53-0.19,0.48-0.77,0.93-1c0.57-0.29,0.73-0.75-0.04-1.08
				c-0.25-0.11-0.41-0.29-0.31-0.55c0.09-0.24,0.34-0.14,0.53-0.13c0.71,0.02,1.43,0.09,2.14,0.07c5.87-0.16,11.75-0.16,17.61-0.46
				c3.19-0.16,6.38,0.04,9.57,0.04c0.31,0,0.8,0.13,0.84-0.33c0.04-0.49-0.44-0.41-0.76-0.43c-6.59-0.41-13.17,0.18-19.75,0.19
				c-3.22,0-6.44,0.44-9.66,0.1c-0.53-0.06-0.77-0.18-0.77-0.77c-0.02-2.65-0.05-5.29-0.16-7.94c-0.04-1.03,0.26-1.28,1.3-1.28
				c11.17-0.03,22.34,0.46,33.51,0.02c3.19-0.13,6.38-0.14,9.57-0.28c1.31-0.06,2.03,0.74,1.57,1.96c-0.17,0.46-0.22,0.91-0.24,1.39
				c-0.06,1.92,0.59,3.67,1.25,5.42c0.13,0.35,0.26,0.65,0.17,1.07c-0.72,3.23,0.3,5.8,3.04,7.66c0.14,0.1,0.3,0.15,0.33,0.35
				c0.32,2.07,1.7,3.76,2.04,5.84c0.25,1.53,0.95,2.93,2.14,3.96c1.61,1.39,3.16,2.81,4.49,4.48c0.56,0.7,1.09,1.51,1.9,1.96
				c1.93,1.07,3.86,2.14,6.12,2.36c0.64,0.06,1.29-0.02,1.91,0.22c2.53,0.94,4.93,2.01,6.38,4.52c0.57,0.99,1.39,1.83,2.09,2.75
				c0.27,0.35,0.64,0.7,0.72,1.09c0.38,1.83,1.8,2.31,3.31,2.5c4.39,0.57,8.81,0.49,13.22,0.34c1.45-0.05,2.91-0.25,4.32-0.63
				c2.39-0.64,4.8-1.22,7.17-1.91c2.48-0.72,4.78-1.77,6.2-4.11c0.13-0.21,0.27-0.36,0.53-0.42c3.43-0.75,6.06-2.84,8.47-5.21
				c1.04-1.03,2.02-1.08,3.3-0.74c1.38,0.37,2.62,1.12,4.04,1.37c2.46,0.43,5.04,0.28,7.3,1.61c0.26,0.15,0.54,0.09,0.7-0.2
				C264.16,183.51,264.03,183.27,263.79,183.09z M204.98,89.29c0.03,0,0.05,0,0.08,0c0,1.99,0,3.99,0,5.98
				c-0.03-0.01-0.05-0.01-0.08-0.02C204.98,93.26,204.98,91.27,204.98,89.29z M115.97,158.11c-0.22,1.17,0.23,2.43-0.46,3.56
				c-0.13,0.21,0.09,0.43,0.31,0.59c-0.05,0.07-0.11,0.15-0.16,0.22c-3.49,0-6.99-0.01-10.48,0c-7.84,0.01-15.68,0.04-23.53,0.04
				c-0.34,0-0.85,0.24-0.99-0.21c-0.12-0.39,0.33-0.63,0.61-0.86c1.45-1.23,2.92-2.44,4.37-3.67c0.67-0.57,1.43-0.74,2.27-0.68
				c3.46,0.26,6.92,0.07,10.38,0.14c5.57,0.11,11.13-0.43,16.7-0.18C115.75,157.1,116.16,157.12,115.97,158.11z M209.54,145.84
				c1.28,2.25,3,4.13,5.05,5.66c1.32,0.99,1.18,2.16,0.78,3.42c-1.39,4.43-4.86,6.42-9.01,7.51c-1.61,0.42-3.3,0.37-5.16,0.32
				c-1.79,0.09-3.74-0.03-5.63-0.72c-2.76-1-4.96-2.64-5.75-5.57c-0.58-2.15-0.28-4.32,0.97-6.26c2.57-3.98,6.42-5.68,10.98-6.04
				c2.4-0.19,4.75-0.01,6.95,1.09C209.04,145.4,209.36,145.52,209.54,145.84z M203.32,139.35c0.21,0.44-0.12,0.6-0.45,0.74
				c-1.19,0.52-2.49,0.61-3.75,0.79c-0.81,0.12-1.02-0.73-1.21-1.28c-0.17-0.48,0.46-0.46,0.76-0.58c1.04-0.41,2.15-0.56,3.24-0.74
				C202.74,138.17,203.04,138.76,203.32,139.35z M185.32,130.39c-0.04-0.1-0.08-0.2-0.13-0.3c0.83-0.31,1.65-0.63,2.48-0.94
				c0.03,0.07,0.07,0.13,0.1,0.2C186.95,129.69,186.14,130.04,185.32,130.39z M125.88,161.27c-2.82-0.18-5.6,0.68-8.42,0.27
				c-0.3-0.04-0.89,0.19-0.8-0.42c0.07-0.53,0.14-1.2,0.96-1.2c1.39,0,2.78,0,4.17,0c0,0.01,0,0.02,0,0.03
				c1.32,0,2.65-0.01,3.97,0.01c0.28,0,0.71-0.04,0.58,0.43C126.26,160.68,126.6,161.31,125.88,161.27z M166.16,137.79
				c-38.21,0.05-76.41,0.09-114.62,0.12c-0.61,0-1.22-0.08-1.82-0.13c-0.96-0.08-1.14-0.63-1.4-1.56c-1.2-4.26-0.49-8.58-0.59-12.86
				c-0.06-2.52-0.05-5.03-0.02-7.55c0.56-18.65,0.56-34.72,0.51-51.92c-0.03-1.15-0.06-2.3-0.1-3.46c-0.02-0.6,0.15-0.96,0.48-1.13
				c0.01-0.1,0.02-0.2,0.02-0.3c-0.38,0.11-0.58-0.06-0.64-0.78c-0.11-1.43-0.09-2.85-0.08-4.27c0.01-1,0.46-1.34,1.45-1.34
				c7.2-0.02,14.4-0.07,21.6-0.13c3.4-0.03,6.81-0.04,10.21-0.07c0.48-0.01,0.95-0.02,1.41-0.01c37.45-0.27,74.91-0.3,112.36-0.34
				c2.39,0,2.22-0.17,2.12,2.15c-0.34,8.24-0.15,16.5-0.63,24.74c-0.06,1.05-0.04,2.1-0.02,3.16c0,0.39-0.01,0.63-0.19,0.76
				c0.01,0.21,0.02,0.43,0.03,0.64c0.09,0.09,0.14,0.24,0.14,0.47c-0.01,0.92,0,1.84,0,2.76c0.29,6.78,0.52,13.55-0.29,20.33
				c-0.1,4.09-0.19,8.17-0.29,12.26c-0.01,0.51-0.24,0.99-0.09,1.71c-1.26-0.79-2.44-1.37-3.43-2.19c-1.08-0.9-2.28-1.06-3.58-1.12
				c-2.38-0.11-4.65,0.53-6.93,1.02c-5.17,1.1-10.43,1.74-15.57,3.02c-0.53,0.13-1.06,0.25-1.57,0.43
				c-2.54,0.91-3.39,2.42-2.74,5.06c0.85,3.45,2.69,6.43,4.75,9.27c0.26,0.35,0.5,0.72,0.75,1.09
				C166.97,137.92,166.55,137.79,166.16,137.79z M178.06,162.21c-0.23,0.3-0.52,0.13-0.71-0.04c-1.13-1.07-2.3-2.12-2.17-3.91
				c0.07-1,0.4-1.75,1.46-2.03c0.59-0.16,1.07-0.8,1.7-0.43c1.88,0.19,3.71,1.93,4.08,3.73c0.12,0.56,0.01,0.83-0.57,0.87
				C180.36,160.51,179.01,160.93,178.06,162.21z M174.88,150.32c0.13-0.28,0.28-0.58,0.62-0.61c0.33-0.03,0.43,0.29,0.57,0.51
				c0.85,1.35,1.69,2.7,2.54,4.06c0.03,0.05,0.01,0.13,0.02,0.31c-0.75,0.02-1.46-0.04-2.13,0.28c-0.33,0.16-0.58-0.06-0.8-0.28
				C174.65,153.56,174.29,151.62,174.88,150.32z M182.86,171.98c0.11,0.38,0.35,0.73,0.25,1.35c-1-0.57-1.58-1.36-1.9-2.29
				c-0.72-2.11-1.35-4.25-2.25-6.31c-0.65-1.47,0.27-2.74,1.88-3.05c0.53-0.1,1.07-0.11,1.58-0.34c0.55-0.25,0.64,0.46,1.04,0.62
				c1.54,0.62,2.01,2,2.28,3.48c0.08,0.46-0.06,0.74-0.51,0.97C182.59,167.72,182.02,169.09,182.86,171.98z M198.05,181.71
				c-2.08-1.07-4.46-0.41-6.61-1.36c-4.34-1.91-6.7-5.32-7.61-9.84c-0.32-1.58,0.38-2.73,1.87-3.09c1.13-0.27,2.02,0.45,2.75,1.18
				c1.99,1.99,3.77,4.18,5.29,6.55c1.3,2.03,2.58,4.06,4.16,5.89C198.01,181.17,198.16,181.28,198.05,181.71z M238.98,183.86
				c-2.05,2.17-3.65,4.72-6.59,6.06c-3.28,1.49-6.71,2.13-10.19,2.48c-3.64,0.37-7.32,0.48-10.98,0.28
				c-0.85-0.05-1.7-0.08-2.53-0.23c-0.85-0.15-1.47-0.61-2.02-1.37c-2.54-3.44-4.81-7.08-7.6-10.32c-2.36-2.75-4.03-5.96-6.23-8.81
				c-0.83-1.08-1.69-2.12-2.63-3.11c-0.41-0.43-0.74-0.83-0.8-1.55c-0.07-0.9-1.1-1.03-1.78-1.3c-0.55-0.22-0.78-0.43-0.87-1.02
				c-0.25-1.64-0.95-3.05-2.5-3.86c-0.59-0.31-0.61-0.88-0.68-1.39c-0.15-1.19-0.73-2.12-1.42-3.08c-0.61-0.85-0.78-1.88-2.11-2.18
				c-0.55-0.13-0.86-1.3-1.29-1.99c-2.66-4.34-5.4-8.62-8.45-12.71c-1.46-1.96-2.8-4-4.22-5.99c-1.23-1.73-2.02-3.68-2.83-5.62
				c-0.08-0.19-0.15-0.38-0.01-0.66c3.02,4.24,6.05,8.36,8.82,12.68c3.08,4.8,6.67,9.24,10.15,13.76c2.77,3.6,5.41,7.31,8.09,10.98
				c2.29,3.12,4.69,6.14,7.1,9.17c2.13,2.67,4.09,5.49,6.22,8.18c0.99,1.25,1.81,2.67,2.95,3.76c1.2,1.15,2.68,2,4.48,2.03
				c4.12,0.06,8.18-0.56,12.25-1.09c2.42-0.32,4.84-0.6,7.24-1.09c2.81-0.56,5.55-1.27,8.14-2.51c0.12-0.06,0.24-0.13,0.37-0.02
				C239.2,183.51,239.12,183.72,238.98,183.86z M239.58,180.36c-0.07,1.58-1.26,1.99-2.41,2.46c-3.29,1.34-6.75,2.04-10.25,2.53
				c-4.53,0.64-9.08,1.17-13.64,1.6c-2.22,0.21-4.3-0.2-5.92-1.8c-1.01-0.99-1.8-2.2-2.67-3.33c-2.13-2.77-4.15-5.64-6.35-8.34
				c-3.85-4.71-7.39-9.63-10.95-14.56c-2.38-3.3-4.95-6.47-7.43-9.7c-3.68-4.79-7.18-9.71-10.39-14.84
				c-1.51-2.42-3.53-4.48-4.96-6.96c-0.17-0.29-0.37-0.57-0.56-0.85c-1.16-1.83-0.95-2.74,1.4-3.48c2.45-0.77,4.99-1.28,7.55-1.61
				c3.23-0.42,6.38-1.31,9.59-1.81c1.44-0.23,2.84-0.61,4.3-0.79c2.95-0.37,5.08,1.04,7.03,2.95c0.56,0.54,0.98,1.22,1.53,1.77
				c0.44,0.44,0.32,0.66-0.15,0.88c-1.13,0.54-2.23,1.19-3.4,1.6c-2.65,0.94-5.12,2.34-7.84,3.14c-1.74,0.51-2.19,2.82-1.28,4.4
				c1.05,1.82,2.72,2.84,4.19,4.18c1.02,0.92,1.84,0.99,3.04,0.91c1.55-0.1,3.12,0.17,4.67-0.16c1.77-0.38,3.48-0.95,4.93-2.07
				c0.59-0.45,1-0.54,1.47,0.15c0.26,0.38,0.68,0.65,1.15,1.09c-1.51,0.33-2.89,0.49-4.18,1.03c-1.04,0.43-1.05,0.6-0.57,1.57
				c0.49,0.99,1.1,1.28,2.18,0.95c1-0.31,2.09-0.29,3.08-0.67c1.27-0.48,1.33-0.66,0.75-1.85c-0.06-0.12-0.11-0.24-0.22-0.47
				c0.97,0.26,1.87,0.44,2.71,0.76c0.56,0.21,0.67,0.85,0.73,1.37c0.13,1.03,0.61,1.85,1.35,2.54c0.51,0.47,0.49,1.14,0.75,1.78
				c-1.38-0.64-2.8-0.93-4.25-1c-4.33-0.22-8.38,0.53-11.8,3.47c-2.44,2.09-3.84,4.7-3.68,7.92c0.11,2.08,1.05,3.9,2.71,5.29
				c1.55,1.3,3.31,2.21,5.27,2.5c3.68,0.53,7.38,0.65,10.99-0.48c1.76-0.55,3.31-1.58,4.74-2.74c1.81-1.48,2.8-3.45,3.18-5.75
				c0.03-0.19,0.04-0.45,0.16-0.56c0.2-0.17,0.37,0.07,0.5,0.2c2.06,2.11,4.65,3.37,7.24,4.65c0.93,0.46,1.56,1.09,1.76,2.19
				c0.22,1.2,0.46,2.57,1.32,3.37c1.35,1.27,1.96,2.9,2.8,4.42c1.28,2.3,2.61,4.57,4.52,6.36c1.6,1.51,3.22,3,4.85,4.49
				C239.62,179.47,239.6,179.82,239.58,180.36z"/>
			<path d="M134.49,93.59c0.06,0.02,0.19,0,0.19,0c0-0.25,0.1-0.43,0.24-0.58c-0.27,0.12-0.54,0.25-0.8,0.37
				C134.22,93.37,134.37,93.54,134.49,93.59z"/>
			<path d="M160.32,125.8c-0.49-1.56-1.07-3.09-1.91-4.51c-0.13-0.22-0.22-0.48-0.13-0.67c0.42-0.9,0.1-1.95,0.63-2.85
				c0.2-0.33-0.17-0.84-0.59-0.98c-1.21-0.41-2.44-0.65-3.56,0.25c-0.68,0.55-1.35,0.19-2.02,0.02c-3.26-0.78-6.14-2.49-9.19-3.79
				c-2.11-0.9-4.17-1.98-6.5-2.31c-0.6-0.08-1.39,0.35-1.79-0.28c-0.81-1.3-2.04-2.4-2.09-4.07c-0.01-0.28-0.1-0.52-0.14-0.78
				c-0.04-0.35,0.08-0.69,0.49-0.51c0.23,0.09,0.43,0.08,0.64,0.04c-0.2-0.4-0.6-0.81-0.87-1.21c-0.41-0.18-0.66-0.61-1.03-0.84
				c-0.03-0.02-0.05-0.04-0.08-0.06c-3.73-2.59-6.59-5.9-7.09-10.42c-0.08-0.15-0.12-0.3-0.14-0.4c-0.17-1.26-0.9-2.1-1.68-2.93
				c-0.82-0.86-1.72-1.65-2.79-2.18c-0.49-0.24-0.61-0.64-0.63-1.07c-0.05-1.09-0.47-2.11-0.55-3.2c-0.04-0.57-0.44-1.12-0.69-1.68
				c-0.21-0.48-0.15-0.72,0.45-0.58c0.46,0.1,0.93,0.22,1.4,0.24c0.7,0.04,1.44,0.07,1.94-0.58c0.22-0.29,0.49-0.29,0.81-0.24
				c0.74,0.11,1.48,0.19,2.23,0.25c1.22,0.11,2.19,0.5,2.9,1.65c0.86,1.38,1.99,2.58,2.5,4.17c0.39,1.25,0.55,2.5,0.24,3.79
				c-0.19,0.77-0.13,1.55,0,2.33c0.03,0.19,0.06,0.44,0.34,0.42c0.24-0.02,0.31-0.23,0.34-0.44c0.09-0.53-0.04-1.08,0.21-1.6
				c0.12-0.26,0.2-0.54,0.53-0.52c0.35,0.02,0.39,0.35,0.44,0.6c0.17,0.93-0.01,1.9,0.25,2.83c0.03,0.1,0.02,0.17,0,0.23
				c0.29-0.18,0.59-0.34,0.9-0.5c0.01-0.01,0.03-0.02,0.04-0.02c0.26-0.13,0.53-0.25,0.8-0.37c0.35-0.38,0.96-0.59,0.98-1.23
				c0.04-1.36-0.15-2.67-0.95-3.78c-1.97-2.76-2.88-5.94-3.8-9.13c-0.03-0.1-0.05-0.2-0.07-0.3c-0.32-1.83-1.49-2.66-3.27-2.9
				c-1.17-0.15-2.37-0.18-3.48-0.7c-0.39-0.18-0.88-0.22-0.95-0.79c-0.03-0.25-0.26-0.27-0.47-0.3c-2.31-0.28-4.5-1.01-6.66-1.83
				c-1.8-0.68-3.62-0.35-5.44-0.39c-0.61-0.01-1.21-0.15-1.88,0.11c-0.55,0.21-1.15-1.07-0.9-1.93c0.24-0.84,0.5-1.68,0.76-2.54
				c0.38-0.04,0.56,0.32,0.79,0.51c1.33,1.15,2.79,1.4,4.46,0.89c1.24-0.38,2.46-0.79,3.48-1.62c0.35-0.28,0.74-0.3,1.15-0.29
				c0.45,0.01,0.81-0.18,1.01-0.57c0.17-0.33,0.35-0.76-0.03-1.02c-0.37-0.25-0.56,0.11-0.79,0.39c-0.85,1.02-1.32,1.02-2.35,0.16
				c-0.87-0.72-1.8-1.48-2.25-2.46c-0.36-0.77-0.72-1.43-1.31-2.05c-2.24-2.35-3.77-2.67-6.77-1.32c-0.72,0.33-1.42,0.63-2.11-0.05
				c-0.06-0.06-0.2-0.07-0.29-0.05c-1.74,0.43-3.55,0.7-4.97,1.91c-0.5,0.43-0.73,0.96-0.4,1.68c0.18,0.39,0.03,0.8-0.11,1.19
				c0.33,1.45,0.52,2.99,0.6,4.57c0.02-0.07,0.04-0.13,0.06-0.2c0.09-0.35-0.09-1.03,0.68-0.54c0.05,0.03,0.27-0.1,0.32-0.2
				c0.16-0.34-0.18-0.37-0.35-0.5c-0.98-0.72-1.09-1.2-0.5-2.34c0.97,1.39,2.52,2.14,3.58,3.42c0.45,0.54,0.93,0.47,0.95-0.34
				c0.01-0.45,0.26-0.61,0.55-0.86c0.35-0.31,0.45-0.14,0.57,0.15c0.33,0.81,0.02,1.92-0.67,2.43c0.73,0.2,0.96,0.11,1.01-0.51
				c0.05-0.61,0.02-1.22-0.02-1.83c-0.03-0.47-0.22-0.93-0.7-1c-0.46-0.07-0.69,0.39-0.85,0.76c-0.15,0.33-0.22,0.69-0.35,1.13
				c-0.72-1.05-1.77-1.6-2.67-2.32c-0.7-0.56-1.42-1.29-1.24-2.17c0.25-1.23,0.49-2.58,2.13-3.03c0.93-0.25,1.89-0.39,2.82-0.69
				c0.42-0.13,1.01-0.3,0.91,0.64c-0.07,0.62,0.52,1.06,0.99,1.46c2.1,1.77,2.42,4.99,0.69,7.15c-0.11-0.08-0.21-0.16-0.32-0.24
				c-0.28-0.19-0.55-0.74-0.9-0.3c-0.35,0.43,0.16,0.74,0.46,0.97c0.34,0.27,0.76,0.34,1.06,0.78c0.61,0.88,0.67,1.59,0.17,2.59
				c-0.66,1.34-1.06,2.8-1.95,4.04c-0.35-0.75-1.23-1.26-1.23-2.34c0-0.59-0.29-1.17-1.13-1.17c0.49-0.24,1.06-0.08,1.43-0.54
				c-0.94-0.39-1.93,0.3-2.84-0.27c-0.91-0.58-1.94-0.99-1.99-2.29c-0.01-0.15-0.08-0.41-0.18-0.44c-0.21-0.07-0.35-0.16-0.44-0.27
				c0,0.26,0,0.52,0,0.79c0.05,0.01,0.08,0.03,0.13,0.04c0.09,0.02,0.19,0.19,0.21,0.31c0.16,0.71,0.6,1.17,1.21,1.55
				c0.49,0.31,0.67,0.69-0.1,0.95c-1.09,0.37-1.6,1.21-1.7,2.31c-0.21,2.37-0.08,4.75-0.13,7.12c-0.01,0.61,0.37,0.8,0.86,0.95
				c0.55,0.17,0.67,0.49,0.11,0.78c-2.29,1.18-4.28,3.04-7.09,3.05c-1.5,0.01-2.2,1.32-3.2,2.15c-0.65,0.54-0.78,1.19-0.67,1.94
				c0.14,0.08,0.28,0.16,0.44,0.24c0.02,0.02,0.05,0.03,0.07,0.05c-0.21-0.29-0.29-0.61-0.27-0.97c0.03-0.55,0.47-0.79,0.76-1.15
				c1.13-1.41,2.51-2.05,4.38-2.14c1.62-0.07,3.02-1.13,4.46-1.89c1.3-0.69,2.55-1.41,3.65-2.41c0.22-0.2,0.96-0.11,1.24,0.12
				c0.56,0.46,1.09,1.04,1.4,1.69c0.29,0.62-0.43,0.71-0.83,0.85c-2.06,0.69-4.12,1.36-6.2,2.01c-0.75,0.23-1.36,0.6-1.73,1.31
				c-0.54,1.03-1.68,0.86-2.56,1.31c-0.06-0.77,0.81-0.73,1.13-1.43c-1.45,0.5-2.68,0.95-3.5,2.12c-0.19,0.27-0.3,0.65-0.72,0.64
				c-0.18-0.01-0.26-0.2-0.28-0.38c-0.05-0.39,0.06-0.66,0.4-0.94c0.51-0.43,0.89-0.99,1.24-1.39c-1.13,0.23-2.01,1.18-1.94,2.26
				c0.02,0.35,0.1,0.69,0.49,0.81c0.37,0.12,0.54-0.15,0.75-0.39c0.32-0.39,0.5-0.93,0.98-1.15c0.31-0.14,0.66-1.07,1.05,0.1
				c0.2,0.59,1.17,0.4,1.75,0.12c0.82-0.4,1.81-0.6,2.2-1.62c0.08-0.22,0.33-0.32,0.57-0.39c2.39-0.77,4.78-1.55,7.17-2.31
				c0.68-0.21,1.23,0.28,0.91,0.89c-0.27,0.52-0.05,0.71,0.2,1.02c0.95,1.14,2.08,2.08,3.25,2.98c0.03,0.02,0.06,0.03,0.09,0.04
				c0.6,0.18,0.53,0.9,0.97,1.21c-0.19,0.11-0.35,0.27-0.5,0.43c-0.75,0.93-1.49,2.24-2.24,3.14c-0.92,1.43-1.84,2.85-2.84,4.22
				c-0.8,1.1-1.84,2.1-2.01,3.57c-0.01,0.05-0.01,0.09-0.02,0.14c0.51,0.73,0.49,1.33,0.29,1.93c0.34,1.7,0.29,3.43,0.42,5.15
				c0.3,3.76,0.31,7.53,0.28,11.3c-0.01,0.7-0.26,1.05-0.89,1.39c-1.58,0.84-3.19,1.03-4.91,0.66c-0.81-0.18-1.61-0.14-1.96,0.78
				c-0.19,0.5,0.79,1.69,1.49,1.86c1.63,0.38,3.25,0.76,4.92,0.95c0.9,0.1,1.74,0.72,2.59,1.14c0.76,0.37,1.47,0.09,2.09-0.25
				c0.44-0.25,0.54-0.81,0.14-1.44c-0.47,0.53-0.24,1.72-1.31,1.26c-0.57-0.25-1.19-0.02-1.78-0.53c-0.62-0.54-1.62-0.85-2.46-0.89
				c-0.8-0.03-1.51-0.25-2.24-0.44c-0.24-0.06-0.45-0.16-0.67-0.06c-0.37,0.16-0.65,0.16-0.79-0.3c-0.07-0.21-0.25-0.36-0.47-0.29
				c-0.41,0.12-0.74-0.05-0.79-0.4c-0.05-0.36,0.41-0.35,0.65-0.51c0.52-0.34,1.02-0.26,1.56-0.13c1.96,0.44,3.8,0.6,5.23-1.32
				c0.35-0.48,1,0.16,1.24,0.55c0.39,0.63,0.73,1.29,1.33,1.76c0.16,0.12,0.19,0.26,0.15,0.44c-0.06,0.31-0.13,0.67,0.33,0.68
				c0.32,0.01,0.44-0.31,0.46-0.59c0.37-4.48,1.96-8.71,2.73-13.11c0.36-2.04,0.62-4.1,0.32-6.18c-0.06-0.4-0.14-0.8-0.26-1.19
				c-0.23-0.73,0.1-1.27,0.88-1.32c0.23-0.02,0.47,0.03,0.71,0.08c1.45,0.3,2.78,0.08,4.08-0.7c1.32-0.79,2.02-0.53,2.89,0.82
				c1.44,2.24,3.14,4.26,5.1,6.05c0.66,0.6,1.3,1.06,2.17,0.29c0.59-0.52,1.05-0.3,1.44,0.36c0.67,1.15,1.88,1.84,2.65,2.93
				c0.16,0.23,0.61,0.26,0.92,0.39c4.49,1.8,9.18,2.88,13.89,3.93c2.48,0.55,4.92,1.31,7.34,2.06c1.91,0.6,3.55,1.62,4.46,3.52
				c0.12,0.24,0.29,0.46,0.44,0.68c0.79,1.16,1.94,1.31,3.06,0.44C160.54,126.42,160.4,126.06,160.32,125.8z M124.91,75.52
				c1.37,0.38,2.81,0.36,4.18,0.81c0.75,0.25,1.14,0.7,1.36,1.36c0.52,1.58,1.05,3.15,1.48,4.75c0.51,1.91,1.32,3.64,2.48,5.24
				c0.88,1.21,1.33,2.57,1.18,4.28c-0.51-0.45-0.23-1.01-0.65-1.38c-0.44,0.73,0.11,1.59-0.35,2.35c-0.43-0.57-0.21-1.27-0.61-1.9
				c-0.45,0.79,0,1.64-0.43,2.52c-0.36-0.84-0.15-1.58-0.29-2.27c-0.1-0.52,0.12-1.31-0.72-1.36c-0.91-0.06-0.88,0.76-1.03,1.36
				c-0.02,0.09-0.03,0.19-0.07,0.57c-0.1-0.82-0.23-1.37-0.03-1.9c0.81-2.22-0.13-4.1-1.15-5.95c-0.26-0.47-0.61-0.89-0.93-1.33
				c-0.84-1.15-1.75-2.26-1.51-3.96c-0.09,1.71-1.07,1.19-1.92,0.98c-1.13-0.28-2.32-0.24-3.38-0.94c-0.43-0.28-0.37-0.41-0.28-0.71
				c0.14-0.45,0.29-0.9,0.45-1.35C123.26,75.08,123.31,75.07,124.91,75.52z M113.63,67.2c0.99,0.07,1.71,0.12,2.46,0.17
				C115.32,68.27,115.1,68.27,113.63,67.2z M112.06,64.35c1.5,1.26,3.07,2.01,5.02,2.44C114.04,67.53,112.87,66.96,112.06,64.35z
				 M106.4,62.47c-0.39-0.23-0.83-0.47-0.75-1.05c0.03-0.2,0.09-0.4,0.39-0.37c0.3,0.31,0.73,0.57,0.72,1.1
				C106.76,62.32,106.65,62.61,106.4,62.47z M106.4,60.91c-0.28-0.34,0.03-0.5,0.28-0.58c2.18-0.7,3.88-0.91,5.34,0.98
				c0.68,0.89,1.49,1.67,2.21,2.52c0.7,0.82,1.44,1.6,2.39,2.44c-3.87-0.62-5.6-3.87-8.22-5.94c1.53,1.84,3.11,3.61,3.92,6.1
				c-2.03-0.95-2.85-2.88-4.26-4.18c-0.07,0.05-0.14,0.1-0.2,0.16c0.91,1.07,1.8,2.18,2.75,3.22c0.99,1.07,2.56,1.39,3.43,2.6
				c-1.94,0.5-4.06-0.31-5.11-1.97c-0.04-0.06-0.1-0.11-0.1-0.17C108.61,64.08,107.66,62.42,106.4,60.91z M108.43,73.31
				c0.14-0.21,0.4-0.35,0.63-0.48c0.2-0.11,0.47-0.22,0.66-0.05c0.22,0.2,0.04,0.45-0.07,0.64c-0.4,0.74-0.81,1.47-1.23,2.2
				c-0.37,0.65-1.06,0.2-1.52,0.57c-0.04-0.07-0.07-0.15-0.11-0.23C107.33,75.07,107.86,74.18,108.43,73.31z M108.83,90.13
				c-0.95-0.63-1.66-1.5-2.47-2.26c-0.17-0.16-0.34-0.36-0.41-0.57c-0.67-2-1.79-3.79-2.57-5.73c-0.25-0.63-0.46-1.28-0.74-2.13
				c-0.42,0.99-0.09,1.64,0.23,2.3c0.29,0.61,0.98,1.34,0.69,1.81c-0.32,0.52-1.23,0.07-1.88,0.02c-0.61-0.05-1.21-0.13-1.82-0.2
				c-0.48-0.05-0.65-0.31-0.53-0.76c0.49-1.84,0.3-3.77,0.69-5.62c0.15-0.73,0.26-1.47,0.63-2.14c0.2-0.36,0.44-0.64,0.81-0.13
				c0.06,0.08,0.15,0.14,0.24,0.18c1.55,0.78,1.83,1.07,2.49,1.75c0.86,0.87,1.2,1.93,1.38,3.08c0.04,0.23,0.12,0.45,0.44,0.67
				c0.2-0.73-0.02-1.35-0.1-1.98c-0.15-1.27,0.35-1.99,1.61-2.07c0.73-0.04,1.1-0.37,1.4-0.96c0.53-1.02,1.11-2.01,1.61-3.04
				c0.19-0.39,0.44-0.44,0.8-0.46c2.33-0.13,4.58,0.17,6.75,1.09c1.41,0.61,2.93,0.86,4.43,1.12c0.41,0.07,0.68,0.16,0.42,0.63
				c-0.78,1.45-1,3.09-1.55,4.62c-0.18,0.51-0.19,0.74-0.98,0.59c-1.98-0.38-3.97-0.89-6.02-0.9c-0.14,0-0.28,0-0.35,0.14
				c-0.1,0.21,0.05,0.31,0.2,0.39c0.39,0.2,0.79,0.39,1.19,0.58c2.04,0.97,3.15,2.53,3.28,4.82c0.04,0.66,0.27,1.32,0.25,2
				c-0.01,0.47,0.43,0.59,0.74,0.75c0.82,0.43,1.56,0.96,2.29,1.51c0.91,0.67,1.21,1.7,1.6,2.66c0.2,0.5-0.27,0.52-0.61,0.53
				c-1.49,0.07-2.99,0.24-4.48,0.17c-2.03-0.09-3.99,0.24-5.96,0.65c-0.73,0.15-1.35,0.44-1.66-0.8
				C110.63,91.54,109.71,90.71,108.83,90.13z M107.45,98.34c0.56-0.81,1.14-1.6,1.68-2.43c0.74-1.14,1.85-1.64,3.12-1.91
				c1.33-0.28,2.68-0.38,4.16-0.35c-0.76,0.65-1.15,1.31-1.18,2.25c-0.02,0.89-0.86,1.31-1.54,1.61c-1.45,0.64-2.7,1.55-3.91,2.54
				c-0.61,0.5-2.39-0.12-2.6-0.89C107.08,98.85,107.27,98.59,107.45,98.34z M111.12,104.61c-0.6,0.37-1.14,1.33-2.1,0.48
				c-0.33-0.29-0.86-0.34-1.39-0.46c2.72,3.04,2.24,6.51,1.48,10.02c-0.66,3.01-1.3,6.03-1.97,9.04c-0.21,0.94-0.49,1.87-0.76,2.91
				c-0.84-0.76-1.04-1.96-2.13-2.33c-0.06-0.02-0.04-0.31-0.04-0.47c0.29-5.71,0.04-11.4-0.86-17.05c-0.19-1.17,0.65-0.68,1.05-0.84
				c0.05-0.22-0.05-0.31-0.19-0.35c-1-0.33-1.29-0.96-0.67-1.85c0.84-1.19,1.79-2.3,2.71-3.43c0.23-0.28,0.54-0.41,0.89-0.15
				c1.02,0.74,2.04,1.46,3.05,2.21c0.33,0.24,0.62,0.56,0.74,0.95C111.07,103.72,111.77,104.2,111.12,104.61z M111.63,103.47
				c0.5,0.24,0.88,0.59,1.21,1.21C111.96,104.58,111.81,104.01,111.63,103.47z M125.93,110.08c-0.22,0.58-0.07,1.43-0.8,1.64
				c-0.82,0.23-1.11-0.65-1.54-1.1c-1.83-1.95-3.47-4.05-5.02-6.23c-0.44-0.62,0.1-0.76,0.45-0.97c0.85-0.5,1.84-0.69,2.66-1.25
				c0.25-0.17,0.64-0.3,0.5-0.66c-0.19-0.46-0.6-0.19-0.88-0.08c-2.36,0.94-4.74,1.86-6.89,3.23c-0.37,0.24-0.54,0.36-1.01-0.08
				c-1.2-1.14-2.19-2.5-3.59-3.43c-0.39-0.26-0.35-0.49,0.02-0.77c1.17-0.86,2.25-1.83,3.63-2.41c1.13-0.48,2.14-1.13,2.15-2.66
				c0.01-0.89,1.21-1.79,2.25-1.86c-0.4,0.34-0.77,0.63-1.11,0.94c-0.56,0.51-0.81,1.11-0.68,1.91c0.16,0.98-0.36,1.73-1.34,1.95
				c-1.82,0.41-3.21,1.44-4.39,2.91c0.5,0.08,0.63-0.28,0.85-0.51c0.95-1.01,2.07-1.74,3.43-2.06c1.35-0.32,1.92-1.11,1.72-2.48
				c-0.07-0.48,0.02-0.9,0.37-1.21c0.98-0.87,1.93-1.75,3.41-1.69c1.15,0.05,2.3-0.13,3.46-0.12c0.42,0,0.57-0.17,0.64-0.78
				c0.31,0.69,0.43,1.16-0.22,1.08c-1.02-0.13-0.49,0.47-0.56,0.91c0.32-0.19,0.23-0.68,0.69-0.58c0.37,0.08,0.62,0.26,0.71,0.63
				c0.01,0.03,0.02,0.06,0.03,0.1c0.66,2.33,1.57,4.52,3.61,6.1c-0.47,0.42-0.92,0.12-1.25,0.35c-0.07,0.16,0.06,0.18,0.14,0.17
				c2.27-0.28,3,1.75,4.33,2.88c0.25,0.21,0.15,0.48-0.24,0.56c-1.16,0.24-2.08,1-3.12,1.5
				C126.69,106.8,126.49,108.57,125.93,110.08z M154.93,122.3c-4.07-1.98-8.45-2.73-12.75-3.79c-3.19-0.79-6.39-1.52-9.5-2.64
				c-1.61-0.58-2.82-1.52-3.87-2.78c-0.72-0.86-1.26-1.85-2.06-2.64c-0.22-0.22-0.31-0.48-0.21-0.83c0.38-1.32,0.96-2.39,2.37-2.97
				c2.28-0.94,1.9-1.56,3.58,1.06c0.62,0.97,1.03,2.07,1.76,2.97c0.36,0.44,0.15,0.59-0.28,0.78c-0.94,0.42-1.84,0.9-2.15,2.27
				c3.37-3.31,6.85-1.99,10.08-0.34c3.5,1.79,7.04,3.37,10.83,4.33c1.22,0.31,1.84,0.89,1.99,2.07
				C154.82,120.62,154.98,121.44,154.93,122.3z M159.48,125.93c-0.45,1.01-0.76,1.05-1.51,0.1c-1.46-1.85-2.38-3.92-2.54-6.29
				c-0.02-0.3-0.07-0.6-0.1-0.91c-0.05-0.52-0.35-1.08,0.26-1.48c0.73-0.48,1.48-0.79,2.36-0.4c0.21,0.1,0.5,0.19,0.08,0.44
				c-0.23,0.14-0.14,0.34-0.03,0.53c0.08,0.14,0.21,0.43,0.2,0.43c-1.31,0.69,0.08,1.6-0.21,2.37c-0.09,0.25-0.1,0.52-0.17,0.78
				c-0.06,0.21-0.07,0.45,0.1,0.56c0.52,0.33,1.32,0.51,0.31,1.27c-0.23,0.17,0.23,0.52,0.55,0.47c0.47-0.08,0.72-0.01,0.42,0.48
				c-0.48,0.78,0.05,0.84,0.69,0.87C159.73,125.47,159.59,125.69,159.48,125.93z"/>
			<path d="M130.24,100.46C130.23,100.46,130.23,100.46,130.24,100.46c0.1,0.14,0.2,0.28,0.3,0.42c0.05-0.01,0.1-0.02,0.16-0.03
				C130.54,100.72,130.38,100.6,130.24,100.46z"/>
			<path d="M81.16,52.4c0.47,0,0.94-0.01,1.41-0.01C82.1,52.38,81.63,52.39,81.16,52.4z"/>
			<path d="M89.43,92.92c-0.16-0.12-0.27-0.25-0.36-0.37c-0.02-0.02-0.05-0.03-0.07-0.05c-0.16-0.08-0.3-0.16-0.44-0.24
				c0,0.02,0,0.04,0,0.06C88.62,92.7,88.75,93.03,89.43,92.92z"/>
			<path d="M98.25,67.86c0.18,0.39,0.08,0.78,0.01,1.19c-0.15,0.8-0.48,1.72,0.67,2.04c0-0.26,0.01-0.53,0-0.79
				c-0.29-0.31-0.15-0.72-0.03-1.13c-0.07-1.58-0.27-3.12-0.6-4.57c-0.06,0.16-0.11,0.31-0.15,0.46
				C97.93,66.03,97.84,66.94,98.25,67.86z"/>
			<polygon points="100.23,94.36 100.24,94.35 100.24,94.35 			"/>
			<path d="M100.21,92.22c0.21-0.03,0.42-0.05,0.64-0.06C100.64,92.1,100.42,92.13,100.21,92.22z"/>
			<path d="M88.42,125.79c0.12,1.64-0.56,3.4-2.52,4.25c-2.2,0.96-4.36,0.54-6.35-0.84c-2.54-1.77-2.79-4.3-1.98-6.64
				c0.13-0.38,0.26-0.77,0.41-1.15c0.96-2.4,3.76-3.46,6.1-2.34c1.67,0.8,2.95,1.99,3.88,3.6
				C88.45,123.53,88.36,124.44,88.42,125.79z M86.33,121.36c-0.18,0.72-0.88,0.99-1.31,1.49c-1.17,1.35-2.4,2.65-3.62,3.96
				c-0.15,0.16-0.51,0.14-0.47,0.45c0.05,0.31,0.36,0.35,0.6,0.47c0.52,0.25,0.77-0.01,1.08-0.41c1.15-1.51,2.38-2.94,3.86-4.14
				c0.98-0.79,0.94-1.05-0.19-1.8c-0.31-0.41-0.46-1.24-1.24-0.59c-0.91,0.76-1.83,1.5-2.63,2.4c-0.74,0.83-1.53,1.64-2.36,2.38
				c-0.54,0.48-0.97,0.35-1.13-0.44c-0.2-0.92,0.16-1.64,0.67-2.36c0.87-1.23,2.12-2.07,3.15-3.18c-1.66-0.46-3.05,0.12-3.82,1.51
				c-0.34,0.6-0.49,1.26-0.7,1.91c-0.66,2.05-0.1,3.77,1.61,5.02c1.78,1.31,4.83,1.59,6.26,0.61c0.48-0.34,0.68-0.64,0.1-1.07
				c-0.57-0.42-1.13-0.86-1.68-1.31c-0.61-0.5-0.73,0.18-1,0.42c-0.32,0.3-0.39,0.61,0.1,0.88c0.52,0.29,1.01,0.63,1.51,0.95
				c-0.31,0.06-0.55-0.02-0.77-0.14c-0.68-0.37-1.27-1.18-2.16-0.28c-0.18,0.19-0.59,0-0.87-0.14c-0.69-0.35-1.09-1.1-1.88-1.34
				c-0.11-0.03-0.08-0.31,0.03-0.46c0.79,0.86,1.66,0.72,2.49-0.32C83.28,124.22,84.63,122.62,86.33,121.36z M79.18,124.69
				c0.08,0.22-0.06,0.61,0.3,0.74c0.33,0.12,0.56-0.17,0.78-0.38c1.41-1.32,2.56-2.9,4.12-4.08c0.27-0.21,0.77-0.4,0.61-0.81
				c-0.15-0.37-0.65-0.47-1.05-0.52c-0.42-0.06-0.79,0.1-1.11,0.39c-0.65,0.6-1.36,1.13-1.96,1.78
				C80.12,122.62,79.23,123.38,79.18,124.69z M85.58,124.54c-0.45,0.21-0.81,0.53-1.04,0.95c-0.19,0.37,0.16,0.54,0.39,0.72
				c0.52,0.43,1.07,0.83,1.58,1.27c0.35,0.3,0.61,0.24,0.8-0.15c0.2-0.42,0.63-0.96,0.3-1.3C87.04,125.44,86.27,125.03,85.58,124.54
				z M87.84,124.33c-0.23-0.32,0.16-1.09-0.61-1.1c-0.59-0.01-1.22,0.5-1.2,1.01c0.02,0.61,0.78,0.97,1.33,1.08
				C87.9,125.43,87.73,124.77,87.84,124.33z"/>
			<path d="M204.91,173.93c0.04-0.66,0.52-0.61,0.82-0.71c2.96-1.01,6.02-1.65,9.08-2.25c4.16-0.82,8.31-1.7,12.52-2.23
				c0.69-0.09,1.26-0.07,1.41,0.72c0.16,0.8-0.49,0.97-1.05,1.09c-4.22,0.87-8.44,1.72-12.66,2.56c-2.43,0.49-4.79,1.25-7.18,1.88
				c-0.62,0.16-1.26,0.28-1.89,0.4c-0.55,0.1-1-0.1-1.31-0.58c-0.11-0.17-0.23-0.36-0.04-0.54c0.17-0.15,0.31-0.01,0.43,0.11
				c0.4,0.39,0.87,0.35,1.34,0.22c6.84-1.89,13.84-3.03,20.78-4.5c0.1-0.02,0.21-0.03,0.29-0.08c0.3-0.16,0.89-0.06,0.78-0.58
				c-0.11-0.5-0.61-0.28-0.96-0.23c-6.59,0.95-13.1,2.25-19.56,3.85C206.77,173.27,205.87,173.62,204.91,173.93z"/>
			<path d="M220.59,164.5c-0.44,0.03-1.65-1.31-1.72-1.92c-0.09-0.83,0.61-0.84,1.12-1.04c1.05-0.41,2.19-0.34,3.28-0.55
				c0.78-0.15,1.37,0.4,1.59,1.24c0.21,0.8-0.24,1.24-0.83,1.54C222.96,164.3,221.77,164.41,220.59,164.5z M222.48,161.56
				c-0.6,0.07-1.11,0.1-1.6,0.2c-1.42,0.28-1.46,0.43-0.64,1.63c0.25,0.36,0.51,0.51,0.93,0.39c0.75-0.21,1.5-0.41,2.23-0.66
				c0.32-0.11,0.85-0.13,0.77-0.64c-0.08-0.49-0.47-0.81-0.97-0.92C222.93,161.52,222.65,161.56,222.48,161.56z"/>
			<path d="M167.02,125.56c2.38-0.9,4.68-1.41,7.03-1.73c0.52-0.07,0.83,0.18,0.98,0.67c0.17,0.55-0.18,0.73-0.6,0.86
				c-1.8,0.6-3.65,1.04-5.52,1.36c-0.44,0.08-0.87,0.02-1-0.45C167.8,125.87,167.44,125.86,167.02,125.56z M173.87,124.28
				c-1.74,0.27-3.5,0.62-5.2,1.18c-0.22,0.07-0.49,0.13-0.41,0.46c0.08,0.32,0.32,0.4,0.63,0.35c1.76-0.3,3.51-0.69,5.2-1.26
				c0.21-0.07,0.52-0.11,0.46-0.43C174.48,124.23,174.16,124.27,173.87,124.28z"/>
			<path d="M187.59,144.25c0.04,0.43-0.17,0.76-0.59,0.93c-1.19,0.48-2.38,0.97-3.65,1.22c-0.44,0.09-0.77-0.02-1.09-0.35
				c-1.37-1.4-1.29-1.97,0.51-2.81c0.89-0.41,1.81-0.75,2.75-1.04C186.42,141.92,187.6,143.11,187.59,144.25z M185.96,142.72
				c-1.16,0.11-2.12,0.53-3.09,0.93c-0.61,0.25-0.84,0.64-0.58,1.27c0.26,0.62,0.55,1.22,1.39,0.96c0.9-0.28,1.79-0.6,2.69-0.9
				c0.54-0.18,0.91-0.47,0.73-1.11C186.93,143.24,186.55,142.81,185.96,142.72z"/>
			<path d="M193.59,140.1c0.8,0.01,2.14,1.14,2.26,1.9c0.08,0.49-0.18,0.8-0.59,0.95c-1.27,0.48-2.54,0.94-3.82,1.37
				c-0.77,0.26-1.24-0.05-1.58-0.81c-0.92-2.09-0.82-2.37,1.34-2.97C191.98,140.32,192.76,140.09,193.59,140.1z M193.6,140.57
				c-0.53,0.32-1.24,0.13-1.89,0.29c-0.36,0.09-0.71,0.21-1.07,0.32c-0.57,0.18-1.09,0.34-0.8,1.18c0.51,1.48,0.73,1.77,1.67,1.49
				c1.13-0.34,2.23-0.78,3.34-1.19c0.28-0.1,0.58-0.23,0.51-0.64C195.3,141.53,194.17,140.55,193.6,140.57z"/>
			<path d="M184.15,139.98c-0.88,0.31-1.75,0.64-2.64,0.94c-1.47,0.49-2.44-0.1-2.77-1.64c-0.09-0.42,0.06-0.69,0.43-0.78
				c1.45-0.33,2.82-0.98,4.31-1.12c1.03-0.1,1.94,0.68,1.98,1.71C185.5,139.96,184.9,140.13,184.15,139.98z M184,139.55
				c1.12,0.09,1.14-0.31,0.84-0.94c-0.3-0.62-0.76-0.96-1.46-0.79c-1.05,0.25-2.09,0.55-3.13,0.83c-1.19,0.32-1.28,0.62-0.55,1.61
				c0.36,0.48,0.75,0.6,1.31,0.38C182.08,140.22,183.16,139.85,184,139.55z"/>
			<path d="M174.23,134.02c-0.07-0.55,0.17-0.98,0.81-1.13c1.38-0.32,2.76-0.67,4.16-0.94c0.93-0.17,1.69,0.37,1.84,1.32
				c0.14,0.86-0.39,1.29-1.2,1.56c-1.23,0.41-2.45,0.76-3.74,0.88C175.01,135.82,174.25,135.17,174.23,134.02z M175.66,135.29
				c1.44-0.1,2.69-0.37,3.9-0.84c0.59-0.23,1.24-0.39,0.98-1.22c-0.24-0.77-0.8-1.02-1.59-0.82c-1.15,0.29-2.3,0.56-3.45,0.8
				c-0.58,0.12-0.93,0.37-0.83,1.02C174.76,134.91,175.19,135.21,175.66,135.29z"/>
			<path d="M201.06,169.94c-1.18,0-2.21-0.85-2.36-1.67c-0.05-0.29-0.01-0.6,0.26-0.71c0.71-0.28,1.31-0.79,1.98-1.08
				c1.38-0.6,3.04,0.55,3.17,2.04c0.04,0.45-0.18,0.74-0.58,0.84C202.62,169.59,201.69,169.79,201.06,169.94z M200.83,169.53
				c0.69-0.15,1.39-0.28,2.07-0.44c0.34-0.08,0.84-0.11,0.71-0.64c-0.12-0.48-0.41-1.27-0.79-1.18c-1.11,0.27-2.29-0.03-3.35,0.52
				c-0.24,0.13-0.41,0.29-0.25,0.55C199.59,168.93,199.93,169.61,200.83,169.53z"/>
			<path d="M176.31,123.65c0.28,0.73,0.77,0.53,1.28,0.48c1.77-0.19,3.45-0.69,5.13-1.23c0.23-0.07,0.64-0.07,0.52-0.46
				c-0.1-0.35-0.45-0.2-0.7-0.15c-1.86,0.37-3.71,0.75-5.62,1.13c-0.16-0.31,0.04-0.4,0.28-0.45c1.89-0.4,3.78-0.8,5.67-1.19
				c0.49-0.1,0.77,0.14,0.88,0.61c0.12,0.48-0.14,0.68-0.54,0.82c-2.03,0.69-4.09,1.22-6.22,1.47
				C176.32,124.75,176.1,124.39,176.31,123.65z"/>
			<path d="M213.69,166.16c-0.44,0.01-1.92-1.58-1.88-2.01c0.03-0.33,0.29-0.44,0.54-0.54c1.08-0.4,2.19-0.73,3.33-0.87
				c1.03-0.13,1.96,0.81,1.92,1.85c-0.02,0.45-0.32,0.66-0.67,0.8C215.88,165.81,214.83,166.18,213.69,166.16z M213.67,165.53
				c0.88-0.12,1.62-0.18,2.34-0.33c0.49-0.1,1.23-0.08,1.05-0.9c-0.15-0.68-0.49-1.32-1.39-1.12c-0.92,0.2-1.83,0.45-2.75,0.7
				c-0.18,0.05-0.51,0.15-0.4,0.35C212.85,164.75,213.14,165.34,213.67,165.53z"/>
			<path d="M208.96,164.56c0.96,0.01,1.23,0.66,1.41,1.37c0.17,0.67-0.13,1.15-0.76,1.34c-0.94,0.28-1.9,0.47-2.85,0.71
				c-0.37,0.1-0.54-0.08-0.74-0.36c-1.29-1.86-1.17-2.16,1.09-2.69C207.74,164.79,208.37,164.68,208.96,164.56z M208.67,165.05
				c-0.44,0.09-1.1,0.21-1.75,0.38c-1.28,0.33-1.33,0.53-0.57,1.56c0.22,0.3,0.45,0.36,0.77,0.28c0.72-0.17,1.44-0.33,2.16-0.52
				c0.4-0.11,0.81-0.24,0.64-0.82C209.77,165.41,209.56,164.98,208.67,165.05z"/>
			<path d="M184.97,121.22c0.93-0.23,1.86-0.46,2.79-0.69c0.63-0.15,1.25-0.32,1.88-0.44c0.57-0.11,0.91,0.2,1.06,0.72
				c0.17,0.59-0.31,0.68-0.69,0.78c-1.62,0.39-3.24,0.75-4.86,1.12c-0.3,0.07-0.61,0.12-0.84-0.18c-0.1-0.14-0.19-0.3-0.05-0.46
				c0.12-0.13,0.24-0.05,0.34,0.05c0.27,0.29,0.57,0.13,0.86,0.07c1.36-0.3,2.72-0.6,4.07-0.93c0.26-0.06,0.73-0.03,0.63-0.47
				c-0.09-0.39-0.48-0.28-0.78-0.22c-1.32,0.3-2.64,0.62-3.97,0.93c-0.12,0.03-0.25,0-0.38,0
				C185.01,121.41,184.99,121.32,184.97,121.22z"/>
			<path d="M175.28,127.41c0.63-0.08,1.22,0.1,1.36,0.9c0.12,0.73-0.22,1.19-0.93,1.47c-1.02,0.4-2.04,0.75-3.13,0.85
				c-0.53,0.05-1.15,0.24-1.32-0.54c-0.16-0.74-0.09-1.48,0.7-1.82C172.99,127.82,174.04,127.42,175.28,127.41z M175,127.86
				c-0.92,0.03-1.87,0.39-2.81,0.78c-0.47,0.19-0.6,0.61-0.56,1.1c0.03,0.32,0.17,0.53,0.51,0.5c1.22-0.11,2.43-0.3,3.48-1
				c0.31-0.2,0.76-0.42,0.54-0.96C175.96,127.77,175.53,127.86,175,127.86z"/>
			<path d="M183.64,128.3c0.04-0.32,0.26-0.37,0.44-0.45c0.41-0.18,0.88-0.37,0.73-0.93c-0.15-0.57-0.57-0.95-1.18-0.94
				c-0.92,0.02-1.83,0.11-2.68,0.52c-0.39,0.19-0.73,0.44-0.6,0.93c0.12,0.47,0.54,0.62,0.96,0.58c0.63-0.06,1.25-0.21,1.97-0.33
				c-0.7,0.77-2.17,1.01-2.88,0.54c-0.74-0.49-0.76-1.45,0.03-1.93c1.08-0.66,2.31-0.85,3.53-0.69c0.77,0.1,1.38,0.69,1.29,1.57
				C185.16,128.08,184.46,128.29,183.64,128.3z"/>
			<path d="M192.78,125.05c0.16-0.78,0.01-1.31-0.72-1.5c-0.55-0.15-2.42,0.36-2.65,0.78c-0.48,0.89,0.53,1.24,0.84,2.01
				c-0.93-0.29-1.34-0.83-1.41-1.62c-0.06-0.72,0.47-0.99,1.05-1.18c0.86-0.29,1.69-0.77,2.63-0.29
				C193.34,123.67,193.5,124.36,192.78,125.05z"/>
			<path d="M202.52,149.96c2.33-0.01,3.52,1.06,3.5,3.3c-0.01,1.48-1.22,2.76-2.85,2.91c-1.21,0.11-2.38-0.17-3.4-0.83
				c-1.75-1.14-1.8-3.17-0.16-4.48C200.41,150.23,201.33,149.94,202.52,149.96z M202.44,150.57c-1.24-0.07-2.21,0.42-3.04,1.23
				c-0.67,0.66-0.72,1.5-0.35,2.25c0.98,1.97,4.87,2.24,6.18,0.48c0.61-0.82,0.5-2.86-0.31-3.26
				C204.15,150.89,203.34,150.41,202.44,150.57z"/>
			<path d="M193.81,153.13c-0.18,0.99-0.65,1.52-1.04,2.08c-0.25,0.36-0.28,0.6,0.25,0.68c0.57,0.09,1.11,0.32,1.69,0.29
				c0.23-0.01,0.55,0,0.52,0.32c-0.02,0.28-0.32,0.34-0.56,0.31c-0.87-0.12-1.74-0.24-2.61-0.39c-0.44-0.08-0.52-0.38-0.36-0.77
				C192.12,154.7,192.89,154.04,193.81,153.13z"/>
			<path d="M202.49,158.98c0.7-0.19,1.3,0.04,1.78,0.42c0.69,0.54,0.99,0.27,1.23-0.41c0.15-0.41,0.35-0.8,0.56-1.19
				c0.07-0.14,0.2-0.3,0.4-0.23c0.21,0.08,0.19,0.26,0.12,0.42c-0.3,0.68-0.6,1.36-0.91,2.04c-0.13,0.29-0.36,0.44-0.66,0.29
				C204.17,159.89,203.33,159.43,202.49,158.98z"/>
			<path d="M198.34,147.29c-0.24-0.03-0.25,0.22-0.29,0.4c-0.11,0.44-0.36,0.8-0.62,1.16c-0.12,0.17-0.22,0.5-0.52,0.27
				c-0.23-0.18-0.14-0.45,0.01-0.64c0.38-0.46,0.56-0.99,0.67-1.57c0.05-0.27,0.24-0.61,0.54-0.46c0.72,0.37,1.39,0.82,2.06,1.26
				c0.04,0.03,0.05,0.21,0,0.27c-0.12,0.15-0.32,0.14-0.47,0.06C199.28,147.81,198.84,147.56,198.34,147.29z"/>
			<path d="M210.47,150.2c-0.41,0.71-0.79,1.39-1.19,2.05c-0.03,0.05-0.24,0.07-0.26,0.04c-0.07-0.1-0.15-0.28-0.11-0.35
				c0.89-1.27,0.53-2.06-0.89-2.51c-0.16-0.05-0.27-0.25-0.18-0.42c0.04-0.08,0.26-0.15,0.34-0.12c0.71,0.32,1.4,0.65,2.09,1
				C210.38,149.95,210.42,150.11,210.47,150.2z"/>
			<path d="M111.13,82.75c-0.55-0.74-1.12-1.19-1.9-1.31c-0.71-0.12-0.87-0.57-0.69-1.17c0.15-0.54,0.36-1.06,0.55-1.6
				c0.53,0.15-0.08,0.96,0.68,0.92c0.74-0.04,1.37-0.2,1.84-0.81c-0.3-0.39-0.69-0.05-0.97-0.23c0.88-0.46,1.37-0.3,1.74,0.57
				c0.59,1.38,0.55,1.59-0.52,2.52C111.53,81.92,111.42,82.32,111.13,82.75z M111.07,82.06c0.33-0.65,1.17-0.75,1.38-1.42
				c0.18-0.59-0.51-1.58-0.82-1.35c-0.64,0.48-1.35,0.53-2.09,0.63c-0.59,0.09-0.84,0.78-0.53,1
				C109.6,81.38,110.42,81.49,111.07,82.06z"/>
		</g>
	</g>
</g>
</svg>
