<?xml version="1.0" encoding="utf-8"?>
<!-- Generator: Adobe Illustrator 23.0.2, SVG Export Plug-In . SVG Version: 6.00 Build 0)  -->
<svg version="1.1" id="line" xmlns="http://www.w3.org/2000/svg" xmlns:xlink="http://www.w3.org/1999/xlink" x="0px" y="0px"
	 viewBox="0 0 288 226.77" style="enable-background:new 0 0 288 226.77;" xml:space="preserve">
<style type="text/css">
	.st0{fill:#FF3A5B;}
	.st1{fill:#50E3C2;}
	.st2{fill:#FF8438;}
	.st3{fill:#FFDD4C;}
	.st4{fill:#FFFFFF;}
	.st5{fill:#925F36;}
	.st6{fill:#422918;}
	.st7{fill:#007EFF;}
	.st8{fill:#9C9B9B;}
	.st9{fill:#C6C6C5;}
	.st10{fill:#D9D9D9;}
	.st11{fill:#6F6F6E;}
	.st12{fill:#ECECEC;}
	.st13{fill:#97E6FC;}
	.st14{fill:#B1B1B1;}
	.st15{fill:#1D1D1B;}
	.st16{fill:#FFFFFF;stroke:#1D1D1B;stroke-width:0.5;stroke-miterlimit:10;}
	.st17{fill:none;stroke:#FFFFFF;stroke-linecap:round;stroke-linejoin:round;stroke-miterlimit:10;}
	.st18{fill:#A0ECD2;}
	.st19{fill:#C4F5FB;}
	.st20{fill:none;stroke:#FFFFFF;stroke-width:0.876;stroke-linecap:round;stroke-linejoin:round;stroke-miterlimit:10;}
	.st21{fill:none;}
	.st22{fill:#575756;}
	.st23{fill:#FFFFFF;stroke:#1D1D1B;stroke-width:0.9148;stroke-miterlimit:10;}
	.st24{fill:#9B5416;}
	.st25{fill:#868686;}
</style>
<g>
	<g>
		<g>
			<path class="st7" d="M72.03,57.34v96.66h146.81V57.34H72.03z M140.33,92.06c0-1.6,0.53-3.21-1.07-4.27
				C140.86,88.85,140.33,90.46,140.33,92.06z"/>
			<rect x="72.03" y="53.24" class="st7" width="146.81" height="4.1"/>
			<path class="st4" d="M133.83,92.19l0.7-0.05C134.32,92,134.04,92.04,133.83,92.19z"/>
			<path class="st4" d="M138.6,88.11c-0.11,0.06-0.21,0.14-0.32,0.18c-0.14,0.05-0.29,0.05-0.44,0.06
				c-0.64,0.05-1.28,0.29-1.74,0.74c-0.46,0.45-0.72,1.12-0.61,1.75c0.05,0.32,0.19,0.62,0.38,0.89c0.06,0.09,0.13,0.18,0.12,0.29
				c-0.01,0.17-0.21,0.28-0.38,0.27c-0.17-0.01-0.33-0.11-0.48-0.18c-0.48-0.21-1.06-0.17-1.51,0.1l0.22-0.01
				c0.21-0.15,0.49-0.19,0.7-0.05l-0.7,0.05c-0.08,0.06-0.15,0.13-0.2,0.21c-0.18,0.3-0.15,0.69-0.02,1.02
				c0.27,0.74,1.07,1.32,1.85,1.17c0.25-0.05,0.49-0.16,0.72-0.28c0.9-0.44,1.79-0.89,2.69-1.33c0.19-0.09,0.4-0.22,0.42-0.43
				c0.01-0.18-0.13-0.33-0.18-0.51c-0.1-0.37,0.23-0.7,0.49-0.99c0.31-0.35,0.54-0.76,0.68-1.2c-0.09-0.72-0.32-1.41-0.83-1.99
				C139.14,87.85,138.85,87.96,138.6,88.11z"/>
			<path class="st24" d="M115.1,106.6c-0.4,0.31-0.81,0.62-1.21,0.93c0.05,0.04,0.09,0.08,0.14,0.12
				C114.39,107.3,114.75,106.95,115.1,106.6z"/>
			<path class="st2" d="M72.22,131.12c0,3.7,0,19.17,0,22.87c48.64,0,97.29,0,145.93,0.02c0.79,0,0.94-11.91,0.94-12.7
				c-0.01-3.4-0.01-6.8-0.02-10.2H72.22z"/>
			<path class="st1" d="M219.07,128.29h-1.11c0.22,0.06,0.41,0.19,0.51,0.52c-0.64,0.15-1.24,0.24-1.83-0.13
				c-0.06-0.04-0.15-0.1-0.21-0.08c-1.95,0.41-3.94-0.12-5.9,0.22c-0.11,0.02-0.24,0.14-0.32,0.11c-1.68-0.62-3.4-0.06-5.1-0.16
				c-1.78-0.1-3.57-0.12-5.34-0.07c-0.81,0.02-1.63-0.07-2.4,0c-1.62,0.15-3.21-0.15-4.79-0.04c-0.9,0.06-1.78-0.03-2.63,0.04
				c-1.58,0.12-3.14-0.15-4.68-0.04c-0.94,0.07-1.88-0.09-2.74,0.03c-1.57,0.21-3.08-0.22-4.57-0.04c-1,0.12-1.96-0.09-2.85,0.02
				c-1.53,0.2-3.01-0.21-4.45-0.03c-1.04,0.13-1.98,0.23-2.98-0.05c-0.27-0.08-0.6,0.04-0.89,0.1c-0.22,0.05-0.47,0.28-0.64,0.22
				c-1.69-0.6-3.4-0.05-5.1-0.15c-1.78-0.1-3.57-0.1-5.34-0.08c-0.76,0.01-1.53,0.01-2.29,0.03c-1.68,0.06-3.36-0.14-5.01-0.04
				c-0.82,0.05-1.63-0.04-2.4,0.03c-1.66,0.13-3.29-0.16-4.9-0.03c-0.87,0.07-1.71-0.06-2.51,0.02c-1.62,0.16-3.22-0.19-4.79-0.03
				c-0.87,0.09-1.7-0.01-2.52,0.05c-1.62,0.12-3.22-0.17-4.79-0.05c-0.9,0.07-1.79-0.04-2.63,0.03c-1.59,0.14-3.14-0.16-4.68-0.03
				c-0.95,0.08-1.89-0.1-2.74,0.03c-1.57,0.22-3.09-0.22-4.57-0.03c-1,0.13-1.91,0.26-2.87-0.06c-0.33-0.11-0.69-0.04-1.01,0.12
				c-0.66,0.33-1.32,0.36-1.97,0c-0.07-0.04-0.14-0.08-0.21-0.08c-1.81,0.06-3.63,0.12-5.44,0.19c-0.11,0-0.24,0.14-0.32,0.11
				c-1.68-0.63-3.4-0.06-5.1-0.16c-1.78-0.11-3.57-0.11-5.34-0.08c-0.76,0.01-1.53,0-2.29,0.03c-1.64,0.05-3.3-0.2-4.89-0.03
				c-0.91,0.1-1.79-0.12-2.58,0.01c-1.72,0.28-3.36-0.13-5.03-0.09c-0.4,0.01-0.74,0.41-1.24,0.19c0.17-0.22,0.37-0.38,0.57-0.5
				h-1.92c0,0.94,0,1.88,0,2.82h146.85C219.08,130.18,219.07,129.23,219.07,128.29z"/>
			<path class="st2" d="M217.99,112.95c-4.14,0-8.28,0.03-12.42-0.01c-0.99-0.01-1.24,0.33-1.21,1.25c0.06,1.82-0.01,3.65,0.05,5.48
				c0.02,0.52-0.2,0.67-0.58,0.72c-0.19,0.03-0.29-0.01-0.34-0.08v7.85c2.59,0.04,5.2-0.16,7.79-0.06c2.05,0.08,4.11-0.22,6.16,0.11
				c0.18,0.03,0.36,0.04,0.52,0.09h1.11c0-5.04,0-10.07,0-15.11C218.75,112.91,218.37,112.95,217.99,112.95z M209.67,114.78
				c0.07-0.07,0.14-0.14,0.21-0.21c0.27-0.39,0.55-0.77,1.17-1.13c-0.31,0.66-0.69,0.94-1.14,1.15c-0.07,0.07-0.15,0.14-0.22,0.22
				c-0.02,0.06-0.05,0.11-0.07,0.17c-0.04-0.03-0.08-0.06-0.12-0.09C209.57,114.86,209.62,114.82,209.67,114.78z M205.17,113.44
				c0.34-0.02,1.71,1.28,1.68,1.63c-0.16,0.19-0.2,0.51-0.51,0.53c-0.34,0.02-1.58-1.49-1.52-1.83
				C204.84,113.58,204.93,113.45,205.17,113.44z M206.03,118.49c-0.12,0.39-0.42,0.63-0.74,0.85c-0.02,0.19-0.1,0.33-0.32,0.32
				c-0.02,0-0.05-0.06-0.05-0.09c0-0.24,0.17-0.26,0.36-0.26c0.05-0.46,0.42-0.64,0.74-0.86c0.05-0.04,0.09-0.09,0.14-0.13
				C206.24,118.47,206.11,118.46,206.03,118.49z M204.94,127.02c0.03-0.47,0.27-0.6,0.62-0.79
				C205.49,126.64,205.31,126.83,204.94,127.02z M206.03,125.8c-0.04,0.03-0.08,0.07-0.11,0.1c0.03-0.04,0.05-0.08,0.08-0.12
				c0.09-0.06,0.18-0.12,0.27-0.18C206.32,125.81,206.12,125.74,206.03,125.8z M206.35,122.85c-0.66-0.35-1.26-0.82-1.51-1.58
				c-0.07-0.22-0.03-0.44,0.28-0.5c0.33-0.06,1.77,1.22,1.74,1.58C206.74,122.57,206.54,122.95,206.35,122.85z M209.91,121.91
				c-0.07,0.07-0.15,0.14-0.22,0.22c-0.02,0.06-0.03,0.13-0.05,0.19c-0.05-0.03-0.09-0.06-0.14-0.09c0.05-0.04,0.11-0.08,0.16-0.13
				c0.07-0.07,0.14-0.14,0.21-0.21c0.26-0.4,0.56-0.76,1.18-1.15C210.75,121.42,210.37,121.7,209.91,121.91z M212.53,113.45
				c0.39,0.01,1.72,1.33,1.64,1.6c-0.07,0.23-0.19,0.52-0.49,0.56c-0.33,0.04-1.58-1.47-1.54-1.81
				C212.19,113.52,212.31,113.37,212.53,113.45z M213.37,118.49c-0.12,0.39-0.42,0.63-0.74,0.85c-0.02,0.19-0.1,0.33-0.32,0.32
				c-0.02,0-0.05-0.06-0.05-0.09c0-0.24,0.17-0.26,0.36-0.26c0.05-0.46,0.42-0.64,0.74-0.86c0.05-0.04,0.09-0.09,0.14-0.13
				C213.58,118.47,213.45,118.46,213.37,118.49z M213.32,125.97c-0.3,0.35-0.59,0.7-0.89,1.05c0.08-0.56,0.37-0.92,0.86-1.06
				c0.08-0.11,0.16-0.22,0.24-0.33c0,0,0.07,0.04,0.11,0.07C213.53,125.78,213.42,125.88,213.32,125.97z M213.67,122.92
				c-0.3,0.04-1.49-1.38-1.51-1.71c-0.02-0.35,0.14-0.5,0.47-0.43c0.83,0.18,1.01,1.04,1.6,1.46
				C214.09,122.56,214.01,122.87,213.67,122.92z M217.02,114.78c0.07-0.07,0.14-0.14,0.21-0.21c0.27-0.39,0.55-0.77,1.17-1.13
				c-0.31,0.66-0.69,0.94-1.14,1.15c-0.07,0.07-0.15,0.14-0.22,0.22c-0.02,0.06-0.05,0.11-0.07,0.17c-0.04-0.03-0.08-0.06-0.12-0.09
				C216.91,114.86,216.96,114.82,217.02,114.78z M217.26,121.91c-0.07,0.07-0.15,0.14-0.22,0.22c-0.02,0.06-0.05,0.11-0.07,0.17
				c-0.04-0.03-0.08-0.06-0.12-0.09c0.05-0.04,0.11-0.07,0.16-0.11c0.07-0.07,0.14-0.14,0.21-0.21c0.26-0.4,0.56-0.76,1.18-1.15
				C218.09,121.42,217.71,121.7,217.26,121.91z"/>
			<path class="st1" d="M204.38,110.59c0.05-1.41,0.01-2.81,0.02-4.22c0-0.42-0.03-0.74-0.59-0.73c-3.17,0.02-6.34,0.01-9.51,0.03
				c-0.12,0-0.24,0.14-0.33,0.44c2.22,0,4.45,0,6.67,0c0,0.11,0,0.23,0,0.34c-1.84,0.25-3.71,0-5.55,0.14
				c0.59,1.53,0.3,3.13,0.36,4.69c0.03,0.87-0.64,0.75-1.21,0.72c-0.49,0.01-0.98,0.01-1.48,0.02c-0.83,0.13-1.19-0.14-1.09-1.05
				c0.16-1.45-0.34-2.94,0.32-4.36c-0.27-0.07-0.59,0.01-0.89-0.41c0.72-0.06,1.3-0.1,1.91-0.15c-0.4-0.37-2.83-0.61-3.16-0.33
				c-0.21,0.17-0.16,0.41-0.16,0.64c0,1.75-0.01,3.5,0.01,5.26c0,0.54,0.02,1.1,0.79,1.13c0.41,0.01,0.35,0.33,0.35,0.58
				c0.01,2.36,0,4.72,0,7.18c-0.02-0.01-0.04-0.01-0.06-0.02v7.67c1.96-0.04,3.93-0.13,5.89-0.05c1.96,0.08,3.92-0.05,5.88,0.04
				c0.31,0.01,0.62,0.02,0.93,0.02v-7.85c-0.1-0.13-0.01-0.39-0.01-0.54c-0.02-2.13-0.01-4.26,0-6.39c0-0.22,0.03-0.6,0.13-0.63
				C204.81,112.34,204.35,111.36,204.38,110.59z M195.74,126.53c0,0.75-0.23,1.17-1.06,1.02c-0.96,0.23-1.26-0.15-1.25-1.12
				c0.04-4.1,0.04-8.21,0-12.31c-0.01-0.97,0.3-1.34,1.26-1.11c0.83-0.14,1.06,0.27,1.06,1.03
				C195.73,118.19,195.73,122.36,195.74,126.53z"/>
			<path class="st2" d="M188.51,120.92c-0.3,0.33-0.69,0.31-1.06,0.27c-1.5-0.13-3.12,0.45-4.45-0.8c-0.25-0.24-0.81-0.24-1.08,0.02
				c-1.07,1.05-2.38,0.78-3.65,0.77c-0.77-0.01-0.99,0.34-0.97,1.05c0.01,0.6,0.27,0.82,0.84,0.81c0.8-0.01,1.6,0,2.54,0
				c-0.46,0.61-0.51,1.17,0.05,1.83c-0.78,0-1.4,0.09-1.97-0.02c-1.08-0.22-1.1,0.65-1.16,1.2c-0.09,0.83,0.66,0.62,1.16,0.64
				c0.46,0.02,0.92,0.02,1.38,0.01c0.31-0.01,0.56,0.14,0.58,0.42c0.03,0.38-0.28,0.49-0.61,0.49c-1.61,0-3.22-0.01-4.83,0.01v0.6
				c2.28-0.01,4.57-0.19,6.84-0.09c1.93,0.08,3.84-0.05,5.77,0.03c0.97,0.04,1.94,0.04,2.92,0.02v-7.67
				C189.88,120.13,189.12,120.23,188.51,120.92z M187.42,127.59c-0.42,0-0.83,0-1.25,0c-0.45,0-0.91,0-1.36,0
				c-0.3,0-0.54-0.15-0.56-0.44c-0.03-0.31,0.23-0.47,0.52-0.47c0.91-0.01,1.82,0,2.73,0c0.31,0,0.55,0.15,0.56,0.44
				C188.05,127.48,187.76,127.59,187.42,127.59z M185.08,124.87c-0.58,0.02-0.92-0.07-0.9-0.78c0.03-0.66,0.12-1.11,0.94-1.08
				c0.91,0.04,1.83,0.01,2.85,0.01c-0.27,0.61-0.6,1.17,0.25,1.84C186.91,124.86,185.99,124.83,185.08,124.87z"/>
			<path class="st24" d="M161.11,126.67c0.27-0.29,0.04-0.57-0.14-0.62v0.75C161.01,126.76,161.06,126.72,161.11,126.67z"/>
			<path class="st1" d="M174.7,127.6c-0.79,0.01-0.59-0.52-0.59-0.93c-0.01-4.11,0-8.23,0-12.34c0-0.34,0-0.69,0-1.03
				c0-0.15-0.02-0.4,0.06-0.44c1.63-0.89,0.64-2.4,0.83-3.61c0.15-0.93,0.02-1.9,0.04-2.85c0.01-0.49-0.09-0.77-0.68-0.77
				c-3.06,0.02-6.12,0.01-9.17,0.01c-0.29,0-0.53,0.05-0.63,0.51c2.25,0,4.48,0,6.72,0c0,0.1,0,0.2,0.01,0.3
				c-1.84,0.25-3.71,0-5.55,0.13c0.59,1.53,0.3,3.13,0.36,4.69c0.03,0.87-0.64,0.75-1.21,0.72c-0.49,0.01-0.98,0.01-1.48,0.02
				c-0.83,0.13-1.19-0.14-1.09-1.05c0.16-1.45-0.34-2.94,0.32-4.36c-0.27-0.07-0.59,0.01-0.89-0.41c0.72-0.06,1.3-0.1,1.91-0.15
				c-0.39-0.36-2.82-0.61-3.15-0.34c-0.24,0.2-0.16,0.49-0.17,0.74c-0.01,1.71,0,3.42,0,5.13c0,0.3-0.06,0.74,0.28,0.79
				c1.08,0.18,0.86,0.96,0.86,1.65c0,4.03,0,8.06,0,12.1c0,1.03,0,1.35-0.5,1.44v0.62c2.15-0.03,4.3-0.18,6.44-0.09
				c2,0.09,3.99-0.05,6,0.06c0.62,0.03,1.24,0.04,1.85,0.04v-0.6C175.07,127.6,174.88,127.6,174.7,127.6z M166.37,126.53
				c0,0.75-0.23,1.17-1.06,1.02c-0.96,0.23-1.26-0.15-1.25-1.12c0.04-4.1,0.04-8.21,0-12.31c-0.01-0.97,0.3-1.34,1.26-1.11
				c0.83-0.14,1.06,0.27,1.06,1.03C166.36,118.19,166.36,122.36,166.37,126.53z"/>
			<path class="st1" d="M160.4,126.84c0.22,0.12,0.4,0.08,0.56-0.04v-0.75c-0.01,0-0.02-0.01-0.03-0.01
				c-0.75-0.13,0.13-1.02-0.7-1.26c-0.69-0.2-1.22-0.46-1.87,0.02c-0.14,0.11-0.44,0.02-0.73,0.02c0.14-0.26,0.26-0.47,0.36-0.66
				c-0.12-0.3-0.33-0.2-0.5-0.2c-1.29-0.01-1.75-0.51-1.47-1.75c0.06-0.28,0.18-0.5-0.1-0.68c-0.28-0.18-0.56-0.33-0.91-0.12
				c-0.35,0.21-0.77,0.34-1.09,0.59c-0.44,0.34-0.75,0.88-1.03-0.17c-0.11-0.43-0.57-0.14-0.78,0.16c-0.37,0.52-0.71,1.06-1.06,1.59
				c0.99,0.09,1.38,0.81,1.67,1.63c0.06,0.03,0.09,0.09,0.1,0.16c0.04,0.08,0.07,0.17,0.11,0.25c0.21,0.77,0.2,1.33-0.85,0.85
				c-0.05,0.02-0.09,0.05-0.14,0.07c0.03-0.04,0.06-0.08,0.09-0.12c0.39-0.83-0.52-1.27-0.6-1.97c-0.92,0.03-1.72-0.56-2.73-0.32
				c-1.44,0.34-2.14,0.95-2.12,2.51c0.01,0.72-0.16,0.98-0.94,0.98c-0.37,0-0.6-0.06-0.74-0.2v0.76c2.6,0.06,5.21-0.2,7.81-0.08
				c2,0.09,3.99-0.05,6,0.05c0.75,0.04,1.5,0.05,2.25,0.04v-0.62c-0.23,0.04-0.55,0.03-1.03,0.02c-0.22-0.01-0.45-0.03-0.78-0.06
				C159.46,126.95,159.65,126.43,160.4,126.84z M148.84,125.83c-0.52,0.38,0.56,0.63,0.26,1.18c-0.52-0.25-0.98-0.65-0.81-1.2
				c0.14-0.44,0.58-0.99,1.17-0.88c0.81,0.15,0.88,0.89,1.02,1.61C149.75,126.4,149.57,125.3,148.84,125.83z M155.36,121.76
				c0.09,0.01,0.22,0.1,0.24,0.17c0.02,0.08-0.05,0.25-0.12,0.28c-0.91,0.4-1.32,1.46-2.32,1.78
				C153.24,123.1,154.62,121.71,155.36,121.76z M155.35,125.38c-0.33,0.59-0.49,1.55-1.47,0.64c-0.04-0.04-0.09-0.07-0.13-0.11
				c0,0,0.04-0.05,0.06-0.07c0.04,0.04,0.08,0.09,0.12,0.13c0.17-0.11,0.35-0.21,0.52-0.32c0.56-0.68,1.14-1.31,2.19-1.48
				C156.4,124.96,155.78,125.06,155.35,125.38z M156.47,126.54c0.89-0.96,1.87-1.69,3.23-1.52
				C158.63,125.55,157.7,126.4,156.47,126.54z"/>
			<path class="st1" d="M145.65,111.75c0.02-1.79,0.01-3.58,0.02-5.37c0-0.4,0-0.75-0.57-0.75c-3.17,0.02-6.34,0.01-9.51,0.03
				c-0.12,0-0.24,0.14-0.34,0.44c2.22,0,4.44,0,6.67,0c0,0.12,0,0.24,0,0.35c-1.84,0.24-3.71,0-5.55,0.13
				c0.59,1.53,0.3,3.13,0.36,4.69c0.03,0.87-0.64,0.75-1.21,0.72c-0.49,0.01-0.98,0.01-1.48,0.02c-0.83,0.13-1.19-0.14-1.09-1.05
				c0.16-1.45-0.34-2.94,0.32-4.36c-0.25-0.1-0.62,0.08-0.8-0.41c0.63-0.05,1.22-0.09,1.83-0.14c-0.41-0.37-2.85-0.62-3.16-0.32
				c-0.11,0.11-0.16,0.34-0.16,0.51c-0.01,1.83,0,3.66-0.01,5.49c0,0.28,0.02,0.63,0.3,0.67c1.02,0.14,0.85,0.88,0.85,1.55
				c0,4.23,0.01,8.46,0,12.69c0,0.34,0.22,0.86-0.32,0.95c0,0.19,0,0.38,0,0.56c2.08-0.03,4.17-0.14,6.24-0.05
				c2,0.09,3.99-0.05,6,0.05c0.3,0.02,0.59,0.02,0.89,0.03v-0.76c-0.15-0.15-0.2-0.39-0.2-0.77c0.03-4.34,0.02-8.68,0.03-13.02
				c0-0.47-0.15-1.03,0.6-1.14C145.79,112.42,145.64,112.02,145.65,111.75z M137,126.53c0,0.75-0.23,1.17-1.06,1.02
				c-0.96,0.23-1.26-0.15-1.25-1.12c0.04-4.1,0.04-8.21,0-12.31c-0.01-0.97,0.3-1.34,1.26-1.11c0.83-0.14,1.06,0.27,1.06,1.03
				C136.99,118.19,136.99,122.36,137,126.53z"/>
			<path class="st2" d="M79.55,53.24h-1.47c-0.18,0.26-0.45,0.43-0.62,0.69c-0.07-0.07-0.14-0.14-0.21-0.21
				c0.19-0.16,0.38-0.32,0.57-0.49h-3.51c0.23,0.25,0.4,0.47,0.4,0.58c-0.14,0.22-0.31,0.71-0.54,0.54
				c-0.46-0.32-0.96-0.64-1.27-1.12h-0.69c0,1.39,0,2.75,0,4.1h7.33C79.55,55.98,79.55,54.61,79.55,53.24z M74.05,57.24
				c-0.02,0.02-0.04,0.04-0.06,0.05c0.02-0.02,0.03-0.05,0.05-0.07c0.04-0.05,0.08-0.09,0.11-0.14
				C74.26,57.24,74.06,57.18,74.05,57.24z"/>
			<path class="st2" d="M130.94,127.01c0.07-1.86,0-3.73,0.04-5.6c0.02-0.81-0.19-1.18-1.09-1.16c-2.09,0.05-4.19,0.02-6.27,0.02
				c0-2.32,0-4.73,0-7.15h-6.81c0,0.03,0,0.06,0,0.09c0-0.03,0-0.06,0-0.09h-0.32h0.32c0-1.33,0-2.85-0.13-4.32
				c-0.19-0.01-0.31-0.22-0.38-0.5c-0.05-0.22-0.01-0.45-0.01-0.68c-0.01-1.99-0.01-1.99-2.08-1.99c-0.65,0-1.3-0.04-1.95-0.05
				c-1.07-0.1-2.51,0.5-3.12-0.21c-0.52-0.6-0.13-2-0.14-3.04c-0.02-1.03-0.07-2.05-0.05-3.08c0.01-0.68-0.23-0.97-0.93-0.94
				c-0.91,0.03-1.83-0.01-2.75-0.02c-0.42-0.01-0.84-0.02-1.26-0.02c-7.82,0.01-15.63,0.01-23.45,0.05c-0.78,0-0.99-0.16-1-0.98
				c-0.06-4.54-0.06,2.9-0.06-1.63c0-3.11,0-6.24,0.03-9.36c0.07-6.66-0.02-13.31-0.02-19.97c0-3.01,0.01-6.02,0.02-9.03h-7.33
				c0.01,25.06,0.01,43.51,0.01,70.95h1.92c0.63-0.35,1.37-0.25,2.06-0.22c1.95,0.09,3.91,0,5.86,0.03
				c1.96,0.03,3.93,0.05,5.89,0.09c1.58,0.03,3.17,0.01,4.76,0c2.3-0.01,4.59-0.08,6.89-0.05c3.01,0.05,6.04-0.19,9.04-0.04
				c1.89,0.1,3.77-0.07,5.65,0.01c3.01,0.14,6.03-0.17,9.04-0.01c1.89,0.1,3.77-0.07,5.65,0.01c0.93,0.04,1.86,0.04,2.8,0.03
				c0-0.18,0-0.37,0-0.56c-0.06,0.01-0.13,0.02-0.22,0.02C131.14,127.59,130.92,127.6,130.94,127.01z M73.46,57.74l0.03,0.07
				l-0.07,0L73.46,57.74z M73.01,58.07c0.03,0.05,0.07,0.11,0.15,0.24c-0.07,0.04-0.15,0.12-0.25,0.15
				c-0.14,0.03-0.19-0.09-0.14-0.19C72.81,58.18,72.93,58.13,73.01,58.07z M73.07,59.58c0.3-0.01,1.66,1.28,1.64,1.59
				c-0.13,0.2-0.22,0.5-0.5,0.55c-0.33,0.05-1.62-1.5-1.54-1.82C72.72,59.7,72.83,59.58,73.07,59.58z M72.65,96.57
				c0.01-0.27,0.12-0.41,0.41-0.41c0.35,0,1.64,1.25,1.62,1.6c-0.13,0.21-0.21,0.51-0.51,0.55c-0.16,0.02-0.62-0.42-0.99-0.87
				c-0.08,0.13-0.19,0.24-0.4,0.27c0.01-0.24,0.1-0.39,0.24-0.47C72.81,96.95,72.65,96.68,72.65,96.57z M72.78,95.23
				c0.02-0.56,0.21-0.72,0.55-0.74c0.04-0.04,0.08-0.08,0.12-0.12c-0.03,0.05-0.06,0.09-0.09,0.14
				C73.2,94.7,73.05,94.89,72.78,95.23z M73.98,96.37c0.05-0.03,0.13-0.01,0.2-0.01c-0.08,0.08-0.14,0.17-0.22,0.24
				c-0.08,0.07-0.15,0.03-0.13-0.07C73.85,96.46,73.91,96.4,73.98,96.37z M73.85,93.83c0.04-0.06,0.1-0.11,0.17-0.14
				c0.04-0.02,0.1,0.03,0.15,0.04c-0.1,0.09-0.18,0.16-0.26,0.24C73.89,93.92,73.83,93.85,73.85,93.83z M72.69,89.32
				c-0.08-0.31,0.11-0.5,0.42-0.47c0.35,0,1.68,1.36,1.56,1.62c-0.09,0.21-0.27,0.65-0.51,0.49c-0.37-0.24-0.74-0.51-1.03-0.84
				c-0.1,0.12-0.21,0.26-0.35,0.45c0.01-0.33,0.09-0.51,0.22-0.62C72.86,89.77,72.75,89.56,72.69,89.32z M72.76,87.57
				c0-0.05,0.1-0.08,0.15-0.13c0.05,0.05,0.13,0.1,0.13,0.13c-0.01,0.06-0.06,0.14-0.12,0.17C72.73,87.83,72.75,87.66,72.76,87.57z
				 M73.9,86.66c-0.01,0.01-0.08-0.06-0.12-0.09c0.04-0.05,0.09-0.11,0.14-0.15c0.01-0.01,0.11,0.07,0.1,0.08
				C73.99,86.56,73.95,86.62,73.9,86.66z M74.16,89.05c-0.07,0.08-0.14,0.16-0.21,0.24c-0.1,0.05-0.16,0.03-0.13-0.07
				c0.02-0.06,0.09-0.13,0.15-0.16C74.02,89.03,74.1,89.05,74.16,89.05z M74.19,83.65c-0.6-0.43-1.3-0.83-1.52-1.61
				c-0.08-0.29,0.07-0.51,0.42-0.5c0.32-0.01,1.69,1.33,1.59,1.6C74.61,83.36,74.37,83.77,74.19,83.65z M73.3,79.72
				c-0.09,0.43-0.18,0.65-0.49,0.71C72.64,80.05,72.95,79.98,73.3,79.72z M73.82,79.24c0.07-0.07,0.13-0.15,0.2-0.22
				c0.06,0.03,0.11,0.05,0.16,0.07c-0.07,0.07-0.14,0.15-0.22,0.21C73.94,79.32,73.87,79.27,73.82,79.24z M74.31,76.35
				c-0.29,0.02-1.62-1.26-1.59-1.48c0.03-0.32,0.17-0.58,0.54-0.62c0.19-0.02,1.51,1.34,1.44,1.51
				C74.6,75.99,74.42,76.19,74.31,76.35z M72.77,72.88c0.04-0.09,0.13-0.18,0.23-0.22c0.14-0.06,0.2,0.01,0.14,0.24
				c-0.05,0.04-0.16,0.12-0.26,0.21C72.83,73.03,72.74,72.93,72.77,72.88z M73.7,71.82c0.04-0.09,0.15-0.18,0.25-0.21
				c0.08-0.02,0.18,0.05,0.33,0.09c-0.17,0.14-0.27,0.26-0.4,0.31C73.75,72.07,73.66,71.95,73.7,71.82z M74.04,64.56
				c-0.02,0.02-0.04,0.04-0.06,0.06c0.02-0.03,0.03-0.05,0.05-0.08c0.04-0.05,0.08-0.09,0.12-0.14
				C74.26,64.56,74.06,64.5,74.04,64.56z M73.53,65.03c-0.06,0.07-0.13,0.14-0.19,0.21c-0.14,0.2-0.28,0.4-0.47,0.68
				c-0.16-0.54,0.13-0.62,0.44-0.69c0.04-0.08,0.09-0.17,0.13-0.25C73.47,64.99,73.5,65.01,73.53,65.03z M73.3,66.93
				c0.56,0.27,1.02,0.87,1.37,1.5c0.12,0.21-0.45,0.74-0.62,0.6c-0.56-0.46-1.18-0.93-1.38-1.69C72.58,67.02,72.79,66.86,73.3,66.93
				z M73.15,91.51c0.31,0.02,1.58,1.26,1.53,1.54c-0.05,0.25-0.18,0.53-0.47,0.58c-0.33,0.07-1.63-1.47-1.56-1.81
				C72.7,91.54,72.89,91.47,73.15,91.51z M73.12,98.84c0.83,0.16,1.06,0.99,1.64,1.49c-0.27,0.23-0.24,0.85-0.72,0.54
				c-0.53-0.34-1.05-0.77-1.33-1.37C72.57,99.17,72.58,98.73,73.12,98.84z M74.17,103.71c-0.1,0.09-0.18,0.16-0.26,0.23
				c-0.02-0.05-0.08-0.12-0.07-0.14c0.04-0.06,0.1-0.11,0.17-0.14C74.05,103.65,74.11,103.69,74.17,103.71z M73.45,104.35
				c-0.03,0.04-0.06,0.09-0.09,0.14c-0.15,0.2-0.2,0.49-0.57,0.54c0.01-0.38,0.2-0.54,0.55-0.56
				C73.37,104.43,73.41,104.39,73.45,104.35z M73.14,113.46c0.79,0.23,1.12,0.95,1.52,1.56c0.09,0.13-0.18,0.47-0.42,0.58
				c-0.37,0.03-1.65-1.47-1.59-1.82C72.7,113.49,72.89,113.39,73.14,113.46z M72.76,112.18c0.04-0.19,0.19-0.19,0.34-0.17
				c0-0.16,0.03-0.3,0.21-0.35c0.03-0.01,0.07,0.03,0.1,0.04c-0.1,0.11-0.19,0.22-0.29,0.32c-0.01,0.17-0.09,0.29-0.27,0.3
				C72.83,112.33,72.75,112.23,72.76,112.18z M73.79,111.18c0.07-0.12,0.15-0.24,0.22-0.35c0.1,0.05,0.15,0.09,0.21,0.12
				c-0.09,0.1-0.18,0.21-0.28,0.3C73.93,111.26,73.84,111.21,73.79,111.18z M73.87,118.49c-0.12,0.39-0.42,0.63-0.74,0.85
				c-0.02,0.19-0.1,0.33-0.32,0.32c-0.02,0-0.05-0.06-0.05-0.09c0-0.24,0.17-0.26,0.36-0.26c0.05-0.46,0.42-0.64,0.74-0.86
				c0.05-0.04,0.09-0.09,0.14-0.13C74.08,118.47,73.95,118.46,73.87,118.49z M73.81,125.97c-0.3,0.35-0.59,0.7-0.89,1.04
				c0.08-0.56,0.37-0.91,0.86-1.06c0.08-0.11,0.16-0.22,0.24-0.33c0,0,0.07,0.04,0.11,0.07C74.03,125.78,73.92,125.88,73.81,125.97z
				 M74.18,122.93c-0.34,0.04-1.58-1.47-1.53-1.82c0.04-0.28,0.17-0.41,0.38-0.34c0.41,0.01,1.73,1.32,1.64,1.6
				C74.6,122.6,74.48,122.89,74.18,122.93z M74.34,108.21c-0.2,0.18-0.33-0.03-0.47-0.15c-0.12-0.09-0.25-0.18-0.35-0.3
				c-0.36-0.41-0.96-0.7-0.86-1.38c0.04-0.31,0.33-0.3,0.54-0.24c0.74,0.24,0.98,0.99,1.55,1.48
				C74.61,107.86,74.5,108.07,74.34,108.21z M77.51,60.92c0.14-0.09,0.28-0.19,0.42-0.28c0.11-0.45,0.43-0.71,0.97-1.13
				c-0.22,0.7-0.66,0.86-0.95,1.15c-0.13,0.09-0.27,0.19-0.4,0.28c-0.03,0.06-0.06,0.11-0.08,0.17c-0.04-0.03-0.07-0.06-0.11-0.09
				C77.4,60.99,77.45,60.95,77.51,60.92z M77.55,68.26c-0.02,0.06-0.05,0.12-0.07,0.19c-0.04-0.03-0.09-0.06-0.13-0.09
				c0.06-0.04,0.11-0.08,0.17-0.11c0.07-0.04,0.14-0.08,0.22-0.13C77.67,68.16,77.61,68.21,77.55,68.26z M77.54,75.58
				c-0.02,0.06-0.05,0.12-0.07,0.18c-0.04-0.03-0.08-0.07-0.12-0.1c0.06-0.04,0.11-0.07,0.17-0.11c0.05-0.05,0.11-0.09,0.16-0.14
				C77.78,75.59,77.6,75.54,77.54,75.58z M77.51,82.87c0.37-0.43,0.75-0.85,1.12-1.28c-0.14,0.66-0.58,1.01-1.08,1.31
				c-0.03,0.06-0.05,0.11-0.08,0.17c-0.04-0.03-0.08-0.06-0.11-0.09C77.4,82.94,77.45,82.9,77.51,82.87z M78.22,67.57
				c-0.03,0.05-0.06,0.09-0.09,0.14c-0.16-0.12,0-0.12,0.06-0.16c0.14-0.2,0.27-0.39,0.46-0.66C78.85,67.47,78.5,67.5,78.22,67.57z
				 M78.12,74.93c0.18-0.22,0.35-0.43,0.53-0.65C78.74,74.76,78.44,74.84,78.12,74.93z M78.22,106.87c0.12-0.25,0.14-0.61,0.55-0.59
				C78.81,106.69,78.44,106.72,78.22,106.87z M78.63,113.5c-0.04,0.6-0.42,0.88-0.88,1.09c-0.07,0.07-0.15,0.14-0.22,0.22
				c-0.02,0.06-0.05,0.11-0.07,0.17c-0.04-0.03-0.08-0.06-0.12-0.09c0.05-0.04,0.11-0.07,0.16-0.11c0.07-0.07,0.14-0.14,0.21-0.21
				C78.03,114.21,78.33,113.86,78.63,113.5z M78.02,99.8c0.28-0.52,0.36-0.81,0.73-0.86C78.84,99.36,78.48,99.41,78.02,99.8z
				 M78.08,97.04c0.21-0.42,0.3-0.69,0.69-0.79C78.79,96.71,78.48,96.78,78.08,97.04z M78.07,92.39c0.21-0.43,0.31-0.7,0.69-0.8
				C78.8,92.05,78.48,92.12,78.07,92.39z M77.9,89.7c0.24-0.26,0.49-0.53,0.89-0.96C78.75,89.48,78.25,89.55,77.9,89.7z M77.36,90.3
				c0.02-0.02,0.06-0.01,0.08-0.01c0.01,0.03,0.02,0.05,0.03,0.08c-0.05,0.01-0.09,0.01-0.14,0.02
				C77.34,90.35,77.34,90.31,77.36,90.3z M77.5,92.78c0.07-0.06,0.21-0.1,0.18,0.07c-0.01,0.09-0.11,0.17-0.16,0.25
				c-0.08-0.04-0.13-0.06-0.19-0.09C77.39,92.93,77.43,92.84,77.5,92.78z M77.5,97.44c0.07-0.06,0.21-0.1,0.18,0.07
				c-0.01,0.09-0.11,0.17-0.16,0.25c-0.08-0.04-0.13-0.06-0.19-0.09C77.39,97.59,77.43,97.5,77.5,97.44z M77.5,100.09
				c0.07-0.06,0.21-0.1,0.18,0.07c-0.01,0.09-0.11,0.17-0.16,0.25c-0.08-0.04-0.13-0.06-0.19-0.09
				C77.39,100.25,77.43,100.15,77.5,100.09z M77.58,107.37c0.02-0.01,0.08,0.06,0.13,0.11c-0.07,0.08-0.12,0.18-0.2,0.23
				c-0.13,0.07-0.22-0.03-0.17-0.15C77.37,107.48,77.49,107.42,77.58,107.37z M77.75,121.91c-0.07,0.07-0.15,0.14-0.22,0.22
				c-0.02,0.06-0.05,0.11-0.07,0.17c-0.04-0.03-0.08-0.06-0.12-0.09c0.05-0.04,0.11-0.07,0.16-0.11c0.07-0.07,0.14-0.14,0.21-0.21
				c0.26-0.4,0.56-0.76,1.18-1.15C78.58,121.42,78.2,121.7,77.75,121.91z M103.56,108.28c-0.36,0.05-1.62-1.49-1.53-1.84
				c0.05-0.21,0.18-0.3,0.41-0.3c0.35,0,1.66,1.24,1.64,1.59C103.94,107.93,103.85,108.23,103.56,108.28z M103.6,111
				c-0.11,0.09-0.22,0.18-0.33,0.27c-0.03-0.05-0.09-0.12-0.08-0.13c0.09-0.1,0.19-0.19,0.29-0.29
				C103.51,110.9,103.55,110.95,103.6,111z M102.78,111.71c-0.1,0.11-0.19,0.22-0.29,0.32c-0.01,0.17-0.09,0.29-0.27,0.3
				c-0.03,0-0.11-0.1-0.1-0.14c0.04-0.19,0.19-0.19,0.34-0.17c0-0.16,0.03-0.3,0.21-0.35C102.71,111.65,102.75,111.69,102.78,111.71
				z M102.14,104.9c0.04-0.09,0.1-0.2,0.18-0.24c0.14-0.07,0.2,0.05,0.16,0.16c-0.03,0.09-0.13,0.16-0.21,0.24
				C102.21,104.99,102.13,104.92,102.14,104.9z M102.81,104.33l0.06,0.01l-0.04,0.05L102.81,104.33z M103.24,103.78
				c0.04-0.06,0.11-0.1,0.18-0.13c0.02-0.01,0.06,0.06,0.1,0.09c-0.09,0.07-0.17,0.14-0.27,0.21
				C103.24,103.89,103.22,103.81,103.24,103.78z M102.43,98.82c0.42,0.03,1.69,1.29,1.63,1.56c-0.06,0.25-0.21,0.52-0.48,0.58
				c-0.34,0.07-1.63-1.48-1.56-1.82C102.08,98.86,102.26,98.77,102.43,98.82z M99.95,99.89c0.08-0.47,0.44-0.72,0.91-1.15
				c-0.13,0.7-0.63,0.84-0.9,1.17c-0.02,0.02-0.04,0.05-0.07,0.07C99.92,99.95,99.94,99.92,99.95,99.89z M99.95,107.21
				c0.04-0.5,0.51-0.66,0.78-0.98c0,0.53-0.5,0.67-0.77,1c-0.02,0.02-0.04,0.05-0.07,0.07C99.92,107.27,99.94,107.24,99.95,107.21z
				 M99.46,100.24c0.02,0.02,0.04,0.05,0.06,0.07c-0.02,0.03-0.03,0.07-0.05,0.08c-0.02,0.01-0.06-0.01-0.08-0.02
				C99.4,100.33,99.43,100.29,99.46,100.24z M93.51,98.86c-0.09,0.48-0.32,0.62-0.64,0.71C92.94,99.25,93.09,99.03,93.51,98.86z
				 M93.44,106.22c0.06,0.47-0.31,0.51-0.53,0.66C92.96,106.58,93.08,106.34,93.44,106.22z M87.36,113.94
				c-0.1-0.55,0.31-0.59,0.64-0.43c0.59,0.29,0.94,0.87,1.31,1.38c0.22,0.31-0.21,0.54-0.45,0.81
				C88.31,115.08,87.52,114.77,87.36,113.94z M88.55,118.49c-0.12,0.39-0.42,0.63-0.74,0.85c-0.02,0.19-0.1,0.33-0.32,0.32
				c-0.02,0-0.05-0.06-0.05-0.09c0-0.24,0.17-0.26,0.36-0.26c0.05-0.46,0.42-0.64,0.74-0.86c0.05-0.04,0.09-0.09,0.14-0.13
				C88.76,118.47,88.63,118.46,88.55,118.49z M87.44,112.18c0.04-0.19,0.19-0.19,0.34-0.17c0-0.16,0.03-0.3,0.21-0.35
				c0.03-0.01,0.07,0.03,0.1,0.04c-0.1,0.11-0.19,0.22-0.29,0.32c-0.01,0.17-0.09,0.29-0.27,0.3
				C87.51,112.33,87.43,112.23,87.44,112.18z M88.48,111.19c0.07-0.12,0.14-0.24,0.21-0.35c0.1,0.05,0.16,0.07,0.22,0.1
				c-0.09,0.1-0.17,0.21-0.27,0.3C88.62,111.26,88.53,111.21,88.48,111.19z M85.27,99.89c0.08-0.47,0.44-0.72,0.91-1.15
				c-0.13,0.7-0.63,0.84-0.9,1.17c-0.02,0.02-0.04,0.05-0.07,0.07C85.24,99.95,85.25,99.92,85.27,99.89z M86.1,106.27
				c0.06,0.41-0.28,0.47-0.54,0.59C85.66,106.61,85.71,106.28,86.1,106.27z M85.97,113.5c-0.04,0.6-0.42,0.88-0.88,1.09
				c-0.07,0.07-0.15,0.14-0.22,0.22c-0.02,0.06-0.05,0.11-0.07,0.17c-0.04-0.03-0.08-0.06-0.12-0.09c0.05-0.04,0.11-0.07,0.16-0.11
				c0.07-0.07,0.14-0.14,0.21-0.21C85.37,114.21,85.67,113.86,85.97,113.5z M84.7,100.27c0.02-0.02,0.06-0.01,0.09-0.01
				c0.01,0.03,0.02,0.06,0.03,0.08c-0.05,0.01-0.1,0.01-0.15,0.02C84.68,100.33,84.68,100.29,84.7,100.27z M80.03,99.02
				c0.06-0.17,0.2-0.21,0.35-0.19c0.36-0.03,1.73,1.25,1.65,1.57c-0.05,0.2-0.27,0.53-0.38,0.52c-0.61-0.06-0.9-0.61-1.31-0.98
				C80.09,99.69,79.9,99.4,80.03,99.02z M81.48,108.23c-0.62-0.4-1.29-0.84-1.48-1.64c-0.08-0.34,0.13-0.47,0.46-0.45
				c0.3,0.02,1.55,1.24,1.56,1.56C81.89,107.91,81.77,108.42,81.48,108.23z M81.55,110.92c-0.08,0.11-0.15,0.21-0.22,0.31
				c-0.07-0.01-0.13-0.02-0.19-0.02c0.07-0.12,0.14-0.24,0.22-0.34C81.38,110.85,81.49,110.9,81.55,110.92z M80.76,111.71
				c-0.1,0.11-0.19,0.22-0.29,0.32c-0.01,0.17-0.09,0.29-0.27,0.3c-0.03,0-0.11-0.1-0.1-0.14c0.04-0.19,0.19-0.19,0.34-0.17
				c0-0.16,0.03-0.3,0.21-0.35C80.68,111.65,80.72,111.69,80.76,111.71z M80.13,105.02c0.01-0.38,0.2-0.54,0.55-0.56
				c0.04-0.04,0.08-0.08,0.12-0.12c-0.03,0.04-0.06,0.09-0.09,0.14C80.55,104.68,80.49,104.97,80.13,105.02z M81.18,103.82
				c0.04-0.06,0.1-0.12,0.16-0.15c0.05-0.02,0.12,0.01,0.15,0.02c-0.07,0.08-0.14,0.16-0.22,0.25
				C81.25,103.9,81.18,103.83,81.18,103.82z M81.15,125.97c-0.3,0.35-0.6,0.7-0.89,1.05c0.09-0.56,0.37-0.92,0.86-1.07
				c0.08-0.11,0.16-0.22,0.24-0.33c0,0,0.07,0.04,0.11,0.07C81.37,125.78,81.26,125.88,81.15,125.97z M81.52,122.93
				c-0.35,0.04-1.58-1.46-1.53-1.82c0.04-0.29,0.19-0.38,0.46-0.34c0.33,0.01,1.65,1.32,1.56,1.6
				C81.94,122.6,81.82,122.89,81.52,122.93z M80.1,119.57c0-0.24,0.17-0.26,0.36-0.26c0.05-0.46,0.42-0.64,0.74-0.86
				c0.05-0.04,0.09-0.09,0.14-0.13c0.09,0.15-0.04,0.14-0.12,0.16c-0.12,0.39-0.42,0.63-0.74,0.85c-0.02,0.19-0.1,0.33-0.32,0.32
				C80.13,119.66,80.1,119.6,80.1,119.57z M81.48,115.56c-0.61-0.41-1.31-0.82-1.47-1.65c-0.07-0.35,0.12-0.52,0.46-0.44
				c0.83,0.19,1.02,1.04,1.61,1.49C81.88,115.23,81.77,115.75,81.48,115.56z M84.86,107.4c0.1-0.07,0.21-0.05,0.16,0.11
				c-0.03,0.09-0.12,0.16-0.19,0.23c-0.07-0.05-0.12-0.08-0.17-0.12C84.74,107.55,84.78,107.45,84.86,107.4z M85.09,121.91
				c-0.07,0.07-0.15,0.14-0.22,0.22c-0.02,0.06-0.05,0.11-0.07,0.17c-0.04-0.03-0.08-0.06-0.12-0.09c0.05-0.04,0.11-0.07,0.16-0.11
				c0.07-0.07,0.14-0.14,0.21-0.21c0.26-0.4,0.56-0.76,1.18-1.15C85.93,121.42,85.55,121.7,85.09,121.91z M87.83,98.82
				c0.31,0.03,1.6,1.27,1.53,1.54c-0.06,0.23-0.26,0.43-0.36,0.59c-0.43,0.03-1.72-1.47-1.66-1.81
				C87.38,98.86,87.57,98.8,87.83,98.82z M88.79,103.78c-0.06,0.04-0.1,0.11-0.16,0.15c-0.01,0.01-0.08-0.07-0.13-0.12
				c0.11-0.06,0.2-0.15,0.3-0.16C88.9,103.64,88.9,103.71,88.79,103.78z M88.13,104.35c-0.03,0.04-0.06,0.09-0.09,0.14
				c-0.15,0.2-0.2,0.49-0.57,0.54c0.01-0.38,0.2-0.54,0.55-0.56C88.05,104.43,88.09,104.39,88.13,104.35z M87.79,106.14
				c0.36,0,1.67,1.3,1.56,1.61c-0.08,0.22-0.18,0.53-0.52,0.52c-0.34-0.01-1.53-1.44-1.5-1.77
				C87.36,106.22,87.51,106.11,87.79,106.14z M88.5,125.97c-0.3,0.35-0.59,0.7-0.89,1.04c0.08-0.56,0.37-0.91,0.86-1.06
				c0.08-0.11,0.16-0.22,0.24-0.33c0,0,0.07,0.04,0.11,0.07C88.71,125.78,88.6,125.88,88.5,125.97z M88.94,122.89
				c-0.61-0.12-0.92-0.71-1.36-1.1c-0.25-0.22-0.28-0.53-0.21-0.83c0.06-0.23,0.28-0.23,0.46-0.18c0.82,0.2,1,1.04,1.57,1.46
				C89.29,122.55,89.14,122.93,88.94,122.89z M92.25,100.06c0.02-0.01,0.09,0.05,0.15,0.09c-0.07,0.08-0.11,0.19-0.2,0.24
				c-0.12,0.07-0.22-0.01-0.18-0.13C92.05,100.18,92.17,100.11,92.25,100.06z M92.28,107.38c0.17-0.01,0.11,0.13,0.06,0.2
				c-0.06,0.08-0.15,0.12-0.24,0.19c-0.03-0.09-0.09-0.18-0.07-0.2C92.1,107.48,92.19,107.38,92.28,107.38z M92.44,121.91
				c-0.07,0.07-0.15,0.14-0.22,0.22c-0.02,0.06-0.05,0.11-0.07,0.17c-0.04-0.03-0.08-0.06-0.12-0.09c0.05-0.04,0.11-0.07,0.16-0.11
				c0.07-0.07,0.14-0.14,0.21-0.21c0.3-0.36,0.6-0.71,0.9-1.07C93.27,121.42,92.89,121.7,92.44,121.91z M92.44,114.59
				c-0.07,0.07-0.15,0.14-0.22,0.22c-0.02,0.06-0.05,0.11-0.07,0.17c-0.04-0.03-0.08-0.06-0.12-0.09c0.05-0.04,0.11-0.07,0.16-0.11
				c0.07-0.07,0.14-0.14,0.21-0.21c0.27-0.39,0.55-0.77,1.17-1.13C93.27,114.11,92.89,114.38,92.44,114.59z M95.84,125.97
				c-0.3,0.35-0.59,0.7-0.89,1.04c0.08-0.56,0.37-0.91,0.86-1.06c0.08-0.11,0.16-0.22,0.24-0.33c0,0,0.07,0.04,0.11,0.07
				C96.05,125.78,95.95,125.88,95.84,125.97z M96.15,122.87c-0.61-0.39-1.27-0.82-1.46-1.62c-0.07-0.3,0.04-0.51,0.41-0.49
				c0.31,0.01,1.62,1.27,1.61,1.6C96.54,122.55,96.47,123.07,96.15,122.87z M95.2,113.46c0.28,0.03,1.57,1.34,1.5,1.58
				c-0.07,0.24-0.2,0.49-0.47,0.58c-0.38,0-1.62-1.52-1.54-1.87C94.75,113.45,94.95,113.43,95.2,113.46z M94.78,112.18
				c0.04-0.19,0.19-0.19,0.34-0.17c0-0.16,0.03-0.3,0.21-0.35c0.03-0.01,0.07,0.03,0.1,0.04c-0.1,0.11-0.19,0.22-0.29,0.32
				c-0.01,0.17-0.09,0.29-0.27,0.3C94.86,112.33,94.78,112.23,94.78,112.18z M95.67,111.08c0.16-0.09,0.29-0.17,0.42-0.22
				c0.03-0.01,0.1,0.07,0.16,0.1c-0.09,0.1-0.18,0.21-0.29,0.3C95.95,111.27,95.87,111.2,95.67,111.08z M95.9,118.49
				c-0.12,0.39-0.42,0.63-0.74,0.85c-0.02,0.19-0.1,0.33-0.32,0.32c-0.02,0-0.05-0.06-0.05-0.09c0-0.24,0.17-0.26,0.36-0.26
				c0.05-0.46,0.42-0.64,0.74-0.86c0.05-0.04,0.09-0.09,0.14-0.13C96.1,118.47,95.97,118.46,95.9,118.49z M96.34,108.27
				c-0.45,0.05-1.74-1.43-1.67-1.8c0.05-0.29,0.24-0.35,0.5-0.32c0.3,0.03,1.62,1.28,1.55,1.54
				C96.65,107.91,96.45,108.11,96.34,108.27z M94.81,105.02c0.01-0.38,0.2-0.54,0.55-0.56c0.04-0.04,0.08-0.08,0.12-0.12
				c-0.03,0.04-0.06,0.09-0.09,0.14C95.23,104.68,95.18,104.97,94.81,105.02z M95.83,103.81c0.11-0.06,0.2-0.15,0.3-0.16
				c0.11-0.01,0.11,0.06,0,0.13c-0.06,0.04-0.1,0.11-0.16,0.15C95.96,103.94,95.89,103.87,95.83,103.81z M96.24,100.95
				c-0.34,0.07-1.64-1.47-1.57-1.82c0.06-0.28,0.24-0.38,0.42-0.32c0.39,0.03,1.69,1.29,1.63,1.55
				C96.66,100.63,96.52,100.89,96.24,100.95z M99.4,107.58c0.03,0,0.07,0,0.09,0.01c0.02,0.02,0.03,0.07,0.02,0.09
				c-0.05,0.09-0.11,0.09-0.14-0.01C99.36,107.64,99.39,107.6,99.4,107.58z M99.78,121.91c-0.07,0.07-0.15,0.14-0.22,0.22
				c-0.02,0.06-0.05,0.11-0.07,0.17c-0.04-0.03-0.08-0.06-0.12-0.09c0.05-0.04,0.11-0.07,0.16-0.11c0.07-0.07,0.14-0.14,0.21-0.21
				c0.3-0.36,0.6-0.71,0.9-1.07C100.61,121.42,100.23,121.7,99.78,121.91z M99.78,114.59c-0.07,0.07-0.15,0.15-0.22,0.22
				c-0.02,0.06-0.05,0.11-0.07,0.17c-0.04-0.03-0.08-0.06-0.12-0.09c0.05-0.04,0.11-0.07,0.16-0.11c0.07-0.07,0.14-0.14,0.21-0.21
				c0.27-0.39,0.55-0.77,1.17-1.13C100.62,114.11,100.23,114.38,99.78,114.59z M102.7,113.49c0.53,0.3,0.98,0.89,1.33,1.54
				c0.07,0.14-0.16,0.51-0.45,0.57c-0.34,0.06-1.62-1.48-1.55-1.83C102.07,113.48,102.25,113.41,102.7,113.49z M103.24,118.49
				c-0.12,0.39-0.42,0.63-0.74,0.85c-0.02,0.19-0.1,0.33-0.32,0.32c-0.02,0-0.05-0.06-0.05-0.09c0-0.24,0.17-0.26,0.36-0.26
				c0.05-0.46,0.42-0.64,0.74-0.86c0.05-0.04,0.09-0.09,0.14-0.13C103.44,118.47,103.32,118.46,103.24,118.49z M103.18,125.97
				c-0.3,0.35-0.59,0.7-0.89,1.05c0.09-0.56,0.37-0.92,0.86-1.06c0.08-0.11,0.16-0.22,0.24-0.33c0,0,0.07,0.04,0.11,0.07
				C103.4,125.78,103.29,125.88,103.18,125.97z M103.53,122.92c-0.3,0.04-1.49-1.38-1.51-1.71c-0.02-0.35,0.14-0.5,0.47-0.43
				c0.84,0.17,1,1.04,1.6,1.46C103.96,122.56,103.88,122.87,103.53,122.92z M106.88,114.78c0.07-0.07,0.14-0.14,0.21-0.21
				c0.27-0.39,0.55-0.77,1.17-1.13c-0.31,0.66-0.69,0.94-1.14,1.15c-0.07,0.07-0.15,0.14-0.22,0.22c-0.02,0.06-0.05,0.11-0.07,0.17
				c-0.04-0.03-0.08-0.06-0.12-0.09C106.77,114.86,106.83,114.82,106.88,114.78z M106.75,107.72c0.01-0.05,0.01-0.1,0.02-0.16
				c0.03,0.01,0.08,0.02,0.09,0.04c0.01,0.02-0.01,0.06-0.02,0.1C106.81,107.7,106.78,107.71,106.75,107.72z M108.21,106.06
				c-0.13,0.7-0.63,0.84-0.9,1.17c-0.02,0.02-0.04,0.05-0.07,0.07c0.02-0.03,0.03-0.06,0.05-0.09
				C107.38,106.74,107.74,106.49,108.21,106.06z M106.88,100.15c0.07-0.07,0.14-0.14,0.22-0.21c0.3-0.36,0.6-0.71,0.9-1.07
				c-0.03,0.61-0.42,0.88-0.87,1.09c-0.07,0.07-0.15,0.14-0.22,0.22c-0.02,0.06-0.03,0.13-0.05,0.19c-0.04-0.03-0.09-0.06-0.13-0.09
				C106.77,100.23,106.83,100.19,106.88,100.15z M107.12,121.91c-0.07,0.07-0.15,0.14-0.22,0.22c-0.02,0.06-0.05,0.11-0.07,0.17
				c-0.04-0.03-0.08-0.06-0.12-0.09c0.05-0.04,0.11-0.07,0.16-0.11c0.07-0.07,0.14-0.14,0.21-0.21c0.26-0.4,0.56-0.76,1.18-1.15
				C107.95,121.42,107.57,121.7,107.12,121.91z M109.96,106.15c0.63,0.23,1.02,0.9,1.43,1.51c0.11,0.17-0.3,0.71-0.5,0.59
				c-0.63-0.39-1.28-0.84-1.5-1.62C109.3,106.31,109.46,106.12,109.96,106.15z M110.94,111c-0.11,0.09-0.22,0.18-0.33,0.27
				c-0.03-0.05-0.09-0.12-0.08-0.13c0.09-0.1,0.19-0.19,0.29-0.29C110.86,110.9,110.9,110.95,110.94,111z M110.13,111.71
				c-0.1,0.11-0.19,0.22-0.29,0.32c-0.01,0.17-0.09,0.29-0.27,0.3c-0.03,0-0.11-0.1-0.1-0.14c0.04-0.19,0.19-0.19,0.34-0.17
				c0-0.16,0.03-0.3,0.21-0.35C110.05,111.65,110.09,111.69,110.13,111.71z M109.78,113.44c0.32,0,1.63,1.3,1.61,1.62
				c-0.15,0.2-0.2,0.52-0.51,0.54c-0.31,0.03-1.52-1.42-1.51-1.76C109.38,113.57,109.49,113.44,109.78,113.44z M110.58,118.49
				c-0.12,0.39-0.42,0.63-0.74,0.85c-0.02,0.19-0.1,0.33-0.32,0.32c-0.02,0-0.05-0.06-0.05-0.09c0-0.24,0.17-0.26,0.36-0.26
				c0.05-0.46,0.42-0.64,0.74-0.86c0.05-0.04,0.09-0.09,0.14-0.13C110.79,118.47,110.66,118.46,110.58,118.49z M110.52,125.97
				c-0.3,0.35-0.59,0.7-0.89,1.05c0.09-0.56,0.37-0.92,0.86-1.06c0.08-0.11,0.16-0.22,0.24-0.33c0,0,0.07,0.04,0.11,0.07
				C110.74,125.78,110.63,125.88,110.52,125.97z M110.87,122.91c-0.31,0.02-1.49-1.39-1.5-1.72c-0.01-0.36,0.16-0.46,0.49-0.42
				c0.27,0.03,1.53,1.25,1.55,1.55C111.29,122.56,111.22,122.89,110.87,122.91z M113.89,107.53c0.4-0.31,0.81-0.62,1.21-0.93
				c0.11-0.11,0.22-0.22,0.33-0.33c0.02,0.01,0.03,0.02,0.05,0.04c-0.13,0.1-0.25,0.19-0.38,0.29c-0.36,0.35-0.71,0.7-1.07,1.05
				C113.99,107.61,113.94,107.57,113.89,107.53z M115.61,113.44c-0.31,0.66-0.69,0.94-1.14,1.15c-0.07,0.07-0.15,0.14-0.22,0.22
				c-0.02,0.06-0.05,0.11-0.07,0.17c-0.04-0.03-0.08-0.06-0.12-0.09c0.05-0.04,0.11-0.07,0.16-0.11c0.07-0.07,0.14-0.14,0.21-0.21
				C114.7,114.18,114.99,113.8,115.61,113.44z M114.46,121.91c-0.07,0.07-0.15,0.14-0.22,0.22c-0.02,0.06-0.05,0.11-0.07,0.17
				c-0.04-0.03-0.08-0.06-0.12-0.09c0.05-0.04,0.11-0.07,0.16-0.11c0.07-0.07,0.14-0.14,0.21-0.21c0.26-0.4,0.56-0.76,1.18-1.15
				C115.3,121.42,114.92,121.7,114.46,121.91z M117.14,113.45c0.33-0.01,1.68,1.33,1.58,1.61c-0.08,0.22-0.18,0.53-0.51,0.54
				c-0.33,0-1.52-1.44-1.5-1.77C116.72,113.54,116.86,113.42,117.14,113.45z M117.92,118.49c-0.12,0.39-0.42,0.63-0.74,0.85
				c-0.02,0.19-0.1,0.33-0.32,0.32c-0.02,0-0.05-0.06-0.05-0.09c0-0.24,0.17-0.26,0.36-0.26c0.05-0.46,0.42-0.64,0.74-0.86
				c0.05-0.04,0.09-0.09,0.14-0.13C118.13,118.47,118,118.46,117.92,118.49z M117.87,125.97c-0.3,0.35-0.6,0.7-0.89,1.05
				c0.09-0.56,0.37-0.92,0.86-1.07c0.08-0.11,0.16-0.22,0.24-0.33c0,0,0.07,0.04,0.11,0.07
				C118.08,125.78,117.97,125.88,117.87,125.97z M118.27,122.93c-0.37,0.01-1.6-1.46-1.57-1.82c0.04-0.39,0.3-0.42,0.56-0.32
				c0.71,0.25,1.04,0.93,1.45,1.48C118.85,122.45,118.53,122.79,118.27,122.93z M122,114.54c0.11-0.44,0.4-0.73,0.91-0.83
				c-0.3,0.28-0.6,0.56-0.9,0.84c-0.15,0.19-0.27,0.43-0.6,0.4C121.52,114.67,121.73,114.56,122,114.54z M121.81,121.91
				c-0.07,0.07-0.15,0.14-0.22,0.22c-0.02,0.06-0.05,0.11-0.07,0.17c-0.04-0.03-0.08-0.06-0.12-0.09c0.05-0.04,0.11-0.07,0.16-0.11
				c0.07-0.07,0.14-0.14,0.21-0.21c0.26-0.4,0.56-0.76,1.18-1.15C122.64,121.42,122.26,121.7,121.81,121.91z M125.21,125.97
				c-0.3,0.35-0.6,0.7-0.89,1.05c0.09-0.56,0.37-0.92,0.86-1.07c0.08-0.11,0.16-0.22,0.24-0.33c0,0,0.07,0.04,0.11,0.07
				C125.42,125.78,125.32,125.88,125.21,125.97z M125.53,122.91c-0.34-0.03-1.49-1.41-1.48-1.74c0.01-0.27,0.1-0.43,0.4-0.4
				c0.39-0.03,1.73,1.32,1.6,1.65C125.97,122.62,125.88,122.94,125.53,122.91z M129.15,121.91c-0.07,0.07-0.15,0.14-0.22,0.22
				c-0.02,0.06-0.05,0.11-0.07,0.17c-0.04-0.03-0.08-0.06-0.12-0.09c0.05-0.04,0.11-0.07,0.16-0.11c0.07-0.07,0.14-0.14,0.21-0.21
				c0.3-0.36,0.6-0.71,0.9-1.07C129.98,121.42,129.6,121.7,129.15,121.91z"/>
			<path class="st2" d="M73.35,89.85c0.03-0.05,0.06-0.09,0.09-0.14c-0.04,0.04-0.08,0.08-0.12,0.12c-0.14,0.01-0.25,0.05-0.34,0.12
				c0.04,0.06,0.09,0.12,0.14,0.17C73.21,90.02,73.28,89.93,73.35,89.85z"/>
			<path class="st2" d="M72.88,51.4c-0.08-0.29-0.14-0.4-0.11-0.46c0.04-0.08,0.15-0.13,0.24-0.19c0.03,0.08,0.1,0.17,0.09,0.24
				C73.07,51.09,73,51.18,72.88,51.4z M73.43,50.49l0.03-0.07l0.03,0.07L73.43,50.49z M74.04,49.92c-0.04,0.05-0.08,0.1-0.12,0.15
				c-0.02-0.03-0.05-0.07-0.07-0.11c0.06-0.02,0.12-0.04,0.17-0.06c0.04-0.04,0.08-0.08,0.12-0.13
				C74.26,49.93,74.06,49.86,74.04,49.92z"/>
			<path class="st2" d="M73.35,97.16c0.03-0.05,0.06-0.09,0.09-0.14c-0.04,0.04-0.08,0.08-0.12,0.12c-0.12,0.01-0.22,0.04-0.3,0.09
				c0.05,0.07,0.1,0.13,0.16,0.2C73.25,97.35,73.29,97.25,73.35,97.16z"/>
			<path class="st1" d="M100.67,53.24h-7.73c0,1.37,0,2.73,0,4.1h7.73C100.67,55.98,100.67,54.61,100.67,53.24z"/>
			<path class="st1" d="M90.65,53.24h-2.59c0,1.37,0,2.73,0,4.1h2.59C90.65,55.98,90.65,54.61,90.65,53.24z"/>
			<path class="st1" d="M101.31,74.26c-0.78-0.23-0.66-0.83-0.66-1.39c0-5.17,0.01-10.35,0.01-15.52h-7.73c0,4.98,0,9.97,0,14.95
				c0,0.71,0.15,1.56-1.05,1.38c-0.96,0.23-1.26-0.14-1.25-1.11c0.02-5.07,0.01-10.14,0.01-15.22h-2.59c0,5.09,0.01,10.19,0,15.28
				c0,0.68,0.24,1.49-0.83,1.7c-0.34,0.07-0.31,0.49-0.31,0.79c0,1.67,0,3.35,0.01,5.02c0,0.38,0.02,0.85,0.54,0.85
				c0.93,0,1.88,0.23,2.79-0.17c-0.33-0.36-0.81-0.11-1.18-0.27c-0.54-0.22-0.01-0.32,0.1-0.47c-0.63-1.61-0.2-3.29-0.25-4.93
				c-0.02-0.59,0.56-0.47,0.97-0.45c0.51,0,1.02,0,1.54,0c0.81-0.15,1.2,0.11,1.14,1c-0.07,0.9-0.07,1.81-0.05,2.71
				c0.02,0.68-0.14,1.26-0.68,1.7c2.04,0,4.09,0,6.13,0c0,0.13-0.01,0.27-0.01,0.4c-2.31,0.23-4.64-0.16-6.94,0.22
				c0.22,0.15,0.43,0.29,0.72,0.29c3.02,0,6.03-0.01,9.05,0.01c0.62,0,0.78-0.27,0.77-0.83c-0.02-1.71,0-3.42-0.02-5.14
				C101.56,74.78,101.69,74.37,101.31,74.26z"/>
			<path class="st0" d="M139.67,87.74c0.06,0.05,0.09,0.14,0.11,0.26C139.77,87.85,139.74,87.77,139.67,87.74z"/>
			<path class="st0" d="M139.77,91.77c-0.85-0.43,0.01-0.8,0.15-0.92c0.58-0.5,0.53-1.06,0.44-1.63c-0.09-0.08-0.2-0.16-0.32-0.23
				c-0.06,0.03-0.13,0.06-0.24,0.06c-0.07,0.32-0.07,0.66-0.21,0.94c-0.26,0.49-0.39,0.22-0.47-0.13c-0.66,0.23-1.3,0.1-2.16-0.11
				c0.88-0.4,1.59-0.11,2.27-0.18c0.01-0.25,0.02-0.51,0.03-0.76c-0.56-0.78,0.05-0.67,0.51-0.67c0-0.03,0-0.05,0-0.08
				c-0.13-0.1-0.25-0.2-0.38-0.28c-0.07,0.03-0.15,0.06-0.23,0.08c-0.38,0.13-0.71,0.31-1.18,0.13c-1.79-0.66-2.44-0.38-3.37,1.34
				c-0.53,0.65-0.1,1.12,0.3,1.59c0.19,0.32,0.62,0.52,0.57,1.17c-0.53-0.38-1-0.65-1.52-0.29c-0.83,0.82-0.48,1.83-0.38,2.76
				c0.06,0.54,0.64,0.68,1.05,0.53c0.92-0.33,1.96-0.19,2.82-0.76c0.39-0.26,0.82-0.32,1.3-0.1c1.16,0.55,1.43-0.44,1.78-1.13
				C140.91,92.36,140.4,92,139.77,91.77z M134.46,93.15c-0.36,0.01-0.62-0.09-0.6-0.49c0.02-0.42,0.33-0.45,0.59-0.42
				c0.39-0.02,0.72,0.01,0.73,0.42C135.2,93.16,134.82,93.14,134.46,93.15z M136.97,90.93c0.72,0.04,1.3,0.07,1.88,0.1
				C138.23,91.34,137.59,91.86,136.97,90.93z"/>
		</g>
		<path class="st4" d="M203.37,124.45c-8.49,0.74-9.48,1.49-17.68,0.51c1.15-0.58,1.32-2.29,0.62-3.37
			c-0.71-1.08-1.99-1.63-3.24-1.95c-2.35-0.6-4.78,0.07-7.21,0.05c-7.42-0.06-10.36,7.85-13.63,13.42
			c-3.88,6.59-4.66,12.89-6.4,18.23c-2.74,8.4-9.02,14.78-14.71,21.54c-0.68,0.81-1.4,1.86-0.99,2.84c0.21,0.51,0.69,0.85,1.15,1.16
			c3.72,2.49,7.77,4.48,12.01,5.93c1.84-5.13,4.72-9.82,7.57-14.46c1.29-2.1,2.6-4.23,4.43-5.88c1.8-1.63,4.02-2.73,5.96-4.19
			c2.42-1.83,4.02-3.42,5.93-5.77c0.59,0.88,1.21,1.65,2.12,2.2c0.91,0.55,2.9,0.73,3.73,0.07c0.84-0.66,1.67-3.01,0.73-3.52
			c1.1,0.28,1.22-0.36,1.52-1.45c0.31-1.09-3.06-2.14-3.14-3.24c1.98,1.42,6.81,0.58,7.84-0.22c1.1-0.87,1.59-3.23,2.99-3.32
			c1.2-0.08,3.16-0.05,4.77,0.24c0.96,0.17,1.56,1.7,2.34,2.56c1.84,2.01,5.14,2.61,7.57,1.37c0.46,1.01,1.28,1.85,2.27,2.33
			c-0.34,1.72,0.74,3.6,2.4,4.18c-0.39,1.81,1.28,3.76,3.13,3.66c0.71-0.04,1.39-0.33,2.09-0.32c2.21,0.01,3.43,2.64,5.45,3.52
			c1.04,0.45,2.25,0.41,3.28,0.9c0.93,0.44,1.61,1.27,2.26,2.07c3.38,4.15,6.76,8.31,10.14,12.46c0.02-4.51,3.06-8.86,7.29-10.43
			c-5.99-9.56-12.18-19.75-12.37-31.04c-0.02-0.88,0-1.78-0.27-2.61c-0.22-0.67-0.61-1.26-1.02-1.84c-2.35-3.36-5.19-6.48-8.77-8.49
			c-3.58-2.01-7.8-2.12-11.85-1.5c-3.06,0.47-3.38,2.3-2.7,3.84C204.34,123.85,203.37,124.45,203.37,124.45z"/>
		<g>
			<path class="st4" d="M72.02,123.18c8.49,0.73,9.48,1.49,17.68,0.5c-1.15-0.58-1.33-2.29-0.62-3.37c0.71-1.08,1.99-1.63,3.24-1.95
				c2.35-0.6,4.78,0.07,7.21,0.05c7.42-0.06,10.36,7.84,13.64,13.41c3.88,6.59,4.67,12.89,6.41,18.23
				c2.75,8.4,9.03,14.78,14.72,21.54c0.68,0.81,1.4,1.86,0.99,2.84c-0.21,0.51-0.69,0.85-1.15,1.16c-3.72,2.49-7.77,4.49-12.01,5.93
				c-1.85-5.13-4.72-9.81-7.58-14.46c-1.29-2.1-2.61-4.23-4.43-5.88c-1.8-1.63-4.02-2.73-5.96-4.19c-2.42-1.83-4.02-3.41-5.94-5.76
				c-0.59,0.89-1.21,1.65-2.12,2.2s-2.9,0.73-3.73,0.07c-0.84-0.66-1.67-3-0.73-3.52c-1.1,0.28-1.22-0.36-1.52-1.45
				c-0.31-1.09,3.06-2.14,3.13-3.24c-1.98,1.42-6.81,0.59-7.84-0.22c-1.11-0.87-1.59-3.23-3-3.32c-1.2-0.08-3.16-0.05-4.77,0.24
				c-0.96,0.18-1.56,1.71-2.34,2.56c-1.84,2.01-5.14,2.61-7.57,1.38c-0.46,1.01-1.28,1.85-2.27,2.33c0.34,1.72-0.74,3.6-2.39,4.18
				c0.39,1.81-1.28,3.76-3.13,3.66c-0.71-0.04-1.39-0.33-2.09-0.32c-2.21,0.01-3.43,2.64-5.45,3.52c-1.04,0.45-2.25,0.41-3.28,0.9
				c-0.93,0.44-1.61,1.27-2.26,2.07c-3.38,4.16-6.75,8.31-10.13,12.47c-0.02-4.51-3.06-8.86-7.29-10.43
				c5.99-9.57,12.17-19.76,12.36-31.04c0.02-0.88,0-1.78,0.27-2.61c0.22-0.67,0.61-1.26,1.01-1.84c2.35-3.37,5.19-6.48,8.76-8.49
				s7.8-2.13,11.85-1.5c3.06,0.47,3.38,2.29,2.7,3.84C71.05,122.58,72.02,123.18,72.02,123.18z"/>
			<path class="st25" d="M57.25,141.67c-2.9-2.8-5.04-6.63-4.97-10.67c0.08-4.04,2.79-8.12,6.74-8.97c1.92-0.41,3.92-0.07,5.86,0.23
				c7.31,1.13,14.73,1.59,22.13,1.38c1.33-0.04,2.68-0.1,3.95-0.53c0.9-0.3,1.74-0.79,2.65-1.08c2.43-0.79,5.27-0.08,7.04,1.76
				c0.6,0.63,1.08,1.36,1.55,2.09c0.32,0.5,0.65,0.99,0.97,1.49c1.24,1.91,2.53,3.99,2.38,6.26c-0.11,1.75-1.11,3.37-2.42,4.54
				c-0.49,0.44-1.04,0.84-1.67,1.05c-1.98,0.67-4.09-0.64-5.49-2.2c-1.4-1.55-2.49-3.45-4.27-4.55s-4.62-0.9-5.41,1.03
				c-0.79,1.93,0.9,3.89,2.34,5.39c1.85,1.94,3.5,4.06,4.93,6.33c-1.69,0.81-3.63,1.21-5.47,0.85c-1.84-0.37-3.56-1.58-4.26-3.32
				c-0.11-0.28-0.21-0.58-0.45-0.76c-0.21-0.16-0.5-0.2-0.77-0.22c-1.2-0.11-2.42,0.11-3.62,0c-0.38-0.04-0.77-0.41-1.12-0.25
				c-0.34,0.14-0.62,0.78-0.86,1.06c-1.47,1.7-2.98,3.12-5.13,3.81c-2.14,0.69-4.93,0.18-6.59-1.34c1.87-1.65,3.75-3.31,5.62-4.96
				c0.81-0.72,1.66-1.49,1.97-2.53c0.44-1.52-0.44-3.13-1.57-4.24c-0.35-0.34-0.74-0.66-1.21-0.79c-1-0.26-1.98,0.42-2.79,1.07
				c-3.21,2.56-6.41,5.12-9.62,7.68"/>
			<g>
				<path class="st22" d="M76.29,139.73c0.03-1.55-0.47-2.77-1.95-3.42c-0.29-0.13-0.7-0.48-0.92,0c-0.16,0.35-0.19,0.72,0.25,1.12
					c1.71,1.54,1.07,4.36-1.08,5.17c-1.19,0.45-2.35,0.56-3.56,0.11c-0.71-0.26-1.06,0.29-1.38,0.75c-0.22,0.31,0.08,0.5,0.33,0.66
					c1.63,1.04,3.4,1.04,5.04,0.27C74.9,143.5,76.15,141.95,76.29,139.73z"/>
				<path class="st22" d="M90.39,144.26c0.45,0,1.32,0.05,1.36-0.49c0.06-0.63-0.55-1.19-1.37-1.19c-0.17,0-0.36-0.04-0.52-0.1
					c-0.94-0.39-1.75-0.88-1.56-2.11c0.11-0.71-0.18-1.26-0.74-1.67c-0.27-0.19-0.39-0.72-0.82-0.54c-0.33,0.14-0.4,0.58-0.49,0.92
					C85.57,141.86,87.38,144.18,90.39,144.26z"/>
				<path class="st22" d="M74.27,139.5c0.09-0.54-0.17-1.06-0.49-1.53c-0.17-0.25-0.44-0.48-0.67-0.09
					c-0.91,1.59-2.38,2.64-3.65,3.89c-0.3,0.3-0.5,0.49,0.07,0.74C71.61,143.42,74.25,141.8,74.27,139.5z"/>
				<path class="st22" d="M88.68,140.5c-0.03,1.09,0.57,1.65,1.86,1.65C89.9,141.58,89.3,141.05,88.68,140.5z"/>
			</g>
			<path class="st9" d="M64.24,130.38c-0.79-0.33-1.3,0.15-1.78,0.72c-0.18,0.22-0.66,0.32-0.39,0.74c0.21,0.33,0.48,0.62,0.97,0.54
				c0.6-0.1,1.21-0.15,1.81-0.22c0.49-0.06,0.7-0.24,0.73-0.82C65.63,130.28,65.01,130.3,64.24,130.38z"/>
			<path class="st9" d="M56.74,130.52c-0.32,0.03-0.64,0.05-0.96,0.09c-0.74,0.09-0.6,0.72-0.61,1.16
				c-0.01,0.36-0.25,1.01,0.37,1.06c1.06,0.08,2.14,0.07,3.15-0.33c0.26-0.1,0.53-0.27,0.38-0.64
				C58.82,131.25,57.43,130.47,56.74,130.52z"/>
			<path class="st9" d="M61.91,128.75c-0.07-0.44-0.11-0.8-0.19-1.14c-0.08-0.33,0.25-0.96-0.32-0.93c-0.63,0.03-1.41-0.26-1.9,0.39
				c-0.46,0.61,0.22,2.96,0.91,3.29c0.07,0.04,0.24,0.03,0.27-0.01C61.04,129.75,61.75,129.41,61.91,128.75z"/>
			<path class="st9" d="M61.29,134.87c0-0.25-0.02-0.47,0-0.68c0.07-0.59-0.22-1.06-0.71-1.19c-0.46-0.12-0.74,0.41-0.91,0.77
				c-0.18,0.38-0.45,0.72-0.49,1.17c-0.13,1.33-0.03,1.35,1.31,1.27C61.62,136.14,61.2,135.39,61.29,134.87z"/>
			<path class="st1" d="M93.94,131.89c-0.02-0.65-0.54-1.39-1.16-1.54c-0.7-0.17-1.34,0.07-1.72,0.63
				c-0.48,0.69,0.38,0.77,0.65,1.11c0.18,0.22,0.41,0.41,0.65,0.56c0.32,0.2,0.57,0.75,0.96,0.54
				C93.76,132.95,93.96,132.43,93.94,131.89z"/>
			<path class="st7" d="M95.67,127.62c-0.06,1.15,0.45,1.66,1.59,1.71c0.88,0.04,1.54-0.65,1.6-1.68c0.04-0.7-0.94-1.47-1.93-1.46
				C95.9,126.19,95.79,126.99,95.67,127.62z"/>
			<path class="st0" d="M104.54,132.33c-0.02-0.66-0.93-1.6-1.56-1.61c-0.75,0-1.44,0.69-1.44,1.45c0.01,0.76,0.79,1.55,1.52,1.53
				C103.96,133.67,104.56,133.11,104.54,132.33z"/>
			<path class="st3" d="M96.67,136.72c-0.09-0.28-0.17-0.56-0.18-0.85c0-0.29,0.09-0.6,0.31-0.79c0.23-0.2,0.55-0.24,0.85-0.26
				c0.37-0.03,0.77-0.03,1.09,0.17c0.38,0.23,0.55,0.69,0.64,1.13c0.03,0.18,0.06,0.37,0,0.54c-0.07,0.24-0.28,0.42-0.48,0.57
				c-0.25,0.19-0.51,0.37-0.81,0.46s-0.64,0.09-0.9-0.08c-0.31-0.19-0.46-0.56-0.51-0.92"/>
		</g>
		<g>
			<path class="st4" d="M203.74,124.5c-8.49,0.73-9.48,1.49-17.68,0.5c1.15-0.58,1.33-2.29,0.62-3.37s-1.99-1.63-3.24-1.95
				c-2.35-0.6-4.78,0.07-7.21,0.05c-7.42-0.06-10.36,7.84-13.64,13.41c-3.88,6.59-4.67,12.89-6.41,18.23
				c-2.75,8.4-9.03,14.78-14.72,21.54c-0.68,0.81-1.4,1.86-0.99,2.84c0.21,0.51,0.69,0.85,1.15,1.16c3.72,2.49,7.77,4.49,12.01,5.93
				c1.85-5.13,4.72-9.81,7.58-14.46c1.29-2.1,2.61-4.23,4.43-5.88c1.8-1.63,4.02-2.73,5.96-4.19c2.42-1.83,4.02-3.41,5.94-5.76
				c0.59,0.89,1.21,1.65,2.12,2.2s2.9,0.73,3.73,0.07c0.84-0.66,1.67-3,0.73-3.52c1.1,0.28,1.22-0.36,1.52-1.45
				c0.31-1.09-3.06-2.14-3.13-3.24c1.98,1.42,6.81,0.59,7.84-0.22c1.11-0.87,1.59-3.23,3-3.32c1.2-0.08,3.16-0.05,4.77,0.24
				c0.96,0.18,1.56,1.71,2.34,2.56c1.84,2.01,5.14,2.61,7.57,1.38c0.46,1.01,1.28,1.85,2.27,2.33c-0.34,1.72,0.74,3.6,2.39,4.18
				c-0.39,1.81,1.28,3.76,3.13,3.66c0.71-0.04,1.39-0.33,2.09-0.32c2.21,0.01,3.43,2.64,5.45,3.52c1.04,0.45,2.25,0.41,3.28,0.9
				c0.93,0.44,1.61,1.27,2.26,2.07c3.38,4.16,6.75,8.31,10.13,12.47c0.02-4.51,3.06-8.86,7.29-10.43
				c-5.99-9.57-12.17-19.76-12.36-31.04c-0.02-0.88,0-1.78-0.27-2.61c-0.22-0.67-0.61-1.26-1.01-1.84
				c-2.35-3.37-5.19-6.48-8.76-8.49s-7.8-2.13-11.85-1.5c-3.06,0.47-3.38,2.29-2.7,3.84C204.71,123.9,203.74,124.5,203.74,124.5z"/>
			<path class="st25" d="M218.51,142.99c2.9-2.8,5.04-6.63,4.97-10.67s-2.79-8.12-6.74-8.97c-1.92-0.41-3.92-0.07-5.86,0.23
				c-7.31,1.13-14.73,1.59-22.13,1.38c-1.33-0.04-2.68-0.1-3.95-0.53c-0.9-0.3-1.74-0.79-2.65-1.08c-2.43-0.79-5.27-0.08-7.04,1.76
				c-0.6,0.63-1.08,1.36-1.55,2.09c-0.32,0.5-0.65,0.99-0.97,1.49c-1.24,1.91-2.53,3.99-2.38,6.26c0.11,1.75,1.11,3.37,2.42,4.54
				c0.49,0.44,1.04,0.84,1.67,1.05c1.98,0.67,4.09-0.64,5.49-2.2c1.4-1.55,2.49-3.45,4.27-4.55c1.78-1.1,4.62-0.9,5.41,1.03
				c0.79,1.93-0.9,3.89-2.34,5.39c-1.85,1.94-3.5,4.06-4.93,6.33c1.69,0.81,3.63,1.21,5.47,0.85c1.84-0.37,3.56-1.58,4.26-3.32
				c0.11-0.28,0.21-0.58,0.45-0.76c0.21-0.16,0.5-0.2,0.77-0.22c1.2-0.11,2.42,0.11,3.62,0c0.38-0.04,0.77-0.41,1.12-0.25
				c0.34,0.14,0.62,0.78,0.86,1.06c1.47,1.7,2.98,3.12,5.13,3.81c2.14,0.69,4.93,0.18,6.59-1.34c-1.87-1.65-3.75-3.31-5.62-4.96
				c-0.81-0.72-1.66-1.49-1.97-2.53c-0.44-1.52,0.44-3.13,1.57-4.24c0.35-0.34,0.74-0.66,1.21-0.79c1-0.26,1.98,0.42,2.79,1.07
				c3.21,2.56,6.41,5.12,9.62,7.68"/>
			<g>
				<path class="st22" d="M202.75,145.71c1.63,0.77,3.41,0.77,5.04-0.27c0.26-0.16,0.55-0.35,0.33-0.66
					c-0.32-0.46-0.67-1.01-1.38-0.75c-1.21,0.44-2.37,0.33-3.56-0.11c-2.15-0.81-2.79-3.63-1.08-5.17c0.44-0.4,0.41-0.77,0.25-1.12
					c-0.22-0.48-0.62-0.13-0.92,0c-1.48,0.65-1.98,1.87-1.95,3.42C199.61,143.27,200.85,144.82,202.75,145.71z"/>
				<path class="st22" d="M189.51,140.41c-0.08-0.34-0.15-0.78-0.49-0.92c-0.43-0.18-0.55,0.34-0.82,0.54
					c-0.57,0.41-0.85,0.96-0.74,1.67c0.18,1.23-0.62,1.72-1.56,2.11c-0.16,0.07-0.35,0.1-0.52,0.1c-0.82,0-1.42,0.57-1.37,1.19
					c0.05,0.54,0.92,0.49,1.36,0.49C188.38,145.5,190.19,143.18,189.51,140.41z"/>
				<path class="st22" d="M206.22,143.83c0.58-0.25,0.38-0.45,0.07-0.74c-1.27-1.25-2.73-2.31-3.65-3.89
					c-0.22-0.39-0.5-0.16-0.67,0.09c-0.32,0.48-0.58,0.99-0.49,1.53C201.51,143.12,204.15,144.74,206.22,143.83z"/>
				<path class="st22" d="M185.22,143.47c1.29,0,1.89-0.57,1.86-1.65C186.45,142.37,185.86,142.9,185.22,143.47z"/>
			</g>
			<path class="st9" d="M210.18,132.67c0.03,0.57,0.24,0.76,0.73,0.82c0.6,0.07,1.21,0.12,1.81,0.22c0.48,0.08,0.75-0.21,0.97-0.54
				c0.27-0.42-0.21-0.52-0.39-0.74c-0.48-0.57-0.99-1.05-1.78-0.72C210.75,131.62,210.12,131.6,210.18,132.67z"/>
			<path class="st9" d="M216.69,133.17c-0.15,0.37,0.12,0.54,0.38,0.64c1.02,0.4,2.09,0.42,3.15,0.33c0.62-0.05,0.38-0.7,0.37-1.06
				c-0.01-0.44,0.13-1.07-0.61-1.16c-0.32-0.04-0.64-0.06-0.96-0.09C218.32,131.79,216.94,132.57,216.69,133.17z"/>
			<path class="st9" d="M215.09,131.67c0.03,0.04,0.19,0.05,0.27,0.01c0.69-0.33,1.36-2.68,0.91-3.29c-0.49-0.66-1.27-0.37-1.9-0.39
				c-0.57-0.02-0.24,0.6-0.32,0.93c-0.08,0.34-0.12,0.7-0.19,1.14C214.01,130.73,214.72,131.07,215.09,131.67z"/>
			<path class="st9" d="M215.27,137.53c1.34,0.08,1.43,0.05,1.31-1.27c-0.04-0.46-0.31-0.8-0.49-1.17
				c-0.17-0.36-0.45-0.89-0.91-0.77c-0.49,0.13-0.78,0.61-0.71,1.19c0.02,0.21,0,0.43,0,0.68
				C214.56,136.71,214.14,137.46,215.27,137.53z"/>
			<path class="st1" d="M182.43,134.51c0.4,0.21,0.64-0.34,0.96-0.54c0.24-0.15,0.47-0.35,0.65-0.56c0.28-0.34,1.13-0.42,0.65-1.11
				c-0.39-0.56-1.03-0.8-1.72-0.63c-0.62,0.15-1.14,0.88-1.16,1.54C181.8,133.75,181.99,134.27,182.43,134.51z"/>
			<path class="st7" d="M178.83,127.5c-0.99-0.01-1.98,0.76-1.93,1.46c0.06,1.02,0.73,1.71,1.6,1.68c1.14-0.05,1.65-0.55,1.59-1.71
				C179.97,128.31,179.86,127.51,178.83,127.5z"/>
			<path class="st0" d="M172.7,135.02c0.73,0.03,1.51-0.76,1.52-1.53c0.01-0.75-0.69-1.45-1.44-1.45c-0.62,0-1.54,0.95-1.56,1.61
				C171.2,134.43,171.8,134.99,172.7,135.02z"/>
			<path class="st3" d="M179.09,138.04c0.09-0.28,0.17-0.56,0.18-0.85c0-0.29-0.09-0.6-0.31-0.79c-0.23-0.2-0.55-0.24-0.85-0.26
				c-0.37-0.03-0.77-0.03-1.09,0.17c-0.38,0.23-0.55,0.69-0.64,1.13c-0.03,0.18-0.06,0.37,0,0.54c0.07,0.24,0.28,0.42,0.48,0.57
				c0.25,0.19,0.51,0.37,0.81,0.46s0.64,0.09,0.9-0.08c0.31-0.19,0.46-0.56,0.51-0.92"/>
		</g>
	</g>
	<g id="ikf1PA_1_">
		<g>
			<path d="M92.9,145.69c-1.42,0.93-3.01,0.77-4.56,0.6c-2.21-0.24-3.73-1.54-4.82-3.41c-0.15-0.26,0.02-0.41,0.24-0.46
				c0.29-0.07,0.52,0.08,0.58,0.35c0.44,1.98,2,2.54,3.7,2.97c1.59,0.4,3.7,0.18,5.14-0.62c-0.45-0.72-0.88-1.06-1.9-0.8
				c-1.73,0.43-3.37,0-4.55-1.47c-1.18-1.47-1.11-3.13-0.43-4.76c0.19-0.45,0.25-0.74,0.02-1.17c-0.5-0.93-0.8-1.95-0.61-3.01
				c0.16-0.9,0.75-1.55,1.58-1.92c0.46-0.2,0.61-0.49,0.62-0.99c0.04-2.07,0.45-4.15-0.07-6.22c-0.03-0.13-0.02-0.29,0.25-0.41
				c0.27,1.34,0.39,2.66,0.3,4c-0.03,0.43-0.08,0.86-0.11,1.29c-0.12,1.74-0.12,1.72,1.57,1.85c0.4,0.03,0.53-0.1,0.73-0.41
				c0.6-0.97,1.78-1.32,2.58-0.85c1.03,0.61,1.35,1.68,0.71,2.77c-0.31,0.54-0.26,0.91,0.13,1.34c0.38,0.43,0.66,0.98,1.11,1.3
				c0.47,0.34,0.75,0.85,1.15,1.21c0.24-0.1,0.19-0.24,0.12-0.36c-0.47-0.82-0.3-1.43,0.57-1.84c0.96-0.44,1.96-0.19,2.46,0.62
				c0.5,0.82,0.39,1.72-0.3,2.22c-0.51,0.36-1.11,0.2-1.67,0.24c0.23-0.19,0.48-0.29,0.79-0.3c0.82-0.01,1.19-0.55,1.14-1.25
				c-0.04-0.7-0.38-1.32-1.24-1.37c-0.62-0.04-1.25-0.01-1.6,0.62c-0.24,0.44,0.4,1.92,0.94,2.28c1.42,0.45,2.54,1.66,4.13,1.69
				c0.19,0,0.33,0.15,0.34,0.35c0,0.25-0.17,0.39-0.39,0.44c-0.55,0.12-1.06,0.03-1.56-0.23c-0.82-0.44-1.65-0.88-2.5-1.26
				c-1.57-0.69-2.64-1.96-3.67-3.23c-0.8-0.99-1.69-1.86-2.67-2.64c-1.1-0.88-3.23-0.66-4.15,0.38c-0.28,0.31-0.4,0.66-0.38,1.09
				c0.04,0.81,0.24,1.56,0.63,2.27c0.65,1.2,1.02,1.2,1.83-0.02c0.23-0.34,0.72-0.24,0.91-0.64c0.37-0.76,0.41-1.5-0.11-2.23
				c1,0.73,0.84,2.33-0.25,3.24c-1.28,1.07-1.43,1.27-0.27,2.51c2.03,2.17,3.72,4.67,6.16,6.44c0.23,0.17,0.46,0.37,0.6,0.61
				c0.7,1.2,1.62,2.28,2.33,3.44c1.69,2.75,4.09,4.8,6.29,7.04c0.8,0.82,1.96,1.34,3.03,1.82c2.78,1.27,4.51,3.61,5.89,6.11
				c3.17,5.71,6.41,11.41,8.77,17.53c0.13,0.34,0.29,0.66,0.39,1c0.09,0.33,0.31,0.77-0.19,0.91c-0.42,0.12-0.48-0.33-0.6-0.61
				c-0.59-1.39-1.22-2.76-1.74-4.18c-1.14-3.09-3.28-5.6-4.89-8.42c-1.24-2.18-2.62-4.31-3.73-6.55c-1.3-2.6-3.28-4.22-5.82-5.31
				c-1.35-0.58-2.5-1.4-3.51-2.44c-0.38-0.4-0.76-0.52-1.32-0.53c-5.82-0.05-11.64-0.01-17.45-0.46c-4.22-0.33-8.47-0.42-12.7-0.64
				c-1.88-0.1-2.24-0.63-2.44-2.55c-0.14-1.36-0.22-2.71-0.3-4.07c-0.06-1.07,0.27-1.57,1.37-1.43c0.12,0.01,0.25-0.05,0.37-0.18
				c-0.35-0.03-0.7-0.05-1.05-0.11c-0.6-0.09-1.15-0.2-1.01,0.76c0.06,0.39-0.14,0.84-0.51,1.02c-0.64,0.3-0.65,0.81-0.54,1.35
				c0.28,1.43-0.42,2.26-1.66,2.73c-0.53,0.2-0.66,0.41-0.53,1c0.23,1.05-0.32,2.08-1.27,2.49c-1.67,0.71-3.4,0.92-5.14,0.29
				c-0.45-0.16-0.55,0.02-0.76,0.27c-1.85,2.19-4.19,3.72-6.8,4.81c-0.94,0.39-1.65,0.97-2.31,1.7c-2.07,2.3-3.57,5.06-5.71,7.28
				c-1.7,1.76-2.82,3.95-4.46,5.74c-0.27,0.29-0.43,0.96-0.94,0.62c-0.52-0.35,0-0.79,0.24-1.09c2.47-3.08,4.37-6.58,6.91-9.62
				c1.08-1.29,2.17-2.58,3.22-3.9c1.24-1.57,3.15-2.22,4.76-3.27c2.91-1.92,5.11-4.4,6.94-7.38c1.62-2.65,3.73-4.97,5.95-7.19
				c2.11-2.1,4.5-3.91,6.48-6.16c1.13-1.29,1.11-2.34,0-3.75c-0.96-1.22-2.19-1.5-3.67-0.78c-1.64,0.8-2.96,2.01-4.16,3.37
				c-1.27,1.44-2.9,2.45-4.46,3.54c-0.38,0.27-0.75,0.52-1.05,0.9c-0.67,0.87-1.96,0.64-2.47-0.33c-0.25-0.46-0.64-0.86-1.03-1.22
				c-1.97-1.8-2.84-4.14-3.15-6.68c-0.29-2.43-0.12-4.88,0.78-7.19c1.3-3.35,4.84-5.63,8.84-4.88c1.34,0.25,2.71,0.31,4.06,0.48
				c0.5,0.06,0.85-0.03,0.94-0.59c0.1-0.59,0-0.99-0.62-1.31c-2.39-1.23-4.87-1.32-7.44-0.83c-1.52,0.29-3.04,0.55-4.57,0.77
				c-0.71,0.1-1.18,0.53-1.58,1.03c-2.21,2.8-4.72,5.31-7.34,7.71c-0.9,0.82-1.42,1.89-1.39,3.16c0.08,4.14-1.05,8.05-2.54,11.84
				c-0.81,2.06-1.77,4.06-2.91,5.99c-1.7,2.87-3.14,5.89-4.73,8.83c-1.01,1.86-2.1,3.68-3.18,5.51c-0.18,0.31-0.39,0.87-0.86,0.6
				c-0.49-0.28-0.07-0.7,0.12-1.01c2.72-4.41,4.9-9.11,7.47-13.6c2.08-3.64,3.8-7.4,4.86-11.46c0.54-2.06,0.96-4.14,0.9-6.27
				c-0.06-1.96,0.77-3.4,2.18-4.7c2.27-2.09,4.5-4.24,6.37-6.71c0.82-1.08,1.8-1.71,3.21-1.91c2.06-0.3,4.12-0.62,6.18-0.92
				c2.23-0.32,4.17,0.56,6.09,1.45c0.86,0.4,0.72,1.31,0.6,2.12c-0.03,0.21-0.32,0.54,0.09,0.61c0.48,0.08,0.33-0.37,0.33-0.61
				c0-3.02-0.02-6.04-0.02-9.06c0.01-11.04-0.09-22.08,0.08-33.12c0.07-4.73,0.6-9.47,0.87-14.2c0.11-1.91,0.19-3.81,0.06-5.71
				c-0.13-1.81,0.14-3.59,0.14-5.39c0-0.88,0.76-1.11,1.55-1.12c4.24-0.06,8.49-0.13,12.73-0.2c9.42-0.16,18.84-0.19,28.26-0.52
				c6.61-0.23,13.23-0.18,19.84-0.28c4.84-0.07,9.69-0.09,14.53-0.14c8.74-0.08,17.47-0.49,26.2-0.5c9.31-0.01,18.63,0.01,27.94-0.1
				c6.51-0.07,13.02-0.15,19.53-0.22c0.69-0.01,1.49-0.2,1.86,0.69c2.1,0.23,1.36,1.89,1.31,2.95c-0.35,6.86,0.22,13.73-0.33,20.58
				c-0.62,7.64-0.63,15.3-0.63,22.95c0,4.5,0.69,8.96,0.74,13.45c0.03,2.6,0.49,5.23-0.37,7.79c-0.09,0.27,0.1,0.31,0.26,0.35
				c1.09,0.29,1.69,1.18,2.35,1.98c1.92,2.34,4.16,4.36,6.39,6.39c1.29,1.17,2.08,2.5,2.13,4.29c0.11,4.69,1.48,9.07,3.61,13.19
				c3.2,6.19,6.61,12.26,10.27,18.19c0.18,0.29,0.53,0.65,0.11,0.93c-0.42,0.27-0.63-0.2-0.82-0.47c-2.05-3.05-3.74-6.3-5.52-9.51
				c-1.08-1.95-2.29-3.82-3.34-5.77c-2.73-5.06-4.95-10.31-5.12-16.18c-0.05-1.79-0.81-3.07-2.13-4.26
				c-2.24-2.02-4.5-4.03-6.35-6.42c-0.76-0.99-1.65-1.56-2.95-1.72c-2.46-0.31-4.89-0.77-7.38-0.77c-1.51,0-2.72,0.87-4.05,1.36
				c-0.53,0.2-0.41,0.78-0.3,1.24c0.12,0.5,0.44,0.56,0.9,0.48c1.55-0.27,3.11-0.55,4.67-0.7c2.81-0.26,5.28,0.6,7.18,2.9
				c3.15,3.82,2.85,12.92-1.07,16.02c-0.42,0.33-0.82,0.75-0.97,1.38c-0.14,0.62-1.66,0.9-2.14,0.33c-0.93-1.11-2.25-1.64-3.36-2.48
				c-1.27-0.96-2.4-2.05-3.53-3.15c-1.34-1.3-2.74-2.52-4.79-2.53c-1.4-0.01-1.97,1.01-2.52,1.98c-0.51,0.89-0.35,1.81,0.3,2.62
				c0.72,0.9,1.62,1.63,2.48,2.39c2.02,1.78,4.16,3.47,5.94,5.48c1.75,1.97,3.64,3.84,4.97,6.19c1.42,2.5,3.43,4.54,5.86,6.08
				c1.33,0.85,2.63,1.75,4.08,2.41c0.6,0.27,1.06,0.74,1.48,1.24c2.96,3.51,6.05,6.93,8.45,10.88c0.59,0.97,1.43,1.8,2.13,2.7
				c0.21,0.27,0.53,0.63,0.1,0.92c-0.37,0.25-0.57-0.14-0.76-0.39c-1.05-1.37-2.28-2.6-3.07-4.15c-0.36-0.71-1.11-0.96-1.61-1.54
				c-2.01-2.34-3.67-4.97-5.78-7.23c-0.75-0.8-1.55-1.44-2.6-1.85c-2.3-0.89-4.38-2.19-6.11-3.96c-0.54-0.55-1.17-0.6-1.64-0.32
				c-0.59,0.34-1.15,0.33-1.73,0.3c-6.36-0.28-12.72-0.04-19.08-0.27c-4.69-0.17-9.41-0.06-14.12,0.29
				c-2.53,0.19-5.09,0.07-7.64,0.07c-0.71,0-1.27,0.14-1.84,0.66c-0.89,0.81-1.86,1.54-3.02,2.04c-2.55,1.1-4.44,2.82-5.71,5.42
				c-1.76,3.61-3.63,7.22-5.89,10.52c-1.85,2.7-2.67,5.76-4.04,8.61c-0.16,0.33-0.15,0.96-0.67,0.79c-0.59-0.19-0.26-0.75-0.12-1.11
				c1.63-4.07,3.22-8.16,5.36-12c1.07-1.91,1.96-3.92,2.99-5.86c1.75-3.31,4.05-6.1,7.57-7.66c1.71-0.76,2.71-2.29,3.96-3.57
				c1.41-1.45,2.57-3.06,3.79-4.65c1.27-1.65,2.12-3.57,3.81-5c2-1.7,3.6-3.88,5.26-5.95c0.94-1.17,0.84-1.26-0.36-2.13
				c-1.2-0.88-1.46-2.37-0.52-3.5c0.09,0.57-0.41,0.91-0.34,1.41c0.1,0.68,1.53,2.35,2.19,2.51c0.29,0.07,0.41-0.11,0.5-0.28
				c0.26-0.47,0.54-0.94,0.72-1.44c0.49-1.36,0.31-2.27-0.5-2.83c-1.1-0.76-2.84-0.83-3.75-0.07c-0.91,0.76-1.77,1.56-2.49,2.52
				c-1.2,1.61-2.56,3.09-4.51,3.86c-0.63,0.25-1.21,0.64-1.79,0.98c-0.46,0.27-0.94,0.33-1.46,0.26c-0.27-0.04-0.5-0.16-0.47-0.47
				c0.02-0.25,0.24-0.33,0.47-0.36c1.45-0.16,2.55-1.04,3.73-1.77c0.82-0.26,1.51-1.88,0.99-2.44c-0.49-0.54-1.17-0.54-1.8-0.33
				c-0.65,0.21-0.94,0.81-0.89,1.44c0.05,0.65,0.42,1.13,1.19,1.11c0.21,0,0.44,0,0.54,0.24c-0.89,0.13-1.66,0.01-2.02-0.97
				c-0.28-0.76,0.08-1.37,0.57-1.84c0.64-0.62,1.45-0.54,2.22-0.21c1,0.43,0.81,1.21,0.5,2.04c1.01-0.84,1.92-1.68,2.59-2.76
				c0.24-0.39,0.06-0.66-0.12-0.98c-0.65-1.16-0.39-2.22,0.69-2.87c0.79-0.48,1.95-0.15,2.59,0.84c0.58,0.88,1.3,0.14,1.94,0.23
				c0.55,0.07,0.36-0.6,0.35-0.94c-0.04-1-0.15-2.01-0.22-3.01c-0.07-1.01,0.1-2,0.22-3c0.46,0.01,0.34,0.32,0.29,0.54
				c-0.48,2.08,0.05,4.15,0.07,6.23c0,0.33,0.15,0.53,0.44,0.66c2.3,1.06,2.14,2.86,1.41,4.62c-0.28,0.68-0.23,1.16,0.03,1.87
				c0.6,1.6,0.63,3.27-0.62,4.65c-1.21,1.34-2.76,1.72-4.51,1.41c-0.31-0.05-0.61-0.38-0.91-0.15c-0.3,0.23-0.71,0.56-0.74,0.87
				c-0.05,0.43,0.51,0.38,0.83,0.48c2.1,0.66,4.12,0.3,6.09-0.53c0.85-0.36,1.35-1.08,1.59-1.94c0.15-0.56,0.48-0.84,0.97-1.03
				c0.42,0.75-0.46,0.97-0.64,1.5c-0.36,1.03-1.16,1.69-2.24,2.12c-2.12,0.85-4.23,0.84-6.39,0.31c-0.51-0.41-0.9-0.29-1.41,0.11
				c-1.73,1.34-2.43,3.31-3.29,5.18c-0.07,0.14-0.07,0.37-0.01,0.51c0.63,1.33,2.91,2.15,4.33,1.57c0.92-0.38,1.1-0.87,0.67-1.78
				c-0.1-0.2-0.43-0.27-0.31-0.6c0.15-0.45,0.12-0.52-0.16-0.45c-1.22,0.29-2.09-0.94-3.4-0.48c0.27-0.63,0.65-0.69,0.91-0.6
				c1.04,0.35,1.33-0.17,1.41-1.07c0.03-0.3,0.11-0.79,0.5-0.65c0.44,0.16-0.02,0.54-0.03,0.83c-0.01,0.46-0.57,0.99-0.01,1.35
				c0.76,0.5,1.61,0.32,2.35-0.11c0.48-0.28,1.05-0.62,0.93-1.31c-0.14-0.83-0.61-1.43-1.48-1.67c-0.45-0.12-0.88-0.3-1.31-0.48
				c-0.11-0.05-0.28-0.18-0.09-0.31c0.1-0.07,0.28-0.05,0.42-0.08c0.15,0.27,0.42,0.38,0.69,0.46c2.16,0.67,2.61,1.85,1.37,3.6
				c0.85,0.62,1.74,0.08,2.6,0.08c6.83,0.01,13.65-0.01,20.48-0.03c0.35,0,0.9,0.23,0.98-0.34c0.07-0.48,0.35-1.07-0.36-1.41
				c-0.5-0.24-0.74-0.76-0.71-1.25c0.03-0.64-0.22-0.74-0.74-0.63c-2.23,0.44-4.3-0.25-6.38-0.87c-0.33-0.1-0.62-0.28-0.74-0.7
				c-0.31-1.14-1.49-1.7-1.92-2.77c-0.03-0.07-0.21-0.16-0.27-0.13c-0.88,0.38-1.74-0.19-2.66,0.03c-0.99,0.24-2.06,0.26-3.1,0.1
				c0.02-0.33,0.23-0.39,0.52-0.41c1.65-0.08,3.3-0.14,4.93-0.46c0.72-0.15,0.95,0.53,1.26,0.99c2.33,3.38,5.71,4.6,9.82,3.39
				c0.14-0.04,0.31-0.06,0.4-0.15c0.28-0.28,1.16-0.33,0.67-0.91c-0.35-0.41-0.65-1.43-1.66-0.77c-3.09,2.02-6.87,0.85-8.69-2.67
				c-1.12-2.18,0-4.97,2.34-5.69c0.43-0.13,0.65-0.36,0.84-0.73c0.59-1.11,1.39-2.02,2.58-2.5c0.53-0.21,0.53-0.58,0.5-1.04
				c-0.17-2.19-0.06-4.39-0.32-6.57c-0.03-0.24-0.17-0.71,0.2-0.72c0.42,0,0.18,0.4,0.19,0.67c0.08,2.3,0.19,4.6,0.29,6.89
				c0.01,0.3,0.06,0.59,0.41,0.67c2.82,0.65,4.66,2.69,6.63,4.59c1.45,1.4,3.21,2.42,4.93,3.47c0.38,0.23,0.76,0.36,1.06-0.22
				c0.21-0.4,0.56-0.75,0.89-1.07c3.36-3.25,3.42-7.13,2.17-11.27c-1.31-4.33-5.26-6.52-9.72-5.61c-6.63,1.35-13.33,1.98-20.08,2.22
				c-3.51,0.13-6.89-0.4-10.25-1.46c-2.7-0.85-5.24-0.04-7.52,1.57c-0.2,0.14-0.41,0.34-0.48,0.56c-0.55,1.63-1.75,2.88-2.51,4.35
				c-1.07,2.08-1.93,4.44-0.74,6.86c0.51,1.03,1.67,1.46,2.33,2.37c0.24,0.34,0.76,0.63,0.34,1.07c-0.38,0.4-0.7-0.05-1.02-0.25
				c-1.16-0.73-2.09-1.73-2.57-2.96c-0.43-1.1-0.6-2.37-0.33-3.59c0.41-1.84,0.67-3.72,2.14-5.18c0.71-0.71,1.11-1.74,1.47-2.73
				c0.54-1.53,2.03-1.92,3.32-2.52c2.64-1.22,5.28-1.13,7.9,0.05c0.76,0.34,1.19-0.1,1.51-0.61c0.38-0.61-0.1-0.99-0.56-1.32
				c-2.9-2.07-6.12-2.26-9.49-1.62c-1.82,0.35-3.66,0.61-5.31,1.59c-0.72,0.43-1.36,0.72-1.88,1.54c-1.79,2.8-2.94,5.91-4.58,8.78
				c-0.8,1.4-1.64,2.79-2.34,4.25c-1.4,2.89-2.06,6.04-3.03,9.09c-0.72,2.26-1.03,4.64-2,6.81c-0.66,1.45-1.3,2.97-2.1,4.3
				c-0.77,1.27-1.74,2.49-2.62,3.74c-0.54,0.76-1.09,1.52-1.5,2.36c-0.43,0.88-1.04,1.61-1.78,2.28c-1.48,1.33-2.66,2.92-3.77,4.56
				c-1.45,2.14-2.99,4.22-4.6,6.25c-0.47,0.6-0.82,1.19-1.46,1.71c-0.84,0.68-1.37,1.73-2.02,2.64c-1.6,2.25-3.65,4.15-5.1,6.52
				c-0.09,0.14-0.2,0.31-0.58,0.26c0.34-0.7,0.59-1.4,1-2.01c1.43-2.14,3.13-4.08,4.39-6.34c0.37-0.67,1.05-1.17,1.62-1.73
				c0.37-0.37,0.47-0.65,0.03-1.06c-3.24-3.01-5.66-6.69-8.29-10.19c-0.13-0.17-0.24-0.37-0.4-0.51c-2.98-2.71-4.98-6.15-7.22-9.43
				c-1.73-2.53-3.34-5.07-4.02-8.09c-0.83-3.69-2.13-7.23-3.32-10.81c-1.42-4.26-3.64-8.11-6.17-11.8
				c-0.18-0.27-0.42-0.52-0.51-0.82c-0.82-2.61-2.82-3.96-5.23-4.76c-1.14-0.38-2.39-0.46-3.59-0.66c-3.25-0.54-6.38-0.41-9.18,1.61
				c-0.53,0.38-1.23,0.72-0.81,1.51c0.38,0.72,1.02,0.86,1.82,0.47c3.33-1.62,6.49-0.84,9.55,0.81c0.78,0.42,1.31,1.05,1.6,1.94
				c0.35,1.06,1,1.98,1.72,2.84c1.64,1.96,1.94,4.28,1.87,6.74c-0.05,2.05-1.29,3.26-2.71,4.41c-0.31,0.26-0.66,0.77-1.08,0.35
				c-0.43-0.42,0.03-0.77,0.33-1.07c0.45-0.46,0.88-0.95,1.38-1.35c1.27-1.04,1.64-2.42,1.3-3.93c-0.41-1.83-0.63-3.73-2.17-5.16
				c-0.76-0.71-1.2-1.77-1.58-2.79c-0.5-1.35-1.84-1.63-2.98-2.09c-2.37-0.95-4.73-0.64-7.01,0.32c-2.14,0.9-4.4,1.01-6.64,1.07
				c-5.39,0.14-10.75-0.38-16.12-0.91c-2.47-0.24-4.85-0.92-7.33-1.05c-3.27-0.17-6.91,2.14-7.94,5.62
				c-1.03,3.48-1.24,6.85,0.9,10.03c0.7,1.04,1.77,1.77,2.48,2.83c0.26,0.39,0.68,0.11,0.96-0.08c2.25-1.48,4.51-2.96,6.29-5.03
				c1.3-1.51,2.92-2.54,4.81-3.12c0.46-0.14,0.65-0.33,0.64-0.81c-0.04-2.4,0.2-4.79,0.05-7.19c-0.01-0.21,0.11-0.33,0.28-0.41
				c0.25,0.12,0.22,0.34,0.22,0.56c-0.07,2.23-0.11,4.46-0.22,6.68c-0.03,0.61,0.01,1.04,0.68,1.23c0.3,0.09,0.61,0.26,0.83,0.49
				c1.28,1.34,2.51,2.66,4.19,3.61c1.18,0.67,1.44,3.14,0.81,4.49c-1.68,3.56-5.22,4.91-8.58,3.07c-0.62-0.34-1.58,0.07-1.86,0.75
				c-0.14,0.34,0.11,0.45,0.3,0.59c0.6,0.43,1.3,0.62,2.01,0.73c1.74,0.26,3.54,0.19,5.07-0.61c1.37-0.71,2.69-1.7,3.48-3.16
				c0.44-0.81,0.89-1.3,2.03-1.01c1.16,0.3,2.43,0.18,3.65,0.26c0.34,0.02,0.71-0.12,1.18,0.38c-1.27,0.15-2.4,0.15-3.46-0.06
				c-0.86-0.17-1.64,0.45-2.48,0.08c-0.07-0.03-0.33,0.25-0.42,0.43c-0.34,0.64-0.76,1.22-1.3,1.71c-0.15,0.14-0.3,0.35-0.32,0.53
				c-0.11,1.18-0.2,2.36-0.25,3.55c-0.02,0.51,0.15,0.83,0.8,0.88c3.58,0.27,7.16,0.65,10.76,0.6c1.29-0.02,2.56,0.44,3.93,0.17
				c-0.13-0.59-0.9-0.82-0.82-1.53c0.1-0.94,0.78-1.83,1.74-2.1C92.29,146.37,92.86,146.37,92.9,145.69
				c0.4,0.26,0.76,0.53-0.01,0.78c-0.24,0.08-0.46,0.21-0.7,0.28c-1.14,0.33-1.86,1.15-1.75,1.99c0.1,0.77,1.32,1.51,2.4,1.44
				c1-0.06,1.25-0.4,0.99-1.34c-0.08-0.28-0.19-0.54-0.29-0.81c-0.05-0.15-0.03-0.3,0.11-0.37c0.14-0.06,0.3,0.01,0.36,0.15
				c0.08,0.2,0.15,0.4,0.19,0.61c0.14,0.71,0.26,1.38,1.29,0.95c0.35-0.14,0.41-0.03,1.04,0.53c-1.49-0.25-2.59,0.97-4,0.59
				c-0.27-0.07-0.63-0.23-0.87,0.1c-0.03,0.05,0.03,0.23,0.09,0.27c0.3,0.21,0.62,0.35,0.98,0.1c0.1-0.07,0.24-0.15,0.35,0.06
				c-0.4,0.5-0.87,1.08-0.5,1.73c0.39,0.67,1.19,0.75,1.91,0.8c1.12,0.07,1.8-0.74,2.61-1.33c0.6-0.43,0.74-0.8,0.43-1.51
				c-0.54-1.26-1.31-2.39-2.03-3.54C94.98,146.32,94.14,145.52,92.9,145.69z M186.35,124.31c0.31,0.08,0.51,0.17,0.71,0.19
				c3.74,0.39,7.47,0.19,11.2-0.11c1.02-0.08,2.07,0.04,3.11-0.71c0.71-0.51,2.02-0.2,3.06-0.26c1.03-0.06,2.11,0.08,2.91-0.82
				c0.13-0.15,0.3-0.23,0.37,0.05c0.06,0.22,0.13,0.48,0.4,0.35c0.34-0.16,0.08-0.44,0.03-0.65c-0.23-0.97-0.13-1.84,0.89-2.27
				c1.92-0.81,3.82-1.72,6.01-1.33c0.21,0.04,0.51,0.16,0.49-0.31c-0.03-0.53,0.05-1.06,0.05-1.6c0.01-4.13,0.1-8.27-0.08-12.4
				c-0.29-6.54,0.16-13.08-0.02-19.62c-0.17-6.18-0.02-12.37,0.01-18.55c0.01-2.66,0.02-5.32,0.4-7.96
				c0.12-0.83,0.06-1.44-1.11-1.33c-1.75,0.16-3.52,0.2-5.28,0.2c-9.49,0.01-18.98,0.3-28.47,0.46
				c-20.03,0.35-40.05,0.73-60.08,1.09c-12.8,0.23-25.6,0.44-38.4,0.7c-2.19,0.04-4.39,0.07-6.57,0.35c-0.81,0.1-1.2,0.44-1.24,1.3
				c-0.17,3.23-0.49,6.45-0.58,9.68c-0.23,8.4-0.9,16.79-0.56,25.22c0.35,8.76,0.49,17.54,0.74,26.31c0.02,0.66,0.24,0.84,0.87,0.89
				c3.27,0.27,6.54,0.27,9.81,0.24c1.32-0.01,2.63-0.12,3.95-0.43c-0.89-1.48-0.87-2.63,0.14-3.19c2.35-1.33,4.72-2.51,7.6-2.29
				c3.35,0.25,6.62,0.69,9.63,2.29c0.5,0.26,0.9,0.62,1.15,1.1c1.52,2.86,3.42,5.49,5.03,8.28c2.22,3.84,3.58,8.06,4.92,12.28
				c0.78,2.47,1.46,4.96,2.14,7.45c0.09,0.32,0.1,0.87,0.55,0.81c1.13-0.17,2.19,0.27,3.31,0.27c3.38-0.03,6.76-0.02,10.13,0.35
				c1.89,0.21,3.77,0.52,5.69,0.49c5.28-0.08,10.56,0.48,15.85,0.04c0.76-0.06,1.2-0.14,1.34-0.92c0.43-2.3,1.2-4.51,1.84-6.76
				c1.2-4.23,2.53-8.42,4.68-12.26c1.56-2.79,3.34-5.45,4.81-8.29c0.23-0.45,0.55-0.9,1.04-1.07c1.64-0.58,3.06-1.63,4.87-1.93
				c4.09-0.67,8.08-1.29,11.89,1.19C187.05,121.82,187.44,122.63,186.35,124.31z M127.1,156.23c-0.86,0-1.72,0-2.59,0
				c-0.39,0-0.7,0.08-0.39,0.54c1.09,1.64,2.01,3.45,3.35,4.85c1.67,1.75,3.32,3.49,4.69,5.47c1.91,2.76,4,5.35,6.34,7.75
				c0.6,0.62,0.93,0.53,1.41-0.07c1.45-1.79,2.83-3.63,4.1-5.55c1.31-1.98,2.92-3.72,4.52-5.48c1.56-1.72,2.77-3.77,3.4-6.08
				c0.13-0.49-0.1-0.54-0.48-0.56c-2.19-0.14-4.37-0.39-6.56-0.41C138.96,156.64,133.03,156.71,127.1,156.23z M76.29,139.64
				c0.03-1.55-0.47-2.77-1.95-3.42c-0.29-0.13-0.7-0.48-0.92,0c-0.16,0.35-0.19,0.72,0.25,1.12c1.71,1.54,1.07,4.36-1.08,5.17
				c-1.19,0.45-2.35,0.56-3.56,0.11c-0.71-0.26-1.06,0.29-1.38,0.75c-0.22,0.31,0.08,0.5,0.33,0.66c1.63,1.04,3.4,1.04,5.04,0.27
				C74.91,143.41,76.15,141.86,76.29,139.64z M205.01,145.74c1.13,0.14,1.94-0.35,2.76-0.8c0.4-0.22,0.44-0.49,0.13-0.87
				c-0.49-0.61-1.04-0.59-1.72-0.36c-1.62,0.53-3.7-0.04-4.53-1.16c-0.93-1.25-0.79-2.53,0.48-4.33c0.23-0.33,0.2-0.72-0.01-1.01
				c-0.21-0.31-0.52-0.07-0.77,0.04c-1.77,0.75-2.67,3.27-1.69,5.06C200.83,144.43,202.46,145.96,205.01,145.74z M90.39,144.17
				c0.45,0,1.32,0.05,1.36-0.49c0.06-0.63-0.55-1.19-1.37-1.19c-0.17,0-0.36-0.04-0.52-0.1c-0.94-0.39-1.75-0.88-1.56-2.11
				c0.11-0.71-0.18-1.26-0.74-1.67c-0.27-0.19-0.39-0.72-0.82-0.54c-0.33,0.14-0.4,0.58-0.49,0.92
				C85.58,141.77,87.38,144.09,90.39,144.17z M189.45,141.49c0-0.25,0.02-0.5,0-0.75c-0.05-0.51-0.12-1.13-0.57-1.33
				c-0.52-0.24-0.68,0.48-1.03,0.74c-0.53,0.38-0.55,0.98-0.48,1.56c0.11,0.88-0.31,1.42-1.04,1.81c-0.45,0.24-0.92,0.35-1.43,0.42
				c-0.56,0.07-0.93,0.6-0.95,1.04c-0.02,0.51,0.6,0.5,1.01,0.54C187.53,145.75,189.49,143.99,189.45,141.49z M65.89,150.38
				c0.17-0.92-0.23-1.29-1.18-1.18c-0.51,0.06-1.02-0.08-1.38-0.48c-0.36-0.4-0.57-0.27-0.81,0.11c-0.44,0.7-0.85,1.42-1.37,2.05
				c-0.52,0.63-0.23,0.94,0.31,1.25c1.41,0.8,2.63,0.13,3.86-0.49C65.81,151.39,66.07,151,65.89,150.38z M209.93,151.15
				c-0.04,0.44-0.11,0.78,0.18,1.09c0.75,0.8,3.04,1.31,4.01,0.86c0.98-0.45,1.04-0.7,0.42-1.56c-0.33-0.46-0.62-0.96-0.94-1.44
				c-0.37-0.55-0.7-1.16-1.42-0.32c-0.26,0.3-0.72,0.33-1.11,0.31C210.24,150.04,209.75,150.29,209.93,151.15z M74.28,139.41
				c0.09-0.54-0.17-1.06-0.49-1.53c-0.17-0.25-0.44-0.48-0.67-0.09c-0.91,1.59-2.38,2.64-3.65,3.89c-0.3,0.3-0.5,0.49,0.07,0.74
				C71.62,143.33,74.25,141.7,74.28,139.41z M204.94,143.63c0.11-0.01,0.22,0,0.32-0.02c0.44-0.1,1.05-0.08,1.2-0.52
				c0.12-0.36-0.43-0.6-0.71-0.85c-1.16-1.01-2.38-1.97-3.2-3.3c-0.26-0.42-0.51-0.32-0.73,0.01c-0.25,0.39-0.45,0.8-0.46,1.3
				C201.29,142.66,202.74,143.34,204.94,143.63z M60.1,155.99c1.17,0,2.25-0.2,2.82-0.53c0.58-0.33,0.9-0.81,0.76-1.51
				c-0.13-0.68-0.63-0.64-1.14-0.59c-0.17,0.01-0.35-0.07-0.53-0.08c-0.71-0.05-1.31-1-1.87-0.64c-0.56,0.36-0.78,1.25-1.14,1.9
				c-0.04,0.06-0.08,0.12-0.11,0.18c-0.16,0.3-0.53,0.57-0.3,0.96c0.21,0.37,0.62,0.29,0.98,0.3
				C59.75,155.99,59.92,155.98,60.1,155.99z M215.65,156.7c0.11-0.01,0.21-0.03,0.32-0.04c0.49-0.04,1.13,0.1,1.33-0.45
				c0.17-0.46-0.37-0.8-0.59-1.2c-0.12-0.22-0.34-0.4-0.41-0.63c-0.31-0.94-0.75-1.32-1.7-0.62c-0.43,0.31-1.09,0.22-1.25,0.97
				C213.07,156.06,213.93,156.83,215.65,156.7z M65.13,148.41c1.37,0.01,2.22-0.54,2.03-1.57c-0.12-0.66-1.15-0.77-1.77-1.12
				c-0.29-0.16-1.85,1.47-1.76,1.82C63.81,148.35,64.45,148.43,65.13,148.41z M210.58,149.31c0.71,0.01,1.41-0.05,1.59-0.92
				c0.08-0.36-1.56-1.95-1.83-1.77c-0.59,0.4-1.65,0.5-1.72,1.16C208.5,148.84,209.29,149.32,210.58,149.31z M93.9,131.94
				c-0.02-0.65-0.54-1.39-1.16-1.54c-0.7-0.17-1.34,0.07-1.72,0.63c-0.48,0.69,0.38,0.77,0.65,1.11c0.18,0.22,0.41,0.41,0.65,0.56
				c0.32,0.2,0.57,0.75,0.96,0.54C93.72,133,93.91,132.48,93.9,131.94z M181.62,133.69c0.01,0.2,0.17,0.68,0.55,0.93
				c0.44,0.29,0.65-0.27,0.95-0.47c0.29-0.2,0.54-0.46,0.79-0.71c0.25-0.26,0.81-0.33,0.63-0.86c-0.15-0.44-0.58-0.61-0.99-0.73
				C182.58,131.58,181.61,132.37,181.62,133.69z M88.69,140.41c-0.03,1.09,0.57,1.65,1.86,1.65
				C89.91,141.49,89.31,140.96,88.69,140.41z M186.95,142.04c-0.52,0.36-1.16,0.81-1.79,1.25
				C186.56,143.26,186.99,142.83,186.95,142.04z"/>
			<path d="M210.46,131c0.3-0.02,0.65,0.04,0.94-0.07c1.34-0.5,1.9,0.7,2.76,1.23c0.24,0.15,0.12,0.41-0.06,0.54
				c-0.46,0.35-0.68,1.21-1.37,1.01c-0.81-0.23-1.61-0.31-2.42-0.35c-1.34-0.06-0.86-1.04-0.93-1.74
				C209.28,130.68,209.93,130.95,210.46,131z M212.32,133.21c0.57,0.16,0.88-0.15,1.09-0.54c0.23-0.42-0.28-0.49-0.44-0.73
				c-0.51-0.76-1.24-0.79-2.06-0.7c-0.58,0.06-0.99,0.04-1.02,0.84c-0.03,0.8,0.33,0.99,0.98,1.03
				C211.37,133.14,211.87,133.17,212.32,133.21z"/>
			<path d="M218.76,130.96c0.21,0.02,0.25,0.02,0.28,0.03c0.53,0.14,1.25-0.22,1.57,0.39c0.36,0.68,0.1,1.47,0.05,2.21
				c-0.02,0.35-0.35,0.28-0.58,0.32c-0.99,0.17-1.99-0.11-3,0.03c-0.52,0.07-0.89-0.58-1.14-1.02c-0.24-0.42,0.3-0.57,0.54-0.8
				C217.17,131.48,217.64,130.34,218.76,130.96z M218.72,133.58c0.03,0,0.18,0.02,0.32,0c0.52-0.08,1.3,0.31,1.28-0.76
				c-0.02-0.85-0.08-1.35-1.19-1.56c-1.34-0.25-1.86,0.6-2.59,1.26c-0.4,0.36-0.06,0.55,0.2,0.73
				C217.31,133.64,217.98,133.47,218.72,133.58z"/>
			<path d="M66.1,131.16c0.25,1.01-0.31,1.3-1.16,1.33c-0.68,0.03-1.35,0.1-2.01,0.3c-0.96,0.3-1.19-0.62-1.61-1.08
				c-0.37-0.41,0.34-0.54,0.53-0.82c1-1.53,2.57-0.61,3.85-0.84C66.32,129.94,65.98,130.78,66.1,131.16z M64.27,130.4
				c-0.79-0.33-1.3,0.15-1.78,0.72c-0.18,0.22-0.66,0.32-0.39,0.74c0.21,0.33,0.48,0.62,0.97,0.54c0.6-0.1,1.21-0.15,1.81-0.22
				c0.49-0.06,0.7-0.24,0.73-0.82C65.66,130.29,65.03,130.31,64.27,130.4z"/>
			<path d="M214.91,126.97c0.37,0.16,1.12-0.27,1.21,0.44c0.11,0.84,0.79,1.68,0.12,2.56c-0.09,0.11-0.19,0.22-0.29,0.32
				c-0.46,0.43-0.31,1.49-1.17,1.42c-0.65-0.05-1.59-2.08-1.47-2.83c0.03-0.18,0.07-0.35,0.08-0.53
				C213.45,126.99,213.49,126.95,214.91,126.97z M214.41,127.52c-0.68-0.31-0.8,0.18-0.74,0.89c0.02,0.18,0,0.37-0.06,0.53
				c-0.46,1.17,0.58,1.7,1.18,2.15c0.43,0.32,0.55-0.69,0.9-1.03c0.03-0.02,0.04-0.07,0.06-0.09c0.82-0.59,0.31-1.32,0.14-1.96
				C215.73,127.37,215.1,127.57,214.41,127.52z"/>
			<path d="M213.92,135.57c-0.03-1.14,0.65-2.53,1.18-2.34c0.86,0.32,1.3,1.13,1.47,2.06c0.37,2.06-0.2,2.57-2.22,1.98
				c-0.36-0.1-0.44-0.29-0.43-0.62C213.93,136.28,213.92,135.92,213.92,135.57z M214.25,135.67c0.27,0.29-0.34,0.97,0.41,1.27
				c1.22,0.48,1.81,0.03,1.64-1.25c-0.07-0.51-0.34-0.94-0.63-1.32c-0.19-0.25-0.38-0.71-0.82-0.51c-0.36,0.16-0.6,0.49-0.6,0.94
				C214.25,135.04,214.25,135.29,214.25,135.67z"/>
			<path d="M180.18,129.49c-0.01,1.04-0.83,1.72-2.07,1.7c-1.06-0.01-1.81-0.9-1.79-2.14c0.01-0.79,1.11-1.96,1.84-1.98
				C179.17,127.06,180.19,128.29,180.18,129.49z M178.1,130.88c0.98,0.02,1.7-0.55,1.72-1.36c0.03-1.01-0.53-1.81-1.28-1.8
				c-0.77,0-1.93,0.83-1.94,1.38C176.58,130.05,177.26,130.86,178.1,130.88z"/>
			<path d="M97.26,129.69c-1.29-0.02-2.01-0.66-2.01-1.75c0.01-1.19,0.96-2.34,1.95-2.35c0.78-0.01,1.91,1.19,1.9,2.03
				C99.09,128.86,98.33,129.71,97.26,129.69z M95.63,127.66c-0.06,1.15,0.45,1.66,1.59,1.71c0.88,0.04,1.54-0.65,1.6-1.68
				c0.04-0.7-0.94-1.47-1.93-1.46C95.86,126.24,95.74,127.04,95.63,127.66z"/>
			<path d="M56.53,133.17c0.2,0,0.13,0,0.05,0c-1.77,0.06-2.14-0.43-1.79-2.22c0.09-0.47,0.29-0.59,0.7-0.6
				c0.21-0.01,0.45,0.03,0.64-0.05c1.6-0.69,2.35,0.61,3.33,1.39c0.19,0.15,0.24,0.41,0.05,0.56c-0.39,0.33-0.55,1.01-1.21,0.92
				C57.79,133.1,57.3,133.14,56.53,133.17z M56.76,130.53c-0.32,0.03-0.64,0.05-0.96,0.09c-0.74,0.09-0.6,0.72-0.61,1.16
				c-0.01,0.36-0.25,1.01,0.37,1.06c1.06,0.08,2.14,0.07,3.15-0.33c0.26-0.1,0.53-0.27,0.38-0.64
				C58.85,131.26,57.46,130.48,56.76,130.53z"/>
			<path d="M62.21,128.67c0,0.28-1.31,2.22-1.58,2.28c-0.09,0.02-0.21,0-0.29-0.05c-0.9-0.53-1.71-3.72-1.01-4.42
				c0.58-0.58,1.48-0.3,2.25-0.24c0.63,0.05,0.39,0.56,0.43,0.91C62.08,127.64,62.14,128.14,62.21,128.67z M61.93,128.76
				c-0.07-0.44-0.11-0.8-0.19-1.14c-0.08-0.33,0.25-0.96-0.32-0.93c-0.63,0.03-1.41-0.26-1.9,0.39c-0.46,0.61,0.22,2.96,0.91,3.29
				c0.07,0.04,0.24,0.03,0.27-0.01C61.06,129.76,61.78,129.42,61.93,128.76z"/>
			<path d="M172.57,132.06c0.92-0.01,1.72,0.76,1.75,1.69c0.03,0.92-0.81,1.88-1.68,1.91c-1.15,0.05-1.91-0.61-1.93-1.67
				C170.7,132.9,171.49,132.07,172.57,132.06z M172.76,132.4c-0.8-0.01-1.74,0.94-1.76,1.62c-0.02,0.76,0.62,1.31,1.52,1.32
				c0.73,0,1.53-0.8,1.45-1.56C173.89,132.98,173.43,132.47,172.76,132.4z"/>
			<path d="M61.59,135c-0.13,0.38,0.32,1.1-0.12,1.31c-0.65,0.31-1.45,0.34-2.21,0.29c-0.21-0.01-0.31-0.12-0.37-0.32
				c-0.3-0.97,0.38-3.21,1.14-3.77c0.42-0.31,1.44,0.46,1.55,1.2C61.64,134.1,61.59,134.5,61.59,135z M61.31,134.89
				c0-0.25-0.02-0.47,0-0.68c0.07-0.59-0.22-1.06-0.71-1.19c-0.46-0.12-0.74,0.41-0.91,0.77c-0.18,0.38-0.45,0.72-0.49,1.17
				c-0.13,1.33-0.03,1.35,1.31,1.27C61.64,136.15,61.22,135.4,61.31,134.89z"/>
			<path d="M207.28,126.69c0-1.24,0.51-1.82,1.56-1.92c0.48-0.05,0.42,0.28,0.36,0.55c-0.13,0.6-0.16,1.22,0,1.8
				c0.25,0.9-0.41,0.9-0.94,1.05c-0.72,0.21-0.86-0.28-0.93-0.81C207.29,127.08,207.29,126.8,207.28,126.69z M208.76,126.46
				c-0.23-0.26,0.42-1.08-0.42-1.07c-0.97,0.02-0.73,0.89-0.72,1.5c0.01,0.38-0.14,0.96,0.55,0.93
				C209.15,127.79,208.82,127.1,208.76,126.46z"/>
			<path d="M104.79,132.45c-0.03,1.01-0.73,1.6-1.88,1.58c-0.94-0.02-1.7-0.84-1.68-1.84c0.01-0.96,0.77-1.74,1.67-1.73
				C104.03,130.46,104.82,131.29,104.79,132.45z M104.5,132.38c-0.02-0.66-0.93-1.6-1.56-1.61c-0.75,0-1.44,0.69-1.44,1.45
				c0.01,0.76,0.79,1.55,1.52,1.53C103.91,133.72,104.52,133.15,104.5,132.38z"/>
			<path d="M205.67,136.1c0.96,0.04,2.2,1.04,2.4,1.84c0.23,0.94-0.42,1.39-1.06,1.78c-0.85,0.52-1.85,0.3-2.74-0.7
				c0.82,0.45,1.44,0.7,2.13,0.55c0.63-0.14,1.16-0.48,1.35-1.1c0.18-0.59-0.24-1.02-0.66-1.36
				C206.64,136.77,206.17,136.47,205.67,136.1z"/>
			<path d="M71.17,138.19c-0.71,0.83-1.72,1.06-2.55,0.57c-0.61-0.36-1.27-0.74-1.09-1.66c0.17-0.87,1.38-1.91,2.44-2
				c-0.55,0.39-1.04,0.71-1.49,1.08c-0.42,0.35-0.83,0.79-0.63,1.38c0.21,0.61,0.73,0.94,1.39,1.05
				C69.94,138.73,70.55,138.49,71.17,138.19z"/>
			<path d="M184.7,129.38c-0.03-0.01-0.29-0.01-0.41-0.14c-0.33-0.33-0.21-0.77,0-1.09c0.36-0.55-0.09-1.56,0.91-1.73
				c0.4-0.07,0.87-0.1,0.47,0.59c-0.23,0.39,0,0.83,0.11,1.24C185.99,129.04,185.69,129.42,184.7,129.38z M185.15,126.97
				c-0.06,0-0.12,0.01-0.19,0.01c-0.15,0.47-0.29,0.93-0.44,1.4c-0.06,0.21-0.13,0.46,0.11,0.56c0.18,0.07,0.43,0.06,0.62,0.01
				c0.25-0.07,0.27-0.3,0.22-0.53C185.37,127.94,185.26,127.46,185.15,126.97z"/>
			<path d="M68.05,125.6c0,1.72-0.34,2.01-1.52,1.48c-0.26-0.12-0.45-0.27-0.38-0.55c0.19-0.78,0.18-1.55-0.02-2.33
				c-0.07-0.26,0.05-0.42,0.45-0.31C67.56,124.16,68.37,124.51,68.05,125.6z M66.53,125.49c0.11,0.56-0.36,1.38,0.68,1.41
				c0.75,0.02,0.55-0.62,0.57-1.04c0.02-0.64,0.12-1.45-0.83-1.44C66.16,124.43,66.74,125.17,66.53,125.49z"/>
			<path d="M90.5,127.98c-0.57,0.05-0.97-0.08-0.91-0.81c0.04-0.6,0.55-1.2-0.05-1.82c-0.15-0.15,0.18-0.29,0.31-0.3
				c0.35-0.03,0.75-0.06,0.89,0.38c0.2,0.61,0.4,1.22,0.54,1.85C91.42,127.89,91.02,128.02,90.5,127.98z M90.39,125.58
				c-0.06,0-0.12,0-0.19,0c-0.1,0.51-0.2,1.02-0.3,1.53c-0.04,0.23-0.01,0.45,0.26,0.5c0.2,0.03,0.44,0.03,0.62-0.05
				c0.24-0.11,0.16-0.37,0.09-0.57C90.72,126.52,90.55,126.05,90.39,125.58z"/>
		</g>
	</g>
</g>
</svg>
