<svg id="Layer_1" data-name="Layer 1" xmlns="http://www.w3.org/2000/svg" viewBox="0 0 595.28 595.28"><defs><style>.cls-1{fill:#232b49;}.cls-2{fill:#f9b233;}.cls-3{fill:#fff;}</style></defs><title>Logo_darker blue back</title><rect class="cls-1" x="0.51" y="-0.52" width="593.89" height="592.92"/><path class="cls-2" d="M94.68,399.1V379.59a1.79,1.79,0,0,1,1.82-1.82,1.82,1.82,0,0,1,1.85,1.82v7.93h8.56v-7.93a1.8,1.8,0,0,1,1.82-1.82,1.81,1.81,0,0,1,1.85,1.82V399.1a1.81,1.81,0,0,1-1.85,1.81,1.79,1.79,0,0,1-1.82-1.81v-7.94H98.35v7.94a1.82,1.82,0,0,1-1.85,1.81A1.79,1.79,0,0,1,94.68,399.1Z"/><path class="cls-2" d="M114,392.65a8.19,8.19,0,0,1,8.07-8.27,7.91,7.91,0,0,1,8,7.67v.17a.8.8,0,0,1,0,.3,1.59,1.59,0,0,1-1.72,1.32H117.72a4.31,4.31,0,0,0,1.12,2.18,5.16,5.16,0,0,0,3.18,1.49,5.4,5.4,0,0,0,3.44-.83,1.87,1.87,0,0,1,2.48-.1,1.51,1.51,0,0,1,0,2.15,8.36,8.36,0,0,1-5.92,2.18A8.2,8.2,0,0,1,114,392.65Zm3.6-1.62h9.36a5.4,5.4,0,0,0-4.89-3.51A4.63,4.63,0,0,0,117.55,391Z"/><path class="cls-2" d="M134,377.77a1.83,1.83,0,0,1,1.85,1.82V399.1a1.84,1.84,0,0,1-3.67,0V379.59A1.83,1.83,0,0,1,134,377.77Z"/><path class="cls-2" d="M139.17,405.34V386.13a1.76,1.76,0,0,1,1.75-1.75,1.81,1.81,0,0,1,1.82,1.36,8.36,8.36,0,0,1,4.5-1.36,8.2,8.2,0,0,1,8,8.3,8.11,8.11,0,0,1-8,8.2,7.65,7.65,0,0,1-4.43-1.35v5.81a1.87,1.87,0,0,1-1.89,1.79A1.81,1.81,0,0,1,139.17,405.34Zm3.64-12.66A4.41,4.41,0,0,0,144.1,396a4.11,4.11,0,0,0,3.14,1.39,4.26,4.26,0,0,0,3.11-1.39,4.83,4.83,0,0,0,1.29-3.31,5.11,5.11,0,0,0-1.29-3.34,4.33,4.33,0,0,0-3.11-1.35,4.17,4.17,0,0,0-3.14,1.35A4.64,4.64,0,0,0,142.81,392.68Z"/><path class="cls-2" d="M161.91,380.25a1.79,1.79,0,0,1-1.78,1.82,1.81,1.81,0,0,1-1.79-1.82v-.7a1.78,1.78,0,0,1,1.79-1.78,1.75,1.75,0,0,1,1.78,1.78Zm0,6v12.9a1.75,1.75,0,0,1-1.78,1.78,1.78,1.78,0,0,1-1.79-1.78v-12.9a1.77,1.77,0,0,1,1.79-1.82A1.74,1.74,0,0,1,161.91,386.23Z"/><path class="cls-2" d="M179.73,391.26v7.9a1.73,1.73,0,0,1-1.72,1.75,1.78,1.78,0,0,1-1.75-1.75v-7.9a3.39,3.39,0,0,0-3.44-3.34,3.3,3.3,0,0,0-3.3,3.34v7.9a.62.62,0,0,1-.07.33,1.79,1.79,0,0,1-1.75,1.42,1.74,1.74,0,0,1-1.75-1.75v-13a1.74,1.74,0,0,1,1.75-1.75,1.8,1.8,0,0,1,1.62,1,6.57,6.57,0,0,1,3.5-1A6.92,6.92,0,0,1,179.73,391.26Z"/><path class="cls-2" d="M199.34,392.75v6.15a8,8,0,0,1-7.94,7.93,7.78,7.78,0,0,1-3.47-.82,1.75,1.75,0,0,1-.79-2.38,1.78,1.78,0,0,1,2.38-.83,3.93,3.93,0,0,0,1.88.46,4.43,4.43,0,0,0,4.33-3.54,7.6,7.6,0,0,1-9.95-1.19,8.26,8.26,0,0,1-2.31-5.82,8.67,8.67,0,0,1,2.31-5.88,7.82,7.82,0,0,1,5.62-2.45,7.51,7.51,0,0,1,4.43,1.39,1.79,1.79,0,0,1,1.75-1.39,1.74,1.74,0,0,1,1.76,1.75v6.62Zm-3.54,0a5.13,5.13,0,0,0-1.26-3.37,4.1,4.1,0,0,0-3.14-1.42,3.94,3.94,0,0,0-3,1.42,4.89,4.89,0,0,0-1.32,3.37,4.79,4.79,0,0,0,1.32,3.41,4,4,0,0,0,3,1.35,4.17,4.17,0,0,0,3.14-1.35A5,5,0,0,0,195.8,392.71Z"/><path class="cls-2" d="M212.19,396.19a1.71,1.71,0,0,1,2.48-.27,6.08,6.08,0,0,0,3.64,1.46,4.44,4.44,0,0,0,2.25-.63,1.36,1.36,0,0,0,.59-1,.49.49,0,0,0-.1-.34,1,1,0,0,0-.43-.39,7.58,7.58,0,0,0-2.64-.93h0a12.64,12.64,0,0,1-2.87-.86,5.45,5.45,0,0,1-2.28-1.91,4,4,0,0,1-.57-2.09,4.62,4.62,0,0,1,1.95-3.63,7.09,7.09,0,0,1,4.07-1.23,8.49,8.49,0,0,1,5,1.82,1.82,1.82,0,0,1,.53,2.45,1.76,1.76,0,0,1-2.45.46,5.58,5.58,0,0,0-3-1.22,3.35,3.35,0,0,0-2,.59,1,1,0,0,0-.53.76.4.4,0,0,0,.06.27,1.14,1.14,0,0,0,.37.33,6.74,6.74,0,0,0,2.41.79l0,0h0a12.07,12.07,0,0,1,3.07,1,5.15,5.15,0,0,1,2.35,1.95,4.28,4.28,0,0,1,.63,2.19,4.76,4.76,0,0,1-2.08,3.83,7.5,7.5,0,0,1-4.3,1.32,9.58,9.58,0,0,1-5.89-2.28A1.76,1.76,0,0,1,212.19,396.19Z"/><path class="cls-2" d="M226.44,392.68a8.4,8.4,0,0,1,8.4-8.3,8.71,8.71,0,0,1,5.25,1.82,1.82,1.82,0,0,1,.37,2.45A1.77,1.77,0,0,1,238,389a5.27,5.27,0,0,0-3.14-1.06,4.75,4.75,0,1,0,0,9.49,5.34,5.34,0,0,0,3.14-1.06,1.81,1.81,0,0,1,2.48.36,1.83,1.83,0,0,1-.37,2.45,9.05,9.05,0,0,1-5.25,1.75A8.37,8.37,0,0,1,226.44,392.68Z"/><path class="cls-2" d="M247.5,399.1a1.82,1.82,0,0,1-1.86,1.81,1.87,1.87,0,0,1-1.75-1.35,2.14,2.14,0,0,1-.06-.46V379.59a1.84,1.84,0,0,1,3.67,0v5.75a7.5,7.5,0,0,1,3.53-1,7.23,7.23,0,0,1,7.21,7.24v7.48a1.82,1.82,0,0,1-3.64,0v-7.48a3.55,3.55,0,1,0-7.1,0Z"/><path class="cls-2" d="M263,398.5a8.21,8.21,0,0,1-2.29-5.82,8.51,8.51,0,0,1,2.29-5.79,7.71,7.71,0,0,1,5.68-2.51,7.31,7.31,0,0,1,5.52,2.51,8.27,8.27,0,0,1,2.32,5.79,8,8,0,0,1-2.32,5.82,7.31,7.31,0,0,1-5.52,2.51A7.71,7.71,0,0,1,263,398.5Zm1.32-5.82a5.38,5.38,0,0,0,1.19,3.51,4.48,4.48,0,0,0,3.17,1.22,4.32,4.32,0,0,0,3-1.22,5.09,5.09,0,0,0,1.29-3.51,5,5,0,0,0-1.29-3.44,4.63,4.63,0,0,0-3-1.25,4.78,4.78,0,0,0-3.17,1.25A5.26,5.26,0,0,0,264.29,392.68Z"/><path class="cls-2" d="M281,398.5a8.24,8.24,0,0,1-2.28-5.82,8.55,8.55,0,0,1,2.28-5.79,7.75,7.75,0,0,1,5.69-2.51,7.33,7.33,0,0,1,5.52,2.51,8.26,8.26,0,0,1,2.31,5.79,8,8,0,0,1-2.31,5.82,7.33,7.33,0,0,1-5.52,2.51A7.75,7.75,0,0,1,281,398.5Zm1.32-5.82a5.38,5.38,0,0,0,1.19,3.51,4.5,4.5,0,0,0,3.18,1.22,4.36,4.36,0,0,0,3-1.22,5.09,5.09,0,0,0,1.29-3.51,5,5,0,0,0-1.29-3.44,4.67,4.67,0,0,0-3-1.25,4.8,4.8,0,0,0-3.18,1.25A5.26,5.26,0,0,0,282.3,392.68Z"/><path class="cls-2" d="M299.52,377.77a1.84,1.84,0,0,1,1.86,1.82V399.1a1.84,1.84,0,0,1-3.67,0V379.59A1.82,1.82,0,0,1,299.52,377.77Z"/><path class="cls-2" d="M303.92,396.19a1.71,1.71,0,0,1,2.48-.27,6.08,6.08,0,0,0,3.64,1.46,4.44,4.44,0,0,0,2.25-.63,1.36,1.36,0,0,0,.59-1,.49.49,0,0,0-.1-.34,1,1,0,0,0-.43-.39,7.58,7.58,0,0,0-2.64-.93h0a12.64,12.64,0,0,1-2.87-.86,5.45,5.45,0,0,1-2.28-1.91,4,4,0,0,1-.57-2.09,4.62,4.62,0,0,1,1.95-3.63,7.09,7.09,0,0,1,4.07-1.23,8.49,8.49,0,0,1,5,1.82,1.83,1.83,0,0,1,.53,2.45,1.76,1.76,0,0,1-2.45.46,5.58,5.58,0,0,0-3-1.22,3.35,3.35,0,0,0-2,.59,1,1,0,0,0-.53.76.4.4,0,0,0,.06.27,1.14,1.14,0,0,0,.37.33,6.74,6.74,0,0,0,2.41.79l0,0h0a12.07,12.07,0,0,1,3.07,1,5.15,5.15,0,0,1,2.35,1.95,4.28,4.28,0,0,1,.63,2.19,4.76,4.76,0,0,1-2.08,3.83,7.5,7.5,0,0,1-4.3,1.32,9.58,9.58,0,0,1-5.89-2.28A1.76,1.76,0,0,1,303.92,396.19Z"/><path class="cls-2" d="M326.79,396.19a1.71,1.71,0,0,1,2.48-.27,6.08,6.08,0,0,0,3.64,1.46,4.44,4.44,0,0,0,2.25-.63,1.38,1.38,0,0,0,.6-1,.55.55,0,0,0-.1-.34,1.11,1.11,0,0,0-.43-.39,7.73,7.73,0,0,0-2.65-.93h0a12.57,12.57,0,0,1-2.88-.86,5.51,5.51,0,0,1-2.28-1.91,4.08,4.08,0,0,1-.56-2.09,4.62,4.62,0,0,1,1.95-3.63,7.06,7.06,0,0,1,4.07-1.23,8.49,8.49,0,0,1,5,1.82,1.83,1.83,0,0,1,.52,2.45,1.75,1.75,0,0,1-2.44.46,5.64,5.64,0,0,0-3-1.22,3.38,3.38,0,0,0-2,.59,1,1,0,0,0-.53.76.36.36,0,0,0,.07.27,1,1,0,0,0,.36.33,6.74,6.74,0,0,0,2.42.79l0,0h0a12.14,12.14,0,0,1,3.08,1,5.18,5.18,0,0,1,2.34,1.95,4.28,4.28,0,0,1,.63,2.19,4.76,4.76,0,0,1-2.08,3.83,7.5,7.5,0,0,1-4.3,1.32,9.55,9.55,0,0,1-5.88-2.28A1.76,1.76,0,0,1,326.79,396.19Z"/><path class="cls-2" d="M356.19,392.68v6.48a1.77,1.77,0,0,1-1.76,1.75,1.79,1.79,0,0,1-1.72-1.42,7.43,7.43,0,0,1-4.39,1.42,7.7,7.7,0,0,1-5.63-2.41,8.46,8.46,0,0,1-2.24-5.82,8.35,8.35,0,0,1,2.24-5.82,7.65,7.65,0,0,1,5.63-2.48,7.46,7.46,0,0,1,4.39,1.46,1.8,1.8,0,0,1,1.72-1.46,1.78,1.78,0,0,1,1.76,1.79Zm-3.51,0a4.89,4.89,0,0,0-1.29-3.41,4.09,4.09,0,0,0-3.07-1.35,4,4,0,0,0-3.08,1.35,4.87,4.87,0,0,0-1.26,3.41,5,5,0,0,0,1.26,3.41,4.2,4.2,0,0,0,3.08,1.29,4.3,4.3,0,0,0,3.07-1.29A5,5,0,0,0,352.68,392.68Z"/><path class="cls-2" d="M373.41,387,368,399.86a.7.7,0,0,1-.13.23,0,0,0,0,1,0,0c-.07.07-.13.17-.2.23s0,0,0,0a1.17,1.17,0,0,1-.2.19s0,0,0,0a.67.67,0,0,1-.24.16h-.06v0a.71.71,0,0,0-.27.07h-.06a1.35,1.35,0,0,1-.33,0,1.24,1.24,0,0,1-.3,0H366a.84.84,0,0,0-.26-.07v0h-.07c-.1,0-.16-.1-.3-.16s0,0,0,0a1.7,1.7,0,0,1-.2-.19s0,0-.06,0a1.5,1.5,0,0,0-.17-.23s0,0,0,0-.1-.14-.13-.23L359.42,387a1.71,1.71,0,1,1,3.17-1.29l3.81,9,3.83-9a1.66,1.66,0,0,1,2.22-1A1.68,1.68,0,0,1,373.41,387Z"/><path class="cls-2" d="M375.78,392.65a8.19,8.19,0,0,1,8.07-8.27,7.91,7.91,0,0,1,8,7.67v.17a1.05,1.05,0,0,1,0,.3,1.6,1.6,0,0,1-1.72,1.32H379.55a4.33,4.33,0,0,0,1.13,2.18,5.11,5.11,0,0,0,3.17,1.49,5.4,5.4,0,0,0,3.44-.83,1.87,1.87,0,0,1,2.48-.1,1.51,1.51,0,0,1,0,2.15,8.34,8.34,0,0,1-5.92,2.18A8.21,8.21,0,0,1,375.78,392.65Zm3.61-1.62h9.35a5.39,5.39,0,0,0-4.89-3.51A4.61,4.61,0,0,0,379.39,391Z"/><path class="cls-2" d="M402.52,392.65a8.19,8.19,0,0,1,8.07-8.27,7.91,7.91,0,0,1,8,7.67v.17a1.05,1.05,0,0,1,0,.3,1.59,1.59,0,0,1-1.72,1.32H406.29a4.33,4.33,0,0,0,1.13,2.18,5.14,5.14,0,0,0,3.17,1.49,5.38,5.38,0,0,0,3.44-.83,1.87,1.87,0,0,1,2.48-.1,1.51,1.51,0,0,1,0,2.15,8.34,8.34,0,0,1-5.92,2.18A8.21,8.21,0,0,1,402.52,392.65Zm3.61-1.62h9.36a5.4,5.4,0,0,0-4.9-3.51A4.61,4.61,0,0,0,406.13,391Z"/><path class="cls-2" d="M434.3,391.26v7.9a1.74,1.74,0,0,1-1.72,1.75,1.79,1.79,0,0,1-1.76-1.75v-7.9a3.39,3.39,0,0,0-3.44-3.34,3.3,3.3,0,0,0-3.3,3.34v7.9a.62.62,0,0,1-.07.33,1.79,1.79,0,0,1-1.75,1.42,1.74,1.74,0,0,1-1.75-1.75v-13a1.74,1.74,0,0,1,1.75-1.75,1.8,1.8,0,0,1,1.62,1,6.59,6.59,0,0,1,3.5-1A6.93,6.93,0,0,1,434.3,391.26Z"/><path class="cls-2" d="M438,392.65a8.19,8.19,0,0,1,8.07-8.27,7.91,7.91,0,0,1,8,7.67v.17a.8.8,0,0,1,0,.3,1.59,1.59,0,0,1-1.72,1.32H441.73a4.31,4.31,0,0,0,1.12,2.18,5.16,5.16,0,0,0,3.18,1.49,5.4,5.4,0,0,0,3.44-.83,1.87,1.87,0,0,1,2.48-.1,1.51,1.51,0,0,1,0,2.15,8.34,8.34,0,0,1-5.92,2.18A8.2,8.2,0,0,1,438,392.65Zm3.6-1.62h9.36a5.4,5.4,0,0,0-4.89-3.51A4.63,4.63,0,0,0,441.56,391Z"/><path class="cls-2" d="M467.09,386.13a1.77,1.77,0,0,1-1.76,1.76,3.14,3.14,0,0,0-2,.62,4.91,4.91,0,0,0-1.52,1.59,10.21,10.21,0,0,0-1.36,2.78v6.28a1.79,1.79,0,0,1-1.82,1.75,1.76,1.76,0,0,1-1.75-1.75v-13a1.73,1.73,0,0,1,1.75-1.72,1.77,1.77,0,0,1,1.82,1.72v.23a4.81,4.81,0,0,1,.7-.66,7.31,7.31,0,0,1,4.16-1.29A1.72,1.72,0,0,1,467.09,386.13Z"/><path class="cls-2" d="M484.54,392.75v6.15a8,8,0,0,1-7.94,7.93,7.81,7.81,0,0,1-3.47-.82,1.75,1.75,0,0,1-.79-2.38,1.78,1.78,0,0,1,2.38-.83,3.93,3.93,0,0,0,1.88.46,4.44,4.44,0,0,0,4.34-3.54,7.62,7.62,0,0,1-10-1.19,8.26,8.26,0,0,1-2.31-5.82,8.67,8.67,0,0,1,2.31-5.88,7.82,7.82,0,0,1,5.62-2.45,7.56,7.56,0,0,1,4.44,1.39,1.78,1.78,0,0,1,1.75-1.39,1.74,1.74,0,0,1,1.75,1.75v6.62Zm-3.54,0a5.18,5.18,0,0,0-1.25-3.37,4.12,4.12,0,0,0-3.15-1.42,4,4,0,0,0-3,1.42,4.89,4.89,0,0,0-1.32,3.37,4.79,4.79,0,0,0,1.32,3.41,4,4,0,0,0,3,1.35,4.2,4.2,0,0,0,3.15-1.35A5.07,5.07,0,0,0,481,392.71Z"/><path class="cls-2" d="M501.4,386.13v12.5a7.82,7.82,0,0,1-11.31,7.08,1.73,1.73,0,0,1-.86-2.35,1.82,1.82,0,0,1,2.35-.73,4.29,4.29,0,0,0,6.05-2.54,6.42,6.42,0,0,1-3.14.79,7,7,0,0,1-6.91-6.94v-7.81a1.75,1.75,0,0,1,1.72-1.75,1.7,1.7,0,0,1,1.75,1.75v7.81a3.42,3.42,0,0,0,6.84,0v-7.81a1.7,1.7,0,0,1,1.72-1.75A1.77,1.77,0,0,1,501.4,386.13Z"/><path class="cls-3" d="M119.73,313.81a3.39,3.39,0,0,0,0-6.78H97.92a3.33,3.33,0,0,0-3.35,3.36v39.34a3.42,3.42,0,0,0,3.56,3.35h21.6a3.39,3.39,0,0,0,0-6.77L101.35,346l.31-12.59H117.2a3.38,3.38,0,0,0,3.35-3.41,3.45,3.45,0,0,0-3.36-3.36l-15.84-.31.31-12.52Z"/><path class="cls-3" d="M141.3,320.37a17.66,17.66,0,0,0-7.35,1.88,3.28,3.28,0,0,0-3-1.88,3.19,3.19,0,0,0-3.22,3.22v26.27a3.18,3.18,0,0,0,3.22,3.22,3.39,3.39,0,0,0,3.24-2.65l.11-.57V333.93a6.94,6.94,0,0,1,7-7.05,7.16,7.16,0,0,1,7.25,7.05v15.93a3.3,3.3,0,0,0,3.22,3.22,3.19,3.19,0,0,0,3.16-3.22V333.93A13.61,13.61,0,0,0,141.3,320.37Z"/><path class="cls-3" d="M176.46,320.37c-8.73,0-15.89,7.34-16,16.36a16.15,16.15,0,0,0,16,16.35,16.56,16.56,0,0,0,11.72-4.31,2.36,2.36,0,0,0,.82-1.69,3.29,3.29,0,0,0-.85-2.22,2.77,2.77,0,0,0-2.06-.73,3.47,3.47,0,0,0-2.51,1,10.72,10.72,0,0,1-6.19,1.77c-.32,0-.64,0-1,0a10.61,10.61,0,0,1-6.59-3.08,7.11,7.11,0,0,1-2.05-4.95H189a2.92,2.92,0,0,0,3.16-2.61c0-.56.05-.66.05-.65C191.69,326.75,185.07,320.37,176.46,320.37Zm-9.31,13a9.67,9.67,0,0,1,9.29-7.31h.05c6.07.49,9.5,4.69,9.84,7.69Z"/><path class="cls-3" d="M214,320.44a14.38,14.38,0,0,0-8,2.55,10.46,10.46,0,0,1-1.7,1.13,1.53,1.53,0,0,1-.2-.53,3.26,3.26,0,0,0-3.35-3.15,3.19,3.19,0,0,0-3.22,3.15v26.27a3.26,3.26,0,0,0,3.22,3.22,3.34,3.34,0,0,0,3.35-3.22l.12-13.07a20.35,20.35,0,0,1,2.66-5.37,10.24,10.24,0,0,1,3.15-3.28,6.6,6.6,0,0,1,4.19-1.33,3.19,3.19,0,1,0-.26-6.37Z"/><path class="cls-3" d="M246,320.37a4.26,4.26,0,0,0-3.72,2.75,14.78,14.78,0,0,0-8.75-2.75,15.43,15.43,0,0,0-11.1,4.84,17.22,17.22,0,0,0-4.59,11.65,16.31,16.31,0,0,0,4.59,11.52,15.09,15.09,0,0,0,11.1,5,21.37,21.37,0,0,0,9-2.29,9.2,9.2,0,0,1-9,7.39,8.37,8.37,0,0,1-3.93-1,3.58,3.58,0,0,0-1.46-.31,3.27,3.27,0,0,0-1.46,6.21,15.23,15.23,0,0,0,6.85,1.63,15.71,15.71,0,0,0,15.69-15.69V323.59A3.19,3.19,0,0,0,246,320.37Zm-5.91,23.57a8.69,8.69,0,0,1-6.56,2.84,8.37,8.37,0,0,1-6.35-2.83,9.9,9.9,0,0,1-2.77-7.09,10,10,0,0,1,2.75-7,8.31,8.31,0,0,1,6.37-3,8.63,8.63,0,0,1,6.57,3,10.81,10.81,0,0,1,2.61,7A10.4,10.4,0,0,1,240.1,343.94Z"/><path class="cls-3" d="M280,320.37a3.12,3.12,0,0,0-3.15,3.22v15.74a7.22,7.22,0,0,1-14.44,0V323.59a3.11,3.11,0,0,0-3.21-3.22,3.24,3.24,0,0,0-3.16,3.22v15.74A13.67,13.67,0,0,0,269.64,353a23.5,23.5,0,0,0,6.63-1.19,9.07,9.07,0,0,1-8.64,6.28,9.29,9.29,0,0,1-4-1,2.88,2.88,0,0,0-1.36-.33,3.42,3.42,0,0,0-2.93,1.64,3.51,3.51,0,0,0-.12,2.54,3,3,0,0,0,1.71,1.79,15.43,15.43,0,0,0,22.35-14V323.59A3.27,3.27,0,0,0,280,320.37Z"/><path class="cls-3" d="M335.15,327.87a39,39,0,0,0-9.37-2.8,23.11,23.11,0,0,1-8.28-2.92,6.44,6.44,0,0,1-1.77-1.7,3.07,3.07,0,0,1-.44-1.79,5.26,5.26,0,0,1,2.47-4.1,12.7,12.7,0,0,1,7.4-2.24c4,0,7.17,1.92,10.66,4.24a3.49,3.49,0,0,0,4.91-1,3.34,3.34,0,0,0,.55-2.52,4,4,0,0,0-1.7-2.52c-3.42-2.21-8.09-5.23-14.42-5.23a19.88,19.88,0,0,0-11.62,3.56,12.4,12.4,0,0,0-5.39,9.84,10.43,10.43,0,0,0,1.56,5.54,14.52,14.52,0,0,0,6.26,5.25,35,35,0,0,0,8.76,2.6,26.66,26.66,0,0,1,9.09,3.12,6.31,6.31,0,0,1,2,2,3.64,3.64,0,0,1,.58,2.06,5.93,5.93,0,0,1-2.81,4.7,14.31,14.31,0,0,1-8.42,2.44c-4.62,0-9.62-2.75-12.5-5.11a3.6,3.6,0,0,0-5.05.5,3.65,3.65,0,0,0,.56,5c3.83,3,9.91,6.64,17.15,6.7h0a21,21,0,0,0,12.4-3.83,13,13,0,0,0,5.79-10.44,11,11,0,0,0-1.62-5.74A15.65,15.65,0,0,0,335.15,327.87Z"/><path class="cls-3" d="M363.85,320.37a21.71,21.71,0,0,0-9.37,2.47,3.37,3.37,0,0,0-3.36-2.47,3.22,3.22,0,0,0-3.22,3.22v38.74a3.34,3.34,0,0,0,3.22,3.29,3.43,3.43,0,0,0,3.48-3.29l.5-12a14.91,14.91,0,0,0,8.75,2.69,16.05,16.05,0,0,0,15.83-16.23C379.68,327.74,372.58,320.37,363.85,320.37Zm6.5,23.31a8.83,8.83,0,0,1-6.5,2.9,8.53,8.53,0,0,1-6.54-2.88,9.15,9.15,0,0,1-2.71-6.91,9.77,9.77,0,0,1,2.68-7,8.75,8.75,0,0,1,6.57-2.83,9,9,0,0,1,6.5,2.84,10.63,10.63,0,0,1,2.69,6.94A10,10,0,0,1,370.35,343.68Z"/><path class="cls-3" d="M411,320.37c-1.49,0-2.77,1.05-3.65,2.88a14.75,14.75,0,0,0-8.69-2.88,15.1,15.1,0,0,0-11.1,4.91,16.51,16.51,0,0,0-4.45,11.51,16.77,16.77,0,0,0,4.45,11.52,15.21,15.21,0,0,0,11.1,4.77,18.84,18.84,0,0,0,9.18-2.63,3.3,3.3,0,0,0,3.16,2.63,3.22,3.22,0,0,0,3.22-3.22v-26.2A3.26,3.26,0,0,0,411,320.37Zm-5.9,23.51a9,9,0,0,1-6.44,2.7,8.75,8.75,0,0,1-6.43-2.7,10.38,10.38,0,0,1-2.61-7.09,10.1,10.1,0,0,1,2.6-7.07,8.45,8.45,0,0,1,6.44-2.84,8.6,8.6,0,0,1,6.44,2.83,10.12,10.12,0,0,1,2.68,7.08A10.39,10.39,0,0,1,405.05,343.88Z"/><path class="cls-3" d="M439,320.44a14.38,14.38,0,0,0-8,2.55,10,10,0,0,1-1.7,1.13,1.75,1.75,0,0,1-.19-.53,3.27,3.27,0,0,0-3.36-3.15,3.2,3.2,0,0,0-3.22,3.15v26.27a3.27,3.27,0,0,0,3.22,3.22,3.34,3.34,0,0,0,3.36-3.22l.12-13.07a19.74,19.74,0,0,1,2.66-5.37,10.22,10.22,0,0,1,3.14-3.28,6.6,6.6,0,0,1,4.19-1.33,3.19,3.19,0,1,0-.26-6.37Z"/><path class="cls-3" d="M473.25,322.46a3.36,3.36,0,0,0-3.39-3.41,3.35,3.35,0,0,0-2.38,1l-14.2,13.44V310.39a3.39,3.39,0,0,0-6.78,0v39.34a3.39,3.39,0,0,0,6.78,0l.09-6.1L457.5,340l9.81,11.87a3.21,3.21,0,0,0,2.55,1.21,3.17,3.17,0,0,0,2.14-.8,3.26,3.26,0,0,0,1.22-2.2,3.47,3.47,0,0,0-.74-2.55l-10.24-12.76,10-10A3.22,3.22,0,0,0,473.25,322.46Z"/><path class="cls-3" d="M500.28,338.76a10.19,10.19,0,0,0-4.6-3.82,25,25,0,0,0-6.25-2,14,14,0,0,1-5-1.65,2,2,0,0,1-.84-.76,6.35,6.35,0,0,1-.19-.71,2.28,2.28,0,0,1,1.2-1.79,7.18,7.18,0,0,1,4.19-1.26c2.28,0,4.21,1.14,6.31,2.52a3.19,3.19,0,0,0,1.83.57,3.15,3.15,0,0,0,2.65-1.4,3.39,3.39,0,0,0-1-4.52c-2-1.35-5.24-3.61-9.82-3.61a14.13,14.13,0,0,0-8,2.4,9,9,0,0,0-3.82,7.09,7.82,7.82,0,0,0,1.09,4,11,11,0,0,0,4.47,3.76,26.11,26.11,0,0,0,5.79,1.71,15.72,15.72,0,0,1,5.45,1.9c.56.36.89.67,1,.9a1.28,1.28,0,0,1,.25.83,3.16,3.16,0,0,1-1.35,2.28,9.41,9.41,0,0,1-4.86,1.31,12.65,12.65,0,0,1-7.38-3,3.13,3.13,0,0,0-4.55.49,3.22,3.22,0,0,0-.7,2.37,3.11,3.11,0,0,0,1.12,2.12A18.87,18.87,0,0,0,489,353.08a14.75,14.75,0,0,0,8.49-2.61A9.26,9.26,0,0,0,501.5,343,8.2,8.2,0,0,0,500.28,338.76Z"/><polygon class="cls-3" points="488.96 353.08 488.95 353.08 488.95 353.08 488.96 353.08"/><path class="cls-2" d="M349.58,185.87a49.69,49.69,0,0,0-32-43.3A55.79,55.79,0,0,0,298.92,139l-.4,0-.3,0-.3,0a1.9,1.9,0,0,0-.4.05,55.13,55.13,0,0,0-18.68,3.54,49.72,49.72,0,0,0-32,43.3c-.74,13.19,4,27,13.12,37.91,5,6,11,13.72,19.56,13.9a12.76,12.76,0,0,0,4.36-.5,16.17,16.17,0,0,1,3-.77c3.65,2.42,7.4,2.93,10.55,1.32,2.86-1.47,4.57-4.39,5.75-7.26,1-2.49,1.39-5.61,2.54-8,.27,0,1.13,1.11,1.34,1.29a18.72,18.72,0,0,1,2.63,2.92,6.07,6.07,0,0,1,1.57,3.42,3.49,3.49,0,0,1-1.52,2.92,5.34,5.34,0,0,1-4.17.94,2.7,2.7,0,0,0-1.95.23,2.51,2.51,0,0,0-1.16,1.49,2.2,2.2,0,0,0,.24,1.73,2.57,2.57,0,0,0,1.64,1.18,11.42,11.42,0,0,0,2.44.28,10.28,10.28,0,0,0,6.23-2.1,8.17,8.17,0,0,0,3.48-6.77c-.09-3.25-2.14-5.84-4.35-8.17a21.22,21.22,0,0,0-2-2,7.33,7.33,0,0,1-2.75-4.15c-.2-1.41,0-3,1.36-3.8,1.58-.91,3.81-.42,5.4-.13a2.43,2.43,0,0,0,2.52-1.64,2.21,2.21,0,0,0-.25-1.74,2.91,2.91,0,0,0-1.65-1.37,14.46,14.46,0,0,0-7.63.28c-4,1.27-4.85,5.06-5.16,8.85a42.32,42.32,0,0,1-2.35,9.27c-.9,2.78-1.87,6.76-4.75,8.12a3.71,3.71,0,0,1-4.61-1.31c1.06-2.07,2.38-4,3.41-6.06a30.6,30.6,0,0,0,2.78-8.75c.42-2.67.87-5.84-.89-8.15a6.58,6.58,0,0,0-4.35-2.44,7.11,7.11,0,0,0-1.11-.09c-4.28,0-8,3.62-9.49,6.71-2.64,5.59-2.19,14.61,2.82,18.89-.44-.38-.08,0-1.47.2a9.12,9.12,0,0,1-5.45-.62A21.59,21.59,0,0,1,271.9,229a57.14,57.14,0,0,1-7.77-8.16c-8.34-10-12.73-22.69-12-34.76A44.83,44.83,0,0,1,280.86,147a48.57,48.57,0,0,1,34.73,0,44.83,44.83,0,0,1,28.78,39.1c.68,12.07-3.71,24.74-12.05,34.76-1,1.19-2.05,2.36-3.16,3.58-3.18,3.55-6.47,7.21-8.38,11.74-3.76,8.94-3.43,17.51-3.07,26.79.08,2.25.16,4.52.18,6.86a9.23,9.23,0,0,1-.59,3.84c-1.06,2.25-4,4.1-7.09,4.39H287.45c-3.26-.29-6.28-2.1-7.35-4.4-.53-1.15-1.2-14.59-.76-16.56a84.21,84.21,0,0,0,16.22,1.68,54.45,54.45,0,0,0,14.94-1.91,2.51,2.51,0,0,0,1.58-1.24,2.16,2.16,0,0,0,.15-1.74,2.61,2.61,0,0,0-2.49-1.71,3,3,0,0,0-.78.1,48.47,48.47,0,0,1-13.3,1.68,76.86,76.86,0,0,1-18.58-2.36,2.92,2.92,0,0,0-.75-.1,2.72,2.72,0,0,0-1.51.44,2.42,2.42,0,0,0-1.11,1.81c-.21,3.14.67,19.83,1.59,21.81,1.88,4,6.44,6.81,11.91,7.29h23.25c5.22-.47,9.79-3.33,11.63-7.28a13.17,13.17,0,0,0,1-5.78c0-2.34-.09-4.62-.2-7.38-.32-8.48-.62-16.49,2.74-24.49,1.52-3.62,4.21-6.7,7.11-9.91l.46-.53c1.1-1.22,2.2-2.45,3.25-3.71C345.55,212.87,350.33,199.06,349.58,185.87ZM285,215.28a9.39,9.39,0,0,1,.85-1.51c.85-1.2,3.24-2.58,4.84-2.14,2.26.63,1.16,4.73.87,6.29-.55,3-2.1,8.54-4.78,11.33.37.56-1.58-2.72-1.65-2.88A14.87,14.87,0,0,1,285,215.28Z"/><path class="cls-2" d="M250.62,149.38h0a2.72,2.72,0,0,1-3.84,0l-4.46-4.47a2.73,2.73,0,0,1,0-3.85h0a2.72,2.72,0,0,1,3.84,0l4.46,4.47A2.73,2.73,0,0,1,250.62,149.38Z"/><path class="cls-2" d="M353.25,141.49h0a2.74,2.74,0,0,1,0,3.86l-4.46,4.47a2.73,2.73,0,0,1-3.85,0h0a2.76,2.76,0,0,1,0-3.86l4.46-4.47A2.73,2.73,0,0,1,353.25,141.49Z"/><path class="cls-2" d="M251.21,231.13h0a2.73,2.73,0,0,0-3.85,0l-4.46,4.47a2.74,2.74,0,0,0,0,3.86h0a2.73,2.73,0,0,0,3.85,0l4.46-4.47A2.74,2.74,0,0,0,251.21,231.13Z"/><path class="cls-2" d="M353.84,239h0a2.75,2.75,0,0,0,0-3.85l-4.47-4.48a2.72,2.72,0,0,0-3.84,0h0a2.74,2.74,0,0,0,0,3.86L350,239A2.73,2.73,0,0,0,353.84,239Z"/><path class="cls-2" d="M300.61,118h0a2.74,2.74,0,0,1,2.73,2.72V127a2.72,2.72,0,0,1-2.72,2.72h0A2.74,2.74,0,0,1,297.9,127v-6.32A2.73,2.73,0,0,1,300.61,118Z"/><path class="cls-2" d="M359.11,191.17h0a2.74,2.74,0,0,1,2.73-2.72h6.31a2.72,2.72,0,0,1,2.72,2.72h0a2.74,2.74,0,0,1-2.72,2.73h-6.32A2.72,2.72,0,0,1,359.11,191.17Z"/><path class="cls-2" d="M225.2,191.17h0a2.74,2.74,0,0,1,2.73-2.72h6.32a2.73,2.73,0,0,1,2.72,2.72h0a2.75,2.75,0,0,1-2.73,2.73h-6.32A2.72,2.72,0,0,1,225.2,191.17Z"/></svg>