<svg id="Layer_1" data-name="Layer 1" xmlns="http://www.w3.org/2000/svg" viewBox="0 0 595.28 595.28"><defs><style>.cls-1{fill:#232b49;}.cls-2{fill:#f9b233;}.cls-3{fill:#fff;}</style></defs><title>Logo_darker blue back</title><rect class="cls-1" x="-1.01" y="0.62" width="595.15" height="595.15"/><path class="cls-2" d="M144.67,289.82a28.61,28.61,0,0,0-18.41-24.93,32.17,32.17,0,0,0-10.75-2.05h-.57l-.24,0a32,32,0,0,0-10.75,2,28.6,28.6,0,0,0-18.4,24.93,31.83,31.83,0,0,0,7.55,21.82c2.88,3.46,6.32,7.89,11.25,8a7,7,0,0,0,2.51-.28,9.13,9.13,0,0,1,1.73-.44c2.1,1.39,4.26,1.68,6.07.75a7.72,7.72,0,0,0,3.31-4.17c.59-1.44.8-3.23,1.46-4.6.16,0,.66.64.78.74a11,11,0,0,1,1.51,1.68,3.48,3.48,0,0,1,.9,2,2,2,0,0,1-.87,1.68,3.07,3.07,0,0,1-2.4.54,1.51,1.51,0,0,0-1.12.14,1.36,1.36,0,0,0-.67.85,1.26,1.26,0,0,0,.13,1,1.56,1.56,0,0,0,1,.68,6.77,6.77,0,0,0,1.41.16,6,6,0,0,0,3.58-1.21,4.71,4.71,0,0,0,2-3.9c0-1.87-1.23-3.36-2.5-4.7a13.32,13.32,0,0,0-1.13-1.13,4.19,4.19,0,0,1-1.58-2.39,2,2,0,0,1,.78-2.18,4.74,4.74,0,0,1,3.11-.08,1.4,1.4,0,0,0,1.45-.94,1.28,1.28,0,0,0-.15-1,1.68,1.68,0,0,0-1-.78,8.21,8.21,0,0,0-4.39.16c-2.28.73-2.79,2.91-3,5.09A24.32,24.32,0,0,1,116,312.6c-.52,1.6-1.07,3.89-2.73,4.67a2.15,2.15,0,0,1-2.66-.75c.61-1.2,1.37-2.29,2-3.49a17.85,17.85,0,0,0,1.6-5c.24-1.53.5-3.36-.52-4.69a3.75,3.75,0,0,0-2.5-1.4,3.52,3.52,0,0,0-.64,0c-2.46,0-4.63,2.08-5.46,3.86-1.52,3.22-1.26,8.41,1.62,10.87-.25-.22,0,0-.84.11a5.21,5.21,0,0,1-3.14-.35,12.26,12.26,0,0,1-2.69-1.68,32.66,32.66,0,0,1-4.48-4.7,29.23,29.23,0,0,1-6.93-20,25.8,25.8,0,0,1,16.56-22.51,27.93,27.93,0,0,1,20,0A25.79,25.79,0,0,1,141.67,290a29.24,29.24,0,0,1-6.94,20c-.57.69-1.18,1.36-1.81,2.06a24.82,24.82,0,0,0-4.83,6.76c-2.16,5.15-2,10.08-1.77,15.42.05,1.29.1,2.6.11,3.95a5.4,5.4,0,0,1-.34,2.21,5.17,5.17,0,0,1-4.08,2.52H108.9a5.22,5.22,0,0,1-4.22-2.53,52.26,52.26,0,0,1-.44-9.53,48.31,48.31,0,0,0,9.33,1,31.75,31.75,0,0,0,8.6-1.09,1.48,1.48,0,0,0,.91-.72,1.25,1.25,0,0,0,.09-1,1.51,1.51,0,0,0-1.44-1,1.72,1.72,0,0,0-.44.06,28.09,28.09,0,0,1-7.66,1,44.21,44.21,0,0,1-10.69-1.36,1.72,1.72,0,0,0-.44-.06,1.6,1.6,0,0,0-.86.25,1.37,1.37,0,0,0-.64,1c-.13,1.81.38,11.41.91,12.55,1.08,2.31,3.71,3.92,6.86,4.2h13.38a8.09,8.09,0,0,0,6.7-4.19,7.49,7.49,0,0,0,.58-3.32c0-1.35-.05-2.67-.11-4.25-.19-4.88-.36-9.49,1.57-14.1a21.54,21.54,0,0,1,4.09-5.71l.27-.3c.63-.7,1.27-1.41,1.87-2.13A31.83,31.83,0,0,0,144.67,289.82Zm-37.2,16.93a4.14,4.14,0,0,1,.49-.87,3.13,3.13,0,0,1,2.78-1.23c1.3.35.67,2.72.5,3.62-.31,1.74-1.21,4.91-2.75,6.52.21.32-.91-1.57-.95-1.66A8.58,8.58,0,0,1,107.47,306.75Z"/><path class="cls-2" d="M87.71,268.81h0a1.56,1.56,0,0,1-2.21,0l-2.57-2.57a1.58,1.58,0,0,1,0-2.22h0a1.56,1.56,0,0,1,2.21,0l2.57,2.58A1.56,1.56,0,0,1,87.71,268.81Z"/><path class="cls-2" d="M146.78,264.27h0a1.58,1.58,0,0,1,0,2.22l-2.57,2.58a1.56,1.56,0,0,1-2.21,0h0a1.58,1.58,0,0,1,0-2.22l2.57-2.58A1.56,1.56,0,0,1,146.78,264.27Z"/><path class="cls-2" d="M88.05,315.87h0a1.58,1.58,0,0,0-2.22,0l-2.57,2.57a1.59,1.59,0,0,0,0,2.22h0a1.58,1.58,0,0,0,2.22,0l2.57-2.57A1.58,1.58,0,0,0,88.05,315.87Z"/><path class="cls-2" d="M147.12,320.41h0a1.58,1.58,0,0,0,0-2.22l-2.57-2.57a1.58,1.58,0,0,0-2.22,0h0a1.59,1.59,0,0,0,0,2.22l2.57,2.57A1.58,1.58,0,0,0,147.12,320.41Z"/><path class="cls-2" d="M116.48,250.74h0a1.57,1.57,0,0,1,1.57,1.57V256a1.56,1.56,0,0,1-1.57,1.56h0a1.57,1.57,0,0,1-1.57-1.56v-3.64A1.57,1.57,0,0,1,116.48,250.74Z"/><path class="cls-2" d="M150.15,292.87h0a1.58,1.58,0,0,1,1.57-1.57h3.64a1.57,1.57,0,0,1,1.56,1.57h0a1.57,1.57,0,0,1-1.57,1.57h-3.63A1.57,1.57,0,0,1,150.15,292.87Z"/><path class="cls-2" d="M73.08,292.87h0a1.57,1.57,0,0,1,1.57-1.57h3.63a1.58,1.58,0,0,1,1.57,1.57h0a1.58,1.58,0,0,1-1.57,1.57H74.64A1.56,1.56,0,0,1,73.08,292.87Z"/><path class="cls-3" d="M196.21,289.07a2.92,2.92,0,0,0,2.85-2.9,2.89,2.89,0,0,0-2.85-2.84H177.72a2.81,2.81,0,0,0-2.85,2.84v33.37a2.9,2.9,0,0,0,3,2.84h18.32a2.87,2.87,0,0,0,0-5.74l-15.59-.27.27-10.67h13.18a2.88,2.88,0,0,0,2.84-2.9,2.92,2.92,0,0,0-2.85-2.84l-13.44-.27.27-10.62Z"/><path class="cls-3" d="M214.51,294.64a14.89,14.89,0,0,0-6.23,1.59,2.78,2.78,0,0,0-2.53-1.59,2.7,2.7,0,0,0-2.73,2.73v22.28a2.7,2.7,0,0,0,2.73,2.73,2.86,2.86,0,0,0,2.74-2.25s.1-.47.1-.48V306.14a5.88,5.88,0,0,1,5.92-6,6.07,6.07,0,0,1,6.15,6v13.51a2.8,2.8,0,0,0,2.74,2.73,2.7,2.7,0,0,0,2.67-2.73V306.14A11.54,11.54,0,0,0,214.51,294.64Z"/><path class="cls-3" d="M244.33,294.64a13.87,13.87,0,0,0,0,27.74,14.05,14.05,0,0,0,9.95-3.65,2,2,0,0,0,.69-1.44,2.74,2.74,0,0,0-.72-1.88,2.3,2.3,0,0,0-1.74-.62,3,3,0,0,0-2.13.83,9.09,9.09,0,0,1-5.25,1.51,7.38,7.38,0,0,1-.82,0,9,9,0,0,1-5.59-2.61,6.07,6.07,0,0,1-1.74-4.2h18a2.49,2.49,0,0,0,2.69-2.21c0-.48,0-.57,0-.56A13.22,13.22,0,0,0,244.33,294.64Zm-7.89,11.05a8.21,8.21,0,0,1,7.88-6.21h0c5.15.42,8.06,4,8.34,6.53Z"/><path class="cls-3" d="M276.13,294.7a12.18,12.18,0,0,0-6.75,2.16,8.58,8.58,0,0,1-1.44,1,1.28,1.28,0,0,1-.17-.45,2.76,2.76,0,0,0-2.84-2.67,2.7,2.7,0,0,0-2.73,2.67v22.28a2.77,2.77,0,0,0,2.73,2.73,2.82,2.82,0,0,0,2.84-2.73l.11-11.08a16.71,16.71,0,0,1,2.25-4.56,8.7,8.7,0,0,1,2.67-2.78,5.63,5.63,0,0,1,3.56-1.13,2.71,2.71,0,1,0-.23-5.4Z"/><path class="cls-3" d="M303.33,294.64a3.62,3.62,0,0,0-3.16,2.33,12.49,12.49,0,0,0-7.42-2.33,13.12,13.12,0,0,0-9.42,4.1,14.66,14.66,0,0,0-3.88,9.88,13.86,13.86,0,0,0,3.88,9.78,12.83,12.83,0,0,0,9.42,4.21,18.13,18.13,0,0,0,7.67-1.94,7.81,7.81,0,0,1-7.67,6.27,7,7,0,0,1-3.33-.82,3.17,3.17,0,0,0-1.24-.26,2.78,2.78,0,0,0-1.24,5.27,13,13,0,0,0,5.81,1.38,13.32,13.32,0,0,0,13.31-13.31V297.37A2.7,2.7,0,0,0,303.33,294.64Zm-5,20a7.39,7.39,0,0,1-5.57,2.41,7.1,7.1,0,0,1-5.39-2.4,8.82,8.82,0,0,1,0-12,7,7,0,0,1,5.4-2.52,7.28,7.28,0,0,1,5.57,2.51,9.14,9.14,0,0,1,2.22,5.95A8.81,8.81,0,0,1,298.32,314.63Z"/><path class="cls-3" d="M332.14,294.64a2.65,2.65,0,0,0-2.68,2.73v13.35a6.12,6.12,0,0,1-12.24,0V297.37a2.64,2.64,0,0,0-2.73-2.73,2.73,2.73,0,0,0-2.67,2.73v13.35a11.59,11.59,0,0,0,11.55,11.61,20,20,0,0,0,5.63-1,7.7,7.7,0,0,1-7.33,5.33,7.85,7.85,0,0,1-3.41-.82,2.42,2.42,0,0,0-1.15-.28,2.91,2.91,0,0,0-2.49,1.39,3,3,0,0,0-.1,2.16,2.54,2.54,0,0,0,1.45,1.51,13.08,13.08,0,0,0,18.95-11.86V297.37A2.76,2.76,0,0,0,332.14,294.64Z"/><path class="cls-3" d="M378.94,301a33.34,33.34,0,0,0-7.94-2.38,19.8,19.8,0,0,1-7-2.47,5.47,5.47,0,0,1-1.5-1.44,2.64,2.64,0,0,1-.38-1.52,4.49,4.49,0,0,1,2.1-3.48,10.74,10.74,0,0,1,6.28-1.9c3.36,0,6.08,1.63,9,3.6a3,3,0,0,0,1.67.51,3,3,0,0,0,2.5-1.39,2.82,2.82,0,0,0,.46-2.13,3.38,3.38,0,0,0-1.44-2.15c-2.9-1.87-6.87-4.43-12.23-4.43a16.89,16.89,0,0,0-9.86,3,10.53,10.53,0,0,0-4.57,8.35,8.91,8.91,0,0,0,1.32,4.7,12.4,12.4,0,0,0,5.31,4.45,30.4,30.4,0,0,0,7.44,2.21,22.33,22.33,0,0,1,7.7,2.64,5.29,5.29,0,0,1,1.67,1.66,3.16,3.16,0,0,1,.49,1.75,5,5,0,0,1-2.39,4,12.14,12.14,0,0,1-7.14,2.07c-3.91,0-8.15-2.34-10.6-4.34a3,3,0,0,0-1.93-.68,3,3,0,0,0-2.35,1.1A3.12,3.12,0,0,0,356,317c3.25,2.56,8.41,5.62,14.55,5.68h0a17.87,17.87,0,0,0,10.52-3.25A11,11,0,0,0,386,310.6a9.39,9.39,0,0,0-1.37-4.87A13.37,13.37,0,0,0,378.94,301Z"/><path class="cls-3" d="M403.29,294.64a18.41,18.41,0,0,0-8,2.1,2.85,2.85,0,0,0-2.85-2.1,2.73,2.73,0,0,0-2.73,2.73v32.86a2.83,2.83,0,0,0,2.73,2.79,2.91,2.91,0,0,0,2.95-2.79l.43-10.18a12.67,12.67,0,0,0,7.42,2.28,13.85,13.85,0,0,0,0-27.69Zm5.51,19.77a7.49,7.49,0,0,1-5.51,2.46,7.26,7.26,0,0,1-5.55-2.44,7.76,7.76,0,0,1-2.3-5.86,8.24,8.24,0,0,1,2.28-5.9,7.39,7.39,0,0,1,5.57-2.4,7.62,7.62,0,0,1,5.51,2.41,9,9,0,0,1,2.28,5.89A8.5,8.5,0,0,1,408.8,314.41Z"/><path class="cls-3" d="M443.24,294.64c-1.27,0-2.35.89-3.1,2.44a12.49,12.49,0,0,0-7.36-2.44,12.8,12.8,0,0,0-9.42,4.16,14,14,0,0,0-3.78,9.77,14.21,14.21,0,0,0,3.78,9.77,12.91,12.91,0,0,0,9.42,4,16,16,0,0,0,7.78-2.22,2.79,2.79,0,0,0,2.68,2.22,2.73,2.73,0,0,0,2.73-2.73V297.43A2.76,2.76,0,0,0,443.24,294.64Zm-5,19.94a7.61,7.61,0,0,1-5.45,2.29,7.42,7.42,0,0,1-5.46-2.29,8.82,8.82,0,0,1-2.22-6,8.59,8.59,0,0,1,2.21-6,7.14,7.14,0,0,1,5.47-2.41,7.25,7.25,0,0,1,5.45,2.4,8.58,8.58,0,0,1,2.28,6A8.83,8.83,0,0,1,438.23,314.58Z"/><path class="cls-3" d="M467,294.7a12.15,12.15,0,0,0-6.75,2.16,9,9,0,0,1-1.44,1,1.28,1.28,0,0,1-.17-.45,2.77,2.77,0,0,0-2.85-2.67,2.71,2.71,0,0,0-2.73,2.67v22.28a2.77,2.77,0,0,0,2.73,2.73,2.83,2.83,0,0,0,2.85-2.73l.1-11.08A16.8,16.8,0,0,1,461,304a8.79,8.79,0,0,1,2.66-2.78,5.65,5.65,0,0,1,3.56-1.13,2.71,2.71,0,1,0-.22-5.4Z"/><path class="cls-3" d="M496.08,296.41a2.88,2.88,0,0,0-4.89-2.07l-12,11.4V286.17a2.88,2.88,0,0,0-2.91-2.84,2.84,2.84,0,0,0-2.84,2.84v33.37a2.84,2.84,0,0,0,2.84,2.84,2.88,2.88,0,0,0,2.91-2.84l.08-5.17,3.5-3.08,8.32,10.07a2.8,2.8,0,0,0,4,.35,2.8,2.8,0,0,0,1-1.87,2.91,2.91,0,0,0-.62-2.16l-8.7-10.83,8.49-8.49A2.7,2.7,0,0,0,496.08,296.41Z"/><path class="cls-3" d="M519,310.24a8.6,8.6,0,0,0-3.91-3.24,21.5,21.5,0,0,0-5.3-1.67,11.72,11.72,0,0,1-4.21-1.4,1.54,1.54,0,0,1-.71-.64,3.48,3.48,0,0,1-.17-.6,1.92,1.92,0,0,1,1-1.52,6.1,6.1,0,0,1,3.55-1.07c1.94,0,3.57,1,5.35,2.14a2.76,2.76,0,0,0,1.56.48,2.69,2.69,0,0,0,2.25-1.19,2.86,2.86,0,0,0-.83-3.83,14.34,14.34,0,0,0-8.33-3.06,11.92,11.92,0,0,0-6.79,2,7.63,7.63,0,0,0-3.24,6,6.61,6.61,0,0,0,.92,3.41,9.21,9.21,0,0,0,3.79,3.19,21.82,21.82,0,0,0,4.92,1.45,13.32,13.32,0,0,1,4.62,1.62c.48.3.76.57.81.76a1.07,1.07,0,0,1,.21.71,2.65,2.65,0,0,1-1.14,1.93,8,8,0,0,1-4.12,1.11,10.73,10.73,0,0,1-6.26-2.55,2.67,2.67,0,0,0-3.86.41,2.72,2.72,0,0,0-.59,2,2.62,2.62,0,0,0,.94,1.8,16,16,0,0,0,9.91,3.84,12.5,12.5,0,0,0,7.19-2.21,7.86,7.86,0,0,0,3.45-6.34A7,7,0,0,0,519,310.24Z"/><polygon class="cls-3" points="509.41 322.38 509.41 322.38 509.41 322.38 509.41 322.38"/></svg>