<svg id="Layer_1" data-name="Layer 1" xmlns="http://www.w3.org/2000/svg" viewBox="0 0 595.28 595.28"><defs><style>.cls-1{fill:#232b49;}.cls-2{fill:#f9b233;}.cls-3{fill:#fff;}</style></defs><title>Logo_darker blue back</title><rect class="cls-1" x="0.05" y="-0.76" width="594.04" height="594.33"/><path class="cls-2" d="M93.71,394.8V379.69a1.4,1.4,0,0,1,1.41-1.41,1.41,1.41,0,0,1,1.43,1.41v6.15h6.63v-6.15a1.4,1.4,0,0,1,1.41-1.41,1.42,1.42,0,0,1,1.44,1.41V394.8a1.41,1.41,0,0,1-1.44,1.4,1.39,1.39,0,0,1-1.41-1.4v-6.15H96.55v6.15a1.4,1.4,0,0,1-1.43,1.4A1.39,1.39,0,0,1,93.71,394.8Z"/><path class="cls-2" d="M108.64,389.8a6.34,6.34,0,0,1,6.25-6.4,6.12,6.12,0,0,1,6.17,5.94v.13a.9.9,0,0,1,0,.23,1.24,1.24,0,0,1-1.34,1h-8.14a3.36,3.36,0,0,0,.87,1.68,4,4,0,0,0,2.46,1.16,4.26,4.26,0,0,0,2.66-.64,1.44,1.44,0,0,1,1.92-.08,1.16,1.16,0,0,1,0,1.66,6.42,6.42,0,0,1-4.58,1.69A6.35,6.35,0,0,1,108.64,389.8Zm2.79-1.25h7.25a4.16,4.16,0,0,0-3.79-2.71A3.58,3.58,0,0,0,111.43,388.55Z"/><path class="cls-2" d="M124.16,378.28a1.43,1.43,0,0,1,1.44,1.41V394.8a1.42,1.42,0,0,1-2.84,0V379.69A1.42,1.42,0,0,1,124.16,378.28Z"/><path class="cls-2" d="M128.19,399.64V384.76a1.37,1.37,0,0,1,1.35-1.36,1.41,1.41,0,0,1,1.41,1.05,6.55,6.55,0,0,1,3.48-1.05,6.35,6.35,0,0,1,6.2,6.43,6.28,6.28,0,0,1-6.2,6.35,6,6,0,0,1-3.43-1.05v4.51a1.45,1.45,0,0,1-1.46,1.38A1.4,1.4,0,0,1,128.19,399.64Zm2.81-9.81a3.4,3.4,0,0,0,1,2.56,3.14,3.14,0,0,0,2.43,1.07,3.27,3.27,0,0,0,2.41-1.07,3.73,3.73,0,0,0,1-2.56,4,4,0,0,0-1-2.59,3.36,3.36,0,0,0-2.41-1.05,3.23,3.23,0,0,0-2.43,1.05A3.59,3.59,0,0,0,131,389.83Z"/><path class="cls-2" d="M145.81,380.2a1.39,1.39,0,1,1-2.77,0v-.54a1.39,1.39,0,0,1,2.77,0Zm0,4.64v10a1.39,1.39,0,0,1-2.77,0v-10a1.39,1.39,0,1,1,2.77,0Z"/><path class="cls-2" d="M159.61,388.73v6.12a1.34,1.34,0,0,1-1.33,1.35,1.38,1.38,0,0,1-1.36-1.35v-6.12a2.63,2.63,0,0,0-2.66-2.59,2.55,2.55,0,0,0-2.56,2.59v6.12a.43.43,0,0,1-.06.25,1.38,1.38,0,0,1-1.35,1.1,1.35,1.35,0,0,1-1.36-1.35V384.76a1.35,1.35,0,0,1,1.36-1.36,1.37,1.37,0,0,1,1.25.8,5.11,5.11,0,0,1,2.72-.8A5.36,5.36,0,0,1,159.61,388.73Z"/><path class="cls-2" d="M174.79,389.88v4.76a6.16,6.16,0,0,1-6.14,6.15,5.93,5.93,0,0,1-2.69-.64,1.37,1.37,0,0,1-.61-1.85,1.39,1.39,0,0,1,1.84-.64,3.09,3.09,0,0,0,1.46.36,3.43,3.43,0,0,0,3.35-2.74,5.88,5.88,0,0,1-7.7-.92,6.41,6.41,0,0,1-1.79-4.51,6.71,6.71,0,0,1,1.79-4.55,6.06,6.06,0,0,1,4.35-1.9,5.79,5.79,0,0,1,3.43,1.08,1.38,1.38,0,0,1,1.36-1.08,1.35,1.35,0,0,1,1.35,1.36v5.12Zm-2.74,0a4,4,0,0,0-1-2.61,3.21,3.21,0,0,0-2.43-1.1,3.11,3.11,0,0,0-2.36,1.1,3.8,3.8,0,0,0-1,2.61,3.71,3.71,0,0,0,1,2.64,3.13,3.13,0,0,0,2.36,1.05,3.23,3.23,0,0,0,2.43-1.05A3.86,3.86,0,0,0,172.05,389.85Z"/><path class="cls-2" d="M184.76,392.54a1.33,1.33,0,0,1,1.92-.2,4.7,4.7,0,0,0,2.82,1.12,3.48,3.48,0,0,0,1.74-.48,1.06,1.06,0,0,0,.46-.77.4.4,0,0,0-.08-.26q0-.1-.33-.3a5.9,5.9,0,0,0-2-.72h0a9.37,9.37,0,0,1-2.23-.67,4.27,4.27,0,0,1-1.77-1.48,3.1,3.1,0,0,1-.43-1.61,3.58,3.58,0,0,1,1.51-2.82,5.53,5.53,0,0,1,3.15-1,6.62,6.62,0,0,1,3.84,1.41,1.43,1.43,0,0,1,.41,1.9,1.36,1.36,0,0,1-1.9.35,4.42,4.42,0,0,0-2.35-.94,2.59,2.59,0,0,0-1.54.46.79.79,0,0,0-.41.59.28.28,0,0,0,.05.2.78.78,0,0,0,.28.26,5.23,5.23,0,0,0,1.87.61l0,0h0a8.92,8.92,0,0,1,2.38.74,3.91,3.91,0,0,1,1.82,1.51,3.29,3.29,0,0,1,.49,1.69,3.71,3.71,0,0,1-1.61,3,5.86,5.86,0,0,1-3.33,1,7.39,7.39,0,0,1-4.56-1.76A1.38,1.38,0,0,1,184.76,392.54Z"/><path class="cls-2" d="M195.8,389.83a6.52,6.52,0,0,1,6.5-6.43,6.77,6.77,0,0,1,4.07,1.41,1.41,1.41,0,0,1,.28,1.9,1.37,1.37,0,0,1-1.92.25,4.1,4.1,0,0,0-2.43-.82,3.68,3.68,0,1,0,0,7.35,4.11,4.11,0,0,0,2.43-.82,1.4,1.4,0,0,1,1.92.28,1.42,1.42,0,0,1-.28,1.9,7.06,7.06,0,0,1-4.07,1.35A6.48,6.48,0,0,1,195.8,389.83Z"/><path class="cls-2" d="M212.11,394.8a1.4,1.4,0,0,1-1.43,1.4,1.46,1.46,0,0,1-1.36-1.05,1.84,1.84,0,0,1,0-.35V379.69a1.42,1.42,0,0,1,2.84,0v4.46a5.79,5.79,0,0,1,2.74-.75,5.6,5.6,0,0,1,5.58,5.61v5.79a1.41,1.41,0,0,1-2.81,0V389a2.76,2.76,0,1,0-5.51,0Z"/><path class="cls-2" d="M224.1,394.34a6.42,6.42,0,0,1-1.77-4.51,6.62,6.62,0,0,1,1.77-4.48,6,6,0,0,1,4.4-2,5.69,5.69,0,0,1,4.28,2,6.41,6.41,0,0,1,1.79,4.48,6.22,6.22,0,0,1-1.79,4.51,5.68,5.68,0,0,1-4.28,1.94A6,6,0,0,1,224.1,394.34Zm1-4.51a4.12,4.12,0,0,0,.93,2.71,3.43,3.43,0,0,0,2.45.95,3.34,3.34,0,0,0,2.36-.95,3.91,3.91,0,0,0,1-2.71,3.84,3.84,0,0,0-1-2.66,3.59,3.59,0,0,0-2.36-1,3.68,3.68,0,0,0-2.45,1A4,4,0,0,0,225.12,389.83Z"/><path class="cls-2" d="M238.06,394.34a6.42,6.42,0,0,1-1.77-4.51,6.62,6.62,0,0,1,1.77-4.48,6,6,0,0,1,4.4-2,5.69,5.69,0,0,1,4.28,2,6.41,6.41,0,0,1,1.79,4.48,6.22,6.22,0,0,1-1.79,4.51,5.68,5.68,0,0,1-4.28,1.94A6,6,0,0,1,238.06,394.34Zm1-4.51a4.16,4.16,0,0,0,.92,2.71,3.45,3.45,0,0,0,2.46.95,3.34,3.34,0,0,0,2.36-.95,3.91,3.91,0,0,0,1-2.71,3.84,3.84,0,0,0-1-2.66,3.59,3.59,0,0,0-2.36-1,3.71,3.71,0,0,0-2.46,1A4.08,4.08,0,0,0,239.08,389.83Z"/><path class="cls-2" d="M252.43,378.28a1.43,1.43,0,0,1,1.43,1.41V394.8a1.42,1.42,0,0,1-2.84,0V379.69A1.42,1.42,0,0,1,252.43,378.28Z"/><path class="cls-2" d="M255.83,392.54a1.33,1.33,0,0,1,1.92-.2,4.7,4.7,0,0,0,2.82,1.12,3.48,3.48,0,0,0,1.74-.48,1.06,1.06,0,0,0,.46-.77.35.35,0,0,0-.08-.26c0-.07-.12-.17-.33-.3a5.9,5.9,0,0,0-2.05-.72h0a9.51,9.51,0,0,1-2.23-.67,4.27,4.27,0,0,1-1.77-1.48,3.1,3.1,0,0,1-.43-1.61,3.58,3.58,0,0,1,1.51-2.82,5.53,5.53,0,0,1,3.15-1,6.62,6.62,0,0,1,3.84,1.41,1.43,1.43,0,0,1,.41,1.9,1.36,1.36,0,0,1-1.9.35,4.42,4.42,0,0,0-2.35-.94,2.59,2.59,0,0,0-1.54.46.79.79,0,0,0-.41.59.28.28,0,0,0,.05.2.85.85,0,0,0,.29.26,5.09,5.09,0,0,0,1.86.61l0,0h0a9.15,9.15,0,0,1,2.38.74,3.94,3.94,0,0,1,1.81,1.51,3.29,3.29,0,0,1,.49,1.69,3.71,3.71,0,0,1-1.61,3,5.83,5.83,0,0,1-3.33,1,7.41,7.41,0,0,1-4.56-1.76A1.38,1.38,0,0,1,255.83,392.54Z"/><path class="cls-2" d="M278.37,382.56v.36h.77a1.4,1.4,0,0,1,1.41,1.4,1.42,1.42,0,0,1-1.41,1.41h-.77v9a1.41,1.41,0,0,1-2.82,0v-9h-.66a1.43,1.43,0,0,1-1.44-1.41,1.41,1.41,0,0,1,1.44-1.4h.66v-.36a5.35,5.35,0,0,1,.49-2.51,3,3,0,0,1,1.84-1.59,5.3,5.3,0,0,1,1.54-.2,1.42,1.42,0,0,1,0,2.84,1.69,1.69,0,0,0-.67.08.29.29,0,0,0-.15.07S278.37,381.61,278.37,382.56Z"/><path class="cls-2" d="M285,380.2a1.38,1.38,0,1,1-2.76,0v-.54a1.38,1.38,0,1,1,2.76,0Zm0,4.64v10a1.38,1.38,0,0,1-2.76,0v-10a1.38,1.38,0,1,1,2.76,0Z"/><path class="cls-2" d="M299.52,389.88v4.76a6.16,6.16,0,0,1-6.14,6.15,5.93,5.93,0,0,1-2.69-.64,1.37,1.37,0,0,1-.62-1.85,1.4,1.4,0,0,1,1.85-.64,3.06,3.06,0,0,0,1.46.36,3.43,3.43,0,0,0,3.35-2.74,5.9,5.9,0,0,1-7.71-.92,6.41,6.41,0,0,1-1.79-4.51A6.71,6.71,0,0,1,289,385.3a6.1,6.1,0,0,1,4.36-1.9,5.79,5.79,0,0,1,3.43,1.08,1.37,1.37,0,0,1,1.35-1.08,1.35,1.35,0,0,1,1.36,1.36v5.12Zm-2.74,0a4,4,0,0,0-1-2.61,3.22,3.22,0,0,0-2.43-1.1,3.11,3.11,0,0,0-2.36,1.1,3.8,3.8,0,0,0-1,2.61,3.71,3.71,0,0,0,1,2.64,3.13,3.13,0,0,0,2.36,1.05,3.25,3.25,0,0,0,2.43-1.05A3.91,3.91,0,0,0,296.78,389.85Z"/><path class="cls-2" d="M305.26,394.8a1.4,1.4,0,0,1-1.43,1.4,1.46,1.46,0,0,1-1.36-1.05,1.84,1.84,0,0,1-.05-.35V379.69a1.42,1.42,0,0,1,2.84,0v4.46a5.79,5.79,0,0,1,2.74-.75,5.6,5.6,0,0,1,5.58,5.61v5.79a1.41,1.41,0,0,1-2.81,0V389a2.76,2.76,0,1,0-5.51,0Z"/><path class="cls-2" d="M322.6,384.81a1.45,1.45,0,0,1-1.43,1.41h-.64v7.14a1.41,1.41,0,0,1,1.4,1.44,1.38,1.38,0,0,1-1.4,1.4,2.85,2.85,0,0,1-2.85-2.84v-7.14h-.74a1.41,1.41,0,0,1,0-2.82h.74v-3.71a1.42,1.42,0,0,1,1.44-1.41,1.4,1.4,0,0,1,1.41,1.41v3.71h.64A1.43,1.43,0,0,1,322.6,384.81Z"/><path class="cls-2" d="M331.31,389.83a6.52,6.52,0,0,1,6.5-6.43,6.77,6.77,0,0,1,4.07,1.41,1.41,1.41,0,0,1,.28,1.9,1.37,1.37,0,0,1-1.92.25,4.1,4.1,0,0,0-2.43-.82,3.68,3.68,0,1,0,0,7.35,4.11,4.11,0,0,0,2.43-.82,1.4,1.4,0,0,1,1.92.28,1.42,1.42,0,0,1-.28,1.9,7.06,7.06,0,0,1-4.07,1.35A6.48,6.48,0,0,1,331.31,389.83Z"/><path class="cls-2" d="M345.86,378.28a1.43,1.43,0,0,1,1.43,1.41V394.8a1.42,1.42,0,0,1-2.84,0V379.69A1.42,1.42,0,0,1,345.86,378.28Z"/><path class="cls-2" d="M352.16,380.2a1.39,1.39,0,0,1-1.39,1.41,1.4,1.4,0,0,1-1.38-1.41v-.54a1.38,1.38,0,0,1,1.38-1.38,1.37,1.37,0,0,1,1.39,1.38Zm0,4.64v10a1.36,1.36,0,0,1-1.39,1.38,1.38,1.38,0,0,1-1.38-1.38v-10a1.37,1.37,0,0,1,1.38-1.41A1.36,1.36,0,0,1,352.16,384.84Z"/><path class="cls-2" d="M366,388.7v6.15a1.36,1.36,0,0,1-1.35,1.35,1.41,1.41,0,0,1-1.39-1.35V388.7a2.61,2.61,0,0,0-5.22.08v6.07s0,.12,0,.18v.07s0,.11-.08.16v.12a1.47,1.47,0,0,1-1.28.82l-.26,0a1.41,1.41,0,0,1-1.1-1.33V384.79a1.36,1.36,0,0,1,1.36-1.39,1.3,1.3,0,0,1,1.23.77,5.38,5.38,0,0,1,6.76,1,5.26,5.26,0,0,1,4-1.77,5.35,5.35,0,0,1,5.32,5.38v6.07a1.36,1.36,0,0,1-1.36,1.35,1.38,1.38,0,0,1-1.38-1.35v-6.07a2.63,2.63,0,0,0-2.58-2.64A2.66,2.66,0,0,0,366,388.7Z"/><path class="cls-2" d="M387.91,389.83v5a1.36,1.36,0,0,1-2.69.25,5.83,5.83,0,0,1-3.41,1.1,5.94,5.94,0,0,1-4.35-1.86,6.57,6.57,0,0,1-1.74-4.51,6.48,6.48,0,0,1,1.74-4.51,5.92,5.92,0,0,1,4.35-1.92,5.86,5.86,0,0,1,3.41,1.13,1.35,1.35,0,0,1,2.69.26Zm-2.72,0a3.74,3.74,0,0,0-1-2.64,3.15,3.15,0,0,0-2.38-1.05,3.09,3.09,0,0,0-2.38,1.05,3.77,3.77,0,0,0-1,2.64,3.87,3.87,0,0,0,1,2.64,3.22,3.22,0,0,0,2.38,1,3.29,3.29,0,0,0,2.38-1A3.85,3.85,0,0,0,385.19,389.83Z"/><path class="cls-2" d="M397.41,384.81a1.45,1.45,0,0,1-1.43,1.41h-.64v7.14a1.41,1.41,0,0,1,1.4,1.44,1.38,1.38,0,0,1-1.4,1.4,2.85,2.85,0,0,1-2.85-2.84v-7.14h-.74a1.41,1.41,0,1,1,0-2.82h.74v-3.71a1.42,1.42,0,0,1,1.44-1.41,1.4,1.4,0,0,1,1.41,1.41v3.71H396A1.43,1.43,0,0,1,397.41,384.81Z"/><path class="cls-2" d="M398.69,389.8a6.34,6.34,0,0,1,6.25-6.4,6.12,6.12,0,0,1,6.17,5.94v.13a.61.61,0,0,1,0,.23,1.23,1.23,0,0,1-1.33,1h-8.14a3.36,3.36,0,0,0,.87,1.68,4,4,0,0,0,2.46,1.16,4.26,4.26,0,0,0,2.66-.64,1.44,1.44,0,0,1,1.92-.08,1.16,1.16,0,0,1,0,1.66,6.42,6.42,0,0,1-4.58,1.69A6.35,6.35,0,0,1,398.69,389.8Zm2.79-1.25h7.25a4.16,4.16,0,0,0-3.79-2.71A3.58,3.58,0,0,0,401.48,388.55Z"/><path class="cls-2" d="M419.41,389.83a6.52,6.52,0,0,1,6.51-6.43,6.79,6.79,0,0,1,4.07,1.41,1.41,1.41,0,0,1,.28,1.9,1.37,1.37,0,0,1-1.92.25,4.15,4.15,0,0,0-2.43-.82,3.68,3.68,0,1,0,0,7.35,4.13,4.13,0,0,0,2.43-.82,1.36,1.36,0,1,1,1.64,2.18,7.08,7.08,0,0,1-4.07,1.35A6.48,6.48,0,0,1,419.41,389.83Z"/><path class="cls-2" d="M435.21,394.8a1.4,1.4,0,0,1-1.43,1.4,1.46,1.46,0,0,1-1.36-1.05,1.84,1.84,0,0,1-.05-.35V379.69a1.42,1.42,0,0,1,2.84,0v4.46a5.79,5.79,0,0,1,2.74-.75,5.6,5.6,0,0,1,5.58,5.61v5.79a1.41,1.41,0,0,1-2.81,0V389a2.76,2.76,0,1,0-5.51,0Z"/><path class="cls-2" d="M457.36,389.83v5A1.36,1.36,0,0,1,456,396.2a1.38,1.38,0,0,1-1.33-1.1,5.85,5.85,0,0,1-3.41,1.1,5.94,5.94,0,0,1-4.35-1.86,6.57,6.57,0,0,1-1.74-4.51,6.48,6.48,0,0,1,1.74-4.51,5.81,5.81,0,0,1,7.76-.79,1.35,1.35,0,0,1,2.68.26Zm-2.71,0a3.74,3.74,0,0,0-1-2.64,3.15,3.15,0,0,0-2.38-1.05,3.09,3.09,0,0,0-2.38,1.05,3.77,3.77,0,0,0-1,2.64,3.87,3.87,0,0,0,1,2.64,3.22,3.22,0,0,0,2.38,1,3.29,3.29,0,0,0,2.38-1A3.85,3.85,0,0,0,454.65,389.83Z"/><path class="cls-2" d="M470.76,388.73v6.12a1.34,1.34,0,0,1-1.33,1.35,1.38,1.38,0,0,1-1.36-1.35v-6.12a2.63,2.63,0,0,0-2.66-2.59,2.55,2.55,0,0,0-2.56,2.59v6.12a.5.5,0,0,1-.05.25,1.4,1.4,0,0,1-1.36,1.1,1.35,1.35,0,0,1-1.36-1.35V384.76a1.35,1.35,0,0,1,1.36-1.36,1.37,1.37,0,0,1,1.25.8,5.11,5.11,0,0,1,2.72-.8A5.36,5.36,0,0,1,470.76,388.73Z"/><path class="cls-2" d="M485.18,389.88v4.76a6.16,6.16,0,0,1-6.15,6.15,5.92,5.92,0,0,1-2.68-.64,1.36,1.36,0,0,1-.62-1.85,1.39,1.39,0,0,1,1.84-.64A3.12,3.12,0,0,0,479,398a3.44,3.44,0,0,0,3.36-2.74,5.9,5.9,0,0,1-7.71-.92,6.41,6.41,0,0,1-1.79-4.51,6.71,6.71,0,0,1,1.79-4.55,6.06,6.06,0,0,1,4.35-1.9,5.77,5.77,0,0,1,3.43,1.08,1.39,1.39,0,0,1,1.36-1.08,1.35,1.35,0,0,1,1.36,1.36v5.12Zm-2.74,0a4,4,0,0,0-1-2.61,3.23,3.23,0,0,0-2.44-1.1,3.09,3.09,0,0,0-2.35,1.1,3.76,3.76,0,0,0-1,2.61,3.67,3.67,0,0,0,1,2.64,3.11,3.11,0,0,0,2.35,1.05,3.25,3.25,0,0,0,2.44-1.05A3.91,3.91,0,0,0,482.44,389.85Z"/><path class="cls-2" d="M488.46,389.8a6.34,6.34,0,0,1,6.25-6.4,6.13,6.13,0,0,1,6.17,5.94v.13a.61.61,0,0,1,0,.23,1.23,1.23,0,0,1-1.33,1h-8.14a3.36,3.36,0,0,0,.87,1.68,4,4,0,0,0,2.46,1.16,4.26,4.26,0,0,0,2.66-.64,1.44,1.44,0,0,1,1.92-.08,1.17,1.17,0,0,1,0,1.66,6.43,6.43,0,0,1-4.58,1.69A6.35,6.35,0,0,1,488.46,389.8Zm2.79-1.25h7.25a4.18,4.18,0,0,0-3.79-2.71A3.58,3.58,0,0,0,491.25,388.55Z"/><path class="cls-3" d="M119,313.19a3.39,3.39,0,0,0,0-6.78H97.18a3.31,3.31,0,0,0-3.35,3.36v39.34a3.42,3.42,0,0,0,3.55,3.35H119a3.39,3.39,0,0,0,0-6.77l-18.39-.32.32-12.58h15.53a3.39,3.39,0,0,0,3.36-3.42,3.45,3.45,0,0,0-3.36-3.35l-15.85-.32.32-12.51Z"/><path class="cls-3" d="M140.56,319.75a17.51,17.51,0,0,0-7.35,1.88,3.28,3.28,0,0,0-3-1.88A3.18,3.18,0,0,0,127,323v26.27a3.18,3.18,0,0,0,3.22,3.22,3.38,3.38,0,0,0,3.23-2.66s.11-.55.12-.56V333.3a6.94,6.94,0,0,1,7-7,7.16,7.16,0,0,1,7.25,7v15.94a3.31,3.31,0,0,0,3.22,3.22,3.19,3.19,0,0,0,3.15-3.22V333.3A13.6,13.6,0,0,0,140.56,319.75Z"/><path class="cls-3" d="M175.72,319.75c-8.74,0-15.89,7.34-16,16.35a16.16,16.16,0,0,0,16,16.36,16.58,16.58,0,0,0,11.72-4.31,2.39,2.39,0,0,0,.81-1.7,3.28,3.28,0,0,0-.84-2.22,2.77,2.77,0,0,0-2.06-.73,3.48,3.48,0,0,0-2.51,1,10.75,10.75,0,0,1-6.19,1.77c-.33,0-.65,0-1,0a10.69,10.69,0,0,1-6.59-3.08,7.09,7.09,0,0,1-2-4.95h21.2a2.93,2.93,0,0,0,3.17-2.61c0-.56.05-.66.05-.65C191,326.13,184.32,319.75,175.72,319.75Zm-9.32,13a9.7,9.7,0,0,1,9.3-7.32h0c6.08.5,9.51,4.69,9.84,7.7Z"/><path class="cls-3" d="M213.21,319.82a14.42,14.42,0,0,0-8,2.54,9.77,9.77,0,0,1-1.7,1.14,1.53,1.53,0,0,1-.2-.53,3.26,3.26,0,0,0-3.35-3.15,3.18,3.18,0,0,0-3.22,3.15v26.27a3.26,3.26,0,0,0,3.22,3.22,3.34,3.34,0,0,0,3.35-3.22l.12-13.07a19.93,19.93,0,0,1,2.66-5.38,10.39,10.39,0,0,1,3.14-3.27,6.64,6.64,0,0,1,4.2-1.34,3.19,3.19,0,1,0-.26-6.36Z"/><path class="cls-3" d="M245.27,319.75a4.25,4.25,0,0,0-3.72,2.74,14.84,14.84,0,0,0-8.75-2.74,15.5,15.5,0,0,0-11.11,4.83,17.28,17.28,0,0,0-4.58,11.65,16.35,16.35,0,0,0,4.58,11.53,15.12,15.12,0,0,0,11.11,5,21.35,21.35,0,0,0,9-2.28,9.2,9.2,0,0,1-9,7.38,8.33,8.33,0,0,1-3.93-.95,3.63,3.63,0,0,0-1.47-.31,3.17,3.17,0,0,0-2.92,1.82,3.21,3.21,0,0,0-.19,2.54,3.13,3.13,0,0,0,1.65,1.84,15.15,15.15,0,0,0,6.86,1.64,15.71,15.71,0,0,0,15.69-15.69V323A3.19,3.19,0,0,0,245.27,319.75Zm-5.91,23.57a8.68,8.68,0,0,1-6.56,2.83,8.36,8.36,0,0,1-6.36-2.82,9.9,9.9,0,0,1-2.76-7.1,10.06,10.06,0,0,1,2.74-7,8.3,8.3,0,0,1,6.38-3,8.59,8.59,0,0,1,6.56,3,10.76,10.76,0,0,1,2.62,7A10.41,10.41,0,0,1,239.36,343.32Z"/><path class="cls-3" d="M279.23,319.75a3.12,3.12,0,0,0-3.15,3.22v15.74a7.22,7.22,0,0,1-14.44,0V323a3.11,3.11,0,0,0-3.22-3.22,3.23,3.23,0,0,0-3.15,3.22v15.74a13.67,13.67,0,0,0,13.62,13.68,23.09,23.09,0,0,0,6.63-1.19,9,9,0,0,1-8.63,6.29,9.25,9.25,0,0,1-4-1,2.77,2.77,0,0,0-1.36-.33,3.4,3.4,0,0,0-2.93,1.64,3.51,3.51,0,0,0-.13,2.54,3.07,3.07,0,0,0,1.71,1.79,15.64,15.64,0,0,0,6.73,1.63,15.45,15.45,0,0,0,15.62-15.62V323A3.25,3.25,0,0,0,279.23,319.75Z"/><path class="cls-3" d="M334.4,327.25a38.91,38.91,0,0,0-9.36-2.81,23.31,23.31,0,0,1-8.29-2.91,6.38,6.38,0,0,1-1.76-1.7,3.11,3.11,0,0,1-.45-1.8,5.26,5.26,0,0,1,2.48-4.09,12.63,12.63,0,0,1,7.4-2.25c4,0,7.17,1.93,10.66,4.25a3.51,3.51,0,0,0,2,.6A3.46,3.46,0,0,0,340,314.9a3.32,3.32,0,0,0,.54-2.51,3.9,3.9,0,0,0-1.7-2.53c-3.41-2.2-8.09-5.23-14.41-5.23a20,20,0,0,0-11.62,3.56,12.4,12.4,0,0,0-5.39,9.84,10.47,10.47,0,0,0,1.56,5.55,14.46,14.46,0,0,0,6.25,5.24,35.23,35.23,0,0,0,8.77,2.61,26.66,26.66,0,0,1,9.09,3.12,6.18,6.18,0,0,1,2,1.95,3.67,3.67,0,0,1,.58,2.07,5.94,5.94,0,0,1-2.82,4.7,14.26,14.26,0,0,1-8.41,2.44c-4.62,0-9.62-2.76-12.5-5.11a3.63,3.63,0,0,0-2.28-.81,3.55,3.55,0,0,0-2.77,1.3,3.65,3.65,0,0,0,.56,5.05c3.82,3,9.9,6.63,17.15,6.7h0A21,21,0,0,0,337,349a13,13,0,0,0,5.79-10.44,11,11,0,0,0-1.62-5.74A15.63,15.63,0,0,0,334.4,327.25Z"/><path class="cls-3" d="M363.11,319.75a21.75,21.75,0,0,0-9.38,2.47,3.35,3.35,0,0,0-3.36-2.47,3.22,3.22,0,0,0-3.22,3.22v38.74a3.34,3.34,0,0,0,3.22,3.28,3.44,3.44,0,0,0,3.49-3.29l.5-12a15,15,0,0,0,8.75,2.68,16,16,0,0,0,15.82-16.22C378.93,327.12,371.84,319.75,363.11,319.75Zm6.5,23.3a8.83,8.83,0,0,1-6.5,2.9,8.54,8.54,0,0,1-6.54-2.87,9.15,9.15,0,0,1-2.71-6.91,9.74,9.74,0,0,1,2.68-6.95,8.75,8.75,0,0,1,6.57-2.83,9,9,0,0,1,6.5,2.84,10.58,10.58,0,0,1,2.68,6.94A10,10,0,0,1,369.61,343.05Z"/><path class="cls-3" d="M410.21,319.75c-1.5,0-2.77,1.05-3.65,2.88a14.75,14.75,0,0,0-8.69-2.88,15.07,15.07,0,0,0-11.1,4.9,16.54,16.54,0,0,0-4.45,11.52,16.77,16.77,0,0,0,4.45,11.52,15.25,15.25,0,0,0,11.1,4.77,18.8,18.8,0,0,0,9.17-2.63,3.32,3.32,0,0,0,3.17,2.63,3.23,3.23,0,0,0,3.22-3.22V323A3.26,3.26,0,0,0,410.21,319.75Zm-5.91,23.5a8.92,8.92,0,0,1-6.43,2.7,8.69,8.69,0,0,1-6.43-2.7,10.34,10.34,0,0,1-2.62-7.08,10.13,10.13,0,0,1,2.61-7.08,8.41,8.41,0,0,1,6.44-2.83,8.6,8.6,0,0,1,6.43,2.82,10.17,10.17,0,0,1,2.69,7.09A10.33,10.33,0,0,1,404.3,343.25Z"/><path class="cls-3" d="M438.24,319.82a14.44,14.44,0,0,0-8,2.54,9.77,9.77,0,0,1-1.7,1.14,1.53,1.53,0,0,1-.2-.53,3.25,3.25,0,0,0-3.35-3.15,3.18,3.18,0,0,0-3.22,3.15v26.27a3.26,3.26,0,0,0,3.22,3.22,3.33,3.33,0,0,0,3.35-3.22l.12-13.07a20,20,0,0,1,2.67-5.38,10.18,10.18,0,0,1,3.14-3.27,6.61,6.61,0,0,1,4.19-1.34,3.19,3.19,0,1,0-.26-6.36Z"/><path class="cls-3" d="M472.5,321.84a3.34,3.34,0,0,0-1-2.45,3.38,3.38,0,0,0-2.38-1,3.35,3.35,0,0,0-2.38,1l-14.2,13.45V309.77a3.4,3.4,0,0,0-3.43-3.36,3.35,3.35,0,0,0-3.35,3.36v39.34a3.36,3.36,0,0,0,3.35,3.35,3.4,3.4,0,0,0,3.43-3.35l.09-6.1,4.13-3.63,9.81,11.87a3.28,3.28,0,0,0,4.69.41,3.26,3.26,0,0,0,1.22-2.2,3.46,3.46,0,0,0-.74-2.55l-10.25-12.77,10-10A3.23,3.23,0,0,0,472.5,321.84Z"/><path class="cls-3" d="M499.54,338.13a10.23,10.23,0,0,0-4.6-3.81,25.58,25.58,0,0,0-6.25-2,13.9,13.9,0,0,1-5-1.64,2,2,0,0,1-.84-.76,4.74,4.74,0,0,1-.19-.71,2.27,2.27,0,0,1,1.2-1.79,7.18,7.18,0,0,1,4.19-1.27c2.28,0,4.2,1.14,6.31,2.53a3.25,3.25,0,0,0,1.83.57,3.16,3.16,0,0,0,2.65-1.41,3.37,3.37,0,0,0-1-4.51c-2-1.35-5.24-3.61-9.82-3.61a14.09,14.09,0,0,0-8,2.4,9,9,0,0,0-3.81,7.09,7.87,7.87,0,0,0,1.08,4,10.85,10.85,0,0,0,4.48,3.76,24.93,24.93,0,0,0,5.79,1.71,15.85,15.85,0,0,1,5.45,1.91c.56.36.89.67,1,.89a1.31,1.31,0,0,1,.25.84,3.12,3.12,0,0,1-1.35,2.27,9.37,9.37,0,0,1-4.86,1.31,12.7,12.7,0,0,1-7.38-3,3.13,3.13,0,0,0-2.05-.76,3.1,3.1,0,0,0-2.5,1.24,3.23,3.23,0,0,0-.7,2.37,3.08,3.08,0,0,0,1.11,2.12,18.91,18.91,0,0,0,11.68,4.54,14.72,14.72,0,0,0,8.48-2.61,9.26,9.26,0,0,0,4.07-7.48A8.27,8.27,0,0,0,499.54,338.13Z"/><polygon class="cls-3" points="488.21 352.46 488.21 352.46 488.21 352.46 488.21 352.46"/><path class="cls-2" d="M348.84,185.25a49.71,49.71,0,0,0-32-43.31,55.78,55.78,0,0,0-18.68-3.56l-.4,0h-.6a2.71,2.71,0,0,0-.4,0,55.28,55.28,0,0,0-18.68,3.54,49.71,49.71,0,0,0-32,43.31c-.74,13.18,4,27,13.12,37.91,5,6,11,13.71,19.55,13.89a12.57,12.57,0,0,0,4.37-.49,15.23,15.23,0,0,1,3-.77c3.65,2.41,7.4,2.92,10.55,1.31,2.86-1.46,4.57-4.38,5.74-7.25,1-2.49,1.39-5.62,2.55-8,.26,0,1.13,1.12,1.34,1.29a18.35,18.35,0,0,1,2.63,2.93,6,6,0,0,1,1.57,3.42A3.48,3.48,0,0,1,309,232.4a5.31,5.31,0,0,1-4.17.94,2.75,2.75,0,0,0-2,.24,2.47,2.47,0,0,0-1.17,1.48,2.23,2.23,0,0,0,.25,1.74,2.59,2.59,0,0,0,1.64,1.17,10.75,10.75,0,0,0,2.44.28,10.3,10.3,0,0,0,6.23-2.1,8.2,8.2,0,0,0,3.48-6.77c-.09-3.24-2.14-5.83-4.35-8.16a24.06,24.06,0,0,0-2-2,7.29,7.29,0,0,1-2.75-4.15c-.2-1.42,0-3,1.36-3.8,1.57-.91,3.81-.43,5.4-.14a2.44,2.44,0,0,0,2.52-1.63,2.2,2.2,0,0,0-.26-1.75,2.87,2.87,0,0,0-1.65-1.36,14.36,14.36,0,0,0-7.63.28c-4,1.27-4.84,5-5.16,8.85a41.76,41.76,0,0,1-2.35,9.27c-.89,2.78-1.86,6.75-4.74,8.12a3.71,3.71,0,0,1-4.61-1.31c1.05-2.08,2.37-4,3.4-6.06a30.37,30.37,0,0,0,2.79-8.76c.41-2.66.87-5.84-.9-8.14a6.57,6.57,0,0,0-4.34-2.45,8.53,8.53,0,0,0-1.11-.08c-4.29,0-8.05,3.62-9.5,6.7-2.63,5.6-2.18,14.62,2.83,18.89-.44-.37-.08,0-1.47.2a9.08,9.08,0,0,1-5.46-.61,21.19,21.19,0,0,1-4.67-2.93,56.59,56.59,0,0,1-7.78-8.15c-8.33-10-12.72-22.7-12-34.76a44.85,44.85,0,0,1,28.78-39.11,48.74,48.74,0,0,1,34.74,0,44.83,44.83,0,0,1,28.78,39.11c.68,12.06-3.71,24.73-12.05,34.76-1,1.19-2.05,2.36-3.16,3.58-3.19,3.54-6.48,7.2-8.38,11.74-3.76,8.94-3.43,17.51-3.08,26.78.09,2.25.17,4.53.18,6.86a9,9,0,0,1-.58,3.84c-1.06,2.26-4,4.11-7.09,4.39l-22.77,0c-3.25-.3-6.27-2.1-7.34-4.4-.53-1.15-1.2-14.59-.76-16.56a84.15,84.15,0,0,0,16.22,1.67,54.85,54.85,0,0,0,14.94-1.9,2.57,2.57,0,0,0,1.58-1.24,2.23,2.23,0,0,0,.15-1.75,2.61,2.61,0,0,0-2.5-1.71,3,3,0,0,0-.77.11,48.89,48.89,0,0,1-13.31,1.67A77,77,0,0,1,276.34,251a3,3,0,0,0-.76-.1,2.79,2.79,0,0,0-1.5.43,2.36,2.36,0,0,0-1.11,1.82c-.22,3.14.67,19.83,1.59,21.8,1.88,4,6.44,6.82,11.91,7.3h23.25c5.22-.47,9.79-3.33,11.63-7.29a13.11,13.11,0,0,0,1-5.77c0-2.35-.1-4.63-.2-7.38-.32-8.48-.62-16.49,2.74-24.49,1.52-3.62,4.21-6.71,7.1-9.92l.47-.52c1.1-1.22,2.2-2.46,3.24-3.71C344.8,212.25,349.58,198.43,348.84,185.25ZM284.2,214.66a9,9,0,0,1,.86-1.51c.85-1.21,3.23-2.58,4.84-2.14,2.25.62,1.16,4.73.87,6.29-.55,3-2.11,8.54-4.78,11.33.36.55-1.59-2.73-1.65-2.88A14.87,14.87,0,0,1,284.2,214.66Z"/><path class="cls-2" d="M249.88,148.76h0a2.72,2.72,0,0,1-3.84,0l-4.47-4.47a2.76,2.76,0,0,1,0-3.86h0a2.73,2.73,0,0,1,3.85,0l4.46,4.47A2.74,2.74,0,0,1,249.88,148.76Z"/><path class="cls-2" d="M352.51,140.87h0a2.73,2.73,0,0,1,0,3.85l-4.46,4.48a2.73,2.73,0,0,1-3.85,0h0a2.74,2.74,0,0,1,0-3.86l4.46-4.47A2.73,2.73,0,0,1,352.51,140.87Z"/><path class="cls-2" d="M250.47,230.51h0a2.73,2.73,0,0,0-3.85,0L242.16,235a2.73,2.73,0,0,0,0,3.85h0a2.7,2.7,0,0,0,3.84,0l4.47-4.47A2.75,2.75,0,0,0,250.47,230.51Z"/><path class="cls-2" d="M353.09,238.4h0a2.74,2.74,0,0,0,0-3.86l-4.46-4.47a2.73,2.73,0,0,0-3.85,0h0a2.76,2.76,0,0,0,0,3.86l4.47,4.47A2.72,2.72,0,0,0,353.09,238.4Z"/><path class="cls-2" d="M299.87,117.36h0a2.75,2.75,0,0,1,2.73,2.73v6.32a2.72,2.72,0,0,1-2.72,2.72h0a2.74,2.74,0,0,1-2.72-2.73v-6.32A2.73,2.73,0,0,1,299.87,117.36Z"/><path class="cls-2" d="M358.37,190.55h0a2.74,2.74,0,0,1,2.72-2.73h6.32a2.72,2.72,0,0,1,2.72,2.72h0a2.74,2.74,0,0,1-2.73,2.72h-6.31A2.72,2.72,0,0,1,358.37,190.55Z"/><path class="cls-2" d="M224.46,190.55h0a2.75,2.75,0,0,1,2.73-2.73h6.31a2.72,2.72,0,0,1,2.72,2.72h0a2.74,2.74,0,0,1-2.72,2.72h-6.32A2.72,2.72,0,0,1,224.46,190.55Z"/></svg>