<svg id="Layer_1" data-name="Layer 1" xmlns="http://www.w3.org/2000/svg" viewBox="0 0 595.28 595.28"><defs><style>.cls-1{fill:#232b49;}.cls-2{fill:#f9b233;}.cls-3{fill:#fff;}</style></defs><title>Logo_darker blue back</title><rect class="cls-1" x="1.35" y="-1.1" width="595.08" height="594.63"/><path class="cls-2" d="M164,325.5V311.65a1.28,1.28,0,0,1,1.29-1.3,1.3,1.3,0,0,1,1.31,1.3v5.63h6.08v-5.63a1.28,1.28,0,0,1,1.29-1.3,1.3,1.3,0,0,1,1.32,1.3V325.5a1.29,1.29,0,0,1-1.32,1.29,1.27,1.27,0,0,1-1.29-1.29v-5.64h-6.08v5.64a1.29,1.29,0,0,1-1.31,1.29A1.27,1.27,0,0,1,164,325.5Z"/><path class="cls-2" d="M177.65,320.92a5.81,5.81,0,0,1,5.73-5.87A5.61,5.61,0,0,1,189,320.5v.11a.71.71,0,0,1,0,.21,1.12,1.12,0,0,1-1.22.94h-7.47a3.13,3.13,0,0,0,.8,1.55,3.61,3.61,0,0,0,2.26,1.06,3.82,3.82,0,0,0,2.44-.59,1.34,1.34,0,0,1,1.76-.07,1.08,1.08,0,0,1,0,1.53,5.92,5.92,0,0,1-4.2,1.55A5.82,5.82,0,0,1,177.65,320.92Zm2.56-1.15h6.64a3.82,3.82,0,0,0-3.47-2.49A3.27,3.27,0,0,0,180.21,319.77Z"/><path class="cls-2" d="M191.88,310.35a1.31,1.31,0,0,1,1.31,1.3V325.5a1.3,1.3,0,0,1-2.6,0V311.65A1.31,1.31,0,0,1,191.88,310.35Z"/><path class="cls-2" d="M195.57,329.93V316.29a1.25,1.25,0,0,1,1.24-1.24,1.29,1.29,0,0,1,1.29,1,6,6,0,0,1,3.2-1,5.83,5.83,0,0,1,5.68,5.89,5.77,5.77,0,0,1-5.68,5.83,5.42,5.42,0,0,1-3.15-1v4.13a1.33,1.33,0,0,1-1.34,1.27A1.29,1.29,0,0,1,195.57,329.93Zm2.58-9a3.1,3.1,0,0,0,.92,2.35,2.89,2.89,0,0,0,2.23,1,3,3,0,0,0,2.2-1,3.42,3.42,0,0,0,.92-2.35,3.63,3.63,0,0,0-.92-2.37,3.08,3.08,0,0,0-2.2-1,3,3,0,0,0-2.23,1A3.27,3.27,0,0,0,198.15,320.94Z"/><path class="cls-2" d="M211.72,312.11a1.26,1.26,0,0,1-1.26,1.3,1.28,1.28,0,0,1-1.27-1.3v-.49a1.27,1.27,0,0,1,1.27-1.27,1.24,1.24,0,0,1,1.26,1.27Zm0,4.25v9.16a1.24,1.24,0,0,1-1.26,1.27,1.26,1.26,0,0,1-1.27-1.27v-9.16a1.25,1.25,0,0,1,1.27-1.29A1.23,1.23,0,0,1,211.72,316.36Z"/><path class="cls-2" d="M224.38,319.93v5.61a1.23,1.23,0,0,1-1.22,1.25,1.26,1.26,0,0,1-1.24-1.25v-5.61a2.42,2.42,0,0,0-2.45-2.37,2.34,2.34,0,0,0-2.34,2.37v5.61a.45.45,0,0,1,0,.24,1.29,1.29,0,0,1-1.24,1,1.24,1.24,0,0,1-1.25-1.25v-9.25a1.24,1.24,0,0,1,1.25-1.24,1.28,1.28,0,0,1,1.15.73,4.63,4.63,0,0,1,2.48-.73A4.91,4.91,0,0,1,224.38,319.93Z"/><path class="cls-2" d="M238.31,321v4.37a5.65,5.65,0,0,1-5.64,5.63,5.38,5.38,0,0,1-2.46-.59,1.25,1.25,0,0,1-.57-1.69,1.28,1.28,0,0,1,1.7-.58,2.79,2.79,0,0,0,1.33.33,3.15,3.15,0,0,0,3.08-2.52,5.42,5.42,0,0,1-7.07-.84A5.89,5.89,0,0,1,227,321a6.16,6.16,0,0,1,1.64-4.18,5.54,5.54,0,0,1,4-1.74,5.37,5.37,0,0,1,3.15,1,1.26,1.26,0,0,1,1.24-1,1.24,1.24,0,0,1,1.25,1.24V321Zm-2.51,0a3.64,3.64,0,0,0-.9-2.4,2.91,2.91,0,0,0-2.23-1,2.82,2.82,0,0,0-2.16,1,3.47,3.47,0,0,0-.94,2.4,3.39,3.39,0,0,0,.94,2.41,2.85,2.85,0,0,0,2.16,1,2.94,2.94,0,0,0,2.23-1A3.55,3.55,0,0,0,235.8,321Z"/><path class="cls-2" d="M247.45,323.43a1.23,1.23,0,0,1,1.76-.19,4.32,4.32,0,0,0,2.58,1,3.22,3.22,0,0,0,1.6-.45,1,1,0,0,0,.42-.7.34.34,0,0,0-.07-.24c0-.07-.12-.16-.31-.28a5.36,5.36,0,0,0-1.87-.66h0a9,9,0,0,1-2-.61,3.92,3.92,0,0,1-1.62-1.36,2.83,2.83,0,0,1-.4-1.48,3.29,3.29,0,0,1,1.39-2.58,5,5,0,0,1,2.88-.87,6.07,6.07,0,0,1,3.53,1.29,1.3,1.3,0,0,1,.37,1.74,1.25,1.25,0,0,1-1.74.33,3.94,3.94,0,0,0-2.16-.87,2.4,2.4,0,0,0-1.4.42c-.31.21-.38.42-.38.54a.25.25,0,0,0,0,.19.55.55,0,0,0,.25.23,4.84,4.84,0,0,0,1.72.57l0,0h0a8.39,8.39,0,0,1,2.18.68,3.66,3.66,0,0,1,1.67,1.39,3.05,3.05,0,0,1,.44,1.55,3.37,3.37,0,0,1-1.48,2.72,5.3,5.3,0,0,1-3.05.94,6.81,6.81,0,0,1-4.18-1.62A1.25,1.25,0,0,1,247.45,323.43Z"/><path class="cls-2" d="M257.57,320.94a6,6,0,0,1,6-5.89,6.24,6.24,0,0,1,3.74,1.29,1.29,1.29,0,0,1,.25,1.74,1.25,1.25,0,0,1-1.76.23,3.78,3.78,0,0,0-2.23-.75,3.37,3.37,0,1,0,0,6.74,3.83,3.83,0,0,0,2.23-.75,1.25,1.25,0,0,1,1.51,2,6.48,6.48,0,0,1-3.74,1.25A6,6,0,0,1,257.57,320.94Z"/><path class="cls-2" d="M272.53,325.5a1.29,1.29,0,0,1-1.32,1.29,1.33,1.33,0,0,1-1.24-1,1.75,1.75,0,0,1-.05-.33V311.65a1.31,1.31,0,0,1,2.61,0v4.08a5.35,5.35,0,0,1,2.51-.68,5.13,5.13,0,0,1,5.12,5.14v5.31a1.29,1.29,0,0,1-2.58,0v-5.31a2.53,2.53,0,1,0-5.05,0Z"/><path class="cls-2" d="M283.52,325.07a5.84,5.84,0,0,1-1.62-4.13,6.08,6.08,0,0,1,1.62-4.11,5.5,5.5,0,0,1,4-1.78,5.19,5.19,0,0,1,3.92,1.78,5.87,5.87,0,0,1,1.64,4.11,5.64,5.64,0,0,1-1.64,4.13,5.17,5.17,0,0,1-3.92,1.79A5.47,5.47,0,0,1,283.52,325.07Zm.94-4.13a3.81,3.81,0,0,0,.85,2.49,3.18,3.18,0,0,0,2.25.87,3.1,3.1,0,0,0,2.16-.87,3.6,3.6,0,0,0,.91-2.49,3.51,3.51,0,0,0-.91-2.44,3.31,3.31,0,0,0-2.16-.89,3.38,3.38,0,0,0-2.25.89A3.71,3.71,0,0,0,284.46,320.94Z"/><path class="cls-2" d="M296.32,325.07a5.84,5.84,0,0,1-1.62-4.13,6.08,6.08,0,0,1,1.62-4.11,5.5,5.5,0,0,1,4-1.78,5.19,5.19,0,0,1,3.92,1.78,5.87,5.87,0,0,1,1.64,4.11,5.64,5.64,0,0,1-1.64,4.13,5.17,5.17,0,0,1-3.92,1.79A5.47,5.47,0,0,1,296.32,325.07Zm.94-4.13a3.81,3.81,0,0,0,.85,2.49,3.18,3.18,0,0,0,2.25.87,3.1,3.1,0,0,0,2.16-.87,3.6,3.6,0,0,0,.91-2.49,3.51,3.51,0,0,0-.91-2.44,3.31,3.31,0,0,0-2.16-.89,3.38,3.38,0,0,0-2.25.89A3.71,3.71,0,0,0,297.26,320.94Z"/><path class="cls-2" d="M309.5,310.35a1.31,1.31,0,0,1,1.31,1.3V325.5a1.3,1.3,0,0,1-2.6,0V311.65A1.3,1.3,0,0,1,309.5,310.35Z"/><path class="cls-2" d="M312.62,323.43a1.23,1.23,0,0,1,1.76-.19,4.32,4.32,0,0,0,2.58,1,3.16,3.16,0,0,0,1.6-.45,1,1,0,0,0,.42-.7.34.34,0,0,0-.07-.24c0-.07-.11-.16-.3-.28a5.51,5.51,0,0,0-1.88-.66h0a9.08,9.08,0,0,1-2-.61A4,4,0,0,1,313,320a2.92,2.92,0,0,1-.4-1.48,3.29,3.29,0,0,1,1.39-2.58,5,5,0,0,1,2.89-.87,6,6,0,0,1,3.52,1.29,1.29,1.29,0,0,1,.37,1.74,1.24,1.24,0,0,1-1.73.33,4,4,0,0,0-2.16-.87,2.41,2.41,0,0,0-1.41.42c-.31.21-.38.42-.38.54a.25.25,0,0,0,.05.19.54.54,0,0,0,.26.23,4.7,4.7,0,0,0,1.71.57l0,0h0a8.39,8.39,0,0,1,2.18.68,3.61,3.61,0,0,1,1.67,1.39,3.06,3.06,0,0,1,.45,1.55,3.4,3.4,0,0,1-1.48,2.72,5.36,5.36,0,0,1-3.06.94,6.76,6.76,0,0,1-4.17-1.62A1.26,1.26,0,0,1,312.62,323.43Z"/><path class="cls-2" d="M333.29,314.27v.33h.7a1.3,1.3,0,0,1,0,2.59h-.7v8.28a1.3,1.3,0,1,1-2.59,0v-8.28h-.61a1.3,1.3,0,1,1,0-2.59h.61v-.33a4.93,4.93,0,0,1,.45-2.3,2.81,2.81,0,0,1,1.69-1.45,4.8,4.8,0,0,1,1.41-.19,1.31,1.31,0,0,1,0,2.61,1.58,1.58,0,0,0-.61.07c-.1,0-.12,0-.14.07S333.29,313.41,333.29,314.27Z"/><path class="cls-2" d="M339.32,312.11a1.27,1.27,0,0,1-1.26,1.3,1.28,1.28,0,0,1-1.27-1.3v-.49a1.27,1.27,0,0,1,1.27-1.27,1.25,1.25,0,0,1,1.26,1.27Zm0,4.25v9.16a1.24,1.24,0,0,1-1.26,1.27,1.26,1.26,0,0,1-1.27-1.27v-9.16a1.25,1.25,0,0,1,1.27-1.29A1.24,1.24,0,0,1,339.32,316.36Z"/><path class="cls-2" d="M352.68,321v4.37a5.65,5.65,0,0,1-5.63,5.63,5.42,5.42,0,0,1-2.47-.59,1.24,1.24,0,0,1-.56-1.69,1.27,1.27,0,0,1,1.69-.58,2.86,2.86,0,0,0,1.34.33,3.14,3.14,0,0,0,3.07-2.52,5.37,5.37,0,0,1-3.07.94,5.43,5.43,0,0,1-4-1.78,5.89,5.89,0,0,1-1.65-4.13,6.17,6.17,0,0,1,1.65-4.18,5.54,5.54,0,0,1,4-1.74,5.37,5.37,0,0,1,3.15,1,1.25,1.25,0,0,1,1.24-1,1.23,1.23,0,0,1,1.24,1.24V321Zm-2.51,0a3.63,3.63,0,0,0-.89-2.4,2.92,2.92,0,0,0-2.23-1,2.81,2.81,0,0,0-2.16,1A3.47,3.47,0,0,0,344,321a3.39,3.39,0,0,0,.94,2.41,2.84,2.84,0,0,0,2.16,1,3,3,0,0,0,2.23-1A3.54,3.54,0,0,0,350.17,321Z"/><path class="cls-2" d="M358,325.5a1.29,1.29,0,0,1-1.32,1.29,1.33,1.33,0,0,1-1.24-1,1.2,1.2,0,0,1-.05-.33V311.65a1.31,1.31,0,0,1,2.61,0v4.08a5.31,5.31,0,0,1,2.51-.68,5.13,5.13,0,0,1,5.12,5.14v5.31a1.3,1.3,0,0,1-2.59,0v-5.31a2.52,2.52,0,1,0-5,0Z"/><path class="cls-2" d="M373.85,316.34a1.32,1.32,0,0,1-1.32,1.29h-.59v6.55a1.3,1.3,0,0,1,1.3,1.32,1.28,1.28,0,0,1-1.3,1.29,2.62,2.62,0,0,1-2.6-2.61v-6.55h-.68a1.29,1.29,0,0,1,0-2.58h.68v-3.4a1.3,1.3,0,0,1,1.31-1.3,1.28,1.28,0,0,1,1.29,1.3v3.4h.59A1.31,1.31,0,0,1,373.85,316.34Z"/><path class="cls-2" d="M381.83,320.94a6,6,0,0,1,6-5.89,6.21,6.21,0,0,1,3.73,1.29,1.3,1.3,0,0,1,.26,1.74,1.25,1.25,0,0,1-1.76.23,3.78,3.78,0,0,0-2.23-.75,3.37,3.37,0,1,0,0,6.74,3.85,3.85,0,0,0,2.23-.75,1.27,1.27,0,0,1,1.76.26,1.29,1.29,0,0,1-.26,1.73,6.45,6.45,0,0,1-3.73,1.25A6,6,0,0,1,381.83,320.94Z"/><path class="cls-2" d="M395.17,310.35a1.31,1.31,0,0,1,1.32,1.3V325.5a1.31,1.31,0,0,1-2.61,0V311.65A1.31,1.31,0,0,1,395.17,310.35Z"/><path class="cls-2" d="M401,312.11a1.27,1.27,0,0,1-1.27,1.3,1.29,1.29,0,0,1-1.27-1.3v-.49a1.27,1.27,0,0,1,1.27-1.27,1.25,1.25,0,0,1,1.27,1.27Zm0,4.25v9.16a1.25,1.25,0,0,1-1.27,1.27,1.27,1.27,0,0,1-1.27-1.27v-9.16a1.26,1.26,0,0,1,1.27-1.29A1.24,1.24,0,0,1,401,316.36Z"/><path class="cls-2" d="M413.63,319.91v5.63a1.25,1.25,0,0,1-1.24,1.25,1.29,1.29,0,0,1-1.27-1.25v-5.63a2.4,2.4,0,0,0-4.79.07v5.56s0,.12,0,.17v.07a.31.31,0,0,1-.07.14V326a1.37,1.37,0,0,1-1.17.75l-.23,0a1.29,1.29,0,0,1-1-1.23v-9.22a1.24,1.24,0,0,1,1.24-1.27,1.21,1.21,0,0,1,1.13.7,5,5,0,0,1,2.51-.7,4.89,4.89,0,0,1,3.69,1.62,4.81,4.81,0,0,1,3.68-1.62A4.9,4.9,0,0,1,421,320v5.56a1.25,1.25,0,0,1-1.24,1.25,1.27,1.27,0,0,1-1.27-1.25V320a2.41,2.41,0,0,0-2.37-2.42A2.44,2.44,0,0,0,413.63,319.91Z"/><path class="cls-2" d="M433.73,320.94v4.6a1.25,1.25,0,0,1-1.24,1.25,1.28,1.28,0,0,1-1.22-1,5.36,5.36,0,0,1-3.12,1,5.46,5.46,0,0,1-4-1.72,6,6,0,0,1-1.59-4.13,5.92,5.92,0,0,1,1.59-4.13,5.35,5.35,0,0,1,7.12-.73,1.28,1.28,0,0,1,1.22-1,1.25,1.25,0,0,1,1.24,1.27Zm-2.49,0a3.49,3.49,0,0,0-.91-2.42,2.9,2.9,0,0,0-2.18-1,2.85,2.85,0,0,0-2.19,1,3.47,3.47,0,0,0-.89,2.42,3.53,3.53,0,0,0,.89,2.42,3,3,0,0,0,2.19.92,3,3,0,0,0,2.18-.92A3.54,3.54,0,0,0,431.24,320.94Z"/><path class="cls-2" d="M442.45,316.34a1.32,1.32,0,0,1-1.32,1.29h-.58v6.55a1.3,1.3,0,0,1,1.29,1.32,1.27,1.27,0,0,1-1.29,1.29,2.62,2.62,0,0,1-2.61-2.61v-6.55h-.68a1.29,1.29,0,1,1,0-2.58h.68v-3.4a1.3,1.3,0,0,1,1.31-1.3,1.28,1.28,0,0,1,1.3,1.3v3.4h.58A1.31,1.31,0,0,1,442.45,316.34Z"/><path class="cls-2" d="M443.62,320.92a5.82,5.82,0,0,1,5.73-5.87A5.62,5.62,0,0,1,455,320.5v.11a.71.71,0,0,1,0,.21,1.13,1.13,0,0,1-1.22.94H446.3a3.13,3.13,0,0,0,.8,1.55,3.59,3.59,0,0,0,2.25,1.06,3.79,3.79,0,0,0,2.44-.59,1.35,1.35,0,0,1,1.77-.07,1.08,1.08,0,0,1,0,1.53,5.93,5.93,0,0,1-4.21,1.55A5.84,5.84,0,0,1,443.62,320.92Zm2.56-1.15h6.65a3.84,3.84,0,0,0-3.48-2.49A3.29,3.29,0,0,0,446.18,319.77Z"/><path class="cls-2" d="M462.62,320.94a6,6,0,0,1,6-5.89,6.21,6.21,0,0,1,3.73,1.29,1.29,1.29,0,0,1,.26,1.74,1.25,1.25,0,0,1-1.76.23,3.78,3.78,0,0,0-2.23-.75,3.37,3.37,0,1,0,0,6.74,3.85,3.85,0,0,0,2.23-.75,1.25,1.25,0,1,1,1.5,2,6.45,6.45,0,0,1-3.73,1.25A6,6,0,0,1,462.62,320.94Z"/><path class="cls-2" d="M477.11,325.5a1.28,1.28,0,0,1-1.31,1.29,1.32,1.32,0,0,1-1.24-1,1.2,1.2,0,0,1-.05-.33V311.65a1.3,1.3,0,1,1,2.6,0v4.08a5.39,5.39,0,0,1,2.52-.68,5.13,5.13,0,0,1,5.12,5.14v5.31a1.3,1.3,0,0,1-2.59,0v-5.31a2.53,2.53,0,1,0-5.05,0Z"/><path class="cls-2" d="M497.43,320.94v4.6a1.26,1.26,0,0,1-1.25,1.25,1.28,1.28,0,0,1-1.22-1,5.36,5.36,0,0,1-3.12,1,5.44,5.44,0,0,1-4-1.72,6,6,0,0,1-1.6-4.13,5.93,5.93,0,0,1,1.6-4.13,5.33,5.33,0,0,1,7.11-.73,1.28,1.28,0,0,1,1.22-1,1.26,1.26,0,0,1,1.25,1.27Zm-2.49,0a3.45,3.45,0,0,0-.92-2.42,2.9,2.9,0,0,0-2.18-1,2.83,2.83,0,0,0-2.18,1,3.43,3.43,0,0,0-.9,2.42,3.49,3.49,0,0,0,.9,2.42,2.93,2.93,0,0,0,2.18.92,3,3,0,0,0,2.18-.92A3.5,3.5,0,0,0,494.94,320.94Z"/><path class="cls-2" d="M509.71,319.93v5.61a1.23,1.23,0,0,1-1.22,1.25,1.26,1.26,0,0,1-1.24-1.25v-5.61a2.42,2.42,0,0,0-2.45-2.37,2.34,2.34,0,0,0-2.34,2.37v5.61a.45.45,0,0,1,0,.24,1.3,1.3,0,0,1-1.25,1,1.24,1.24,0,0,1-1.24-1.25v-9.25a1.23,1.23,0,0,1,1.24-1.24,1.26,1.26,0,0,1,1.15.73,4.69,4.69,0,0,1,2.49-.73A4.91,4.91,0,0,1,509.71,319.93Z"/><path class="cls-2" d="M522.93,321v4.37A5.65,5.65,0,0,1,517.3,331a5.42,5.42,0,0,1-2.47-.59,1.24,1.24,0,0,1-.56-1.69,1.26,1.26,0,0,1,1.69-.58,2.83,2.83,0,0,0,1.34.33,3.14,3.14,0,0,0,3.07-2.52,5.37,5.37,0,0,1-3.07.94,5.43,5.43,0,0,1-4-1.78,5.89,5.89,0,0,1-1.65-4.13,6.17,6.17,0,0,1,1.65-4.18,5.54,5.54,0,0,1,4-1.74,5.31,5.31,0,0,1,3.14,1,1.27,1.27,0,0,1,1.25-1,1.23,1.23,0,0,1,1.24,1.24V321Zm-2.51,0a3.68,3.68,0,0,0-.89-2.4,2.92,2.92,0,0,0-2.23-1,2.81,2.81,0,0,0-2.16,1,3.43,3.43,0,0,0-.94,2.4,3.35,3.35,0,0,0,.94,2.41,2.84,2.84,0,0,0,2.16,1,3,3,0,0,0,2.23-1A3.59,3.59,0,0,0,520.42,321Z"/><path class="cls-2" d="M525.94,320.92a5.82,5.82,0,0,1,5.73-5.87,5.62,5.62,0,0,1,5.66,5.45v.11a.49.49,0,0,1,0,.21,1.12,1.12,0,0,1-1.22.94h-7.46a3,3,0,0,0,.8,1.55,3.59,3.59,0,0,0,2.25,1.06,3.79,3.79,0,0,0,2.44-.59,1.34,1.34,0,0,1,1.76-.07,1.07,1.07,0,0,1,0,1.53,5.91,5.91,0,0,1-4.2,1.55A5.83,5.83,0,0,1,525.94,320.92Zm2.56-1.15h6.65a3.85,3.85,0,0,0-3.48-2.49A3.28,3.28,0,0,0,528.5,319.77Z"/><path class="cls-3" d="M186.49,250.66a3.15,3.15,0,0,0,3.08-3.14,3.12,3.12,0,0,0-3.08-3.07h-20a3,3,0,0,0-3.08,3.07V283.6a3.14,3.14,0,0,0,3.26,3.07h19.81a3.11,3.11,0,0,0,0-6.21l-16.86-.28.29-11.55h14.25a3.1,3.1,0,0,0,3.07-3.13,3.14,3.14,0,0,0-3.07-3.07l-14.54-.29.29-11.48Z"/><path class="cls-3" d="M206.28,256.68a16.17,16.17,0,0,0-6.74,1.72,3,3,0,0,0-2.74-1.72,2.91,2.91,0,0,0-3,2.95v24.09a2.91,2.91,0,0,0,3,2.95,3.1,3.1,0,0,0,3-2.43l.1-.52V269.11a6.37,6.37,0,0,1,6.41-6.47,6.56,6.56,0,0,1,6.64,6.47v14.61a3,3,0,0,0,3,2.95,2.92,2.92,0,0,0,2.89-2.95V269.11A12.48,12.48,0,0,0,206.28,256.68Z"/><path class="cls-3" d="M238.51,256.68a15,15,0,0,0,0,30,15.21,15.21,0,0,0,10.76-3.95,2.24,2.24,0,0,0,.74-1.55,3,3,0,0,0-.77-2,2.58,2.58,0,0,0-1.89-.67,3.21,3.21,0,0,0-2.3.9,9.87,9.87,0,0,1-5.68,1.63,8.51,8.51,0,0,1-.88,0,9.78,9.78,0,0,1-6.05-2.83,6.49,6.49,0,0,1-1.88-4.53H250a2.68,2.68,0,0,0,2.9-2.4c0-.51.05-.6.05-.59C252.48,262.53,246.41,256.68,238.51,256.68ZM230,268.62a8.9,8.9,0,0,1,8.53-6.71h0c5.57.45,8.71,4.3,9,7.06Z"/><path class="cls-3" d="M272.89,256.74a13.27,13.27,0,0,0-7.3,2.33,8.73,8.73,0,0,1-1.56,1.05,1.6,1.6,0,0,1-.18-.49,3,3,0,0,0-3.07-2.89,2.93,2.93,0,0,0-3,2.89v24.09a3,3,0,0,0,3,2.95,3.05,3.05,0,0,0,3.07-2.95l.11-12a18.45,18.45,0,0,1,2.44-4.93,9.51,9.51,0,0,1,2.89-3,6.08,6.08,0,0,1,3.84-1.22,2.93,2.93,0,1,0-.24-5.84Z"/><path class="cls-3" d="M302.29,256.68a3.9,3.9,0,0,0-3.41,2.51,13.6,13.6,0,0,0-8-2.51,14.21,14.21,0,0,0-10.19,4.43,15.82,15.82,0,0,0-4.2,10.69,15,15,0,0,0,4.2,10.56,13.86,13.86,0,0,0,10.19,4.56,19.63,19.63,0,0,0,8.29-2.1,8.44,8.44,0,0,1-8.29,6.77,7.69,7.69,0,0,1-3.6-.87,3.38,3.38,0,0,0-1.35-.29,3,3,0,0,0-2.85,4,2.87,2.87,0,0,0,1.51,1.69,13.92,13.92,0,0,0,6.29,1.5,14.4,14.4,0,0,0,14.38-14.39v-23.6A2.91,2.91,0,0,0,302.29,256.68Zm-5.42,21.61a8,8,0,0,1-6,2.6A7.68,7.68,0,0,1,285,278.3a9,9,0,0,1-2.53-6.5,9.24,9.24,0,0,1,2.51-6.43,7.66,7.66,0,0,1,5.85-2.73,7.91,7.91,0,0,1,6,2.72,9.92,9.92,0,0,1,2.4,6.44A9.5,9.5,0,0,1,296.87,278.29Z"/><path class="cls-3" d="M333.43,256.68a2.86,2.86,0,0,0-2.89,2.95v14.43a6.62,6.62,0,0,1-13.23,0V259.63a2.85,2.85,0,0,0-2.95-2.95,3,3,0,0,0-2.9,2.95v14.43A12.54,12.54,0,0,0,324,286.61a21.49,21.49,0,0,0,6.08-1.09,8.31,8.31,0,0,1-7.92,5.77,8.52,8.52,0,0,1-3.68-.89,2.63,2.63,0,0,0-1.25-.31,3.13,3.13,0,0,0-2.69,1.51,3.25,3.25,0,0,0-.12,2.33,2.81,2.81,0,0,0,1.57,1.64,14.37,14.37,0,0,0,6.17,1.5,14.17,14.17,0,0,0,14.33-14.33V259.63A3,3,0,0,0,333.43,256.68Z"/><path class="cls-3" d="M384,263.55a35.87,35.87,0,0,0-8.59-2.57,21,21,0,0,1-7.59-2.67,5.78,5.78,0,0,1-1.62-1.56,2.78,2.78,0,0,1-.41-1.64,4.82,4.82,0,0,1,2.27-3.76,11.57,11.57,0,0,1,6.78-2.06c3.64,0,6.58,1.77,9.78,3.9a3.3,3.3,0,0,0,1.8.54,3.15,3.15,0,0,0,2.7-1.49,3,3,0,0,0,.5-2.31,3.61,3.61,0,0,0-1.56-2.32c-3.13-2-7.42-4.79-13.22-4.79a18.28,18.28,0,0,0-10.65,3.26,11.36,11.36,0,0,0-4.94,9,9.63,9.63,0,0,0,1.42,5.08,13.43,13.43,0,0,0,5.74,4.81,32.48,32.48,0,0,0,8,2.39,24.37,24.37,0,0,1,8.33,2.86,5.69,5.69,0,0,1,1.8,1.79,3.32,3.32,0,0,1,.53,1.9,5.42,5.42,0,0,1-2.58,4.3,13,13,0,0,1-7.72,2.24c-4.23,0-8.81-2.52-11.45-4.68a3.32,3.32,0,0,0-2.1-.74,3.24,3.24,0,0,0-2.53,1.19,3.35,3.35,0,0,0,.5,4.63c3.51,2.77,9.09,6.08,15.73,6.14h0a19.3,19.3,0,0,0,11.37-3.51,11.88,11.88,0,0,0,5.31-9.57,10.07,10.07,0,0,0-1.48-5.27A14.44,14.44,0,0,0,384,263.55Z"/><path class="cls-3" d="M410.36,256.68a20,20,0,0,0-8.61,2.27,3.07,3.07,0,0,0-3.07-2.27,3,3,0,0,0-3,2.95v35.53a3.06,3.06,0,0,0,3,3,3.15,3.15,0,0,0,3.19-3l.46-11a13.72,13.72,0,0,0,8,2.46,14.7,14.7,0,0,0,14.5-14.87C424.86,263.44,418.36,256.68,410.36,256.68Zm6,21.37a8.13,8.13,0,0,1-6,2.66,7.82,7.82,0,0,1-6-2.64,8.38,8.38,0,0,1-2.49-6.33,9,9,0,0,1,2.46-6.38,8,8,0,0,1,6-2.6,8.24,8.24,0,0,1,6,2.61,9.79,9.79,0,0,1,2.46,6.37A9.23,9.23,0,0,1,416.32,278.05Z"/><path class="cls-3" d="M453.54,256.68c-1.37,0-2.53,1-3.35,2.64a13.5,13.5,0,0,0-8-2.64,13.83,13.83,0,0,0-10.18,4.5A15.15,15.15,0,0,0,428,271.74a15.4,15.4,0,0,0,4.08,10.56,14,14,0,0,0,10.18,4.37,17.17,17.17,0,0,0,8.41-2.41,3,3,0,0,0,2.9,2.41,3,3,0,0,0,3-2.95v-24A3,3,0,0,0,453.54,256.68Zm-5.41,21.55a8.18,8.18,0,0,1-5.9,2.48,8,8,0,0,1-5.9-2.48,9.48,9.48,0,0,1-2.4-6.49,9.24,9.24,0,0,1,2.4-6.49,7.71,7.71,0,0,1,5.9-2.61,7.89,7.89,0,0,1,5.9,2.6,9.27,9.27,0,0,1,2.46,6.5A9.49,9.49,0,0,1,448.13,278.23Z"/><path class="cls-3" d="M479.25,256.74a13.25,13.25,0,0,0-7.3,2.33,8.73,8.73,0,0,1-1.56,1.05,1.6,1.6,0,0,1-.18-.49,3,3,0,0,0-3.07-2.89,2.93,2.93,0,0,0-3,2.89v24.09a3,3,0,0,0,3,2.95,3.05,3.05,0,0,0,3.07-2.95l.11-12a18.45,18.45,0,0,1,2.44-4.93,9.48,9.48,0,0,1,2.88-3,6.11,6.11,0,0,1,3.85-1.22,2.93,2.93,0,1,0-.24-5.84Z"/><path class="cls-3" d="M510.67,258.6a3.12,3.12,0,0,0-5.29-2.25l-13,12.33V247.52a3.11,3.11,0,0,0-3.14-3.07,3.08,3.08,0,0,0-3.08,3.07V283.6a3.08,3.08,0,0,0,3.08,3.07,3.11,3.11,0,0,0,3.14-3.07l.09-5.59,3.78-3.33,9,10.88a3,3,0,0,0,4.31.38,3,3,0,0,0,1.11-2,3.15,3.15,0,0,0-.67-2.34l-9.4-11.7,9.18-9.18A2.93,2.93,0,0,0,510.67,258.6Z"/><polygon class="cls-3" points="525.08 286.67 525.07 286.67 525.07 286.67 525.08 286.67"/><path class="cls-3" d="M535.46,273.54a9.34,9.34,0,0,0-4.22-3.5,23,23,0,0,0-5.73-1.8,13,13,0,0,1-4.56-1.51,1.76,1.76,0,0,1-.76-.7,3.77,3.77,0,0,1-.18-.65,2.08,2.08,0,0,1,1.1-1.64,6.55,6.55,0,0,1,3.84-1.16c2.09,0,3.86,1.05,5.79,2.32a3,3,0,0,0,1.68.52,2.93,2.93,0,0,0,2.43-1.29A3.1,3.1,0,0,0,534,260a15.5,15.5,0,0,0-9-3.31,12.91,12.91,0,0,0-7.35,2.2,8.26,8.26,0,0,0-3.49,6.5,7.14,7.14,0,0,0,1,3.69,9.94,9.94,0,0,0,4.1,3.45,23.29,23.29,0,0,0,5.31,1.57,14.45,14.45,0,0,1,5,1.74c.51.33.82.62.88.83a1.15,1.15,0,0,1,.23.76,2.87,2.87,0,0,1-1.24,2.09,8.66,8.66,0,0,1-4.46,1.2,11.66,11.66,0,0,1-6.77-2.76,2.89,2.89,0,0,0-4.17.45,3,3,0,0,0-.64,2.17,2.85,2.85,0,0,0,1,1.95,17.27,17.27,0,0,0,10.7,4.15,13.5,13.5,0,0,0,7.78-2.39,8.5,8.5,0,0,0,3.73-6.86A7.56,7.56,0,0,0,535.46,273.54Z"/><path class="cls-2" d="M133.52,268.07a30.91,30.91,0,0,0-19.9-26.95A34.71,34.71,0,0,0,102,238.9h-.62l-.25,0a34.45,34.45,0,0,0-11.62,2.21,30.91,30.91,0,0,0-19.9,26.95,34.39,34.39,0,0,0,8.16,23.58c3.12,3.75,6.84,8.54,12.17,8.65a7.72,7.72,0,0,0,2.71-.31,10.1,10.1,0,0,1,1.87-.48c2.27,1.51,4.6,1.82,6.56.82a8.35,8.35,0,0,0,3.58-4.52c.63-1.54.86-3.49,1.58-5,.17,0,.71.69.84.8a11.77,11.77,0,0,1,1.63,1.82,3.81,3.81,0,0,1,1,2.13,2.18,2.18,0,0,1-1,1.82,3.31,3.31,0,0,1-2.59.58,1.69,1.69,0,0,0-1.21.15,1.56,1.56,0,0,0-.73.92,1.37,1.37,0,0,0,.15,1.08,1.61,1.61,0,0,0,1,.73,6.64,6.64,0,0,0,1.52.18,6.41,6.41,0,0,0,3.88-1.31,5.09,5.09,0,0,0,2.16-4.21c0-2-1.33-3.64-2.7-5.08a15.54,15.54,0,0,0-1.22-1.22,4.55,4.55,0,0,1-1.71-2.59,2.18,2.18,0,0,1,.84-2.36c1-.57,2.37-.27,3.36-.08a1.51,1.51,0,0,0,1.57-1,1.39,1.39,0,0,0-.16-1.09,1.83,1.83,0,0,0-1-.85,8.93,8.93,0,0,0-4.75.18c-2.47.79-3,3.14-3.21,5.5a27,27,0,0,1-1.46,5.77c-.56,1.73-1.16,4.21-3,5.06a2.32,2.32,0,0,1-2.87-.82c.66-1.29,1.48-2.47,2.12-3.77a18.73,18.73,0,0,0,1.73-5.45c.26-1.66.54-3.63-.55-5.07a4.11,4.11,0,0,0-2.71-1.52,5.34,5.34,0,0,0-.69-.05c-2.66,0-5,2.25-5.9,4.17-1.64,3.48-1.36,9.1,1.76,11.75-.28-.23-.06,0-.92.13a5.69,5.69,0,0,1-3.4-.38,13.22,13.22,0,0,1-2.9-1.82,35.24,35.24,0,0,1-4.84-5.08,31.62,31.62,0,0,1-7.5-21.63,27.89,27.89,0,0,1,17.91-24.33,30.33,30.33,0,0,1,21.61,0,27.89,27.89,0,0,1,17.91,24.33,31.62,31.62,0,0,1-7.5,21.63c-.62.74-1.28,1.47-2,2.23a26.73,26.73,0,0,0-5.22,7.3c-2.34,5.57-2.13,10.9-1.91,16.67,0,1.4.1,2.82.11,4.27a5.91,5.91,0,0,1-.36,2.39,5.61,5.61,0,0,1-4.42,2.73H94.86a5.63,5.63,0,0,1-4.57-2.74,56.93,56.93,0,0,1-.48-10.3,52.8,52.8,0,0,0,10.1,1,34.21,34.21,0,0,0,9.29-1.18,1.6,1.6,0,0,0,1-.78,1.36,1.36,0,0,0,.09-1.08,1.61,1.61,0,0,0-1.55-1.07,1.59,1.59,0,0,0-.48.07,30.49,30.49,0,0,1-8.28,1A48.18,48.18,0,0,1,88.41,309a1.62,1.62,0,0,0-.47-.07,1.81,1.81,0,0,0-.94.27,1.53,1.53,0,0,0-.69,1.13c-.13,2,.42,12.34,1,13.57,1.17,2.5,4,4.24,7.41,4.54h14.47a8.76,8.76,0,0,0,7.24-4.53,8.15,8.15,0,0,0,.63-3.59c0-1.46-.06-2.88-.12-4.59-.2-5.28-.39-10.27,1.7-15.24a22.78,22.78,0,0,1,4.42-6.17l.29-.33c.69-.76,1.37-1.53,2-2.31A34.39,34.39,0,0,0,133.52,268.07ZM93.3,286.36a5.77,5.77,0,0,1,.54-.93,3.41,3.41,0,0,1,3-1.34c1.4.39.72,3,.54,3.92-.35,1.88-1.31,5.31-3,7.05.22.34-1-1.7-1-1.79A9.33,9.33,0,0,1,93.3,286.36Z"/><path class="cls-2" d="M72,245.36h0a1.7,1.7,0,0,1-2.4,0l-2.77-2.78a1.7,1.7,0,0,1,0-2.4h0a1.69,1.69,0,0,1,2.39,0L72,243A1.72,1.72,0,0,1,72,245.36Z"/><path class="cls-2" d="M135.81,240.45h0a1.72,1.72,0,0,1,0,2.4L133,245.63a1.69,1.69,0,0,1-2.39,0h0a1.7,1.7,0,0,1,0-2.4l2.77-2.78A1.7,1.7,0,0,1,135.81,240.45Z"/><path class="cls-2" d="M72.31,296.23h0a1.69,1.69,0,0,0-2.39,0L67.14,299a1.7,1.7,0,0,0,0,2.4h0a1.69,1.69,0,0,0,2.39,0l2.78-2.79A1.69,1.69,0,0,0,72.31,296.23Z"/><path class="cls-2" d="M136.17,301.14h0a1.7,1.7,0,0,0,0-2.4L133.39,296a1.69,1.69,0,0,0-2.39,0h0a1.7,1.7,0,0,0,0,2.4l2.78,2.79A1.69,1.69,0,0,0,136.17,301.14Z"/><path class="cls-2" d="M103.05,225.82h0a1.71,1.71,0,0,1,1.7,1.7v3.93a1.69,1.69,0,0,1-1.69,1.69h0a1.71,1.71,0,0,1-1.7-1.69v-3.93A1.7,1.7,0,0,1,103.05,225.82Z"/><path class="cls-2" d="M139.45,271.36h0a1.7,1.7,0,0,1,1.7-1.69h3.93a1.69,1.69,0,0,1,1.69,1.69h0a1.7,1.7,0,0,1-1.7,1.7h-3.93A1.69,1.69,0,0,1,139.45,271.36Z"/><path class="cls-2" d="M56.13,271.36h0a1.69,1.69,0,0,1,1.69-1.69h3.93a1.7,1.7,0,0,1,1.7,1.69h0a1.7,1.7,0,0,1-1.7,1.7H57.82A1.69,1.69,0,0,1,56.13,271.36Z"/></svg>