<svg id="Layer_1" data-name="Layer 1" xmlns="http://www.w3.org/2000/svg" viewBox="0 0 595.28 595.28"><defs><style>.cls-1{fill:#232b49;}.cls-2{fill:#fff;}.cls-3{fill:#f9b233;}</style></defs><title>Logo_darker blue back</title><rect class="cls-1" x="1.04" y="-0.06" width="593.36" height="593.36"/><path class="cls-2" d="M118.62,338.14A3.45,3.45,0,0,0,122,334.7a3.41,3.41,0,0,0-3.37-3.37H96.72a3.33,3.33,0,0,0-3.36,3.37v39.51a3.43,3.43,0,0,0,3.57,3.37h21.69a3.4,3.4,0,0,0,0-6.8l-18.46-.32.32-12.64h15.6a3.4,3.4,0,0,0,3.37-3.43,3.47,3.47,0,0,0-3.37-3.37l-15.92-.31.32-12.57Z"/><path class="cls-2" d="M140.29,344.73a17.51,17.51,0,0,0-7.38,1.89,3.28,3.28,0,0,0-3-1.89,3.2,3.2,0,0,0-3.23,3.23v26.39a3.2,3.2,0,0,0,3.23,3.23,3.42,3.42,0,0,0,3.26-2.67s.1-.55.11-.56v-16a7,7,0,0,1,7-7.08,7.2,7.2,0,0,1,7.29,7.08v16a3.32,3.32,0,0,0,3.23,3.23,3.21,3.21,0,0,0,3.17-3.23v-16A13.67,13.67,0,0,0,140.29,344.73Z"/><path class="cls-2" d="M175.6,344.73c-8.77,0-16,7.37-16,16.42a16.22,16.22,0,0,0,16,16.43,16.66,16.66,0,0,0,11.78-4.33,2.42,2.42,0,0,0,.82-1.7,3.34,3.34,0,0,0-.85-2.23,2.81,2.81,0,0,0-2.07-.73,3.48,3.48,0,0,0-2.52,1,10.75,10.75,0,0,1-6.22,1.78c-.33,0-.65,0-1,0a10.65,10.65,0,0,1-6.62-3.09,7.08,7.08,0,0,1-2.06-5h21.3a3,3,0,0,0,3.18-2.62c0-.57.05-.67.05-.66C190.91,351.14,184.25,344.73,175.6,344.73Zm-9.35,13.08a9.74,9.74,0,0,1,9.34-7.36h0c6.1.5,9.54,4.72,9.88,7.74Z"/><path class="cls-2" d="M213.26,344.79a14.51,14.51,0,0,0-8,2.56,9.77,9.77,0,0,1-1.7,1.14,1.53,1.53,0,0,1-.2-.53,3.28,3.28,0,0,0-3.37-3.17,3.21,3.21,0,0,0-3.23,3.17v26.39a3.27,3.27,0,0,0,3.23,3.23,3.35,3.35,0,0,0,3.37-3.23l.12-13.13a20.23,20.23,0,0,1,2.67-5.4,10.31,10.31,0,0,1,3.16-3.29,6.65,6.65,0,0,1,4.21-1.34,3.21,3.21,0,1,0-.26-6.4Z"/><path class="cls-2" d="M245.46,344.73a4.29,4.29,0,0,0-3.74,2.75,14.87,14.87,0,0,0-8.78-2.75,15.58,15.58,0,0,0-11.16,4.85,17.32,17.32,0,0,0-4.6,11.7,16.42,16.42,0,0,0,4.6,11.58,15.2,15.2,0,0,0,11.16,5,21.41,21.41,0,0,0,9.08-2.3,9.25,9.25,0,0,1-9.08,7.42,8.42,8.42,0,0,1-3.95-1,3.63,3.63,0,0,0-1.47-.31,3.18,3.18,0,0,0-2.94,1.83,3.23,3.23,0,0,0-.19,2.55,3.19,3.19,0,0,0,1.66,1.85,15.27,15.27,0,0,0,6.89,1.64,15.77,15.77,0,0,0,15.75-15.76V348A3.2,3.2,0,0,0,245.46,344.73Zm-5.93,23.67a8.73,8.73,0,0,1-6.59,2.85,8.41,8.41,0,0,1-6.39-2.84,10,10,0,0,1-2.77-7.13,10.09,10.09,0,0,1,2.75-7,8.35,8.35,0,0,1,6.41-3,8.64,8.64,0,0,1,6.59,3,10.85,10.85,0,0,1,2.63,7A10.44,10.44,0,0,1,239.53,368.4Z"/><path class="cls-2" d="M279.57,344.73A3.13,3.13,0,0,0,276.4,348v15.81a7.25,7.25,0,0,1-14.49,0V348a3.13,3.13,0,0,0-3.23-3.23,3.24,3.24,0,0,0-3.17,3.23v15.81a13.72,13.72,0,0,0,13.68,13.74,23.28,23.28,0,0,0,6.66-1.19,9.09,9.09,0,0,1-8.67,6.31,9.34,9.34,0,0,1-4-1,2.79,2.79,0,0,0-1.36-.33,3.43,3.43,0,0,0-2.95,1.64,3.51,3.51,0,0,0-.12,2.56,3,3,0,0,0,1.71,1.79,15.49,15.49,0,0,0,22.45-14V348A3.27,3.27,0,0,0,279.57,344.73Z"/><path class="cls-2" d="M335,352.26a38.75,38.75,0,0,0-9.41-2.82,23.48,23.48,0,0,1-8.32-2.92,6.45,6.45,0,0,1-1.77-1.71A3.13,3.13,0,0,1,315,343a5.28,5.28,0,0,1,2.49-4.12,12.7,12.7,0,0,1,7.43-2.25c4,0,7.2,1.93,10.7,4.26a3.6,3.6,0,0,0,2,.6,3.47,3.47,0,0,0,3-1.64,3.35,3.35,0,0,0,.55-2.52,4,4,0,0,0-1.71-2.54c-3.43-2.22-8.13-5.26-14.48-5.26a20,20,0,0,0-11.67,3.58,12.44,12.44,0,0,0-5.41,9.89,10.53,10.53,0,0,0,1.56,5.56,14.48,14.48,0,0,0,6.28,5.27,35.42,35.42,0,0,0,8.81,2.62,26.61,26.61,0,0,1,9.13,3.13,6.45,6.45,0,0,1,2,2,3.81,3.81,0,0,1,.58,2.08,6,6,0,0,1-2.83,4.72,14.34,14.34,0,0,1-8.45,2.45c-4.64,0-9.66-2.77-12.55-5.13a3.61,3.61,0,0,0-2.3-.81,3.57,3.57,0,0,0-2.78,1.3,3.69,3.69,0,0,0,.56,5.08c3.85,3,9.95,6.66,17.23,6.72h0a21.22,21.22,0,0,0,12.46-3.84,13.06,13.06,0,0,0,5.81-10.49,11.16,11.16,0,0,0-1.62-5.77A15.76,15.76,0,0,0,335,352.26Z"/><path class="cls-2" d="M363.82,344.73a21.79,21.79,0,0,0-9.42,2.48,3.36,3.36,0,0,0-3.37-2.48,3.24,3.24,0,0,0-3.24,3.23v38.91a3.36,3.36,0,0,0,3.24,3.3,3.45,3.45,0,0,0,3.5-3.3l.5-12.05a15,15,0,0,0,8.79,2.69,16.1,16.1,0,0,0,15.89-16.29C379.71,352.13,372.59,344.73,363.82,344.73Zm6.53,23.4a8.88,8.88,0,0,1-6.53,2.92,8.59,8.59,0,0,1-6.57-2.89,9.18,9.18,0,0,1-2.72-6.94,9.78,9.78,0,0,1,2.69-7,8.79,8.79,0,0,1,6.6-2.85,9,9,0,0,1,6.53,2.86,10.67,10.67,0,0,1,2.69,7A10.06,10.06,0,0,1,370.35,368.13Z"/><path class="cls-2" d="M411.13,344.73c-1.5,0-2.78,1-3.67,2.89a14.8,14.8,0,0,0-8.72-2.89,15.18,15.18,0,0,0-11.16,4.92,16.61,16.61,0,0,0-4.47,11.57,16.86,16.86,0,0,0,4.47,11.57,15.31,15.31,0,0,0,11.16,4.79,18.88,18.88,0,0,0,9.21-2.64,3.32,3.32,0,0,0,3.18,2.64,3.23,3.23,0,0,0,3.23-3.23V348A3.27,3.27,0,0,0,411.13,344.73Zm-5.94,23.61a9,9,0,0,1-6.45,2.71,8.79,8.79,0,0,1-6.47-2.71,10.46,10.46,0,0,1-2.62-7.12,10.17,10.17,0,0,1,2.62-7.11,8.44,8.44,0,0,1,6.47-2.85,8.63,8.63,0,0,1,6.45,2.84,10.17,10.17,0,0,1,2.7,7.12A10.41,10.41,0,0,1,405.19,368.34Z"/><path class="cls-2" d="M439.28,344.79a14.46,14.46,0,0,0-8,2.56,9.94,9.94,0,0,1-1.71,1.14,1.53,1.53,0,0,1-.2-.53,3.28,3.28,0,0,0-3.37-3.17,3.21,3.21,0,0,0-3.23,3.17v26.39a3.27,3.27,0,0,0,3.23,3.23,3.34,3.34,0,0,0,3.37-3.23l.12-13.13a20,20,0,0,1,2.68-5.4,10.28,10.28,0,0,1,3.15-3.29,6.67,6.67,0,0,1,4.21-1.34,3.21,3.21,0,1,0-.26-6.4Z"/><path class="cls-2" d="M473.69,346.83a3.41,3.41,0,0,0-5.79-2.46l-14.26,13.5V334.7a3.41,3.41,0,0,0-3.44-3.37,3.37,3.37,0,0,0-3.37,3.37v39.51a3.37,3.37,0,0,0,3.37,3.37,3.41,3.41,0,0,0,3.44-3.37l.1-6.12,4.14-3.65,9.85,11.92a3.29,3.29,0,0,0,4.71.42,3.28,3.28,0,0,0,1.23-2.21,3.49,3.49,0,0,0-.74-2.56l-10.29-12.82,10.05-10.06A3.21,3.21,0,0,0,473.69,346.83Z"/><path class="cls-2" d="M500.85,363.19a10.26,10.26,0,0,0-4.62-3.83,25.27,25.27,0,0,0-6.28-2,14,14,0,0,1-5-1.66,2,2,0,0,1-.84-.76,4.74,4.74,0,0,1-.19-.71,2.29,2.29,0,0,1,1.2-1.8,7.25,7.25,0,0,1,4.21-1.27c2.29,0,4.22,1.15,6.33,2.54a3.33,3.33,0,0,0,1.85.57,3.19,3.19,0,0,0,2.66-1.41,3.4,3.4,0,0,0-1-4.54c-2-1.35-5.26-3.62-9.86-3.62a14.09,14.09,0,0,0-8,2.41,9.06,9.06,0,0,0-3.83,7.12,7.83,7.83,0,0,0,1.09,4,10.93,10.93,0,0,0,4.49,3.78,25.72,25.72,0,0,0,5.82,1.71,15.88,15.88,0,0,1,5.47,1.92c.56.36.9.67,1,.9a1.24,1.24,0,0,1,.25.84,3.12,3.12,0,0,1-1.35,2.28,9.42,9.42,0,0,1-4.88,1.32,12.75,12.75,0,0,1-7.42-3,3.06,3.06,0,0,0-2.05-.76,3.12,3.12,0,0,0-2.52,1.25,3.28,3.28,0,0,0-.7,2.37,3.18,3.18,0,0,0,1.12,2.14,19,19,0,0,0,11.73,4.55A14.85,14.85,0,0,0,498,375a9.29,9.29,0,0,0,4.09-7.51A8.32,8.32,0,0,0,500.85,363.19Z"/><polygon class="cls-2" points="489.47 377.58 489.47 377.58 489.47 377.58 489.47 377.58"/><path class="cls-3" d="M349.49,209.64a49.93,49.93,0,0,0-32.12-43.5,56.06,56.06,0,0,0-18.76-3.58l-.41,0h-.6a2.85,2.85,0,0,0-.4,0,55.51,55.51,0,0,0-18.76,3.56,49.91,49.91,0,0,0-32.12,43.5c-.75,13.24,4.05,27.11,13.17,38.07,5,6,11,13.78,19.64,14a12.69,12.69,0,0,0,4.39-.5,15.48,15.48,0,0,1,3-.77c3.66,2.42,7.43,2.93,10.6,1.32,2.87-1.47,4.58-4.4,5.77-7.29,1-2.5,1.39-5.64,2.55-8,.27,0,1.14,1.12,1.35,1.3a18.85,18.85,0,0,1,2.64,2.93,6.14,6.14,0,0,1,1.58,3.44,3.53,3.53,0,0,1-1.53,2.93,5.33,5.33,0,0,1-4.18.94,2.77,2.77,0,0,0-2,.24,2.51,2.51,0,0,0-1.18,1.49,2.23,2.23,0,0,0,.25,1.74,2.6,2.6,0,0,0,1.64,1.18,11,11,0,0,0,2.46.28,10.34,10.34,0,0,0,6.26-2.11,8.22,8.22,0,0,0,3.49-6.8c-.09-3.26-2.15-5.86-4.37-8.19a22.77,22.77,0,0,0-2-2,7.35,7.35,0,0,1-2.76-4.16c-.2-1.43,0-3,1.37-3.82,1.58-.92,3.82-.43,5.42-.13A2.47,2.47,0,0,0,316.5,234a2.28,2.28,0,0,0-.26-1.75,2.93,2.93,0,0,0-1.66-1.37,14.37,14.37,0,0,0-7.66.28c-4,1.27-4.87,5.08-5.19,8.89a42.12,42.12,0,0,1-2.36,9.31c-.9,2.79-1.87,6.78-4.76,8.16a3.75,3.75,0,0,1-4.64-1.32c1.06-2.09,2.39-4,3.43-6.09a30.87,30.87,0,0,0,2.79-8.79c.42-2.68.87-5.87-.9-8.18a6.56,6.56,0,0,0-4.36-2.46,8.56,8.56,0,0,0-1.12-.08c-4.3,0-8.07,3.63-9.53,6.73-2.64,5.62-2.2,14.68,2.84,19-.44-.38-.08,0-1.48.2a9.14,9.14,0,0,1-5.48-.61,21.66,21.66,0,0,1-4.7-2.94,57.57,57.57,0,0,1-7.8-8.19c-8.38-10.07-12.79-22.8-12.11-34.91a45,45,0,0,1,28.91-39.28,48.87,48.87,0,0,1,34.89,0,45,45,0,0,1,28.9,39.28c.69,12.11-3.73,24.84-12.1,34.91-1,1.2-2.06,2.37-3.17,3.59-3.2,3.56-6.51,7.24-8.42,11.8-3.77,9-3.44,17.58-3.09,26.9.08,2.26.17,4.55.18,6.89a9.07,9.07,0,0,1-.59,3.85c-1.06,2.27-4,4.13-7.12,4.41l-22.86,0c-3.27-.3-6.3-2.11-7.38-4.42-.53-1.16-1.21-14.66-.76-16.64a83.84,83.84,0,0,0,16.29,1.69,54.89,54.89,0,0,0,15-1.91,2.55,2.55,0,0,0,1.59-1.25A2.23,2.23,0,0,0,312,278a2.71,2.71,0,0,0-3.29-1.61A48.92,48.92,0,0,1,295.33,278a76.55,76.55,0,0,1-18.66-2.37,3.53,3.53,0,0,0-.76-.1,2.72,2.72,0,0,0-1.51.44,2.42,2.42,0,0,0-1.12,1.82c-.21,3.16.68,19.92,1.6,21.9,1.89,4,6.47,6.85,12,7.33h23.35c5.25-.47,9.84-3.34,11.69-7.32a13.23,13.23,0,0,0,1-5.8c0-2.35-.1-4.64-.2-7.41-.32-8.52-.63-16.56,2.75-24.6,1.53-3.63,4.23-6.73,7.14-10l.47-.52c1.1-1.23,2.2-2.47,3.25-3.73C345.44,236.75,350.24,222.88,349.49,209.64Zm-64.92,29.54a8.47,8.47,0,0,1,.86-1.52c.85-1.21,3.25-2.59,4.86-2.15,2.26.63,1.16,4.75.87,6.32-.55,3-2.11,8.58-4.8,11.38.37.55-1.59-2.74-1.66-2.89A15,15,0,0,1,284.57,239.18Z"/><path class="cls-3" d="M250.09,173h0a2.74,2.74,0,0,1-3.86,0l-4.48-4.5a2.75,2.75,0,0,1,0-3.87h0a2.74,2.74,0,0,1,3.86,0l4.48,4.49A2.75,2.75,0,0,1,250.09,173Z"/><path class="cls-3" d="M353.17,165.06h0a2.75,2.75,0,0,1,0,3.87l-4.48,4.49a2.72,2.72,0,0,1-3.86,0h0a2.75,2.75,0,0,1,0-3.87l4.48-4.49A2.72,2.72,0,0,1,353.17,165.06Z"/><path class="cls-3" d="M250.68,255.09h0a2.74,2.74,0,0,0-3.86,0l-4.48,4.49a2.76,2.76,0,0,0,0,3.88h0a2.74,2.74,0,0,0,3.86,0l4.48-4.49A2.76,2.76,0,0,0,250.68,255.09Z"/><path class="cls-3" d="M353.76,263h0a2.75,2.75,0,0,0,0-3.87l-4.48-4.5a2.75,2.75,0,0,0-3.87,0h0a2.76,2.76,0,0,0,0,3.88L349.9,263A2.74,2.74,0,0,0,353.76,263Z"/><path class="cls-3" d="M300.3,141.45h0a2.75,2.75,0,0,1,2.74,2.74v6.35a2.74,2.74,0,0,1-2.73,2.73h0a2.75,2.75,0,0,1-2.74-2.74v-6.35A2.74,2.74,0,0,1,300.3,141.45Z"/><path class="cls-3" d="M359.06,215h0a2.75,2.75,0,0,1,2.74-2.74h6.34a2.74,2.74,0,0,1,2.73,2.74h0a2.74,2.74,0,0,1-2.74,2.73h-6.34A2.73,2.73,0,0,1,359.06,215Z"/><path class="cls-3" d="M224.56,215h0a2.75,2.75,0,0,1,2.74-2.74h6.34a2.74,2.74,0,0,1,2.74,2.74h0a2.76,2.76,0,0,1-2.74,2.73h-6.35A2.74,2.74,0,0,1,224.56,215Z"/></svg>