<svg id="Layer_1" data-name="Layer 1" xmlns="http://www.w3.org/2000/svg" viewBox="0 0 595.28 595.28"><defs><style>.cls-1{fill:#232b49;}.cls-2{fill:#f9b233;}.cls-3{fill:#fff;}</style></defs><title>Logo_darker blue back</title><rect class="cls-1" x="0.01" y="1.92" width="594.4" height="591.49"/><path class="cls-2" d="M132.54,270.4a30.94,30.94,0,0,0-19.9-26.95A34.71,34.71,0,0,0,101,241.23h-.62a1,1,0,0,0-.25,0,34.26,34.26,0,0,0-11.63,2.2,30.94,30.94,0,0,0-19.9,26.95A34.43,34.43,0,0,0,76.79,294c3.12,3.74,6.83,8.53,12.16,8.64a7.75,7.75,0,0,0,2.72-.31,9.09,9.09,0,0,1,1.87-.47c2.27,1.5,4.6,1.81,6.56.81a8.37,8.37,0,0,0,3.58-4.51c.63-1.55.86-3.5,1.58-5,.16,0,.7.7.83.81a11.34,11.34,0,0,1,1.64,1.82,3.79,3.79,0,0,1,1,2.12,2.21,2.21,0,0,1-.95,1.82,3.28,3.28,0,0,1-2.59.58,1.73,1.73,0,0,0-1.22.15,1.51,1.51,0,0,0-.72.92,1.37,1.37,0,0,0,.15,1.08,1.62,1.62,0,0,0,1,.74,7.23,7.23,0,0,0,1.52.17,6.44,6.44,0,0,0,3.88-1.31,5.09,5.09,0,0,0,2.16-4.21c0-2-1.33-3.63-2.71-5.08a12.71,12.71,0,0,0-1.22-1.22,4.55,4.55,0,0,1-1.7-2.58,2.2,2.2,0,0,1,.84-2.37c1-.57,2.37-.26,3.36-.08a1.53,1.53,0,0,0,1.57-1,1.36,1.36,0,0,0-.16-1.08,1.74,1.74,0,0,0-1-.85,8.93,8.93,0,0,0-4.75.17c-2.46.79-3,3.15-3.21,5.51a26,26,0,0,1-1.46,5.77c-.56,1.72-1.16,4.2-2.95,5.05a2.31,2.31,0,0,1-2.87-.82c.66-1.29,1.48-2.47,2.12-3.77A18.94,18.94,0,0,0,99.52,290c.26-1.65.54-3.63-.55-5.06a4.1,4.1,0,0,0-2.71-1.53,5.47,5.47,0,0,0-.69-.05c-2.67,0-5,2.25-5.91,4.17-1.63,3.49-1.36,9.1,1.76,11.76-.27-.24,0,0-.92.12a5.65,5.65,0,0,1-3.39-.38,13.29,13.29,0,0,1-2.91-1.82,35.81,35.81,0,0,1-4.84-5.08,31.59,31.59,0,0,1-7.49-21.62,27.9,27.9,0,0,1,17.9-24.34,30.36,30.36,0,0,1,21.62,0,27.93,27.93,0,0,1,17.91,24.34,31.6,31.6,0,0,1-7.5,21.62c-.62.75-1.28,1.48-2,2.23a26.9,26.9,0,0,0-5.21,7.31c-2.34,5.56-2.14,10.89-1.92,16.66.06,1.41.11,2.82.12,4.27a5.7,5.7,0,0,1-.37,2.39,5.56,5.56,0,0,1-4.41,2.73H93.88A5.66,5.66,0,0,1,89.3,325a57.07,57.07,0,0,1-.47-10.31,51.88,51.88,0,0,0,10.09,1,33.94,33.94,0,0,0,9.3-1.18,1.56,1.56,0,0,0,1-.77,1.39,1.39,0,0,0,.1-1.09,1.63,1.63,0,0,0-1.56-1.06,2.1,2.1,0,0,0-.48.06,30,30,0,0,1-8.28,1,48.29,48.29,0,0,1-11.56-1.46,1.94,1.94,0,0,0-.46-.06,1.69,1.69,0,0,0-.94.27,1.48,1.48,0,0,0-.69,1.13c-.14,2,.42,12.34,1,13.57,1.17,2.5,4,4.23,7.41,4.54H108.2c3.25-.3,6.09-2.07,7.23-4.53a8,8,0,0,0,.64-3.6c0-1.46-.06-2.87-.13-4.59-.2-5.28-.38-10.26,1.71-15.24a22.87,22.87,0,0,1,4.42-6.17l.29-.33c.68-.76,1.37-1.52,2-2.3A34.47,34.47,0,0,0,132.54,270.4ZM92.32,288.7a5.81,5.81,0,0,1,.53-.94,3.4,3.4,0,0,1,3-1.33c1.41.38.72,2.94.54,3.91-.34,1.88-1.3,5.32-3,7.05.23.35-1-1.7-1-1.79A9.25,9.25,0,0,1,92.32,288.7Z"/><path class="cls-2" d="M71,247.69h0a1.69,1.69,0,0,1-2.39,0l-2.78-2.78a1.72,1.72,0,0,1,0-2.4h0a1.7,1.7,0,0,1,2.4,0L71,245.29A1.7,1.7,0,0,1,71,247.69Z"/><path class="cls-2" d="M134.82,242.78h0a1.7,1.7,0,0,1,0,2.4L132.05,248a1.7,1.7,0,0,1-2.4,0h0a1.7,1.7,0,0,1,0-2.4l2.78-2.78A1.69,1.69,0,0,1,134.82,242.78Z"/><path class="cls-2" d="M71.33,298.56h0a1.7,1.7,0,0,0-2.4,0l-2.77,2.78a1.7,1.7,0,0,0,0,2.4h0a1.69,1.69,0,0,0,2.39,0L71.33,301A1.72,1.72,0,0,0,71.33,298.56Z"/><path class="cls-2" d="M135.19,303.47h0a1.72,1.72,0,0,0,0-2.4l-2.78-2.78a1.69,1.69,0,0,0-2.39,0h0a1.7,1.7,0,0,0,0,2.4l2.77,2.78A1.7,1.7,0,0,0,135.19,303.47Z"/><path class="cls-2" d="M102.07,228.16h0a1.69,1.69,0,0,1,1.69,1.69v3.93a1.7,1.7,0,0,1-1.69,1.7h0a1.71,1.71,0,0,1-1.7-1.7v-3.93A1.69,1.69,0,0,1,102.07,228.16Z"/><path class="cls-2" d="M138.47,273.7h0a1.7,1.7,0,0,1,1.69-1.7h3.94a1.7,1.7,0,0,1,1.69,1.7h0a1.7,1.7,0,0,1-1.7,1.69h-3.93A1.69,1.69,0,0,1,138.47,273.7Z"/><path class="cls-2" d="M55.14,273.7h0a1.71,1.71,0,0,1,1.7-1.7h3.93a1.7,1.7,0,0,1,1.69,1.7h0a1.69,1.69,0,0,1-1.69,1.69H56.84A1.7,1.7,0,0,1,55.14,273.7Z"/><path class="cls-2" d="M162.68,324.85V307a1.65,1.65,0,0,1,1.67-1.67,1.67,1.67,0,0,1,1.7,1.67v7.28h7.85V307a1.65,1.65,0,0,1,1.67-1.67,1.67,1.67,0,0,1,1.7,1.67v17.89a1.67,1.67,0,0,1-1.7,1.67,1.65,1.65,0,0,1-1.67-1.67v-7.28h-7.85v7.28a1.67,1.67,0,0,1-1.7,1.67A1.65,1.65,0,0,1,162.68,324.85Z"/><path class="cls-2" d="M180.35,318.94a7.51,7.51,0,0,1,7.4-7.58,7.25,7.25,0,0,1,7.31,7v.15a.92.92,0,0,1,0,.28,1.47,1.47,0,0,1-1.58,1.21h-9.64a4,4,0,0,0,1,2,4.68,4.68,0,0,0,2.91,1.36,5,5,0,0,0,3.16-.75,1.71,1.71,0,0,1,2.27-.1,1.4,1.4,0,0,1,0,2,7.67,7.67,0,0,1-5.43,2A7.53,7.53,0,0,1,180.35,318.94Zm3.31-1.49h8.58a5,5,0,0,0-4.49-3.21A4.24,4.24,0,0,0,183.66,317.45Z"/><path class="cls-2" d="M198.72,305.29a1.69,1.69,0,0,1,1.7,1.67v17.89a1.68,1.68,0,0,1-3.36,0V307A1.68,1.68,0,0,1,198.72,305.29Z"/><path class="cls-2" d="M203.48,330.58V313a1.61,1.61,0,0,1,1.61-1.6,1.66,1.66,0,0,1,1.67,1.24,7.64,7.64,0,0,1,4.12-1.24,7.57,7.57,0,0,1,0,15.13,7,7,0,0,1-4.06-1.25v5.34a1.71,1.71,0,0,1-1.73,1.64A1.67,1.67,0,0,1,203.48,330.58ZM206.82,319a4,4,0,0,0,1.18,3,3.75,3.75,0,0,0,2.88,1.27,3.87,3.87,0,0,0,2.85-1.27,4.41,4.41,0,0,0,1.18-3,4.67,4.67,0,0,0-1.18-3.07,4,4,0,0,0-2.85-1.24A3.86,3.86,0,0,0,208,315.9,4.26,4.26,0,0,0,206.82,319Z"/><path class="cls-2" d="M224.34,307.57a1.63,1.63,0,0,1-1.64,1.66,1.65,1.65,0,0,1-1.64-1.66v-.64a1.63,1.63,0,0,1,1.64-1.64,1.62,1.62,0,0,1,1.64,1.64Zm0,5.48v11.83a1.62,1.62,0,0,1-1.64,1.64,1.63,1.63,0,0,1-1.64-1.64V313.05a1.61,1.61,0,0,1,1.64-1.66A1.6,1.6,0,0,1,224.34,313.05Z"/><path class="cls-2" d="M240.68,317.66v7.25a1.6,1.6,0,0,1-1.58,1.61,1.63,1.63,0,0,1-1.6-1.61v-7.25a3.11,3.11,0,0,0-3.16-3.06,3,3,0,0,0-3,3.06v7.25a.59.59,0,0,1-.06.3,1.66,1.66,0,0,1-1.61,1.31,1.59,1.59,0,0,1-1.6-1.61V313a1.59,1.59,0,0,1,1.6-1.6,1.63,1.63,0,0,1,1.49.94,6,6,0,0,1,3.21-.94A6.35,6.35,0,0,1,240.68,317.66Z"/><path class="cls-2" d="M258.66,319v5.64a7.3,7.3,0,0,1-7.28,7.27,7.13,7.13,0,0,1-3.19-.75,1.64,1.64,0,0,1,1.46-2.94,3.69,3.69,0,0,0,1.73.42,4.06,4.06,0,0,0,4-3.24,7,7,0,0,1-9.13-1.1A7.59,7.59,0,0,1,244.1,319a8,8,0,0,1,2.12-5.4,7.21,7.21,0,0,1,5.16-2.24,6.88,6.88,0,0,1,4.06,1.27,1.63,1.63,0,0,1,1.61-1.27,1.59,1.59,0,0,1,1.61,1.6V319Zm-3.25,0a4.7,4.7,0,0,0-1.15-3.1,3.78,3.78,0,0,0-2.88-1.3,3.64,3.64,0,0,0-2.79,1.3,4.45,4.45,0,0,0-1.21,3.1,4.36,4.36,0,0,0,1.21,3.12,3.68,3.68,0,0,0,2.79,1.24,3.83,3.83,0,0,0,2.88-1.24A4.6,4.6,0,0,0,255.41,319Z"/><path class="cls-2" d="M270.44,322.18a1.58,1.58,0,0,1,2.28-.24,5.51,5.51,0,0,0,3.33,1.33,4.05,4.05,0,0,0,2.06-.57,1.25,1.25,0,0,0,.55-.91.48.48,0,0,0-.09-.31c0-.09-.15-.21-.4-.36a7,7,0,0,0-2.42-.85h0a11.28,11.28,0,0,1-2.64-.79,5,5,0,0,1-2.09-1.76,3.6,3.6,0,0,1-.52-1.91,4.26,4.26,0,0,1,1.79-3.33,6.51,6.51,0,0,1,3.73-1.12,7.86,7.86,0,0,1,4.55,1.66,1.67,1.67,0,0,1,.48,2.25,1.59,1.59,0,0,1-2.24.42,5.17,5.17,0,0,0-2.79-1.12,3.05,3.05,0,0,0-1.82.55.91.91,0,0,0-.48.69.36.36,0,0,0,.06.25.81.81,0,0,0,.33.3,6.22,6.22,0,0,0,2.21.73l0,0h0a10.43,10.43,0,0,1,2.82.88,4.72,4.72,0,0,1,2.16,1.79,3.93,3.93,0,0,1,.57,2A4.33,4.33,0,0,1,280,325.3a6.87,6.87,0,0,1-3.94,1.22,8.91,8.91,0,0,1-5.4-2.09A1.64,1.64,0,0,1,270.44,322.18Z"/><path class="cls-2" d="M283.51,319a7.7,7.7,0,0,1,7.7-7.61A8,8,0,0,1,296,313a1.67,1.67,0,0,1,.33,2.25,1.6,1.6,0,0,1-2.27.3,4.89,4.89,0,0,0-2.88-1,4.35,4.35,0,1,0,0,8.7,4.89,4.89,0,0,0,2.88-1,1.61,1.61,0,0,1,1.94,2.58,8.34,8.34,0,0,1-4.82,1.61A7.68,7.68,0,0,1,283.51,319Z"/><path class="cls-2" d="M302.82,324.85a1.67,1.67,0,0,1-1.7,1.67,1.72,1.72,0,0,1-1.61-1.25,1.77,1.77,0,0,1-.06-.42V307a1.69,1.69,0,0,1,3.37,0v5.28a6.85,6.85,0,0,1,3.24-.88,6.63,6.63,0,0,1,6.61,6.64v6.85a1.67,1.67,0,1,1-3.33,0V318a3.26,3.26,0,1,0-6.52,0Z"/><path class="cls-2" d="M317,324.3a7.56,7.56,0,0,1-2.09-5.33,7.86,7.86,0,0,1,2.09-5.31,7.12,7.12,0,0,1,5.22-2.3,6.71,6.71,0,0,1,5.06,2.3A7.57,7.57,0,0,1,329.4,319a7.3,7.3,0,0,1-2.12,5.33,6.68,6.68,0,0,1-5.06,2.31A7.09,7.09,0,0,1,317,324.3Zm1.22-5.33a4.89,4.89,0,0,0,1.09,3.21,4.1,4.1,0,0,0,2.91,1.12,4,4,0,0,0,2.79-1.12,4.65,4.65,0,0,0,1.18-3.21,4.56,4.56,0,0,0-1.18-3.16,4.33,4.33,0,0,0-2.79-1.15,4.45,4.45,0,0,0-2.91,1.15A4.79,4.79,0,0,0,318.22,319Z"/><path class="cls-2" d="M333.52,324.3a7.56,7.56,0,0,1-2.09-5.33,7.86,7.86,0,0,1,2.09-5.31,7.12,7.12,0,0,1,5.22-2.3,6.71,6.71,0,0,1,5.06,2.3,7.57,7.57,0,0,1,2.12,5.31,7.3,7.3,0,0,1-2.12,5.33,6.68,6.68,0,0,1-5.06,2.31A7.09,7.09,0,0,1,333.52,324.3Zm1.22-5.33a4.89,4.89,0,0,0,1.09,3.21,4.1,4.1,0,0,0,2.91,1.12,4,4,0,0,0,2.79-1.12,4.65,4.65,0,0,0,1.18-3.21,4.56,4.56,0,0,0-1.18-3.16,4.33,4.33,0,0,0-2.79-1.15,4.45,4.45,0,0,0-2.91,1.15A4.79,4.79,0,0,0,334.74,319Z"/><path class="cls-2" d="M350.53,305.29a1.69,1.69,0,0,1,1.7,1.67v17.89a1.69,1.69,0,0,1-3.37,0V307A1.69,1.69,0,0,1,350.53,305.29Z"/><path class="cls-2" d="M354.56,322.18a1.57,1.57,0,0,1,2.27-.24,5.57,5.57,0,0,0,3.34,1.33,4.05,4.05,0,0,0,2.06-.57,1.25,1.25,0,0,0,.55-.91.48.48,0,0,0-.09-.31c0-.09-.16-.21-.4-.36a7,7,0,0,0-2.42-.85h0a11.28,11.28,0,0,1-2.64-.79,5.07,5.07,0,0,1-2.1-1.76,3.68,3.68,0,0,1-.51-1.91,4.26,4.26,0,0,1,1.79-3.33,6.49,6.49,0,0,1,3.73-1.12,7.86,7.86,0,0,1,4.55,1.66,1.68,1.68,0,0,1,.48,2.25,1.59,1.59,0,0,1-2.24.42,5.17,5.17,0,0,0-2.79-1.12,3,3,0,0,0-1.82.55c-.4.27-.49.54-.49.69a.36.36,0,0,0,.06.25.86.86,0,0,0,.34.3,6.15,6.15,0,0,0,2.21.73l0,0h0a10.65,10.65,0,0,1,2.82.88,4.64,4.64,0,0,1,2.15,1.79,3.84,3.84,0,0,1,.58,2,4.36,4.36,0,0,1-1.91,3.51,6.89,6.89,0,0,1-3.94,1.22,8.85,8.85,0,0,1-5.4-2.09A1.62,1.62,0,0,1,354.56,322.18Z"/><path class="cls-2" d="M375.54,322.18a1.57,1.57,0,0,1,2.27-.24,5.54,5.54,0,0,0,3.33,1.33,4.12,4.12,0,0,0,2.07-.57,1.26,1.26,0,0,0,.54-.91.48.48,0,0,0-.09-.31c0-.09-.15-.21-.39-.36a7.14,7.14,0,0,0-2.43-.85h0a11.28,11.28,0,0,1-2.64-.79,5,5,0,0,1-2.09-1.76,3.68,3.68,0,0,1-.51-1.91,4.25,4.25,0,0,1,1.78-3.33,6.54,6.54,0,0,1,3.73-1.12,7.83,7.83,0,0,1,4.55,1.66,1.69,1.69,0,0,1,.49,2.25,1.61,1.61,0,0,1-2.25.42,5.17,5.17,0,0,0-2.79-1.12,3.08,3.08,0,0,0-1.82.55.91.91,0,0,0-.48.69.36.36,0,0,0,.06.25.81.81,0,0,0,.33.3,6.29,6.29,0,0,0,2.22.73l0,0h0a10.65,10.65,0,0,1,2.82.88,4.69,4.69,0,0,1,2.15,1.79,3.94,3.94,0,0,1,.58,2,4.36,4.36,0,0,1-1.91,3.51,6.93,6.93,0,0,1-3.95,1.22,8.85,8.85,0,0,1-5.39-2.09A1.62,1.62,0,0,1,375.54,322.18Z"/><path class="cls-2" d="M402.49,319v5.94a1.62,1.62,0,0,1-1.61,1.61,1.65,1.65,0,0,1-1.58-1.31,6.86,6.86,0,0,1-4,1.31,7,7,0,0,1-5.15-2.22,7.72,7.72,0,0,1-2.07-5.33,7.63,7.63,0,0,1,2.07-5.34,7,7,0,0,1,5.15-2.27,6.88,6.88,0,0,1,4,1.33,1.64,1.64,0,0,1,1.58-1.33,1.62,1.62,0,0,1,1.61,1.63Zm-3.22,0a4.46,4.46,0,0,0-1.18-3.13,3.75,3.75,0,0,0-2.82-1.24,3.66,3.66,0,0,0-2.82,1.24A4.44,4.44,0,0,0,391.3,319a4.54,4.54,0,0,0,1.15,3.12,3.82,3.82,0,0,0,2.82,1.18,3.92,3.92,0,0,0,2.82-1.18A4.56,4.56,0,0,0,399.27,319Z"/><path class="cls-2" d="M418.28,313.78l-5,11.77a.51.51,0,0,1-.13.21,0,0,0,0,1,0,0L413,326a0,0,0,0,1,0,0,1,1,0,0,1-.18.18,0,0,0,0,0,0,0,.56.56,0,0,1-.21.16h-.06v0a.66.66,0,0,0-.25.06h-.06a1.13,1.13,0,0,1-.3,0,1,1,0,0,1-.27,0h-.06a.71.71,0,0,0-.25-.06v0h-.06a3.09,3.09,0,0,1-.27-.16,0,0,0,0,0,0,0,1,1,0,0,1-.18-.18s0,0-.06,0a.91.91,0,0,0-.15-.21s0,0,0,0-.09-.12-.13-.21l-4.91-11.77a1.54,1.54,0,0,1,.88-2.06,1.56,1.56,0,0,1,2,.88l3.49,8.25,3.52-8.25a1.57,1.57,0,1,1,2.91,1.18Z"/><path class="cls-2" d="M420.46,318.94a7.5,7.5,0,0,1,7.4-7.58,7.24,7.24,0,0,1,7.3,7v.15a.92.92,0,0,1,0,.28,1.46,1.46,0,0,1-1.57,1.21h-9.65a4.09,4.09,0,0,0,1,2,4.68,4.68,0,0,0,2.92,1.36,5,5,0,0,0,3.15-.75,1.71,1.71,0,0,1,2.27-.1,1.39,1.39,0,0,1,0,2,7.66,7.66,0,0,1-5.42,2A7.53,7.53,0,0,1,420.46,318.94Zm3.3-1.49h8.58a5,5,0,0,0-4.48-3.21A4.25,4.25,0,0,0,423.76,317.45Z"/><path class="cls-2" d="M445,318.94a7.5,7.5,0,0,1,7.4-7.58,7.26,7.26,0,0,1,7.31,7v.15a.92.92,0,0,1,0,.28,1.47,1.47,0,0,1-1.58,1.21h-9.64a3.93,3.93,0,0,0,1,2,4.65,4.65,0,0,0,2.91,1.36,5,5,0,0,0,3.15-.75,1.73,1.73,0,0,1,2.28-.1,1.41,1.41,0,0,1,0,2,7.7,7.7,0,0,1-5.43,2A7.53,7.53,0,0,1,445,318.94Zm3.3-1.49h8.59a5,5,0,0,0-4.49-3.21A4.25,4.25,0,0,0,448.28,317.45Z"/><path class="cls-2" d="M474.11,317.66v7.25a1.59,1.59,0,0,1-1.57,1.61,1.64,1.64,0,0,1-1.61-1.61v-7.25a3.11,3.11,0,0,0-3.15-3.06,3,3,0,0,0-3,3.06v7.25a.59.59,0,0,1-.06.3,1.65,1.65,0,0,1-1.6,1.31,1.6,1.6,0,0,1-1.61-1.61V313a1.59,1.59,0,0,1,1.61-1.6,1.63,1.63,0,0,1,1.48.94,6,6,0,0,1,3.22-.94A6.34,6.34,0,0,1,474.11,317.66Z"/><path class="cls-2" d="M477.47,318.94a7.51,7.51,0,0,1,7.4-7.58,7.25,7.25,0,0,1,7.31,7v.15a.92.92,0,0,1,0,.28,1.47,1.47,0,0,1-1.58,1.21h-9.64a4,4,0,0,0,1,2,4.68,4.68,0,0,0,2.91,1.36,5,5,0,0,0,3.16-.75,1.71,1.71,0,0,1,2.27-.1,1.4,1.4,0,0,1,0,2,7.68,7.68,0,0,1-5.43,2A7.53,7.53,0,0,1,477.47,318.94Zm3.31-1.49h8.58a5,5,0,0,0-4.49-3.21A4.24,4.24,0,0,0,480.78,317.45Z"/><path class="cls-2" d="M504.18,313a1.61,1.61,0,0,1-1.6,1.61,2.85,2.85,0,0,0-1.82.58,4.62,4.62,0,0,0-1.4,1.45,9.09,9.09,0,0,0-1.24,2.55v5.76a1.65,1.65,0,0,1-1.67,1.61,1.62,1.62,0,0,1-1.61-1.61V313a1.59,1.59,0,0,1,1.61-1.57,1.62,1.62,0,0,1,1.67,1.57v.22a3.34,3.34,0,0,1,.64-.61,6.62,6.62,0,0,1,3.82-1.18A1.56,1.56,0,0,1,504.18,313Z"/><path class="cls-2" d="M520.19,319v5.64a7.3,7.3,0,0,1-7.28,7.27,7.09,7.09,0,0,1-3.18-.75,1.64,1.64,0,0,1,1.45-2.94,3.69,3.69,0,0,0,1.73.42,4.06,4.06,0,0,0,4-3.24,7,7,0,0,1-9.12-1.1,7.55,7.55,0,0,1-2.13-5.33,7.94,7.94,0,0,1,2.13-5.4,7.17,7.17,0,0,1,5.15-2.24,6.86,6.86,0,0,1,4.06,1.27,1.64,1.64,0,0,1,1.61-1.27,1.59,1.59,0,0,1,1.61,1.6V319Zm-3.25,0a4.7,4.7,0,0,0-1.15-3.1,3.78,3.78,0,0,0-2.88-1.3,3.64,3.64,0,0,0-2.79,1.3,4.45,4.45,0,0,0-1.21,3.1,4.36,4.36,0,0,0,1.21,3.12,3.68,3.68,0,0,0,2.79,1.24,3.83,3.83,0,0,0,2.88-1.24A4.6,4.6,0,0,0,516.94,319Z"/><path class="cls-2" d="M535.65,313v11.47a7.19,7.19,0,0,1-7.25,7.24,7.11,7.11,0,0,1-3.12-.76,1.58,1.58,0,0,1-.79-2.15,1.66,1.66,0,0,1,2.15-.67,3.94,3.94,0,0,0,5.55-2.33,6,6,0,0,1-2.88.73,6.38,6.38,0,0,1-6.34-6.37V313a1.61,1.61,0,0,1,1.58-1.6,1.56,1.56,0,0,1,1.61,1.6v7.16a3.14,3.14,0,0,0,6.27,0V313a1.55,1.55,0,0,1,1.58-1.6A1.62,1.62,0,0,1,535.65,313Z"/><path class="cls-3" d="M185.54,246.64a3.11,3.11,0,0,0,0-6.21h-20a3,3,0,0,0-3.08,3.08v36.07a3.14,3.14,0,0,0,3.26,3.07h19.81a3.1,3.1,0,0,0,0-6.2l-16.86-.29.29-11.54h14.25a3.11,3.11,0,0,0,3.08-3.14,3.16,3.16,0,0,0-3.08-3.07l-14.54-.29.29-11.48Z"/><path class="cls-3" d="M205.33,252.66a16.17,16.17,0,0,0-6.74,1.72,3,3,0,0,0-2.74-1.72,2.92,2.92,0,0,0-2.95,3V279.7a2.91,2.91,0,0,0,2.95,2.95,3.09,3.09,0,0,0,3-2.43s.1-.51.1-.52V265.09a6.36,6.36,0,0,1,6.41-6.46,6.56,6.56,0,0,1,6.65,6.46V279.7a3,3,0,0,0,3,2.95,2.92,2.92,0,0,0,2.89-2.95V265.09A12.47,12.47,0,0,0,205.33,252.66Z"/><path class="cls-3" d="M237.57,252.66a15,15,0,0,0,0,30,15.21,15.21,0,0,0,10.75-3.95,2.16,2.16,0,0,0,.74-1.55,3,3,0,0,0-.77-2,2.56,2.56,0,0,0-1.89-.67,3.17,3.17,0,0,0-2.3.91,9.87,9.87,0,0,1-5.68,1.62,8.51,8.51,0,0,1-.88,0,9.77,9.77,0,0,1-6-2.82,6.49,6.49,0,0,1-1.88-4.54h19.44a2.69,2.69,0,0,0,2.91-2.4c0-.51,0-.6,0-.59C251.54,258.51,245.46,252.66,237.57,252.66ZM229,264.6a8.88,8.88,0,0,1,8.52-6.71h0c5.57.45,8.71,4.3,9,7.06Z"/><path class="cls-3" d="M271.94,252.72a13.2,13.2,0,0,0-7.3,2.34,9.21,9.21,0,0,1-1.55,1,1.39,1.39,0,0,1-.19-.49,3,3,0,0,0-3.07-2.89,2.92,2.92,0,0,0-2.95,2.89V279.7a3,3,0,0,0,2.95,2.95,3.05,3.05,0,0,0,3.07-2.95l.12-12a18,18,0,0,1,2.44-4.93,9.24,9.24,0,0,1,2.88-3,6,6,0,0,1,3.84-1.23,2.93,2.93,0,1,0-.24-5.84Z"/><path class="cls-3" d="M301.34,252.66a3.91,3.91,0,0,0-3.41,2.52,13.54,13.54,0,0,0-8-2.52,14.17,14.17,0,0,0-10.18,4.43,15.83,15.83,0,0,0-4.21,10.69,14.93,14.93,0,0,0,4.21,10.56,13.82,13.82,0,0,0,10.18,4.56,19.6,19.6,0,0,0,8.29-2.1,8.44,8.44,0,0,1-8.29,6.77,7.72,7.72,0,0,1-3.6-.87,3.38,3.38,0,0,0-1.35-.29,3,3,0,0,0-2.85,4,2.84,2.84,0,0,0,1.51,1.69,13.92,13.92,0,0,0,6.29,1.5,14.41,14.41,0,0,0,14.39-14.39v-23.6A2.93,2.93,0,0,0,301.34,252.66Zm-5.41,21.61a8,8,0,0,1-6,2.6,7.68,7.68,0,0,1-5.83-2.59,9,9,0,0,1-2.53-6.5,9.24,9.24,0,0,1,2.51-6.43,7.65,7.65,0,0,1,5.85-2.72,7.9,7.9,0,0,1,6,2.71,9.92,9.92,0,0,1,2.4,6.44A9.52,9.52,0,0,1,295.93,274.27Z"/><path class="cls-3" d="M332.49,252.66a2.86,2.86,0,0,0-2.89,3V270a6.62,6.62,0,0,1-13.24,0V255.61a2.85,2.85,0,0,0-2.95-3,3,3,0,0,0-2.89,3V270A12.53,12.53,0,0,0,323,282.59a21.15,21.15,0,0,0,6.08-1.09,8.31,8.31,0,0,1-7.92,5.77,8.52,8.52,0,0,1-3.68-.89,2.57,2.57,0,0,0-1.25-.31,3.13,3.13,0,0,0-2.69,1.51,3.2,3.2,0,0,0-.11,2.33,2.77,2.77,0,0,0,1.56,1.64,14.37,14.37,0,0,0,6.17,1.5,14.17,14.17,0,0,0,14.33-14.32V255.61A3,3,0,0,0,332.49,252.66Z"/><path class="cls-3" d="M383.08,259.54a35.25,35.25,0,0,0-8.59-2.58,21.18,21.18,0,0,1-7.59-2.67,5.78,5.78,0,0,1-1.62-1.56,2.86,2.86,0,0,1-.41-1.64,4.85,4.85,0,0,1,2.27-3.76,11.59,11.59,0,0,1,6.78-2.06c3.64,0,6.58,1.77,9.78,3.9a3.22,3.22,0,0,0,1.8.54,3.15,3.15,0,0,0,2.7-1.49,3.09,3.09,0,0,0,.51-2.31,3.68,3.68,0,0,0-1.56-2.32c-3.14-2-7.43-4.79-13.23-4.79a18.28,18.28,0,0,0-10.65,3.26,11.36,11.36,0,0,0-4.94,9,9.55,9.55,0,0,0,1.43,5.08,13.34,13.34,0,0,0,5.73,4.81,32.48,32.48,0,0,0,8,2.39,24.44,24.44,0,0,1,8.34,2.86,5.76,5.76,0,0,1,1.79,1.79,3.35,3.35,0,0,1,.54,1.9,5.43,5.43,0,0,1-2.59,4.3,13,13,0,0,1-7.72,2.25c-4.23,0-8.81-2.53-11.45-4.69a3.31,3.31,0,0,0-2.09-.74,3.25,3.25,0,0,0-2.54,1.19,3.34,3.34,0,0,0,.51,4.63c3.51,2.77,9.08,6.08,15.73,6.14h0a19.35,19.35,0,0,0,11.38-3.51,11.89,11.89,0,0,0,5.3-9.57,10.07,10.07,0,0,0-1.48-5.27A14.36,14.36,0,0,0,383.08,259.54Z"/><path class="cls-3" d="M409.41,252.66a19.91,19.91,0,0,0-8.6,2.27,3.09,3.09,0,0,0-3.08-2.27,3,3,0,0,0-3,3v35.53a3.06,3.06,0,0,0,3,3,3.15,3.15,0,0,0,3.19-3l.46-11a13.72,13.72,0,0,0,8,2.46,14.71,14.71,0,0,0,14.51-14.87C423.92,259.42,417.41,252.66,409.41,252.66Zm6,21.37a8.13,8.13,0,0,1-6,2.66,7.82,7.82,0,0,1-6-2.64,8.36,8.36,0,0,1-2.49-6.33,9,9,0,0,1,2.46-6.38,8,8,0,0,1,6-2.59,8.23,8.23,0,0,1,6,2.6,9.79,9.79,0,0,1,2.46,6.37A9.23,9.23,0,0,1,415.37,274Z"/><path class="cls-3" d="M452.59,252.66c-1.36,0-2.53,1-3.34,2.64a13.55,13.55,0,0,0-8-2.64,13.83,13.83,0,0,0-10.18,4.5A15.15,15.15,0,0,0,427,267.72a15.38,15.38,0,0,0,4.08,10.56,14,14,0,0,0,10.18,4.37,17.17,17.17,0,0,0,8.41-2.41,3,3,0,0,0,2.9,2.41,3,3,0,0,0,3-2.95v-24A3,3,0,0,0,452.59,252.66Zm-5.41,21.55a8.18,8.18,0,0,1-5.9,2.48,8,8,0,0,1-5.9-2.48,9.52,9.52,0,0,1-2.39-6.49,9.28,9.28,0,0,1,2.39-6.49,7.7,7.7,0,0,1,5.9-2.6,7.88,7.88,0,0,1,5.9,2.59,9.27,9.27,0,0,1,2.46,6.5A9.49,9.49,0,0,1,447.18,274.21Z"/><path class="cls-3" d="M478.3,252.72a13.2,13.2,0,0,0-7.3,2.34,9.38,9.38,0,0,1-1.56,1,1.6,1.6,0,0,1-.18-.49,3,3,0,0,0-3.07-2.89,2.93,2.93,0,0,0-3,2.89V279.7a3,3,0,0,0,3,2.95,3.05,3.05,0,0,0,3.07-2.95l.11-12a18.6,18.6,0,0,1,2.44-4.93,9.26,9.26,0,0,1,2.89-3,6,6,0,0,1,3.84-1.23,2.93,2.93,0,1,0-.24-5.84Z"/><path class="cls-3" d="M509.72,254.58a3.12,3.12,0,0,0-5.29-2.25l-13,12.33V243.51a3.11,3.11,0,0,0-3.14-3.08,3.08,3.08,0,0,0-3.07,3.08v36.07a3.07,3.07,0,0,0,3.07,3.07,3.11,3.11,0,0,0,3.14-3.07l.09-5.59,3.78-3.33,9,10.88a2.92,2.92,0,0,0,2.34,1.11,2.89,2.89,0,0,0,2-.73,3.05,3.05,0,0,0,1.12-2,3.17,3.17,0,0,0-.68-2.34l-9.39-11.71,9.17-9.18A2.93,2.93,0,0,0,509.72,254.58Z"/><path class="cls-3" d="M534.51,269.52a9.37,9.37,0,0,0-4.21-3.5,23.26,23.26,0,0,0-5.74-1.8,13,13,0,0,1-4.56-1.51,1.7,1.7,0,0,1-.76-.7,3.77,3.77,0,0,1-.18-.65,2.09,2.09,0,0,1,1.1-1.64,6.55,6.55,0,0,1,3.84-1.16c2.09,0,3.86,1.05,5.79,2.32a3,3,0,0,0,1.68.52,2.88,2.88,0,0,0,2.43-1.29A3.1,3.1,0,0,0,533,256a15.5,15.5,0,0,0-9-3.31,12.91,12.91,0,0,0-7.35,2.2,8.26,8.26,0,0,0-3.49,6.5,7.14,7.14,0,0,0,1,3.69,9.94,9.94,0,0,0,4.1,3.45,23.45,23.45,0,0,0,5.31,1.57,14.22,14.22,0,0,1,5,1.75c.52.32.82.61.88.82a1.15,1.15,0,0,1,.23.76,2.87,2.87,0,0,1-1.24,2.09,8.64,8.64,0,0,1-4.46,1.2,11.54,11.54,0,0,1-6.76-2.76,2.9,2.9,0,0,0-4.18.45,3,3,0,0,0-.64,2.17,2.85,2.85,0,0,0,1,1.95,17.27,17.27,0,0,0,10.71,4.15,13.45,13.45,0,0,0,7.77-2.39,8.5,8.5,0,0,0,3.73-6.86A7.56,7.56,0,0,0,534.51,269.52Z"/><polygon class="cls-3" points="524.13 282.65 524.13 282.65 524.12 282.65 524.13 282.65"/></svg>